<?xml version="1.0" standalone="no"?>
<!DOCTYPE svg PUBLIC "-//W3C//DTD SVG 1.1//EN" "http://www.w3.org/Graphics/SVG/1.1/DTD/svg11.dtd" >
<svg xmlns="http://www.w3.org/2000/svg" xmlns:xlink="http://www.w3.org/1999/xlink" version="1.1">
<metadata>
Created by FontForge 20170731 at Wed Dec 29 20:06:04 2021
 By Aleksey,,,
Copyright 2021 Yoo Ji Hun All rights reserved.
</metadata>
<defs>
<font id="areminiscentsmile-Thin" horiz-adv-x="536" >
  <font-face 
    font-family="areminiscentsmile"
    font-weight="100"
    font-stretch="normal"
    units-per-em="1000"
    panose-1="0 0 0 0 0 0 0 0 0 0"
    ascent="800"
    descent="-200"
    x-height="515"
    cap-height="800"
    bbox="-55 -305 786 925"
    underline-thickness="50"
    underline-position="-175"
    unicode-range="U+0020-3009"
  />
<missing-glyph horiz-adv-x="500" 
d="M410 -200h-317v1000h317v-1000zM167 118v-113h166v113h-166zM300 38h-100v47h100v-47zM233 291v-56h34v23h33v-47h-100v80h-33v-113h166v113h-100zM300 413v-66h-133v-34h166v100h-33zM167 473v-33h66v-37h-66v-33h100v70h66v33h-166zM233 534h-33v36h33v-36zM167 604
v-104h166v34h-66v70h-100zM168 733v-33h65v-37h-66v-33h166v33h-66v37h66v33h-165zM167 -18v-33h70l-70 -47v-33h166v33h-102l70 47h32v33h-166z" />
    <glyph glyph-name=".notdef" horiz-adv-x="500" 
d="M410 -200h-317v1000h317v-1000zM167 118v-113h166v113h-166zM300 38h-100v47h100v-47zM233 291v-56h34v23h33v-47h-100v80h-33v-113h166v113h-100zM300 413v-66h-133v-34h166v100h-33zM167 473v-33h66v-37h-66v-33h100v70h66v33h-166zM233 534h-33v36h33v-36zM167 604
v-104h166v34h-66v70h-100zM168 733v-33h65v-37h-66v-33h166v33h-66v37h66v33h-165zM167 -18v-33h70l-70 -47v-33h166v33h-102l70 47h32v33h-166z" />
    <glyph glyph-name=".null" horiz-adv-x="0" 
 />
    <glyph glyph-name="nonmarkingreturn" horiz-adv-x="333" 
 />
    <glyph glyph-name="space" unicode=" " horiz-adv-x="265" 
 />
    <glyph glyph-name="space" unicode="&#xa0;" horiz-adv-x="265" 
 />
    <glyph glyph-name="exclam" unicode="!" horiz-adv-x="261" 
d="M192 869l-8 -38l-12 -97q-7 -60 -18 -178q-6 -53 -9 -97q-4 -56 -4 -69q-2 -18 -2 -44v-24q0 -17 -10 -30l-45 -46q-3 -3 -6 -3q-2 0 -6 2q-6 6 -5 16l34 575l95 47zM151 88l-32 48q-6 9 -11 9q-6 0 -11 -9l-32 -48q-5 -8 -5 -15t5 -17l32 -49q4 -7 11 -7q8 0 11 7l32 49
q6 9 6 17t-6 15z" />
    <glyph glyph-name="quotedbl" unicode="&#x22;" horiz-adv-x="309" 
d="M162 606l21 -31q5 -6 11 -6q7 0 11 6l34 51q5 8 5 17q0 10 -5 17l-11 16q-11 19 -15 35q-4 10 -6 31q0 16 9 31l1 2l-14 25l-2 -3q-16 -25 -25 -44q-14 -27 -18 -46q-8 -22 -10 -49q0 -9 4 -27q1 -13 10 -25zM44 606l21 -31q5 -6 11 -6q7 0 11 6l34 51q5 8 5 17
q0 10 -5 17l-11 16q-12 25 -15 35q-4 10 -6 31q0 16 9 31l1 2l-14 25l-2 -3q-16 -25 -25 -44q-11 -22 -18 -46q-8 -22 -10 -49q0 -9 4 -27q1 -13 10 -25z" />
    <glyph glyph-name="numbersign" unicode="#" horiz-adv-x="521" 
d="M375 563h81v-10h-83l-57 -331h81v-11h-83l-36 -211h-65l36 211h-106l-36 -211h-65l36 211h-58v11h60l58 331h-59v10h60l46 266h65l-46 -266h106l47 266h65zM251 222l57 331h-106l-57 -331h106z" />
    <glyph glyph-name="dollar" unicode="$" horiz-adv-x="404" 
d="M136 666q-16 -8 -27 -28q-10 -19 -14 -38q-4 -24 -6 -51q0 -41 11 -79q12 -36 36 -62l12 -9q2 -1 4 -3t5 -4v277q-12 0 -21 -3zM197 356l-12 7q-4 1 -10 5l-12 5v-316h6l8 1q17 6 30 25q11 16 21 42q8 27 11 45q3 14 3 32q0 22 -1 36q-2 23 -6 44q-4 22 -14 43t-24 31z
M335 248q6 -25 4 -51q-1 -24 -11 -49q-9 -22 -25 -43q-18 -21 -41 -34q-21 -13 -54 -19q-26 -5 -42 -5h-3v-47h-32l4 51q-23 3 -44 15q-23 13 -44 34q-25 28 -36 50q-16 28 -24 61l-4 15l-3 17v2l41 55v-8q-1 -11 -1 -34t1 -34q0 -17 6 -57q5 -29 15 -50q19 -22 46 -38
q26 -16 48 -19l21 236v81q-5 2 -27 13q-24 12 -29 14l-7 4l-4 3q-2 0 -8 5l-13 8l-13 10l-8 7q-22 19 -35 61q-5 18 -5 41q0 22 4 38q6 23 19 42q12 16 29 27q19 12 34 16q18 6 36 9q11 3 27 3v73h32l-14 -73q16 0 43 -10q19 -6 38 -17q21 -13 35 -30q15 -18 24 -43t9 -59
v-2l-46 -58v7q0 54 -7 88q-8 35 -20 58t-27 35q-12 11 -28 18l-13 3l-10 1l-10 -46v-237q16 -11 46 -25l40 -23l39 -24q21 -16 29 -25q13 -13 18 -41z" />
    <glyph glyph-name="percent" unicode="%" horiz-adv-x="498" 
d="M71 0h9l271 675h-9zM37 416q0 -39 14 -54l11 -8q2 -1 3.5 -2t3.5 -1l7 -3q16 1 34 30q19 33 33 93q16 63 16 104q0 38 -12 54q-2 2 -12 10l-7 4l-5 2q-18 0 -35 -27q-19 -29 -35 -95q-17 -71 -16 -107zM74 341q-8 1 -16 6q-7 3 -14 12q-27 27 -39 80q-5 25 -5 47
q0 29 8 61q9 31 19 49q11 21 26 36q16 13 32 19q9 4 22 4q8 0 11 -1q15 -4 16 -5q8 -4 15 -11q17 -16 24 -34q13 -22 17 -47q6 -25 6 -54q-2 -33 -8 -57q-8 -32 -20 -50q-10 -19 -27 -36q-13 -12 -33 -19q-9 -3 -18 -3q-8 0 -16 3zM307 65q2 0 6 -2q17 1 35 29q17 30 33 93
q16 64 16 104q0 39 -13 55q-4 4 -12 10h-1l-5 3q-4 2 -6 2h-1q-17 0 -34 -27t-34 -95q-17 -64 -17 -106q2 -40 15 -55q4 -4 10 -7h1zM428 272q5 -30 5 -54q0 -27 -8 -57q-5 -25 -19 -51q-12 -20 -28 -35t-32 -19q-9 -3 -18 -3q-5 0 -17 2l-15 6q-5 3 -14 12q-28 29 -39 81
q-5 25 -5 47q0 27 8 61q6 26 19 49q14 24 26 35q16 15 32 20q14 4 20 4q5 0 13 -2l16 -4l14 -11q14 -12 25 -35q11 -18 17 -46z" />
    <glyph glyph-name="ampersand" unicode="&#x26;" horiz-adv-x="518" 
d="M335 162q-48 74 -73 110l-34 49q-14 17 -31 41l-25 34l-11 16q-4 5 -10 15l-10 -8l-9 -9v0q-1 -2 -3.5 -4t-4.5 -6q-6 -6 -8 -10q-8 -18 -11 -28q-6 -20 -8 -30q-10 -37 -11 -70q-1 -9 -1 -25q0 -23 3 -46q3 -20 16 -67q11 -32 28 -55q18 -23 31 -34q13 -13 26 -18
q9 -4 28 -4q17 2 24 7q10 7 20 19q15 15 29 37q21 31 45 86zM152.5 498.5q5.5 -13.5 9.5 -22.5l9 -22l9 6l18 15l18 17q22 21 37 60l5 15q10 34 10 74q0 19 -4 55q-5 40 -18 71t-35 46q-10 6 -21 6q-18 0 -34.5 -13t-24.5 -34q-10 -24 -14 -50q-5 -30 -5 -57q0 -28 6 -55
q8 -36 23 -80q6 -18 11.5 -31.5zM453 2q-21 0 -33 1q0 1 -11 30q-9 24 -18 45q-5 11 -12 20t-12 17q-13 -27 -44 -54q-20 -19 -43 -34l2 1q-18 -12 -28 -16q-15 -8 -37 -11q-8 -1 -24 -1q-68 0 -118 34q-32 22 -53.5 58t-21.5 83v19q3 67 33 115q2 4 4 5q9 17 23 33.5
t19 21.5q11 13 37.5 39t28.5 27l-31 47q-23 40 -29 51l-1 1v0v0l-0.5 0.5l-0.5 0.5q-2 4 -2 6q-2 2 -2 3v1v0q-14 29 -18 55q-7 33 -8 53q-2 49 14 85q13 34 47 63q9 6 27 16q17 8 28 10l10 1q14 3 32 1q13 -2 23 -5q18 -7 30.5 -15t23.5 -22q21 -24 31 -73l1 -11l1 -11
q0 -43 -6 -64q-6 -29 -19 -54q-14 -25 -30 -44q-13 -16 -34 -36q-12 -15 -25 -25q-20 -16 -30 -23v-1h-1.5t-0.5 -1q10 -25 27 -59l7 -14q2 -3 3.5 -6.5t3.5 -5.5q2 -4 14 -24l6 -8v0q45 -64 103 -153l3 8l1 3v-1l4 13l45 138l-6 -188l-0.5 -0.5l-0.5 -0.5l-6 -13l-6 -11z
" />
    <glyph glyph-name="quotesingle" unicode="'" horiz-adv-x="191" 
d="M112 763l-21 31q-4 6 -11 6q-6 0 -11 -6l-34 -51q-5 -8 -5 -17q0 -10 5 -17l11 -16q11 -19 15 -35q4 -10 6 -31q0 -16 -9 -31l-1 -2l14 -25l2 3q16 25 25 44q14 27 18 46q8 22 10 49q0 9 -4 27q-1 13 -10 25z" />
    <glyph glyph-name="parenleft" unicode="(" horiz-adv-x="321" 
d="M0 394q0 -63 15 -128q13 -60 43 -124q28 -59 69 -109q38 -47 91 -82l2 -1l1 6q0 1 -1 1q-33 22 -56 69q-19 43 -34 108q-13 65 -17 130q-5 75 -5 130q0 53 5 130q4 64 17 129q12 58 34 109q23 47 56 68l0.5 0.5l0.5 0.5l-1 6v0v0l-2 -1q-53 -35 -91 -82q-39 -47 -69 -109
q-30 -61 -43 -124q-15 -64 -15 -127z" />
    <glyph glyph-name="parenright" unicode=")" horiz-adv-x="321" 
d="M163 645q-30 62 -69 109q-38 47 -91 82l-2 1v0v0l-1 -6l0.5 -0.5l0.5 -0.5q33 -21 56 -68q22 -51 34 -109q13 -65 17 -129q5 -77 5 -130q0 -55 -5 -130q-4 -65 -17 -130q-15 -65 -34 -108q-23 -47 -56 -69q-1 0 -1 -1l1 -6l2 1q53 35 91 82q41 50 69 109q30 64 43 124
q15 65 15 128t-15 127q-13 63 -43 124z" />
    <glyph glyph-name="asterisk" unicode="*" horiz-adv-x="418" 
d="M265.5 345q-25.5 -3 -26.5 -12q-3 -10 19 -33t74 -69l-1 -3q-54 46 -77 62.5t-28 9.5t6.5 -42t41.5 -114l-2 -2q-30 74 -45.5 108.5t-21.5 31.5q-7 -3 -9 -43t-3 -129h-3q-1 89 -3 129t-8 43q-7 3 -22.5 -31t-45.5 -109l-2 2q30 79 41.5 114t6.5 42t-28 -9.5t-77 -62.5
l-1 3q52 46 74 69t20 33q-2 9 -27.5 12t-87.5 5v4q60 1 86.5 4t28.5 13t-19.5 31.5t-74.5 69.5l1 3q54 -46 77 -62.5t28 -9.5t-7 43t-41 113l2 2q29 -73 45 -107.5t23 -31.5q6 3 8 43t3 128h3q1 -89 3 -128.5t9 -42.5q6 -3 22 31.5t45 107.5l2 -2q-29 -77 -41 -113t-7 -43
t28 9.5t77 62.5l1 -3q-53 -48 -74.5 -69.5t-18.5 -31.5q1 -10 27.5 -13t86.5 -4v-4q-62 -2 -87.5 -5z" />
    <glyph glyph-name="plus" unicode="+" horiz-adv-x="417" 
d="M199 392h153l-22 -82h-131v-122h-17v122h-152l22 82h130v122h17v-122z" />
    <glyph glyph-name="comma" unicode="," horiz-adv-x="161" 
d="M82 111l-21 31q-4 6 -11 6q-6 0 -11 -6l-34 -51q-5 -8 -5 -17q0 -10 5 -17l11 -16q11 -19 15 -35q4 -10 6 -31q0 -16 -9 -31l-1 -2l14 -25l2 3q16 25 25 44q14 27 18 46q8 22 10 49q0 9 -4 27q-1 13 -10 25z" />
    <glyph glyph-name="hyphen" unicode="-" horiz-adv-x="451" 
d="M330 310h-300l22 80h299z" />
    <glyph glyph-name="period" unicode="." horiz-adv-x="165" 
d="M49 148q-6 0 -11 -7l-33 -51q-5 -7 -5 -17q0 -9 5 -17l33 -49q4 -7 11 -7q8 0 12 7l34 49v0q5 8 5 17q0 10 -5 17l-34 51q-5 7 -12 7z" />
    <glyph glyph-name="slash" unicode="/" horiz-adv-x="372" 
d="M85 0h-65l226 829h66z" />
    <glyph glyph-name="zero" unicode="0" horiz-adv-x="475" 
d="M230 431q-58 -91 -100.5 -171.5t-43.5 -111.5q5 -61 21 -98t39 -50q2 -1 8.5 -3t14.5 -2q12 0 29 7q41 25 74 122q30 95 49 275q9 102 9 178q-42 -55 -100 -146zM312 728.5q-15 52.5 -42 67.5q-12 8 -27 8q-12 0 -26 -6q-45 -20 -78.5 -124.5t-48.5 -274.5
q-8 -77 -8 -155q0 -28 2 -72q16 61 98 198q70 117 148 220q-3 86 -18 138.5zM319.5 774.5q26.5 -26.5 44.5 -64.5q16 -33 25 -69.5t16 -84.5q5 -36 5 -89q0 -130 -39 -248.5t-108 -185.5q-47 -45 -94 -45q-19 0 -36 7q-34 14 -60 50t-42 87q-31 84 -31 197q0 34 3 70
q8 75 27.5 145t49.5 126q56 107 127 137q22 6 33 6q12 0 23 -4q30 -8 56.5 -34.5z" />
    <glyph glyph-name="one" unicode="1" horiz-adv-x="286" 
d="M117 700.5q-28 -27.5 -70 -60.5l-33 -23l-8 -4l-1 -1l-5 -47l59 74q34 29 71 63q1 -4 1 -26q0 -81 -19 -276q-19 -210 -33 -297t-21 -103h88l74 793l1 11l-4 -4q-72 -72 -100 -99.5z" />
    <glyph glyph-name="two" unicode="2" horiz-adv-x="497" 
d="M168 278.5q29 31.5 77 68.5l21 15q54 38 87 69.5t56 80.5t23 120q-1 61 -28.5 99t-66.5 54t-80 16q-34 0 -54 -9q-45 -21 -73 -65t-39 -132l68 -56q0 79 17 142t57 94q21 15 40 15q36 0 59.5 -45t23.5 -113q0 -22 -3 -48q-10 -96 -39 -148.5t-73 -77.5
q-49 -36 -102.5 -93.5t-93 -127t-45.5 -136.5h392l25 70l-184 -60h-140q0 26 7.5 80t24.5 109q14 47 43 78.5z" />
    <glyph glyph-name="three" unicode="3" horiz-adv-x="453" 
d="M363 318q-25 41 -68 68q-56 34 -96 40q41 8 82.5 30t70.5 62t30 97q0 58 -18.5 100.5t-53.5 65.5v-2v2q-41 27 -97 27q-30 0 -55 -7q-52 -16 -78.5 -68.5t-35.5 -135.5l64 -57l2 35q0 26 1 36q5 52 20.5 96t40.5 71q21 21 45 21q49 4 73 -42t24 -118q0 -99 -47.5 -146.5
t-96.5 -61.5l-63 7l-2 -18l62 -1q50 -3 103 -28q17 -21 31 -65.5t11 -125.5q-3 -106 -37.5 -150.5t-73.5 -54.5q-47 -3 -86 14q-18 18 -30 74.5t-12 98.5q0 57 3.5 83t3.5 28l-77 -36l-3 -2q-1 -72 20.5 -135t64 -100.5t102.5 -34.5q50 0 96.5 27t75.5 82.5t29 135.5
q0 47 -25 88z" />
    <glyph glyph-name="four" unicode="4" horiz-adv-x="485" 
d="M292 309l37 376l-108 -177l2 -2q4 -9 4 -47q0 -57 -10 -150h-116l-22 71l65 105q86 133 163 260q27 45 28 45l2 5l-75 16l-1 -2q0 -5 -26 -89t-59 -171q-110 -172 -168 -241l-8 -8h216l-3 -21q-24 -200 -37 -267q-3 -14 -11 -22v0h9h87l30 310h43l79 -37l22 38l5 8h-148z
" />
    <glyph glyph-name="five" unicode="5" horiz-adv-x="521" 
d="M152 442.5q31 9.5 60 9.5q45 0 84 -28l2 -2v0q17 -24 34.5 -78t14.5 -140q-3 -105 -41.5 -150t-81.5 -55h-15q-45 0 -81 15q-20 17 -33.5 73.5t-13.5 98.5q0 55 8 106v6l-86 -38l-3 -1v-3q0 -31 8 -82t39 -100q55 -85 162 -85q19 0 42 5q81 14 130 77q51 66 51 164
q0 45 -21.5 88t-60.5 75v0q-12 12 -35 27.5t-49 25.5q-7 3 -21 7v0v0q-15 4 -33 4q-40 0 -107 -26q-9 3 -14 35t-4 96l17 130q11 6 51 12t129 6q48 0 77 -3.5t40 -7t13 -4.5l2 -2l38 106l2 8h-343l-55 -405l15 6q48 20 79 29.5z" />
    <glyph glyph-name="six" unicode="6" horiz-adv-x="444" 
d="M256 13q14 6 29 21t25 44.5t10 74.5q0 67 -26 156q-33 114 -72.5 156t-74.5 42v0q-20 -3 -32 -10q-14 -6 -25 -16q-40 -38 -40 -124q0 -67 26 -156q30 -104 73 -156q18 -22 39 -32.5t41 -8.5q14 2 27 9zM328 426.5q24 -36.5 38 -81.5q13 -45 13 -98q0 -50 -11 -90
q-12 -44 -34.5 -79.5t-52.5 -58.5q-16 -12 -23 -15q-13 -7 -34 -11q-15 -3 -30 -3q-53 0 -100 36q-31 24 -54 60t-36 79l-6 25v-1l-1 8l-3 16v0q-4 24 -4 60q0 44 11 115.5t33 146.5q8 34 23 71q28 79 69 141.5t92 62.5h64l-11 -9q-15 -13 -66.5 -74.5t-103.5 -133
t-77 -121.5q-15 -69 -22 -120q11 42 32 76.5t48 56.5q13 13 31 21q10 6 25 9q20 5 38 5q51 0 96 -33q32 -24 56 -60.5z" />
    <glyph glyph-name="seven" unicode="7" horiz-adv-x="395" 
d="M188 67q5 129 47 287.5t85.5 278.5t61.5 160l3 8h-385l3 -6l37 -61l88 58h181q-27 -50 -62 -143t-66 -201q-46 -157 -65.5 -268.5t-21.5 -175.5v-4h109l-3 5q-12 27 -12 62z" />
    <glyph glyph-name="eight" unicode="8" horiz-adv-x="448" 
d="M328.5 534.5q27.5 60.5 27.5 124.5q0 49 -19.5 87t-59.5 54h-1q-12 2 -16 2q-37 0 -62.5 -40.5t-25.5 -93.5q0 -42 18 -78l71 -138q40 22 67.5 82.5zM87 316.5q-10 -36.5 -10 -81.5q0 -54 14 -107.5t38 -89t52 -37.5q50 -3 82 38t32 100q0 48 -21 90l-96 197
q-25 -15 -41 -32t-18 -19q-22 -22 -32 -58.5zM280.5 458q-6.5 -7 -14.5 -11l24 -47q35 -70 56.5 -120t24.5 -93q1 -9 1 -25q0 -57 -28 -96t-68 -58.5t-75 -19.5q-44 0 -75 4.5t-61 24t-49 61.5q-16 38 -16 86q0 52 20 95q30 56 62 90.5t90 84.5q-32 58 -50 115.5t-18 106.5
q0 59 28.5 98.5t90.5 53.5q23 5 39 5q58 0 90 -42t32 -105q0 -54 -24 -107t-70 -91q-3 -3 -9.5 -10z" />
    <glyph glyph-name="nine" unicode="9" horiz-adv-x="434" 
d="M57 447q0 -17 1 -25q4 -65 36 -100q11 -9 24 -16q12 -7 31 -10v0q33 0 70.5 42t68.5 156q25 90 25 155q0 79 -34 120q-13 15 -27 21q-12 7 -26 9q-40 5 -75 -41q-42 -53 -69 -156q-25 -85 -25 -155zM367 600q3 -33 2 -61q-1 -40 -9 -72q-2 -10 -15 -48l-5 -13
q-31 -94 -45 -127q-17 -61 -58.5 -150.5t-97.5 -136.5h-1h-69l221 292q16 40 37 102q-28 -49 -67.5 -76t-83.5 -27q-16 0 -36 5q-13 3 -24 9q-16 8 -30 21q-27 24 -46.5 59.5t-29.5 78.5q-10 40 -10 85q0 52 13 97q12 43 34 79t51 60q49 36 96 36q14 0 27 -3q19 -3 33 -11
q9 -4 23 -16q33 -26 57 -73q25 -47 33 -110z" />
    <glyph glyph-name="colon" unicode=":" horiz-adv-x="165" 
d="M49 266q-6 0 -11 -7l-33 -51q-5 -7 -5 -17q0 -9 5 -17l33 -49q4 -7 11 -7q8 0 12 7l34 49v0q5 8 5 17q0 10 -5 17l-34 51q-5 7 -12 7zM49 666q-6 0 -11 -7l-33 -51q-5 -7 -5 -17q0 -9 5 -17l33 -49q4 -7 11 -7q8 0 12 7l34 49v0q5 8 5 17q0 10 -5 17l-34 51q-5 7 -12 7z
" />
    <glyph glyph-name="semicolon" unicode=";" horiz-adv-x="165" 
d="M49 666q-6 0 -11 -7l-33 -51q-5 -7 -5 -17q0 -9 5 -17l33 -49q4 -7 11 -7q8 0 12 7l34 49v0q5 8 5 17q0 10 -5 17l-34 51q-5 7 -12 7zM82 228l-21 31q-4 6 -11 6q-6 0 -11 -6l-34 -51q-5 -8 -5 -17q0 -10 5 -17l11 -16q11 -19 15 -35q4 -10 6 -31q0 -16 -9 -31l-1 -2
l14 -25l2 3q16 25 25 44q11 22 18 46q8 22 10 49q0 9 -4 27q-1 13 -10 25z" />
    <glyph glyph-name="less" unicode="&#x3c;" 
d="M77 453l409 -473h-124l-1 1l-361 414l439 414h15z" />
    <glyph glyph-name="equal" unicode="=" horiz-adv-x="425" 
d="M339 413h-299l22 87h298zM328 198h-298l22 87h298z" />
    <glyph glyph-name="greater" unicode="&#x3e;" 
d="M47 808l439 -413l-2 -3l-360 -412h-124l409 473l-378 356h16v-1z" />
    <glyph glyph-name="question" unicode="?" horiz-adv-x="429" 
d="M239 73q0 -6 -4 -18v0l-34 -48q-4 -7 -11 -7t-10 7l-33 48q-5 10 -5 17q0 9 5 17l33 48q4 8 10 8q7 0 11 -8l34 -48q4 -8 4 -16zM312 860q-23 16 -52 22q-27 6 -56 6q-26 0 -54 -14q-20 -9 -49 -33q-20 -19 -40 -47q-16 -21 -30 -51l-1 -2l32 -81l2 7q14 59 33 105
q12 26 20 38q11 17 24 34q14 15 30 24q18 8 34 8q38 0 60 -30q23 -31 26 -77q3 -45 -14 -102q-18 -55 -62 -104q-43 -48 -61 -96q-18 -46 -21 -87q-2 -22 -2 -31q0 -17 4 -41q6 -31 12 -48q3 -6 8 -10q2 -1 6 -1q3 0 5 1l65 46l-1 3q-18 41 -28 88q-7 36 -4 79q3 40 29 74
q27 33 51 54q27 22 44 39q17 19 30 44q12 29 12 69q0 41 -14 71q-16 28 -38 43z" />
    <glyph glyph-name="at" unicode="@" horiz-adv-x="590" 
d="M271.5 201.5q14.5 12.5 23.5 30.5q10 18 18.5 46.5t9.5 54.5v156q-42 -47 -111 -90q-30 -47 -30 -118q0 -25 5 -57q5 -29 23 -38q8 -4 17 -4q8 0 15 3q15 4 29.5 16.5zM323 516l-1 27q-4 33 -9 51q-9 32 -42 39q-8 2 -14 2q-18 0 -34 -14q-18 -17 -27 -53q-5 -18 -6 -35
q-1 -7 -1 -41l-49 54q-1 96 114 101q67 -2 103 -41t35 -134v-113q0 -88 1 -109q0 -5 2 -31t10 -41q12 -25 33 -25q16 -1 29 18.5t22 52.5q25 94 25 195q0 52 -8 105q-11 84 -45 143t-83 88.5t-103 29.5q-53 0 -103 -29t-87 -84t-56 -124.5t-19 -144.5q0 -115 42 -213
t116 -143q48 -30 93 -30q24 0 46 9q29 13 55.5 39.5t42.5 60.5l22 -46q-75 -78 -160 -78q-70 0 -131.5 52.5t-98.5 143t-37 197.5q0 83 21 159q31 111 98 178.5t146 66.5q99 0 163.5 -65.5t87.5 -205.5q9 -51 9 -107q0 -106 -28 -202q-11 -41 -25 -60.5t-40 -18.5
q-15 0 -39.5 16.5t-37.5 34.5q-22 22 -31 93q-6 -29 -19 -53.5t-31 -38.5q-23 -19 -54 -19q-13 0 -27 3q-27 6 -40 18q-39 31 -39 80q0 34 18 65.5t46 48.5q14 11 31 21q49 35 76.5 58t37.5 46v3z" />
    <glyph glyph-name="A" unicode="A" horiz-adv-x="558" 
d="M288 800h-2h-79h-3l1 -5l24 -91v-5l1 -5v0v0v-5v-1q0 -10 -3 -22v-7q-1 -10 -7 -45q-3 -18 -20 -90l-6 -22l-18 -66q-7 -26 -25 -87q-17 -59 -40 -130l-109 -214l-2 -5h4h40h2l1 2l12 38q8 22 40 119l59 185l26 87l18 66l6 22q15 58 21 91q1 6 4 20.5t4 26.5v6l1 5
l97 -378h-180h-1l-1 -1l-21 -68l-2 -4h4h220l56 -214v-2h2h79h2v4l-205 793v2z" />
    <glyph glyph-name="B" unicode="B" horiz-adv-x="515" 
d="M431 324q-19 47 -52 74.5t-71 27.5h-3q42 17 68 67.5t26 116.5q0 52 -17 95.5t-46.5 69t-63.5 25.5h-68h-100h-5h-93h-6l4 -6q5 -9 11 -91t6 -302t-6 -302.5t-11 -91.5l-4 -6h6h98h2v4v786h119q44 -12 73 -62t29 -119q0 -73 -33 -126q-16 -25 -37 -40t-44 -17l-74 7h-2
v-3v-16v-4h2l79 8h4q38 0 69.5 -26.5t50 -71.5t18.5 -99q0 -74 -32 -129q-35 -55 -83 -66h-48q-59 -2 -65 -19l-1 -3l2 -2l1 -1l2 -2l1 3q1 4 14 8.5t46 5.5l57 1h54q38 0 71 27.5t52 74t19 102.5q0 55 -19 102z" />
    <glyph glyph-name="C" unicode="C" horiz-adv-x="509" 
d="M376 773q-47 33 -86 40q-15 3 -28 3q-22 0 -38 -5q-45 -13 -85.5 -47.5t-72.5 -88.5q-31 -56 -48.5 -125.5t-17.5 -142.5q0 -71 17.5 -140.5t48.5 -125.5q32 -54 72.5 -89t85.5 -47q5 -1 17 -3t21 -2q18 0 28 3q47 8 86 40q40 31 68 79v0v5v113v13l-4 -13l-40 -113
q-16 -37 -39 -64.5t-49 -41.5q-25 -11 -50 -11q-21 0 -32 3q-57 22 -92 114q-40 104 -40 280q0 179 40 281q35 93 92 115q11 3 32 3q27 0 48 -12q29 -13 53.5 -41t41.5 -65l35 -87l4 -8v11v84v5v0q-27 48 -68 80z" />
    <glyph glyph-name="D" unicode="D" horiz-adv-x="515" 
d="M382 685q-29 53 -63.5 84t-64.5 31h-12h-55h-83h-6h-92h-6l4 -6q5 -9 11 -91t6 -302t-6 -299.5t-11 -94.5l-4 -5h6h98h2v3v786h98q27 -9 55 -42t50 -83q25 -55 38 -121.5t13 -134.5q0 -69 -13 -135.5t-38 -121.5q-22 -50 -50.5 -83.5t-55.5 -41.5h-6q-58 -1 -65 -20
l-1 -3l2 -2l1 -1l2 -2l1 3q3 6 17.5 10.5t42.5 5.5h57q30 0 64.5 31t63.5 84q31 58 49 124q19 78 19 152q0 73 -19 152q-19 68 -49 123z" />
    <glyph glyph-name="E" unicode="E" horiz-adv-x="477" 
d="M412 128v-83v-1l-2 -1q-25 -25 -55.5 -34t-79.5 -9h-275q6 10 10.5 36t7.5 110.5t4 253.5q-1 169 -4 253.5t-7 110t-11 36.5h107h182q32 0 49 -4t30.5 -14.5t35.5 -35.5v-158q-6 20 -8 27q-18 55 -29 86t-24 47q-19 26 -39 34t-49 9h-148v-782h167q31 0 57 31t44 89
l37 131v-132zM254 426l-42 1q-31 0 -51 -4.5t-25 -17.5l4 -6q0 18 93 18h39l70 -10h2v30h-2l-71 -10q-4 -1 -17 -1z" />
    <glyph glyph-name="F" unicode="F" horiz-adv-x="459" 
d="M111 146q3 -84 7 -109.5t10 -36.5h-93h-35q6 10 10 36t7.5 110t4.5 254q-1 170 -4.5 254t-7.5 110t-10 36h107h182q32 0 49 -4t30.5 -14.5t35.5 -34.5v-159l-10 32q-15 50 -26.5 81t-24.5 48q-19 26 -38.5 33.5t-49.5 8.5h-148v-391q1 -170 4 -254zM253.5 426.5
q-9.5 0.5 -16.5 0.5h-25q-31 0 -51 -4.5t-25 -17.5q4 -4 6 -5q-1 17 90 17h41l70 -10h2v31h-2l-71 -11q-9 -1 -18.5 -0.5z" />
    <glyph glyph-name="G" unicode="G" horiz-adv-x="544" 
d="M458 45.5q-6 21.5 -7 41.5v341v3h-2h-2h-236h-2v-3v-38v-3l1 -1l235 -45v-102l-42 -110q-15 -37 -38 -65t-52 -42q-26 -11 -51 -11q-18 0 -34 4q-61 22 -97 114q-41 105 -41 280t41 280q18 45 43 74.5t54 39.5q24 4 34 4q22 0 49 -11q31 -14 56.5 -42.5t40.5 -65.5
q33 -77 38 -86l4 -9v10v87v3q-32 51 -71 80q-41 31 -89 40q-15 3 -28 3q-19 0 -39 -6q-47 -10 -89.5 -45t-74.5 -90q-33 -56 -51 -125t-18 -141t18 -141t51 -126q33 -54 75 -89.5t89 -45.5q20 -6 39 -6q8 0 28 4q46 7 86 36.5t69 76.5v-31q0 -22 7 -45t21 -40l2 -2l1 3l1 2
l2 2l-2 2q-13 15 -19 36.5z" />
    <glyph glyph-name="H" unicode="H" horiz-adv-x="563" 
d="M492 800h-116h-5l3 -6q5 -10 11.5 -87.5t6.5 -288.5h-285v378v4h-3h-98h-6l4 -6q5 -5 11.5 -88.5t6.5 -305.5t-6.5 -305.5t-11.5 -88.5l-4 -6h6h116h6l-4 6q-5 9 -11 91.5t-6 302.5v9h285v-9v-396v-4h2h98h6l-4 6q-5 9 -11 91.5t-6 302.5t6 302.5t11 91.5l4 6h-6z" />
    <glyph glyph-name="I" unicode="I" horiz-adv-x="253" 
d="M161.5 98q-6.5 82 -6.5 302v397v3h-2h-107h-6l4 -6q5 -10 12 -92t7 -302q0 -239 -10 -335q-5 -59 -9 -59l-3 -6h5h126h6l-5 6q-5 10 -11.5 92z" />
    <glyph glyph-name="J" unicode="J" horiz-adv-x="476" 
d="M220 800h-146h-26h-2v-2l-18 -62l-2 -6l5 1l181 60h102v-374q0 -189 -30 -290q-29 -96 -82 -114q-12 -4 -28 -4q-33 0 -58 13q-43 24 -66 89l-46 153l-4 15v-16v-134v-1l1 -1q41 -78 104 -109q29 -18 69 -18q21 0 39 6q43 11 81 48q36 36 63 92q26 55 40 125.5t14 145.5
v380v3h-2h-93h-96z" />
    <glyph glyph-name="K" unicode="K" horiz-adv-x="532" 
d="M112.5 96q6.5 -82 11.5 -90l4 -5h-6h-116h-5l3 5q5 12 9 59q8 98 8 335q0 220 -6 302.5t-11 91.5l-4 6h6h98h2v-3v-397q0 -222 6.5 -304zM403 772.5l19 21.5l9 6h-10h-86v0l-1 -1l-214 -363v-1v-1v-125v-9l4 6l59 101l58 -82l129 -323v-2h2h101h2h1h6l-4 6l-291 408
l81 139q116 198 135 219.5z" />
    <glyph glyph-name="L" unicode="L" horiz-adv-x="458" 
d="M332 41q-26 -31 -57 -31h-153q-14 49 -14 390v397v3h-3h-98h-7l5 -6q5 -5 11.5 -88.5t6.5 -305.5t-6.5 -305.5t-11.5 -88.5l-4 -6h6h30h86h152q49 0 80 9t56 34l2 1v2v82v115v17l-5 -15l-32 -115q-18 -58 -44 -89z" />
    <glyph glyph-name="M" unicode="M" horiz-adv-x="680" 
d="M325 4l-2 -2l-2 -1l-2 -1v3l-200 727l-5 -327q0 -156 2 -242t4.5 -115t3.5 -34l2 -5h-4h-115h-7l6 6l3.5 9t7.5 54q12 105 12 327q0 220 -4 302.5t-7 88.5l-2 4h4h84h3h11h2v-3v-42l204 -746zM611 793l4 5h-6h-59h-1h-26h-1l-1 -1l-221 -662l-1 -1v-2l29 -103l1 -6l3 6
q22 64 91.5 259t122.5 339v-617v-4h3h1v0h63h2v4l-62 424v210q52 140 58 149z" />
    <glyph glyph-name="N" unicode="N" horiz-adv-x="579" 
d="M451 597l43 199l1 4h-3h-43h-1h-1h-2v-3v-746l-339 712v34v3h-2h-98h-6l4 -6q5 -9 11 -91.5t6 -302.5t-6 -299.5t-11 -94.5l-4 -6l6 1h116h6l-4 5q-5 8 -11.5 90t-6.5 304v346l339 -711v-32v-3h2h1h1h63h2v4l-63 428v165z" />
    <glyph glyph-name="O" unicode="O" horiz-adv-x="586" 
d="M474.5 512q10.5 28 11.5 48q-9 73 -46 131q-25 38 -57 58.5t-66 20.5q-98 0 -197 -153q-46 -71 -73 -148q-23 -71 -26 -136q-3 -59 10 -113t40 -95q41 -63 98 -75q12 5 42.5 42t69.5 94q92 130 169 272q14 26 24.5 54zM490 505q0 21 -1 31q-8 -37 -34 -83
q-73 -135 -155 -256.5t-118 -148.5l12 -1q48 0 98 39t99 114q61 93 85 188q14 62 14 117zM500 567.5q20 -75.5 21 -158.5q1 -80 -17 -157q-20 -79 -57 -137q-36 -55 -84.5 -85t-102.5 -30q-55 0 -105.5 31t-87.5 87q-36 56 -56 131.5t-21 157.5q-1 80 17 157q20 80 57 137
q36 56 84 85.5t102 29.5q56 0 106.5 -30.5t87.5 -87.5q36 -55 56 -130.5z" />
    <glyph glyph-name="P" unicode="P" horiz-adv-x="525" 
d="M440.5 705q-19.5 44 -52.5 69.5t-71 25.5h-56h-30h-126h-47h-52h-6l4 -6q5 -5 11.5 -88.5t6.5 -305.5t-6.5 -305.5t-11.5 -88.5l-4 -6h6h116h6l-4 6q-5 9 -11 91.5t-6 302.5v391h148q24 -6 45 -22t37 -40q32 -52 32 -120q0 -65 -34 -118q-34 -51 -83 -65
q-42 -3 -78.5 -12t-45.5 -26l-1 -3l2 -2l1 -1l2 -2l2 2q6 13 37.5 21.5t83.5 12.5l62 3q38 0 71 25.5t52.5 69t19.5 95.5t-19.5 96z" />
    <glyph glyph-name="Q" unicode="Q" horiz-adv-x="619" 
d="M131 429q33 -47 95 -118l13 -14l152 -143q32 97 32 254q0 178 -41 280q-37 93 -95 114q-20 5 -33 5q-16 0 -34 -5q-49 -20 -81 -85q-38 -76 -50 -196q14 -51 42 -92zM287 14q50 18 84 89l-126 176q-1 1 -22 25q-59 66 -96 118q-23 32 -39 81q-4 -60 -4 -95
q0 -173 41 -279q37 -92 95 -114q17 -6 34 -6q13 0 33 5zM554 1h-7h-102h-1v1q-5 6 -18.5 24.5t-30.5 42.5q-49 -49 -99 -62q-26 -7 -42 -7q-17 0 -37 6q-45 11 -86.5 45.5t-72.5 89.5q-33 57 -50.5 125.5t-17.5 141.5t17.5 142t50.5 125q31 55 72.5 89.5t86.5 45.5
q20 6 37 6q16 0 42 -7q44 -12 84 -47.5t72 -89.5q32 -57 49 -125t17 -139q0 -86 -24 -164q-21 -72 -61 -129l114 -107z" />
    <glyph glyph-name="R" unicode="R" horiz-adv-x="519" 
d="M230 419h40h46q39 0 71.5 26t51.5 69.5t19 95.5t-19 95.5t-51.5 69t-71.5 25.5h-23h-63h-126h-46h-53h-5l4 -6q5 -9 11 -91.5t6 -302.5t-6 -302.5t-11 -91.5l-4 -6h5h117h5l-4 6l-4 16.5t-8 119.5t-4 258v391h147q24 -6 45 -22t37 -40q32 -52 32 -119q0 -69 -32 -119
q-16 -25 -37.5 -41t-44.5 -21h-24q-53 0 -73 -8t-28 -20l-1 -2l-1 -2l1 -2l1 -2l2 -3l2 2v2q6 7 14.5 12.5t28.5 8.5l65 -91l127 -322l1 -2h1h101h1h2h5l-4 6l-291 411q26 2 46 2z" />
    <glyph glyph-name="S" unicode="S" horiz-adv-x="479" 
d="M449 211q0 -43 -17 -83.5t-44 -68.5q-23 -27 -60.5 -40.5t-77.5 -15.5q-87 -4 -145 37q-11 8 -21 8q-17 0 -35.5 -13t-33.5 -32l-15 318q0 -2 8.5 -52t37.5 -120t68 -104q51 -34 134 -34q29 2 49 15.5t32 52.5q13 35 13 112q0 64 -5.5 93.5t-23.5 87.5q-33 17 -121 55
q-49 26 -77 43t-52 40q-23 21 -37.5 57.5t-14.5 75.5q0 24 6 48q15 61 56 86.5t105 35.5q15 3 33 3q49 0 99 -21.5t83 -67.5t33 -116q-2 0 -59 -77q2 79 -15.5 142.5t-53.5 98.5t-86 33q-31 2 -58 -18t-38 -60q-11 -44 -11 -86q0 -45 11.5 -84.5t33.5 -65.5q25 -23 42.5 -38
t43.5 -31l32 -18q36 -20 55 -29l26 -16q44 -26 65.5 -48t30.5 -65q4 -26 4 -38z" />
    <glyph glyph-name="T" unicode="T" horiz-adv-x="422" 
d="M385 800h-2h-21h-53h-75h-92h-79h-53h-20h-3v-3l-6 -107l-1 -8l4 6l78 103h80q5 -18 10 -104t5 -287q0 -248 -9 -336q-3 -42 -5 -50.5l-2 -8.5l-3 -5h4h109h5l-3 5q-5 14 -10.5 94.5t-5.5 300.5v391h74l77 -103l4 -6v8l-7 107v3z" />
    <glyph glyph-name="U" unicode="U" horiz-adv-x="550" 
d="M395 800h-3v-4l86 -374v-3q0 -222 -74 -331q-34 -48 -70 -63.5t-56 -15.5h-1q-33 0 -62 24t-51 69q-52 107 -52 306v389v3h-2h-104h-6l4 -6q5 -9 11 -89.5t6 -296.5q0 -84 22 -159t57 -129q37 -57 83 -88.5t94 -31.5v0q20 0 46 10q49 21 85 71q77 112 77 338v378v3h-3h-1
h-86z" />
    <glyph glyph-name="V" unicode="V" horiz-adv-x="510" 
d="M431 795l-1 4h-2h-1h-37h-3l1 -5l48 -162l-1 -17q-15 -162 -86 -404l-78 -155l-147 740v3h-2l-115 -1h-7l6 -6q9 -12 24 -62q32 -98 80 -332l76 -396l1 -2h1h99h1l1 2l1 4q120 345 148 574q7 57 7 112q0 21 -1 31q-3 45 -13 72z" />
    <glyph glyph-name="W" unicode="W" horiz-adv-x="719" 
d="M699 798l-1 -5l-52 -278l-86 -469l11 -41l2 -5h-4h-56h-1l-1 2l-149 552v2v1l22 110l1 9l3 -8l168 -608l86 464l-13 270v4h2h65h3zM365 648v1q16 66 16 106q0 30 -10 43l-2 2l-1 -2l-2 -2l-1 -3l2 -2q7 -10 7 -35q0 -36 -15 -104v-1q0 -2 -0.5 -5t-2.5 -7l-118 -570
l-144 727v3h-2h-115h-7l6 -6l5.5 -9t19.5 -54q34 -110 79 -332l76 -396v-2h2h91h3l-1 4l-9 49l120 583z" />
    <glyph glyph-name="X" unicode="X" horiz-adv-x="541" 
d="M468 799h-66h-1l-1 -2l-65 -224l-78 -134l-132 359v2h-2h-92h-4l2 -5l167 -460l-193 -329l-3 -6h6h2h1l1 1l189 325l118 -324l1 -2h1h123h9l-7 6q-10 10 -48.5 89.5t-125.5 305.5l-10 29l213 363l3 6h-6h-1h-1z" />
    <glyph glyph-name="Y" unicode="Y" horiz-adv-x="463" 
d="M427 800h-64h-1l-1 -3l-30 -225l-61 -142l-137 368l-1 2h-1h-123h-8l8 -6q10 -12 35 -63q48 -96 138 -333v-395v-3h2h96h2v3v396v1v1l-7 19l157 375l2 5h-4v0h-2z" />
    <glyph glyph-name="Z" unicode="Z" horiz-adv-x="577" 
d="M432 40q-26 -31 -57 -31h-220l332 786l2 5h-4h-8h-105h-148h-168h-6h-2v-2l-18 -64l-2 -6l4 1l184 62h151l-161 -390q-98 -228 -157 -333q-28 -50 -40 -62l-9 -6h9h64h76h236h2v0q42 1 70.5 10t53.5 33l1 1v2v82v115v17l-4 -16l-33 -115q-17 -58 -43 -89z" />
    <glyph glyph-name="bracketleft" unicode="[" horiz-adv-x="289" 
d="M189 825h-96v-846h96v-9h-189v864h189v-9z" />
    <glyph glyph-name="backslash" unicode="\" horiz-adv-x="372" 
d="M86 827l226 -827h-66v2l-226 827h65z" />
    <glyph glyph-name="bracketright" unicode="]" horiz-adv-x="288" 
d="M188 -20h-188v9h95v846h-95v9h188v-864z" />
    <glyph glyph-name="asciicircum" unicode="^" horiz-adv-x="348" 
d="M272 556v2l-90 218l-129 -220h-13l143 244l100 -244h-11z" />
    <glyph glyph-name="underscore" unicode="_" horiz-adv-x="348" 
d="M262 0h-262l21 37h262z" />
    <glyph glyph-name="grave" unicode="`" horiz-adv-x="511" 
d="M425 665q0 1 3.5 2.5t2.5 5.5q-3 7 -7 19q-2 10 -8 16l-11 2q3 12 10 47q1 4 1 12q0 18 -6 24q-2 4 -3 12t-2 9q-2 2 -33 -27q9 39 6 47q0 1 -2 1q-7 0 -25 -9q-7 44 -13 46h-1q-4 0 -14 -10q-4 8 -9 9q-3 1 -9 -6q-4 18 -12 30q-1 1 -3 -2t-3 -3q-2 1 -4 3.5t-6 -1.5
q-4 -6 -12 -27l-7 15q-2 6 -4 4t-2 -1l-3 2t-6 -5q-4 -9 -12 -45q-12 14 -19 20q-4 4 -5.5 2.5t-2.5 -1.5t-4 2t-4 -1q-1 -1 -5.5 -4t-6.5 -1l-5 2.5t-4 -1.5v-30q0 -9 1.5 -17.5t4.5 -14.5q2 -5 3.5 -11.5t4.5 -14.5q2 -10 15 -31q-9 8 -25 7q-8 0 -11 -2t-6.5 -7t-6.5 -8
q-4 -4 -4 -9t4 -10.5t5 -7.5q2 -2 7.5 -6.5t6.5 -8.5q9 -17 20 -22q12 -6 27 -5q-2 -4 -2 -8.5v-7.5q-20 14 -32 15q-14 1 -18 3t-16 16q-14 16 -25 32q-7 23 -16 31q-4 2 -6 2q-9 0 -17 -11l3 1q7 0 18 -11q7 -6 10.5 -18t5.5 -25.5t4 -20.5q2 -11 12.5 -21.5t22.5 -14.5
q7 -4 15 -4q6 0 15.5 2t16.5 2h3q5 0 9 -4q3 -6 3 -13q1 -5 3 -8.5t3 -4.5h3t1 -2l-6 -23q-13 -62 -19 -97l-8 -56q-13 0 -19 -13q-5 -13 -5 -54l-2 -27q18 4 22 13v-38q-11 1 -18 4q-9 6 -14 52q-3 21 -8 55.5t-7 37.5q17 -4 27 -13q9 -8 13 -16q2 10 -2.5 22t-17.5 23
q10 11 12 25q2 6 5.5 16t0.5 8q-2 -1 -2 4v9q0 6 -1 9q-3 6 -8.5 14t-9.5 12q-3 4 -7 3t-6 -1q-4 4 -10 4q-5 0 -8 -4q-2 -2 -10 -7.5t-10 -12.5t-3.5 -14t-3.5 -12q-2 -1 -6.5 1.5t-1.5 -3.5q9 -31 16 -35q6 -3 11 -9.5t4 -9.5q0 -2 -8.5 -8.5t-10.5 -14.5v-4q0 -2 1 -2
t5.5 3.5t9.5 3.5q3 0 6 1.5t4 1.5q2 0 3.5 -5.5t2.5 -16.5l1 -48q1 -9 -2 -8q-1 1 -11.5 19t-15.5 23q-34 39 -40 69q0 -56 6 -86q5 -20 15.5 -33t18.5 -16q-30 -9 -35 -20l3 1q6 0 16 -9q4 -4 12 -4t21.5 5t15.5 5q8 0 17 -12l1 -1q1 -2 -14.5 -4.5t-19.5 -6.5
q-5 -3 -19.5 -7t-20.5 -4q17 -16 34 -24q8 -4 17 -4q6 0 14 1.5t10 1.5q8 -1 18 -13q-6 -13 -14 -15q17 -12 22 -10l9 -112q3 -46 8 -114.5t6 -74.5q2 -7 3.5 -8t5.5 -1q2 2 2 7q0 7 -1 12q-9 144 -13 196q16 75 24 103q3 2 7 2q6 0 9 -9q11 -40 21 -44q6 9 6 20
q40 -21 50 -25q7 -1 13 -17t6 -29l1 16q0 14 -3 39q-3 33 -7 45.5t-15 18.5q-15 9 -23 10q9 16 4 17l-9 1q-26 0 -53 -33q15 57 22 66q9 9 18 9q6 0 10 -3q5 -2 29 -12t31 -9q13 0 19 -2q-2 18 -9 28q-11 15 -25 23q-6 2 -11 2q-14 0 -34 -5q21 12 39 31t25 42q12 41 21 87
q-20 -22 -52 -42q-25 -16 -34.5 -32t-15.5 -42q-6 -28 -9 -35q-3 44 -12 66q-6 15 -8.5 30t-2.5 22q-10 -34 -8 -68q1 -19 11 -47q4 -11 6.5 -21.5t0.5 -17.5q-3 -9 -7 -22t-9 -27q-25 -69 -31 -94q-5 59 -6 83t5 64q2 14 6 27q6 22 6 31q0 7 -1 15t-1 18q0 12 3 27
q6 24 2 25q-2 -3 -9 -28q5 62 18 104q12 -41 29 -63q16 -23 19 -58q6 55 12 78q6 22 3 34q-4 30 -9 39q-3 12 -13 22q1 0 3.5 -2t3.5 -1q4 2 9 7l14 -28q2 -2 6 -6.5t6 -5.5q1 0 5.5 -1t9.5 -8q4 -4 6.5 -4.5t5.5 0.5l9 12h1q3 0 3.5 -3t0.5 -5q2 -3 3 -3t3 2.5t3 3.5
q0 1 2 6t5 9q4 3 4 12q0 7 -2 15q-1 6 -6.5 12t-8.5 7l-1 1q0 2 12 2q8 0 27 14q3 2 4 6t-4 5q-5 3 -9 8q2 -1 13.5 5t15.5 10q1 3 4.5 5.5t4 4.5t-2.5 6q-2 2 -2 3z" />
    <glyph glyph-name="a" unicode="a" horiz-adv-x="379" 
d="M229 347q-16 -19 -33.5 -36.5t-45.5 -34.5q-35 -22 -44 -27q-17 -26 -26 -59.5t-9 -70.5q0 -91 33 -108q5 -1 13 -1q48 0 78.5 47.5t32.5 114.5q0 171 1 175zM306 80.5q2 -49.5 8 -80.5h-86v119q-9 -40 -28.5 -69.5t-46.5 -42.5q-15 -7 -37 -7q-37 0 -70.5 22.5
t-41.5 57.5q-4 15 -4 32q0 40 22 73t46 49q51 30 104 73t57 64q0 101 -38 126q-16 11 -39 9q-33 -2 -53 -41t-19 -114l-50 60q-1 57 34.5 81t87.5 24q29 0 59 -8q32 -9 54.5 -35.5t31.5 -68.5q3 -15 5 -38.5t2 -38.5q0 -197 2 -246.5z" />
    <glyph glyph-name="b" unicode="b" horiz-adv-x="419" 
d="M254 82q27 77 27 176q0 58 -11 118q-15 80 -45 114q-14 16 -25 17q-34 0 -63 -35.5t-42 -104.5v-211q8 -56 31.5 -96t58.5 -49q40 -9 69 71zM329.5 401.5q24.5 -66.5 24.5 -143.5q0 -81 -25 -144q-14 -37 -35.5 -64.5t-48.5 -40.5q-20 -10 -41 -10q-37 0 -66 32.5
t-43 90.5v-122h-95l3 6q4 4 9.5 91t5.5 323q0 217 -8 265v1l85 145v-433q15 57 44 88t65 31q29 0 57 -19q44 -30 68.5 -96.5z" />
    <glyph glyph-name="c" unicode="c" horiz-adv-x="350" 
d="M112 467q21 38 47 39q20 3 38 -12q25 -19 48 -62q6 -12 27 -58l9 -21l4 -12l-2 90q0 4 -1 6l-3 8q-33 49 -81 65q-18 6 -33 6q-20 0 -44 -12q-56 -26 -91 -94.5t-35 -151.5q0 -80 34 -147.5t88 -95.5q8 -6 20.5 -10.5t27.5 -4.5q17 0 26 3q26 8 51.5 28t42.5 48v1v111
l-31 -82q-13 -33 -33.5 -61t-41.5 -37q-10 -2 -14 -2q-6 0 -10 1q-38 10 -58 73.5t-20 174.5q0 74 9 129q9 52 26 80z" />
    <glyph glyph-name="d" unicode="d" horiz-adv-x="419" 
d="M227.5 60q23.5 40 31.5 96v211q-13 69 -42 104.5t-63 35.5q-11 -1 -25 -17q-30 -34 -45 -114q-11 -60 -11 -118q0 -99 27 -176q29 -80 69 -71q35 9 58.5 49zM150 517q36 0 65 -31t44 -88v433l85 -145v-1q-8 -48 -8 -265q0 -236 5.5 -323t9.5 -91l3 -6h-95v122
q-14 -58 -43 -90.5t-66 -32.5q-21 0 -41 10q-27 13 -48.5 40.5t-35.5 64.5q-25 63 -25 144q0 77 24.5 143.5t68.5 96.5q28 19 57 19z" />
    <glyph glyph-name="e" unicode="e" horiz-adv-x="385" 
d="M235.5 496q-32.5 17 -65.5 17q-21 0 -38 -7q-37 -14 -69 -51t-50 -89.5t-18 -109.5q0 -67 25.5 -126.5t67 -95t85.5 -34.5q42 0 83.5 24.5t63.5 66.5v95l-38 -69q-11 -30 -44 -67q-23 -20 -35 -29t-28 -11q-16 -1 -27 3t-22 16q-28 32 -37.5 85.5t-11.5 127.5
q0 66 5.5 116.5t21.5 90.5q11 27 28.5 41t36.5 14q28 0 48 -23q15 -16 24.5 -48.5t9.5 -65.5q0 -17 -3 -32q-9 -41 -54 -66q-11 -7 -34 -18q-27 -12 -43.5 -23t-24.5 -29l3 -5q11 16 27.5 26.5t44.5 23.5l20 10l133 64q1 37 -8 71t-25 59q-19 31 -51.5 48z" />
    <glyph glyph-name="f" unicode="f" horiz-adv-x="262" 
d="M38 -163q13 20 15.5 46.5t3.5 73.5q-39 -23 -65 -57q-9 -13 -15 -29t-6 -29q0 -26 26 -26q28 1 41 21zM134 449q1 -17 1 -130l-1 -334q0 -67 -22 -107q-22 -43 -49 -60t-64 -12q-34 4 -34 36q0 31 28 70t64 55q3 90 3 237l-1 245q-51 -5 -74.5 -17.5t-33.5 -41.5l-6 4
q11 35 38.5 48.5t75.5 15.5q1 17 0.5 31t-0.5 24v31q0 59 5 103t20 73q13 27 40.5 49.5t52.5 22.5q35 0 48 -45q4 -15 4 -36t-4.5 -41.5t-11.5 -33.5l-5 6q15 30 15 68q0 30 -10.5 50.5t-29.5 20.5q-7 0 -15 -3q-21 -3 -29 -46t-8 -117q0 -29 2 -83l1 -73q47 0 73 -1l22 11
l23 -21z" />
    <glyph glyph-name="g" unicode="g" horiz-adv-x="364" 
d="M80 337q0 -83 18 -128l13 17q41 59 100 189q-7 50 -24.5 70.5t-38.5 20.5q-17 0 -30 -10q-38 -34 -38 -159zM205 230q12 43 12 107q0 31 -4 67q-24 -54 -53.5 -108t-45.5 -76q-1 -1 -7 -9t-7 -9q8 -18 20.5 -27t27.5 -9q9 0 23 6q22 15 34 58zM319 -120q0 -13 -4 -49
q-5 -30 -16 -51q-12 -30 -46.5 -57.5t-85.5 -27.5q-35 0 -67.5 17.5t-53.5 40.5q-56 57 -56 150q0 44 17 78l59 -40q-1 -4 -8 -20q-9 -23 -14 -39.5t-5 -37.5q0 -23 7 -48q12 -49 48 -70.5t73 -21.5q34 0 67 18t54 50t21 71q0 40 -17 64t-47.5 38t-97.5 38l-10 3
q-38 12 -63 33t-34 48q-6 14 -6 30q0 21 8 49q9 19 32 38q-33 25 -52 65.5t-19 87.5v7q0 21 7 47q4 18 16 39q8 17 24 34q15 17 28 26q8 6 33 17q21 7 36 7h5q43 -1 84 -41q24 67 27 98v7v5h40l-54 -89q-4 -16 -8 -25q25 -24 38.5 -58.5t13.5 -73.5q0 -47 -19.5 -87.5
t-52 -65.5t-69.5 -26h-10q-33 3 -60 21q-5 0 -17.5 -14t-16.5 -22l-1 -4q0 -4 3 -9q22 -29 151 -69q31 -8 60.5 -35t41.5 -61q16 -38 16 -85z" />
    <glyph glyph-name="h" unicode="h" horiz-adv-x="434" 
d="M354 278q-4 68 -27.5 124.5t-59.5 84.5q-32 23 -64 23q-16 0 -30 -6q-38 -17 -63 -70q-8 -18 -11 -28l-4 -15v440l-85 -145l-1 -2l1 -2q1 -4 3 -24.5t4 -78.5t2 -159q0 -238 -6.5 -322t-12.5 -98h95v360q15 83 56 118q8 8 19.5 14.5t22.5 6.5q9 0 16 -4q18 -10 33 -39
q33 -64 37 -167q1 -11 1 -35v-254h89q-15 35 -15 254v24z" />
    <glyph glyph-name="i" unicode="i" horiz-adv-x="176" 
d="M135 705q-5 16 -12.5 27.5t-14.5 16.5l1 13q0 26 -11.5 43.5t-28.5 17.5t-29.5 -17.5t-12.5 -43.5q0 -25 12.5 -42.5t29.5 -17.5q12 0 22.5 10t14.5 28q12 -8 23 -38q10 -29 10 -55q0 -47 -27 -74l-82 -84l-1 -2v-1q2 -2 5.5 -47t3.5 -160q0 -105 -3.5 -165.5t-7.5 -87
t-4 -20.5l-3 -6h94v564l1 1q27 27 30 70q3 34 -10 70z" />
    <glyph glyph-name="j" unicode="j" horiz-adv-x="296" 
d="M168 807.5q-12 14.5 -28 14.5t-28 -15t-12 -42q1 -29 12.5 -45t27.5 -16t27.5 16t12.5 45q0 28 -12 42.5zM101 -164q10 63 10 168l-1 100q-1 31 -1 88q-63 -85 -95 -138.5t-50 -116.5q-2 -18 -2 -28q0 -48 19.5 -92t42.5 -55q4 -1 11 -1q9 0 29 4q27 8 37 71zM186 576
v-642q0 -49 -13 -88.5t-39 -62.5q-19 -15 -42.5 -24t-47.5 -9q-29 0 -52 14.5t-37 45.5q-10 27 -10 58q0 80 47.5 162.5t116.5 171.5v133q0 80 -2.5 113.5t-5.5 37.5l-1 2q84 88 86 88z" />
    <glyph glyph-name="k" unicode="k" horiz-adv-x="391" 
d="M355 6l6 -6h-84l-136 312l38 62l1 -4q1 -2 49.5 -119.5t96.5 -202.5q14 -26 29 -42zM283 608l-188 -320v543l-85 -145l-1 -1l1 -2l2 -13.5t4 -81t2 -168.5q0 -238 -6 -322t-12 -98h95v274l147 250l53 42z" />
    <glyph glyph-name="l" unicode="l" horiz-adv-x="190" 
d="M32.5 702.5q1.5 -33.5 3.5 -107.5t2 -179q0 -231 -6 -316.5t-10 -94.5l-2 -5h95v831l-86 -85l1 -2q1 -8 2.5 -41.5z" />
    <glyph glyph-name="m" unicode="m" horiz-adv-x="546" 
d="M416 496q-27 21 -54 21q-29 0 -53 -26.5t-38 -77.5q-12 48 -40 76t-60 28q-24 0 -45 -17t-35 -51v106l-83 -84q8 -27 9 -202q-1 -156 -5.5 -204t-11.5 -65h91v431q17 40 34 58t33 18q14 0 26 -15q20 -30 27 -96.5t7 -161.5l-1 -102q-1 -29 -1 -81q0 -37 1 -51h71v36
l1 153q0 161 -15 212q16 53 36 79.5t40 26.5q17 0 29.5 -17t17.5 -48q13 -63 13 -218l-1 -187v-37h72v271v18q-4 155 -65 207z" />
    <glyph glyph-name="n" unicode="n" horiz-adv-x="388" 
d="M293.5 420q-26.5 60 -69.5 84q-26 13 -48 13q-49 0 -84 -67v105l-81 -82l-1 -2q5 -16 6.5 -48t2.5 -154q-1 -157 -6 -205t-13 -64h92v433q19 44 41.5 58.5t33.5 14.5q24 2 42 -29t29 -76q11 -46 14 -110v-291h71v288q-3 72 -29.5 132z" />
    <glyph glyph-name="o" unicode="o" horiz-adv-x="401" 
d="M213 484q41 -56 41 -227q0 -78 -10 -137.5t-31 -88.5q-8 -12 -19.5 -16t-27.5 -4q-17 0 -28.5 4t-19.5 16q-21 29 -31 88.5t-10 137.5q0 171 41 227q8 11 20 15.5t28 4.5q32 0 47 -20zM18 133.5q23 -59.5 62.5 -96.5t85.5 -37t85 37t62 96.5t23 123.5t-23 124t-62 97
t-85 37t-85.5 -37t-62.5 -97t-23 -124t23 -123.5z" />
    <glyph glyph-name="p" unicode="p" horiz-adv-x="364" 
d="M178 173q23 31 32 55q9 21 14.5 51.5t5.5 62.5q0 85 -39 131q-21 27 -47 27q-20 0 -34 -17q-7 -6 -13.5 -15.5t-9.5 -13.5v-296q18 -11 40 -14q24 0 51 29zM299 369q0 -68 -32 -130.5t-83 -88.5q-28 -15 -53 -15q-24 0 -44 13v-348h-87l2 5q4 7 9 96t5 327q0 223 -9 245
l2 2l78 80v-87q8 12 25 30q35 34 59 38q14 2 20 2q33 0 58 -25t39 -71q11 -36 11 -73z" />
    <glyph glyph-name="q" unicode="q" horiz-adv-x="367" 
d="M112.5 163q22.5 -24 43.5 -24q7 0 13 3q25 15 46 48v275q-21 24 -42 24q-16 0 -32 -13q-31 -23 -51 -69t-20 -105q0 -35 7 -70q13 -45 35.5 -69zM290.5 -106.5q4.5 -79.5 11.5 -93.5h-4h-83v376l-13 -19q-18 -21 -37 -31t-45 -10q-32 0 -60 24t-44 65.5t-16 89.5
q0 66 32 127q23 39 58 59.5t72 20.5q28 0 53 -26v79l78 -82q0 -1 -3.5 -34t-4.5 -211q1 -255 5.5 -334.5z" />
    <glyph glyph-name="r" unicode="r" horiz-adv-x="356" 
d="M223 534q-15 0 -26 -6q-30 -12 -53 -50.5t-36 -88.5q-7 -29 -11.5 -63.5t-5.5 -42.5v272l-82 -84q5 -15 6.5 -49.5t1.5 -152.5q-1 -156 -5.5 -204t-11.5 -65h91v237l3 26q12 81 20 123q11 42 27 72q12 21 19 31t17 17q5 4 12 4q27 0 56 -57t44 -108l27 104l-15 24
q-36 61 -78 61z" />
    <glyph glyph-name="s" unicode="s" horiz-adv-x="329" 
d="M271 165.5q-5 22.5 -15 33.5q-15 16 -59 40q-35 21 -57 32q-70 42 -70 139q0 19 7.5 51.5t30.5 43.5q8 2 23 2q43 0 68 -40.5t25 -131.5l38 50q2 39 -17 68.5t-50.5 46t-64.5 16.5q-13 0 -27 -3q-82 -12 -97 -78q-3 -13 -3 -28q0 -25 8.5 -47.5t24.5 -37.5
q17 -15 35 -25.5t45 -22.5q34 -17 41 -21q22 -18 30 -54.5t8 -70.5q0 -30 -12.5 -69t-41.5 -49q-65 -3 -109 48q-18 36 -18 111q0 21 0.5 30t0.5 11l-35 -48q12 -74 55 -118t97 -44q13 0 26 3q44 6 77 36t39 84q2 20 -3 42.5z" />
    <glyph glyph-name="t" unicode="t" horiz-adv-x="250" 
d="M192 49q-21 -40 -50 -40q-13 0 -24 4q-17 8 -23.5 36t-6.5 88q0 50 1 82q2 92 2 158v151h118l-22 20l-23 -11h-73v235l-81 -139v-3q8 -19 8 -93h-73v-9h73q1 -13 1 -41l-1 -110v-204q0 -50 9 -85q11 -37 30 -56q14 -15 35 -23q19 -7 41 -9h6q10 0 19 3q8 2 21 15
q25 28 36 76q5 23 5 41v3h-7v-3q0 -46 -21 -86z" />
    <glyph glyph-name="u" unicode="u" horiz-adv-x="396" 
d="M324 403q0 34 -6 55q-4 -26 -5 -153q11 46 11 98zM330 404q0 -33 -4.5 -68t-12.5 -60v-7q1 -155 5.5 -203t12.5 -66h-4h-88v88q-14 -43 -39.5 -65t-55.5 -22q-28 0 -55 18.5t-47 52.5q-32 54 -39 124q-3 20 -3 175v146v37l80 -56q-3 -24 -6 -81t-3 -117q0 -157 23 -215
q26 -78 62 -74q6 0 20 6t32.5 28t30.5 64v446l82 -84q9 -21 9 -67z" />
    <glyph glyph-name="v" unicode="v" horiz-adv-x="376" 
d="M122 0l-142 515h81l130 -474l46 160l37 176l-2 124l39 15l-110 -516h-79z" />
    <glyph glyph-name="w" unicode="w" horiz-adv-x="451" 
d="M261 0l-67 297l-50 -297h-64l-100 514h64l96 -495l84 495h7l-10 -53l100 -441l60 355l-7 127l37 14l-87 -516h-63z" />
    <glyph glyph-name="x" unicode="x" horiz-adv-x="316" 
d="M277 515l-39 -16l-26 -87l-65 -109l-61 210h-79l87 -301l-124 -212h9l118 202l59 -202h95h6l-5 6q-7 10 -20 43q-3 7 -22 59t-49 150l-10 35l130 223l-4 -1v0z" />
    <glyph glyph-name="y" unicode="y" horiz-adv-x="333" 
d="M257 391l-50 -261l-56 143q-94 238 -94 242h-77l198 -533l-9 -52q-1 -4 -16 -70.5t-66 -66.5q-11 0 -21 5q-14 7 -23 33.5t-9 55.5q0 26 7 44l-48 20q0 -2 -1.5 -17t-1.5 -31q0 -13 1 -18q4 -27 16 -48.5t29 -33.5q10 -9 24.5 -14.5t27.5 -5.5q33 1 54.5 43.5t31.5 100.5
l114 589l-6 -3l-32 -11z" />
    <glyph glyph-name="z" unicode="z" horiz-adv-x="372" 
d="M80 10l216 506h-283l-19 -57l108 47h111l-103 -246q-57 -133 -85.5 -188t-38.5 -66l-6 -6h313l14 48l-118 -38h-109z" />
    <glyph glyph-name="braceleft" unicode="{" horiz-adv-x="378" 
d="M193 857.5q-1 -0.5 -3 -0.5l-6 -1h-1l-7 -2q-17 -4 -38 -17q-21 -14 -36 -31q-17 -22 -25 -42q-11 -22 -11 -51v-159q0 -47 -8 -76q-10 -29 -19 -41q-14 -16 -28 -20l-11 -3l11 -3q14 -4 28 -20q9 -12 19 -41q8 -29 8 -76v-160q0 -29 11 -50q8 -22 25 -42q19 -20 36 -31
q21 -13 38 -17q6 -2 8 -2l11 -2h83v9h-83q-6 0 -12 11q-8 9 -16 39q-7 27 -7 85v160q0 37 -17 65q-14 26 -36 44q-19 16 -40 26l-12 5q4 1 12 5q18 7 40 26q23 21 36 45q17 28 17 64v159q0 60 7 85q8 29 16 40q6 11 12 11h83v9h-83q-1 0 -2 -0.5z" />
    <glyph glyph-name="bar" unicode="|" horiz-adv-x="140" 
d="M75 0h-34l22 254v573l-23 61h35v-888z" />
    <glyph glyph-name="braceright" unicode="}" horiz-adv-x="378" 
d="M239 438q-12 14 -19 39q-9 34 -9 77v159q0 28 -10 51q-9 21 -26 42q-17 19 -35 31q-21 13 -38 17q-6 2 -8 2h-1l-5 1l-5 1h-83v-9h83q5 0 12 -11q8 -11 16 -40q7 -25 7 -85v-159q0 -36 16 -65q17 -28 37 -45q24 -19 39 -25q12 -5 13 -5l-13 -5q-14 -7 -39 -26
q-20 -17 -37 -45q-16 -29 -16 -64v-160q0 -58 -7 -85q-8 -30 -16 -39q-7 -11 -12 -11h-83v-9h83l11 2q2 0 8 2q17 4 38 17q15 9 35 31q17 19 26 42q10 21 10 50v160q0 44 9 76q8 26 20 40q12 17 26 21l12 3l-12 3q-13 4 -27 21z" />
    <glyph glyph-name="asciitilde" unicode="~" horiz-adv-x="578" 
d="M460 344q0 -42 -1 -64q-2 -36 -6 -49q-7 -11 -23 -27q-11 -10 -25 -13h-1l-9 -1q-12 3 -21 20q-9 14 -17 37q-10 28 -13 41q-3 12 -5.5 19t-3.5 11q-3 10 -15 29q-14 20 -31 40q-18 20 -42 36q-23 16 -50 19l-13 1h-3q-3 0 -9 -2q-34 -6 -59 -51q-24 -43 -33 -118v-1
l39 -80v11q-2 52 -2 76q0 22 2 64q0 29 5 49q21 36 49 40l1 1l4 1h4q14 -5 22 -20q9 -17 17 -37q2 -8 5.5 -18t6.5 -23l9 -30q11 -21 16 -29q14 -22 30 -40q20 -22 43 -36q23 -16 50 -19q2 -1 6 -1h7q9 0 12 1q34 8 59 52q24 44 32 118l1 1l-40 81l1 -11q1 -28 1 -78z" />
    <glyph glyph-name="exclamdown" unicode="&#xa1;" horiz-adv-x="261" 
d="M64 -183l8 38l12 97q7 60 18 178q6 53 9 97q4 56 4 69q2 18 2 44v24q0 17 10 30l45 46q3 3 6 3q2 0 6 -2q6 -6 5 -16l-34 -575l-95 -47zM105 598l32 -48q6 -9 11 -9q7 0 11 9l32 48q5 8 5 15t-5 17l-32 49q-4 7 -11 7q-8 0 -11 -7l-32 -49q-6 -9 -6 -17q0 -7 6 -15z" />
    <glyph glyph-name="plusminus" unicode="&#xb1;" horiz-adv-x="416" 
d="M198 585h152l-21 -110h-131v-164h-16v164h-152l22 110h130v164h16v-164zM329 150h-299l21 110h300z" />
    <glyph glyph-name="periodcentered" unicode="&#xb7;" horiz-adv-x="310" 
d="M149 418q-6 0 -11 -7l-33 -51q-5 -7 -5 -17q0 -9 5 -17l33 -49q4 -7 11 -7q8 0 12 7l34 49v0q5 8 5 17q0 10 -5 17l-34 51q-5 7 -12 7z" />
    <glyph glyph-name="questiondown" unicode="&#xbf;" horiz-adv-x="429" 
d="M155 613q0 6 4 18v0l34 48q4 7 11 7t10 -7l33 -48q5 -7 5 -17q0 -9 -5 -17l-33 -48q-5 -8 -10 -8t-11 8l-34 48q-4 8 -4 16zM82 -174q23 -16 52 -22q27 -6 56 -6q26 0 54 14q20 9 49 33q20 19 40 47q16 21 30 51l1 2l-32 81l-2 -7q-13 -59 -33 -105q-12 -26 -20 -38
q-11 -17 -24 -34q-13 -15 -30 -24q-18 -8 -34 -8q-37 0 -60 30q-23 31 -26 77q-3 45 14 102q18 55 62 104q43 48 61 96q18 47 21 87q2 22 2 31q0 17 -4 41q-6 32 -12 48q-3 6 -8 10q-2 1 -6 1q-3 0 -5 -1l-65 -46l1 -3q18 -41 28 -88q7 -36 4 -79q-3 -40 -29 -74
q-27 -33 -51 -54q-27 -22 -44 -39q-17 -19 -30 -44q-12 -29 -12 -69q0 -41 14 -71q16 -28 38 -43z" />
    <glyph glyph-name="quoteleft" unicode="&#x2018;" horiz-adv-x="191" 
d="M44 606l21 -31q5 -6 11 -6q7 0 11 6l34 51q5 8 5 17t-5 17l-11 16q-11 19 -15 35q-4 10 -6 31q0 16 9 31l1 2l-14 25l-2 -3q-16 -25 -25 -44q-11 -22 -18 -46q-8 -22 -10 -49q0 -9 4 -27q1 -13 10 -25z" />
    <glyph glyph-name="quoteright" unicode="&#x2019;" horiz-adv-x="191" 
d="M112 763l-21 31q-4 6 -11 6q-6 0 -11 -6l-34 -51q-5 -8 -5 -17t5 -17l11 -16q11 -19 15 -35q4 -10 6 -31q0 -16 -9 -31l-1 -2l14 -25l2 3q16 25 25 44q14 27 18 46q8 22 10 49q0 9 -4 27q-1 13 -10 25z" />
    <glyph glyph-name="quotedblleft" unicode="&#x201c;" horiz-adv-x="309" 
d="M162 606l21 -31q5 -6 11 -6q7 0 11 6l34 51q5 8 5 17q0 10 -5 17l-11 16q-11 19 -15 35q-4 10 -6 31q0 16 9 31l1 2l-14 25l-2 -3q-16 -25 -25 -44q-14 -27 -18 -46q-8 -22 -10 -49q0 -9 4 -27q1 -13 10 -25zM44 606l21 -31q5 -6 11 -6q7 0 11 6l34 51q5 8 5 17
q0 10 -5 17l-11 16q-12 25 -15 35q-4 10 -6 31q0 16 9 31l1 2l-14 25l-2 -3q-16 -25 -25 -44q-11 -22 -18 -46q-8 -22 -10 -49q0 -9 4 -27q1 -13 10 -25z" />
    <glyph glyph-name="quotedblright" unicode="&#x201d;" horiz-adv-x="299" 
d="M112 763l-22 31q-3 6 -10 6q-6 0 -12 -6l-33 -51q-5 -6 -5 -17q0 -12 5 -17l11 -16q13 -25 15 -35q5 -17 5 -31v-4q0 -13 -8 -27l-2 -2l15 -25l1 3q10 14 26 44q11 22 18 46q9 29 9 49q0 14 -3 27q-1 13 -10 25zM220 763l-21 31q-4 6 -11 6q-6 0 -11 -6l-34 -51
q-4 -7 -4 -17q0 -12 4 -17l11 -16q10 -17 16 -35q3 -10 5 -31v-3q0 -12 -9 -28l-1 -2l15 -25l1 3q16 25 25 44q14 27 18 46q8 22 10 49q0 15 -4 27q-1 13 -10 25z" />
    <glyph glyph-name="ellipsis" unicode="&#x2026;" horiz-adv-x="608" 
d="M119 148q-5 0 -12 -7l-32 -51q-5 -5 -5 -17q0 -11 5 -17l32 -49q6 -7 12 -7q7 0 11 7l34 49v0q5 8 5 17q0 10 -5 17l-34 51q-5 7 -11 7zM298 148q-6 0 -11 -7l-33 -51q-5 -7 -5 -17q0 -9 5 -17l33 -49q4 -7 11 -7q8 0 12 7l34 49v0q5 8 5 17q0 10 -5 17l-34 51
q-5 7 -12 7zM478 152q-6 0 -11 -7l-33 -51q-5 -5 -5 -17q0 -11 5 -17l33 -49q4 -7 11 -7q8 0 11 7l34 49v0q5 8 5 17q0 10 -5 17l-34 51q-3 7 -11 7z" />
    <glyph glyph-name="guilsinglleft" unicode="&#x2039;" 
d="M77 473l409 -473h-124l-1 1l-361 414l439 414h15z" />
    <glyph glyph-name="guilsinglright" unicode="&#x203a;" 
d="M47 828l439 -413l-2 -3l-360 -412h-124l409 473l-378 356h16v-1z" />
    <glyph glyph-name="arrowleft" unicode="&#x2190;" horiz-adv-x="886" 
d="M122 311q16 -13 30 -32q11 -15 25 -39q20 -37 37 -90q15 -50 24 -100q-9 42 -28 96q-21 53 -41 84q-16 24 -26 34q-9 12 -29 26q-11 8 -31 15q-16 4 -33 3v32q18 0 33 4q16 4 31 15q17 11 29 26q10 10 26 34q20 31 41 84q19 51 28 96q-9 -53 -24 -100q-17 -53 -37 -90
q-16 -28 -25 -40q-16 -20 -30 -31v0h664l-18 -27h-646v0z" />
    <glyph glyph-name="arrowup" unicode="&#x2191;" horiz-adv-x="517" 
d="M224 810q-9 -24 -21 -45q-10 -17 -26 -37q-24 -29 -60 -56q-37 -24 -67 -35q28 13 64 42q32 27 56 61q13 18 23 38q7 13 17 43q7 20 10 47t2 49h22q0 -25 3 -49q3 -27 10 -47q6 -23 17 -43q10 -20 23 -38q24 -34 56 -61q33 -28 64 -42q-34 12 -67 35q-37 26 -60 56
q-19 24 -27 37q-12 25 -20 45v0v-991l-19 27v964v0z" />
    <glyph glyph-name="arrowright" unicode="&#x2192;" horiz-adv-x="886" 
d="M714 338q-16 13 -30 32q-11 15 -25 39q-20 37 -37 90q-15 50 -24 100q9 -42 28 -96q21 -53 41 -84q16 -24 26 -34q9 -12 29 -26q11 -8 31 -15q16 -4 33 -3v-32q-18 0 -33 -4q-16 -4 -31 -15q-17 -11 -29 -26q-10 -10 -26 -34q-20 -31 -41 -84q-19 -51 -28 -96
q9 53 24 100q17 53 37 90q16 28 25 40q16 20 30 31v0h-664l18 27h646v0z" />
    <glyph glyph-name="arrowdown" unicode="&#x2193;" horiz-adv-x="517" 
d="M243 -70q9 24 21 45q10 17 26 37q24 29 60 56q37 24 67 35q-28 -13 -64 -42q-32 -27 -56 -61q-13 -18 -23 -38q-7 -13 -17 -43q-7 -20 -10 -47t-2 -49h-22q0 25 -3 49q-3 27 -10 47q-6 23 -17 43q-10 20 -23 38q-24 34 -56 61q-33 28 -64 42q34 -12 67 -35q37 -26 60 -56
q19 -24 27 -37q13 -25 20 -45v0v991l19 -27v-964v0z" />
    <glyph glyph-name="arrowboth" unicode="&#x2194;" horiz-adv-x="886" 
d="M714 338q-16 13 -30 32q-11 15 -25 39q-20 37 -37 90q-15 50 -24 100q9 -42 28 -96q21 -53 41 -84q16 -24 26 -34q9 -12 29 -26q11 -8 31 -15q16 -4 33 -3v-32q-18 0 -33 -4q-16 -4 -31 -15q-17 -11 -29 -26q-10 -10 -26 -34q-20 -31 -41 -84q-19 -51 -28 -96
q9 53 24 100q17 53 37 90q16 28 25 40q16 20 30 31v0h-664l18 27h646v0zM122 314q16 -13 30 -32q11 -15 25 -39q20 -37 37 -90q15 -50 24 -100q-9 42 -28 96q-21 53 -41 84q-16 24 -26 34q-9 12 -29 26q-11 8 -31 15q-16 4 -33 3v32q18 0 33 4q16 4 31 15q17 11 29 26
q10 10 26 34q20 31 41 84q19 51 28 96q-9 -53 -24 -100q-17 -53 -37 -90q-16 -28 -25 -40q-16 -20 -30 -31v0h664l-18 -27h-646v0z" />
    <glyph glyph-name="arrowupdn" unicode="&#x2195;" horiz-adv-x="520" 
d="M243 -66q9 24 21 45q16 25 27 37q23 30 60 56q35 24 67 35q-31 -14 -64 -42q-32 -26 -57 -61q-14 -19 -22 -38q-10 -18 -18 -43q-4 -11 -6.5 -26l-3.5 -21q-3 -27 -2 -49h-21q0 25 -3 49q-3 27 -10 47q-8 25 -18 43q-8 19 -22 38q-25 35 -57 61q-34 29 -64 42
q35 -12 67 -35q35 -24 60 -56q16 -17 27 -37q12 -21 21 -45v0v991l18 -27v-964v0zM227 818q-9 -24 -21 -45q-16 -25 -27 -37q-23 -30 -60 -56q-35 -24 -67 -35q31 14 64 42q32 26 57 61q14 19 22 38q10 18 18 43q4 11 6.5 26l3.5 21q3 27 2 49h21q0 -25 3 -49q3 -27 10 -47
q8 -25 18 -43q8 -19 22 -38q22 -32 57 -61q34 -29 64 -42q-35 12 -67 35q-35 24 -60 56q-16 17 -27 37q-12 21 -21 45v0v-991l-18 27v964v0z" />
    <glyph glyph-name="uni2196" unicode="&#x2196;" horiz-adv-x="684" 
d="M102 667q5 -27 6 -54l1 -23q0 -9 -2 -31q-3 -50 -16 -103q-14 -55 -31 -96q14 39 26 98q11 61 11 102q0 34 -2 51t-8 49q-3 12 -8 25t-7 19q-6 13 -22 37l15 22q11 -16 25 -32q12 -11 29 -22q17 -9 33 -12q18 -5 34 -3q33 1 69 16q39 16 65 38q-30 -27 -63 -45
q-37 -21 -70 -25q-19 -3 -36 -2q-20 3 -36 10v0l469 -701h-25l-457 682v0z" />
    <glyph glyph-name="uni2197" unicode="&#x2197;" horiz-adv-x="672" 
d="M507 697q-16 -7 -36 -10h-10q-10 0 -26 2q-30 4 -69 24q-38 22 -64 46q24 -20 65 -38q34 -15 69 -17q22 0 34 3q11 2 33 12q15 9 29 23q11 11 25 32l15 -22q-12 -18 -22 -38q-9 -19 -15 -44q-4 -14 -8 -48q-2 -17 -2 -51q1 -50 11 -103q10 -56 26 -97q-19 47 -31 95
q-13 55 -16 103q-2 18 -2 55q5 40 7 53v0l-470 -700v38l457 682v0z" />
    <glyph glyph-name="uni2198" unicode="&#x2198;" horiz-adv-x="684" 
d="M532 72q-4 25 -6 54l-1 22q0 10 2 32q3 48 16 103q15 56 31 95q-14 -37 -26 -97q-10 -53 -11 -103q0 -34 2 -51q2 -16 8 -48q3 -12 8 -25t7 -19q11 -22 22 -37l-15 -23q-14 21 -25 32q-14 14 -29 23q-22 10 -33 12q-12 3 -34 3q-35 -2 -69 -17q-39 -16 -65 -38
q29 28 64 46q37 20 69 24q23 4 36 2q20 -3 36 -10v0l-469 701h25l457 -681v0z" />
    <glyph glyph-name="uni2199" unicode="&#x2199;" horiz-adv-x="671" 
d="M115 50q16 7 36 9l15 1q7 0 21 -2q32 -5 69 -24q35 -20 64 -46q-28 21 -65 38q-37 15 -69 16h-8q-14 0 -26 -3q-11 -2 -33 -12q-9 -4 -18 -12t-11 -10q-15 -16 -25 -33l-15 23q13 19 21 37q8 16 15 44q7 26 8 49q3 28 2 51q0 47 -10 102q-13 61 -26 98q18 -45 30 -96
q15 -61 16 -103q3 -30 2 -54q-1 -9 -2 -22.5t-4 -31.5v0l469 701v-38l-456 -682v0z" />
    <glyph glyph-name="minus" unicode="&#x2212;" horiz-adv-x="416" 
d="M330 310h-300l22 80h299z" />
    <glyph glyph-name="heart" unicode="&#x2665;" horiz-adv-x="578" 
d="M527 554q1 -7 0 -14q-14 -8 -27 -10.5t-16 -3.5q-18 -3 -27.5 -6t-19.5 -11q-2 -2 -2 -5q0 -1 0.5 -2.5t1.5 -1.5q11 -9 37 -11q17 -2 25.5 -4.5t13.5 -11.5l3 -7l1 -10q0 -14 -8 -27q-7 -12 -14 -19l-16 -17q-20 -21 -31 -38t-14 -42q-4 -23 -10 -31q0 -1 -1 -2.5
t-1 -2.5q-2 -5 -4.5 -8t-4.5 -6l-47 -82q-31 -51 -35 -59t-11 -8t-12 8t-13.5 22t-14.5 23q-12 14 -45 42q-15 17 -35 27t-49 21q-7 1 -16 6q-43 16 -65 40l-12 19q-1 1 -5.5 10t-2.5 18q2 10 10 13.5t9 4.5q7 4 23.5 12.5t27.5 20.5q5 5 5 14q0 6 -2 14q-5 22 -16 27
q-9 8 -21 10.5t-15 3.5q-2 1 -11.5 3.5t-9.5 10.5t3.5 11t7.5 4t6 1q16 2 24 8q13 11 18 27q0 13 2 19q7 39 26 68q15 21 34.5 32t39.5 11q21 0 40 -11t34 -32q21 -30 27 -73l-4 -3q-4 -3 -10 -6q-12 -10 -35 -14l-20 -5q-16 -6 -24 -12q-2 -1 -2 -5v-3q1 0 2.5 -1.5
t3.5 0.5q12 9 25.5 11.5t16.5 3.5q26 3 41 14l6 5q2 2 4.5 3.5t5.5 4.5q2 0 3 3q4 42 28 77q15 21 34 32t40 11q20 0 39 -11t34 -32q19 -28 27 -68z" />
    <glyph glyph-name="uni3008" unicode="&#x3008;" 
d="M77 473l409 -473h-124l-1 1l-361 414l439 414h15z" />
    <glyph glyph-name="uni3009" unicode="&#x3009;" 
d="M47 828l439 -413l-2 -3l-360 -412h-124l409 473l-378 356h16v-1z" />
  </font>
</defs>
</svg>
