<?xml version="1.0" standalone="no"?>
<!DOCTYPE svg PUBLIC "-//W3C//DTD SVG 1.1//EN" "http://www.w3.org/Graphics/SVG/1.1/DTD/svg11.dtd" >
<svg xmlns="http://www.w3.org/2000/svg" xmlns:xlink="http://www.w3.org/1999/xlink" version="1.1">
<metadata>
Created by FontForge 20170731 at Sun Dec 20 09:57:07 2020
 By Aleksey,,,
Calton Elegance Sans (c) lemonthe. 2020. All Rights Reserved
</metadata>
<defs>
<font id="CaltonEleganceSans-Italic" horiz-adv-x="1144" >
  <font-face 
    font-family="Calton Elegance Sans"
    font-weight="400"
    font-style="italic"
    font-stretch="normal"
    units-per-em="2300"
    panose-1="2 0 6 0 0 0 0 9 0 0"
    ascent="1840"
    descent="-460"
    x-height="1008"
    cap-height="1455"
    bbox="-531 -511.667 2442.56 2284"
    underline-thickness="150"
    underline-position="-592"
    slope="-12"
    unicode-range="U+0020-2265"
  />
<missing-glyph horiz-adv-x="1124" 
d="M150 0l305 1434h824l-305 -1434h-824zM211 50h724l283 1334h-724z" />
    <glyph glyph-name=".notdef" horiz-adv-x="1124" 
d="M150 0l305 1434h824l-305 -1434h-824zM211 50h724l283 1334h-724z" />
    <glyph glyph-name=".null" horiz-adv-x="0" 
 />
    <glyph glyph-name="nonmarkingreturn" horiz-adv-x="766" 
 />
    <glyph glyph-name="space" unicode=" " horiz-adv-x="508" 
 />
    <glyph glyph-name="space" unicode="&#xa0;" horiz-adv-x="508" 
 />
    <glyph glyph-name="exclam" unicode="!" horiz-adv-x="573" 
d="M698 1420q29 -47 18 -104q-3 -13 -8 -27l-331 -924h-44l64 924q1 13 3 26q12 59 62 106q60 56 129 56q71 0 107 -57zM335 257v0q59 0 92 -41.5t21 -100.5q-13 -59 -63.5 -101t-109.5 -42t-92 42t-20 101q12 59 62.5 100.5t109.5 41.5z" />
    <glyph glyph-name="quotedbl" unicode="&#x22;" horiz-adv-x="695" 
d="M803 1474q35 0 55 -25t12 -61q-2 -12 -6 -20q-12 -33 -36 -89t-51 -115t-47.5 -100.5t-23.5 -41.5q-5 0 -8 42.5t-4 102t-0.5 116t2.5 87.5q0 9 2 18q8 36 38.5 61t66.5 25zM519 1474q36 0 56 -25t12 -61q-2 -12 -6 -20q-12 -33 -36 -89t-51 -115t-47.5 -100.5
t-23.5 -41.5q-5 0 -8 42.5t-4.5 102t-0.5 116t3 87.5q0 9 2 18q8 36 38.5 61t65.5 25z" />
    <glyph glyph-name="numbersign" unicode="#" horiz-adv-x="1262" 
d="M1329 880h-245l-156 -305h336l-9 -45h-351l-271 -530h-48l272 530h-310l-272 -530h-47l271 530h-266l9 45h280l157 305h-372l10 46h385l272 530h48l-272 -530h310l272 530h48l-272 -530h231zM880 575l157 305h-311l-156 -305h310z" />
    <glyph glyph-name="dollar" unicode="$" horiz-adv-x="1222" 
d="M1216 650q35 -90 0 -227q-50 -190 -220 -323q-152 -114 -350 -123l-24 -114h-45l24 112h-19q-148 1 -233 33t-124.5 79t-51.5 90q-26 92 -2 176.5t81 130.5t127 22q60 -27 66 -84q3 -28 -3 -54.5t-21 -51.5q-30 -50 -78 -54q-15 -2 -24.5 -34.5t6.5 -76t77.5 -78
t187.5 -40.5q12 -1 23 -1l122 578q-8 3 -17 7q-97 41 -143 68q-271 154 -223 390q36 168 177 279q161 118 375 118q8 0 15 -1l34 164h46l-35 -166q229 -19 288 -170q31 -87 8.5 -170t-79 -128.5t-126.5 -21.5q-60 27 -66 84t24 106t78 54q41 3 49 45q1 2 1 4q8 45 -45 94
l-1.5 1t-3 2.5t-4.5 3.5q-26 20 -66 34q-31 11 -68 14l-108 -509q180 -72 243 -114q93 -63 128 -148zM803 929l105 493h-4q-119 -2 -207 -66q-54 -36 -82 -98q-31 -59 -30 -123q-1 -54 33 -96q37 -48 185 -110zM949 202q34 56 45 133q6 61 -20 113q-25 43 -92 87
q-45 28 -105 56l-118 -557q104 9 185 60q68 42 105 108z" />
    <glyph glyph-name="percent" unicode="%" horiz-adv-x="1745" 
d="M1719 1409l29 -28l-1449 -1517l-30 26zM828 647q-123 -108 -263 -108t-213 104q-74 103 -42 253q33 157 152 264q118 106 270 106q154 0 220 -97q65 -97 31 -258q-33 -156 -155 -264zM486 666q25 -94 90 -94q64 0 131 98q68 97 98 239q31 147 9 236q-21 88 -93 88
q-71 0 -136 -97t-95 -240q-29 -136 -4 -230zM1671 628q66 -98 32 -259q-33 -156 -156 -263q-122 -108 -263 -108t-214 103t-41 254q33 156 151 263t271 107q154 0 220 -97zM1426 128q68 97 99 240q31 145 9 234q-22 88 -94 88t-139 -98q-64 -97 -94 -237q-29 -137 -4 -230
q25 -94 90 -94t133 97z" />
    <glyph glyph-name="ampersand" unicode="&#x26;" horiz-adv-x="1716" 
d="M1367 357l229 -357h-338l-106 157q-162 -114 -347 -152q-93 -24 -188 -19q-94 4 -173 26q-78 21 -134 78q-56 56 -72 137q-34 171 82 339q117 167 324 245q49 18 53.5 19.5t-10 27t-28 65t-14.5 83.5q0 98 52 205.5t160.5 182t277.5 69.5q110 -11 158 -103t-2 -209
q-39 -79 -88.5 -127t-96.5 -73t-109 -41l348 -519q118 113 108.5 171.5t-89.5 52.5q-49 -2 -54.5 41.5t21.5 100t73.5 92.5t101.5 18q69 -28 77 -95t-24.5 -149t-85.5 -154.5t-106 -111.5zM922 1338q-136 -126 54 -399l35 14q78 30 133 83q55 52 77 97q22 44 27 84
q9 83 -30 132t-111 54h-17q-99 0 -168 -65zM841 104q181 8 285 85l-396 600q-11 -6 -14 -8q-92 -53 -149 -147q-56 -94 -71 -175q-14 -81 1 -139q26 -111 122 -165t222 -51z" />
    <glyph glyph-name="quotesingle" unicode="'" horiz-adv-x="412" 
d="M520 1474q35 0 55 -25t12 -61q-2 -12 -6 -20q-12 -33 -36 -89t-51 -115t-47.5 -100.5t-23.5 -41.5q-5 0 -8 42.5t-4 102t-0.5 116t2.5 87.5q0 9 2 18q8 36 38.5 61t66.5 25z" />
    <glyph glyph-name="parenleft" unicode="(" horiz-adv-x="649" 
d="M445 559q-120 -567 79 -865q-37 -16 -39 -16q-373 283 -246 881t627 910l31 -16q-331 -327 -452 -894z" />
    <glyph glyph-name="parenright" unicode=")" horiz-adv-x="649" 
d="M408 1469q366 -312 239 -910t-620 -881q-2 0 -32 16q326 298 446 865q121 567 -72 894z" />
    <glyph glyph-name="asterisk" unicode="*" horiz-adv-x="920" 
d="M1056 1257q5 -28 -10.5 -54t-44.5 -39q-10 -4 -17 -5q-46 -12 -130 -27.5t-137 -22.5q42 -23 106 -66t95 -68q6 -4 10 -9q17 -21 12 -49t-29 -50q-25 -21 -53 -22.5t-46 18.5q-7 6 -9 12q-14 25 -36.5 71.5t-43 92t-27.5 67.5q-17 -22 -56.5 -67.5t-82 -92t-67.5 -71.5
q-5 -6 -13 -12q-27 -20 -54.5 -18.5t-43.5 22.5q-15 22 -8 50t32 49q7 5 15 9q41 25 123.5 68t134.5 65q-50 8 -128 23.5t-120 27.5q-7 1 -14 5q-24 13 -28.5 39t12.5 54q18 26 46.5 36t53.5 -1q6 -3 11 -8q33 -24 91.5 -74.5t90.5 -84.5q-5 47 -6 133t3 131q0 8 1 15
q6 29 31 49.5t54 20.5t45 -20.5t10 -49.5q-2 -10 -5 -16q-18 -48 -55.5 -132t-61.5 -131q46 34 126 85t123 74q7 5 15 8q30 11 54 1t31 -36z" />
    <glyph glyph-name="plus" unicode="+" horiz-adv-x="1217" 
d="M791 752h465l-9 -45h-466l-99 -466h-46l99 466h-465l9 45h466l99 466h46z" />
    <glyph glyph-name="comma" unicode="," horiz-adv-x="535" 
d="M319 257q63 0 90 -35t25 -90t-28 -119t-70 -123.5t-100 -102.5t-119 -57q-5 -1 -7 2t-1 7.5t6 6.5q50 25 90.5 77t54.5 98t-14 52q-52 6 -80 42.5t-21 89.5q11 64 62 108t112 44z" />
    <glyph glyph-name="hyphen" unicode="-" horiz-adv-x="1118" 
d="M280 751h877l-9 -43h-877z" />
    <glyph glyph-name="hyphen" unicode="&#xad;" horiz-adv-x="1118" 
d="M280 751h877l-9 -43h-877z" />
    <glyph glyph-name="period" unicode="." horiz-adv-x="525" 
d="M318 257q59 0 91.5 -41.5t20.5 -100.5q-13 -59 -63.5 -101t-109.5 -42t-92 42t-20 101q12 59 63 100.5t110 41.5z" />
    <glyph glyph-name="slash" unicode="/" horiz-adv-x="813" 
d="M951 1418l41 -14l-875 -1621l-41 14z" />
    <glyph glyph-name="zero" unicode="0" horiz-adv-x="1146" 
d="M1228 1108q28 -169 -17 -380q-45 -212 -145 -382q-100 -169 -231 -268q-130 -98 -267 -98t-225 98q-88 99 -116 268q-28 170 17 382q45 211 145 380q100 170 230 269q131 99 267 99q135 0 225 -99q89 -99 117 -269zM576 13q64 0 137.5 96t139 257t106.5 357
q42 196 45 357t-29.5 256.5t-97.5 95.5q-64 0 -137 -95.5t-139 -256.5t-107 -357q-42 -196 -45 -357t30 -257t97 -96z" />
    <glyph glyph-name="one" unicode="1" horiz-adv-x="576" 
d="M682 1455h84l-310 -1455h-254l274 1289l-135 -79l-15 39q24 13 80 46t119.5 69.5t110 63.5z" />
    <glyph glyph-name="two" unicode="2" horiz-adv-x="1141" 
d="M1248 1070q-23 -111 -84 -211.5t-142 -187.5t-168.5 -159t-167.5 -125.5t-137.5 -87t-79.5 -44.5h576l-54 -255h-931l2 9l214 160q329 248 497 452q167 204 228 483q15 61 7.5 136.5t-52.5 131.5t-146 58q-87 -4 -137 -38t-63.5 -70.5t8.5 -45.5q40 -17 26 -75
t-66.5 -104.5t-128.5 -30.5q-60 21 -44.5 106t110.5 175t273 128q27 5 75.5 4t107.5 -13t116.5 -38.5t101 -73t62 -116.5t-2.5 -168z" />
    <glyph glyph-name="three" unicode="3" horiz-adv-x="1152" 
d="M1090 605v0q25 -44 32 -97.5t-8 -120.5q-23 -110 -107.5 -201t-203 -148.5t-249.5 -68t-250 38.5h-1q-94 49 -115 130.5t12 151t101 79.5q82 5 106 -45t4.5 -107.5t-67.5 -73.5q-37 -13 -27.5 -43t61.5 -55t141 -20q111 11 183.5 79.5t111.5 150t49 134.5
q25 126 -8.5 202t-97.5 113t-129 48.5t-97 11.5l9 44q30 0 90.5 12.5t128.5 48t124 102t80 173.5q27 129 -15 206.5t-156 78.5q-63 -1 -106.5 -22t-68.5 -48.5t-32.5 -49t2.5 -23.5q49 -10 45.5 -69.5t-50 -114.5t-126.5 -52q-56 9 -60 70t42 140.5t138.5 142t228.5 73.5
q214 9 325 -84t77 -238q-32 -108 -112 -179t-177 -111.5t-178.5 -58t-116.5 -19.5q13 -1 30 -1q58 -1 142 -12.5t165 -49t130 -118.5z" />
    <glyph glyph-name="four" unicode="4" horiz-adv-x="1027" 
d="M922 423h105l-10 -44h-105l-80 -379h-255l81 379h-518l2 10l953 1066h46zM667 423l138 649l-579 -649h441z" />
    <glyph glyph-name="five" unicode="5" horiz-adv-x="1095" 
d="M649 865q12 2 54.5 0t101 -13t119 -36.5t108.5 -72.5t69 -120t-2 -180q-42 -198 -215.5 -328.5t-427.5 -134.5q-113 0 -188 44q-76 45 -104 118t-1 162h43q-18 -83 4.5 -137.5t66.5 -85.5t95.5 -44t90.5 -13q26 0 78.5 12.5t113 54.5t114 126t84.5 224q32 177 -27 260.5
t-153.5 103.5t-167.5 6q-77 -13 -142 -35l225 680h632l-9 -45h-381z" />
    <glyph glyph-name="six" unicode="6" horiz-adv-x="1150" 
d="M808 907q82 8 154 -21t123.5 -89.5t72.5 -147.5t-1 -194q-24 -110 -83.5 -198t-139.5 -150t-167 -94.5t-164 -32.5q-139 0 -223 43.5t-126 112.5t-54 149.5t-5.5 157t19.5 134.5q59 260 253.5 497t449.5 348q72 29 141 42t135 13l-9 -44q-49 -1 -144 -34t-208 -122.5
t-218 -258t-175 -439.5q11 45 59.5 119.5t127.5 137t182 71.5zM599 38q57 0 125.5 56.5t125.5 148.5t80 201q35 162 -14.5 276.5t-148.5 114.5q-57 0 -121.5 -53t-118 -141.5t-76.5 -196.5q-23 -109 -8 -201t57 -148.5t99 -56.5z" />
    <glyph glyph-name="seven" unicode="7" horiz-adv-x="1012" 
d="M399 1455h893l-10 -44l-874 -1411h-275l874 1411h-617z" />
    <glyph glyph-name="eight" unicode="8" horiz-adv-x="1100" 
d="M1080 554q33 -72 10 -177q-25 -117 -90 -194t-147 -122q-83 -44 -165 -63q-83 -18 -143 -18q-72 0 -149 15q-77 16 -138 54q-62 38 -91 104q-30 66 -9 167q20 91 70 158q51 67 116 113q65 47 130 76q15 6 26 11q21 9 37.5 16t36.5 12q-39 27 -93 90.5t-88 150.5
q-23 70 -4 157q23 109 77 180q54 72 124 114q69 41 141 59q72 17 130 17q63 0 124 -16q60 -16 105 -52q45 -35 65 -94q20 -58 1 -143q-26 -101 -99.5 -178.5t-147.5 -124.5t-100 -56q5 -3 11 -7.5t11 -7.5t7 -5q79 -51 144 -107t98 -129zM552 1122q7 -78 48 -135.5t90.5 -95
t81.5 -55.5q7 -5 13 -8q99 80 158.5 176t75.5 173q11 51 2 108t-48 98t-119 47q-105 1 -178 -61t-104 -140q-22 -54 -20 -107zM643 45q80 31 141.5 99.5t83.5 172.5q13 59 -8 111.5t-59.5 97t-81 78t-77 54.5t-45.5 27q-4 1 -4 2q-40 -14 -99 -59.5t-112.5 -123
t-78.5 -185.5q-20 -97 29.5 -177t154.5 -109q75 -19 156 12z" />
    <glyph glyph-name="nine" unicode="9" horiz-adv-x="1150" 
d="M857 1477q139 0 222.5 -43.5t126 -112.5t54.5 -149.5t5.5 -157t-19.5 -134.5q-60 -261 -254 -498t-449 -347q-72 -30 -141.5 -42.5t-135.5 -12.5l10 44q49 1 143.5 34t208 122t218.5 258t174 440q-10 -45 -58.5 -119.5t-128 -137t-182.5 -71.5q-81 -9 -153 20.5t-124 90
t-73 147.5t2 193q23 111 83 199t139.5 150t166.5 94.5t165 32.5zM692 622q57 0 122 53t118.5 141.5t76.5 196.5t7.5 200.5t-57 149t-98.5 56.5t-125.5 -56.5t-126 -149t-80.5 -200.5q-34 -162 15.5 -276.5t147.5 -114.5z" />
    <glyph glyph-name="colon" unicode=":" horiz-adv-x="525" 
d="M317 257q59 0 92 -41.5t20 -100.5q-12 -59 -63 -101t-110 -42t-91.5 42t-20.5 101q13 59 63.5 100.5t109.5 41.5zM421 749q-59 0 -91.5 41.5t-20.5 100.5q13 59 63.5 101t109.5 42t92 -42t20 -101q-12 -59 -63 -100.5t-110 -41.5z" />
    <glyph glyph-name="semicolon" unicode=";" horiz-adv-x="536" 
d="M426 749q-59 0 -92 41.5t-20 100.5q12 59 62.5 101t109.5 42t92 -42t21 -101q-13 -59 -63.5 -100.5t-109.5 -41.5zM320 257q63 0 90 -35t24.5 -90t-28 -119t-69.5 -123.5t-100.5 -102.5t-118.5 -57q-5 -1 -7.5 2t-1 7.5t6.5 6.5q50 25 90.5 77t54.5 98t-14 52
q-52 6 -80.5 42.5t-21.5 89.5q11 64 62 108t113 44z" />
    <glyph glyph-name="less" unicode="&#x3c;" horiz-adv-x="985" 
d="M1097 1088l-31 -145l-593 -276l475 -278l-15 -73l-663 387z" />
    <glyph glyph-name="equal" unicode="=" horiz-adv-x="1118" 
d="M297 831h877l-9 -44h-877zM253 625l9 43h878l-10 -43h-877z" />
    <glyph glyph-name="greater" unicode="&#x3e;" horiz-adv-x="985" 
d="M352 1088l663 -387l-827 -385l31 146l592 275l-475 278z" />
    <glyph glyph-name="question" unicode="?" horiz-adv-x="903" 
d="M449 257q59 0 92 -41.5t21 -100.5q-13 -59 -63.5 -101t-109.5 -42t-92 42t-20 101q12 59 62.5 100.5t109.5 41.5zM797 1481q86 -1 161 -35.5t116.5 -98.5t22.5 -153q-17 -81 -53.5 -136t-85.5 -96.5t-104 -80.5q-69 -47 -138 -108.5t-126.5 -157.5t-89.5 -251h-53
q23 105 50.5 209t69.5 192t104 148q157 155 192.5 268t-8 175t-123.5 64q-73 -2 -126.5 -35t-74 -68t7.5 -40q33 -6 31.5 -44.5t-28.5 -84.5t-72.5 -73t-100.5 -10q-62 26 -55.5 91.5t69 141t169 129.5t245.5 54z" />
    <glyph glyph-name="at" unicode="@" horiz-adv-x="2253" 
d="M2181 1173v0q182 -231 63 -584q-36 -106 -90 -196q-55 -90 -109 -149t-116 -105q-62 -47 -103 -68q-42 -22 -79 -37q-79 -31 -173 -45q-94 -15 -183 -8t-135 63t-19 156q-21 -28 -44 -54q-24 -27 -76 -71q-52 -45 -124 -70q-71 -25 -152 -23q-182 5 -219 134
q-42 136 79 376q122 241 315 388q196 149 369 149q116 -1 189 -99l47 95l256 -1l-420 -829q-45 -87 -7 -115q39 -28 139 -14q160 21 319 156q160 134 237 367q108 331 -44 536q-176 233 -594 233q-138 0 -267 -34.5t-254 -86.5q-131 -54 -272.5 -178.5t-252.5 -290.5
t-148 -343q-41 -227 14 -384t170.5 -253t254.5 -139.5t267 -43.5q248 -1 491 117q108 51 197 116l43 -52q-99 -69 -215 -123q-271 -125 -551 -125q-430 0 -656 269q-223 266 -121 658q70 268 248 482q184 216 464 351q277 132 588 132q471 0 674 -257zM1463 703v0
q57 115 36 186q-21 61 -75 69q-11 3 -39 1q-95 -10 -212 -126q-139 -138 -240 -338q-103 -199 -102 -325q1 -131 108 -125q68 5 153 74q5 4 11 9q102 88 163 203z" />
    <glyph glyph-name="A" unicode="A" horiz-adv-x="1321" 
d="M973 1455l288 -1455h-258l-93 483h-515l-285 -483h-50l864 1455h49zM421 525h481q-13 64 -117 612q-339 -571 -364 -612z" />
    <glyph glyph-name="B" unicode="B" horiz-adv-x="1323" 
d="M1257 658q92 -113 58 -273t-174 -271q-142 -114 -301 -114h-719l308 1455h624q161 0 254 -99q91 -99 61 -241q-29 -136 -156 -235q-126 -97 -284 -107h77q158 -1 252 -115zM674 1410l-132 -623h206q133 0 228 89q96 89 125 223q28 133 -30 222t-191 89h-206zM929 145
q118 99 150 249q32 149 -44 249q-76 99 -243 99h-260l-148 -697h259q168 0 286 100z" />
    <glyph glyph-name="C" unicode="C" horiz-adv-x="1493" 
d="M1435 394l43 -38q-73 -116 -170 -201t-215.5 -132t-257.5 -47q-207 0 -355.5 101t-213.5 271.5t-21 377.5t181 377.5t329 271.5t399 101q51 0 99 -7q129 -19 214.5 -86.5t121.5 -163.5q31 -90 6 -174.5t-83 -131.5t-128 -23q-61 27 -67 84t24 106.5t78 53.5q37 3 45 47.5
t-21 103t-102 102t-196 45.5q-138 -3 -266.5 -97t-226 -253.5t-139.5 -353.5q-41 -195 -11.5 -356t118.5 -256.5t225 -95.5q66 0 139 20q130 34 251 124t200 230z" />
    <glyph glyph-name="D" unicode="D" horiz-adv-x="1529" 
d="M1587 728q-56 -299 -298 -514q-240 -214 -524 -214h-645l310 1455h562q154 0 279 -57q128 -60 205 -158q77 -100 107 -229q33 -137 4 -283zM1225 427v0q74 137 105 301q52 285 -78 483q-63 96 -177 148q-115 52 -239 52h-171l-290 -1365h271q110 0 206 32t201 126
q103 92 172 223z" />
    <glyph glyph-name="E" unicode="E" horiz-adv-x="1150" 
d="M536 760l-153 -720h685l-8 -40h-940l310 1455h939l-10 -44h-685l-128 -606h437l-10 -46z" />
    <glyph glyph-name="F" unicode="F" horiz-adv-x="1150" 
d="M675 1411l-128 -606h436l-9 -45h-437l-161 -760h-255l309 1455h940l-10 -44h-685z" />
    <glyph glyph-name="G" unicode="G" horiz-adv-x="1500" 
d="M1486 531l-112 -531h-255l8 38q-133 -62 -292 -62q-207 0 -355.5 101t-213.5 271.5t-21 377.5t181.5 377.5t329 271.5t398.5 101q51 0 100 -7q128 -19 213.5 -86.5t121.5 -163.5q31 -90 6.5 -174.5t-83 -131.5t-128.5 -23q-61 27 -67 84t24 106.5t78 53.5q37 3 45 47.5
t-21 103t-102 102t-196 45.5q-138 -3 -266.5 -97t-226 -253.5t-139.5 -353.5q-41 -195 -11.5 -356t118.5 -256.5t225 -95.5q66 0 140 20q78 21 155 63l82 383h-210l10 45h464z" />
    <glyph glyph-name="H" unicode="H" horiz-adv-x="1223" 
d="M1156 1455h257l-310 -1455h-256l157 737h-472l-156 -737h-256l309 1455h256l-143 -674h471z" />
    <glyph glyph-name="I" unicode="I" horiz-adv-x="496" 
d="M430 1455h256l-310 -1455h-256z" />
    <glyph glyph-name="J" unicode="J" horiz-adv-x="966" 
d="M899 1455h257l-225 -1055q-28 -131 -87.5 -215t-137 -130.5t-160.5 -64t-159.5 -14t-133.5 19.5q-92 27 -127 89t-16 128t87 106q70 35 116.5 10t56 -75t-34.5 -91q-23 -20 -32 -54t17.5 -61t106.5 -28q71 1 128.5 54t82.5 154z" />
    <glyph glyph-name="K" unicode="K" horiz-adv-x="1364" 
d="M837 930l467 -930h-320l-370 734l-101 -89q-109 -514 -137 -645h-256l15 65.5t35 157.5l214 1008q19 92 46 224h255l-14 -66t-144 -679l845 745h60z" />
    <glyph glyph-name="L" unicode="L" horiz-adv-x="1192" 
d="M384 44h728l-10 -44h-982l309 1455h255z" />
    <glyph glyph-name="M" unicode="M" horiz-adv-x="1733" 
d="M1679 1456l244 -1l-310 -1455h-254l275 1297l-807 -1295h-50l-318 1359l-289 -1361h-50l309 1455h284l264 -1127z" />
    <glyph glyph-name="N" unicode="N" horiz-adv-x="1330" 
d="M1470 1455h50l-310 -1455h-49l-712 1317l-280 -1317h-49l309 1455h284l543 -1008z" />
    <glyph glyph-name="O" unicode="O" horiz-adv-x="1680" 
d="M1154 1476q207 0 355.5 -101t213.5 -271.5t21 -377.5t-181.5 -377.5t-329 -271.5t-398.5 -101t-356 101t-214 271.5t-21 377.5t181.5 377.5t329 271.5t399.5 101zM844 20q136 0 268.5 95t233 255.5t141.5 355.5q42 195 9.5 355t-124.5 255.5t-228 95.5t-268 -95.5
t-233 -255.5t-142 -355t-8.5 -355.5t124 -255.5t227.5 -95z" />
    <glyph glyph-name="P" unicode="P" horiz-adv-x="1245" 
d="M1313 1334q99 -122 62 -295q-36 -171 -187 -292q-63 -52 -141 -85.5t-187 -36.5h-353l-132 -625h-255l309 1455h608q177 0 276 -121zM952 778q125 107 158 263q33 154 -46 262q-39 53 -92.5 79t-129.5 26h-168l-157 -738h168q142 0 267 108z" />
    <glyph glyph-name="Q" unicode="Q" horiz-adv-x="1680" 
d="M1744 726q-42 -199 -170.5 -364t-308 -267.5t-380.5 -117.5q-61 -38 -151.5 -92.5t-184.5 -105.5q73 -18 159 -75q64 -44 138.5 -82t150.5 -55q-110 -45 -230 -8t-233 141q-30 27 -59 41q-132 -67 -179 -56q-29 13 -9 43.5t79 51.5t149 7q75 49 146 101.5t119 89.5
q-193 16 -327.5 118.5t-192.5 267t-16 362.5q44 207 181.5 377.5t329 271.5t399.5 101q207 0 355.5 -101t213.5 -271.5t21 -377.5zM302 -312v0q46 -5 154 62q-62 21 -108 7.5t-61.5 -37t15.5 -32.5zM501 726q-41 -195 -8.5 -355.5t124 -255.5t227.5 -95t268.5 95t233 255.5
t141.5 355.5q42 195 9.5 355t-124.5 255.5t-228 95.5t-268 -95.5t-232.5 -255.5t-142.5 -355zM1268 -336v0q-53 -74 -123 -94.5t-148 -2.5q86 35 157 129q28 37 39 66t10 50.5t-9 36t-18 23t-18 12l-8 3.5l22.5 -7.5t51.5 -24t51 -43t24 -63t-31 -85.5z" />
    <glyph glyph-name="R" unicode="R" horiz-adv-x="1286" 
d="M1016 738l210 -738h-303l-194 703l-201 1l-103 -483q-20 -93 -48 -221h-257l14.5 65t33.5 156q235 1105 262 1235h557q181 0 288 -110q106 -110 73 -266q-30 -139 -156 -243q-42 -34 -82 -56t-67 -32.5zM926 843q127 95 157 236q30 143 -56 237q-86 95 -255 95h-94
l-141 -663h94q169 0 295 95z" />
    <glyph glyph-name="S" unicode="S" horiz-adv-x="1222" 
d="M1217 654q35 -90 0 -227q-50 -190 -220 -323q-89 -68 -191.5 -96.5t-222.5 -28.5q-148 1 -233 33.5t-124.5 79t-51.5 90.5q-26 91 -2 175.5t81 130.5t127 22q60 -27 66 -84t-24 -106t-78 -53q-15 -2 -24.5 -35t6.5 -76.5t77.5 -78t187.5 -40.5q147 -5 254 61
q68 42 105 108q34 56 45 133q6 61 -20 113q-25 43 -92 87q-66 42 -164 82q-97 41 -143 68q-271 154 -223 390q36 168 177 279q161 118 375 118q276 0 348 -172q31 -87 8.5 -170t-79 -129t-126.5 -22q-60 27 -66 84t24 106.5t78 53.5q42 4 50 49t-45 95l-1.5 1l-3 2t-4.5 4
q-26 19 -66 34q-52 17 -117 14q-119 -2 -207 -66q-54 -36 -82 -98q-31 -59 -30 -123q-1 -54 33 -96q42 -54 227 -127q180 -72 243 -114q93 -63 128 -148z" />
    <glyph glyph-name="T" unicode="T" horiz-adv-x="1214" 
d="M1434 1455l-10 -44h-390l-300 -1411h-254l300 1411h-390l9 44h1035z" />
    <glyph glyph-name="U" unicode="U" horiz-adv-x="1376" 
d="M1565 1455l-214 -1006q-48 -225 -230 -349q-180 -123 -440 -123q-268 0 -395 123q-119 118 -70 349l214 1006h258l-214 -1006q-38 -187 51 -282q89 -96 286 -96q198 0 323 93q128 92 169 285l214 1006h48z" />
    <glyph glyph-name="V" unicode="V" horiz-adv-x="1322" 
d="M1521 1455h50l-864 -1455h-49l-43 216.5t-98.5 496.5t-98.5 498q-22 111 -48 244h258q7 -31 45.5 -232.5t87 -457t85.5 -447.5q149 252 338 570q133 224 229.5 386t107.5 181z" />
    <glyph glyph-name="W" unicode="W" horiz-adv-x="2000" 
d="M2200 1455h50l-865 -1455h-49l-23.5 118.5t-59 299.5t-74.5 377l-473 -795h-49l-43 216.5t-98.5 496.5t-98.5 498q-22 111 -48 244h259q6 -31 44.5 -232.5t87.5 -457t85 -447.5q141 238 321 541q-11 58 -22 114q-26 131 -48 238q-21 111 -48 244h259q7 -36 52 -271
q69 116 112.5 189t48.5 82h50l-199 -335q38 -196 80 -416t73 -386q150 253 340 573q133 223 228.5 384t107.5 180z" />
    <glyph glyph-name="X" unicode="X" horiz-adv-x="1374" 
d="M948 870l366 -870h-301l-272 648l-623 -648h-58l661 691l-320 764h305l223 -540l499 540h56z" />
    <glyph glyph-name="Y" unicode="Y" horiz-adv-x="1338" 
d="M1588 1455l-617 -702l-160 -753h-259l140 659l-323 796h294l277 -651l589 651h59z" />
    <glyph glyph-name="Z" unicode="Z" horiz-adv-x="1355" 
d="M1534 1410l-1108 -1365h818l-9 -45h-1115l10 45l1108 1365h-752l9 45h1049z" />
    <glyph glyph-name="bracketleft" unicode="[" horiz-adv-x="549" 
d="M289 -263h144l-10 -50h-369l375 1768h368l-10 -50h-142z" />
    <glyph glyph-name="backslash" unicode="\" horiz-adv-x="814" 
d="M465 1418l186 -1621l-47 -14l-186 1621z" />
    <glyph glyph-name="bracketright" unicode="]" horiz-adv-x="549" 
d="M370 1455h368l-376 -1768h-369l11 50h144l353 1668h-142z" />
    <glyph glyph-name="asciicircum" unicode="^" horiz-adv-x="1012" 
d="M814 1452l259 -600h-78l-183 427l-367 -429l-144 2z" />
    <glyph glyph-name="underscore" unicode="_" horiz-adv-x="1264" 
d="M99 -99h1024l-10 -43h-1023z" />
    <glyph glyph-name="grave" unicode="`" horiz-adv-x="650" 
d="M645 1455l130 -304l-67 -38l-278 342h215z" />
    <glyph glyph-name="a" unicode="a" horiz-adv-x="1106" 
d="M986 0h-256l29 133q-53 -63 -148 -111q-92 -46 -208 -45q-127 5 -199 80q-35 38 -53 90t-5 117q23 104 104 175t206 111q416 136 450 307q25 130 -174 130q-70 -3 -116 -23t-59.5 -41.5t12.5 -28.5q42 -13 39.5 -62t-43 -101t-111.5 -73q-51 -12 -75 10t-23 65t27 94.5
t75 99t120.5 78.5t164.5 31q158 0 242.5 -39t123.5 -109q46 -84 18 -228zM812 416l55 259q-70 -63 -266 -152q-82 -35 -131 -101q-49 -65 -65 -148q-4 -21 -3.5 -55t12 -69t39 -59t77.5 -24q67 0 116.5 39.5t83.5 97t54 116t28 96.5z" />
    <glyph glyph-name="b" unicode="b" horiz-adv-x="1216" 
d="M1182 893q48 -66 63 -164.5t-12 -222.5q-25 -121 -84 -215t-143 -167q-81 -74 -168 -111.5t-191 -37.5q-88 0 -140.5 25.5t-77.5 58t-29 55.5l-24 -114h-256l309 1455h256l-115 -544q64 61 149 90t166 29q201 0 297 -137zM827 171q109 133 151 337q43 202 -1 323
q-47 123 -175 122q-64 0 -135 -36q-68 -35 -113 -79l-114 -536q-22 -112 29 -186q54 -68 129 -74q120 -6 229 129z" />
    <glyph glyph-name="c" unicode="c" horiz-adv-x="1145" 
d="M1109 408v0h32q-68 -156 -165 -251t-203 -137.5t-195 -42.5q-212 0 -318 148q-111 148 -66 366q53 234 219 386q87 80 200 122.5t222 33.5q129 -16 190.5 -71.5t67.5 -123t-32 -118.5t-107 -57q-71 0 -83 54.5t15 110t74 61.5q17 2 10.5 26t-41 47.5t-101.5 22.5
q-75 -6 -137.5 -55t-105.5 -110t-62 -100q-52 -110 -75 -227q-20 -94 -7 -188t70 -156.5t169 -63.5q122 4 206.5 59.5t138.5 129t84 134.5z" />
    <glyph glyph-name="d" unicode="d" horiz-adv-x="1216" 
d="M1149 1455h256l-309 -1455h-256l24 114q-13 -23 -51.5 -55.5t-102 -58t-151.5 -25.5q-105 0 -176 37.5t-121 111.5q-52 73 -71 167t6 215q27 124 84 222.5t133 164.5q154 137 355 137q81 0 153.5 -29t111.5 -90zM904 302l114 536q-26 44 -79 79q-56 36 -120 36
q-127 1 -226 -122q-96 -121 -139 -323q-44 -204 7 -337q53 -135 175 -129q77 6 161 74q81 74 107 186z" />
    <glyph glyph-name="e" unicode="e" horiz-adv-x="1157" 
d="M929 176q106 88 179 232h32q-83 -201 -240 -315q-155 -113 -336 -113q-200 0 -309 150q-106 148 -60 368q49 228 219 381q174 157 394 157q219 0 315 -133q97 -133 60 -355h-723q-15 -50 -23.5 -127.5t7 -155t73.5 -129.5t178 -51q128 3 234 91zM617 880
q-97 -111 -145 -283h464q41 199 -0.5 296.5t-142.5 97.5q-79 0 -176 -111z" />
    <glyph glyph-name="f" unicode="f" horiz-adv-x="894" 
d="M946 1479q137 -5 187 -74t29.5 -142t-92.5 -91q-83 -11 -115 32.5t-21.5 98.5t56.5 80q18 8 18.5 21t-28 20t-96.5 -2q-121 -26 -154 -181l-50 -233h299l-11 -54h-299l-203 -954h-256l203 954h-150l11 54h150l26 121q12 65 65 145.5t158.5 141t272.5 63.5z" />
    <glyph glyph-name="g" unicode="g" horiz-adv-x="1232" 
d="M309 238q5 -50 79.5 -57.5t185.5 -0.5q122 8 246 -1t208.5 -71.5t87.5 -214.5q-2 -102 -74.5 -193t-207.5 -149t-323 -58q-165 0 -271 35t-156 91t-47 121t57.5 127t158.5 108q-86 9 -117.5 63t-10 126t95.5 134.5t199 88.5q-65 47 -96 121q-32 74 -14 160
q33 156 184 260q148 105 351 105q40 1 111 -13q115 178 208.5 243.5t154.5 55t79.5 -62t-17.5 -106.5q-47 -64 -104.5 -81.5t-94.5 1.5t-24 64q17 53 4 51.5t-42.5 -34.5t-60 -74.5t-47.5 -68.5q128 -36 176 -116q55 -84 27 -214q-32 -150 -191 -262q-152 -100 -344 -101
q-142 0 -236 54l-21.5 -10t-48 -28t-46.5 -41.5t-19 -51.5zM830 993q-82 0 -159.5 -93.5t-105.5 -225.5t10 -225t119 -93q82 0 159.5 93t105.5 225t-10 225.5t-119 93.5zM515 -462q124 0 210.5 32t140 81.5t77.5 105.5t21 105.5t-30 81t-73 31.5h-471q-42 -2 -82 -34
t-67.5 -81.5t-33 -104.5t21.5 -104.5t95.5 -81t190.5 -31.5z" />
    <glyph glyph-name="h" unicode="h" horiz-adv-x="1145" 
d="M1126 948q34 -44 47.5 -110.5t-2.5 -150.5l-146 -687h-257l153 722q20 88 -21 157q-44 67 -129 67q-81 0 -153 -67q-68 -67 -89 -157l-153 -722h-256l309 1455h256l-119 -562q146 135 326 137q156 5 234 -82z" />
    <glyph glyph-name="i" unicode="i" horiz-adv-x="525" 
d="M135 0v0l214 1008h256l-214 -1008h-256zM512 1172q-59 0 -92 42t-20 101q12 59 63 100.5t110 41.5t91.5 -41.5t20.5 -100.5q-13 -59 -63.5 -101t-109.5 -42z" />
    <glyph glyph-name="j" unicode="j" horiz-adv-x="525" 
d="M511 1172q-59 0 -91.5 41.5t-20.5 100.5q13 59 63.5 101t109.5 42t92 -42t20 -101q-12 -59 -63 -100.5t-110 -41.5zM80 -255l269 1263h256l-239 -1122q-27 -130 -86 -211t-135.5 -123t-158.5 -55t-158 -6.5t-133 22.5q-92 27 -127 89t-16 127.5t87 106.5q69 35 116 10
t56.5 -75t-34.5 -91q-24 -20 -32.5 -54t18 -61t105.5 -28q72 1 129.5 54t82.5 154z" />
    <glyph glyph-name="k" unicode="k" horiz-adv-x="1172" 
d="M833 701l279 -701h-300l-207 517l-144 -115l-85 -402h-256l309 1455h256l-210 -988l433 353q26 21 64 52l76 62t90 74h57l-61.5 -53.5t-151.5 -130.5z" />
    <glyph glyph-name="l" unicode="l" horiz-adv-x="496" 
d="M429 1455h256l-309 -1455h-256z" />
    <glyph glyph-name="m" unicode="m" horiz-adv-x="1701" 
d="M1727 689l-146 -689h-256l153 722q10 47 9 86t-19 70q-40 67 -115 67q-70 0 -140 -67q-32 -31 -49.5 -70t-26.5 -86l-154 -722l-256 -1l153 722q26 94 -11 159q-39 65 -113 65q-68 0 -138 -67q-71 -69 -88 -156l-154 -722h-256l214 1008h256l-24 -113q134 135 310 135
q150 0 216 -87q29 -38 38 -86q144 174 342 173q150 0 217 -87q33 -40 46 -96.5t-8 -157.5z" />
    <glyph glyph-name="n" unicode="n" 
d="M1117 944q37 -43 55.5 -101t-2.5 -154l-146 -689h-256l153 722q21 91 -20 157q-40 67 -131 66q-81 0 -153 -67q-69 -66 -88 -156l-153 -722h-256l214 1008h256l-24 -113q145 135 325 135q154 4 226 -86z" />
    <glyph glyph-name="o" unicode="o" horiz-adv-x="1182" 
d="M1142 890q103 -142 59 -376q-47 -225 -232 -381q-183 -156 -391 -156q-207 0 -319 150q-110 149 -64 368q48 225 224 381q178 158 403 157q220 -1 320 -143zM601 27q69 0 139 64.5t127 173t85 241.5q28 132 17.5 240.5t-53.5 173t-112 64.5q-68 0 -138.5 -64.5t-127 -173
t-84.5 -240.5q-28 -133 -17.5 -241.5t53 -173t111.5 -64.5z" />
    <glyph glyph-name="p" unicode="p" horiz-adv-x="1216" 
d="M1168 884q53 -73 72.5 -162.5t-5.5 -210.5q-27 -124 -84.5 -226.5t-133.5 -169.5q-155 -137 -356 -137q-81 0 -153.5 29.5t-110.5 89.5l-123 -578h-256l316 1489h256l-24 -114q13 24 52 56t102.5 57.5t151.5 25.5q104 0 175 -37.5t121 -111.5zM838 177v0q96 121 138 323
q45 204 -7 337q-52 135 -175 129q-77 -6 -160 -74q-82 -74 -108 -186l-114 -536q26 -44 80 -79q55 -36 119 -36q128 -1 227 122z" />
    <glyph glyph-name="q" unicode="q" horiz-adv-x="1216" 
d="M1310 1008l-316 -1489h-256l123 578q-65 -60 -149.5 -89.5t-166.5 -29.5q-201 0 -296 137q-49 67 -63 169.5t13 226.5q25 121 83 210.5t142 162.5q81 74 168 111.5t192 37.5q88 0 140.5 -25.5t77.5 -57.5t28 -56l24 114h256zM876 170l114 536q22 112 -28 186
q-55 68 -130 74q-119 6 -229 -129q-108 -133 -151 -337q-43 -202 2 -323q47 -123 175 -122q64 0 134 36q69 35 113 79z" />
    <glyph glyph-name="r" unicode="r" horiz-adv-x="971" 
d="M852 1030q145 -3 195.5 -75t21 -152t-124.5 -108q-58 -11 -85 26.5t-19.5 88.5t52.5 79q28 18 14.5 42.5t-57 36t-104 -8.5t-125.5 -90q-41 -46 -66.5 -100.5t-38.5 -116.5l-139 -652h-256l215 1008h256l-26 -121q119 143 287 143v0v0z" />
    <glyph glyph-name="s" unicode="s" horiz-adv-x="905" 
d="M782 581v0q137 -95 89 -276q-41 -140 -125.5 -211t-181 -93.5t-172.5 -17.5q-157 13 -214.5 84t-41 151t81.5 119q82 40 118.5 -2t31 -106.5t-52.5 -91.5q-22 -12 -17.5 -35t38 -42t97.5 -19q135 5 200.5 55t79.5 109t-7 91q-21 34 -77 61q-75 36 -139 57q-80 32 -117 49
q-162 90 -118 280q31 125 130 208q106 81 257 83q171 2 240 -57.5t56.5 -134.5t-84.5 -119q-69 -35 -109 5.5t-38.5 99t55.5 78.5q36 13 2.5 42.5t-131.5 33.5q-76 1 -138 -44q-50 -34 -68 -92q-15 -54 16 -96q27 -33 162 -89q127 -46 177 -80z" />
    <glyph glyph-name="t" unicode="t" horiz-adv-x="777" 
d="M727 120l4 -55q-40 -20 -120 -47q-441 -140 -364 222l153 720h-136l10 48q156 0 281.5 85.5t182.5 250.5l-72 -336h201l-10 -48h-201l-148 -698q-12 -56 -13 -95.5t14 -63.5q31 -44 115 -21q28 8 103 38z" />
    <glyph glyph-name="u" unicode="u" 
d="M983 1008h256l-215 -1008h-256l24 113q-144 -135 -324 -135q-154 -4 -227 86q-36 43 -54.5 101t1.5 154l147 689h256l-154 -722q-20 -91 21 -157q40 -67 131 -66q81 0 152 67q69 66 88 156z" />
    <glyph glyph-name="v" unicode="v" horiz-adv-x="1096" 
d="M1200 1008h51l-696 -1008h-47l-234 1008h284l141 -713z" />
    <glyph glyph-name="w" unicode="w" horiz-adv-x="1695" 
d="M1799 1008h51l-696 -1008h-47l-139 599l-413 -599h-47l-234 1008h283l142 -713l255 363l-81 350h284l141 -713z" />
    <glyph glyph-name="x" unicode="x" horiz-adv-x="990" 
d="M717 603l213 -603h-244l-166 443l-410 -443h-50l447 486l-190 522h244l142 -363l355 363h43z" />
    <glyph glyph-name="y" unicode="y" horiz-adv-x="1046" 
d="M1150 1008h50l-782 -1221q-106 -162 -200.5 -220.5t-164 -47.5t-101.5 58.5t-13 97.5q35 80 81.5 102.5t87 7t59 -49.5t-1.5 -66q-21 -33 -0.5 -46t75 24.5t137.5 156.5l127 196l-204 1008h260l139 -698z" />
    <glyph glyph-name="z" unicode="z" horiz-adv-x="1019" 
d="M1113 1008l-10 -48l-683 -912h489l-10 -48h-779l10 48l683 912h-489l10 48h779z" />
    <glyph glyph-name="braceleft" unicode="{" horiz-adv-x="801" 
d="M926 1366v0q-53 -38 -66 -96l-73 -367q-36 -182 -188 -261q-79 -39 -224 -71q132 -32 194 -71q118 -79 77 -262l-83 -367q-12 -58 25 -95q37 -38 94 -53l-8 -40q-368 -1 -305 289l75 343q28 110 -62 180q-56 45 -145 56l9 40q93 10 169 55q119 70 138 181l71 341
q59 291 427 291l-8 -40q-66 -16 -117 -53z" />
    <glyph glyph-name="bar" unicode="|" horiz-adv-x="285" 
d="M429 1455h46l-355 -1667h-45z" />
    <glyph glyph-name="braceright" unicode="}" horiz-adv-x="801" 
d="M661 646v0q56 -45 145 -55l-8 -40q-94 -11 -169 -56q-119 -70 -138 -180l-71 -343q-60 -290 -428 -289l9 40q64 15 117 53q53 37 65 95l73 367q37 183 189 262q78 39 224 71q-132 32 -194 71q-118 79 -77 261l83 367q12 58 -25 96q-36 37 -95 53l9 40q368 0 304 -291
l-75 -341q-28 -111 62 -181z" />
    <glyph glyph-name="asciitilde" unicode="~" horiz-adv-x="1276" 
d="M1405 1450v0l57 -8q-86 -323 -464 -212l-362 106q-38 13 -75 15t-67.5 -24t-50.5 -97l-60 6q70 313 439 215l390 -103q58 -15 115 6.5t78 95.5z" />
    <glyph glyph-name="exclamdown" unicode="&#xa1;" horiz-adv-x="573" 
d="M-133 -440q-29 47 -18 104q3 13 8 27l331 924h44l-64 -924q-1 -13 -3 -26q-12 -59 -62 -106q-60 -56 -129 -56q-71 0 -107 57zM230 723v0q-59 0 -92 41.5t-21 101.5q13 59 63.5 100.5t109.5 41.5t92 -41.5t20 -100.5q-12 -60 -62.5 -101.5t-109.5 -41.5z" />
    <glyph glyph-name="cent" unicode="&#xa2;" horiz-adv-x="1085" 
d="M1159 630v0q-67 -153 -161.5 -247t-197 -138t-192.5 -46l-43 -199h-45l42 200q-187 11 -285 147q-110 148 -65 366q51 234 215 386q149 142 360 156l42 200h46l-43 -199h3h5q166 -8 231 -71t59 -140t-53 -127.5t-106 -32.5q-61 26 -74 78.5t10.5 98t70.5 48.5
q17 3 10.5 27t-41 47.5t-101.5 22.5q-12 -1 -25 -3l-189 -891q30 -6 66 -6q122 4 206.5 59.5t138 129t84.5 134.5h32zM465 715v0q-24 -116 2 -227t123 -160l183 862q-87 -41 -148 -119t-84 -129q-52 -110 -76 -227z" />
    <glyph glyph-name="sterling" unicode="&#xa3;" horiz-adv-x="1231" 
d="M880 256v0h285l-55 -256h-990l9 44q99 47 174.5 141t126 201.5t74.5 195.5t21 124h-196l9 44l188 1q0 24 1 51q1 77 1 186q4 153 97.5 267.5t224.5 175t247 49.5q152 -21 209 -108t36.5 -178.5t-99.5 -124.5q-73 -25 -106.5 1.5t-35.5 74t19 89t58 46.5q18 4 20 39.5
t-22.5 72t-85.5 45.5q-108 7 -178 -55t-105 -148q-41 -97 -37 -194q2 -51 5 -98q9 -96 5 -190l240 -1l-10 -45l-239 1q-53 -175 -173.5 -336.5t-239.5 -252.5q73 50 178 80t201 44t143 14z" />
    <glyph glyph-name="currency" unicode="&#xa4;" horiz-adv-x="1156" 
d="M1126 597v0q-49 -80 -108 -135l89 -113l-58 -48l-90 113q-74 -53 -151 -80q-98 -36 -192 -31q-84 5 -153 39q-55 27 -96 69l-133 -110l-38 48l133 110q-33 52 -46 111q-18 75 -3 161q15 96 69 186q44 71 109 133l-89 114l58 48l89 -113q72 52 151 80q98 35 193 30
q85 -3 153 -37q53 -26 96 -70l133 110l38 -48l-133 -110q31 -50 45 -111q18 -76 5 -161q-15 -95 -71 -185zM656 369q107 0 206.5 52.5t170.5 140.5t93 195q23 107 -10.5 195t-110.5 140.5t-184 52.5t-206 -52.5t-170 -140.5t-94 -195q-22 -107 11.5 -195t110 -140.5
t183.5 -52.5z" />
    <glyph glyph-name="yen" unicode="&#xa5;" horiz-adv-x="1338" 
d="M1588 1455l-509 -579h269l-10 -46h-299l-68 -77l-27 -126h351l-10 -46h-351l-123 -581h-259l123 581h-353l10 46h353l7 32l-69 171h-248l10 46h219l-235 579h294l277 -651l589 651h59z" />
    <glyph glyph-name="brokenbar" unicode="&#xa6;" horiz-adv-x="286" 
d="M430 1455h45l-146 -686h-45zM75 -212v0l146 686h46l-146 -686h-46z" />
    <glyph glyph-name="section" unicode="&#xa7;" horiz-adv-x="1082" 
d="M1039 401q-57 -96 -163 -145q43 -60 45 -123q4 -92 -44 -178q-49 -87 -121 -139q-135 -103 -280 -103q-119 0 -187 36.5t-95.5 90t-24 109t29.5 96.5t65 52q82 16 115 -30.5t22 -104.5t-58 -76q-24 -9 -18.5 -40t44 -58t114.5 -22q108 9 182 83q52 55 68 130
q23 109 -54 183q-257 248 -334 324q-62 62 -79 107q-30 97 28 194q57 96 163 144q-43 61 -46 121q-4 92 45 179q50 88 121 140q134 102 280 102q103 0 166 -36t93 -89.5t32 -108.5t-19.5 -96t-59.5 -52q-83 -16 -115.5 29t-22 102.5t57.5 79.5q25 11 24 40.5t-38.5 55.5
t-123.5 24q-107 -6 -182 -84q-52 -54 -69 -130q-23 -109 54 -183q256 -248 334 -324q62 -60 79 -108q30 -97 -28 -192zM860 277q90 166 -20 272l-344 334q-8 8 -22 26q-90 -166 19 -272l344 -332q3 -3 23 -28z" />
    <glyph glyph-name="dieresis" unicode="&#xa8;" horiz-adv-x="975" 
d="M567 1433q59 0 92 -41.5t20 -100.5q-12 -60 -63 -101.5t-110 -41.5t-91.5 41.5t-20.5 101.5q13 59 63.5 100.5t109.5 41.5zM1017 1433q59 0 92 -41.5t20 -100.5q-13 -60 -63.5 -101.5t-109.5 -41.5t-92 41.5t-20 101.5q13 59 63.5 100.5t109.5 41.5z" />
    <glyph glyph-name="copyright" unicode="&#xa9;" horiz-adv-x="1425" 
d="M867 392q98 3 165.5 47t110.5 103t67 108h25q-54 -125 -131.5 -201t-162 -109.5t-155.5 -33.5q-169 0 -254 118q-89 118 -52 292q40 187 171 308q134 128 330 125q133 -6 184.5 -56.5t47 -112t-42.5 -101.5t-84 -26q-49 21 -59.5 63t8 78t56.5 39q13 2 8 21.5t-32.5 38
t-80.5 17.5q-61 -4 -110.5 -43.5t-84 -88t-49.5 -79.5q-42 -88 -60 -182q-16 -75 -5.5 -149.5t56 -124.5t134.5 -51zM999 1350q172 0 295.5 -84t177.5 -225.5t17 -312.5q-36 -172 -150 -313.5t-273 -225.5t-331 -84t-295.5 84t-177.5 225.5t-17 313.5q36 171 150 312.5
t273 225.5t331 84zM745 153q159 0 305.5 77.5t252 208t138.5 289.5q34 158 -15.5 288.5t-163.5 208t-273 77.5t-305.5 -77.5t-252 -208t-138.5 -288.5q-34 -159 16 -289.5t163.5 -208t272.5 -77.5z" />
    <glyph glyph-name="ordfeminine" unicode="&#xaa;" horiz-adv-x="858" 
d="M900 760h-177l20 92q-36 -44 -102 -77q-63 -31 -143 -31q-88 4 -137 55q-25 27 -37.5 63t-2.5 80q15 72 71 121t142 76q287 94 310 212q18 90 -120 90q-48 -2 -79.5 -16t-41 -28.5t8.5 -20.5q29 -8 27 -42t-29.5 -70t-76.5 -50q-42 -10 -58 13t-6.5 63t42.5 82t88.5 72
t132.5 30q109 0 167.5 -26.5t84.5 -75.5q32 -58 12 -157zM779 1047l38 178q-48 -43 -183 -104q-57 -24 -90 -70q-34 -45 -45 -102q-5 -20 -1.5 -53.5t22.5 -61.5t65 -28t80 27.5t57.5 67t37.5 80t19 66.5z" />
    <glyph glyph-name="guillemotleft" unicode="&#xab;" horiz-adv-x="909" 
d="M265 729l406 303h14l-8 -37l-261 -266l148 -266l-7 -37h-14zM578 729l406 303h14l-8 -37l-261 -266l148 -266l-7 -37h-14z" />
    <glyph glyph-name="logicalnot" unicode="&#xac;" horiz-adv-x="1258" 
d="M1298 752l-85 -399h-225l75 354h-793l10 45h1018z" />
    <glyph glyph-name="registered" unicode="&#xae;" horiz-adv-x="990" 
d="M872 1137q-12 -10 -23.5 -16t-27.5 -13l61 -213h-88l-56 203l-58 1l-44 -204h-74l90 421h161q52 0 83 -32q30 -32 21 -77q-9 -40 -45 -70zM795 1139q37 27 45 68q9 41 -16 69q-25 27 -73 27h-28l-40 -192h27q49 0 85 28zM810 1484q104 0 178.5 -50.5t107 -135.5
t10.5 -189q-22 -103 -91 -188.5t-165 -136t-199 -50.5t-177.5 50.5t-107 136t-10.5 188.5q22 104 90.5 189t164.5 135.5t199 50.5zM661 780q136 0 253 96.5t146 232.5t-47 232.5t-212 96.5t-253.5 -96.5t-146.5 -232.5t47.5 -232.5t212.5 -96.5z" />
    <glyph glyph-name="macron" unicode="&#xaf;" horiz-adv-x="800" 
d="M403 1336h561l-19 -91h-561z" />
    <glyph glyph-name="degree" unicode="&#xb0;" horiz-adv-x="709" 
d="M654 1406q-72 0 -135 -51.5t-79 -124.5q-15 -74 25.5 -124.5t114.5 -50.5q73 0 134.5 50.5t76.5 124.5q16 73 -24 124.5t-113 51.5zM667 1465q97 0 150.5 -68.5t33.5 -165.5q-21 -97 -105 -166t-181 -69q-98 0 -151 68.5t-32 166.5q20 97 103.5 165.5t181.5 68.5z" />
    <glyph glyph-name="plusminus" unicode="&#xb1;" horiz-adv-x="1217" 
d="M791 752h465l-9 -45h-466l-99 -466h-46l99 466h-465l9 45h466l99 466h46zM280 104h977l-9 -43h-977z" />
    <glyph glyph-name="uni00B2" unicode="&#xb2;" horiz-adv-x="723" 
d="M679 1000v0q-93 -74 -153 -107h252l-30 -143h-468l4 19l107 80q157 119 237 215q76 93 107 228q7 28 3.5 61t-20.5 57q-23 29 -67 28q-38 -1 -59.5 -16t-26.5 -29q-1 -4 -1 -6.5t1 -2.5q16 -6 19 -24t-8 -42q-14 -27 -40.5 -45t-60.5 -10q-37 13 -26 65q11 46 60 90
t134 62q27 6 87.5 -3.5t108.5 -52.5q55 -55 35 -149q-30 -139 -195 -275z" />
    <glyph glyph-name="uni00B3" unicode="&#xb3;" horiz-adv-x="718" 
d="M785 1059v0q29 -47 15 -112q-19 -90 -126 -158q-95 -55 -190 -55q-53 0 -102 18v0l-6 2q-47 23 -61 62t0 76q19 50 65 56q39 3 55 -16t14 -43q-1 -26 -14 -45t-33 -25q-5 -1 -5 -3q0 -10 24 -23t71 -11q68 4 115 68q38 55 46 98q15 71 -18 114q-23 28 -54.5 40t-58 14.5
t-31.5 2.5h-10l9 42h10q20 0 61 10.5t79 39.5q47 39 60 102q13 67 -13 101q-22 27 -67 27q-34 -1 -53.5 -11.5t-27.5 -19.5q-6 -7 -9 -12.5t-3 -7.5q16 -10 19 -30.5t-8 -44.5q-10 -22 -33 -38.5t-58 -14.5q-46 7 -35 65q10 48 66 97.5t152 59.5q133 5 193 -65
q35 -45 20 -102q-24 -74 -89.5 -115t-133.5 -58q46 -4 91.5 -23t73.5 -62z" />
    <glyph glyph-name="acute" unicode="&#xb4;" horiz-adv-x="650" 
d="M625 1455h215l-424 -342l-51 38z" />
    <glyph glyph-name="mu" unicode="&#xb5;" 
d="M982 1008h256l-214 -1008h-256l24 113q-111 -124 -220.5 -124.5t-177.5 95.5l-101 -472h-256l297 1396h256l-153 -722q-21 -91 20 -157q40 -67 131 -66q81 0 153 67q69 66 88 156z" />
    <glyph glyph-name="paragraph" unicode="&#xb6;" horiz-adv-x="1250" 
d="M1439 1455l-9 -40l-204 -2l-359 -1691h-340l188 887h-63q-183 0 -281 123q-100 121 -62 300q37 175 190 299t333 124h607zM773 -235l350 1648h-132l-350 -1648h132z" />
    <glyph glyph-name="periodcentered" unicode="&#xb7;" horiz-adv-x="483" 
d="M288 849q50 0 78 -35.5t17 -85.5q-10 -51 -53 -86.5t-94 -35.5q-50 0 -78 35.5t-17 86.5q11 50 54 85.5t93 35.5z" />
    <glyph glyph-name="periodcentered" unicode="&#x2219;" horiz-adv-x="483" 
d="M288 849q50 0 78 -35.5t17 -85.5q-10 -51 -53 -86.5t-94 -35.5q-50 0 -78 35.5t-17 86.5q11 50 54 85.5t93 35.5z" />
    <glyph glyph-name="cedilla" unicode="&#xb8;" horiz-adv-x="617" 
d="M230 -108q10 1 47 -3.5t79.5 -20t69 -47t15.5 -85.5q-17 -61 -75 -104.5t-128.5 -62t-126 -2t-67.5 76.5h52q25 -42 69.5 -41t86 36.5t55.5 95.5q9 46 -9.5 72.5t-48.5 39t-55.5 15.5t-31.5 2l77 136h51z" />
    <glyph glyph-name="uni00B9" unicode="&#xb9;" horiz-adv-x="453" 
d="M591 1466h53l-152 -715h-141l129 606l-57 -33l-14 36l9 5q12 7 38.5 22.5t56.5 33t52 30t26 15.5z" />
    <glyph glyph-name="ordmasculine" unicode="&#xba;" horiz-adv-x="970" 
d="M798 1474q101 0 173.5 -49t104 -132t10.5 -184q-22 -101 -88.5 -183.5t-160 -132t-194.5 -49.5t-173 49.5t-104 132t-10 183.5q21 101 88 184t160 132t194 49zM649 774q88 0 170.5 98t111.5 237q30 139 -11 237.5t-128 98.5t-169.5 -98.5t-112.5 -237.5t11 -237t128 -98z
" />
    <glyph glyph-name="guillemotright" unicode="&#xbb;" horiz-adv-x="909" 
d="M215 426h-14l7 37l262 266l-149 266l8 37h14l278 -303zM528 426h-14l7 37l262 266l-149 266l8 37h14l278 -303z" />
    <glyph glyph-name="onequarter" unicode="&#xbc;" horiz-adv-x="1416" 
d="M1289 205h50l-4 -22h-51l-38 -181h-123l39 181h-249l1 5l458 513h22zM1167 205l66 312l-278 -312h212zM1497 1421l33 -25l-1418 -1615l-33 25zM484 1179l-65 -38l-7 19q12 7 39 22.5t57.5 33.5t74.5 44h41l-149 -701h-123z" />
    <glyph glyph-name="onehalf" unicode="&#xbd;" horiz-adv-x="1434" 
d="M486 1179l-65 -38l-7 18q12 7 39 22.5t57.5 33.5t74.5 44h41l-149 -700h-123zM1424 515q-17 -80 -71.5 -148.5t-118.5 -120.5t-116 -83.5t-69 -39.5h277l-26 -123h-448l1 4l103 77q158 120 239 218q80 98 110 232q12 46 -4.5 99.5t-87.5 57.5q-42 -2 -66 -18.5t-30.5 -34
t4.5 -21.5q19 -8 12 -36t-32 -50.5t-62 -14.5q-29 10 -21.5 50.5t53.5 84t132 61.5q19 4 60 0.5t83.5 -22.5t67.5 -60t10 -112zM1497 1421l33 -25l-1418 -1615l-33 25z" />
    <glyph glyph-name="threequarters" unicode="&#xbe;" horiz-adv-x="1459" 
d="M327 564q-45 24 -55 63t6 72.5t48 38.5q40 2 51.5 -22t2 -51.5t-32.5 -35.5q-18 -6 -13.5 -20.5t29.5 -26.5t68 -10q54 6 88.5 38.5t53 72t23.5 64.5q15 81 -16 120t-76.5 50t-66.5 11l4 21q19 0 62.5 11.5t84 46.5t56.5 103q13 62 -7 99t-75 38q-30 -1 -51 -10.5
t-32.5 -22t-15 -23t0.5 -13.5q18 -10 15.5 -37.5t-23.5 -50.5t-59 -21q-36 7 -26.5 53t60 92.5t138.5 55.5q102 4 155.5 -40.5t37.5 -114.5q-22 -69 -80.5 -107t-117.5 -53.5t-83 -16.5h14q44 0 108.5 -15t101.5 -72q26 -41 12 -105q-15 -70 -79.5 -123t-148.5 -71.5
t-162 12.5zM1332 205h51l-5 -22h-50l-39 -181h-122l38 181h-248l1 5l457 513h23zM1210 205l66 312l-278 -312h212zM1540 1421l33 -25l-1418 -1615l-32 25z" />
    <glyph glyph-name="questiondown" unicode="&#xbf;" horiz-adv-x="903" 
d="M454 723q-59 0 -92 41.5t-21 101.5q13 59 63.5 100.5t109.5 41.5t92 -41.5t20 -100.5q-12 -60 -62.5 -101.5t-109.5 -41.5zM106 -501q-86 1 -161 35.5t-116.5 99t-22.5 152.5q17 81 53.5 136t85.5 96.5t104 80.5q69 47 138 108.5t126.5 157.5t89.5 251h53
q-23 -105 -50.5 -209t-69.5 -191.5t-104 -148.5q-157 -154 -192.5 -267t8 -175.5t123.5 -64.5q73 2 126.5 35t74 68t-7.5 40q-33 6 -31.5 44.5t28.5 84.5t72.5 73t100.5 10q62 -26 55.5 -91.5t-69 -141t-169 -129t-245.5 -54.5z" />
    <glyph glyph-name="Agrave" unicode="&#xc0;" horiz-adv-x="1321" 
d="M973 1455l288 -1455h-258l-93 483h-515l-285 -483h-50l864 1455h49zM421 525h481q-13 64 -117 612q-339 -571 -364 -612zM885 1877v0l130 -304l-67 -38l-278 342h215z" />
    <glyph glyph-name="Aacute" unicode="&#xc1;" horiz-adv-x="1321" 
d="M973 1455l288 -1455h-258l-93 483h-515l-285 -483h-50l864 1455h49zM421 525h481q-13 64 -117 612q-339 -571 -364 -612zM1001 1877v0h215l-424 -342l-51 38z" />
    <glyph glyph-name="Acircumflex" unicode="&#xc2;" horiz-adv-x="1321" 
d="M973 1455l288 -1455h-258l-93 483h-515l-285 -483h-50l864 1455h49zM421 525h481q-13 64 -117 612q-339 -571 -364 -612zM957 1887v0l196 -342h-56l-181 203l-268 -203h-56l340 342h25z" />
    <glyph glyph-name="Atilde" unicode="&#xc3;" horiz-adv-x="1321" 
d="M973 1455l288 -1455h-258l-93 483h-515l-285 -483h-50l864 1455h49zM421 525h481q-13 64 -117 612q-339 -571 -364 -612zM1161 1741v0l30 -5q-23 -87 -86.5 -122.5t-164.5 -6.5l-28 9.5t-69 20.5t-84 17t-75 -0.5t-41 -31.5l-32 4q38 173 237 124l29.5 -9t73.5 -20
t89 -16t78.5 2t42.5 34z" />
    <glyph glyph-name="Adieresis" unicode="&#xc4;" horiz-adv-x="1321" 
d="M973 1455l288 -1455h-258l-93 483h-515l-285 -483h-50l864 1455h49zM421 525h481q-13 64 -117 612q-339 -571 -364 -612zM714 1856v0q59 0 92 -41.5t20 -100.5q-12 -60 -63 -101.5t-110 -41.5t-91.5 41.5t-20.5 101.5q13 59 63.5 100.5t109.5 41.5zM1164 1856v0
q59 0 92 -41.5t20 -100.5q-13 -60 -63.5 -101.5t-109.5 -41.5t-92 41.5t-20 101.5q13 59 63.5 100.5t109.5 41.5z" />
    <glyph glyph-name="Aring" unicode="&#xc5;" horiz-adv-x="1321" 
d="M973 1455l288 -1455h-258l-93 483h-515l-285 -483h-50l864 1455h49zM421 525h481q-13 64 -117 612q-339 -571 -364 -612zM1045 1815v0q38 -48 23 -116q-15 -69 -72 -117q-58 -47 -128 -47q-68 0 -105 47q-37 48 -22 117t72 116t125 47q70 0 107 -47zM879 1578v0
q50 0 93 35t53 86q11 50 -17 85t-78 35t-93 -35t-53 -85q-11 -51 17 -86t78 -35z" />
    <glyph glyph-name="AE" unicode="&#xc6;" horiz-adv-x="1690" 
d="M1077 760v0l-153 -720h685l-9 -40h-939l103 483h-368l-286 -483h-50l864 1455h14h33h2h51h886l-10 -44h-685l-129 -606h437l-9 -46zM421 525v0h352l188 886h-14q-195 -328 -366 -617q-67 -113 -110 -185.5t-50 -83.5z" />
    <glyph glyph-name="Ccedilla" unicode="&#xc7;" horiz-adv-x="1493" 
d="M794 -23q-181 9 -315 100q-148 101 -213.5 271.5t-21.5 377.5t182 377.5t329.5 271.5t398.5 101q52 0 99 -7q129 -19 214.5 -86.5t121.5 -163.5q31 -90 6 -174.5t-83 -131.5t-129 -23q-60 27 -66 84t24 106.5t78 53.5q38 3 45.5 47.5t-22 103t-102 102t-196.5 45.5
q-137 -3 -265.5 -97t-226.5 -253.5t-139 -353.5q-42 -195 -12 -356t118.5 -256.5t224.5 -95.5q66 0 141 20q129 34 250 124t200 230l44 -38q-74 -116 -171 -201t-216 -132q-114 -45 -248 -47l-46 -83q9 1 47 -3.5t80 -20t69 -47t15 -85.5q-17 -61 -75 -104.5t-128.5 -62
t-125.5 -2t-67 76.5h52q24 -42 68.5 -41t86 36.5t56.5 95.5q8 46 -10.5 72.5t-48.5 39t-55 15.5t-32 2z" />
    <glyph glyph-name="Egrave" unicode="&#xc8;" horiz-adv-x="1150" 
d="M536 760l-153 -720h685l-8 -40h-940l310 1455h939l-10 -44h-685l-128 -606h437l-10 -46zM836 1877v0l130 -304l-67 -38l-278 342h215z" />
    <glyph glyph-name="Eacute" unicode="&#xc9;" horiz-adv-x="1150" 
d="M536 760l-153 -720h685l-8 -40h-940l310 1455h939l-10 -44h-685l-128 -606h437l-10 -46zM952 1877v0h215l-424 -342l-51 38z" />
    <glyph glyph-name="Ecircumflex" unicode="&#xca;" horiz-adv-x="1150" 
d="M536 760l-153 -720h685l-8 -40h-940l310 1455h939l-10 -44h-685l-128 -606h437l-10 -46zM908 1887v0l196 -342h-56l-181 203l-268 -203h-56l340 342h25z" />
    <glyph glyph-name="Edieresis" unicode="&#xcb;" horiz-adv-x="1150" 
d="M536 760l-153 -720h685l-8 -40h-940l310 1455h939l-10 -44h-685l-128 -606h437l-10 -46zM665 1856v0q59 0 92 -41.5t20 -100.5q-12 -60 -63 -101.5t-110 -41.5t-91.5 41.5t-20.5 101.5q13 59 63.5 100.5t109.5 41.5zM1115 1856v0q59 0 92 -41.5t20 -100.5
q-13 -60 -63.5 -101.5t-109.5 -41.5t-92 41.5t-20 101.5q13 59 63.5 100.5t109.5 41.5z" />
    <glyph glyph-name="Igrave" unicode="&#xcc;" horiz-adv-x="496" 
d="M430 1455h256l-310 -1455h-256zM494 1877v0l130 -304l-67 -38l-278 342h215z" />
    <glyph glyph-name="Iacute" unicode="&#xcd;" horiz-adv-x="496" 
d="M430 1455h256l-310 -1455h-256zM610 1877v0h215l-424 -342l-51 38z" />
    <glyph glyph-name="Icircumflex" unicode="&#xce;" horiz-adv-x="496" 
d="M430 1455h256l-310 -1455h-256zM566 1887v0l196 -342h-56l-181 203l-268 -203h-56l340 342h25z" />
    <glyph glyph-name="Idieresis" unicode="&#xcf;" horiz-adv-x="496" 
d="M430 1455h256l-310 -1455h-256zM323 1856v0q59 0 92 -41.5t20 -100.5q-12 -60 -63 -101.5t-110 -41.5t-91.5 41.5t-20.5 101.5q13 59 63.5 100.5t109.5 41.5zM773 1856v0q59 0 92 -41.5t20 -100.5q-13 -60 -63.5 -101.5t-109.5 -41.5t-92 41.5t-20 101.5
q13 59 63.5 100.5t109.5 41.5z" />
    <glyph glyph-name="Eth" unicode="&#xd0;" horiz-adv-x="1529" 
d="M515 706l-140 -660h271q110 0 206 32t201 126q103 92 172 223q74 137 105 301q51 285 -79 483q-62 96 -176 148q-115 52 -239 52h-171l-141 -662h300l-9 -43h-300zM280 749l150 706h562q154 0 279 -57q127 -60 206 -158q76 -100 106 -229q33 -137 4 -283
q-57 -299 -298 -514q-240 -214 -524 -214h-645l151 706h-121l9 43h121z" />
    <glyph glyph-name="Ntilde" unicode="&#xd1;" horiz-adv-x="1330" 
d="M1470 1455h50l-310 -1455h-49l-712 1317l-280 -1317h-49l309 1455h284l543 -1008zM1187 1741v0l30 -5q-23 -87 -86.5 -122.5t-164.5 -6.5l-28 9.5t-69 20.5t-84 17t-75 -0.5t-41 -31.5l-32 4q38 173 237 124l29.5 -9t73.5 -20t89 -16t78.5 2t42.5 34z" />
    <glyph glyph-name="Ograve" unicode="&#xd2;" horiz-adv-x="1680" 
d="M1154 1476q207 0 355.5 -101t213.5 -271.5t21 -377.5t-181.5 -377.5t-329 -271.5t-398.5 -101t-356 101t-214 271.5t-21 377.5t181.5 377.5t329 271.5t399.5 101zM844 20q136 0 268.5 95t233 255.5t141.5 355.5q42 195 9.5 355t-124.5 255.5t-228 95.5t-268 -95.5
t-233 -255.5t-142 -355t-8.5 -355.5t124 -255.5t227.5 -95zM1086 1877v0l130 -304l-67 -38l-278 342h215z" />
    <glyph glyph-name="Oacute" unicode="&#xd3;" horiz-adv-x="1680" 
d="M1154 1476q207 0 355.5 -101t213.5 -271.5t21 -377.5t-181.5 -377.5t-329 -271.5t-398.5 -101t-356 101t-214 271.5t-21 377.5t181.5 377.5t329 271.5t399.5 101zM844 20q136 0 268.5 95t233 255.5t141.5 355.5q42 195 9.5 355t-124.5 255.5t-228 95.5t-268 -95.5
t-233 -255.5t-142 -355t-8.5 -355.5t124 -255.5t227.5 -95zM1202 1877v0h215l-424 -342l-51 38z" />
    <glyph glyph-name="Ocircumflex" unicode="&#xd4;" horiz-adv-x="1680" 
d="M1154 1476q207 0 355.5 -101t213.5 -271.5t21 -377.5t-181.5 -377.5t-329 -271.5t-398.5 -101t-356 101t-214 271.5t-21 377.5t181.5 377.5t329 271.5t399.5 101zM844 20q136 0 268.5 95t233 255.5t141.5 355.5q42 195 9.5 355t-124.5 255.5t-228 95.5t-268 -95.5
t-233 -255.5t-142 -355t-8.5 -355.5t124 -255.5t227.5 -95zM1158 1887v0l196 -342h-56l-181 203l-268 -203h-56l340 342h25z" />
    <glyph glyph-name="Otilde" unicode="&#xd5;" horiz-adv-x="1680" 
d="M1154 1476q207 0 355.5 -101t213.5 -271.5t21 -377.5t-181.5 -377.5t-329 -271.5t-398.5 -101t-356 101t-214 271.5t-21 377.5t181.5 377.5t329 271.5t399.5 101zM844 20q136 0 268.5 95t233 255.5t141.5 355.5q42 195 9.5 355t-124.5 255.5t-228 95.5t-268 -95.5
t-233 -255.5t-142 -355t-8.5 -355.5t124 -255.5t227.5 -95zM1362 1741v0l30 -5q-23 -87 -86.5 -122.5t-164.5 -6.5l-28 9.5t-69 20.5t-84 17t-75 -0.5t-41 -31.5l-32 4q38 173 237 124l29.5 -9t73.5 -20t89 -16t78.5 2t42.5 34z" />
    <glyph glyph-name="Odieresis" unicode="&#xd6;" horiz-adv-x="1680" 
d="M1154 1476q207 0 355.5 -101t213.5 -271.5t21 -377.5t-181.5 -377.5t-329 -271.5t-398.5 -101t-356 101t-214 271.5t-21 377.5t181.5 377.5t329 271.5t399.5 101zM844 20q136 0 268.5 95t233 255.5t141.5 355.5q42 195 9.5 355t-124.5 255.5t-228 95.5t-268 -95.5
t-233 -255.5t-142 -355t-8.5 -355.5t124 -255.5t227.5 -95zM915 1856v0q59 0 92 -41.5t20 -100.5q-12 -60 -63 -101.5t-110 -41.5t-91.5 41.5t-20.5 101.5q13 59 63.5 100.5t109.5 41.5zM1365 1856v0q59 0 92 -41.5t20 -100.5q-13 -60 -63.5 -101.5t-109.5 -41.5t-92 41.5
t-20 101.5q13 59 63.5 100.5t109.5 41.5z" />
    <glyph glyph-name="multiply" unicode="&#xd7;" horiz-adv-x="963" 
d="M1068 1059l-399 -330l259 -329l-39 -32l-259 329l-400 -329l-25 32l399 329l-259 330l39 32l259 -329l400 329z" />
    <glyph glyph-name="Oslash" unicode="&#xd8;" horiz-adv-x="1680" 
d="M1429 1262q-25 41 -57 75q-92 95 -228 95t-268 -95.5t-232.5 -255.5t-142.5 -355q-41 -195 -9 -355q16 -78 45 -140zM1450 1223l-892 -1031q25 -43 58 -77q92 -95 228 -95t268.5 95t233 255.5t141.5 355.5q42 195 9 355q-16 79 -46 142zM434 111q-114 94 -169 238
q-65 170 -21 377t181.5 377.5t329.5 271.5t399 101t356 -101l11 -8l98 113l32 -25l-98 -113q116 -94 171 -238q64 -171 20 -378t-181 -377.5t-329 -271.5t-399 -101t-356 101q-7 4 -13 9l-96 -111l-33 25z" />
    <glyph glyph-name="Ugrave" unicode="&#xd9;" horiz-adv-x="1376" 
d="M1565 1455l-214 -1006q-48 -225 -230 -349q-180 -123 -440 -123q-268 0 -395 123q-119 118 -70 349l214 1006h258l-214 -1006q-38 -187 51 -282q89 -96 286 -96q198 0 323 93q128 92 169 285l214 1006h48zM934 1877v0l130 -304l-67 -38l-278 342h215z" />
    <glyph glyph-name="Uacute" unicode="&#xda;" horiz-adv-x="1376" 
d="M1565 1455l-214 -1006q-48 -225 -230 -349q-180 -123 -440 -123q-268 0 -395 123q-119 118 -70 349l214 1006h258l-214 -1006q-38 -187 51 -282q89 -96 286 -96q198 0 323 93q128 92 169 285l214 1006h48zM1050 1877v0h215l-424 -342l-51 38z" />
    <glyph glyph-name="Ucircumflex" unicode="&#xdb;" horiz-adv-x="1376" 
d="M1565 1455l-214 -1006q-48 -225 -230 -349q-180 -123 -440 -123q-268 0 -395 123q-119 118 -70 349l214 1006h258l-214 -1006q-38 -187 51 -282q89 -96 286 -96q198 0 323 93q128 92 169 285l214 1006h48zM1006 1887v0l196 -342h-56l-181 203l-268 -203h-56l340 342h25z
" />
    <glyph glyph-name="Udieresis" unicode="&#xdc;" horiz-adv-x="1376" 
d="M1565 1455l-214 -1006q-48 -225 -230 -349q-180 -123 -440 -123q-268 0 -395 123q-119 118 -70 349l214 1006h258l-214 -1006q-38 -187 51 -282q89 -96 286 -96q198 0 323 93q128 92 169 285l214 1006h48zM763 1856v0q59 0 92 -41.5t20 -100.5q-12 -60 -63 -101.5
t-110 -41.5t-91.5 41.5t-20.5 101.5q13 59 63.5 100.5t109.5 41.5zM1213 1856v0q59 0 92 -41.5t20 -100.5q-13 -60 -63.5 -101.5t-109.5 -41.5t-92 41.5t-20 101.5q13 59 63.5 100.5t109.5 41.5z" />
    <glyph glyph-name="Yacute" unicode="&#xdd;" horiz-adv-x="1338" 
d="M1588 1455l-617 -702l-160 -753h-259l140 659l-323 796h294l277 -651l589 651h59zM1031 1877v0h215l-424 -342l-51 38z" />
    <glyph glyph-name="Thorn" unicode="&#xde;" horiz-adv-x="1252" 
d="M1269 1070v0q93 -132 52 -320q-40 -189 -188 -320q-148 -132 -321 -132h-381l-16 -77q-19 -91 -32.5 -153.5t-14.5 -67.5h-248l309 1455h248l-15.5 -74.5t-38.5 -179.5h381q173 0 265 -131zM905 461v0q123 119 159 289q36 169 -37 287t-214 118h-199l-173 -813h199
q141 0 265 119z" />
    <glyph glyph-name="germandbls" unicode="&#xdf;" horiz-adv-x="1204" 
d="M1157 458v0q36 -86 5 -174q-29 -86 -106 -159q-80 -75 -174 -113q-50 -19 -100 -26v0q-104 0 -161 20.5t-80.5 52t-24 65.5t11.5 61.5t26 40.5v0q63 57 111 55t75.5 -38t28 -78t-31.5 -64q-26 -18 -9 -28.5t55 -11t76 12.5q56 23 85 74q30 49 6 113l-189 438
q-7 15 -13 29q-22 40 -26 74t39 61q179 105 222 307q54 253 -146 253q-181 1 -224 -199l-260 -1224h-233l225 1061q90 423 492 423q398 0 337 -291q-17 -78 -68 -149t-145 -143z" />
    <glyph glyph-name="agrave" unicode="&#xe0;" horiz-adv-x="1106" 
d="M986 0h-256l29 133q-53 -63 -148 -111q-92 -46 -208 -45q-127 5 -199 80q-35 38 -53 90t-5 117q23 104 104 175t206 111q416 136 450 307q25 130 -174 130q-70 -3 -116 -23t-59.5 -41.5t12.5 -28.5q42 -13 39.5 -62t-43 -101t-111.5 -73q-51 -12 -75 10t-23 65t27 94.5
t75 99t120.5 78.5t164.5 31q158 0 242.5 -39t123.5 -109q46 -84 18 -228zM812 416l55 259q-70 -63 -266 -152q-82 -35 -131 -101q-49 -65 -65 -148q-4 -21 -3.5 -55t12 -69t39 -59t77.5 -24q67 0 116.5 39.5t83.5 97t54 116t28 96.5zM797 1430v0l130 -304l-67 -38l-278 342
h215z" />
    <glyph glyph-name="aacute" unicode="&#xe1;" horiz-adv-x="1106" 
d="M986 0h-256l29 133q-53 -63 -148 -111q-92 -46 -208 -45q-127 5 -199 80q-35 38 -53 90t-5 117q23 104 104 175t206 111q416 136 450 307q25 130 -174 130q-70 -3 -116 -23t-59.5 -41.5t12.5 -28.5q42 -13 39.5 -62t-43 -101t-111.5 -73q-51 -12 -75 10t-23 65t27 94.5
t75 99t120.5 78.5t164.5 31q158 0 242.5 -39t123.5 -109q46 -84 18 -228zM812 416l55 259q-70 -63 -266 -152q-82 -35 -131 -101q-49 -65 -65 -148q-4 -21 -3.5 -55t12 -69t39 -59t77.5 -24q67 0 116.5 39.5t83.5 97t54 116t28 96.5zM913 1430v0h215l-424 -342l-51 38z" />
    <glyph glyph-name="acircumflex" unicode="&#xe2;" horiz-adv-x="1106" 
d="M986 0h-256l29 133q-53 -63 -148 -111q-92 -46 -208 -45q-127 5 -199 80q-35 38 -53 90t-5 117q23 104 104 175t206 111q416 136 450 307q25 130 -174 130q-70 -3 -116 -23t-59.5 -41.5t12.5 -28.5q42 -13 39.5 -62t-43 -101t-111.5 -73q-51 -12 -75 10t-23 65t27 94.5
t75 99t120.5 78.5t164.5 31q158 0 242.5 -39t123.5 -109q46 -84 18 -228zM812 416l55 259q-70 -63 -266 -152q-82 -35 -131 -101q-49 -65 -65 -148q-4 -21 -3.5 -55t12 -69t39 -59t77.5 -24q67 0 116.5 39.5t83.5 97t54 116t28 96.5zM869 1440v0l196 -342h-56l-181 203
l-268 -203h-56l340 342h25z" />
    <glyph glyph-name="atilde" unicode="&#xe3;" horiz-adv-x="1106" 
d="M986 0h-256l29 133q-53 -63 -148 -111q-92 -46 -208 -45q-127 5 -199 80q-35 38 -53 90t-5 117q23 104 104 175t206 111q416 136 450 307q25 130 -174 130q-70 -3 -116 -23t-59.5 -41.5t12.5 -28.5q42 -13 39.5 -62t-43 -101t-111.5 -73q-51 -12 -75 10t-23 65t27 94.5
t75 99t120.5 78.5t164.5 31q158 0 242.5 -39t123.5 -109q46 -84 18 -228zM812 416l55 259q-70 -63 -266 -152q-82 -35 -131 -101q-49 -65 -65 -148q-4 -21 -3.5 -55t12 -69t39 -59t77.5 -24q67 0 116.5 39.5t83.5 97t54 116t28 96.5zM1073 1294v0l30 -5
q-23 -87 -86.5 -122.5t-164.5 -6.5l-28 9.5t-69 20.5t-84 17t-75 -0.5t-41 -31.5l-32 4q38 173 237 124l29.5 -9t73.5 -20t89 -16t78.5 2t42.5 34z" />
    <glyph glyph-name="adieresis" unicode="&#xe4;" horiz-adv-x="1106" 
d="M986 0h-256l29 133q-53 -63 -148 -111q-92 -46 -208 -45q-127 5 -199 80q-35 38 -53 90t-5 117q23 104 104 175t206 111q416 136 450 307q25 130 -174 130q-70 -3 -116 -23t-59.5 -41.5t12.5 -28.5q42 -13 39.5 -62t-43 -101t-111.5 -73q-51 -12 -75 10t-23 65t27 94.5
t75 99t120.5 78.5t164.5 31q158 0 242.5 -39t123.5 -109q46 -84 18 -228zM812 416l55 259q-70 -63 -266 -152q-82 -35 -131 -101q-49 -65 -65 -148q-4 -21 -3.5 -55t12 -69t39 -59t77.5 -24q67 0 116.5 39.5t83.5 97t54 116t28 96.5zM626 1409v0q59 0 92 -41.5t20 -100.5
q-12 -60 -63 -101.5t-110 -41.5t-91.5 41.5t-20.5 101.5q13 59 63.5 100.5t109.5 41.5zM1076 1409v0q59 0 92 -41.5t20 -100.5q-13 -60 -63.5 -101.5t-109.5 -41.5t-92 41.5t-20 101.5q13 59 63.5 100.5t109.5 41.5z" />
    <glyph glyph-name="aring" unicode="&#xe5;" horiz-adv-x="1106" 
d="M986 0h-256l29 133q-53 -63 -148 -111q-92 -46 -208 -45q-127 5 -199 80q-35 38 -53 90t-5 117q23 104 104 175t206 111q416 136 450 307q25 130 -174 130q-70 -3 -116 -23t-59.5 -41.5t12.5 -28.5q42 -13 39.5 -62t-43 -101t-111.5 -73q-51 -12 -75 10t-23 65t27 94.5
t75 99t120.5 78.5t164.5 31q158 0 242.5 -39t123.5 -109q46 -84 18 -228zM812 416l55 259q-70 -63 -266 -152q-82 -35 -131 -101q-49 -65 -65 -148q-4 -21 -3.5 -55t12 -69t39 -59t77.5 -24q67 0 116.5 39.5t83.5 97t54 116t28 96.5zM957 1368v0q38 -48 23 -116
q-15 -69 -72 -117q-58 -47 -128 -47q-68 0 -105 47q-37 48 -22 117t72 116t125 47q70 0 107 -47zM791 1131v0q50 0 93 35t53 86q11 50 -17 85t-78 35t-93 -35t-53 -85q-11 -51 17 -86t78 -35z" />
    <glyph glyph-name="ae" unicode="&#xe6;" horiz-adv-x="1711" 
d="M811 416l55 259q-69 -63 -266 -152q-81 -35 -130 -101q-49 -65 -66 -148q-3 -21 -2.5 -55t12 -69t39 -59t76.5 -24q67 0 117 39.5t83.5 97t53.5 116t28 96.5zM985 0h-255l28 133q-52 -63 -147 -111q-92 -46 -208 -45q-128 5 -199 80q-35 38 -53.5 90t-4.5 117
q22 104 103 175t207 111q416 136 449 307q26 130 -173 130q-70 -3 -115.5 -23t-59.5 -41.5t11 -28.5q42 -13 39.5 -62t-42.5 -101t-111 -73q-51 -12 -75 10t-23 65t27 94.5t75 99t120.5 78.5t163.5 31q159 0 244 -39q43 -20 75 -48q137 87 301 87q219 0 315 -133
q98 -133 60 -355h-635l-75 -357q18 -30 45 -55q58 -52 177 -51q129 3 234 91q106 88 180 232h32q-84 -201 -240 -315q-155 -113 -336 -113q-73 0 -134 20zM1131 828q15 -70 -5 -168l-13 -63h378q41 199 -0.5 296.5t-142.5 97.5q-79 0 -176 -111q-22 -25 -41 -52z" />
    <glyph glyph-name="ccedilla" unicode="&#xe7;" horiz-adv-x="1145" 
d="M536 -21q-181 13 -276 146q-111 148 -66 366q53 234 219 386q86 80 199.5 122.5t222.5 33.5q129 -16 191 -71.5t67.5 -123t-32.5 -118.5t-107 -57q-71 0 -83 54.5t15 110t74 61.5q17 2 10.5 26t-40.5 47.5t-102 22.5q-75 -6 -137.5 -55t-106 -110t-61.5 -100
q-52 -110 -75 -227q-19 -94 -6.5 -188t69.5 -156.5t169 -63.5q122 4 207 59.5t138.5 129t84.5 134.5h32q-69 -156 -166.5 -251t-202.5 -137q-101 -41 -187 -43l-47 -84q9 1 47 -3.5t80 -20t69 -47t15 -85.5q-17 -61 -75 -104.5t-128.5 -62t-125.5 -2t-67 76.5h52
q24 -42 68.5 -41t86 36.5t56.5 95.5q8 46 -10.5 72.5t-48.5 39t-55 15.5t-32 2z" />
    <glyph glyph-name="egrave" unicode="&#xe8;" horiz-adv-x="1157" 
d="M929 176q106 88 179 232h32q-83 -201 -240 -315q-155 -113 -336 -113q-200 0 -309 150q-106 148 -60 368q49 228 219 381q174 157 394 157q219 0 315 -133q97 -133 60 -355h-723q-15 -50 -23.5 -127.5t7 -155t73.5 -129.5t178 -51q128 3 234 91zM617 880
q-97 -111 -145 -283h464q41 199 -0.5 296.5t-142.5 97.5q-79 0 -176 -111zM838 1430v0l130 -304l-67 -38l-278 342h215z" />
    <glyph glyph-name="eacute" unicode="&#xe9;" horiz-adv-x="1157" 
d="M929 176q106 88 179 232h32q-83 -201 -240 -315q-155 -113 -336 -113q-200 0 -309 150q-106 148 -60 368q49 228 219 381q174 157 394 157q219 0 315 -133q97 -133 60 -355h-723q-15 -50 -23.5 -127.5t7 -155t73.5 -129.5t178 -51q128 3 234 91zM617 880
q-97 -111 -145 -283h464q41 199 -0.5 296.5t-142.5 97.5q-79 0 -176 -111zM954 1430v0h215l-424 -342l-51 38z" />
    <glyph glyph-name="ecircumflex" unicode="&#xea;" horiz-adv-x="1157" 
d="M929 176q106 88 179 232h32q-83 -201 -240 -315q-155 -113 -336 -113q-200 0 -309 150q-106 148 -60 368q49 228 219 381q174 157 394 157q219 0 315 -133q97 -133 60 -355h-723q-15 -50 -23.5 -127.5t7 -155t73.5 -129.5t178 -51q128 3 234 91zM617 880
q-97 -111 -145 -283h464q41 199 -0.5 296.5t-142.5 97.5q-79 0 -176 -111zM910 1440v0l196 -342h-56l-181 203l-268 -203h-56l340 342h25z" />
    <glyph glyph-name="edieresis" unicode="&#xeb;" horiz-adv-x="1157" 
d="M929 176q106 88 179 232h32q-83 -201 -240 -315q-155 -113 -336 -113q-200 0 -309 150q-106 148 -60 368q49 228 219 381q174 157 394 157q219 0 315 -133q97 -133 60 -355h-723q-15 -50 -23.5 -127.5t7 -155t73.5 -129.5t178 -51q128 3 234 91zM617 880
q-97 -111 -145 -283h464q41 199 -0.5 296.5t-142.5 97.5q-79 0 -176 -111zM667 1409v0q59 0 92 -41.5t20 -100.5q-12 -60 -63 -101.5t-110 -41.5t-91.5 41.5t-20.5 101.5q13 59 63.5 100.5t109.5 41.5zM1117 1409v0q59 0 92 -41.5t20 -100.5q-13 -60 -63.5 -101.5
t-109.5 -41.5t-92 41.5t-20 101.5q13 59 63.5 100.5t109.5 41.5z" />
    <glyph glyph-name="igrave" unicode="&#xec;" horiz-adv-x="525" 
d="M135 0v0l214 1008h256l-214 -1008h-256zM509 1430v0l130 -304l-67 -38l-278 342h215z" />
    <glyph glyph-name="iacute" unicode="&#xed;" horiz-adv-x="525" 
d="M135 0v0l214 1008h256l-214 -1008h-256zM625 1430v0h215l-424 -342l-51 38z" />
    <glyph glyph-name="icircumflex" unicode="&#xee;" horiz-adv-x="525" 
d="M135 0v0l214 1008h256l-214 -1008h-256zM581 1440v0l196 -342h-56l-181 203l-268 -203h-56l340 342h25z" />
    <glyph glyph-name="idieresis" unicode="&#xef;" horiz-adv-x="525" 
d="M135 0v0l214 1008h256l-214 -1008h-256zM338 1409v0q59 0 92 -41.5t20 -100.5q-12 -60 -63 -101.5t-110 -41.5t-91.5 41.5t-20.5 101.5q13 59 63.5 100.5t109.5 41.5zM788 1409v0q59 0 92 -41.5t20 -100.5q-13 -60 -63.5 -101.5t-109.5 -41.5t-92 41.5t-20 101.5
q13 59 63.5 100.5t109.5 41.5z" />
    <glyph glyph-name="eth" unicode="&#xf0;" horiz-adv-x="1150" 
d="M1018 1277v0q114 -137 158 -323t5 -378q-14 -73 -52 -172.5t-110.5 -196.5t-190 -161t-290.5 -67q-125 1 -215 58t-129 163.5t-7 253.5q22 107 75 209.5t128.5 184.5t169.5 131.5t198 49.5q58 0 109.5 -23.5t85.5 -56.5t39 -65q18 188 -59 323l-166 -136l-25 32l171 141
q-51 80 -116 120t-125 53.5t-97 14.5l9 44q66 0 130 -13t124 -42q85 -43 153 -113l203 168l25 -32zM567 37v0q77 5 144 75t116.5 177t72.5 215q17 79 23 161t-7 151t-50 112t-106 43q-81 0 -146.5 -59.5t-114.5 -166t-79 -248.5q-23 -108 -24.5 -215t37.5 -176t134 -69z" />
    <glyph glyph-name="ntilde" unicode="&#xf1;" 
d="M1117 944q37 -43 55.5 -101t-2.5 -154l-146 -689h-256l153 722q21 91 -20 157q-40 67 -131 66q-81 0 -153 -67q-69 -66 -88 -156l-153 -722h-256l214 1008h256l-24 -113q145 135 325 135q154 4 226 -86zM1094 1294v0l30 -5q-23 -87 -86.5 -122.5t-164.5 -6.5l-28 9.5
t-69 20.5t-84 17t-75 -0.5t-41 -31.5l-32 4q38 173 237 124l29.5 -9t73.5 -20t89 -16t78.5 2t42.5 34z" />
    <glyph glyph-name="ograve" unicode="&#xf2;" horiz-adv-x="1182" 
d="M1142 890q103 -142 59 -376q-47 -225 -232 -381q-183 -156 -391 -156q-207 0 -319 150q-110 149 -64 368q48 225 224 381q178 158 403 157q220 -1 320 -143zM601 27q69 0 139 64.5t127 173t85 241.5q28 132 17.5 240.5t-53.5 173t-112 64.5q-68 0 -138.5 -64.5t-127 -173
t-84.5 -240.5q-28 -133 -17.5 -241.5t53 -173t111.5 -64.5zM837 1430v0l130 -304l-67 -38l-278 342h215z" />
    <glyph glyph-name="oacute" unicode="&#xf3;" horiz-adv-x="1182" 
d="M1142 890q103 -142 59 -376q-47 -225 -232 -381q-183 -156 -391 -156q-207 0 -319 150q-110 149 -64 368q48 225 224 381q178 158 403 157q220 -1 320 -143zM601 27q69 0 139 64.5t127 173t85 241.5q28 132 17.5 240.5t-53.5 173t-112 64.5q-68 0 -138.5 -64.5t-127 -173
t-84.5 -240.5q-28 -133 -17.5 -241.5t53 -173t111.5 -64.5zM953 1430v0h215l-424 -342l-51 38z" />
    <glyph glyph-name="ocircumflex" unicode="&#xf4;" horiz-adv-x="1182" 
d="M1142 890q103 -142 59 -376q-47 -225 -232 -381q-183 -156 -391 -156q-207 0 -319 150q-110 149 -64 368q48 225 224 381q178 158 403 157q220 -1 320 -143zM601 27q69 0 139 64.5t127 173t85 241.5q28 132 17.5 240.5t-53.5 173t-112 64.5q-68 0 -138.5 -64.5t-127 -173
t-84.5 -240.5q-28 -133 -17.5 -241.5t53 -173t111.5 -64.5zM909 1440v0l196 -342h-56l-181 203l-268 -203h-56l340 342h25z" />
    <glyph glyph-name="otilde" unicode="&#xf5;" horiz-adv-x="1182" 
d="M1142 890q103 -142 59 -376q-47 -225 -232 -381q-183 -156 -391 -156q-207 0 -319 150q-110 149 -64 368q48 225 224 381q178 158 403 157q220 -1 320 -143zM601 27q69 0 139 64.5t127 173t85 241.5q28 132 17.5 240.5t-53.5 173t-112 64.5q-68 0 -138.5 -64.5t-127 -173
t-84.5 -240.5q-28 -133 -17.5 -241.5t53 -173t111.5 -64.5zM1113 1294v0l30 -5q-23 -87 -86.5 -122.5t-164.5 -6.5l-28 9.5t-69 20.5t-84 17t-75 -0.5t-41 -31.5l-32 4q38 173 237 124l29.5 -9t73.5 -20t89 -16t78.5 2t42.5 34z" />
    <glyph glyph-name="odieresis" unicode="&#xf6;" horiz-adv-x="1182" 
d="M1142 890q103 -142 59 -376q-47 -225 -232 -381q-183 -156 -391 -156q-207 0 -319 150q-110 149 -64 368q48 225 224 381q178 158 403 157q220 -1 320 -143zM601 27q69 0 139 64.5t127 173t85 241.5q28 132 17.5 240.5t-53.5 173t-112 64.5q-68 0 -138.5 -64.5t-127 -173
t-84.5 -240.5q-28 -133 -17.5 -241.5t53 -173t111.5 -64.5zM666 1409v0q59 0 92 -41.5t20 -100.5q-12 -60 -63 -101.5t-110 -41.5t-91.5 41.5t-20.5 101.5q13 59 63.5 100.5t109.5 41.5zM1116 1409v0q59 0 92 -41.5t20 -100.5q-13 -60 -63.5 -101.5t-109.5 -41.5t-92 41.5
t-20 101.5q13 59 63.5 100.5t109.5 41.5z" />
    <glyph glyph-name="divide" unicode="&#xf7;" horiz-adv-x="1218" 
d="M280 751h977l-9 -43h-977zM721 498v0q59 0 92 -41.5t20 -100.5q-12 -59 -62.5 -101t-109.5 -42t-92 42t-21 101q13 59 63.5 100.5t109.5 41.5zM826 990v0q-59 0 -92 41.5t-21 100.5q13 59 63.5 101t109.5 42t92 -42t20 -101q-12 -59 -62.5 -100.5t-109.5 -41.5z" />
    <glyph glyph-name="oslash" unicode="&#xf8;" horiz-adv-x="1182" 
d="M954 834q-14 50 -38 86q-43 64 -112 64t-139 -64.5t-126.5 -173t-84.5 -240.5q-29 -133 -18 -241q1 -13 3 -26zM448 188q15 -57 41 -96q43 -65 112 -65t139 64.5t126.5 173t85.5 241.5q28 132 17 241q-2 19 -5 37zM1099 939q24 -22 43 -49q103 -142 59 -376
q-48 -225 -232 -381q-183 -156 -391 -156q-147 0 -246 76l-86 -99l-32 25l86 101q-22 21 -41 47q-110 149 -64 368q48 225 224 381q178 158 403 157q150 -1 245 -68l82 95l33 -25z" />
    <glyph glyph-name="ugrave" unicode="&#xf9;" 
d="M983 1008h256l-215 -1008h-256l24 113q-144 -135 -324 -135q-154 -4 -227 86q-36 43 -54.5 101t1.5 154l147 689h256l-154 -722q-20 -91 21 -157q40 -67 131 -66q81 0 152 67q69 66 88 156zM818 1430v0l130 -304l-67 -38l-278 342h215z" />
    <glyph glyph-name="uacute" unicode="&#xfa;" 
d="M983 1008h256l-215 -1008h-256l24 113q-144 -135 -324 -135q-154 -4 -227 86q-36 43 -54.5 101t1.5 154l147 689h256l-154 -722q-20 -91 21 -157q40 -67 131 -66q81 0 152 67q69 66 88 156zM934 1430v0h215l-424 -342l-51 38z" />
    <glyph glyph-name="ucircumflex" unicode="&#xfb;" 
d="M983 1008h256l-215 -1008h-256l24 113q-144 -135 -324 -135q-154 -4 -227 86q-36 43 -54.5 101t1.5 154l147 689h256l-154 -722q-20 -91 21 -157q40 -67 131 -66q81 0 152 67q69 66 88 156zM890 1440v0l196 -342h-56l-181 203l-268 -203h-56l340 342h25z" />
    <glyph glyph-name="udieresis" unicode="&#xfc;" 
d="M983 1008h256l-215 -1008h-256l24 113q-144 -135 -324 -135q-154 -4 -227 86q-36 43 -54.5 101t1.5 154l147 689h256l-154 -722q-20 -91 21 -157q40 -67 131 -66q81 0 152 67q69 66 88 156zM647 1409v0q59 0 92 -41.5t20 -100.5q-12 -60 -63 -101.5t-110 -41.5
t-91.5 41.5t-20.5 101.5q13 59 63.5 100.5t109.5 41.5zM1097 1409v0q59 0 92 -41.5t20 -100.5q-13 -60 -63.5 -101.5t-109.5 -41.5t-92 41.5t-20 101.5q13 59 63.5 100.5t109.5 41.5z" />
    <glyph glyph-name="yacute" unicode="&#xfd;" horiz-adv-x="1046" 
d="M1150 1008h50l-782 -1221q-106 -162 -200.5 -220.5t-164 -47.5t-101.5 58.5t-13 97.5q35 80 81.5 102.5t87 7t59 -49.5t-1.5 -66q-21 -33 -0.5 -46t75 24.5t137.5 156.5l127 196l-204 1008h260l139 -698zM859 1430v0h215l-424 -342l-51 38z" />
    <glyph glyph-name="thorn" unicode="&#xfe;" horiz-adv-x="1182" 
d="M1163 891v0q90 -135 38 -377q-51 -240 -211 -390q-156 -150 -345 -149q-197 0 -271 100l-117 -556h-239l411 1936h238l-116 -546q73 66 147.5 92.5t180.5 25.5q196 1 284 -136zM819 168v0q96 122 138 323q44 205 -7 337q-52 135 -175 129q-77 -5 -161 -74
q-81 -72 -107 -186l-114 -536q25 -43 78 -79q56 -36 120 -36q128 0 228 122z" />
    <glyph glyph-name="ydieresis" unicode="&#xff;" horiz-adv-x="1046" 
d="M1150 1008h50l-782 -1221q-106 -162 -200.5 -220.5t-164 -47.5t-101.5 58.5t-13 97.5q35 80 81.5 102.5t87 7t59 -49.5t-1.5 -66q-21 -33 -0.5 -46t75 24.5t137.5 156.5l127 196l-204 1008h260l139 -698zM622 1409v0q59 0 92 -41.5t20 -100.5q-12 -60 -63 -101.5
t-110 -41.5t-91.5 41.5t-20.5 101.5q13 59 63.5 100.5t109.5 41.5zM1072 1409v0q59 0 92 -41.5t20 -100.5q-13 -60 -63.5 -101.5t-109.5 -41.5t-92 41.5t-20 101.5q13 59 63.5 100.5t109.5 41.5z" />
    <glyph glyph-name="Amacron" unicode="&#x100;" horiz-adv-x="1321" 
d="M973 1455l288 -1455h-258l-93 483h-515l-285 -483h-50l864 1455h49zM421 525h481q-13 64 -117 612q-339 -571 -364 -612zM633 1738v0h561l-19 -90h-561z" />
    <glyph glyph-name="amacron" unicode="&#x101;" horiz-adv-x="1106" 
d="M986 0h-256l29 133q-53 -63 -148 -111q-92 -46 -208 -45q-127 5 -199 80q-35 38 -53 90t-5 117q23 104 104 175t206 111q416 136 450 307q25 130 -174 130q-70 -3 -116 -23t-59.5 -41.5t12.5 -28.5q42 -13 39.5 -62t-43 -101t-111.5 -73q-51 -12 -75 10t-23 65t27 94.5
t75 99t120.5 78.5t164.5 31q158 0 242.5 -39t123.5 -109q46 -84 18 -228zM812 416l55 259q-70 -63 -266 -152q-82 -35 -131 -101q-49 -65 -65 -148q-4 -21 -3.5 -55t12 -69t39 -59t77.5 -24q67 0 116.5 39.5t83.5 97t54 116t28 96.5zM545 1291v0h561l-19 -90h-561z" />
    <glyph glyph-name="Abreve" unicode="&#x102;" horiz-adv-x="1321" 
d="M973 1455l288 -1455h-258l-93 483h-515l-285 -483h-50l864 1455h49zM421 525h481q-13 64 -117 612q-339 -571 -364 -612zM1171 1889v0h55q-8 -39 -38 -98.5t-77.5 -117.5t-108.5 -98t-131 -40q-77 0 -122 40t-66 98t-23.5 117.5t6.5 98.5h58q-14 -99 41.5 -148t141 -48.5
t161.5 50t103 146.5z" />
    <glyph glyph-name="abreve" unicode="&#x103;" horiz-adv-x="1106" 
d="M986 0h-256l29 133q-53 -63 -148 -111q-92 -46 -208 -45q-127 5 -199 80q-35 38 -53 90t-5 117q23 104 104 175t206 111q416 136 450 307q25 130 -174 130q-70 -3 -116 -23t-59.5 -41.5t12.5 -28.5q42 -13 39.5 -62t-43 -101t-111.5 -73q-51 -12 -75 10t-23 65t27 94.5
t75 99t120.5 78.5t164.5 31q158 0 242.5 -39t123.5 -109q46 -84 18 -228zM812 416l55 259q-70 -63 -266 -152q-82 -35 -131 -101q-49 -65 -65 -148q-4 -21 -3.5 -55t12 -69t39 -59t77.5 -24q67 0 116.5 39.5t83.5 97t54 116t28 96.5zM1083 1442v0h55q-8 -39 -38 -98.5
t-77.5 -117.5t-108.5 -98t-131 -40q-77 0 -122 40t-66 98t-23.5 117.5t6.5 98.5h58q-14 -99 41.5 -148t141 -48.5t161.5 50t103 146.5z" />
    <glyph glyph-name="Aogonek" unicode="&#x104;" horiz-adv-x="1321" 
d="M422 525h481q-14 64 -117 612q-340 -571 -364 -612zM1213 0h-210l-92 483h-515l-286 -483h-50l864 1455h49l288 -1455h-3q-99 -53 -156 -131q-59 -79 -71 -149t26 -98.5t131 18.5h51q-41 -38 -105.5 -60.5t-129 -17.5t-105.5 50q-47 61 7 139t146 147q91 68 161 102z" />
    <glyph glyph-name="aogonek" unicode="&#x105;" horiz-adv-x="1106" 
d="M811 416l55 259q-69 -63 -266 -152q-81 -35 -130 -101q-49 -65 -66 -148q-3 -21 -2.5 -55t12 -69t39 -59t76.5 -24q67 0 117 39.5t83.5 97t53.5 116t28 96.5zM934 0h-204l28 133q-52 -63 -147 -111q-92 -46 -208 -45q-128 5 -199 80q-35 38 -53.5 90t-4.5 117
q22 104 103 175t207 111q416 136 449 307q26 130 -173 130q-70 -3 -115.5 -23t-59.5 -41.5t11 -28.5q42 -13 39.5 -62t-42.5 -101t-111 -73q-51 -12 -75 10t-23 65t27 94.5t75 99t120.5 78.5t163.5 31q159 0 244 -39t124 -109q45 -84 16 -228l-140 -660h-7
q-99 -53 -156 -131q-59 -79 -71 -149t26 -98.5t131 18.5h51q-41 -38 -105.5 -60.5t-129 -17.5t-105.5 50q-47 61 7 139t146 147q91 68 161 102z" />
    <glyph glyph-name="Cacute" unicode="&#x106;" horiz-adv-x="1493" 
d="M1435 394l43 -38q-73 -116 -170 -201t-215.5 -132t-257.5 -47q-207 0 -355.5 101t-213.5 271.5t-21 377.5t181 377.5t329 271.5t399 101q51 0 99 -7q129 -19 214.5 -86.5t121.5 -163.5q31 -90 6 -174.5t-83 -131.5t-128 -23q-61 27 -67 84t24 106.5t78 53.5q37 3 45 47.5
t-21 103t-102 102t-196 45.5q-138 -3 -266.5 -97t-226 -253.5t-139.5 -353.5q-41 -195 -11.5 -356t118.5 -256.5t225 -95.5q66 0 139 20q130 34 251 124t200 230zM1199 1877v0h215l-424 -342l-51 38z" />
    <glyph glyph-name="cacute" unicode="&#x107;" horiz-adv-x="1145" 
d="M1109 408v0h32q-68 -156 -165 -251t-203 -137.5t-195 -42.5q-212 0 -318 148q-111 148 -66 366q53 234 219 386q87 80 200 122.5t222 33.5q129 -16 190.5 -71.5t67.5 -123t-32 -118.5t-107 -57q-71 0 -83 54.5t15 110t74 61.5q17 2 10.5 26t-41 47.5t-101.5 22.5
q-75 -6 -137.5 -55t-105.5 -110t-62 -100q-52 -110 -75 -227q-20 -94 -7 -188t70 -156.5t169 -63.5q122 4 206.5 59.5t138.5 129t84 134.5zM938 1430v0h215l-424 -342l-51 38z" />
    <glyph glyph-name="Ccircumflex" unicode="&#x108;" horiz-adv-x="1493" 
d="M1435 394l43 -38q-73 -116 -170 -201t-215.5 -132t-257.5 -47q-207 0 -355.5 101t-213.5 271.5t-21 377.5t181 377.5t329 271.5t399 101q51 0 99 -7q129 -19 214.5 -86.5t121.5 -163.5q31 -90 6 -174.5t-83 -131.5t-128 -23q-61 27 -67 84t24 106.5t78 53.5q37 3 45 47.5
t-21 103t-102 102t-196 45.5q-138 -3 -266.5 -97t-226 -253.5t-139.5 -353.5q-41 -195 -11.5 -356t118.5 -256.5t225 -95.5q66 0 139 20q130 34 251 124t200 230zM1155 1887v0l196 -342h-56l-181 203l-268 -203h-56l340 342h25z" />
    <glyph glyph-name="ccircumflex" unicode="&#x109;" horiz-adv-x="1145" 
d="M1109 408v0h32q-68 -156 -165 -251t-203 -137.5t-195 -42.5q-212 0 -318 148q-111 148 -66 366q53 234 219 386q87 80 200 122.5t222 33.5q129 -16 190.5 -71.5t67.5 -123t-32 -118.5t-107 -57q-71 0 -83 54.5t15 110t74 61.5q17 2 10.5 26t-41 47.5t-101.5 22.5
q-75 -6 -137.5 -55t-105.5 -110t-62 -100q-52 -110 -75 -227q-20 -94 -7 -188t70 -156.5t169 -63.5q122 4 206.5 59.5t138.5 129t84 134.5zM894 1440v0l196 -342h-56l-181 203l-268 -203h-56l340 342h25z" />
    <glyph glyph-name="Cdotaccent" unicode="&#x10a;" horiz-adv-x="1493" 
d="M1435 394l43 -38q-73 -116 -170 -201t-215.5 -132t-257.5 -47q-207 0 -355.5 101t-213.5 271.5t-21 377.5t181 377.5t329 271.5t399 101q51 0 99 -7q129 -19 214.5 -86.5t121.5 -163.5q31 -90 6 -174.5t-83 -131.5t-128 -23q-61 27 -67 84t24 106.5t78 53.5q37 3 45 47.5
t-21 103t-102 102t-196 45.5q-138 -3 -266.5 -97t-226 -253.5t-139.5 -353.5q-41 -195 -11.5 -356t118.5 -256.5t225 -95.5q66 0 139 20q130 34 251 124t200 230zM1136 1856v0q59 0 92 -41.5t20 -100.5q-12 -60 -63 -101.5t-110 -41.5t-91.5 41.5t-20.5 101.5
q13 59 63.5 100.5t109.5 41.5z" />
    <glyph glyph-name="cdotaccent" unicode="&#x10b;" horiz-adv-x="1145" 
d="M1109 408v0h32q-68 -156 -165 -251t-203 -137.5t-195 -42.5q-212 0 -318 148q-111 148 -66 366q53 234 219 386q87 80 200 122.5t222 33.5q129 -16 190.5 -71.5t67.5 -123t-32 -118.5t-107 -57q-71 0 -83 54.5t15 110t74 61.5q17 2 10.5 26t-41 47.5t-101.5 22.5
q-75 -6 -137.5 -55t-105.5 -110t-62 -100q-52 -110 -75 -227q-20 -94 -7 -188t70 -156.5t169 -63.5q122 4 206.5 59.5t138.5 129t84 134.5zM875 1409v0q59 0 92 -41.5t20 -100.5q-12 -60 -63 -101.5t-110 -41.5t-91.5 41.5t-20.5 101.5q13 59 63.5 100.5t109.5 41.5z" />
    <glyph glyph-name="Ccaron" unicode="&#x10c;" horiz-adv-x="1493" 
d="M1435 394l43 -38q-73 -116 -170 -201t-215.5 -132t-257.5 -47q-207 0 -355.5 101t-213.5 271.5t-21 377.5t181 377.5t329 271.5t399 101q51 0 99 -7q129 -19 214.5 -86.5t121.5 -163.5q31 -90 6 -174.5t-83 -131.5t-128 -23q-61 27 -67 84t24 106.5t78 53.5q37 3 45 47.5
t-21 103t-102 102t-196 45.5q-138 -3 -266.5 -97t-226 -253.5t-139.5 -353.5q-41 -195 -11.5 -356t118.5 -256.5t225 -95.5q66 0 139 20q130 34 251 124t200 230zM1368 1887v0h56l-342 -342h-24l-195 342h56l181 -203z" />
    <glyph glyph-name="ccaron" unicode="&#x10d;" horiz-adv-x="1145" 
d="M1109 408v0h32q-68 -156 -165 -251t-203 -137.5t-195 -42.5q-212 0 -318 148q-111 148 -66 366q53 234 219 386q87 80 200 122.5t222 33.5q129 -16 190.5 -71.5t67.5 -123t-32 -118.5t-107 -57q-71 0 -83 54.5t15 110t74 61.5q17 2 10.5 26t-41 47.5t-101.5 22.5
q-75 -6 -137.5 -55t-105.5 -110t-62 -100q-52 -110 -75 -227q-20 -94 -7 -188t70 -156.5t169 -63.5q122 4 206.5 59.5t138.5 129t84 134.5zM1107 1440v0h56l-342 -342h-24l-195 342h56l181 -203z" />
    <glyph glyph-name="Dcaron" unicode="&#x10e;" horiz-adv-x="1529" 
d="M1587 728q-56 -299 -298 -514q-240 -214 -524 -214h-645l310 1455h562q154 0 279 -57q128 -60 205 -158q77 -100 107 -229q33 -137 4 -283zM1225 427v0q74 137 105 301q52 285 -78 483q-63 96 -177 148q-115 52 -239 52h-171l-290 -1365h271q110 0 206 32t201 126
q103 92 172 223zM1234 1887v0h56l-342 -342h-24l-195 342h56l181 -203z" />
    <glyph glyph-name="dcaron" unicode="&#x10f;" horiz-adv-x="1476" 
d="M1149 1455h256l-309 -1455h-256l24 114q-13 -23 -51.5 -55.5t-102 -58t-151.5 -25.5q-105 0 -176 37.5t-121 111.5q-52 73 -71 167t6 215q27 124 84 222.5t133 164.5q154 137 355 137q81 0 153.5 -29t111.5 -90zM904 302l114 536q-26 44 -79 79q-56 36 -120 36
q-127 1 -226 -122q-96 -121 -139 -323q-44 -204 7 -337q53 -135 175 -129q77 6 161 74q81 74 107 186zM1634 1408v0q46 0 65.5 -25.5t18 -66t-20.5 -87t-51 -90t-73 -74.5t-86 -42q-4 0 -5.5 2t-0.5 5t4 5q37 18 66.5 56.5t39.5 71.5t-10 37q-38 5 -58.5 31.5t-15.5 65.5
q8 47 45 79t82 32z" />
    <glyph glyph-name="Dcroat" unicode="&#x110;" horiz-adv-x="1529" 
d="M515 706l-140 -660h271q110 0 206 32t201 126q103 92 172 223q74 137 105 301q51 285 -79 483q-62 96 -176 148q-115 52 -239 52h-171l-141 -662h300l-9 -43h-300zM280 749l150 706h562q154 0 279 -57q127 -60 206 -158q76 -100 106 -229q33 -137 4 -283
q-57 -299 -298 -514q-240 -214 -524 -214h-645l151 706h-121l9 43h121z" />
    <glyph glyph-name="dcroat" unicode="&#x111;" horiz-adv-x="1216" 
d="M904 302l114 536q-26 44 -79 79q-55 36 -119 36q-128 1 -227 -122q-96 -121 -139 -323q-44 -204 7 -337q53 -135 175 -129q77 6 161 74q81 74 107 186zM1107 1255l42 200h256l-42 -200h120l-9 -43h-120l-258 -1212h-256l24 114q-13 -23 -51.5 -55.5t-102 -58
t-151.5 -25.5q-104 0 -175 37.5t-122 111.5q-52 73 -71 167t7 215q26 124 83 222.5t133 164.5q154 137 355 137q81 0 154 -29t111 -90l64 301l-379 1l9 43z" />
    <glyph glyph-name="Emacron" unicode="&#x112;" horiz-adv-x="1150" 
d="M536 760l-153 -720h685l-8 -40h-940l310 1455h939l-10 -44h-685l-128 -606h437l-10 -46zM584 1738v0h561l-19 -90h-561z" />
    <glyph glyph-name="emacron" unicode="&#x113;" horiz-adv-x="1157" 
d="M929 176q106 88 179 232h32q-83 -201 -240 -315q-155 -113 -336 -113q-200 0 -309 150q-106 148 -60 368q49 228 219 381q174 157 394 157q219 0 315 -133q97 -133 60 -355h-723q-15 -50 -23.5 -127.5t7 -155t73.5 -129.5t178 -51q128 3 234 91zM617 880
q-97 -111 -145 -283h464q41 199 -0.5 296.5t-142.5 97.5q-79 0 -176 -111zM586 1291v0h561l-19 -90h-561z" />
    <glyph glyph-name="Ebreve" unicode="&#x114;" horiz-adv-x="1150" 
d="M536 760l-153 -720h685l-8 -40h-940l310 1455h939l-10 -44h-685l-128 -606h437l-10 -46zM1122 1889v0h55q-8 -39 -38 -98.5t-77.5 -117.5t-108.5 -98t-131 -40q-77 0 -122 40t-66 98t-23.5 117.5t6.5 98.5h58q-14 -99 41.5 -148t141 -48.5t161.5 50t103 146.5z" />
    <glyph glyph-name="ebreve" unicode="&#x115;" horiz-adv-x="1157" 
d="M929 176q106 88 179 232h32q-83 -201 -240 -315q-155 -113 -336 -113q-200 0 -309 150q-106 148 -60 368q49 228 219 381q174 157 394 157q219 0 315 -133q97 -133 60 -355h-723q-15 -50 -23.5 -127.5t7 -155t73.5 -129.5t178 -51q128 3 234 91zM617 880
q-97 -111 -145 -283h464q41 199 -0.5 296.5t-142.5 97.5q-79 0 -176 -111zM1124 1442v0h55q-8 -39 -38 -98.5t-77.5 -117.5t-108.5 -98t-131 -40q-77 0 -122 40t-66 98t-23.5 117.5t6.5 98.5h58q-14 -99 41.5 -148t141 -48.5t161.5 50t103 146.5z" />
    <glyph glyph-name="Edotaccent" unicode="&#x116;" horiz-adv-x="1150" 
d="M536 760l-153 -720h685l-8 -40h-940l310 1455h939l-10 -44h-685l-128 -606h437l-10 -46zM889 1856v0q59 0 92 -41.5t20 -100.5q-12 -60 -63 -101.5t-110 -41.5t-91.5 41.5t-20.5 101.5q13 59 63.5 100.5t109.5 41.5z" />
    <glyph glyph-name="edotaccent" unicode="&#x117;" horiz-adv-x="1157" 
d="M929 176q106 88 179 232h32q-83 -201 -240 -315q-155 -113 -336 -113q-200 0 -309 150q-106 148 -60 368q49 228 219 381q174 157 394 157q219 0 315 -133q97 -133 60 -355h-723q-15 -50 -23.5 -127.5t7 -155t73.5 -129.5t178 -51q128 3 234 91zM617 880
q-97 -111 -145 -283h464q41 199 -0.5 296.5t-142.5 97.5q-79 0 -176 -111zM891 1409v0q59 0 92 -41.5t20 -100.5q-12 -60 -63 -101.5t-110 -41.5t-91.5 41.5t-20.5 101.5q13 59 63.5 100.5t109.5 41.5z" />
    <glyph glyph-name="Eogonek" unicode="&#x118;" horiz-adv-x="1201" 
d="M1008 0h-888l309 1455h940l-9 -44h-685l-129 -606h437l-10 -46l-436 1l-153 -720h685l-9 -40h-7q-99 -53 -156 -131q-59 -79 -71 -149t26 -98.5t131 18.5h51q-41 -38 -105.5 -60.5t-129 -17.5t-105.5 50q-47 61 7 139t146 147q91 68 161 102z" />
    <glyph glyph-name="eogonek" unicode="&#x119;" horiz-adv-x="1157" 
d="M794 991q-79 0 -177 -111t-145 -283h465q40 199 -1.5 296.5t-141.5 97.5zM635 -16q-35 -4 -70 -4q-200 0 -309 150q-107 148 -60 368q48 228 219 381q173 157 393 157q219 0 315 -133q98 -133 60 -355h-723q-15 -50 -23.5 -127.5t7 -155t73.5 -129.5t178 -51
q129 3 234 91q106 88 180 232h32q-84 -201 -240 -315q-92 -67 -193 -94q-97 -53 -154 -130q-59 -79 -71 -149t26 -98.5t131 18.5h51q-41 -38 -105.5 -60.5t-129 -17.5t-105.5 50q-47 61 7 139t146 147q72 54 131 86z" />
    <glyph glyph-name="Ecaron" unicode="&#x11a;" horiz-adv-x="1150" 
d="M536 760l-153 -720h685l-8 -40h-940l310 1455h939l-10 -44h-685l-128 -606h437l-10 -46zM1121 1887v0h56l-342 -342h-24l-195 342h56l181 -203z" />
    <glyph glyph-name="ecaron" unicode="&#x11b;" horiz-adv-x="1157" 
d="M929 176q106 88 179 232h32q-83 -201 -240 -315q-155 -113 -336 -113q-200 0 -309 150q-106 148 -60 368q49 228 219 381q174 157 394 157q219 0 315 -133q97 -133 60 -355h-723q-15 -50 -23.5 -127.5t7 -155t73.5 -129.5t178 -51q128 3 234 91zM617 880
q-97 -111 -145 -283h464q41 199 -0.5 296.5t-142.5 97.5q-79 0 -176 -111zM1123 1440v0h56l-342 -342h-24l-195 342h56l181 -203z" />
    <glyph glyph-name="Gcircumflex" unicode="&#x11c;" horiz-adv-x="1500" 
d="M1486 531l-112 -531h-255l8 38q-133 -62 -292 -62q-207 0 -355.5 101t-213.5 271.5t-21 377.5t181.5 377.5t329 271.5t398.5 101q51 0 100 -7q128 -19 213.5 -86.5t121.5 -163.5q31 -90 6.5 -174.5t-83 -131.5t-128.5 -23q-61 27 -67 84t24 106.5t78 53.5q37 3 45 47.5
t-21 103t-102 102t-196 45.5q-138 -3 -266.5 -97t-226 -253.5t-139.5 -353.5q-41 -195 -11.5 -356t118.5 -256.5t225 -95.5q66 0 140 20q78 21 155 63l82 383h-210l10 45h464zM1050 1887v0l196 -342h-56l-181 203l-268 -203h-56l340 342h25z" />
    <glyph glyph-name="gcircumflex" unicode="&#x11d;" horiz-adv-x="1232" 
d="M309 238q5 -50 79.5 -57.5t185.5 -0.5q122 8 246 -1t208.5 -71.5t87.5 -214.5q-2 -102 -74.5 -193t-207.5 -149t-323 -58q-165 0 -271 35t-156 91t-47 121t57.5 127t158.5 108q-86 9 -117.5 63t-10 126t95.5 134.5t199 88.5q-65 47 -96 121q-32 74 -14 160
q33 156 184 260q148 105 351 105q40 1 111 -13q115 178 208.5 243.5t154.5 55t79.5 -62t-17.5 -106.5q-47 -64 -104.5 -81.5t-94.5 1.5t-24 64q17 53 4 51.5t-42.5 -34.5t-60 -74.5t-47.5 -68.5q128 -36 176 -116q55 -84 27 -214q-32 -150 -191 -262q-152 -100 -344 -101
q-142 0 -236 54l-21.5 -10t-48 -28t-46.5 -41.5t-19 -51.5zM830 993q-82 0 -159.5 -93.5t-105.5 -225.5t10 -225t119 -93q82 0 159.5 93t105.5 225t-10 225.5t-119 93.5zM515 -462q124 0 210.5 32t140 81.5t77.5 105.5t21 105.5t-30 81t-73 31.5h-471q-42 -2 -82 -34
t-67.5 -81.5t-33 -104.5t21.5 -104.5t95.5 -81t190.5 -31.5zM937 1662v0l196 -342h-56l-181 203l-268 -203h-56l340 342h25z" />
    <glyph glyph-name="Gbreve" unicode="&#x11e;" horiz-adv-x="1500" 
d="M1486 531l-112 -531h-255l8 38q-133 -62 -292 -62q-207 0 -355.5 101t-213.5 271.5t-21 377.5t181.5 377.5t329 271.5t398.5 101q51 0 100 -7q128 -19 213.5 -86.5t121.5 -163.5q31 -90 6.5 -174.5t-83 -131.5t-128.5 -23q-61 27 -67 84t24 106.5t78 53.5q37 3 45 47.5
t-21 103t-102 102t-196 45.5q-138 -3 -266.5 -97t-226 -253.5t-139.5 -353.5q-41 -195 -11.5 -356t118.5 -256.5t225 -95.5q66 0 140 20q78 21 155 63l82 383h-210l10 45h464zM1264 1889v0h55q-8 -39 -38 -98.5t-77.5 -117.5t-108.5 -98t-131 -40q-77 0 -122 40t-66 98
t-23.5 117.5t6.5 98.5h58q-14 -99 41.5 -148t141 -48.5t161.5 50t103 146.5z" />
    <glyph glyph-name="gbreve" unicode="&#x11f;" horiz-adv-x="1232" 
d="M309 238q5 -50 79.5 -57.5t185.5 -0.5q122 8 246 -1t208.5 -71.5t87.5 -214.5q-2 -102 -74.5 -193t-207.5 -149t-323 -58q-165 0 -271 35t-156 91t-47 121t57.5 127t158.5 108q-86 9 -117.5 63t-10 126t95.5 134.5t199 88.5q-65 47 -96 121q-32 74 -14 160
q33 156 184 260q148 105 351 105q40 1 111 -13q115 178 208.5 243.5t154.5 55t79.5 -62t-17.5 -106.5q-47 -64 -104.5 -81.5t-94.5 1.5t-24 64q17 53 4 51.5t-42.5 -34.5t-60 -74.5t-47.5 -68.5q128 -36 176 -116q55 -84 27 -214q-32 -150 -191 -262q-152 -100 -344 -101
q-142 0 -236 54l-21.5 -10t-48 -28t-46.5 -41.5t-19 -51.5zM830 993q-82 0 -159.5 -93.5t-105.5 -225.5t10 -225t119 -93q82 0 159.5 93t105.5 225t-10 225.5t-119 93.5zM515 -462q124 0 210.5 32t140 81.5t77.5 105.5t21 105.5t-30 81t-73 31.5h-471q-42 -2 -82 -34
t-67.5 -81.5t-33 -104.5t21.5 -104.5t95.5 -81t190.5 -31.5zM1151 1574v0h55q-8 -39 -38 -98.5t-77.5 -117.5t-108.5 -98t-131 -40q-77 0 -122 40t-66 98t-23.5 117.5t6.5 98.5h58q-14 -99 41.5 -148t141 -48.5t161.5 50t103 146.5z" />
    <glyph glyph-name="Gdotaccent" unicode="&#x120;" horiz-adv-x="1500" 
d="M1486 531l-112 -531h-255l8 38q-133 -62 -292 -62q-207 0 -355.5 101t-213.5 271.5t-21 377.5t181.5 377.5t329 271.5t398.5 101q51 0 100 -7q128 -19 213.5 -86.5t121.5 -163.5q31 -90 6.5 -174.5t-83 -131.5t-128.5 -23q-61 27 -67 84t24 106.5t78 53.5q37 3 45 47.5
t-21 103t-102 102t-196 45.5q-138 -3 -266.5 -97t-226 -253.5t-139.5 -353.5q-41 -195 -11.5 -356t118.5 -256.5t225 -95.5q66 0 140 20q78 21 155 63l82 383h-210l10 45h464zM1031 1856v0q59 0 92 -41.5t20 -100.5q-12 -60 -63 -101.5t-110 -41.5t-91.5 41.5t-20.5 101.5
q13 59 63.5 100.5t109.5 41.5z" />
    <glyph glyph-name="gdotaccent" unicode="&#x121;" horiz-adv-x="1232" 
d="M309 238q5 -50 79.5 -57.5t185.5 -0.5q122 8 246 -1t208.5 -71.5t87.5 -214.5q-2 -102 -74.5 -193t-207.5 -149t-323 -58q-165 0 -271 35t-156 91t-47 121t57.5 127t158.5 108q-86 9 -117.5 63t-10 126t95.5 134.5t199 88.5q-65 47 -96 121q-32 74 -14 160
q33 156 184 260q148 105 351 105q40 1 111 -13q115 178 208.5 243.5t154.5 55t79.5 -62t-17.5 -106.5q-47 -64 -104.5 -81.5t-94.5 1.5t-24 64q17 53 4 51.5t-42.5 -34.5t-60 -74.5t-47.5 -68.5q128 -36 176 -116q55 -84 27 -214q-32 -150 -191 -262q-152 -100 -344 -101
q-142 0 -236 54l-21.5 -10t-48 -28t-46.5 -41.5t-19 -51.5zM830 993q-82 0 -159.5 -93.5t-105.5 -225.5t10 -225t119 -93q82 0 159.5 93t105.5 225t-10 225.5t-119 93.5zM515 -462q124 0 210.5 32t140 81.5t77.5 105.5t21 105.5t-30 81t-73 31.5h-471q-42 -2 -82 -34
t-67.5 -81.5t-33 -104.5t21.5 -104.5t95.5 -81t190.5 -31.5zM918 1501v0q59 0 92 -41.5t20 -100.5q-12 -60 -63 -101.5t-110 -41.5t-91.5 41.5t-20.5 101.5q13 59 63.5 100.5t109.5 41.5z" />
    <glyph glyph-name="uni0122" unicode="&#x122;" horiz-adv-x="1500" 
d="M1486 531l-112 -531h-255l8 38q-133 -62 -292 -62q-207 0 -355.5 101t-213.5 271.5t-21 377.5t181.5 377.5t329 271.5t398.5 101q51 0 100 -7q128 -19 213.5 -86.5t121.5 -163.5q31 -90 6.5 -174.5t-83 -131.5t-128.5 -23q-61 27 -67 84t24 106.5t78 53.5q37 3 45 47.5
t-21 103t-102 102t-196 45.5q-138 -3 -266.5 -97t-226 -253.5t-139.5 -353.5q-41 -195 -11.5 -356t118.5 -256.5t225 -95.5q66 0 140 20q78 21 155 63l82 383h-210l10 45h464zM758 -97v0q46 0 65.5 -25.5t18 -65.5t-20.5 -86.5t-51 -90t-73 -74.5t-86 -42q-4 0 -5.5 2
t-0.5 5t4 5q37 18 66.5 56t39.5 71.5t-10 37.5q-38 5 -58.5 31.5t-15.5 64.5q8 47 45 79t82 32z" />
    <glyph glyph-name="uni0123" unicode="&#x123;" horiz-adv-x="1232" 
d="M309 238q5 -50 79.5 -57.5t185.5 -0.5q122 8 246 -1t208.5 -71.5t87.5 -214.5q-2 -102 -74.5 -193t-207.5 -149t-323 -58q-165 0 -271 35t-156 91t-47 121t57.5 127t158.5 108q-86 9 -117.5 63t-10 126t95.5 134.5t199 88.5q-65 47 -96 121q-32 74 -14 160
q33 156 184 260q148 105 351 105q40 1 111 -13q115 178 208.5 243.5t154.5 55t79.5 -62t-17.5 -106.5q-47 -64 -104.5 -81.5t-94.5 1.5t-24 64q17 53 4 51.5t-42.5 -34.5t-60 -74.5t-47.5 -68.5q128 -36 176 -116q55 -84 27 -214q-32 -150 -191 -262q-152 -100 -344 -101
q-142 0 -236 54l-21.5 -10t-48 -28t-46.5 -41.5t-19 -51.5zM830 993q-82 0 -159.5 -93.5t-105.5 -225.5t10 -225t119 -93q82 0 159.5 93t105.5 225t-10 225.5t-119 93.5zM515 -462q124 0 210.5 32t140 81.5t77.5 105.5t21 105.5t-30 81t-73 31.5h-471q-42 -2 -82 -34
t-67.5 -81.5t-33 -104.5t21.5 -104.5t95.5 -81t190.5 -31.5zM833 1236v0q-46 0 -65.5 25.5t-18 66t20.5 86.5t51 89.5t73 75t86 41.5q4 1 5.5 -1.5t0.5 -5.5t-4 -5q-37 -18 -66.5 -56t-39.5 -71t10 -38q38 -4 58.5 -30.5t15.5 -65.5q-8 -47 -45 -79t-82 -32z" />
    <glyph glyph-name="Hcircumflex" unicode="&#x124;" horiz-adv-x="1223" 
d="M1156 1455h257l-310 -1455h-256l157 737h-472l-156 -737h-256l309 1455h256l-143 -674h471zM930 1887v0l196 -342h-56l-181 203l-268 -203h-56l340 342h25z" />
    <glyph glyph-name="hcircumflex" unicode="&#x125;" horiz-adv-x="1145" 
d="M1126 948q34 -44 47.5 -110.5t-2.5 -150.5l-146 -687h-257l153 722q20 88 -21 157q-44 67 -129 67q-81 0 -153 -67q-68 -67 -89 -157l-153 -722h-256l309 1455h256l-119 -562q146 135 326 137q156 5 234 -82zM896 1887v0l196 -342h-56l-181 203l-268 -203h-56l340 342h25
z" />
    <glyph glyph-name="Hbar" unicode="&#x126;" horiz-adv-x="1223" 
d="M1061 1008l95 447h256l-95 -447h95l-9 -43h-95l-205 -965h-256l157 737h-471l-157 -737h-256l205 965h-93l9 43h93l95 447h256l-95 -447h471zM581 965l-39 -184h471l39 184h-471z" />
    <glyph glyph-name="hbar" unicode="&#x127;" horiz-adv-x="1145" 
d="M634 1215l-68 -322q146 135 326 137q156 5 234 -82q33 -44 47 -110.5t-2 -150.5l-146 -687h-257l153 722q20 88 -21 157q-44 67 -129 67q-81 0 -153 -67q-68 -67 -89 -157l-153 -722h-256l258 1215h-120l9 43h120l42 197h256l-42 -197h381l-9 -43h-381z" />
    <glyph glyph-name="Itilde" unicode="&#x128;" horiz-adv-x="496" 
d="M430 1455h256l-310 -1455h-256zM770 1741v0l30 -5q-23 -87 -86.5 -122.5t-164.5 -6.5l-28 9.5t-69 20.5t-84 17t-75 -0.5t-41 -31.5l-32 4q38 173 237 124l29.5 -9t73.5 -20t89 -16t78.5 2t42.5 34z" />
    <glyph glyph-name="itilde" unicode="&#x129;" horiz-adv-x="525" 
d="M135 0v0l214 1008h256l-214 -1008h-256zM785 1294v0l30 -5q-23 -87 -86.5 -122.5t-164.5 -6.5l-28 9.5t-69 20.5t-84 17t-75 -0.5t-41 -31.5l-32 4q38 173 237 124l29.5 -9t73.5 -20t89 -16t78.5 2t42.5 34z" />
    <glyph glyph-name="Imacron" unicode="&#x12a;" horiz-adv-x="496" 
d="M430 1455h256l-310 -1455h-256zM242 1738v0h561l-19 -90h-561z" />
    <glyph glyph-name="imacron" unicode="&#x12b;" horiz-adv-x="525" 
d="M135 0v0l214 1008h256l-214 -1008h-256zM257 1291v0h561l-19 -90h-561z" />
    <glyph glyph-name="Ibreve" unicode="&#x12c;" horiz-adv-x="496" 
d="M430 1455h256l-310 -1455h-256zM780 1889v0h55q-8 -39 -38 -98.5t-77.5 -117.5t-108.5 -98t-131 -40q-77 0 -122 40t-66 98t-23.5 117.5t6.5 98.5h58q-14 -99 41.5 -148t141 -48.5t161.5 50t103 146.5z" />
    <glyph glyph-name="ibreve" unicode="&#x12d;" horiz-adv-x="525" 
d="M135 0v0l214 1008h256l-214 -1008h-256zM795 1442v0h55q-8 -39 -38 -98.5t-77.5 -117.5t-108.5 -98t-131 -40q-77 0 -122 40t-66 98t-23.5 117.5t6.5 98.5h58q-14 -99 41.5 -148t141 -48.5t161.5 50t103 146.5z" />
    <glyph glyph-name="Iogonek" unicode="&#x12e;" horiz-adv-x="496" 
d="M324 0h-204l309 1455h256l-309 -1455h-7q-99 -53 -156 -131q-59 -79 -71 -149t26 -98.5t131 18.5h51q-41 -38 -105.5 -60.5t-129 -17.5t-105.5 50q-47 61 7 139t146 147q91 68 161 102z" />
    <glyph glyph-name="iogonek" unicode="&#x12f;" horiz-adv-x="525" 
d="M512 1172q-59 0 -92 42t-20 101q12 59 63 100.5t110 41.5t91.5 -41.5t20.5 -100.5q-13 -59 -63.5 -101t-109.5 -42zM339 0h-204l214 1008h256l-214 -1008h-7q-99 -53 -156 -131q-59 -79 -71 -149t26 -98.5t131 18.5h51q-41 -38 -105.5 -60.5t-129 -17.5t-105.5 50
q-47 61 7 139t146 147q91 68 161 102z" />
    <glyph glyph-name="Idotaccent" unicode="&#x130;" horiz-adv-x="496" 
d="M430 1455h256l-310 -1455h-256zM547 1856v0q59 0 92 -41.5t20 -100.5q-12 -60 -63 -101.5t-110 -41.5t-91.5 41.5t-20.5 101.5q13 59 63.5 100.5t109.5 41.5z" />
    <glyph glyph-name="dotlessi" unicode="&#x131;" horiz-adv-x="525" 
d="M135 0v0l214 1008h256l-214 -1008h-256z" />
    <glyph glyph-name="uni0136" unicode="&#x136;" horiz-adv-x="1364" 
d="M837 930l467 -930h-320l-370 734l-101 -89q-109 -514 -137 -645h-256l15 65.5t35 157.5l214 1008q19 92 46 224h255l-14 -66t-144 -679l845 745h60zM658 -97v0q46 0 65.5 -25.5t18 -65.5t-20.5 -86.5t-51 -90t-73 -74.5t-86 -42q-4 0 -5.5 2t-0.5 5t4 5q37 18 66.5 56
t39.5 71.5t-10 37.5q-38 5 -58.5 31.5t-15.5 64.5q8 47 45 79t82 32z" />
    <glyph glyph-name="uni0137" unicode="&#x137;" horiz-adv-x="1172" 
d="M833 701l279 -701h-300l-207 517l-144 -115l-85 -402h-256l309 1455h256l-210 -988l433 353q26 21 64 52l76 62t90 74h57l-61.5 -53.5t-151.5 -130.5zM562 -97v0q46 0 65.5 -25.5t18 -65.5t-20.5 -86.5t-51 -90t-73 -74.5t-86 -42q-4 0 -5.5 2t-0.5 5t4 5q37 18 66.5 56
t39.5 71.5t-10 37.5q-38 5 -58.5 31.5t-15.5 64.5q8 47 45 79t82 32z" />
    <glyph glyph-name="Lacute" unicode="&#x139;" horiz-adv-x="1192" 
d="M384 44h728l-10 -44h-982l309 1455h255zM609 1877v0h215l-424 -342l-51 38z" />
    <glyph glyph-name="lacute" unicode="&#x13a;" horiz-adv-x="496" 
d="M429 1455h256l-309 -1455h-256zM610 1877v0h215l-424 -342l-51 38z" />
    <glyph glyph-name="uni013B" unicode="&#x13b;" horiz-adv-x="1192" 
d="M384 44h728l-10 -44h-982l309 1455h255zM557 -97v0q46 0 65.5 -25.5t18 -65.5t-20.5 -86.5t-51 -90t-73 -74.5t-86 -42q-4 0 -5.5 2t-0.5 5t4 5q37 18 66.5 56t39.5 71.5t-10 37.5q-38 5 -58.5 31.5t-15.5 64.5q8 47 45 79t82 32z" />
    <glyph glyph-name="uni013C" unicode="&#x13c;" horiz-adv-x="496" 
d="M429 1455h256l-309 -1455h-256zM194 -97v0q46 0 65.5 -25.5t18 -65.5t-20.5 -86.5t-51 -90t-73 -74.5t-86 -42q-4 0 -5.5 2t-0.5 5t4 5q37 18 66.5 56t39.5 71.5t-10 37.5q-38 5 -58.5 31.5t-15.5 64.5q8 47 45 79t82 32z" />
    <glyph glyph-name="Lcaron" unicode="&#x13d;" horiz-adv-x="1192" 
d="M384 44h728l-10 -44h-982l309 1455h255zM1131 1408v0q46 0 65.5 -25.5t18 -66t-20.5 -87t-51 -90t-73 -74.5t-86 -42q-4 0 -5.5 2t-0.5 5t4 5q37 18 66.5 56.5t39.5 71.5t-10 37q-38 5 -58.5 31.5t-15.5 65.5q8 47 45 79t82 32z" />
    <glyph glyph-name="lcaron" unicode="&#x13e;" horiz-adv-x="749" 
d="M429 1455h256l-309 -1455h-256zM914 1408v0q46 0 65.5 -25.5t18 -66t-20.5 -87t-51 -90t-73 -74.5t-86 -42q-4 0 -5.5 2t-0.5 5t4 5q37 18 66.5 56.5t39.5 71.5t-10 37q-38 5 -58.5 31.5t-15.5 65.5q8 47 45 79t82 32z" />
    <glyph glyph-name="Ldot" unicode="&#x13f;" horiz-adv-x="1192" 
d="M384 44h728l-10 -44h-982l309 1455h255zM815 849q50 0 78 -35.5t17 -85.5q-10 -51 -53 -86.5t-94 -35.5q-50 0 -78 35.5t-17 86.5q11 50 54 85.5t93 35.5z" />
    <glyph glyph-name="ldot" unicode="&#x140;" horiz-adv-x="846" 
d="M429 1455h256l-309 -1455h-256zM676 849q50 0 78 -35.5t17 -85.5q-10 -51 -53 -86.5t-94 -35.5q-50 0 -78 35.5t-17 86.5q11 50 54 85.5t93 35.5z" />
    <glyph glyph-name="Lslash" unicode="&#x141;" horiz-adv-x="1340" 
d="M689 781l-157 -737h727l-9 -44h-982l128 602l-141 -86l-18 35l170 104l170 800h255l-132 -622l326 199l18 -35z" />
    <glyph glyph-name="lslash" unicode="&#x142;" horiz-adv-x="759" 
d="M396 668l167 787h256l-129 -606l120 73l18 -35l-149 -91l-169 -796h-256l131 616l-127 -78l-16 35z" />
    <glyph glyph-name="Nacute" unicode="&#x143;" horiz-adv-x="1330" 
d="M1470 1455h50l-310 -1455h-49l-712 1317l-280 -1317h-49l309 1455h284l543 -1008zM1027 1877v0h215l-424 -342l-51 38z" />
    <glyph glyph-name="nacute" unicode="&#x144;" 
d="M1117 944q37 -43 55.5 -101t-2.5 -154l-146 -689h-256l153 722q21 91 -20 157q-40 67 -131 66q-81 0 -153 -67q-69 -66 -88 -156l-153 -722h-256l214 1008h256l-24 -113q145 135 325 135q154 4 226 -86zM934 1430v0h215l-424 -342l-51 38z" />
    <glyph glyph-name="uni0145" unicode="&#x145;" horiz-adv-x="1330" 
d="M1470 1455h50l-310 -1455h-49l-712 1317l-280 -1317h-49l309 1455h284l543 -1008zM611 -97v0q46 0 65.5 -25.5t18 -65.5t-20.5 -86.5t-51 -90t-73 -74.5t-86 -42q-4 0 -5.5 2t-0.5 5t4 5q37 18 66.5 56t39.5 71.5t-10 37.5q-38 5 -58.5 31.5t-15.5 64.5q8 47 45 79t82 32
z" />
    <glyph glyph-name="uni0146" unicode="&#x146;" 
d="M1117 944q37 -43 55.5 -101t-2.5 -154l-146 -689h-256l153 722q21 91 -20 157q-40 67 -131 66q-81 0 -153 -67q-69 -66 -88 -156l-153 -722h-256l214 1008h256l-24 -113q145 135 325 135q154 4 226 -86zM518 -97v0q46 0 65.5 -25.5t18 -65.5t-20.5 -86.5t-51 -90
t-73 -74.5t-86 -42q-4 0 -5.5 2t-0.5 5t4 5q37 18 66.5 56t39.5 71.5t-10 37.5q-38 5 -58.5 31.5t-15.5 64.5q8 47 45 79t82 32z" />
    <glyph glyph-name="Ncaron" unicode="&#x147;" horiz-adv-x="1330" 
d="M1470 1455h50l-310 -1455h-49l-712 1317l-280 -1317h-49l309 1455h284l543 -1008zM1196 1887v0h56l-342 -342h-24l-195 342h56l181 -203z" />
    <glyph glyph-name="ncaron" unicode="&#x148;" 
d="M1117 944q37 -43 55.5 -101t-2.5 -154l-146 -689h-256l153 722q21 91 -20 157q-40 67 -131 66q-81 0 -153 -67q-69 -66 -88 -156l-153 -722h-256l214 1008h256l-24 -113q145 135 325 135q154 4 226 -86zM1103 1440v0h56l-342 -342h-24l-195 342h56l181 -203z" />
    <glyph glyph-name="Eng" unicode="&#x14a;" horiz-adv-x="1330" 
d="M1519 1455v0l-309 -1454v0l-30 -145q-15 -67 -72 -114t-124 -47v0l10 49q47 0 86.5 33t49.5 79l31 144v0l-712 1317l-280 -1317h-49l309 1455h284l543 -1008l214 1008h49z" />
    <glyph glyph-name="eng" unicode="&#x14b;" 
d="M1171 689v0l-141 -661v0v0q-29 -138 -147.5 -235.5t-256.5 -97.5h-102l11 49q68 0 111.5 21.5t73 83t54.5 179.5v0l148 694q20 91 -21 157q-40 67 -131 66q-81 0 -152 -67q-69 -66 -88 -156l-154 -722h-256l215 1008h255l-24 -113q145 135 325 135q154 4 227 -86
q36 -43 54.5 -101t-1.5 -154z" />
    <glyph glyph-name="Omacron" unicode="&#x14c;" horiz-adv-x="1680" 
d="M1154 1476q207 0 355.5 -101t213.5 -271.5t21 -377.5t-181.5 -377.5t-329 -271.5t-398.5 -101t-356 101t-214 271.5t-21 377.5t181.5 377.5t329 271.5t399.5 101zM844 20q136 0 268.5 95t233 255.5t141.5 355.5q42 195 9.5 355t-124.5 255.5t-228 95.5t-268 -95.5
t-233 -255.5t-142 -355t-8.5 -355.5t124 -255.5t227.5 -95zM834 1738v0h561l-19 -90h-561z" />
    <glyph glyph-name="omacron" unicode="&#x14d;" horiz-adv-x="1182" 
d="M1142 890q103 -142 59 -376q-47 -225 -232 -381q-183 -156 -391 -156q-207 0 -319 150q-110 149 -64 368q48 225 224 381q178 158 403 157q220 -1 320 -143zM601 27q69 0 139 64.5t127 173t85 241.5q28 132 17.5 240.5t-53.5 173t-112 64.5q-68 0 -138.5 -64.5t-127 -173
t-84.5 -240.5q-28 -133 -17.5 -241.5t53 -173t111.5 -64.5zM585 1291v0h561l-19 -90h-561z" />
    <glyph glyph-name="Obreve" unicode="&#x14e;" horiz-adv-x="1680" 
d="M1154 1476q207 0 355.5 -101t213.5 -271.5t21 -377.5t-181.5 -377.5t-329 -271.5t-398.5 -101t-356 101t-214 271.5t-21 377.5t181.5 377.5t329 271.5t399.5 101zM844 20q136 0 268.5 95t233 255.5t141.5 355.5q42 195 9.5 355t-124.5 255.5t-228 95.5t-268 -95.5
t-233 -255.5t-142 -355t-8.5 -355.5t124 -255.5t227.5 -95zM1372 1889v0h55q-8 -39 -38 -98.5t-77.5 -117.5t-108.5 -98t-131 -40q-77 0 -122 40t-66 98t-23.5 117.5t6.5 98.5h58q-14 -99 41.5 -148t141 -48.5t161.5 50t103 146.5z" />
    <glyph glyph-name="obreve" unicode="&#x14f;" horiz-adv-x="1182" 
d="M1142 890q103 -142 59 -376q-47 -225 -232 -381q-183 -156 -391 -156q-207 0 -319 150q-110 149 -64 368q48 225 224 381q178 158 403 157q220 -1 320 -143zM601 27q69 0 139 64.5t127 173t85 241.5q28 132 17.5 240.5t-53.5 173t-112 64.5q-68 0 -138.5 -64.5t-127 -173
t-84.5 -240.5q-28 -133 -17.5 -241.5t53 -173t111.5 -64.5zM1123 1442v0h55q-8 -39 -38 -98.5t-77.5 -117.5t-108.5 -98t-131 -40q-77 0 -122 40t-66 98t-23.5 117.5t6.5 98.5h58q-14 -99 41.5 -148t141 -48.5t161.5 50t103 146.5z" />
    <glyph glyph-name="Ohungarumlaut" unicode="&#x150;" horiz-adv-x="1680" 
d="M1154 1476q207 0 355.5 -101t213.5 -271.5t21 -377.5t-181.5 -377.5t-329 -271.5t-398.5 -101t-356 101t-214 271.5t-21 377.5t181.5 377.5t329 271.5t399.5 101zM844 20q136 0 268.5 95t233 255.5t141.5 355.5q42 195 9.5 355t-124.5 255.5t-228 95.5t-268 -95.5
t-233 -255.5t-142 -355t-8.5 -355.5t124 -255.5t227.5 -95zM1419 1877v0h215l-424 -342l-50 38zM1094 1877v0h215l-424 -342l-51 38z" />
    <glyph glyph-name="ohungarumlaut" unicode="&#x151;" horiz-adv-x="1182" 
d="M1142 890q103 -142 59 -376q-47 -225 -232 -381q-183 -156 -391 -156q-207 0 -319 150q-110 149 -64 368q48 225 224 381q178 158 403 157q220 -1 320 -143zM601 27q69 0 139 64.5t127 173t85 241.5q28 132 17.5 240.5t-53.5 173t-112 64.5q-68 0 -138.5 -64.5t-127 -173
t-84.5 -240.5q-28 -133 -17.5 -241.5t53 -173t111.5 -64.5zM1170 1430v0h215l-424 -342l-50 38zM845 1430v0h215l-424 -342l-51 38z" />
    <glyph glyph-name="OE" unicode="&#x152;" horiz-adv-x="2180" 
d="M1537 760v0l-153 -720h685l-9 -40h-940l7 29q-142 -53 -292 -53q-207 0 -356 101t-214 272q-65 170 -21 377t182 378q137 170 329 271t399 101q150 0 269 -53l7 32h939l-9 -44h-685l-129 -606h437l-10 -46zM1113 115v0l38 30l248 1162q-13 15 -27 30q-91 95 -227 95
q-137 0 -269 -95t-233 -256q-100 -160 -142 -355q-41 -195 -9 -355q33 -160 125 -256q91 -95 227 -95q137 0 269 95z" />
    <glyph glyph-name="oe" unicode="&#x153;" horiz-adv-x="1976" 
d="M601 27q69 0 139 64.5t126.5 173t85.5 241.5q28 132 17.5 240.5t-53.5 173t-112 64.5t-139 -64.5t-126.5 -173t-84.5 -240.5q-29 -133 -18.5 -241.5t53.5 -173t112 -64.5zM1613 991q-78 0 -176 -111t-145 -283h464q41 199 -0.5 296.5t-142.5 97.5zM1036 197
q-31 -34 -67 -64q-183 -156 -391 -156q-207 0 -319 150q-110 149 -64 368q48 225 224 381q178 158 403 157q219 -1 320 -143q22 -30 37 -65q26 28 55 54q173 157 393 157q219 0 315 -133q98 -133 60 -355h-723q-14 -50 -23 -127.5t7 -155t74 -129.5t177 -51q129 3 234 91
q106 88 180 232h32q-84 -201 -240 -315q-155 -113 -336 -113q-200 0 -309 150q-23 32 -39 67z" />
    <glyph glyph-name="Racute" unicode="&#x154;" horiz-adv-x="1286" 
d="M1016 738l210 -738h-303l-194 703l-201 1l-103 -483q-20 -93 -48 -221h-257l14.5 65t33.5 156q235 1105 262 1235h557q181 0 288 -110q106 -110 73 -266q-30 -139 -156 -243q-42 -34 -82 -56t-67 -32.5zM926 843q127 95 157 236q30 143 -56 237q-86 95 -255 95h-94
l-141 -663h94q169 0 295 95zM977 1877v0h215l-424 -342l-51 38z" />
    <glyph glyph-name="racute" unicode="&#x155;" horiz-adv-x="971" 
d="M852 1030q145 -3 195.5 -75t21 -152t-124.5 -108q-58 -11 -85 26.5t-19.5 88.5t52.5 79q28 18 14.5 42.5t-57 36t-104 -8.5t-125.5 -90q-41 -46 -66.5 -100.5t-38.5 -116.5l-139 -652h-256l215 1008h256l-26 -121q119 143 287 143v0v0zM872 1430v0h215l-424 -342l-51 38z
" />
    <glyph glyph-name="uni0156" unicode="&#x156;" horiz-adv-x="1286" 
d="M1016 738l210 -738h-303l-194 703l-201 1l-103 -483q-20 -93 -48 -221h-257l14.5 65t33.5 156q235 1105 262 1235h557q181 0 288 -110q106 -110 73 -266q-30 -139 -156 -243q-42 -34 -82 -56t-67 -32.5zM926 843q127 95 157 236q30 143 -56 237q-86 95 -255 95h-94
l-141 -663h94q169 0 295 95zM619 -97v0q46 0 65.5 -25.5t18 -65.5t-20.5 -86.5t-51 -90t-73 -74.5t-86 -42q-4 0 -5.5 2t-0.5 5t4 5q37 18 66.5 56t39.5 71.5t-10 37.5q-38 5 -58.5 31.5t-15.5 64.5q8 47 45 79t82 32z" />
    <glyph glyph-name="uni0157" unicode="&#x157;" horiz-adv-x="971" 
d="M852 1030q145 -3 195.5 -75t21 -152t-124.5 -108q-58 -11 -85 26.5t-19.5 88.5t52.5 79q28 18 14.5 42.5t-57 36t-104 -8.5t-125.5 -90q-41 -46 -66.5 -100.5t-38.5 -116.5l-139 -652h-256l215 1008h256l-26 -121q119 143 287 143v0v0zM194 -97v0q46 0 65.5 -25.5
t18 -65.5t-20.5 -86.5t-51 -90t-73 -74.5t-86 -42q-4 0 -5.5 2t-0.5 5t4 5q37 18 66.5 56t39.5 71.5t-10 37.5q-38 5 -58.5 31.5t-15.5 64.5q8 47 45 79t82 32z" />
    <glyph glyph-name="Rcaron" unicode="&#x158;" horiz-adv-x="1286" 
d="M1016 738l210 -738h-303l-194 703l-201 1l-103 -483q-20 -93 -48 -221h-257l14.5 65t33.5 156q235 1105 262 1235h557q181 0 288 -110q106 -110 73 -266q-30 -139 -156 -243q-42 -34 -82 -56t-67 -32.5zM926 843q127 95 157 236q30 143 -56 237q-86 95 -255 95h-94
l-141 -663h94q169 0 295 95zM1146 1887v0h56l-342 -342h-24l-195 342h56l181 -203z" />
    <glyph glyph-name="rcaron" unicode="&#x159;" horiz-adv-x="971" 
d="M852 1030q145 -3 195.5 -75t21 -152t-124.5 -108q-58 -11 -85 26.5t-19.5 88.5t52.5 79q28 18 14.5 42.5t-57 36t-104 -8.5t-125.5 -90q-41 -46 -66.5 -100.5t-38.5 -116.5l-139 -652h-256l215 1008h256l-26 -121q119 143 287 143v0v0zM1041 1440v0h56l-342 -342h-24
l-195 342h56l181 -203z" />
    <glyph glyph-name="Sacute" unicode="&#x15a;" horiz-adv-x="1222" 
d="M1217 654q35 -90 0 -227q-50 -190 -220 -323q-89 -68 -191.5 -96.5t-222.5 -28.5q-148 1 -233 33.5t-124.5 79t-51.5 90.5q-26 91 -2 175.5t81 130.5t127 22q60 -27 66 -84t-24 -106t-78 -53q-15 -2 -24.5 -35t6.5 -76.5t77.5 -78t187.5 -40.5q147 -5 254 61
q68 42 105 108q34 56 45 133q6 61 -20 113q-25 43 -92 87q-66 42 -164 82q-97 41 -143 68q-271 154 -223 390q36 168 177 279q161 118 375 118q276 0 348 -172q31 -87 8.5 -170t-79 -129t-126.5 -22q-60 27 -66 84t24 106.5t78 53.5q42 4 50 49t-45 95l-1.5 1l-3 2t-4.5 4
q-26 19 -66 34q-52 17 -117 14q-119 -2 -207 -66q-54 -36 -82 -98q-31 -59 -30 -123q-1 -54 33 -96q42 -54 227 -127q180 -72 243 -114q93 -63 128 -148zM1003 1877v0h215l-424 -342l-51 38z" />
    <glyph glyph-name="sacute" unicode="&#x15b;" horiz-adv-x="905" 
d="M782 581v0q137 -95 89 -276q-41 -140 -125.5 -211t-181 -93.5t-172.5 -17.5q-157 13 -214.5 84t-41 151t81.5 119q82 40 118.5 -2t31 -106.5t-52.5 -91.5q-22 -12 -17.5 -35t38 -42t97.5 -19q135 5 200.5 55t79.5 109t-7 91q-21 34 -77 61q-75 36 -139 57q-80 32 -117 49
q-162 90 -118 280q31 125 130 208q106 81 257 83q171 2 240 -57.5t56.5 -134.5t-84.5 -119q-69 -35 -109 5.5t-38.5 99t55.5 78.5q36 13 2.5 42.5t-131.5 33.5q-76 1 -138 -44q-50 -34 -68 -92q-15 -54 16 -96q27 -33 162 -89q127 -46 177 -80zM811 1430v0h215l-424 -342
l-51 38z" />
    <glyph glyph-name="Scircumflex" unicode="&#x15c;" horiz-adv-x="1222" 
d="M1217 654q35 -90 0 -227q-50 -190 -220 -323q-89 -68 -191.5 -96.5t-222.5 -28.5q-148 1 -233 33.5t-124.5 79t-51.5 90.5q-26 91 -2 175.5t81 130.5t127 22q60 -27 66 -84t-24 -106t-78 -53q-15 -2 -24.5 -35t6.5 -76.5t77.5 -78t187.5 -40.5q147 -5 254 61
q68 42 105 108q34 56 45 133q6 61 -20 113q-25 43 -92 87q-66 42 -164 82q-97 41 -143 68q-271 154 -223 390q36 168 177 279q161 118 375 118q276 0 348 -172q31 -87 8.5 -170t-79 -129t-126.5 -22q-60 27 -66 84t24 106.5t78 53.5q42 4 50 49t-45 95l-1.5 1l-3 2t-4.5 4
q-26 19 -66 34q-52 17 -117 14q-119 -2 -207 -66q-54 -36 -82 -98q-31 -59 -30 -123q-1 -54 33 -96q42 -54 227 -127q180 -72 243 -114q93 -63 128 -148zM959 1887v0l196 -342h-56l-181 203l-268 -203h-56l340 342h25z" />
    <glyph glyph-name="scircumflex" unicode="&#x15d;" horiz-adv-x="905" 
d="M782 581v0q137 -95 89 -276q-41 -140 -125.5 -211t-181 -93.5t-172.5 -17.5q-157 13 -214.5 84t-41 151t81.5 119q82 40 118.5 -2t31 -106.5t-52.5 -91.5q-22 -12 -17.5 -35t38 -42t97.5 -19q135 5 200.5 55t79.5 109t-7 91q-21 34 -77 61q-75 36 -139 57q-80 32 -117 49
q-162 90 -118 280q31 125 130 208q106 81 257 83q171 2 240 -57.5t56.5 -134.5t-84.5 -119q-69 -35 -109 5.5t-38.5 99t55.5 78.5q36 13 2.5 42.5t-131.5 33.5q-76 1 -138 -44q-50 -34 -68 -92q-15 -54 16 -96q27 -33 162 -89q127 -46 177 -80zM767 1440v0l196 -342h-56
l-181 203l-268 -203h-56l340 342h25z" />
    <glyph glyph-name="Scedilla" unicode="&#x15e;" horiz-adv-x="1222" 
d="M547 -20q-123 4 -197 33q-84 32 -124 78.5t-51 90.5q-27 91 -3 175.5t81 130.5t126 22q61 -27 66.5 -84t-24 -106t-76.5 -53q-17 -2 -26.5 -35t7 -76.5t78 -78t187.5 -40.5q147 -5 254 61q68 42 105 108q34 56 44 133q7 61 -20 113q-25 43 -91 87q-67 42 -164 82
q-97 41 -144 68q-271 154 -223 390q36 168 178 279q161 118 375 118q277 0 348 -172q31 -87 8 -170t-79 -129t-126 -22q-60 27 -66 84t24 106.5t78 53.5q43 4 50.5 49t-45.5 95l-1 1l-4 2t-3 3h-1v1q-26 19 -66 34q-52 17 -118 14q-118 -2 -207 -66q-54 -36 -82 -98
q-30 -59 -30 -123q0 -54 34 -96q41 -54 227 -127q179 -72 242 -114q93 -63 129 -148q35 -90 0 -227q-51 -190 -221 -323q-88 -68 -191 -96q-96 -27 -207 -29l-48 -86q9 1 47 -3.5t80 -20t69 -47t15 -85.5q-17 -61 -75 -104.5t-128.5 -62t-125.5 -2t-67 76.5h52
q24 -42 68.5 -41t86 36.5t56.5 95.5q8 46 -10.5 72.5t-48.5 39t-55 15.5t-32 2z" />
    <glyph glyph-name="scedilla" unicode="&#x15f;" horiz-adv-x="905" 
d="M392 -17h-1q-156 13 -213.5 84t-41 151t82.5 119q80 40 117 -2t31.5 -106.5t-52.5 -91.5q-22 -12 -17.5 -35t38 -42t97.5 -19q135 5 200.5 55t79.5 109t-7 91q-21 34 -77 61q-75 36 -139 57q-80 32 -118 49q-161 90 -117 280q30 125 130 208q105 81 257 83
q171 2 240 -57.5t56.5 -134.5t-84.5 -119q-69 -35 -109 5.5t-38.5 99t55.5 78.5q36 13 2.5 42.5t-131.5 33.5q-76 1 -139 -44q-49 -34 -67 -92q-16 -54 15 -96q27 -33 162 -89q128 -46 177 -80q137 -95 90 -276q-41 -140 -125.5 -211t-181.5 -93q-65 -16 -121 -18l-50 -90
q9 1 47 -3.5t80 -20t69 -47t15 -85.5q-17 -61 -75 -104.5t-128.5 -62t-125.5 -2t-67 76.5h52q24 -42 68.5 -41t86 36.5t56.5 95.5q8 46 -10.5 72.5t-48.5 39t-55 15.5t-32 2z" />
    <glyph glyph-name="Scaron" unicode="&#x160;" horiz-adv-x="1222" 
d="M1217 654q35 -90 0 -227q-50 -190 -220 -323q-89 -68 -191.5 -96.5t-222.5 -28.5q-148 1 -233 33.5t-124.5 79t-51.5 90.5q-26 91 -2 175.5t81 130.5t127 22q60 -27 66 -84t-24 -106t-78 -53q-15 -2 -24.5 -35t6.5 -76.5t77.5 -78t187.5 -40.5q147 -5 254 61
q68 42 105 108q34 56 45 133q6 61 -20 113q-25 43 -92 87q-66 42 -164 82q-97 41 -143 68q-271 154 -223 390q36 168 177 279q161 118 375 118q276 0 348 -172q31 -87 8.5 -170t-79 -129t-126.5 -22q-60 27 -66 84t24 106.5t78 53.5q42 4 50 49t-45 95l-1.5 1l-3 2t-4.5 4
q-26 19 -66 34q-52 17 -117 14q-119 -2 -207 -66q-54 -36 -82 -98q-31 -59 -30 -123q-1 -54 33 -96q42 -54 227 -127q180 -72 243 -114q93 -63 128 -148zM1172 1887v0h56l-342 -342h-24l-195 342h56l181 -203z" />
    <glyph glyph-name="scaron" unicode="&#x161;" horiz-adv-x="905" 
d="M782 581v0q137 -95 89 -276q-41 -140 -125.5 -211t-181 -93.5t-172.5 -17.5q-157 13 -214.5 84t-41 151t81.5 119q82 40 118.5 -2t31 -106.5t-52.5 -91.5q-22 -12 -17.5 -35t38 -42t97.5 -19q135 5 200.5 55t79.5 109t-7 91q-21 34 -77 61q-75 36 -139 57q-80 32 -117 49
q-162 90 -118 280q31 125 130 208q106 81 257 83q171 2 240 -57.5t56.5 -134.5t-84.5 -119q-69 -35 -109 5.5t-38.5 99t55.5 78.5q36 13 2.5 42.5t-131.5 33.5q-76 1 -138 -44q-50 -34 -68 -92q-15 -54 16 -96q27 -33 162 -89q127 -46 177 -80zM980 1440v0h56l-342 -342h-24
l-195 342h56l181 -203z" />
    <glyph glyph-name="uni0162" unicode="&#x162;" horiz-adv-x="1214" 
d="M582 0h-102l300 1411h-390l9 44h1034l-9 -44h-390l-300 -1411h-101l-60 -107q9 1 47 -3.5t80 -20t69 -47t15 -85.5q-17 -61 -75 -104.5t-128.5 -62t-125.5 -2t-67 76.5h52q24 -42 68.5 -41t86 36.5t56.5 95.5q8 46 -10.5 72.5t-48.5 39t-55 15.5t-32 2z" />
    <glyph glyph-name="uni0163" unicode="&#x163;" horiz-adv-x="777" 
d="M337 -13q-136 39 -90 253l153 720h-136l10 48q156 0 281.5 85.5t182.5 250.5l-72 -336h201l-10 -48h-201l-148 -698q-12 -56 -13 -95.5t14 -63.5q31 -44 115 -21q28 8 103 38l4 -55q-40 -20 -120 -47q-139 -44 -227 -38l-48 -87q9 1 47 -3.5t80 -20t69 -47t15 -85.5
q-17 -61 -75 -104.5t-128.5 -62t-125.5 -2t-67 76.5h52q24 -42 68.5 -41t86 36.5t56.5 95.5q8 46 -10.5 72.5t-48.5 39t-55 15.5t-32 2z" />
    <glyph glyph-name="Tcaron" unicode="&#x164;" horiz-adv-x="1214" 
d="M1434 1455l-10 -44h-390l-300 -1411h-254l300 1411h-390l9 44h1035zM1168 1887v0h56l-342 -342h-24l-195 342h56l181 -203z" />
    <glyph glyph-name="tcaron" unicode="&#x165;" horiz-adv-x="777" 
d="M727 120l4 -55q-40 -20 -120 -47q-441 -140 -364 222l153 720h-136l10 48q156 0 281.5 85.5t182.5 250.5l-72 -336h201l-10 -48h-201l-148 -698q-12 -56 -13 -95.5t14 -63.5q31 -44 115 -21q28 8 103 38zM1108 1473v0q46 0 65.5 -25.5t18 -66t-20.5 -87t-51 -90
t-73 -74.5t-86 -42q-4 0 -5.5 2t-0.5 5t4 5q37 18 66.5 56.5t39.5 71.5t-10 37q-38 5 -58.5 31.5t-15.5 65.5q8 47 45 79t82 32z" />
    <glyph glyph-name="Tbar" unicode="&#x166;" horiz-adv-x="1214" 
d="M639 749l141 662h-390l9 44h1034l-9 -44h-390l-141 -662h385l-9 -43h-385l-150 -706h-254l150 706h-384l9 43h384z" />
    <glyph glyph-name="tbar" unicode="&#x167;" horiz-adv-x="781" 
d="M563 503l-51 -241q-12 -56 -13 -95.5t14 -63.5q31 -44 115 -21q28 8 103 38l4 -55q-40 -20 -120 -47q-441 -140 -364 222l56 263h-140l9 44h140l88 413h-136l10 48q156 0 281.5 85.5t182.5 250.5l-72 -336h201l-10 -48h-201l-88 -413h203l-9 -44h-203z" />
    <glyph glyph-name="Utilde" unicode="&#x168;" horiz-adv-x="1376" 
d="M1565 1455l-214 -1006q-48 -225 -230 -349q-180 -123 -440 -123q-268 0 -395 123q-119 118 -70 349l214 1006h258l-214 -1006q-38 -187 51 -282q89 -96 286 -96q198 0 323 93q128 92 169 285l214 1006h48zM1210 1741v0l30 -5q-23 -87 -86.5 -122.5t-164.5 -6.5l-28 9.5
t-69 20.5t-84 17t-75 -0.5t-41 -31.5l-32 4q38 173 237 124l29.5 -9t73.5 -20t89 -16t78.5 2t42.5 34z" />
    <glyph glyph-name="utilde" unicode="&#x169;" 
d="M983 1008h256l-215 -1008h-256l24 113q-144 -135 -324 -135q-154 -4 -227 86q-36 43 -54.5 101t1.5 154l147 689h256l-154 -722q-20 -91 21 -157q40 -67 131 -66q81 0 152 67q69 66 88 156zM1094 1294v0l30 -5q-23 -87 -86.5 -122.5t-164.5 -6.5l-28 9.5t-69 20.5t-84 17
t-75 -0.5t-41 -31.5l-32 4q38 173 237 124l29.5 -9t73.5 -20t89 -16t78.5 2t42.5 34z" />
    <glyph glyph-name="Umacron" unicode="&#x16a;" horiz-adv-x="1376" 
d="M1565 1455l-214 -1006q-48 -225 -230 -349q-180 -123 -440 -123q-268 0 -395 123q-119 118 -70 349l214 1006h258l-214 -1006q-38 -187 51 -282q89 -96 286 -96q198 0 323 93q128 92 169 285l214 1006h48zM682 1738v0h561l-19 -90h-561z" />
    <glyph glyph-name="umacron" unicode="&#x16b;" 
d="M983 1008h256l-215 -1008h-256l24 113q-144 -135 -324 -135q-154 -4 -227 86q-36 43 -54.5 101t1.5 154l147 689h256l-154 -722q-20 -91 21 -157q40 -67 131 -66q81 0 152 67q69 66 88 156zM566 1291v0h561l-19 -90h-561z" />
    <glyph glyph-name="Ubreve" unicode="&#x16c;" horiz-adv-x="1376" 
d="M1565 1455l-214 -1006q-48 -225 -230 -349q-180 -123 -440 -123q-268 0 -395 123q-119 118 -70 349l214 1006h258l-214 -1006q-38 -187 51 -282q89 -96 286 -96q198 0 323 93q128 92 169 285l214 1006h48zM1220 1889v0h55q-8 -39 -38 -98.5t-77.5 -117.5t-108.5 -98
t-131 -40q-77 0 -122 40t-66 98t-23.5 117.5t6.5 98.5h58q-14 -99 41.5 -148t141 -48.5t161.5 50t103 146.5z" />
    <glyph glyph-name="ubreve" unicode="&#x16d;" 
d="M983 1008h256l-215 -1008h-256l24 113q-144 -135 -324 -135q-154 -4 -227 86q-36 43 -54.5 101t1.5 154l147 689h256l-154 -722q-20 -91 21 -157q40 -67 131 -66q81 0 152 67q69 66 88 156zM1104 1442v0h55q-8 -39 -38 -98.5t-77.5 -117.5t-108.5 -98t-131 -40
q-77 0 -122 40t-66 98t-23.5 117.5t6.5 98.5h58q-14 -99 41.5 -148t141 -48.5t161.5 50t103 146.5z" />
    <glyph glyph-name="Uring" unicode="&#x16e;" horiz-adv-x="1376" 
d="M1565 1455l-214 -1006q-48 -225 -230 -349q-180 -123 -440 -123q-268 0 -395 123q-119 118 -70 349l214 1006h258l-214 -1006q-38 -187 51 -282q89 -96 286 -96q198 0 323 93q128 92 169 285l214 1006h48zM1094 1815v0q38 -48 23 -116q-15 -69 -72 -117q-58 -47 -128 -47
q-68 0 -105 47q-37 48 -22 117t72 116t125 47q70 0 107 -47zM928 1578v0q50 0 93 35t53 86q11 50 -17 85t-78 35t-93 -35t-53 -85q-11 -51 17 -86t78 -35z" />
    <glyph glyph-name="uring" unicode="&#x16f;" 
d="M983 1008h256l-215 -1008h-256l24 113q-144 -135 -324 -135q-154 -4 -227 86q-36 43 -54.5 101t1.5 154l147 689h256l-154 -722q-20 -91 21 -157q40 -67 131 -66q81 0 152 67q69 66 88 156zM978 1368v0q38 -48 23 -116q-15 -69 -72 -117q-58 -47 -128 -47q-68 0 -105 47
q-37 48 -22 117t72 116t125 47q70 0 107 -47zM812 1131v0q50 0 93 35t53 86q11 50 -17 85t-78 35t-93 -35t-53 -85q-11 -51 17 -86t78 -35z" />
    <glyph glyph-name="Uhungarumlaut" unicode="&#x170;" horiz-adv-x="1376" 
d="M1565 1455l-214 -1006q-48 -225 -230 -349q-180 -123 -440 -123q-268 0 -395 123q-119 118 -70 349l214 1006h258l-214 -1006q-38 -187 51 -282q89 -96 286 -96q198 0 323 93q128 92 169 285l214 1006h48zM1267 1877v0h215l-424 -342l-50 38zM942 1877v0h215l-424 -342
l-51 38z" />
    <glyph glyph-name="uhungarumlaut" unicode="&#x171;" 
d="M983 1008h256l-215 -1008h-256l24 113q-144 -135 -324 -135q-154 -4 -227 86q-36 43 -54.5 101t1.5 154l147 689h256l-154 -722q-20 -91 21 -157q40 -67 131 -66q81 0 152 67q69 66 88 156zM1151 1430v0h215l-424 -342l-50 38zM826 1430v0h215l-424 -342l-51 38z" />
    <glyph glyph-name="Uogonek" unicode="&#x172;" horiz-adv-x="1376" 
d="M816 -14q-65 -9 -135 -9q-268 0 -395 123q-119 118 -70 349l213 1006h259l-214 -1006q-37 -187 51 -282q89 -96 286 -96q198 0 324 93q127 92 168 285l213 1006h48l-213 -1006q-47 -225 -230 -349q-104 -71 -235 -101q-97 -53 -154 -130q-59 -79 -71 -149t26 -98.5
t131 18.5h51q-41 -38 -105.5 -60.5t-129 -17.5t-105.5 50q-47 61 7 139t146 147q74 55 134 88z" />
    <glyph glyph-name="uogonek" unicode="&#x173;" 
d="M972 0h-204l24 113q-145 -135 -325 -135q-154 -4 -226 86q-36 43 -55 101t2 154l146 689h256l-153 -722q-21 -91 20 -157q40 -67 131 -66q81 0 153 67q69 66 88 156l153 722h256l-214 -1008h-7q-99 -53 -156 -131q-59 -79 -71 -149t26 -98.5t131 18.5h51
q-41 -38 -105.5 -60.5t-129 -17.5t-105.5 50q-47 61 7 139t146 147q91 68 161 102z" />
    <glyph glyph-name="Wcircumflex" unicode="&#x174;" horiz-adv-x="2000" 
d="M2200 1455h50l-865 -1455h-49l-23.5 118.5t-59 299.5t-74.5 377l-473 -795h-49l-43 216.5t-98.5 496.5t-98.5 498q-22 111 -48 244h259q6 -31 44.5 -232.5t87.5 -457t85 -447.5q141 238 321 541q-11 58 -22 114q-26 131 -48 238q-21 111 -48 244h259q7 -36 52 -271
q69 116 112.5 189t48.5 82h50l-199 -335q38 -196 80 -416t73 -386q150 253 340 573q133 223 228.5 384t107.5 180zM1318 1887v0l196 -342h-56l-181 203l-268 -203h-56l340 342h25z" />
    <glyph glyph-name="wcircumflex" unicode="&#x175;" horiz-adv-x="1695" 
d="M1799 1008h51l-696 -1008h-47l-139 599l-413 -599h-47l-234 1008h283l142 -713l255 363l-81 350h284l141 -713zM1166 1440v0l196 -342h-56l-181 203l-268 -203h-56l340 342h25z" />
    <glyph glyph-name="Ycircumflex" unicode="&#x176;" horiz-adv-x="1338" 
d="M1588 1455l-617 -702l-160 -753h-259l140 659l-323 796h294l277 -651l589 651h59zM987 1887v0l196 -342h-56l-181 203l-268 -203h-56l340 342h25z" />
    <glyph glyph-name="ycircumflex" unicode="&#x177;" horiz-adv-x="1046" 
d="M1150 1008h50l-782 -1221q-106 -162 -200.5 -220.5t-164 -47.5t-101.5 58.5t-13 97.5q35 80 81.5 102.5t87 7t59 -49.5t-1.5 -66q-21 -33 -0.5 -46t75 24.5t137.5 156.5l127 196l-204 1008h260l139 -698zM865 1440v0l196 -342h-56l-181 203l-268 -203h-56l340 342h25z
" />
    <glyph glyph-name="Ydieresis" unicode="&#x178;" horiz-adv-x="1338" 
d="M1588 1455l-617 -702l-160 -753h-259l140 659l-323 796h294l277 -651l589 651h59zM744 1856v0q59 0 92 -41.5t20 -100.5q-12 -60 -63 -101.5t-110 -41.5t-91.5 41.5t-20.5 101.5q13 59 63.5 100.5t109.5 41.5zM1194 1856v0q59 0 92 -41.5t20 -100.5q-13 -60 -63.5 -101.5
t-109.5 -41.5t-92 41.5t-20 101.5q13 59 63.5 100.5t109.5 41.5z" />
    <glyph glyph-name="Zacute" unicode="&#x179;" horiz-adv-x="1355" 
d="M1534 1410l-1108 -1365h818l-9 -45h-1115l10 45l1108 1365h-752l9 45h1049zM1100 1877v0h215l-424 -342l-51 38z" />
    <glyph glyph-name="zacute" unicode="&#x17a;" horiz-adv-x="1019" 
d="M1113 1008l-10 -48l-683 -912h489l-10 -48h-779l10 48l683 912h-489l10 48h779zM871 1430v0h215l-424 -342l-51 38z" />
    <glyph glyph-name="Zdotaccent" unicode="&#x17b;" horiz-adv-x="1355" 
d="M1534 1410l-1108 -1365h818l-9 -45h-1115l10 45l1108 1365h-752l9 45h1049zM1027 1856v0q59 0 92 -41.5t20 -100.5q-12 -60 -63 -101.5t-110 -41.5t-91.5 41.5t-20.5 101.5q13 59 63.5 100.5t109.5 41.5z" />
    <glyph glyph-name="zdotaccent" unicode="&#x17c;" horiz-adv-x="1019" 
d="M1113 1008l-10 -48l-683 -912h489l-10 -48h-779l10 48l683 912h-489l10 48h779zM808 1409v0q59 0 92 -41.5t20 -100.5q-12 -60 -63 -101.5t-110 -41.5t-91.5 41.5t-20.5 101.5q13 59 63.5 100.5t109.5 41.5z" />
    <glyph glyph-name="Zcaron" unicode="&#x17d;" horiz-adv-x="1355" 
d="M1534 1410l-1108 -1365h818l-9 -45h-1115l10 45l1108 1365h-752l9 45h1049zM1239 1887v0h56l-342 -342h-24l-195 342h56l181 -203z" />
    <glyph glyph-name="zcaron" unicode="&#x17e;" horiz-adv-x="1019" 
d="M1113 1008l-10 -48l-683 -912h489l-10 -48h-779l10 48l683 912h-489l10 48h779zM1040 1440v0h56l-342 -342h-24l-195 342h56l181 -203z" />
    <glyph glyph-name="uni01CD" unicode="&#x1cd;" horiz-adv-x="1321" 
d="M973 1455l288 -1455h-258l-93 483h-515l-285 -483h-50l864 1455h49zM421 525h481q-13 64 -117 612q-339 -571 -364 -612zM1170 1887v0h56l-342 -342h-24l-195 342h56l181 -203z" />
    <glyph glyph-name="uni01CE" unicode="&#x1ce;" horiz-adv-x="1106" 
d="M986 0h-256l29 133q-53 -63 -148 -111q-92 -46 -208 -45q-127 5 -199 80q-35 38 -53 90t-5 117q23 104 104 175t206 111q416 136 450 307q25 130 -174 130q-70 -3 -116 -23t-59.5 -41.5t12.5 -28.5q42 -13 39.5 -62t-43 -101t-111.5 -73q-51 -12 -75 10t-23 65t27 94.5
t75 99t120.5 78.5t164.5 31q158 0 242.5 -39t123.5 -109q46 -84 18 -228zM812 416l55 259q-70 -63 -266 -152q-82 -35 -131 -101q-49 -65 -65 -148q-4 -21 -3.5 -55t12 -69t39 -59t77.5 -24q67 0 116.5 39.5t83.5 97t54 116t28 96.5zM1082 1440v0h56l-342 -342h-24l-195 342
h56l181 -203z" />
    <glyph glyph-name="uni01CF" unicode="&#x1cf;" horiz-adv-x="496" 
d="M430 1455h256l-310 -1455h-256zM779 1887v0h56l-342 -342h-24l-195 342h56l181 -203z" />
    <glyph glyph-name="uni01D0" unicode="&#x1d0;" horiz-adv-x="525" 
d="M135 0v0l214 1008h256l-214 -1008h-256zM794 1440v0h56l-342 -342h-24l-195 342h56l181 -203z" />
    <glyph glyph-name="uni01D1" unicode="&#x1d1;" horiz-adv-x="1680" 
d="M1154 1476q207 0 355.5 -101t213.5 -271.5t21 -377.5t-181.5 -377.5t-329 -271.5t-398.5 -101t-356 101t-214 271.5t-21 377.5t181.5 377.5t329 271.5t399.5 101zM844 20q136 0 268.5 95t233 255.5t141.5 355.5q42 195 9.5 355t-124.5 255.5t-228 95.5t-268 -95.5
t-233 -255.5t-142 -355t-8.5 -355.5t124 -255.5t227.5 -95zM1371 1887v0h56l-342 -342h-24l-195 342h56l181 -203z" />
    <glyph glyph-name="uni01D2" unicode="&#x1d2;" horiz-adv-x="1182" 
d="M1142 890q103 -142 59 -376q-47 -225 -232 -381q-183 -156 -391 -156q-207 0 -319 150q-110 149 -64 368q48 225 224 381q178 158 403 157q220 -1 320 -143zM601 27q69 0 139 64.5t127 173t85 241.5q28 132 17.5 240.5t-53.5 173t-112 64.5q-68 0 -138.5 -64.5t-127 -173
t-84.5 -240.5q-28 -133 -17.5 -241.5t53 -173t111.5 -64.5zM1122 1440v0h56l-342 -342h-24l-195 342h56l181 -203z" />
    <glyph glyph-name="uni01D3" unicode="&#x1d3;" horiz-adv-x="1376" 
d="M1565 1455l-214 -1006q-48 -225 -230 -349q-180 -123 -440 -123q-268 0 -395 123q-119 118 -70 349l214 1006h258l-214 -1006q-38 -187 51 -282q89 -96 286 -96q198 0 323 93q128 92 169 285l214 1006h48zM1219 1887v0h56l-342 -342h-24l-195 342h56l181 -203z" />
    <glyph glyph-name="uni01D4" unicode="&#x1d4;" 
d="M983 1008h256l-215 -1008h-256l24 113q-144 -135 -324 -135q-154 -4 -227 86q-36 43 -54.5 101t1.5 154l147 689h256l-154 -722q-20 -91 21 -157q40 -67 131 -66q81 0 152 67q69 66 88 156zM1103 1440v0h56l-342 -342h-24l-195 342h56l181 -203z" />
    <glyph glyph-name="uni01E2" unicode="&#x1e2;" horiz-adv-x="1690" 
d="M1077 760v0l-153 -720h685l-9 -40h-939l103 483h-368l-286 -483h-50l864 1455h14h33h2h51h886l-10 -44h-685l-129 -606h437l-9 -46zM421 525v0h352l188 886h-14q-195 -328 -366 -617q-67 -113 -110 -185.5t-50 -83.5zM900 1738v0h561l-19 -90h-561z" />
    <glyph glyph-name="uni01E3" unicode="&#x1e3;" horiz-adv-x="1711" 
d="M811 416l55 259q-69 -63 -266 -152q-81 -35 -130 -101q-49 -65 -66 -148q-3 -21 -2.5 -55t12 -69t39 -59t76.5 -24q67 0 117 39.5t83.5 97t53.5 116t28 96.5zM985 0h-255l28 133q-52 -63 -147 -111q-92 -46 -208 -45q-128 5 -199 80q-35 38 -53.5 90t-4.5 117
q22 104 103 175t207 111q416 136 449 307q26 130 -173 130q-70 -3 -115.5 -23t-59.5 -41.5t11 -28.5q42 -13 39.5 -62t-42.5 -101t-111 -73q-51 -12 -75 10t-23 65t27 94.5t75 99t120.5 78.5t163.5 31q159 0 244 -39q43 -20 75 -48q137 87 301 87q219 0 315 -133
q98 -133 60 -355h-635l-75 -357q18 -30 45 -55q58 -52 177 -51q129 3 234 91q106 88 180 232h32q-84 -201 -240 -315q-155 -113 -336 -113q-73 0 -134 20zM1131 828q15 -70 -5 -168l-13 -63h378q41 199 -0.5 296.5t-142.5 97.5q-79 0 -176 -111q-22 -25 -41 -52zM850 1291v0
h561l-19 -90h-561z" />
    <glyph glyph-name="Gcaron" unicode="&#x1e6;" horiz-adv-x="1500" 
d="M1486 531l-112 -531h-255l8 38q-133 -62 -292 -62q-207 0 -355.5 101t-213.5 271.5t-21 377.5t181.5 377.5t329 271.5t398.5 101q51 0 100 -7q128 -19 213.5 -86.5t121.5 -163.5q31 -90 6.5 -174.5t-83 -131.5t-128.5 -23q-61 27 -67 84t24 106.5t78 53.5q37 3 45 47.5
t-21 103t-102 102t-196 45.5q-138 -3 -266.5 -97t-226 -253.5t-139.5 -353.5q-41 -195 -11.5 -356t118.5 -256.5t225 -95.5q66 0 140 20q78 21 155 63l82 383h-210l10 45h464zM1263 1887v0h56l-342 -342h-24l-195 342h56l181 -203z" />
    <glyph glyph-name="gcaron" unicode="&#x1e7;" horiz-adv-x="1232" 
d="M309 238q5 -50 79.5 -57.5t185.5 -0.5q122 8 246 -1t208.5 -71.5t87.5 -214.5q-2 -102 -74.5 -193t-207.5 -149t-323 -58q-165 0 -271 35t-156 91t-47 121t57.5 127t158.5 108q-86 9 -117.5 63t-10 126t95.5 134.5t199 88.5q-65 47 -96 121q-32 74 -14 160
q33 156 184 260q148 105 351 105q40 1 111 -13q115 178 208.5 243.5t154.5 55t79.5 -62t-17.5 -106.5q-47 -64 -104.5 -81.5t-94.5 1.5t-24 64q17 53 4 51.5t-42.5 -34.5t-60 -74.5t-47.5 -68.5q128 -36 176 -116q55 -84 27 -214q-32 -150 -191 -262q-152 -100 -344 -101
q-142 0 -236 54l-21.5 -10t-48 -28t-46.5 -41.5t-19 -51.5zM830 993q-82 0 -159.5 -93.5t-105.5 -225.5t10 -225t119 -93q82 0 159.5 93t105.5 225t-10 225.5t-119 93.5zM515 -462q124 0 210.5 32t140 81.5t77.5 105.5t21 105.5t-30 81t-73 31.5h-471q-42 -2 -82 -34
t-67.5 -81.5t-33 -104.5t21.5 -104.5t95.5 -81t190.5 -31.5zM1150 1552v0h56l-342 -342h-24l-195 342h56l181 -203z" />
    <glyph glyph-name="uni01E8" unicode="&#x1e8;" horiz-adv-x="1364" 
d="M837 930l467 -930h-320l-370 734l-101 -89q-109 -514 -137 -645h-256l15 65.5t35 157.5l214 1008q19 92 46 224h255l-14 -66t-144 -679l845 745h60zM1243 1887v0h56l-342 -342h-24l-195 342h56l181 -203z" />
    <glyph glyph-name="uni01E9" unicode="&#x1e9;" horiz-adv-x="1172" 
d="M833 701l279 -701h-300l-207 517l-144 -115l-85 -402h-256l309 1455h256l-210 -988l433 353q26 21 64 52l76 62t90 74h57l-61.5 -53.5t-151.5 -130.5zM1129 1887v0h56l-342 -342h-24l-195 342h56l181 -203z" />
    <glyph glyph-name="uni01EA" unicode="&#x1ea;" horiz-adv-x="1680" 
d="M844 20q136 0 268.5 95t233 255.5t141.5 355.5q42 195 9.5 355t-124.5 255.5t-228 95.5t-268 -95.5t-232.5 -255.5t-142.5 -355q-41 -195 -8.5 -355.5t124 -255.5t227.5 -95zM954 -15q-59 -9 -119 -9q-207 0 -356 101t-214 271.5t-21 377.5t181.5 377.5t329.5 271.5
t399 101t356 -101t213.5 -271.5t20.5 -377.5t-181 -377.5t-329 -271.5q-102 -54 -208 -79q-97 -52 -153 -129q-59 -79 -71 -149t26 -98.5t131 18.5h51q-41 -38 -105.5 -60.5t-129 -17.5t-105.5 50q-47 61 7 139t146 147q72 54 131 87z" />
    <glyph glyph-name="uni01EB" unicode="&#x1eb;" horiz-adv-x="1182" 
d="M601 27q69 0 139 64.5t126.5 173t85.5 241.5q28 132 17.5 240.5t-53.5 173t-112 64.5t-139 -64.5t-126.5 -173t-84.5 -240.5q-29 -133 -18.5 -241.5t53.5 -173t112 -64.5zM650 -18q-35 -5 -72 -5q-207 0 -319 150q-110 149 -64 368q48 225 224 381q178 158 403 157
q219 -1 320 -143q103 -142 59 -376q-48 -225 -232 -381q-116 -99 -243 -135q-96 -53 -152 -129q-59 -79 -71 -149t26 -98.5t131 18.5h51q-41 -38 -105.5 -60.5t-129 -17.5t-105.5 50q-47 61 7 139t146 147q69 52 126 84z" />
    <glyph glyph-name="uni01F4" unicode="&#x1f4;" horiz-adv-x="1500" 
d="M1486 531l-112 -531h-255l8 38q-133 -62 -292 -62q-207 0 -355.5 101t-213.5 271.5t-21 377.5t181.5 377.5t329 271.5t398.5 101q51 0 100 -7q128 -19 213.5 -86.5t121.5 -163.5q31 -90 6.5 -174.5t-83 -131.5t-128.5 -23q-61 27 -67 84t24 106.5t78 53.5q37 3 45 47.5
t-21 103t-102 102t-196 45.5q-138 -3 -266.5 -97t-226 -253.5t-139.5 -353.5q-41 -195 -11.5 -356t118.5 -256.5t225 -95.5q66 0 140 20q78 21 155 63l82 383h-210l10 45h464zM1094 1877v0h215l-424 -342l-51 38z" />
    <glyph glyph-name="uni01F5" unicode="&#x1f5;" horiz-adv-x="1232" 
d="M309 238q5 -50 79.5 -57.5t185.5 -0.5q122 8 246 -1t208.5 -71.5t87.5 -214.5q-2 -102 -74.5 -193t-207.5 -149t-323 -58q-165 0 -271 35t-156 91t-47 121t57.5 127t158.5 108q-86 9 -117.5 63t-10 126t95.5 134.5t199 88.5q-65 47 -96 121q-32 74 -14 160
q33 156 184 260q148 105 351 105q40 1 111 -13q115 178 208.5 243.5t154.5 55t79.5 -62t-17.5 -106.5q-47 -64 -104.5 -81.5t-94.5 1.5t-24 64q17 53 4 51.5t-42.5 -34.5t-60 -74.5t-47.5 -68.5q128 -36 176 -116q55 -84 27 -214q-32 -150 -191 -262q-152 -100 -344 -101
q-142 0 -236 54l-21.5 -10t-48 -28t-46.5 -41.5t-19 -51.5zM830 993q-82 0 -159.5 -93.5t-105.5 -225.5t10 -225t119 -93q82 0 159.5 93t105.5 225t-10 225.5t-119 93.5zM515 -462q124 0 210.5 32t140 81.5t77.5 105.5t21 105.5t-30 81t-73 31.5h-471q-42 -2 -82 -34
t-67.5 -81.5t-33 -104.5t21.5 -104.5t95.5 -81t190.5 -31.5zM981 1562v0h215l-424 -342l-51 38z" />
    <glyph glyph-name="Aringacute" unicode="&#x1fa;" horiz-adv-x="1321" 
d="M973 1455l288 -1455h-258l-93 483h-515l-285 -483h-50l864 1455h49zM421 525h481q-13 64 -117 612q-339 -571 -364 -612zM1045 1815v0q38 -48 23 -116q-15 -69 -72 -117q-58 -47 -128 -47q-68 0 -105 47q-37 48 -22 117t72 116t125 47q70 0 107 -47zM879 1578v0
q50 0 93 35t53 86q11 50 -17 85t-78 35t-93 -35t-53 -85q-11 -51 17 -86t78 -35zM1000 2284v0h215l-424 -342l-51 38z" />
    <glyph glyph-name="aringacute" unicode="&#x1fb;" horiz-adv-x="1106" 
d="M986 0h-256l29 133q-53 -63 -148 -111q-92 -46 -208 -45q-127 5 -199 80q-35 38 -53 90t-5 117q23 104 104 175t206 111q416 136 450 307q25 130 -174 130q-70 -3 -116 -23t-59.5 -41.5t12.5 -28.5q42 -13 39.5 -62t-43 -101t-111.5 -73q-51 -12 -75 10t-23 65t27 94.5
t75 99t120.5 78.5t164.5 31q158 0 242.5 -39t123.5 -109q46 -84 18 -228zM812 416l55 259q-70 -63 -266 -152q-82 -35 -131 -101q-49 -65 -65 -148q-4 -21 -3.5 -55t12 -69t39 -59t77.5 -24q67 0 116.5 39.5t83.5 97t54 116t28 96.5zM957 1368v0q38 -48 23 -116
q-15 -69 -72 -117q-58 -47 -128 -47q-68 0 -105 47q-37 48 -22 117t72 116t125 47q70 0 107 -47zM791 1131v0q50 0 93 35t53 86q11 50 -17 85t-78 35t-93 -35t-53 -85q-11 -51 17 -86t78 -35zM912 1837v0h215l-424 -342l-51 38z" />
    <glyph glyph-name="AEacute" unicode="&#x1fc;" horiz-adv-x="1690" 
d="M1077 760v0l-153 -720h685l-9 -40h-939l103 483h-368l-286 -483h-50l864 1455h14h33h2h51h886l-10 -44h-685l-129 -606h437l-9 -46zM421 525v0h352l188 886h-14q-195 -328 -366 -617q-67 -113 -110 -185.5t-50 -83.5zM1268 1877v0h215l-424 -342l-51 38z" />
    <glyph glyph-name="aeacute" unicode="&#x1fd;" horiz-adv-x="1711" 
d="M811 416l55 259q-69 -63 -266 -152q-81 -35 -130 -101q-49 -65 -66 -148q-3 -21 -2.5 -55t12 -69t39 -59t76.5 -24q67 0 117 39.5t83.5 97t53.5 116t28 96.5zM985 0h-255l28 133q-52 -63 -147 -111q-92 -46 -208 -45q-128 5 -199 80q-35 38 -53.5 90t-4.5 117
q22 104 103 175t207 111q416 136 449 307q26 130 -173 130q-70 -3 -115.5 -23t-59.5 -41.5t11 -28.5q42 -13 39.5 -62t-42.5 -101t-111 -73q-51 -12 -75 10t-23 65t27 94.5t75 99t120.5 78.5t163.5 31q159 0 244 -39q43 -20 75 -48q137 87 301 87q219 0 315 -133
q98 -133 60 -355h-635l-75 -357q18 -30 45 -55q58 -52 177 -51q129 3 234 91q106 88 180 232h32q-84 -201 -240 -315q-155 -113 -336 -113q-73 0 -134 20zM1131 828q15 -70 -5 -168l-13 -63h378q41 199 -0.5 296.5t-142.5 97.5q-79 0 -176 -111q-22 -25 -41 -52zM1218 1430
v0h215l-424 -342l-51 38z" />
    <glyph glyph-name="Oslashacute" unicode="&#x1fe;" horiz-adv-x="1680" 
d="M1429 1262q-25 41 -57 75q-92 95 -228 95t-268 -95.5t-232.5 -255.5t-142.5 -355q-41 -195 -9 -355q16 -78 45 -140zM1450 1223l-892 -1031q25 -43 58 -77q92 -95 228 -95t268.5 95t233 255.5t141.5 355.5q42 195 9 355q-16 79 -46 142zM434 111q-114 94 -169 238
q-65 170 -21 377t181.5 377.5t329.5 271.5t399 101t356 -101l11 -8l98 113l32 -25l-98 -113q116 -94 171 -238q64 -171 20 -378t-181 -377.5t-329 -271.5t-399 -101t-356 101q-7 4 -13 9l-96 -111l-33 25zM1202 1877v0h215l-424 -342l-51 38z" />
    <glyph glyph-name="oslashacute" unicode="&#x1ff;" horiz-adv-x="1182" 
d="M954 834q-14 50 -38 86q-43 64 -112 64t-139 -64.5t-126.5 -173t-84.5 -240.5q-29 -133 -18 -241q1 -13 3 -26zM448 188q15 -57 41 -96q43 -65 112 -65t139 64.5t126.5 173t85.5 241.5q28 132 17 241q-2 19 -5 37zM1099 939q24 -22 43 -49q103 -142 59 -376
q-48 -225 -232 -381q-183 -156 -391 -156q-147 0 -246 76l-86 -99l-32 25l86 101q-22 21 -41 47q-110 149 -64 368q48 225 224 381q178 158 403 157q150 -1 245 -68l82 95l33 -25zM953 1430v0h215l-424 -342l-51 38z" />
    <glyph glyph-name="circumflex" unicode="&#x2c6;" horiz-adv-x="800" 
d="M721 1455v0l196 -342h-56l-181 203l-268 -203h-56l340 342h25z" />
    <glyph glyph-name="caron" unicode="&#x2c7;" horiz-adv-x="800" 
d="M934 1455v0h56l-342 -342h-24l-195 342h56l181 -203z" />
    <glyph glyph-name="uni02C9" unicode="&#x2c9;" horiz-adv-x="800" 
d="M403 1336v0h561l-19 -91h-561z" />
    <glyph glyph-name="breve" unicode="&#x2d8;" horiz-adv-x="800" 
d="M934 1455v0h56q-9 -39 -39 -98.5t-77.5 -117.5t-108 -98t-130.5 -40q-78 0 -123 40t-66 98t-23 117.5t6 98.5h58q-14 -99 42 -148t141 -48.5t161 50t103 146.5z" />
    <glyph glyph-name="dotaccent" unicode="&#x2d9;" horiz-adv-x="525" 
d="M567 1433v0q59 0 91.5 -41.5t20.5 -100.5q-13 -60 -63.5 -101.5t-109.5 -41.5t-92 41.5t-20 101.5q12 59 63 100.5t110 41.5z" />
    <glyph glyph-name="ring" unicode="&#x2da;" horiz-adv-x="567" 
d="M699 1407v0q37 -48 23 -116q-15 -69 -72 -117q-58 -47 -128 -47q-68 0 -105 47q-37 48 -22 117q14 69 71 116t126 47q70 0 107 -47zM532 1170v0q51 0 93.5 35t53.5 86q11 50 -17 85t-78 35t-93 -35t-54 -85q-10 -51 17.5 -86t77.5 -35z" />
    <glyph glyph-name="ogonek" unicode="&#x2db;" horiz-adv-x="634" 
d="M386 -361v0h51q-41 -38 -105.5 -60.5t-129 -17.5t-106.5 50q-45 61 8 139t145.5 147t163.5 103h45q-100 -53 -158.5 -132t-71 -149t26 -98.5t131.5 18.5z" />
    <glyph glyph-name="tilde" unicode="&#x2dc;" horiz-adv-x="797" 
d="M932 1348v0l30 -5q-23 -88 -86.5 -123t-164.5 -6l-28 9.5t-69 20.5t-84 17t-75 -0.5t-41 -31.5l-32 4q38 173 237 124l29.5 -9t73.5 -20t89 -16t78.5 2t42.5 34z" />
    <glyph glyph-name="hungarumlaut" unicode="&#x2dd;" horiz-adv-x="975" 
d="M949 1455v0h215l-423 -342l-51 38zM624 1455v0h215l-424 -342l-50 38z" />
    <glyph glyph-name="gravecomb" unicode="&#x300;" horiz-adv-x="0" 
d="M59 1430v0l130 -304l-67 -38l-278 342h215z" />
    <glyph glyph-name="acutecomb" unicode="&#x301;" horiz-adv-x="0" 
d="M49 1430v0h215l-424 -342l-51 38z" />
    <glyph glyph-name="uni0302" unicode="&#x302;" horiz-adv-x="0" 
d="M18 1440v0l196 -342h-56l-181 203l-268 -203h-56l340 342h25z" />
    <glyph glyph-name="tildecomb" unicode="&#x303;" horiz-adv-x="0" 
d="M204 1294v0l30 -5q-23 -87 -86.5 -122.5t-164.5 -6.5l-28 9.5t-69 20.5t-84 17t-75 -0.5t-41 -31.5l-32 4q38 173 237 124l29.5 -9t73.5 -20t89 -16t78.5 2t42.5 34z" />
    <glyph glyph-name="uni0304" unicode="&#x304;" horiz-adv-x="0" 
d="M-310 1291v0h561l-19 -90h-561z" />
    <glyph glyph-name="uni0306" unicode="&#x306;" horiz-adv-x="0" 
d="M202 1442v0h55q-8 -39 -38 -98.5t-77.5 -117.5t-108.5 -98t-131 -40q-77 0 -122 40t-66 98t-23.5 117.5t6.5 98.5h58q-14 -99 41.5 -148t141 -48.5t161.5 50t103 146.5z" />
    <glyph glyph-name="uni0307" unicode="&#x307;" horiz-adv-x="0" 
d="M48 1409v0q59 0 92 -41.5t20 -100.5q-12 -60 -63 -101.5t-110 -41.5t-91.5 41.5t-20.5 101.5q13 59 63.5 100.5t109.5 41.5z" />
    <glyph glyph-name="uni0308" unicode="&#x308;" horiz-adv-x="0" 
d="M-328 1409v0q59 0 92 -41.5t20 -100.5q-12 -60 -63 -101.5t-110 -41.5t-91.5 41.5t-20.5 101.5q13 59 63.5 100.5t109.5 41.5zM122 1409v0q59 0 92 -41.5t20 -100.5q-13 -60 -63.5 -101.5t-109.5 -41.5t-92 41.5t-20 101.5q13 59 63.5 100.5t109.5 41.5z" />
    <glyph glyph-name="uni030A" unicode="&#x30a;" horiz-adv-x="0" 
d="M160 1368v0q38 -48 23 -116q-15 -69 -72 -117q-58 -47 -128 -47q-68 0 -105 47q-37 48 -22 117t72 116t125 47q70 0 107 -47zM-6 1131v0q50 0 93 35t53 86q11 50 -17 85t-78 35t-93 -35t-53 -85q-11 -51 17 -86t78 -35z" />
    <glyph glyph-name="uni030B" unicode="&#x30b;" horiz-adv-x="0" 
d="M54 1430v0h215l-424 -342l-50 38zM-271 1430v0h215l-424 -342l-51 38z" />
    <glyph glyph-name="uni030C" unicode="&#x30c;" horiz-adv-x="0" 
d="M231 1440v0h56l-342 -342h-24l-195 342h56l181 -203z" />
    <glyph glyph-name="uni0312" unicode="&#x312;" horiz-adv-x="0" 
d="M31 1054v0q-46 0 -65.5 25.5t-18 66t20.5 86.5t51 89.5t73 75t86 41.5q4 1 5.5 -1.5t0.5 -5.5t-4 -5q-37 -18 -66.5 -56t-39.5 -71t10 -38q38 -4 58.5 -30.5t15.5 -65.5q-8 -47 -45 -79t-82 -32z" />
    <glyph glyph-name="uni0315" unicode="&#x315;" horiz-adv-x="0" 
d="M108 1428v0q46 0 65.5 -25.5t18 -66t-20.5 -87t-51 -90t-73 -74.5t-86 -42q-4 0 -5.5 2t-0.5 5t4 5q37 18 66.5 56.5t39.5 71.5t-10 37q-38 5 -58.5 31.5t-15.5 65.5q8 47 45 79t82 32z" />
    <glyph glyph-name="uni0326" unicode="&#x326;" horiz-adv-x="0" 
d="M-232 -97v0q46 0 65.5 -25.5t18 -65.5t-20.5 -86.5t-51 -90t-73 -74.5t-86 -42q-4 0 -5.5 2t-0.5 5t4 5q37 18 66.5 56t39.5 71.5t-10 37.5q-38 5 -58.5 31.5t-15.5 64.5q8 47 45 79t82 32z" />
    <glyph glyph-name="uni0327" unicode="&#x327;" horiz-adv-x="0" 
d="M-301 -107v0q10 1 47 -3.5t79.5 -20t69 -47t15.5 -85.5q-17 -61 -75 -104.5t-128.5 -62t-126 -2t-66.5 76.5h51q25 -42 70 -41t86 36.5t56 95.5q8 46 -10.5 72.5t-48.5 39t-55.5 15.5t-31.5 2l77 136h51z" />
    <glyph glyph-name="uni0328" unicode="&#x328;" horiz-adv-x="0" 
d="M-138 -360v0h50q-41 -38 -105.5 -60.5t-129 -17.5t-106.5 50q-45 61 8.5 139t145.5 147t163 103h45q-100 -53 -158.5 -132t-71 -149t26 -98.5t132.5 18.5z" />
    <glyph glyph-name="Wgrave" unicode="&#x1e80;" horiz-adv-x="2000" 
d="M2200 1455h50l-865 -1455h-49l-23.5 118.5t-59 299.5t-74.5 377l-473 -795h-49l-43 216.5t-98.5 496.5t-98.5 498q-22 111 -48 244h259q6 -31 44.5 -232.5t87.5 -457t85 -447.5q141 238 321 541q-11 58 -22 114q-26 131 -48 238q-21 111 -48 244h259q7 -36 52 -271
q69 116 112.5 189t48.5 82h50l-199 -335q38 -196 80 -416t73 -386q150 253 340 573q133 223 228.5 384t107.5 180zM1246 1877v0l130 -304l-67 -38l-278 342h215z" />
    <glyph glyph-name="wgrave" unicode="&#x1e81;" horiz-adv-x="1695" 
d="M1799 1008h51l-696 -1008h-47l-139 599l-413 -599h-47l-234 1008h283l142 -713l255 363l-81 350h284l141 -713zM1094 1430v0l130 -304l-67 -38l-278 342h215z" />
    <glyph glyph-name="Wacute" unicode="&#x1e82;" horiz-adv-x="2000" 
d="M2200 1455h50l-865 -1455h-49l-23.5 118.5t-59 299.5t-74.5 377l-473 -795h-49l-43 216.5t-98.5 496.5t-98.5 498q-22 111 -48 244h259q6 -31 44.5 -232.5t87.5 -457t85 -447.5q141 238 321 541q-11 58 -22 114q-26 131 -48 238q-21 111 -48 244h259q7 -36 52 -271
q69 116 112.5 189t48.5 82h50l-199 -335q38 -196 80 -416t73 -386q150 253 340 573q133 223 228.5 384t107.5 180zM1362 1877v0h215l-424 -342l-51 38z" />
    <glyph glyph-name="wacute" unicode="&#x1e83;" horiz-adv-x="1695" 
d="M1799 1008h51l-696 -1008h-47l-139 599l-413 -599h-47l-234 1008h283l142 -713l255 363l-81 350h284l141 -713zM1210 1430v0h215l-424 -342l-51 38z" />
    <glyph glyph-name="Wdieresis" unicode="&#x1e84;" horiz-adv-x="2000" 
d="M2200 1455h50l-865 -1455h-49l-23.5 118.5t-59 299.5t-74.5 377l-473 -795h-49l-43 216.5t-98.5 496.5t-98.5 498q-22 111 -48 244h259q6 -31 44.5 -232.5t87.5 -457t85 -447.5q141 238 321 541q-11 58 -22 114q-26 131 -48 238q-21 111 -48 244h259q7 -36 52 -271
q69 116 112.5 189t48.5 82h50l-199 -335q38 -196 80 -416t73 -386q150 253 340 573q133 223 228.5 384t107.5 180zM1075 1856v0q59 0 92 -41.5t20 -100.5q-12 -60 -63 -101.5t-110 -41.5t-91.5 41.5t-20.5 101.5q13 59 63.5 100.5t109.5 41.5zM1525 1856v0q59 0 92 -41.5
t20 -100.5q-13 -60 -63.5 -101.5t-109.5 -41.5t-92 41.5t-20 101.5q13 59 63.5 100.5t109.5 41.5z" />
    <glyph glyph-name="wdieresis" unicode="&#x1e85;" horiz-adv-x="1695" 
d="M1799 1008h51l-696 -1008h-47l-139 599l-413 -599h-47l-234 1008h283l142 -713l255 363l-81 350h284l141 -713zM923 1409v0q59 0 92 -41.5t20 -100.5q-12 -60 -63 -101.5t-110 -41.5t-91.5 41.5t-20.5 101.5q13 59 63.5 100.5t109.5 41.5zM1373 1409v0q59 0 92 -41.5
t20 -100.5q-13 -60 -63.5 -101.5t-109.5 -41.5t-92 41.5t-20 101.5q13 59 63.5 100.5t109.5 41.5z" />
    <glyph glyph-name="uni1E86" unicode="&#x1e86;" horiz-adv-x="2000" 
d="M2200 1455h50l-865 -1455h-49l-23.5 118.5t-59 299.5t-74.5 377l-473 -795h-49l-43 216.5t-98.5 496.5t-98.5 498q-22 111 -48 244h259q6 -31 44.5 -232.5t87.5 -457t85 -447.5q141 238 321 541q-11 58 -22 114q-26 131 -48 238q-21 111 -48 244h259q7 -36 52 -271
q69 116 112.5 189t48.5 82h50l-199 -335q38 -196 80 -416t73 -386q150 253 340 573q133 223 228.5 384t107.5 180zM1299 1856v0q59 0 92 -41.5t20 -100.5q-12 -60 -63 -101.5t-110 -41.5t-91.5 41.5t-20.5 101.5q13 59 63.5 100.5t109.5 41.5z" />
    <glyph glyph-name="uni1E87" unicode="&#x1e87;" horiz-adv-x="1695" 
d="M1799 1008h51l-696 -1008h-47l-139 599l-413 -599h-47l-234 1008h283l142 -713l255 363l-81 350h284l141 -713zM1147 1409v0q59 0 92 -41.5t20 -100.5q-12 -60 -63 -101.5t-110 -41.5t-91.5 41.5t-20.5 101.5q13 59 63.5 100.5t109.5 41.5z" />
    <glyph glyph-name="uni1E90" unicode="&#x1e90;" horiz-adv-x="1355" 
d="M1534 1410l-1108 -1365h818l-9 -45h-1115l10 45l1108 1365h-752l9 45h1049zM1026 1887v0l196 -342h-56l-181 203l-268 -203h-56l340 342h25z" />
    <glyph glyph-name="uni1E91" unicode="&#x1e91;" horiz-adv-x="1019" 
d="M1113 1008l-10 -48l-683 -912h489l-10 -48h-779l10 48l683 912h-489l10 48h779zM827 1440v0l196 -342h-56l-181 203l-268 -203h-56l340 342h25z" />
    <glyph glyph-name="endash" unicode="&#x2013;" horiz-adv-x="1218" 
d="M280 751h977l-9 -43h-977z" />
    <glyph glyph-name="emdash" unicode="&#x2014;" horiz-adv-x="2272" 
d="M279 751h2032l-9 -43h-2032z" />
    <glyph glyph-name="quoteleft" unicode="&#x2018;" horiz-adv-x="535" 
d="M525 1198v0q-63 0 -90 35t-24.5 90.5t28 119t69.5 123t100.5 102.5t118.5 57q5 1 7 -2t1 -7t-6 -7q-50 -25 -90.5 -77t-54.5 -98t14 -51q52 -7 80.5 -43t21.5 -90q-11 -64 -62 -108t-113 -44z" />
    <glyph glyph-name="quoteright" unicode="&#x2019;" horiz-adv-x="536" 
d="M632 1725v0q63 0 90 -34.5t25 -90t-28 -119t-70 -123.5t-100.5 -103t-118.5 -57q-5 0 -7 3t-1 7t6 7q50 25 90.5 77t54.5 97.5t-14 51.5q-52 6 -80 42.5t-22 89.5q11 64 62 108t113 44z" />
    <glyph glyph-name="quotesinglbase" unicode="&#x201a;" horiz-adv-x="535" 
d="M319 257v0q63 0 90 -35t25 -90t-28 -119t-70 -123.5t-100 -102.5t-119 -57q-5 -1 -7 2t-1 7.5t6 6.5q50 25 90.5 77t54.5 98t-14 52q-52 6 -80 42.5t-21 89.5q11 64 62 108t112 44z" />
    <glyph glyph-name="quotedblleft" unicode="&#x201c;" horiz-adv-x="885" 
d="M875 1198v0q-63 0 -90 35t-24.5 90.5t28 119t69.5 123t100.5 102.5t118.5 57q5 1 7 -2t1 -7t-6 -7q-50 -25 -90.5 -77t-54.5 -98t14 -51q52 -7 80.5 -43t21.5 -90q-11 -64 -62 -108t-113 -44zM525 1198v0q-63 0 -90 35t-24.5 90.5t28 119t69.5 123t100.5 102.5t118.5 57
q5 1 7 -2t1 -7t-6 -7q-50 -25 -90.5 -77t-54.5 -98t14 -51q52 -7 80.5 -43t21.5 -90q-11 -64 -62 -108t-113 -44z" />
    <glyph glyph-name="quotedblright" unicode="&#x201d;" horiz-adv-x="886" 
d="M982 1725v0q63 0 90 -34.5t25 -90t-28 -119t-70 -123.5t-100.5 -103t-118.5 -57q-5 0 -7 3t-1 7t6 7q50 25 90.5 77t54.5 97.5t-14 51.5q-52 6 -80 42.5t-22 89.5q11 64 62 108t113 44zM632 1725v0q63 0 90 -34.5t25 -90t-28 -119t-70 -123.5t-100.5 -103t-118.5 -57
q-5 0 -7 3t-1 7t6 7q50 25 90.5 77t54.5 97.5t-14 51.5q-52 6 -80 42.5t-22 89.5q11 64 62 108t113 44z" />
    <glyph glyph-name="quotedblbase" unicode="&#x201e;" horiz-adv-x="885" 
d="M669 257v0q63 0 90 -35t25 -90t-28 -119t-70 -123.5t-100 -102.5t-119 -57q-5 -1 -7 2t-1 7.5t6 6.5q50 25 90.5 77t54.5 98t-14 52q-52 6 -80 42.5t-21 89.5q11 64 62 108t112 44zM319 257v0q63 0 90 -35t25 -90t-28 -119t-70 -123.5t-100 -102.5t-119 -57q-5 -1 -7 2
t-1 7.5t6 6.5q50 25 90.5 77t54.5 98t-14 52q-52 6 -80 42.5t-21 89.5q11 64 62 108t112 44z" />
    <glyph glyph-name="dagger" unicode="&#x2020;" horiz-adv-x="1073" 
d="M863 1006h304l-9 -46h-304l-250 -1172h-225l249 1172h-304l10 46h304l95 449h226z" />
    <glyph glyph-name="daggerdbl" unicode="&#x2021;" horiz-adv-x="1073" 
d="M1158 960h-304l-144 -677h304l-10 -46h-304l-96 -449h-225l96 449h-305l10 46h304l144 677h-304l10 46h304l95 449h226l-96 -449h304z" />
    <glyph glyph-name="bullet" unicode="&#x2022;" horiz-adv-x="832" 
d="M273 718q26 123 131 209t228 86q122 0 190.5 -86.5t42.5 -208.5t-132.5 -209.5t-228.5 -87.5q-123 0 -190.5 87t-40.5 210z" />
    <glyph glyph-name="ellipsis" unicode="&#x2026;" horiz-adv-x="1891" 
d="M318 257q59 0 91.5 -41.5t20.5 -100.5q-13 -59 -63.5 -101t-109.5 -42t-92 42t-20 101q12 59 63 100.5t110 41.5zM1001 257q59 0 91.5 -41.5t20.5 -100.5q-13 -59 -63.5 -101t-109.5 -42t-92 42t-20 101q12 59 63 100.5t110 41.5zM1684 257q59 0 91.5 -41.5t20.5 -100.5
q-13 -59 -63.5 -101t-109.5 -42t-92 42t-20 101q12 59 63 100.5t110 41.5z" />
    <glyph glyph-name="perthousand" unicode="&#x2030;" horiz-adv-x="2472" 
d="M1719 1409v0l29 -28l-1449 -1517l-30 26zM828 647v0q-123 -108 -263 -108t-213 104q-74 103 -42 253q33 157 152 264q118 106 270 106q154 0 220 -97q65 -97 31 -258q-33 -156 -155 -264zM486 666v0q25 -94 90 -94q64 0 131 98q68 97 98 239q31 147 9 236q-21 88 -93 88
q-71 0 -136 -97t-95 -240q-29 -136 -4 -230zM1671 628v0q66 -98 32 -259q-33 -156 -156 -263q-122 -108 -263 -108t-214 103t-41 254q33 156 151 263t271 107q154 0 220 -97zM1426 128v0q68 97 99 240q31 145 9 234q-22 88 -94 88t-139 -98q-64 -97 -94 -237
q-29 -137 -4 -230q25 -94 90 -94t133 97zM2399 628v0q66 -98 32 -259q-33 -156 -156 -263q-122 -108 -263 -108t-214 103t-41 254q33 156 151 263q117 107 270 107q155 0 221 -97zM2154 128v0q68 97 99 240q30 145 9 234q-22 88 -94 88t-139 -98q-64 -97 -94 -237
q-29 -137 -4 -230q25 -94 90 -94t133 97z" />
    <glyph glyph-name="guilsinglleft" unicode="&#x2039;" horiz-adv-x="596" 
d="M275 729l406 303h14l-8 -37l-261 -266l148 -266l-7 -37h-14z" />
    <glyph glyph-name="guilsinglright" unicode="&#x203a;" horiz-adv-x="596" 
d="M225 426h-14l7 37l262 266l-149 266l8 37h14l278 -303z" />
    <glyph glyph-name="fraction" unicode="&#x2044;" horiz-adv-x="813" 
d="M951 1418l41 -14l-875 -1621l-41 14z" />
    <glyph glyph-name="fraction" unicode="&#x2215;" horiz-adv-x="813" 
d="M951 1418l41 -14l-875 -1621l-41 14z" />
    <glyph glyph-name="Euro" unicode="&#x20ac;" horiz-adv-x="1229" 
d="M1183 252l36 -17q-93 -144 -192.5 -206.5t-218.5 -62.5q-140 0 -237.5 90.5t-139 243t-16.5 344.5h-158l10 45h156l6 32q5 23 11 46h-157l10 45h159q58 189 164 338.5t240.5 237.5t272.5 88q77 0 144 -22.5t108.5 -78.5t45.5 -156l-44 -20q10 87 -44.5 158t-161.5 73
q-135 -7 -265.5 -179t-205.5 -439h502l-10 -45h-504q-6 -23 -11 -46l-6 -32h505l-10 -45h-503q-28 -180 -11 -322t73 -226t144 -84q77 0 157 64t151 176z" />
    <glyph glyph-name="uni2116" unicode="&#x2116;" horiz-adv-x="2186" 
d="M1256 447l214 1008h50l-310 -1455h-49l-712 1317l-280 -1317h-49l309 1455h285zM1813 523q-101 0 -173.5 49.5t-104 132t-10.5 183.5q22 101 88.5 184t160 132t194.5 49t173 -49t104 -132t10 -184q-21 -101 -88 -183.5t-160.5 -132t-193.5 -49.5zM1962 1224
q-88 0 -170.5 -98.5t-111.5 -237.5q-30 -139 11 -237t128 -98t169.5 98t112.5 237q29 139 -11.5 237.5t-127.5 98.5zM1411 349l9 46h730l-9 -46h-730z" />
    <glyph glyph-name="trademark" unicode="&#x2122;" horiz-adv-x="1484" 
d="M1557 1455h116l-147 -695h-122l132 619l-386 -618h-24l-152 649l-138 -650h-24l148 695h136l125 -538zM923 1455l-4 -21h-186l-144 -674h-121l143 674h-186l4 21h494z" />
    <glyph glyph-name="partialdiff" unicode="&#x2202;" horiz-adv-x="1150" 
d="M187 455q22 107 80 194t136 147.5t162 89.5t162 21q100 -9 152.5 -71.5t69 -137t8.5 -119.5q46 271 12.5 439.5t-109 258t-156 122.5t-129.5 34l9 44q66 0 130 -13t124 -42q208 -111 301.5 -348t41.5 -497q-11 -58 -37 -134.5t-72.5 -157t-118 -149.5t-173.5 -112.5
t-242 -43.5q-77 0 -150 32.5t-126.5 94.5t-76 150t1.5 198zM408 444q-23 -109 -5 -201t62.5 -148.5t101.5 -56.5t123 56.5t120.5 148.5t77.5 201q23 108 7 196.5t-58 141.5t-99 53q-99 0 -197 -114.5t-133 -276.5z" />
    <glyph glyph-name="Delta" unicode="&#x2206;" horiz-adv-x="1323" 
d="M979 1456l224 -1456h-1083zM773 1010l-567 -960h716z" />
    <glyph glyph-name="product" unicode="&#x220f;" horiz-adv-x="1405" 
d="M1594 1455l-10 -48h-89l-299 -1407h-259l299 1407h-469l-299 -1407h-260l299 1407h-88l10 48h1165z" />
    <glyph glyph-name="summation" unicode="&#x2211;" horiz-adv-x="1027" 
d="M1089 854l-855 -806h684l-11 -48h-787l737 695l-426 760h786l-11 -48h-426z" />
    <glyph glyph-name="minus" unicode="&#x2212;" horiz-adv-x="1218" 
d="M280 751h977l-9 -43h-977z" />
    <glyph glyph-name="radical" unicode="&#x221a;" horiz-adv-x="1239" 
d="M346 0l-121 495l43 19l46 -189l958 1354h325l-9 -43h-87z" />
    <glyph glyph-name="infinity" unicode="&#x221e;" horiz-adv-x="1093" 
d="M1115 893q55 -109 21 -268t-140 -269q-108 -110 -212 -110q-71 0 -132 62q-51 53 -65 162q-101 -163 -219 -163q-89 0 -133 89q-42 88 -12 229q27 130 108 223q83 95 172 95q125 0 150 -156q42 80 110 139q90 78 182 78q114 0 170 -111zM979 484q96 75 117 173
q16 85 -25 136q-40 51 -125 51q-77 0 -159 -52q-80 -51 -142 -198q-8 -88 52 -136q61 -50 111 -50q75 0 171 76zM345 740q-69 -64 -86 -143q-11 -61 19 -107q28 -45 95 -45q61 0 116 41q55 42 115 177q1 76 -30 108q-31 33 -84 33q-76 0 -145 -64z" />
    <glyph glyph-name="integral" unicode="&#x222b;" horiz-adv-x="1162" 
d="M958 1508q97 121 181.5 151t141 2t71 -82.5t-28.5 -104.5q-72 -71 -119.5 -59.5t-54.5 62.5q-3 40 29 75q21 24 26 49.5t-9 33.5t-48 -18q-40 -36 -84 -138.5t-80 -212t-46.5 -144.5t-196.5 -617q-3 -11 -7 -23q-19 -72 -58 -169.5t-112.5 -182.5t-195.5 -120
q-97 -22 -150 2.5t-60 76.5t35 112q36 48 73 56.5t66 -9.5q32 -22 32.5 -61t-29.5 -76q-36 -44 -15.5 -63.5t67.5 8t90 124.5q14 36 58 188q48 169 119 398t150.5 435t154.5 307z" />
    <glyph glyph-name="approxequal" unicode="&#x2248;" horiz-adv-x="1275" 
d="M1302 962l56 -8q-86 -323 -464 -212l-362 107q-38 12 -74.5 14t-67.5 -23.5t-50 -97.5l-61 7q70 313 440 214l389 -102q58 -16 115 5.5t79 95.5zM1238 665l57 -8q-86 -324 -464 -213l-362 107q-38 12 -75 14.5t-67.5 -23.5t-50.5 -98l-60 7q70 313 439 214l390 -102
q58 -16 115 6t78 96z" />
    <glyph glyph-name="lessequal" unicode="&#x2264;" horiz-adv-x="985" 
d="M1100 1105l-31 -145l-592 -276l475 -278l-16 -73l-663 387zM143 104h744l-9 -43h-745z" />
    <glyph glyph-name="greaterequal" unicode="&#x2265;" horiz-adv-x="985" 
d="M355 1105l663 -387l-827 -385l31 146l593 275l-475 278zM143 104h744l-9 -43h-745z" />
    </font>
</defs>
</svg>
