<?xml version="1.0" standalone="no"?>
<!DOCTYPE svg PUBLIC "-//W3C//DTD SVG 1.1//EN" "http://www.w3.org/Graphics/SVG/1.1/DTD/svg11.dtd" >
<svg xmlns="http://www.w3.org/2000/svg" xmlns:xlink="http://www.w3.org/1999/xlink" version="1.1">
<metadata>
Created by FontForge 20170731 at Mon Jun 11 21:57:21 2018
 By Aleksey,,,
Copyright (c) 2017 by Good Type Foundry Kenneth Knutsen. All rights reserved.
</metadata>
<defs>
<font id="Adieu-Bold" horiz-adv-x="0" >
  <font-face 
    font-family="Adieu"
    font-weight="700"
    font-stretch="normal"
    units-per-em="1000"
    panose-1="0 0 8 0 0 0 0 0 0 0"
    ascent="800"
    descent="-200"
    x-height="500"
    cap-height="700"
    bbox="-1050 -532 1703 1021"
    underline-thickness="50"
    underline-position="-150"
    unicode-range="U+0020-25CA"
  />
<missing-glyph horiz-adv-x="843" 
d="M240 38.5q-83 49.5 -131.5 133t-48.5 179.5t49 179t132 132.5t181 49.5q96 0 179 -48.5t132.5 -131.5t49.5 -181q0 -99 -49.5 -182t-132.5 -131.5t-179 -48.5q-99 0 -182 49.5zM566 101.5q66 38.5 104.5 104.5t38.5 145t-38.5 144.5t-104.5 104t-144 38.5
q-79 0 -145 -38.5t-104.5 -104t-38.5 -144.5t38.5 -145t104.5 -104.5t145 -38.5q78 0 144 38.5zM282 412.5q-19 18.5 -19 45.5q0 26 19 44.5t47 18.5q26 0 45 -18.5t19 -44.5q0 -27 -19 -45.5t-45 -18.5q-28 0 -47 18.5zM476 412.5q-18 18.5 -18 45.5q0 26 18 44.5t45 18.5
t46 -18.5t19 -44.5q0 -27 -19 -45.5t-46 -18.5t-45 18.5zM311 174q-50 23 -78.5 66t-28.5 99l64 9q4 -46 40 -80t114 -34q77 0 114.5 34.5t39.5 79.5l63 -9q0 -56 -29 -99t-79 -66t-109 -23q-61 0 -111 23z" />
    <glyph glyph-name=".notdef" horiz-adv-x="843" 
d="M240 38.5q-83 49.5 -131.5 133t-48.5 179.5t49 179t132 132.5t181 49.5q96 0 179 -48.5t132.5 -131.5t49.5 -181q0 -99 -49.5 -182t-132.5 -131.5t-179 -48.5q-99 0 -182 49.5zM566 101.5q66 38.5 104.5 104.5t38.5 145t-38.5 144.5t-104.5 104t-144 38.5
q-79 0 -145 -38.5t-104.5 -104t-38.5 -144.5t38.5 -145t104.5 -104.5t145 -38.5q78 0 144 38.5zM282 412.5q-19 18.5 -19 45.5q0 26 19 44.5t47 18.5q26 0 45 -18.5t19 -44.5q0 -27 -19 -45.5t-45 -18.5q-28 0 -47 18.5zM476 412.5q-18 18.5 -18 45.5q0 26 18 44.5t45 18.5
t46 -18.5t19 -44.5q0 -27 -19 -45.5t-46 -18.5t-45 18.5zM311 174q-50 23 -78.5 66t-28.5 99l64 9q4 -46 40 -80t114 -34q77 0 114.5 34.5t39.5 79.5l63 -9q0 -56 -29 -99t-79 -66t-109 -23q-61 0 -111 23z" />
    <glyph glyph-name=".null" 
 />
    <glyph glyph-name="nonmarkingreturn" horiz-adv-x="333" 
 />
    <glyph glyph-name="space" unicode=" " horiz-adv-x="300" 
 />
    <glyph glyph-name="exclam" unicode="!" horiz-adv-x="303" 
d="M62 700h180l-10 -406h-160zM74.5 12q-26.5 25 -26.5 68q0 42 26.5 67t70.5 25q43 0 70.5 -25t27.5 -67q0 -43 -26.5 -68t-71.5 -25q-44 0 -70.5 25z" />
    <glyph glyph-name="quotedbl" unicode="&#x22;" horiz-adv-x="403" 
d="M30 700h151l-33 -270h-101zM221 700h152l-33 -270h-102z" />
    <glyph glyph-name="numbersign" unicode="#" horiz-adv-x="1009" 
d="M809 388l-20 -93h158l-18 -112h-165l-39 -183h-156l39 183h-257l-39 -183h-156l39 183h-165l18 112h172l20 93h-178l18 112h184l43 200h156l-43 -200h257l43 200h156l-43 -200h146l-18 -112h-152zM653 388h-257l-20 -93h257z" />
    <glyph glyph-name="dollar" unicode="$" horiz-adv-x="863" 
d="M751 60q-86 -60 -233 -73v-97h-187v101q-136 20 -213.5 82.5t-75.5 154.5h182q-1 -45 54 -71.5t149 -26.5q114 0 175.5 20t61.5 59q0 29 -28 43.5t-70.5 19.5t-120.5 8q-119 6 -195 18.5t-131.5 56t-55.5 131.5q0 89 72 147t196 76v126h187v-124q138 -16 219 -79.5
t82 -159.5h-182q1 45 -50.5 71.5t-140.5 26.5q-100 0 -155 -19.5t-55 -56.5q0 -29 28.5 -44t72 -20.5t120.5 -10.5q119 -7 194.5 -20.5t130.5 -56.5t55 -127q0 -95 -86 -155z" />
    <glyph glyph-name="percent" unicode="%" horiz-adv-x="1039" 
d="M155 476q-48 16 -76.5 44.5t-28.5 64.5t28.5 64.5t76.5 44.5t104 16q93 0 151 -34.5t58 -90.5t-58 -90.5t-151 -34.5q-56 0 -104 16zM806 700h133l-695 -700h-134zM324 533q25 18 25 50q0 34 -24.5 53.5t-65.5 19.5q-40 0 -64.5 -19t-24.5 -52t24.5 -51.5t64.5 -18.5
t65 18zM676 6q-48 16 -76.5 44.5t-28.5 64.5t28.5 64.5t76.5 44.5t104 16q93 0 151 -34.5t58 -90.5t-58 -90.5t-151 -34.5q-56 0 -104 16zM845.5 62.5q24.5 18.5 24.5 50.5q0 34 -24.5 53t-65.5 19q-39 0 -64 -18.5t-25 -51.5t25 -52t64 -19q41 0 65.5 18.5z" />
    <glyph glyph-name="ampersand" unicode="&#x26;" horiz-adv-x="946" 
d="M218 5q-73 17 -125.5 63t-52.5 126q0 58 32 104.5t87 73t122 26.5l-178 175v127h625v-163h-350l270 -264q74 68 118 148l115 -125q-45 -83 -109 -143l158 -153h-242l-55 54q-65 -33 -134 -49.5t-134 -16.5q-74 0 -147 17zM506 177l-174 171q-7 1 -21 1q-58 0 -97 -24.5
t-39 -62.5q0 -59 51.5 -87.5t145.5 -28.5q65 0 134 31z" />
    <glyph glyph-name="quotesingle" unicode="'" horiz-adv-x="211" 
d="M30 700h151l-33 -270h-101z" />
    <glyph glyph-name="parenleft" unicode="(" horiz-adv-x="470" 
d="M221.5 -76q-83.5 61 -127.5 170.5t-44 255.5t44 255.5t127.5 170.5t198.5 61v-146q-70 0 -124 -43t-83.5 -120t-29.5 -178t29.5 -178t83.5 -120t124 -43v-146q-115 0 -198.5 61z" />
    <glyph glyph-name="parenright" unicode=")" horiz-adv-x="470" 
d="M50 9q114 1 175.5 87.5t61.5 253.5q0 168 -61.5 254t-175.5 87v146q115 0 198.5 -61t127.5 -170.5t44 -255.5t-44 -255.5t-127.5 -170.5t-198.5 -61v146z" />
    <glyph glyph-name="asterisk" unicode="*" horiz-adv-x="615" 
d="M281 389l-128 -158l-83 75l174 117l-214 -30v108l214 -30l-174 117l83 76l128 -159l-33 195h118l-32 -195l128 159l83 -76l-175 -117l215 30v-108l-215 30l175 -117l-83 -75l-128 158l32 -195h-118z" />
    <glyph glyph-name="plus" unicode="+" horiz-adv-x="580" 
d="M219 259h-189v143h188v189h143v-189h189v-143h-188v-188h-143v188z" />
    <glyph glyph-name="comma" unicode="," horiz-adv-x="271" 
d="M93 101h148l-113 -270h-98z" />
    <glyph glyph-name="hyphen" unicode="-" horiz-adv-x="460" 
d="M30 402h400v-143h-400v143z" />
    <glyph glyph-name="period" unicode="." horiz-adv-x="270" 
d="M64.5 12q-26.5 25 -26.5 68q0 42 26.5 67t70.5 25q43 0 70.5 -25t27.5 -67q0 -43 -26.5 -68t-71.5 -25q-44 0 -70.5 25z" />
    <glyph glyph-name="slash" unicode="/" horiz-adv-x="1048" 
d="M862 700h156l-832 -700h-156z" />
    <glyph glyph-name="zero" unicode="0" horiz-adv-x="969" 
d="M249 29.5q-100 45.5 -153.5 128.5t-53.5 192t53.5 192t153.5 128.5t235 45.5t235.5 -45.5t154 -128t53.5 -192.5t-53.5 -192.5t-154 -128t-235.5 -45.5t-235 45.5zM683 187.5q72 57.5 72 162.5t-72 162.5t-199 57.5t-198.5 -57.5t-71.5 -162.5t72 -162.5t198 -57.5
q127 0 199 57.5z" />
    <glyph glyph-name="one" unicode="1" horiz-adv-x="624" 
d="M369 553l-344 -217v171l404 193h112v-700h-172v553z" />
    <glyph glyph-name="two" unicode="2" horiz-adv-x="846" 
d="M51 101q1 75 55.5 126t128 80.5t187.5 63.5q103 29 150 50.5t47 53.5q0 50 -50.5 71t-163.5 21q-85 0 -187 -16.5t-142 -33.5v152q50 19 154 32.5t203 13.5q127 0 208 -19t122.5 -64t41.5 -122q0 -83 -50.5 -135t-120.5 -79t-182 -56q-93 -24 -143.5 -43.5t-69.5 -50.5
h543v-146h-731v101z" />
    <glyph glyph-name="three" unicode="3" horiz-adv-x="819" 
d="M191.5 -3q-97.5 13 -157.5 39v153q50 -23 151.5 -41t178.5 -18q259 0 259 67q0 32 -39.5 51t-132 29t-255.5 13v122q172 7 258.5 16.5t117.5 24.5t31 40q0 40 -67.5 59t-172.5 19q-74 0 -175.5 -18.5t-153.5 -41.5v154q59 24 159 38t180 14q188 0 290.5 -42t102.5 -150
q0 -101 -82.5 -136.5t-217.5 -35.5q320 0 320 -170q0 -109 -102 -154t-295 -45q-100 0 -197.5 13z" />
    <glyph glyph-name="four" unicode="4" horiz-adv-x="866" 
d="M578 117h-564v111l472 472h264v-438h97v-145h-97v-117h-172v117zM578 262v335l-330 -335h330z" />
    <glyph glyph-name="five" unicode="5" horiz-adv-x="810" 
d="M186.5 -2.5q-89.5 13.5 -145.5 37.5v158q51 -26 143 -44t181 -18q108 0 168.5 24.5t60.5 72.5q0 50 -51 73.5t-160 23.5q-61 0 -131 -15.5t-127 -40.5l-76 72l41 359h645v-146h-517l-24 -138q46 18 113.5 28t143.5 10q141 0 228 -53.5t87 -177.5q0 -75 -49.5 -129
t-140.5 -82t-214 -28q-86 0 -175.5 13.5z" />
    <glyph glyph-name="six" unicode="6" horiz-adv-x="860" 
d="M152 82q-110 94 -110 280q0 112 54 191.5t153 120.5t232 41q89 0 156.5 -14.5t126.5 -43.5v-159q-60 34 -129 52.5t-158 18.5q-123 0 -193 -52.5t-70 -144.5q59 44 136 66t149 22q159 0 239 -65t80 -173q0 -71 -43 -123.5t-125.5 -81.5t-197.5 -29q-190 0 -300 94z
M590 159.5q55 25.5 55 73.5q0 49 -43.5 75t-127.5 26q-63 0 -133 -21t-111 -53q22 -58 77 -92t136 -34q92 0 147 25.5z" />
    <glyph glyph-name="seven" unicode="7" horiz-adv-x="824" 
d="M554 554h-542v146h799v-74l-477 -626h-234z" />
    <glyph glyph-name="eight" unicode="8" horiz-adv-x="859" 
d="M221 3q-90 24 -138.5 70t-48.5 110q0 73 66.5 112t165.5 49q-90 16 -151 59.5t-61 117.5q0 92 100 142t275 50q109 0 194 -22t133.5 -65t48.5 -105q0 -74 -61.5 -118t-151.5 -59q99 -10 166 -49t67 -112q0 -64 -49 -110t-137.5 -70t-204.5 -23q-123 -1 -213 23z
M587.5 437.5q44.5 21.5 44.5 57.5q0 40 -57 59.5t-146 19.5q-88 0 -145 -19.5t-57 -59.5q0 -36 42 -57.5t160 -21.5q114 0 158.5 21.5zM595.5 139.5q56.5 19.5 56.5 56.5q0 38 -49 57.5t-174 19.5q-124 0 -173 -19.5t-49 -57.5q0 -37 56 -56.5t166 -19.5t166.5 19.5z" />
    <glyph glyph-name="nine" unicode="9" horiz-adv-x="860" 
d="M708 620q110 -94 110 -280q0 -112 -54 -191.5t-153 -120.5t-232 -41q-89 0 -156.5 14.5t-126.5 43.5v159q60 -34 128.5 -52.5t157.5 -18.5q123 0 193.5 52.5t70.5 144.5q-59 -44 -136 -66t-149 -22q-159 0 -239 65t-80 173q0 71 43 123.5t125.5 81.5t197.5 29
q190 0 300 -94zM270 542.5q-55 -25.5 -55 -73.5q0 -49 43.5 -75t127.5 -26q63 0 132.5 21t110.5 53q-21 58 -76 92t-136 34q-92 0 -147 -25.5z" />
    <glyph glyph-name="colon" unicode=":" horiz-adv-x="305" 
d="M64.5 318q-26.5 25 -26.5 68q0 42 26.5 67t70.5 25q43 0 70.5 -25t27.5 -67q0 -43 -26.5 -68t-71.5 -25q-44 0 -70.5 25zM64.5 12q-26.5 25 -26.5 68q0 42 26.5 67t70.5 25q43 0 70.5 -25t27.5 -67q0 -43 -26.5 -68t-71.5 -25q-44 0 -70.5 25z" />
    <glyph glyph-name="semicolon" unicode=";" horiz-adv-x="293" 
d="M93 101h148l-113 -270h-98zM86.5 318q-26.5 25 -26.5 68q0 42 26.5 67t70.5 25q43 0 70.5 -25t27.5 -67q0 -43 -26.5 -68t-71.5 -25q-44 0 -70.5 25z" />
    <glyph glyph-name="less" unicode="&#x3c;" horiz-adv-x="491" 
d="M30 250l206 250h210l-214 -250l214 -250h-210z" />
    <glyph glyph-name="equal" unicode="=" horiz-adv-x="580" 
d="M30 525h520v-143h-520v143zM30 272h520v-143h-520v143z" />
    <glyph glyph-name="greater" unicode="&#x3e;" horiz-adv-x="476" 
d="M244 250l-214 250h210l206 -250l-206 -250h-210z" />
    <glyph glyph-name="question" unicode="?" horiz-adv-x="772" 
d="M307.5 302q22.5 30 54.5 46t84 34q58 19 86.5 37.5t28.5 53.5q0 51 -47 72.5t-136 21.5q-88 0 -132.5 -32.5t-44.5 -95.5h-183q0 107 61 168.5t143.5 84.5t160.5 23q161 0 255 -55t94 -155q0 -65 -26.5 -106t-63.5 -62t-93 -43q-47 -18 -70 -32t-28 -37h-166
q0 47 22.5 77zM295 12.5q-27 25.5 -27 67.5t27 67t70 25q44 0 71 -25t27 -67q0 -43 -26 -68t-72 -25q-43 0 -70 25.5z" />
    <glyph glyph-name="at" unicode="@" horiz-adv-x="1073" 
d="M793 675q111 -50 170.5 -135t59.5 -188q0 -77 -40.5 -138t-123.5 -92h-209l19 139h-8q-20 -79 -70 -115.5t-143 -36.5q-62 0 -107.5 22.5t-45.5 85.5q0 73 94 104.5t256 42.5q-1 33 -25 48.5t-73 15.5q-46 0 -101.5 -12.5t-98.5 -31.5v118q53 20 116.5 32.5t116.5 12.5
q206 0 206 -193v-208q63 41 87 87.5t24 118.5q0 77 -43.5 136.5t-125.5 92.5t-192 33q-111 0 -192 -34.5t-124 -100t-43 -157.5t43 -157t124 -99.5t192 -34.5q99 0 171 25v-117q-80 -20 -171 -20q-148 0 -258 50t-169 141.5t-59 211.5t59 211.5t169 141.5t258 50
q146 0 257 -50zM604 231.5q40 25.5 40 71.5q-98 -7 -150 -18.5t-52 -41.5q0 -18 19 -27.5t50 -9.5q53 0 93 25.5z" />
    <glyph glyph-name="A" unicode="A" horiz-adv-x="1098" 
d="M452 700h194l423 -700h-202l-76 133h-485l-76 -133h-201zM709 279l-160 280l-160 -280h320z" />
    <glyph glyph-name="B" unicode="B" horiz-adv-x="926" 
d="M84 700h527q106 0 165.5 -51t59.5 -134q0 -75 -51 -114.5t-143 -44.5q101 -2 159 -46t58 -124q0 -55 -28 -97.5t-79.5 -65.5t-118.5 -23h-549v700zM576 420q43 0 65.5 15.5t22.5 50.5q0 68 -88 68h-321l1 -134h320zM598 147q88 0 88 71q0 37 -23 55t-65 18h-342l1 -144
h341z" />
    <glyph glyph-name="C" unicode="C" horiz-adv-x="934" 
d="M249 29.5q-96 45.5 -148.5 128.5t-52.5 192t52.5 192t148.5 128.5t221 45.5t221 -40t148.5 -113t52.5 -168h-174q-6 84 -73 129.5t-175 45.5q-115 0 -182.5 -57.5t-67.5 -162.5q0 -104 68 -162t182 -58q109 0 176 45.5t72 129.5h174q0 -95 -52.5 -168t-148.5 -113
t-221 -40t-221 45.5z" />
    <glyph glyph-name="D" unicode="D" horiz-adv-x="867" 
d="M84 700h333q192 0 300 -90t108 -260q0 -171 -108 -260.5t-300 -89.5h-333v700zM417 146q116 0 176 52t60 152q0 101 -60.5 152.5t-175.5 51.5h-161v-408h161z" />
    <glyph glyph-name="E" unicode="E" horiz-adv-x="840" 
d="M84 700h682v-146h-510v-130h501v-137h-501v-141h510v-146h-682v700z" />
    <glyph glyph-name="F" unicode="F" horiz-adv-x="769" 
d="M84 700h641v-146h-469v-130h460v-137h-460v-287h-172v700z" />
    <glyph glyph-name="G" unicode="G" horiz-adv-x="960" 
d="M253 29.5q-96 45.5 -148.5 128.5t-52.5 192t52.5 192t148.5 128.5t221 45.5q119 0 213 -34t148 -96t56 -142h-177q-3 63 -65 94.5t-169 31.5q-119 0 -187.5 -57.5t-68.5 -162.5q0 -104 68 -162t182 -58q95 0 161 33t83 98h-349v123h533v-384h-112l-8 140
q-41 -78 -122 -117t-186 -39q-125 0 -221 45.5z" />
    <glyph glyph-name="H" unicode="H" horiz-adv-x="953" 
d="M84 700h172v-263h441v263h172v-700h-172v291h-441v-291h-172v700z" />
    <glyph glyph-name="I" unicode="I" horiz-adv-x="340" 
d="M84 700h172v-700h-172v700z" />
    <glyph glyph-name="J" unicode="J" horiz-adv-x="823" 
d="M54 339h173q0 -111 42.5 -160t127.5 -49t127.5 49t42.5 160v215h-420v146h592v-361q0 -355 -342 -355q-343 0 -343 355z" />
    <glyph glyph-name="K" unicode="K" horiz-adv-x="981" 
d="M84 700h172v-353l404 353h251l-306 -265l335 -435h-233l-242 318l-209 -171v-147h-172v700z" />
    <glyph glyph-name="L" unicode="L" horiz-adv-x="755" 
d="M84 700h172v-554h465v-146h-637v700z" />
    <glyph glyph-name="M" unicode="M" horiz-adv-x="1050" 
d="M84 700h153l288 -454l287 454h154v-700h-172v404l-252 -404h-34l-252 403v-403h-172v700z" />
    <glyph glyph-name="N" unicode="N" horiz-adv-x="974" 
d="M84 700h144l491 -445v445h172v-700h-145l-490 445v-445h-172v700z" />
    <glyph glyph-name="O" unicode="O" horiz-adv-x="969" 
d="M249 29.5q-100 45.5 -153.5 128.5t-53.5 192t53.5 192t153.5 128.5t235 45.5t235.5 -45.5t154 -128t53.5 -192.5t-53.5 -192.5t-154 -128t-235.5 -45.5t-235 45.5zM683 187.5q72 57.5 72 162.5t-72 162.5t-199 57.5t-198.5 -57.5t-71.5 -162.5t72 -162.5t198 -57.5
q127 0 199 57.5z" />
    <glyph glyph-name="P" unicode="P" horiz-adv-x="874" 
d="M84 700h507q70 0 123.5 -28.5t82.5 -77.5t29 -108q0 -103 -65 -158t-170 -55h-335v-273h-172v700zM566 413q46 0 67 17t21 56t-21.5 57t-66.5 18h-311v-148h311z" />
    <glyph glyph-name="Q" unicode="Q" horiz-adv-x="989" 
d="M895 -16l-120 76q-115 -76 -291 -76q-135 0 -235 45.5t-153.5 128.5t-53.5 192t53.5 192t153.5 128.5t235 45.5t235.5 -45.5t154 -128t53.5 -192.5q0 -97 -42 -172l96 -57zM626 155l-149 94l77 127l186 -111q15 38 15 85q0 105 -72 162.5t-199 57.5t-198.5 -57.5
t-71.5 -162.5t72 -162.5t198 -57.5q83 0 142 25z" />
    <glyph glyph-name="R" unicode="R" horiz-adv-x="941" 
d="M84 700h557q106 0 165.5 -51t59.5 -134t-61 -129.5t-164 -46.5h-72q82 -5 139.5 -41t104.5 -104t111 -194h-206q-74 134 -110.5 188.5t-74 78t-96.5 23.5h-182l1 -290h-172v700zM606 424q45 0 66.5 16.5t21.5 49.5q0 37 -21.5 54t-66.5 17h-352l1 -137h351z" />
    <glyph glyph-name="S" unicode="S" horiz-adv-x="879" 
d="M230 14.5q-91 30.5 -140 85.5t-48 128h182q-1 -45 54 -71.5t149 -26.5q114 0 175.5 20t61.5 59q0 29 -28 43.5t-70.5 19.5t-120.5 8q-119 6 -195 18.5t-131.5 56t-55.5 131.5q0 70 46 122t129.5 80t193.5 28q114 0 201.5 -30t136 -85.5t49.5 -128.5h-182q1 45 -50.5 71.5
t-140.5 26.5q-100 0 -155 -19.5t-55 -56.5q0 -29 28.5 -44t72 -20.5t120.5 -10.5q119 -7 194.5 -20.5t130.5 -56.5t55 -127q0 -71 -49.5 -123t-138.5 -80t-207 -28q-121 0 -212 30.5z" />
    <glyph glyph-name="T" unicode="T" horiz-adv-x="881" 
d="M354 554h-325v146h823v-146h-326v-554h-172v554z" />
    <glyph glyph-name="U" unicode="U" horiz-adv-x="917" 
d="M255 19q-82 35 -126.5 119.5t-44.5 229.5v332h172v-362q0 -101 51 -152t151 -51t151.5 51t51.5 152v362h172v-332q0 -144 -45 -229t-127 -120t-203 -35t-203 35z" />
    <glyph glyph-name="V" unicode="V" horiz-adv-x="1065" 
d="M1036 700l-380 -700h-247l-380 700h205l299 -575l298 575h205z" />
    <glyph glyph-name="W" unicode="W" horiz-adv-x="1274" 
d="M36 700h192l166 -466l151 466h184l151 -466l166 466h191l-259 -700h-200l-141 421l-141 -421h-201z" />
    <glyph glyph-name="X" unicode="X" horiz-adv-x="943" 
d="M353 353l-312 347h232l200 -222l200 222h232l-316 -353l309 -347h-229l-201 223l-201 -223h-229z" />
    <glyph glyph-name="Y" unicode="Y" horiz-adv-x="1003" 
d="M415 226l-390 474h212l264 -330l265 330h212l-391 -473v-227h-172v226z" />
    <glyph glyph-name="Z" unicode="Z" horiz-adv-x="902" 
d="M39 110l528 444h-520v146h806v-107l-526 -447h536v-146h-824v110z" />
    <glyph glyph-name="bracketleft" unicode="[" horiz-adv-x="513" 
d="M202 588v-666h281v-112h-453v890h453v-112h-281z" />
    <glyph glyph-name="backslash" unicode="\" horiz-adv-x="1048" 
d="M30 700h156l832 -700h-156z" />
    <glyph glyph-name="bracketright" unicode="]" horiz-adv-x="513" 
d="M483 -190h-453v112h281v666h-281v112h453v-890z" />
    <glyph glyph-name="asciicircum" unicode="^" horiz-adv-x="560" 
d="M30 435l250 274l250 -274v-118l-250 242l-250 -242v118z" />
    <glyph glyph-name="underscore" unicode="_" horiz-adv-x="1060" 
d="M30 143h1000v-143h-1000v143z" />
    <glyph glyph-name="grave" unicode="`" horiz-adv-x="387" 
d="M50 683v127l287 -161v-105z" />
    <glyph glyph-name="a" unicode="a" horiz-adv-x="687" 
d="M97.5 11.5q-55.5 27.5 -55.5 104.5q0 88 114.5 126.5t309.5 52.5q0 40 -29.5 58.5t-88.5 18.5q-56 0 -123 -15t-120 -38v143q65 24 142 39t141 15q250 0 250 -234v-282h-165l22 169h-9q-24 -97 -84.5 -141t-173.5 -44q-75 0 -130.5 27.5zM417.5 132.5
q48.5 30.5 47.5 87.5q-117 -8 -181 -22t-64 -51q0 -21 23 -33t61 -12q65 0 113.5 30.5z" />
    <glyph glyph-name="b" unicode="b" horiz-adv-x="788" 
d="M317 33.5q-69 49.5 -86 129.5h-12l22 -163h-176v700h172v-362h4q17 83 86 130.5t162 47.5q74 0 132.5 -33t91.5 -92.5t33 -136.5q0 -80 -33.5 -141.5t-94 -95t-138.5 -33.5q-94 0 -163 49.5zM534.5 154.5q45.5 34.5 45.5 97.5q0 62 -45 95t-113 33q-67 0 -114 -33.5
t-47 -94.5q0 -62 47 -97t114 -35t112.5 34.5z" />
    <glyph glyph-name="c" unicode="c" horiz-adv-x="637" 
d="M196.5 17q-72.5 33 -113.5 93.5t-41 139.5q0 80 39.5 140t112 93t167.5 33q66 0 119 -12t115 -40v-146q-52 30 -105.5 46t-117.5 16q-78 0 -121 -35.5t-43 -94.5t45.5 -94.5t125.5 -35.5q66 0 117.5 15t98.5 45v-143q-65 -29 -115 -41t-120 -12q-91 0 -163.5 33z" />
    <glyph glyph-name="d" unicode="d" horiz-adv-x="788" 
d="M169.5 17.5q-60.5 33.5 -94 95t-33.5 141.5q0 77 33 136.5t91.5 92.5t132.5 33q93 0 162 -47.5t86 -130.5h4v362h172v-700h-176l22 163h-12q-17 -80 -86 -129.5t-163 -49.5q-78 0 -138.5 33.5zM480 155q47 35 47 97q0 61 -47 94.5t-114 33.5q-68 0 -113 -33t-45 -95
q0 -63 45.5 -97.5t112.5 -34.5t114 35z" />
    <glyph glyph-name="e" unicode="e" horiz-adv-x="686" 
d="M185 17q-68 33 -105.5 93.5t-37.5 139.5t37.5 139.5t105.5 93.5t158 33q89 0 156.5 -28.5t105.5 -80t39 -118.5v-82h-431q12 -47 55.5 -69.5t124.5 -22.5q70 0 113.5 11.5t92.5 33.5l23 10v-137q-71 -27 -128 -38t-151 -11q-90 0 -158 33zM479 283q-3 46 -40 71.5
t-96 25.5q-54 0 -90.5 -27.5t-43.5 -75.5z" />
    <glyph glyph-name="f" unicode="f" horiz-adv-x="424" 
d="M98 375h-60v125h60v20q0 71 13.5 111.5t47 59t95.5 18.5q29 0 58 -3.5t76 -12.5v-100l-34 1q-39 0 -56.5 -8t-22.5 -26.5t-5 -59.5h118v-119h-118v-381h-172v375z" />
    <glyph glyph-name="g" unicode="g" horiz-adv-x="785" 
d="M126 -164v146q32 -19 98.5 -32.5t141.5 -13.5q72 0 113.5 17t60 55t22.5 103l1 37q-20 -73 -86.5 -112.5t-158.5 -39.5q-79 0 -139 31t-93.5 89t-33.5 138q0 77 33 136.5t91.5 92.5t132.5 33q93 0 162 -47.5t86 -130.5h16l-15 162h170v-440q0 -131 -89.5 -195.5
t-243.5 -64.5q-141 0 -269 36zM489.5 155q47.5 35 47.5 97q0 61 -47 94.5t-114 33.5q-68 0 -113 -33t-45 -95q0 -63 45.5 -97.5t112.5 -34.5q66 0 113.5 35z" />
    <glyph glyph-name="h" unicode="h" horiz-adv-x="734" 
d="M58 700h186l-20 -406h8q18 113 77 167.5t172 54.5q74 -1 118 -28t65.5 -91.5t21.5 -179.5v-217h-172v200q0 71 -13 111.5t-40.5 58t-73.5 17.5t-82 -29.5t-55.5 -83t-19.5 -121.5v-153h-172v700z" />
    <glyph glyph-name="i" unicode="i" horiz-adv-x="296" 
d="M71 586q-26 22 -26 69q0 92 102 92q104 0 104 -92q0 -48 -26 -69.5t-78 -21.5q-50 0 -76 22zM63 500h172v-500h-172v500z" />
    <glyph glyph-name="j" unicode="j" horiz-adv-x="312" 
d="M77 586q-26 22 -26 69q0 92 102 92q104 0 104 -92q0 -48 -26 -69.5t-78 -21.5q-50 0 -76 22zM-32 -101q48 0 74 23t26 60v518h172v-510q0 -89 -73.5 -139.5t-198.5 -50.5v99z" />
    <glyph glyph-name="k" unicode="k" horiz-adv-x="726" 
d="M58 700h172v-394l212 194h240l-196 -167l209 -333h-213l-127 220l-125 -104v-116h-172v700z" />
    <glyph glyph-name="l" unicode="l" horiz-adv-x="302" 
d="M65 700h172v-700h-172v700z" />
    <glyph glyph-name="m" unicode="m" horiz-adv-x="1190" 
d="M58 500h186l-20 -206h8q18 113 77 167.5t172 54.5q64 -1 105 -21.5t64 -68.5t30 -132h8q18 113 77 167.5t172 54.5q74 -1 118 -28t65.5 -91.5t21.5 -179.5v-217h-172v200q0 71 -13 111.5t-40.5 58t-73.5 17.5t-82 -29.5t-55.5 -83t-19.5 -121.5v-153h-172v200
q0 71 -13 111.5t-40.5 58t-73.5 17.5t-82 -29.5t-55.5 -83t-19.5 -121.5v-153h-172v500z" />
    <glyph glyph-name="n" unicode="n" horiz-adv-x="734" 
d="M58 500h186l-20 -206h8q18 113 77 167.5t172 54.5q74 -1 118 -28t65.5 -91.5t21.5 -179.5v-217h-172v200q0 71 -13 111.5t-40.5 58t-73.5 17.5t-82 -29.5t-55.5 -83t-19.5 -121.5v-153h-172v500z" />
    <glyph glyph-name="o" unicode="o" horiz-adv-x="718" 
d="M192.5 17q-71.5 33 -111 93.5t-39.5 139.5t39.5 139.5t111 93.5t166.5 33t166.5 -33t111 -93.5t39.5 -139.5t-39.5 -139.5t-111 -93.5t-166.5 -33t-166.5 33zM471.5 156q42.5 36 42.5 94q0 59 -42.5 94.5t-112.5 35.5t-112.5 -35.5t-42.5 -94.5q0 -58 42.5 -94t112.5 -36
t112.5 36z" />
    <glyph glyph-name="p" unicode="p" horiz-adv-x="788" 
d="M618.5 482.5q60.5 -33.5 94 -95t33.5 -141.5q0 -77 -33 -136.5t-91.5 -92.5t-132.5 -33q-93 0 -162 47.5t-86 130.5h-4v-362h-172v700h176l-22 -163h12q17 80 86 129.5t163 49.5q78 0 138.5 -33.5zM308 345q-47 -35 -47 -97q0 -61 47 -94.5t114 -33.5t112.5 33.5
t45.5 94.5q0 63 -45.5 97.5t-112.5 34.5t-114 -35z" />
    <glyph glyph-name="q" unicode="q" horiz-adv-x="788" 
d="M471 466.5q69 -49.5 86 -129.5h12l-22 163h176v-700h-172v362h-4q-17 -83 -86 -130.5t-162 -47.5q-74 0 -132.5 33t-91.5 92.5t-33 136.5q0 80 33.5 141.5t94 95t138.5 33.5q94 0 163 -49.5zM253.5 345.5q-45.5 -34.5 -45.5 -97.5q0 -61 45.5 -94.5t112.5 -33.5t114 33.5
t47 94.5q0 62 -47 97t-114 35t-112.5 -34.5z" />
    <glyph glyph-name="r" unicode="r" horiz-adv-x="537" 
d="M58 500h186l-20 -186h10q20 108 83 155t192 47v-146q-102 0 -162 -17.5t-88.5 -61t-28.5 -123.5v-168h-172v500z" />
    <glyph glyph-name="s" unicode="s" horiz-adv-x="675" 
d="M203 -5.5q-74 10.5 -135 28.5v144q63 -24 119 -34.5t122 -10.5q83 0 119 8.5t36 30.5q0 20 -32.5 27t-102.5 11q-85 4 -142 14t-99 41t-42 92q0 84 78.5 127t215.5 43q46 0 116 -7.5t134 -20.5v-141q-133 28 -228 28q-78 0 -114.5 -9t-36.5 -28q0 -17 29 -22.5t96 -9.5
q87 -4 146.5 -14t103.5 -43t44 -97q0 -86 -78 -127t-216 -41q-59 0 -133 10.5z" />
    <glyph glyph-name="t" unicode="t" horiz-adv-x="426" 
d="M151.5 7.5q-31.5 17.5 -42.5 56.5t-11 116v195h-64v125h78v120l158 20v-140h122v-125h-122v-165q0 -48 3.5 -67.5t19 -28t52.5 -8.5q11 0 47 2v-98q-67 -20 -144 -20q-65 0 -96.5 17.5z" />
    <glyph glyph-name="u" unicode="u" horiz-adv-x="734" 
d="M676 0h-186l20 206h-9q-18 -113 -76.5 -167.5t-171.5 -54.5q-74 1 -118 28t-65.5 91.5t-21.5 179.5v217h172v-200q0 -70 13 -110.5t40 -58t73 -17.5q47 0 83 29.5t55.5 82.5t19.5 121v153h172v-500z" />
    <glyph glyph-name="v" unicode="v" horiz-adv-x="805" 
d="M29 500h185l189 -358l188 358h185l-264 -500h-219z" />
    <glyph glyph-name="w" unicode="w" horiz-adv-x="1099" 
d="M25 500h175l138 -324l129 324h154l139 -328l138 328h176l-214 -500h-204l-110 269l-104 -269h-203z" />
    <glyph glyph-name="x" unicode="x" horiz-adv-x="814" 
d="M290 251l-264 249h219l162 -153l163 153h219l-273 -257l257 -243h-218l-156 147l-156 -147h-218z" />
    <glyph glyph-name="y" unicode="y" horiz-adv-x="789" 
d="M310 6l-285 494h195l178 -324l177 324h189l-376 -700h-189z" />
    <glyph glyph-name="z" unicode="z" horiz-adv-x="719" 
d="M30 86l360 285h-352v129h651v-84l-358 -286h348v-130h-649v86z" />
    <glyph glyph-name="braceleft" unicode="{" horiz-adv-x="698" 
d="M423.5 -58.5q-77.5 21.5 -105.5 64.5t-28 117q0 97 -61.5 144.5t-198.5 47.5v68q133 2 187.5 49t54.5 136q0 77 27.5 121t106.5 66t231 22v-62q-84 0 -133 -13t-72 -44.5t-23 -89.5q0 -63 -10 -102.5t-51.5 -70.5t-129.5 -45q85 -4 130.5 -33t61.5 -76t16 -118
q0 -55 24 -86t72 -43.5t126 -12.5v-61q-147 0 -224.5 21.5z" />
    <glyph glyph-name="bar" unicode="|" horiz-adv-x="292" 
d="M60 720h172v-890h-172v890z" />
    <glyph glyph-name="braceright" unicode="}" horiz-adv-x="705" 
d="M58 -19q117 0 169.5 31t52.5 111q0 71 16 118t61 76t130 33q-88 14 -129 45t-51 70t-10 103q0 58 -23 89.5t-72.5 44.5t-133.5 13v62q153 0 231.5 -22t106 -66t27.5 -121q0 -89 54.5 -136t187.5 -49v-68q-137 0 -198.5 -47.5t-61.5 -144.5q0 -74 -28 -117t-105 -64.5
t-224 -21.5v61z" />
    <glyph glyph-name="asciitilde" unicode="~" horiz-adv-x="441" 
d="M241.5 321.5q-19.5 11.5 -40.5 32.5q-15 14 -25.5 21t-22.5 7q-28 0 -44.5 -18t-17.5 -53h-61q1 58 35 94t88 36q23 0 39.5 -10t37.5 -30q19 -17 31 -24.5t27 -7.5q29 0 45.5 17.5t17.5 53.5h60q-1 -59 -35 -94.5t-88 -35.5q-27 0 -46.5 11.5z" />
    <glyph glyph-name="exclamdown" unicode="&#xa1;" horiz-adv-x="290" 
d="M216.5 495q26.5 -25 26.5 -68q0 -42 -27.5 -67t-70.5 -25q-44 0 -70.5 25t-26.5 67q0 43 26.5 68t70.5 25q45 0 71.5 -25zM232 213l10 -406h-180l10 406h160z" />
    <glyph glyph-name="cent" unicode="&#xa2;" horiz-adv-x="589" 
d="M241 434.5q-43 -35.5 -43 -94.5t45.5 -94.5t125.5 -35.5q66 0 117.5 15t98.5 45v-143q-50 -22 -88 -34t-82 -16v-107h-187v121q-90 28 -143 93.5t-53 155.5q0 91 52 157t144 92v111h187v-97q43 -4 83 -16t87 -33v-146q-52 30 -105.5 46t-117.5 16q-78 0 -121 -35.5z" />
    <glyph glyph-name="sterling" unicode="&#xa3;" horiz-adv-x="902" 
d="M359.5 543.5q-52.5 -23.5 -52.5 -87.5q0 -16 3 -34l4 -33h480v-115h-480q-15 -81 -94 -134h625v-140h-760v144q46 23 65 48t20 57q0 9 -2 25h-84v115h58q-14 60 -14 117q0 79 40 124.5t120 65t209 19.5q93 0 202.5 -10.5t152.5 -24.5v-152q-31 12 -142.5 25.5
t-186.5 13.5q-111 0 -163.5 -23.5z" />
    <glyph glyph-name="currency" unicode="&#xa4;" horiz-adv-x="720" 
d="M41 137l82 83q-29 47 -29 110q0 67 34 116l-87 87l121 122l114 -114q38 9 83 9q47 0 86 -9l113 114l122 -122l-86 -86q30 -48 30 -117q0 -64 -27 -111l83 -82l-122 -121l-105 104q-39 -10 -94 -10q-49 0 -91 11l-106 -105zM452.5 252.5q33.5 28.5 33.5 77.5t-33.5 77.5
t-93.5 28.5t-93.5 -28.5t-33.5 -77.5t33.5 -77.5t93.5 -28.5t93.5 28.5z" />
    <glyph glyph-name="yen" unicode="&#xa5;" horiz-adv-x="963" 
d="M700 364h156v-103h-241l-28 -34v-6h269v-103h-269v-118h-172v118h-269v103h269v5l-29 35h-240v103h155l-276 336h212l264 -330l265 330h212z" />
    <glyph glyph-name="brokenbar" unicode="&#xa6;" horiz-adv-x="292" 
d="M60 720h172v-407h-172v407zM60 248h172v-418h-172v418z" />
    <glyph glyph-name="section" unicode="&#xa7;" horiz-adv-x="644" 
d="M187 10.5q-74 10.5 -135 28.5v139q61 -23 124.5 -33t143.5 -10q64 0 93 6.5t29 20.5q0 22 -32 30t-106 15q-85 8 -139.5 19t-94.5 43t-40 92q0 50 41 76q-41 37 -41 89q0 80 79 122t215 42q46 0 116 -7.5t134 -20.5v-139q-54 11 -124 18.5t-126 7.5q-65 0 -93.5 -7
t-28.5 -25q0 -13 25 -17.5t82 -8.5q88 -6 149.5 -17.5t108.5 -48.5t47 -107q0 -45 -36 -76q36 -41 36 -90q0 -75 -79 -113.5t-215 -38.5q-59 0 -133 10.5zM440 341q0 22 -29.5 34t-88.5 18q-32 2 -41 2q-42 0 -59.5 -11t-17.5 -32t28 -33t86 -17q26 -2 37 -2q85 0 85 41z
" />
    <glyph glyph-name="dieresis" unicode="&#xa8;" horiz-adv-x="588" 
d="M77.5 561.5q-27.5 23.5 -27.5 61.5t27.5 61.5t71.5 23.5q47 0 73 -23t26 -62t-26 -62t-73 -23q-44 0 -71.5 23.5zM367.5 561.5q-27.5 23.5 -27.5 61.5t27.5 61.5t71.5 23.5q47 0 73 -23t26 -62t-26 -62t-73 -23q-44 0 -71.5 23.5z" />
    <glyph glyph-name="copyright" unicode="&#xa9;" horiz-adv-x="965" 
d="M250.5 29.5q-97.5 45.5 -149 128t-51.5 192.5t52.5 192.5t150 128t229.5 45.5q135 0 232.5 -45t149 -127.5t51.5 -193.5q0 -110 -51.5 -192.5t-149 -128t-232.5 -45.5q-134 0 -231.5 45.5zM706 54.5q91 43.5 136 120.5t45 177t-45.5 176t-136.5 118.5t-223 42.5
q-128 0 -219.5 -43.5t-139 -121t-47.5 -176.5t48 -175t139.5 -119t218.5 -43q133 0 224 43.5zM329 118q-68 33 -105.5 93.5t-37.5 139.5t37.5 139.5t105.5 93.5t158 33q89 0 157 -29.5t105.5 -83.5t37.5 -124h-174q-6 46 -40.5 74t-85.5 28q-58 0 -93.5 -36t-35.5 -95
t35.5 -95t93.5 -36q53 0 88 30t40 80h173q0 -73 -37.5 -128.5t-105.5 -86t-158 -30.5t-158 33z" />
    <glyph glyph-name="guillemotleft" unicode="&#xab;" horiz-adv-x="870" 
d="M240 250l214 -250h-210l-206 250l206 250h210zM619 250l214 -250h-210l-206 250l206 250h210z" />
    <glyph glyph-name="logicalnot" unicode="&#xac;" horiz-adv-x="670" 
d="M496 274h-466v143h610v-341h-143z" />
    <glyph glyph-name="registered" unicode="&#xae;" horiz-adv-x="965" 
d="M250.5 29.5q-97.5 45.5 -149 128t-51.5 192.5t52.5 192.5t150 128t229.5 45.5q135 0 232.5 -45t149 -127.5t51.5 -193.5q0 -110 -51.5 -192.5t-149 -128t-232.5 -45.5q-134 0 -231.5 45.5zM706 54.5q91 43.5 136 120.5t45 177t-45.5 176t-136.5 118.5t-223 42.5
q-128 0 -219.5 -43.5t-139 -121t-47.5 -176.5t48 -175t139.5 -119t218.5 -43q133 0 224 43.5zM255 568h346q66 0 103 -32t37 -83q0 -52 -38 -81t-102 -29h-45q51 -3 87 -25t65 -64.5t68 -120.5h-127q-46 83 -69 117t-46 48.5t-60 14.5h-113l1 -180h-107v435zM579 396
q55 0 55 41q0 23 -13 33.5t-42 10.5h-218v-85h218z" />
    <glyph glyph-name="macron" unicode="&#xaf;" horiz-adv-x="632" 
d="M50 700h532v-54h-532v54z" />
    <glyph glyph-name="degree" unicode="&#xb0;" horiz-adv-x="518" 
d="M155 476q-48 16 -76.5 44.5t-28.5 64.5t28.5 64.5t76.5 44.5t104 16q93 0 151 -34.5t58 -90.5t-58 -90.5t-151 -34.5q-56 0 -104 16zM324 533q25 18 25 50q0 34 -24.5 53.5t-65.5 19.5q-40 0 -64.5 -19t-24.5 -52t24.5 -51.5t64.5 -18.5t65 18z" />
    <glyph glyph-name="plusminus" unicode="&#xb1;" horiz-adv-x="600" 
d="M233 334h-138v115h138v137h115v-137h137v-115h-137v-138h-115v138zM30 103h520v-103h-520v103z" />
    <glyph glyph-name="acute" unicode="&#xb4;" horiz-adv-x="387" 
d="M50 649l287 161v-127l-287 -139v105z" />
    <glyph glyph-name="paragraph" unicode="&#xb6;" horiz-adv-x="939" 
d="M394 273h-129q-105 0 -170 55t-65 158q0 59 29 108t82.5 77.5t123.5 28.5h305v-880h-176v453zM737 700h172v-880h-172v880z" />
    <glyph glyph-name="periodcentered" unicode="&#xb7;" horiz-adv-x="270" 
d="M64.5 258q-26.5 25 -26.5 68q0 42 26.5 67t70.5 25q43 0 70.5 -25t27.5 -67q0 -43 -26.5 -68t-71.5 -25q-44 0 -70.5 25z" />
    <glyph glyph-name="cedilla" unicode="&#xb8;" horiz-adv-x="526" 
d="M395.5 -106q80.5 -28 80.5 -71q0 -31 -53.5 -56t-150 -39.5t-222.5 -14.5v55q255 1 255 55q0 26 -61 41t-194 17v53l58 101h118l-54 -105q143 -8 223.5 -36z" />
    <glyph glyph-name="guillemotright" unicode="&#xbb;" horiz-adv-x="885" 
d="M454 250l-206 -250h-210l214 250l-214 250h210zM833 250l-206 -250h-210l214 250l-214 250h210z" />
    <glyph glyph-name="onequarter" unicode="&#xbc;" horiz-adv-x="1603" 
d="M1108 722h129l-688 -744h-129zM285 539l-235 -149v117l276 132h76v-478h-117v378zM1348 141h-386v76l323 322h180v-299h66v-99h-66v-80h-117v80zM1348 240v228l-226 -228h226z" />
    <glyph glyph-name="onehalf" unicode="&#xbd;" horiz-adv-x="1734" 
d="M1107 722h129l-688 -744h-129zM285 539l-235 -149v117l276 132h76v-478h-117v378zM1174 130q1 51 38 85.5t87 55t128 43.5q71 21 103 36t32 36q0 34 -34.5 48t-111.5 14q-59 0 -129 -11t-96 -23v104q33 13 104 22t140 9q131 0 192 -31t61 -109q0 -57 -34.5 -92
t-81.5 -53.5t-124 -38.5q-65 -16 -99 -29.5t-47 -34.5h371v-100h-499v69z" />
    <glyph glyph-name="threequarters" unicode="&#xbe;" horiz-adv-x="1610" 
d="M1115 722h129l-688 -744h-129zM152.5 159q-67.5 9 -109.5 26v105q34 -16 103 -28t122 -12q177 0 177 45q0 22 -27 35t-90 20t-174 9v83q118 5 177 11.5t80 16.5t21 28q0 27 -46.5 40t-117.5 13q-51 0 -120.5 -12.5t-104.5 -28.5v105q40 17 108 26.5t123 9.5
q129 0 199 -28.5t70 -102.5q0 -70 -56 -94t-149 -24q218 0 218 -116q0 -74 -69 -105t-199 -31q-68 0 -135.5 9zM1355 138h-386v76l323 322h180v-299h66v-99h-66v-80h-117v80zM1355 237v228l-226 -228h226z" />
    <glyph glyph-name="questiondown" unicode="&#xbf;" horiz-adv-x="742" 
d="M417 494.5q27 -25.5 27 -67.5t-27 -67t-70 -25q-44 0 -71 25t-27 67q0 43 26 68t72 25q43 0 70 -25.5zM404.5 205q-22.5 -30 -54.5 -46t-84 -34q-58 -19 -86.5 -37.5t-28.5 -53.5q0 -51 47.5 -72.5t136.5 -21.5q87 0 131.5 32.5t44.5 95.5h184q0 -107 -61.5 -168.5
t-144 -84.5t-160.5 -23q-161 0 -255 55t-94 155q0 65 26.5 106t63.5 62t93 43q46 18 69.5 32.5t28.5 37.5h166q0 -48 -22.5 -78z" />
    <glyph glyph-name="Agrave" unicode="&#xc0;" horiz-adv-x="1098" 
d="M452 700h194l423 -700h-202l-76 133h-485l-76 -133h-201zM709 279l-160 280l-160 -280h320zM268 883v127l287 -161v-105z" />
    <glyph glyph-name="Aacute" unicode="&#xc1;" horiz-adv-x="1098" 
d="M452 700h194l423 -700h-202l-76 133h-485l-76 -133h-201zM709 279l-160 280l-160 -280h320zM525 849l287 161v-127l-287 -139v105z" />
    <glyph glyph-name="Acircumflex" unicode="&#xc2;" horiz-adv-x="1098" 
d="M452 700h194l423 -700h-202l-76 133h-485l-76 -133h-201zM709 279l-160 280l-160 -280h320zM836 835v-80l-287 164l-287 -164v80l287 186z" />
    <glyph glyph-name="Atilde" unicode="&#xc3;" horiz-adv-x="1098" 
d="M452 700h194l423 -700h-202l-76 133h-485l-76 -133h-201zM709 279l-160 280l-160 -280h320zM587.5 783.5q-19.5 11.5 -40.5 32.5q-15 14 -25.5 21t-22.5 7q-28 0 -44.5 -18t-17.5 -53h-61q1 58 35 94t88 36q23 0 39.5 -10t37.5 -30q19 -17 31 -24.5t27 -7.5
q29 0 45.5 17.5t17.5 53.5h60q-1 -59 -35 -94.5t-88 -35.5q-27 0 -46.5 11.5z" />
    <glyph glyph-name="Adieresis" unicode="&#xc4;" horiz-adv-x="1098" 
d="M452 700h194l423 -700h-202l-76 133h-485l-76 -133h-201zM709 279l-160 280l-160 -280h320zM336.5 761.5q-27.5 23.5 -27.5 61.5t27.5 61.5t71.5 23.5q47 0 73 -23t26 -62t-26 -62t-73 -23q-44 0 -71.5 23.5zM626.5 761.5q-27.5 23.5 -27.5 61.5t27.5 61.5t71.5 23.5
q47 0 73 -23t26 -62t-26 -62t-73 -23q-44 0 -71.5 23.5z" />
    <glyph glyph-name="Aring" unicode="&#xc5;" horiz-adv-x="1098" 
d="M452 700h194l423 -700h-202l-76 133h-485l-76 -133h-201zM709 279l-160 280l-160 -280h320zM423 751q-58 13 -92.5 36.5t-34.5 53.5t34.5 53.5t92.5 36.5t126 13q74 0 131.5 -13t89.5 -36t32 -54t-32 -54t-89.5 -36t-131.5 -13q-68 0 -126 13zM614.5 802.5
q25.5 13.5 25.5 37.5q0 26 -24.5 39.5t-66.5 13.5q-40 0 -64.5 -13.5t-24.5 -38.5t24.5 -38.5t64.5 -13.5t65.5 13.5z" />
    <glyph glyph-name="AE" unicode="&#xc6;" horiz-adv-x="1444" 
d="M897 558v-136h464v-133h-464v-147h473v-142h-645v133h-353l-107 -133h-236l601 700h740v-142h-473zM725 275v296l-238 -296h238z" />
    <glyph glyph-name="Ccedilla" unicode="&#xc7;" horiz-adv-x="934" 
d="M646 175.5q67 45.5 72 129.5h174q0 -89 -46 -158.5t-130 -111.5t-196 -49l-29 -56q143 -8 224 -36t81 -71q0 -31 -53.5 -56t-150 -39.5t-222.5 -14.5v55q131 1 192.5 15.5t61.5 39.5q0 54 -254 58v53l31 54q-106 12 -186 60t-123.5 126t-43.5 176q0 109 52.5 192
t148.5 128.5t221 45.5t221 -40t148.5 -113t52.5 -168h-174q-6 84 -73 129.5t-175 45.5q-115 0 -182.5 -57.5t-67.5 -162.5q0 -104 68 -162t182 -58q109 0 176 45.5z" />
    <glyph glyph-name="Egrave" unicode="&#xc8;" horiz-adv-x="840" 
d="M84 700h682v-146h-510v-130h501v-137h-501v-141h510v-146h-682v700zM143 883v127l287 -161v-105z" />
    <glyph glyph-name="Eacute" unicode="&#xc9;" horiz-adv-x="840" 
d="M84 700h682v-146h-510v-130h501v-137h-501v-141h510v-146h-682v700zM400 849l287 161v-127l-287 -139v105z" />
    <glyph glyph-name="Ecircumflex" unicode="&#xca;" horiz-adv-x="840" 
d="M84 700h682v-146h-510v-130h501v-137h-501v-141h510v-146h-682v700zM711 835v-80l-287 164l-287 -164v80l287 186z" />
    <glyph glyph-name="Edieresis" unicode="&#xcb;" horiz-adv-x="840" 
d="M84 700h682v-146h-510v-130h501v-137h-501v-141h510v-146h-682v700zM211.5 761.5q-27.5 23.5 -27.5 61.5t27.5 61.5t71.5 23.5q47 0 73 -23t26 -62t-26 -62t-73 -23q-44 0 -71.5 23.5zM501.5 761.5q-27.5 23.5 -27.5 61.5t27.5 61.5t71.5 23.5q47 0 73 -23t26 -62
t-26 -62t-73 -23q-44 0 -71.5 23.5z" />
    <glyph glyph-name="Igrave" unicode="&#xcc;" horiz-adv-x="340" 
d="M84 700h172v-700h-172v700zM-111 883v127l287 -161v-105z" />
    <glyph glyph-name="Iacute" unicode="&#xcd;" horiz-adv-x="340" 
d="M84 700h172v-700h-172v700zM146 849l287 161v-127l-287 -139v105z" />
    <glyph glyph-name="Icircumflex" unicode="&#xce;" horiz-adv-x="340" 
d="M84 700h172v-700h-172v700zM457 835v-80l-287 164l-287 -164v80l287 186z" />
    <glyph glyph-name="Idieresis" unicode="&#xcf;" horiz-adv-x="340" 
d="M84 700h172v-700h-172v700zM-42.5 761.5q-27.5 23.5 -27.5 61.5t27.5 61.5t71.5 23.5q47 0 73 -23t26 -62t-26 -62t-73 -23q-44 0 -71.5 23.5zM247.5 761.5q-27.5 23.5 -27.5 61.5t27.5 61.5t71.5 23.5q47 0 73 -23t26 -62t-26 -62t-73 -23q-44 0 -71.5 23.5z" />
    <glyph glyph-name="Eth" unicode="&#xd0;" horiz-adv-x="867" 
d="M717 610q108 -90 108 -260q0 -171 -108 -260.5t-300 -89.5h-333v279h-64v143h64v278h333q192 0 300 -90zM593 198q60 52 60 152q0 101 -60.5 152.5t-175.5 51.5h-161v-132h264v-143h-264v-133h161q116 0 176 52z" />
    <glyph glyph-name="Ntilde" unicode="&#xd1;" horiz-adv-x="974" 
d="M84 700h144l491 -445v445h172v-700h-145l-490 445v-445h-172v700zM527.5 783.5q-19.5 11.5 -40.5 32.5q-15 14 -25.5 21t-22.5 7q-28 0 -44.5 -18t-17.5 -53h-61q1 58 35 94t88 36q23 0 39.5 -10t37.5 -30q19 -17 31 -24.5t27 -7.5q29 0 45.5 17.5t17.5 53.5h60
q-1 -59 -35 -94.5t-88 -35.5q-27 0 -46.5 11.5z" />
    <glyph glyph-name="Ograve" unicode="&#xd2;" horiz-adv-x="969" 
d="M249 29.5q-100 45.5 -153.5 128.5t-53.5 192t53.5 192t153.5 128.5t235 45.5t235.5 -45.5t154 -128t53.5 -192.5t-53.5 -192.5t-154 -128t-235.5 -45.5t-235 45.5zM683 187.5q72 57.5 72 162.5t-72 162.5t-199 57.5t-198.5 -57.5t-71.5 -162.5t72 -162.5t198 -57.5
q127 0 199 57.5zM204 883v127l287 -161v-105z" />
    <glyph glyph-name="Oacute" unicode="&#xd3;" horiz-adv-x="969" 
d="M249 29.5q-100 45.5 -153.5 128.5t-53.5 192t53.5 192t153.5 128.5t235 45.5t235.5 -45.5t154 -128t53.5 -192.5t-53.5 -192.5t-154 -128t-235.5 -45.5t-235 45.5zM683 187.5q72 57.5 72 162.5t-72 162.5t-199 57.5t-198.5 -57.5t-71.5 -162.5t72 -162.5t198 -57.5
q127 0 199 57.5zM461 849l287 161v-127l-287 -139v105z" />
    <glyph glyph-name="Ocircumflex" unicode="&#xd4;" horiz-adv-x="969" 
d="M249 29.5q-100 45.5 -153.5 128.5t-53.5 192t53.5 192t153.5 128.5t235 45.5t235.5 -45.5t154 -128t53.5 -192.5t-53.5 -192.5t-154 -128t-235.5 -45.5t-235 45.5zM683 187.5q72 57.5 72 162.5t-72 162.5t-199 57.5t-198.5 -57.5t-71.5 -162.5t72 -162.5t198 -57.5
q127 0 199 57.5zM772 835v-80l-287 164l-287 -164v80l287 186z" />
    <glyph glyph-name="Otilde" unicode="&#xd5;" horiz-adv-x="969" 
d="M249 29.5q-100 45.5 -153.5 128.5t-53.5 192t53.5 192t153.5 128.5t235 45.5t235.5 -45.5t154 -128t53.5 -192.5t-53.5 -192.5t-154 -128t-235.5 -45.5t-235 45.5zM683 187.5q72 57.5 72 162.5t-72 162.5t-199 57.5t-198.5 -57.5t-71.5 -162.5t72 -162.5t198 -57.5
q127 0 199 57.5zM523.5 783.5q-19.5 11.5 -40.5 32.5q-15 14 -25.5 21t-22.5 7q-28 0 -44.5 -18t-17.5 -53h-61q1 58 35 94t88 36q23 0 39.5 -10t37.5 -30q19 -17 31 -24.5t27 -7.5q29 0 45.5 17.5t17.5 53.5h60q-1 -59 -35 -94.5t-88 -35.5q-27 0 -46.5 11.5z" />
    <glyph glyph-name="Odieresis" unicode="&#xd6;" horiz-adv-x="969" 
d="M249 29.5q-100 45.5 -153.5 128.5t-53.5 192t53.5 192t153.5 128.5t235 45.5t235.5 -45.5t154 -128t53.5 -192.5t-53.5 -192.5t-154 -128t-235.5 -45.5t-235 45.5zM683 187.5q72 57.5 72 162.5t-72 162.5t-199 57.5t-198.5 -57.5t-71.5 -162.5t72 -162.5t198 -57.5
q127 0 199 57.5zM272.5 761.5q-27.5 23.5 -27.5 61.5t27.5 61.5t71.5 23.5q47 0 73 -23t26 -62t-26 -62t-73 -23q-44 0 -71.5 23.5zM562.5 761.5q-27.5 23.5 -27.5 61.5t27.5 61.5t71.5 23.5q47 0 73 -23t26 -62t-26 -62t-73 -23q-44 0 -71.5 23.5z" />
    <glyph glyph-name="multiply" unicode="&#xd7;" horiz-adv-x="600" 
d="M56 198l133 133l-133 133l101 101l133 -133l133 134l101 -101l-133 -134l133 -133l-101 -101l-133 133l-133 -133z" />
    <glyph glyph-name="Oslash" unicode="&#xd8;" horiz-adv-x="969" 
d="M842 584q85 -96 85 -234q0 -110 -53.5 -192.5t-154 -128t-235.5 -45.5q-164 0 -276 67l-60 -51h-157l137 115q-86 95 -86 235q0 109 53.5 192t153.5 128.5t235 45.5q167 0 278 -68l62 52h156zM254 221l382 321q-65 28 -152 28q-127 0 -198.5 -57.5t-71.5 -162.5
q0 -77 40 -129zM716 478l-381 -320q60 -28 149 -28q127 0 199 57.5t72 162.5q0 77 -39 128z" />
    <glyph glyph-name="Ugrave" unicode="&#xd9;" horiz-adv-x="917" 
d="M255 19q-82 35 -126.5 119.5t-44.5 229.5v332h172v-362q0 -101 51 -152t151 -51t151.5 51t51.5 152v362h172v-332q0 -144 -45 -229t-127 -120t-203 -35t-203 35zM177 883v127l287 -161v-105z" />
    <glyph glyph-name="Uacute" unicode="&#xda;" horiz-adv-x="917" 
d="M255 19q-82 35 -126.5 119.5t-44.5 229.5v332h172v-362q0 -101 51 -152t151 -51t151.5 51t51.5 152v362h172v-332q0 -144 -45 -229t-127 -120t-203 -35t-203 35zM434 849l287 161v-127l-287 -139v105z" />
    <glyph glyph-name="Ucircumflex" unicode="&#xdb;" horiz-adv-x="917" 
d="M255 19q-82 35 -126.5 119.5t-44.5 229.5v332h172v-362q0 -101 51 -152t151 -51t151.5 51t51.5 152v362h172v-332q0 -144 -45 -229t-127 -120t-203 -35t-203 35zM745 835v-80l-287 164l-287 -164v80l287 186z" />
    <glyph glyph-name="Udieresis" unicode="&#xdc;" horiz-adv-x="917" 
d="M255 19q-82 35 -126.5 119.5t-44.5 229.5v332h172v-362q0 -101 51 -152t151 -51t151.5 51t51.5 152v362h172v-332q0 -144 -45 -229t-127 -120t-203 -35t-203 35zM245.5 761.5q-27.5 23.5 -27.5 61.5t27.5 61.5t71.5 23.5q47 0 73 -23t26 -62t-26 -62t-73 -23
q-44 0 -71.5 23.5zM535.5 761.5q-27.5 23.5 -27.5 61.5t27.5 61.5t71.5 23.5q47 0 73 -23t26 -62t-26 -62t-73 -23q-44 0 -71.5 23.5z" />
    <glyph glyph-name="Yacute" unicode="&#xdd;" horiz-adv-x="1003" 
d="M415 226l-390 474h212l264 -330l265 330h212l-391 -473v-227h-172v226zM477 849l287 161v-127l-287 -139v105z" />
    <glyph glyph-name="Thorn" unicode="&#xde;" horiz-adv-x="839" 
d="M707.5 471.5q53.5 -28.5 82.5 -77.5t29 -108q0 -103 -65 -158t-170 -55h-324v-73h-176v700h175v-200h325q70 0 123.5 -28.5zM623.5 229.5q23.5 20.5 23.5 56.5q0 37 -23.5 57.5t-64.5 20.5h-300l1 -155h299q41 0 64.5 20.5z" />
    <glyph glyph-name="germandbls" unicode="&#xdf;" horiz-adv-x="884" 
d="M758.5 303.5q83.5 -38.5 83.5 -116.5q0 -80 -48 -124.5t-133.5 -61.5t-211.5 -17q-40 0 -120 4v145q48 -3 91 -3q135 0 197 15.5t62 56.5q0 29 -28 46.5t-102.5 29t-219.5 20.5v105q142 9 212.5 20t94 26.5t23.5 41.5q0 43 -61 58.5t-179 15.5h-178v-565h-172v700h360
q132 0 212 -10t130.5 -48t50.5 -117q0 -88 -78.5 -128t-251.5 -40v-9q183 -6 266.5 -44.5z" />
    <glyph glyph-name="agrave" unicode="&#xe0;" horiz-adv-x="687" 
d="M97.5 11.5q-55.5 27.5 -55.5 104.5q0 88 114.5 126.5t309.5 52.5q0 40 -29.5 58.5t-88.5 18.5q-56 0 -123 -15t-120 -38v143q65 24 142 39t141 15q250 0 250 -234v-282h-165l22 169h-9q-24 -97 -84.5 -141t-173.5 -44q-75 0 -130.5 27.5zM417.5 132.5
q48.5 30.5 47.5 87.5q-117 -8 -181 -22t-64 -51q0 -21 23 -33t61 -12q65 0 113.5 30.5zM96 683v127l287 -161v-105z" />
    <glyph glyph-name="aacute" unicode="&#xe1;" horiz-adv-x="687" 
d="M97.5 11.5q-55.5 27.5 -55.5 104.5q0 88 114.5 126.5t309.5 52.5q0 40 -29.5 58.5t-88.5 18.5q-56 0 -123 -15t-120 -38v143q65 24 142 39t141 15q250 0 250 -234v-282h-165l22 169h-9q-24 -97 -84.5 -141t-173.5 -44q-75 0 -130.5 27.5zM417.5 132.5
q48.5 30.5 47.5 87.5q-117 -8 -181 -22t-64 -51q0 -21 23 -33t61 -12q65 0 113.5 30.5zM353 649l287 161v-127l-287 -139v105z" />
    <glyph glyph-name="acircumflex" unicode="&#xe2;" horiz-adv-x="687" 
d="M97.5 11.5q-55.5 27.5 -55.5 104.5q0 88 114.5 126.5t309.5 52.5q0 40 -29.5 58.5t-88.5 18.5q-56 0 -123 -15t-120 -38v143q65 24 142 39t141 15q250 0 250 -234v-282h-165l22 169h-9q-24 -97 -84.5 -141t-173.5 -44q-75 0 -130.5 27.5zM417.5 132.5
q48.5 30.5 47.5 87.5q-117 -8 -181 -22t-64 -51q0 -21 23 -33t61 -12q65 0 113.5 30.5zM664 635v-80l-287 164l-287 -164v80l287 186z" />
    <glyph glyph-name="atilde" unicode="&#xe3;" horiz-adv-x="687" 
d="M97.5 11.5q-55.5 27.5 -55.5 104.5q0 88 114.5 126.5t309.5 52.5q0 40 -29.5 58.5t-88.5 18.5q-56 0 -123 -15t-120 -38v143q65 24 142 39t141 15q250 0 250 -234v-282h-165l22 169h-9q-24 -97 -84.5 -141t-173.5 -44q-75 0 -130.5 27.5zM417.5 132.5
q48.5 30.5 47.5 87.5q-117 -8 -181 -22t-64 -51q0 -21 23 -33t61 -12q65 0 113.5 30.5zM415.5 583.5q-19.5 11.5 -40.5 32.5q-15 14 -25.5 21t-22.5 7q-28 0 -44.5 -18t-17.5 -53h-61q1 58 35 94t88 36q23 0 39.5 -10t37.5 -30q19 -17 31 -24.5t27 -7.5q29 0 45.5 17.5
t17.5 53.5h60q-1 -59 -35 -94.5t-88 -35.5q-27 0 -46.5 11.5z" />
    <glyph glyph-name="adieresis" unicode="&#xe4;" horiz-adv-x="687" 
d="M97.5 11.5q-55.5 27.5 -55.5 104.5q0 88 114.5 126.5t309.5 52.5q0 40 -29.5 58.5t-88.5 18.5q-56 0 -123 -15t-120 -38v143q65 24 142 39t141 15q250 0 250 -234v-282h-165l22 169h-9q-24 -97 -84.5 -141t-173.5 -44q-75 0 -130.5 27.5zM417.5 132.5
q48.5 30.5 47.5 87.5q-117 -8 -181 -22t-64 -51q0 -21 23 -33t61 -12q65 0 113.5 30.5zM164.5 561.5q-27.5 23.5 -27.5 61.5t27.5 61.5t71.5 23.5q47 0 73 -23t26 -62t-26 -62t-73 -23q-44 0 -71.5 23.5zM454.5 561.5q-27.5 23.5 -27.5 61.5t27.5 61.5t71.5 23.5
q47 0 73 -23t26 -62t-26 -62t-73 -23q-44 0 -71.5 23.5z" />
    <glyph glyph-name="aring" unicode="&#xe5;" horiz-adv-x="687" 
d="M97.5 11.5q-55.5 27.5 -55.5 104.5q0 88 114.5 126.5t309.5 52.5q0 40 -29.5 58.5t-88.5 18.5q-56 0 -123 -15t-120 -38v143q65 24 142 39t141 15q250 0 250 -234v-282h-165l22 169h-9q-24 -97 -84.5 -141t-173.5 -44q-75 0 -130.5 27.5zM417.5 132.5
q48.5 30.5 47.5 87.5q-117 -8 -181 -22t-64 -51q0 -21 23 -33t61 -12q65 0 113.5 30.5zM251 551q-58 13 -92.5 36.5t-34.5 53.5t34.5 53.5t92.5 36.5t126 13q74 0 131.5 -13t89.5 -36t32 -54t-32 -54t-89.5 -36t-131.5 -13q-68 0 -126 13zM442.5 602.5q25.5 13.5 25.5 37.5
q0 26 -24.5 39.5t-66.5 13.5q-40 0 -64.5 -13.5t-24.5 -38.5t24.5 -38.5t64.5 -13.5t65.5 13.5z" />
    <glyph glyph-name="ae" unicode="&#xe6;" horiz-adv-x="1114" 
d="M97.5 11.5q-55.5 27.5 -55.5 104.5q0 71 74.5 108t163 47t188.5 13q-1 53 -29 70.5t-91 17.5q-57 0 -124 -15t-119 -37v142q65 24 142 39t141 15q124 0 180 -62q79 62 203 62q89 0 156.5 -28.5t105.5 -80t39 -118.5v-82h-434q13 -47 57.5 -69.5t125.5 -22.5
q70 0 113.5 11.5t92.5 33.5l23 10v-137q-71 -27 -128 -38t-151 -11q-108 0 -184 47.5t-103 131.5q-16 -88 -82 -133.5t-174 -45.5q-75 0 -130.5 27.5zM907 283q-3 51 -37.5 74t-98.5 23q-61 0 -95.5 -24.5t-41.5 -78.5zM414 131.5q47 29.5 49 83.5q-79 -3 -123.5 -7
t-82 -18.5t-37.5 -42.5q0 -21 23.5 -33.5t60.5 -12.5q63 1 110 30.5z" />
    <glyph glyph-name="ccedilla" unicode="&#xe7;" horiz-adv-x="637" 
d="M591.5 -106q80.5 -28 80.5 -71q0 -31 -53.5 -56t-150 -39.5t-222.5 -14.5v55q255 1 255 55q0 26 -61 41t-194 17v53l33 57q-107 21 -172 90t-65 169q0 80 39.5 140t112 93t167.5 33q66 0 119 -12t115 -40v-146q-52 30 -105.5 46t-117.5 16q-78 0 -121 -35.5t-43 -94.5
t45.5 -94.5t125.5 -35.5q66 0 117.5 15t98.5 45v-143q-58 -25 -101 -37t-98 -15l-28 -55q143 -8 223.5 -36z" />
    <glyph glyph-name="egrave" unicode="&#xe8;" horiz-adv-x="686" 
d="M185 17q-68 33 -105.5 93.5t-37.5 139.5t37.5 139.5t105.5 93.5t158 33q89 0 156.5 -28.5t105.5 -80t39 -118.5v-82h-431q12 -47 55.5 -69.5t124.5 -22.5q70 0 113.5 11.5t92.5 33.5l23 10v-137q-71 -27 -128 -38t-151 -11q-90 0 -158 33zM479 283q-3 46 -40 71.5
t-96 25.5q-54 0 -90.5 -27.5t-43.5 -75.5zM78 683v127l287 -161v-105z" />
    <glyph glyph-name="eacute" unicode="&#xe9;" horiz-adv-x="686" 
d="M185 17q-68 33 -105.5 93.5t-37.5 139.5t37.5 139.5t105.5 93.5t158 33q89 0 156.5 -28.5t105.5 -80t39 -118.5v-82h-431q12 -47 55.5 -69.5t124.5 -22.5q70 0 113.5 11.5t92.5 33.5l23 10v-137q-71 -27 -128 -38t-151 -11q-90 0 -158 33zM479 283q-3 46 -40 71.5
t-96 25.5q-54 0 -90.5 -27.5t-43.5 -75.5zM319 649l287 161v-127l-287 -139v105z" />
    <glyph glyph-name="ecircumflex" unicode="&#xea;" horiz-adv-x="686" 
d="M185 17q-68 33 -105.5 93.5t-37.5 139.5t37.5 139.5t105.5 93.5t158 33q89 0 156.5 -28.5t105.5 -80t39 -118.5v-82h-431q12 -47 55.5 -69.5t124.5 -22.5q70 0 113.5 11.5t92.5 33.5l23 10v-137q-71 -27 -128 -38t-151 -11q-90 0 -158 33zM479 283q-3 46 -40 71.5
t-96 25.5q-54 0 -90.5 -27.5t-43.5 -75.5zM630 635v-80l-287 164l-287 -164v80l287 186z" />
    <glyph glyph-name="edieresis" unicode="&#xeb;" horiz-adv-x="686" 
d="M185 17q-68 33 -105.5 93.5t-37.5 139.5t37.5 139.5t105.5 93.5t158 33q89 0 156.5 -28.5t105.5 -80t39 -118.5v-82h-431q12 -47 55.5 -69.5t124.5 -22.5q70 0 113.5 11.5t92.5 33.5l23 10v-137q-71 -27 -128 -38t-151 -11q-90 0 -158 33zM479 283q-3 46 -40 71.5
t-96 25.5q-54 0 -90.5 -27.5t-43.5 -75.5zM130.5 561.5q-27.5 23.5 -27.5 61.5t27.5 61.5t71.5 23.5q47 0 73 -23t26 -62t-26 -62t-73 -23q-44 0 -71.5 23.5zM420.5 561.5q-27.5 23.5 -27.5 61.5t27.5 61.5t71.5 23.5q47 0 73 -23t26 -62t-26 -62t-73 -23q-44 0 -71.5 23.5z
" />
    <glyph glyph-name="igrave" unicode="&#xec;" horiz-adv-x="250" 
d="M39 500h172v-500h-172v500zM-155 683v127l287 -161v-105z" />
    <glyph glyph-name="iacute" unicode="&#xed;" horiz-adv-x="250" 
d="M39 500h172v-500h-172v500zM102 649l287 161v-127l-287 -139v105z" />
    <glyph glyph-name="icircumflex" unicode="&#xee;" horiz-adv-x="250" 
d="M39 500h172v-500h-172v500zM413 635v-80l-287 164l-287 -164v80l287 186z" />
    <glyph glyph-name="idieresis" unicode="&#xef;" horiz-adv-x="250" 
d="M39 500h172v-500h-172v500zM-86.5 561.5q-27.5 23.5 -27.5 61.5t27.5 61.5t71.5 23.5q47 0 73 -23t26 -62t-26 -62t-73 -23q-44 0 -71.5 23.5zM203.5 561.5q-27.5 23.5 -27.5 61.5t27.5 61.5t71.5 23.5q47 0 73 -23t26 -62t-26 -62t-73 -23q-44 0 -71.5 23.5z" />
    <glyph glyph-name="eth" unicode="&#xf0;" horiz-adv-x="830" 
d="M716 598q40 -49 61.5 -109t21.5 -127q0 -186 -107 -280t-296 -94q-115 0 -197.5 29t-125.5 81.5t-43 123.5q0 108 80 173t239 65q94 0 163 -37t114 -92q1 10 1 31q0 44 -16.5 95t-48.5 96l-195 -57l-28 91l147 42q-63 46 -147 50l4 76q83 0 157.5 -21.5t132.5 -61.5
l145 42l29 -90zM541 165q52 35 73 100q-42 34 -109 57t-131 23q-80 0 -125.5 -29t-45.5 -79t56 -78.5t146 -28.5q84 0 136 35z" />
    <glyph glyph-name="ntilde" unicode="&#xf1;" horiz-adv-x="734" 
d="M58 500h186l-20 -206h8q18 113 77 167.5t172 54.5q74 -1 118 -28t65.5 -91.5t21.5 -179.5v-217h-172v200q0 71 -13 111.5t-40.5 58t-73.5 17.5t-82 -29.5t-55.5 -83t-19.5 -121.5v-153h-172v500zM429.5 583.5q-19.5 11.5 -40.5 32.5q-15 14 -25.5 21t-22.5 7
q-28 0 -44.5 -18t-17.5 -53h-61q1 58 35 94t88 36q23 0 39.5 -10t37.5 -30q19 -17 31 -24.5t27 -7.5q29 0 45.5 17.5t17.5 53.5h60q-1 -59 -35 -94.5t-88 -35.5q-27 0 -46.5 11.5z" />
    <glyph glyph-name="ograve" unicode="&#xf2;" horiz-adv-x="718" 
d="M192.5 17q-71.5 33 -111 93.5t-39.5 139.5t39.5 139.5t111 93.5t166.5 33t166.5 -33t111 -93.5t39.5 -139.5t-39.5 -139.5t-111 -93.5t-166.5 -33t-166.5 33zM471.5 156q42.5 36 42.5 94q0 59 -42.5 94.5t-112.5 35.5t-112.5 -35.5t-42.5 -94.5q0 -58 42.5 -94t112.5 -36
t112.5 36zM79 683v127l287 -161v-105z" />
    <glyph glyph-name="oacute" unicode="&#xf3;" horiz-adv-x="718" 
d="M192.5 17q-71.5 33 -111 93.5t-39.5 139.5t39.5 139.5t111 93.5t166.5 33t166.5 -33t111 -93.5t39.5 -139.5t-39.5 -139.5t-111 -93.5t-166.5 -33t-166.5 33zM471.5 156q42.5 36 42.5 94q0 59 -42.5 94.5t-112.5 35.5t-112.5 -35.5t-42.5 -94.5q0 -58 42.5 -94t112.5 -36
t112.5 36zM336 649l287 161v-127l-287 -139v105z" />
    <glyph glyph-name="ocircumflex" unicode="&#xf4;" horiz-adv-x="718" 
d="M192.5 17q-71.5 33 -111 93.5t-39.5 139.5t39.5 139.5t111 93.5t166.5 33t166.5 -33t111 -93.5t39.5 -139.5t-39.5 -139.5t-111 -93.5t-166.5 -33t-166.5 33zM471.5 156q42.5 36 42.5 94q0 59 -42.5 94.5t-112.5 35.5t-112.5 -35.5t-42.5 -94.5q0 -58 42.5 -94t112.5 -36
t112.5 36zM647 635v-80l-287 164l-287 -164v80l287 186z" />
    <glyph glyph-name="otilde" unicode="&#xf5;" horiz-adv-x="718" 
d="M192.5 17q-71.5 33 -111 93.5t-39.5 139.5t39.5 139.5t111 93.5t166.5 33t166.5 -33t111 -93.5t39.5 -139.5t-39.5 -139.5t-111 -93.5t-166.5 -33t-166.5 33zM471.5 156q42.5 36 42.5 94q0 59 -42.5 94.5t-112.5 35.5t-112.5 -35.5t-42.5 -94.5q0 -58 42.5 -94t112.5 -36
t112.5 36zM398.5 583.5q-19.5 11.5 -40.5 32.5q-15 14 -25.5 21t-22.5 7q-28 0 -44.5 -18t-17.5 -53h-61q1 58 35 94t88 36q23 0 39.5 -10t37.5 -30q19 -17 31 -24.5t27 -7.5q29 0 45.5 17.5t17.5 53.5h60q-1 -59 -35 -94.5t-88 -35.5q-27 0 -46.5 11.5z" />
    <glyph glyph-name="odieresis" unicode="&#xf6;" horiz-adv-x="718" 
d="M192.5 17q-71.5 33 -111 93.5t-39.5 139.5t39.5 139.5t111 93.5t166.5 33t166.5 -33t111 -93.5t39.5 -139.5t-39.5 -139.5t-111 -93.5t-166.5 -33t-166.5 33zM471.5 156q42.5 36 42.5 94q0 59 -42.5 94.5t-112.5 35.5t-112.5 -35.5t-42.5 -94.5q0 -58 42.5 -94t112.5 -36
t112.5 36zM147.5 561.5q-27.5 23.5 -27.5 61.5t27.5 61.5t71.5 23.5q47 0 73 -23t26 -62t-26 -62t-73 -23q-44 0 -71.5 23.5zM437.5 561.5q-27.5 23.5 -27.5 61.5t27.5 61.5t71.5 23.5q47 0 73 -23t26 -62t-26 -62t-73 -23q-44 0 -71.5 23.5z" />
    <glyph glyph-name="divide" unicode="&#xf7;" horiz-adv-x="600" 
d="M225 471.5q-27 25.5 -27 67.5t27 67t70 25q44 0 71 -25t27 -67q0 -43 -26.5 -68t-71.5 -25q-43 0 -70 25.5zM34 386h520v-143h-520v143zM225 12.5q-27 25.5 -27 67.5t27 67t70 25q44 0 71 -25t27 -67q0 -43 -26.5 -68t-71.5 -25q-43 0 -70 25.5z" />
    <glyph glyph-name="oslash" unicode="&#xf8;" horiz-adv-x="718" 
d="M625 406q51 -66 51 -156q0 -79 -39.5 -139.5t-111 -93.5t-166.5 -33q-107 0 -185 42l-31 -26h-157l109 92q-53 65 -53 158q0 79 39.5 139.5t111 93.5t166.5 33q109 0 188 -44l34 28h156zM217 194l209 176q-33 10 -67 10q-70 0 -112.5 -35.5t-42.5 -94.5q0 -33 13 -56z
M503 303l-207 -174q28 -9 63 -9q70 0 112.5 36t42.5 94q0 28 -11 53z" />
    <glyph glyph-name="ugrave" unicode="&#xf9;" horiz-adv-x="734" 
d="M676 0h-186l20 206h-9q-18 -113 -76.5 -167.5t-171.5 -54.5q-74 1 -118 28t-65.5 91.5t-21.5 179.5v217h172v-200q0 -70 13 -110.5t40 -58t73 -17.5q47 0 83 29.5t55.5 82.5t19.5 121v153h172v-500zM67 683v127l287 -161v-105z" />
    <glyph glyph-name="uacute" unicode="&#xfa;" horiz-adv-x="734" 
d="M676 0h-186l20 206h-9q-18 -113 -76.5 -167.5t-171.5 -54.5q-74 1 -118 28t-65.5 91.5t-21.5 179.5v217h172v-200q0 -70 13 -110.5t40 -58t73 -17.5q47 0 83 29.5t55.5 82.5t19.5 121v153h172v-500zM324 649l287 161v-127l-287 -139v105z" />
    <glyph glyph-name="ucircumflex" unicode="&#xfb;" horiz-adv-x="734" 
d="M676 0h-186l20 206h-9q-18 -113 -76.5 -167.5t-171.5 -54.5q-74 1 -118 28t-65.5 91.5t-21.5 179.5v217h172v-200q0 -70 13 -110.5t40 -58t73 -17.5q47 0 83 29.5t55.5 82.5t19.5 121v153h172v-500zM635 635v-80l-287 164l-287 -164v80l287 186z" />
    <glyph glyph-name="udieresis" unicode="&#xfc;" horiz-adv-x="734" 
d="M676 0h-186l20 206h-9q-18 -113 -76.5 -167.5t-171.5 -54.5q-74 1 -118 28t-65.5 91.5t-21.5 179.5v217h172v-200q0 -70 13 -110.5t40 -58t73 -17.5q47 0 83 29.5t55.5 82.5t19.5 121v153h172v-500zM135.5 561.5q-27.5 23.5 -27.5 61.5t27.5 61.5t71.5 23.5q47 0 73 -23
t26 -62t-26 -62t-73 -23q-44 0 -71.5 23.5zM425.5 561.5q-27.5 23.5 -27.5 61.5t27.5 61.5t71.5 23.5q47 0 73 -23t26 -62t-26 -62t-73 -23q-44 0 -71.5 23.5z" />
    <glyph glyph-name="yacute" unicode="&#xfd;" horiz-adv-x="789" 
d="M310 6l-285 494h195l178 -324l177 324h189l-376 -700h-189zM382 649l287 161v-127l-287 -139v105z" />
    <glyph glyph-name="thorn" unicode="&#xfe;" horiz-adv-x="780" 
d="M615 482q58 -34 91 -95t33 -141q0 -77 -33.5 -136.5t-92 -92.5t-131.5 -33q-94 0 -162.5 47.5t-85.5 130.5h-4v-362h-172v900h176l-22 -363h12q16 83 89 131t171 48q73 0 131 -34zM300.5 345q-47.5 -35 -47.5 -97q0 -60 47.5 -94t113.5 -34q68 0 113.5 33.5t45.5 94.5
q0 63 -45.5 97.5t-113.5 34.5q-66 0 -113.5 -35z" />
    <glyph glyph-name="ydieresis" unicode="&#xff;" horiz-adv-x="789" 
d="M310 6l-285 494h195l178 -324l177 324h189l-376 -700h-189zM193.5 561.5q-27.5 23.5 -27.5 61.5t27.5 61.5t71.5 23.5q47 0 73 -23t26 -62t-26 -62t-73 -23q-44 0 -71.5 23.5zM483.5 561.5q-27.5 23.5 -27.5 61.5t27.5 61.5t71.5 23.5q47 0 73 -23t26 -62t-26 -62
t-73 -23q-44 0 -71.5 23.5z" />
    <glyph glyph-name="Amacron" unicode="&#x100;" horiz-adv-x="1098" 
d="M452 700h194l423 -700h-202l-76 133h-485l-76 -133h-201zM709 279l-160 280l-160 -280h320zM283 900h532v-54h-532v54z" />
    <glyph glyph-name="amacron" unicode="&#x101;" horiz-adv-x="687" 
d="M97.5 11.5q-55.5 27.5 -55.5 104.5q0 88 114.5 126.5t309.5 52.5q0 40 -29.5 58.5t-88.5 18.5q-56 0 -123 -15t-120 -38v143q65 24 142 39t141 15q250 0 250 -234v-282h-165l22 169h-9q-24 -97 -84.5 -141t-173.5 -44q-75 0 -130.5 27.5zM417.5 132.5
q48.5 30.5 47.5 87.5q-117 -8 -181 -22t-64 -51q0 -21 23 -33t61 -12q65 0 113.5 30.5zM111 700h532v-54h-532v54z" />
    <glyph glyph-name="Abreve" unicode="&#x102;" horiz-adv-x="1098" 
d="M452 700h194l423 -700h-202l-76 133h-485l-76 -133h-201zM709 279l-160 280l-160 -280h320zM440 769.5q-48 18.5 -76 52.5t-28 78h105q1 -40 30.5 -60.5t77.5 -20.5q49 0 78 20.5t32 60.5h103q-1 -69 -56.5 -109t-156.5 -40q-61 0 -109 18.5z" />
    <glyph glyph-name="abreve" unicode="&#x103;" horiz-adv-x="687" 
d="M97.5 11.5q-55.5 27.5 -55.5 104.5q0 88 114.5 126.5t309.5 52.5q0 40 -29.5 58.5t-88.5 18.5q-56 0 -123 -15t-120 -38v143q65 24 142 39t141 15q250 0 250 -234v-282h-165l22 169h-9q-24 -97 -84.5 -141t-173.5 -44q-75 0 -130.5 27.5zM417.5 132.5
q48.5 30.5 47.5 87.5q-117 -8 -181 -22t-64 -51q0 -21 23 -33t61 -12q65 0 113.5 30.5zM268 569.5q-48 18.5 -76 52.5t-28 78h105q1 -40 30.5 -60.5t77.5 -20.5q49 0 78 20.5t32 60.5h103q-1 -69 -56.5 -109t-156.5 -40q-61 0 -109 18.5z" />
    <glyph glyph-name="Aogonek" unicode="&#x104;" horiz-adv-x="1098" 
d="M1111 -117l-3 -97q-52 -16 -112 -16q-59 0 -109.5 17t-81 48t-30.5 72q0 58 66 124l5 5l-55 97h-485l-76 -133h-201l423 700h194l423 -700h-151q-29 -30 -29 -56q0 -32 39 -51t99 -19q40 0 84 9zM709 279l-160 280l-160 -280h320z" />
    <glyph glyph-name="aogonek" unicode="&#x105;" horiz-adv-x="687" 
d="M752 -117l-3 -97q-52 -16 -111 -16t-109.5 17t-81 48t-30.5 72q0 56 59 118l19 144h-9q-24 -97 -84.5 -141t-173.5 -44q-75 0 -130.5 27.5t-55.5 104.5q0 88 114.5 126.5t309.5 52.5q0 40 -29.5 58.5t-88.5 18.5q-56 0 -123 -15t-120 -38v143q65 24 142 39t141 15
q250 0 250 -234v-282h-78q-30 -30 -30 -56q0 -32 39.5 -51t98.5 -19q42 0 84 9zM417.5 132.5q48.5 30.5 47.5 87.5q-117 -8 -181 -22t-64 -51q0 -21 23 -33t61 -12q65 0 113.5 30.5z" />
    <glyph glyph-name="Cacute" unicode="&#x106;" horiz-adv-x="934" 
d="M249 29.5q-96 45.5 -148.5 128.5t-52.5 192t52.5 192t148.5 128.5t221 45.5t221 -40t148.5 -113t52.5 -168h-174q-6 84 -73 129.5t-175 45.5q-115 0 -182.5 -57.5t-67.5 -162.5q0 -104 68 -162t182 -58q109 0 176 45.5t72 129.5h174q0 -95 -52.5 -168t-148.5 -113
t-221 -40t-221 45.5zM446 849l287 161v-127l-287 -139v105z" />
    <glyph glyph-name="cacute" unicode="&#x107;" horiz-adv-x="637" 
d="M196.5 17q-72.5 33 -113.5 93.5t-41 139.5q0 80 39.5 140t112 93t167.5 33q66 0 119 -12t115 -40v-146q-52 30 -105.5 46t-117.5 16q-78 0 -121 -35.5t-43 -94.5t45.5 -94.5t125.5 -35.5q66 0 117.5 15t98.5 45v-143q-65 -29 -115 -41t-120 -12q-91 0 -163.5 33zM337 649
l287 161v-127l-287 -139v105z" />
    <glyph glyph-name="Cdotaccent" unicode="&#x10a;" horiz-adv-x="934" 
d="M249 29.5q-96 45.5 -148.5 128.5t-52.5 192t52.5 192t148.5 128.5t221 45.5t221 -40t148.5 -113t52.5 -168h-174q-6 84 -73 129.5t-175 45.5q-115 0 -182.5 -57.5t-67.5 -162.5q0 -104 68 -162t182 -58q109 0 176 45.5t72 129.5h174q0 -95 -52.5 -168t-148.5 -113
t-221 -40t-221 45.5zM398.5 761.5q-27.5 23.5 -27.5 61.5t27.5 61.5t71.5 23.5q47 0 73 -23t26 -62t-26 -62t-73 -23q-44 0 -71.5 23.5z" />
    <glyph glyph-name="cdotaccent" unicode="&#x10b;" horiz-adv-x="637" 
d="M196.5 17q-72.5 33 -113.5 93.5t-41 139.5q0 80 39.5 140t112 93t167.5 33q66 0 119 -12t115 -40v-146q-52 30 -105.5 46t-117.5 16q-78 0 -121 -35.5t-43 -94.5t45.5 -94.5t125.5 -35.5q66 0 117.5 15t98.5 45v-143q-65 -29 -115 -41t-120 -12q-91 0 -163.5 33z
M290.5 561.5q-27.5 23.5 -27.5 61.5t27.5 61.5t71.5 23.5q47 0 73 -23t26 -62t-26 -62t-73 -23q-44 0 -71.5 23.5z" />
    <glyph glyph-name="Ccaron" unicode="&#x10c;" horiz-adv-x="934" 
d="M249 29.5q-96 45.5 -148.5 128.5t-52.5 192t52.5 192t148.5 128.5t221 45.5t221 -40t148.5 -113t52.5 -168h-174q-6 84 -73 129.5t-175 45.5q-115 0 -182.5 -57.5t-67.5 -162.5q0 -104 68 -162t182 -58q109 0 176 45.5t72 129.5h174q0 -95 -52.5 -168t-148.5 -113
t-221 -40t-221 45.5zM757 1021v-80l-287 -186l-287 186v80l287 -164z" />
    <glyph glyph-name="ccaron" unicode="&#x10d;" horiz-adv-x="637" 
d="M196.5 17q-72.5 33 -113.5 93.5t-41 139.5q0 80 39.5 140t112 93t167.5 33q66 0 119 -12t115 -40v-146q-52 30 -105.5 46t-117.5 16q-78 0 -121 -35.5t-43 -94.5t45.5 -94.5t125.5 -35.5q66 0 117.5 15t98.5 45v-143q-65 -29 -115 -41t-120 -12q-91 0 -163.5 33zM648 821
v-80l-287 -186l-287 186v80l287 -164z" />
    <glyph glyph-name="Dcaron" unicode="&#x10e;" horiz-adv-x="867" 
d="M84 700h333q192 0 300 -90t108 -260q0 -171 -108 -260.5t-300 -89.5h-333v700zM417 146q116 0 176 52t60 152q0 101 -60.5 152.5t-175.5 51.5h-161v-408h161zM739 1021v-80l-287 -186l-287 186v80l287 -164z" />
    <glyph glyph-name="dcaron" unicode="&#x10f;" horiz-adv-x="999" 
d="M169.5 17.5q-60.5 33.5 -94 95t-33.5 141.5q0 77 33 136.5t91.5 92.5t132.5 33q93 0 162 -47.5t86 -130.5h4v362h172v-700h-176l22 163h-12q-17 -80 -86 -129.5t-163 -49.5q-78 0 -138.5 33.5zM480 155q47 35 47 97q0 61 -47 94.5t-114 33.5q-68 0 -113 -33t-45 -95
q0 -63 45.5 -97.5t112.5 -34.5t114 35zM821 699h148l-113 -270h-98z" />
    <glyph glyph-name="Dcroat" unicode="&#x110;" horiz-adv-x="867" 
d="M717 610q108 -90 108 -260q0 -171 -108 -260.5t-300 -89.5h-333v279h-64v143h64v278h333q192 0 300 -90zM593 198q60 52 60 152q0 101 -60.5 152.5t-175.5 51.5h-161v-132h264v-143h-264v-133h161q116 0 176 52z" />
    <glyph glyph-name="dcroat" unicode="&#x111;" horiz-adv-x="790" 
d="M770 536h-47v-536h-176l22 163h-12q-17 -80 -86 -129.5t-163 -49.5q-78 0 -138.5 33.5t-94 95t-33.5 141.5q0 77 33 136.5t91.5 92.5t132.5 33q93 0 162 -47.5t86 -130.5h4v198h-239v103h239v61h172v-61h47v-103zM480 155q47 35 47 97q0 61 -47 94.5t-114 33.5
q-68 0 -113 -33t-45 -95q0 -63 45.5 -97.5t112.5 -34.5t114 35z" />
    <glyph glyph-name="Emacron" unicode="&#x112;" horiz-adv-x="840" 
d="M84 700h682v-146h-510v-130h501v-137h-501v-141h510v-146h-682v700zM158 900h532v-54h-532v54z" />
    <glyph glyph-name="emacron" unicode="&#x113;" horiz-adv-x="686" 
d="M185 17q-68 33 -105.5 93.5t-37.5 139.5t37.5 139.5t105.5 93.5t158 33q89 0 156.5 -28.5t105.5 -80t39 -118.5v-82h-431q12 -47 55.5 -69.5t124.5 -22.5q70 0 113.5 11.5t92.5 33.5l23 10v-137q-71 -27 -128 -38t-151 -11q-90 0 -158 33zM479 283q-3 46 -40 71.5
t-96 25.5q-54 0 -90.5 -27.5t-43.5 -75.5zM77 700h532v-54h-532v54z" />
    <glyph glyph-name="Edotaccent" unicode="&#x116;" horiz-adv-x="840" 
d="M84 700h682v-146h-510v-130h501v-137h-501v-141h510v-146h-682v700zM352.5 761.5q-27.5 23.5 -27.5 61.5t27.5 61.5t71.5 23.5q47 0 73 -23t26 -62t-26 -62t-73 -23q-44 0 -71.5 23.5z" />
    <glyph glyph-name="edotaccent" unicode="&#x117;" horiz-adv-x="686" 
d="M185 17q-68 33 -105.5 93.5t-37.5 139.5t37.5 139.5t105.5 93.5t158 33q89 0 156.5 -28.5t105.5 -80t39 -118.5v-82h-431q12 -47 55.5 -69.5t124.5 -22.5q70 0 113.5 11.5t92.5 33.5l23 10v-137q-71 -27 -128 -38t-151 -11q-90 0 -158 33zM479 283q-3 46 -40 71.5
t-96 25.5q-54 0 -90.5 -27.5t-43.5 -75.5zM271.5 561.5q-27.5 23.5 -27.5 61.5t27.5 61.5t71.5 23.5q47 0 73 -23t26 -62t-26 -62t-73 -23q-44 0 -71.5 23.5z" />
    <glyph glyph-name="Eogonek" unicode="&#x118;" horiz-adv-x="840" 
d="M256 554v-130h501v-137h-501v-141h510v-146h-304q-29 -30 -29 -56q0 -32 39 -51t99 -19q41 0 84 9l-3 -97q-52 -16 -112 -16q-59 0 -109.5 17t-81 48t-30.5 72q0 43 38 93h-273v700h682v-146h-510z" />
    <glyph glyph-name="eogonek" unicode="&#x119;" horiz-adv-x="686" 
d="M644 207h-431q12 -47 55.5 -69.5t124.5 -22.5q70 0 113.5 11.5t92.5 33.5l23 10v-137q-63 -24 -112 -35t-121 -13q-16 -22 -16 -41q0 -32 39 -51t98 -19q42 0 84 9l-3 -97q-52 -16 -111 -16t-109.5 17t-81 48t-30.5 72q0 38 29 80q-113 15 -179.5 85.5t-66.5 177.5
q0 79 37.5 139.5t105.5 93.5t158 33q89 0 156.5 -28.5t105.5 -80t39 -118.5v-82zM479 283q-3 46 -40 71.5t-96 25.5q-54 0 -90.5 -27.5t-43.5 -75.5z" />
    <glyph glyph-name="Ecaron" unicode="&#x11a;" horiz-adv-x="840" 
d="M84 700h682v-146h-510v-130h501v-137h-501v-141h510v-146h-682v700zM711 1021v-80l-287 -186l-287 186v80l287 -164z" />
    <glyph glyph-name="ecaron" unicode="&#x11b;" horiz-adv-x="686" 
d="M185 17q-68 33 -105.5 93.5t-37.5 139.5t37.5 139.5t105.5 93.5t158 33q89 0 156.5 -28.5t105.5 -80t39 -118.5v-82h-431q12 -47 55.5 -69.5t124.5 -22.5q70 0 113.5 11.5t92.5 33.5l23 10v-137q-71 -27 -128 -38t-151 -11q-90 0 -158 33zM479 283q-3 46 -40 71.5
t-96 25.5q-54 0 -90.5 -27.5t-43.5 -75.5zM630 821v-80l-287 -186l-287 186v80l287 -164z" />
    <glyph glyph-name="Gbreve" unicode="&#x11e;" horiz-adv-x="960" 
d="M253 29.5q-96 45.5 -148.5 128.5t-52.5 192t52.5 192t148.5 128.5t221 45.5q119 0 213 -34t148 -96t56 -142h-177q-3 63 -65 94.5t-169 31.5q-119 0 -187.5 -57.5t-68.5 -162.5q0 -104 68 -162t182 -58q95 0 161 33t83 98h-349v123h533v-384h-112l-8 140
q-41 -78 -122 -117t-186 -39q-125 0 -221 45.5zM365 769.5q-48 18.5 -76 52.5t-28 78h105q1 -40 30.5 -60.5t77.5 -20.5q49 0 78 20.5t32 60.5h103q-1 -69 -56.5 -109t-156.5 -40q-61 0 -109 18.5z" />
    <glyph glyph-name="gbreve" unicode="&#x11f;" horiz-adv-x="785" 
d="M126 -164v146q32 -19 98.5 -32.5t141.5 -13.5q72 0 113.5 17t60 55t22.5 103l1 37q-20 -73 -86.5 -112.5t-158.5 -39.5q-79 0 -139 31t-93.5 89t-33.5 138q0 77 33 136.5t91.5 92.5t132.5 33q93 0 162 -47.5t86 -130.5h16l-15 162h170v-440q0 -131 -89.5 -195.5
t-243.5 -64.5q-141 0 -269 36zM489.5 155q47.5 35 47.5 97q0 61 -47 94.5t-114 33.5q-68 0 -113 -33t-45 -95q0 -63 45.5 -97.5t112.5 -34.5q66 0 113.5 35zM330 569.5q-48 18.5 -76 52.5t-28 78h105q1 -40 30.5 -60.5t77.5 -20.5q49 0 78 20.5t32 60.5h103
q-1 -69 -56.5 -109t-156.5 -40q-61 0 -109 18.5z" />
    <glyph glyph-name="Gdotaccent" unicode="&#x120;" horiz-adv-x="960" 
d="M253 29.5q-96 45.5 -148.5 128.5t-52.5 192t52.5 192t148.5 128.5t221 45.5q119 0 213 -34t148 -96t56 -142h-177q-3 63 -65 94.5t-169 31.5q-119 0 -187.5 -57.5t-68.5 -162.5q0 -104 68 -162t182 -58q95 0 161 33t83 98h-349v123h533v-384h-112l-8 140
q-41 -78 -122 -117t-186 -39q-125 0 -221 45.5zM402.5 761.5q-27.5 23.5 -27.5 61.5t27.5 61.5t71.5 23.5q47 0 73 -23t26 -62t-26 -62t-73 -23q-44 0 -71.5 23.5z" />
    <glyph glyph-name="gdotaccent" unicode="&#x121;" horiz-adv-x="785" 
d="M126 -164v146q32 -19 98.5 -32.5t141.5 -13.5q72 0 113.5 17t60 55t22.5 103l1 37q-20 -73 -86.5 -112.5t-158.5 -39.5q-79 0 -139 31t-93.5 89t-33.5 138q0 77 33 136.5t91.5 92.5t132.5 33q93 0 162 -47.5t86 -130.5h16l-15 162h170v-440q0 -131 -89.5 -195.5
t-243.5 -64.5q-141 0 -269 36zM489.5 155q47.5 35 47.5 97q0 61 -47 94.5t-114 33.5q-68 0 -113 -33t-45 -95q0 -63 45.5 -97.5t112.5 -34.5q66 0 113.5 35zM367.5 561.5q-27.5 23.5 -27.5 61.5t27.5 61.5t71.5 23.5q47 0 73 -23t26 -62t-26 -62t-73 -23q-44 0 -71.5 23.5z
" />
    <glyph glyph-name="uni0122" unicode="&#x122;" horiz-adv-x="960" 
d="M253 29.5q-96 45.5 -148.5 128.5t-52.5 192t52.5 192t148.5 128.5t221 45.5q119 0 213 -34t148 -96t56 -142h-177q-3 63 -65 94.5t-169 31.5q-119 0 -187.5 -57.5t-68.5 -162.5q0 -104 68 -162t182 -58q95 0 161 33t83 98h-349v123h533v-384h-112l-8 140
q-41 -78 -122 -117t-186 -39q-125 0 -221 45.5zM420 -80h148l-113 -270h-98z" />
    <glyph glyph-name="uni0123" unicode="&#x123;" horiz-adv-x="785" 
d="M126 -164v146q32 -19 98.5 -32.5t141.5 -13.5q72 0 113.5 17t60 55t22.5 103l1 37q-20 -73 -86.5 -112.5t-158.5 -39.5q-79 0 -139 31t-93.5 89t-33.5 138q0 77 33 136.5t91.5 92.5t132.5 33q93 0 162 -47.5t86 -130.5h16l-15 162h170v-440q0 -131 -89.5 -195.5
t-243.5 -64.5q-141 0 -269 36zM489.5 155q47.5 35 47.5 97q0 61 -47 94.5t-114 33.5q-68 0 -113 -33t-45 -95q0 -63 45.5 -97.5t112.5 -34.5q66 0 113.5 35zM309 -262h148l-113 -270h-98z" />
    <glyph glyph-name="Hbar" unicode="&#x126;" horiz-adv-x="953" 
d="M924 524h-55v-524h-172v291h-441v-291h-172v524h-56v118h56v58h172v-58h441v58h172v-58h55v-118zM697 524h-441v-87h441v87z" />
    <glyph glyph-name="hbar" unicode="&#x127;" horiz-adv-x="734" 
d="M599 488q44 -27 65.5 -91.5t21.5 -179.5v-217h-172v200q0 71 -13 111.5t-40.5 58t-73.5 17.5t-82 -29.5t-55.5 -83t-19.5 -121.5v-153h-172v536h-43v103h43v61h186l-3 -61h232v-103h-237l-12 -242h8q18 113 77 167.5t172 54.5q74 -1 118 -28z" />
    <glyph glyph-name="Imacron" unicode="&#x12a;" horiz-adv-x="340" 
d="M84 700h172v-700h-172v700zM-96 900h532v-54h-532v54z" />
    <glyph glyph-name="imacron" unicode="&#x12b;" horiz-adv-x="250" 
d="M39 500h172v-500h-172v500zM-140 700h532v-54h-532v54z" />
    <glyph glyph-name="Iogonek" unicode="&#x12e;" horiz-adv-x="340" 
d="M369 -117l-3 -97q-52 -16 -111 -16t-109.5 17t-81 48t-30.5 72q0 51 50 107v686h172v-700h-79q-29 -30 -29 -56q0 -32 39 -51t98 -19q42 0 84 9z" />
    <glyph glyph-name="iogonek" unicode="&#x12f;" horiz-adv-x="296" 
d="M71 586q-26 22 -26 69q0 92 102 92q104 0 104 -92q0 -48 -26 -69.5t-78 -21.5q-50 0 -76 22zM345 -117l-3 -97q-52 -16 -112 -16q-59 0 -109.5 17t-81 48t-30.5 72q0 51 54 111v482h172v-500h-83q-29 -30 -29 -56q0 -32 39 -51t99 -19q42 0 84 9z" />
    <glyph glyph-name="Idotaccent" unicode="&#x130;" horiz-adv-x="340" 
d="M84 700h172v-700h-172v700zM101.5 761.5q-27.5 23.5 -27.5 61.5t27.5 61.5t71.5 23.5q47 0 73 -23t26 -62t-26 -62t-73 -23q-44 0 -71.5 23.5z" />
    <glyph glyph-name="dotlessi" unicode="&#x131;" horiz-adv-x="250" 
d="M39 500h172v-500h-172v500z" />
    <glyph glyph-name="uni0136" unicode="&#x136;" horiz-adv-x="981" 
d="M84 700h172v-353l404 353h251l-306 -265l335 -435h-233l-242 318l-209 -171v-147h-172v700zM397 -80h148l-113 -270h-98z" />
    <glyph glyph-name="uni0137" unicode="&#x137;" horiz-adv-x="726" 
d="M58 700h172v-394l212 194h240l-196 -167l209 -333h-213l-127 220l-125 -104v-116h-172v700zM278 -80h148l-113 -270h-98z" />
    <glyph glyph-name="Lacute" unicode="&#x139;" horiz-adv-x="755" 
d="M84 700h172v-554h465v-146h-637v700zM159 849l287 161v-127l-287 -139v105z" />
    <glyph glyph-name="lacute" unicode="&#x13a;" horiz-adv-x="302" 
d="M65 700h172v-700h-172v700zM128 849l287 161v-127l-287 -139v105z" />
    <glyph glyph-name="uni013B" unicode="&#x13b;" horiz-adv-x="755" 
d="M84 700h172v-554h465v-146h-637v700zM327 -80h148l-113 -270h-98z" />
    <glyph glyph-name="uni013C" unicode="&#x13c;" horiz-adv-x="287" 
d="M65 700h172v-700h-172v700zM70 -80h148l-113 -270h-98z" />
    <glyph glyph-name="Lcaron" unicode="&#x13d;" horiz-adv-x="755" 
d="M84 700h172v-554h465v-146h-637v700zM401 699h148l-113 -270h-98z" />
    <glyph glyph-name="lcaron" unicode="&#x13e;" horiz-adv-x="486" 
d="M65 700h172v-700h-172v700zM317 699h148l-113 -270h-98z" />
    <glyph glyph-name="Lslash" unicode="&#x141;" horiz-adv-x="755" 
d="M721 146v-146h-637v287l-66 -38l-59 103l125 72v276h172v-177l168 96l60 -102l-228 -131v-240h465z" />
    <glyph glyph-name="lslash" unicode="&#x142;" horiz-adv-x="537" 
d="M357 422v-422h-172v323l-122 -70l-55 99l177 102v246h172v-148l116 67l56 -98z" />
    <glyph glyph-name="Nacute" unicode="&#x143;" horiz-adv-x="974" 
d="M84 700h144l491 -445v445h172v-700h-145l-490 445v-445h-172v700zM465 849l287 161v-127l-287 -139v105z" />
    <glyph glyph-name="nacute" unicode="&#x144;" horiz-adv-x="734" 
d="M58 500h186l-20 -206h8q18 113 77 167.5t172 54.5q74 -1 118 -28t65.5 -91.5t21.5 -179.5v-217h-172v200q0 71 -13 111.5t-40.5 58t-73.5 17.5t-82 -29.5t-55.5 -83t-19.5 -121.5v-153h-172v500zM367 649l287 161v-127l-287 -139v105z" />
    <glyph glyph-name="uni0145" unicode="&#x145;" horiz-adv-x="974" 
d="M84 700h144l491 -445v445h172v-700h-145l-490 445v-445h-172v700zM419 -80h148l-113 -270h-98z" />
    <glyph glyph-name="uni0146" unicode="&#x146;" horiz-adv-x="734" 
d="M58 500h186l-20 -206h8q18 113 77 167.5t172 54.5q74 -1 118 -28t65.5 -91.5t21.5 -179.5v-217h-172v200q0 71 -13 111.5t-40.5 58t-73.5 17.5t-82 -29.5t-55.5 -83t-19.5 -121.5v-153h-172v500zM295 -80h148l-113 -270h-98z" />
    <glyph glyph-name="Ncaron" unicode="&#x147;" horiz-adv-x="974" 
d="M84 700h144l491 -445v445h172v-700h-145l-490 445v-445h-172v700zM776 1021v-80l-287 -186l-287 186v80l287 -164z" />
    <glyph glyph-name="ncaron" unicode="&#x148;" horiz-adv-x="734" 
d="M58 500h186l-20 -206h8q18 113 77 167.5t172 54.5q74 -1 118 -28t65.5 -91.5t21.5 -179.5v-217h-172v200q0 71 -13 111.5t-40.5 58t-73.5 17.5t-82 -29.5t-55.5 -83t-19.5 -121.5v-153h-172v500zM678 821v-80l-287 -186l-287 186v80l287 -164z" />
    <glyph glyph-name="Eng" unicode="&#x14a;" horiz-adv-x="974" 
d="M891 700v-700q0 -82 -36 -124t-126 -59t-266 -17v89q147 0 225 19.5t78 53.5q0 16 -20 38l-490 445v-445h-172v700h144l491 -445v445h172z" />
    <glyph glyph-name="eng" unicode="&#x14b;" horiz-adv-x="734" 
d="M599 488q44 -27 65.5 -91.5t21.5 -179.5v-217q-1 -91 -30 -131t-117 -54.5t-290 -14.5v89q105 0 158.5 5t80 22t26.5 52v32v200q0 71 -13 111.5t-40.5 58t-73.5 17.5t-82 -29.5t-55.5 -83t-19.5 -121.5v-153h-172v500h186l-20 -206h8q18 113 77 167.5t172 54.5
q74 -1 118 -28z" />
    <glyph glyph-name="Omacron" unicode="&#x14c;" horiz-adv-x="969" 
d="M249 29.5q-100 45.5 -153.5 128.5t-53.5 192t53.5 192t153.5 128.5t235 45.5t235.5 -45.5t154 -128t53.5 -192.5t-53.5 -192.5t-154 -128t-235.5 -45.5t-235 45.5zM683 187.5q72 57.5 72 162.5t-72 162.5t-199 57.5t-198.5 -57.5t-71.5 -162.5t72 -162.5t198 -57.5
q127 0 199 57.5zM219 900h532v-54h-532v54z" />
    <glyph glyph-name="omacron" unicode="&#x14d;" horiz-adv-x="718" 
d="M192.5 17q-71.5 33 -111 93.5t-39.5 139.5t39.5 139.5t111 93.5t166.5 33t166.5 -33t111 -93.5t39.5 -139.5t-39.5 -139.5t-111 -93.5t-166.5 -33t-166.5 33zM471.5 156q42.5 36 42.5 94q0 59 -42.5 94.5t-112.5 35.5t-112.5 -35.5t-42.5 -94.5q0 -58 42.5 -94t112.5 -36
t112.5 36zM103 700h532v-54h-532v54z" />
    <glyph glyph-name="Ohungarumlaut" unicode="&#x150;" horiz-adv-x="969" 
d="M249 29.5q-100 45.5 -153.5 128.5t-53.5 192t53.5 192t153.5 128.5t235 45.5t235.5 -45.5t154 -128t53.5 -192.5t-53.5 -192.5t-154 -128t-235.5 -45.5t-235 45.5zM683 187.5q72 57.5 72 162.5t-72 162.5t-199 57.5t-198.5 -57.5t-71.5 -162.5t72 -162.5t198 -57.5
q127 0 199 57.5zM349 824l287 186v-102l-287 -164v80zM599 824l287 186v-102l-287 -164v80z" />
    <glyph glyph-name="ohungarumlaut" unicode="&#x151;" horiz-adv-x="718" 
d="M192.5 17q-71.5 33 -111 93.5t-39.5 139.5t39.5 139.5t111 93.5t166.5 33t166.5 -33t111 -93.5t39.5 -139.5t-39.5 -139.5t-111 -93.5t-166.5 -33t-166.5 33zM471.5 156q42.5 36 42.5 94q0 59 -42.5 94.5t-112.5 35.5t-112.5 -35.5t-42.5 -94.5q0 -58 42.5 -94t112.5 -36
t112.5 36zM224 624l287 186v-102l-287 -164v80zM474 624l287 186v-102l-287 -164v80z" />
    <glyph glyph-name="OE" unicode="&#x152;" horiz-adv-x="1528" 
d="M944 554v-130h501v-137h-501v-141h510v-146h-682v58q-114 -74 -288 -74q-135 0 -235 45.5t-153.5 128.5t-53.5 192t53.5 192t153.5 128.5t235 45.5q174 0 288 -74v58h682v-146h-510zM683 187.5q72 57.5 72 162.5t-72 162.5t-199 57.5t-198.5 -57.5t-71.5 -162.5
t72 -162.5t198 -57.5q127 0 199 57.5z" />
    <glyph glyph-name="oe" unicode="&#x153;" horiz-adv-x="1161" 
d="M1120 207h-432q13 -47 56.5 -69.5t124.5 -22.5q70 0 113.5 11.5t92.5 33.5l23 10v-137q-72 -27 -129 -38t-150 -11q-70 0 -127 20t-97 58q-42 -38 -102 -58t-134 -20q-95 0 -166.5 33t-111 93.5t-39.5 139.5t39.5 139.5t111 93.5t166.5 33q74 0 134 -20t102 -58
q40 38 97 58t127 20q89 0 156.5 -28.5t105.5 -80t39 -118.5v-82zM471.5 156q42.5 36 42.5 94q0 59 -42.5 94.5t-112.5 35.5t-112.5 -35.5t-42.5 -94.5q0 -58 42.5 -94t112.5 -36t112.5 36zM955 283q-3 46 -40.5 71.5t-95.5 25.5q-54 0 -91 -27t-44 -76z" />
    <glyph glyph-name="Racute" unicode="&#x154;" horiz-adv-x="941" 
d="M84 700h557q106 0 165.5 -51t59.5 -134t-61 -129.5t-164 -46.5h-72q82 -5 139.5 -41t104.5 -104t111 -194h-206q-74 134 -110.5 188.5t-74 78t-96.5 23.5h-182l1 -290h-172v700zM606 424q45 0 66.5 16.5t21.5 49.5q0 37 -21.5 54t-66.5 17h-352l1 -137h351zM428 849
l287 161v-127l-287 -139v105z" />
    <glyph glyph-name="racute" unicode="&#x155;" horiz-adv-x="537" 
d="M58 500h186l-20 -186h10q20 108 83 155t192 47v-146q-102 0 -162 -17.5t-88.5 -61t-28.5 -123.5v-168h-172v500zM267 649l287 161v-127l-287 -139v105z" />
    <glyph glyph-name="uni0156" unicode="&#x156;" horiz-adv-x="941" 
d="M84 700h557q106 0 165.5 -51t59.5 -134t-61 -129.5t-164 -46.5h-72q82 -5 139.5 -41t104.5 -104t111 -194h-206q-74 134 -110.5 188.5t-74 78t-96.5 23.5h-182l1 -290h-172v700zM606 424q45 0 66.5 16.5t21.5 49.5q0 37 -21.5 54t-66.5 17h-352l1 -137h351zM384 -80h148
l-113 -270h-98z" />
    <glyph glyph-name="uni0157" unicode="&#x157;" horiz-adv-x="537" 
d="M58 500h186l-20 -186h10q20 108 83 155t192 47v-146q-102 0 -162 -17.5t-88.5 -61t-28.5 -123.5v-168h-172v500zM67 -80h148l-113 -270h-98z" />
    <glyph glyph-name="Rcaron" unicode="&#x158;" horiz-adv-x="941" 
d="M84 700h557q106 0 165.5 -51t59.5 -134t-61 -129.5t-164 -46.5h-72q82 -5 139.5 -41t104.5 -104t111 -194h-206q-74 134 -110.5 188.5t-74 78t-96.5 23.5h-182l1 -290h-172v700zM606 424q45 0 66.5 16.5t21.5 49.5q0 37 -21.5 54t-66.5 17h-352l1 -137h351zM739 1021v-80
l-287 -186l-287 186v80l287 -164z" />
    <glyph glyph-name="rcaron" unicode="&#x159;" horiz-adv-x="537" 
d="M58 500h186l-20 -186h10q20 108 83 155t192 47v-146q-102 0 -162 -17.5t-88.5 -61t-28.5 -123.5v-168h-172v500zM578 821v-80l-287 -186l-287 186v80l287 -164z" />
    <glyph glyph-name="Sacute" unicode="&#x15a;" horiz-adv-x="879" 
d="M230 14.5q-91 30.5 -140 85.5t-48 128h182q-1 -45 54 -71.5t149 -26.5q114 0 175.5 20t61.5 59q0 29 -28 43.5t-70.5 19.5t-120.5 8q-119 6 -195 18.5t-131.5 56t-55.5 131.5q0 70 46 122t129.5 80t193.5 28q114 0 201.5 -30t136 -85.5t49.5 -128.5h-182q1 45 -50.5 71.5
t-140.5 26.5q-100 0 -155 -19.5t-55 -56.5q0 -29 28.5 -44t72 -20.5t120.5 -10.5q119 -7 194.5 -20.5t130.5 -56.5t55 -127q0 -71 -49.5 -123t-138.5 -80t-207 -28q-121 0 -212 30.5zM414 849l287 161v-127l-287 -139v105z" />
    <glyph glyph-name="sacute" unicode="&#x15b;" horiz-adv-x="675" 
d="M203 -5.5q-74 10.5 -135 28.5v144q63 -24 119 -34.5t122 -10.5q83 0 119 8.5t36 30.5q0 20 -32.5 27t-102.5 11q-85 4 -142 14t-99 41t-42 92q0 84 78.5 127t215.5 43q46 0 116 -7.5t134 -20.5v-141q-133 28 -228 28q-78 0 -114.5 -9t-36.5 -28q0 -17 29 -22.5t96 -9.5
q87 -4 146.5 -14t103.5 -43t44 -97q0 -86 -78 -127t-216 -41q-59 0 -133 10.5zM314 649l287 161v-127l-287 -139v105z" />
    <glyph glyph-name="Scedilla" unicode="&#x15e;" horiz-adv-x="879" 
d="M795.5 100.5q-41.5 -49.5 -117 -78.5t-177.5 -36l-29 -56q143 -8 223.5 -36t80.5 -71q0 -31 -53.5 -56t-150 -39.5t-222.5 -14.5v55q255 1 255 55q0 26 -61 41t-194 17v53l30 52q-104 7 -181 39t-117.5 84.5t-39.5 118.5h182q-1 -45 54 -71.5t149 -26.5q114 0 175.5 20
t61.5 59q0 29 -28 43.5t-70.5 19.5t-120.5 8q-119 6 -195 18.5t-131.5 56t-55.5 131.5q0 70 46 122t129.5 80t193.5 28q114 0 201.5 -30t136 -85.5t49.5 -128.5h-182q1 45 -50.5 71.5t-140.5 26.5q-100 0 -155 -19.5t-55 -56.5q0 -29 28.5 -44t72 -20.5t120.5 -10.5
q119 -7 194.5 -20.5t130.5 -56.5t55 -127q0 -65 -41.5 -114.5z" />
    <glyph glyph-name="scedilla" unicode="&#x15f;" horiz-adv-x="675" 
d="M585 -106q81 -28 81 -71q0 -31 -53.5 -56t-150 -39.5t-222.5 -14.5v55q131 1 192.5 15.5t61.5 39.5q0 54 -254 58v53l30 53q-108 8 -202 36v144q63 -24 119 -34.5t122 -10.5q83 0 119 8.5t36 30.5q0 20 -32.5 27t-102.5 11q-85 4 -142 14t-99 41t-42 92q0 84 78.5 127
t215.5 43q46 0 116 -7.5t134 -20.5v-141q-133 28 -228 28q-78 0 -114.5 -9t-36.5 -28q0 -17 29 -22.5t96 -9.5q87 -4 146.5 -14t103.5 -43t44 -97q0 -77 -63 -118t-177 -48l-29 -56q143 -8 224 -36z" />
    <glyph glyph-name="Scaron" unicode="&#x160;" horiz-adv-x="879" 
d="M230 14.5q-91 30.5 -140 85.5t-48 128h182q-1 -45 54 -71.5t149 -26.5q114 0 175.5 20t61.5 59q0 29 -28 43.5t-70.5 19.5t-120.5 8q-119 6 -195 18.5t-131.5 56t-55.5 131.5q0 70 46 122t129.5 80t193.5 28q114 0 201.5 -30t136 -85.5t49.5 -128.5h-182q1 45 -50.5 71.5
t-140.5 26.5q-100 0 -155 -19.5t-55 -56.5q0 -29 28.5 -44t72 -20.5t120.5 -10.5q119 -7 194.5 -20.5t130.5 -56.5t55 -127q0 -71 -49.5 -123t-138.5 -80t-207 -28q-121 0 -212 30.5zM725 1021v-80l-287 -186l-287 186v80l287 -164z" />
    <glyph glyph-name="scaron" unicode="&#x161;" horiz-adv-x="675" 
d="M203 -5.5q-74 10.5 -135 28.5v144q63 -24 119 -34.5t122 -10.5q83 0 119 8.5t36 30.5q0 20 -32.5 27t-102.5 11q-85 4 -142 14t-99 41t-42 92q0 84 78.5 127t215.5 43q46 0 116 -7.5t134 -20.5v-141q-133 28 -228 28q-78 0 -114.5 -9t-36.5 -28q0 -17 29 -22.5t96 -9.5
q87 -4 146.5 -14t103.5 -43t44 -97q0 -86 -78 -127t-216 -41q-59 0 -133 10.5zM625 821v-80l-287 -186l-287 186v80l287 -164z" />
    <glyph glyph-name="uni0162" unicode="&#x162;" horiz-adv-x="881" 
d="M472 0l-36 -70q143 -8 223.5 -36t80.5 -71q0 -31 -53.5 -56t-150 -39.5t-222.5 -14.5v55q131 1 192.5 15.5t61.5 39.5q0 54 -254 58v53l40 70v550h-325v146h823v-146h-326v-554h-54z" />
    <glyph glyph-name="uni0163" unicode="&#x163;" horiz-adv-x="426" 
d="M457.5 -106q80.5 -28 80.5 -71q0 -31 -53.5 -56t-150 -39.5t-222.5 -14.5v55q255 1 255 55q0 26 -61 41t-194 17v53l42 72q-33 17 -44.5 56.5t-11.5 117.5v195h-64v125h78v120l158 20v-140h122v-125h-122v-165q0 -48 3.5 -67.5t19 -28t52.5 -8.5q11 0 47 2v-98
q-65 -19 -127 -20l-31 -60q143 -8 223.5 -36z" />
    <glyph glyph-name="Tcaron" unicode="&#x164;" horiz-adv-x="881" 
d="M354 554h-325v146h823v-146h-326v-554h-172v554zM728 1021v-80l-287 -186l-287 186v80l287 -164z" />
    <glyph glyph-name="tcaron" unicode="&#x165;" horiz-adv-x="633" 
d="M151.5 7.5q-31.5 17.5 -42.5 56.5t-11 116v195h-64v125h78v120l158 20v-140h122v-125h-122v-165q0 -48 3.5 -67.5t19 -28t52.5 -8.5q11 0 47 2v-98q-67 -20 -144 -20q-65 0 -96.5 17.5zM467 699h148l-113 -270h-98z" />
    <glyph glyph-name="Tbar" unicode="&#x166;" horiz-adv-x="881" 
d="M526 554v-152h165v-143h-165v-259h-172v259h-163v143h163v152h-325v146h823v-146h-326z" />
    <glyph glyph-name="tbar" unicode="&#x167;" horiz-adv-x="426" 
d="M393 193h-123q0 -38 4.5 -55t20 -24.5t50.5 -7.5q11 0 47 2v-98q-67 -20 -144 -20q-65 0 -96.5 17.5t-42.5 56.5t-11 116v13h-64v124h64v58h-64v125h78v120l158 20v-140h122v-125h-122v-58h123v-124z" />
    <glyph glyph-name="Umacron" unicode="&#x16a;" horiz-adv-x="917" 
d="M255 19q-82 35 -126.5 119.5t-44.5 229.5v332h172v-362q0 -101 51 -152t151 -51t151.5 51t51.5 152v362h172v-332q0 -144 -45 -229t-127 -120t-203 -35t-203 35zM192 900h532v-54h-532v54z" />
    <glyph glyph-name="umacron" unicode="&#x16b;" horiz-adv-x="734" 
d="M676 0h-186l20 206h-9q-18 -113 -76.5 -167.5t-171.5 -54.5q-74 1 -118 28t-65.5 91.5t-21.5 179.5v217h172v-200q0 -70 13 -110.5t40 -58t73 -17.5q47 0 83 29.5t55.5 82.5t19.5 121v153h172v-500zM102 700h532v-54h-532v54z" />
    <glyph glyph-name="Uring" unicode="&#x16e;" horiz-adv-x="917" 
d="M255 19q-82 35 -126.5 119.5t-44.5 229.5v332h172v-362q0 -101 51 -152t151 -51t151.5 51t51.5 152v362h172v-332q0 -144 -45 -229t-127 -120t-203 -35t-203 35zM332 751q-58 13 -92.5 36.5t-34.5 53.5t34.5 53.5t92.5 36.5t126 13q74 0 131.5 -13t89.5 -36t32 -54
t-32 -54t-89.5 -36t-131.5 -13q-68 0 -126 13zM523.5 802.5q25.5 13.5 25.5 37.5q0 26 -24.5 39.5t-66.5 13.5q-40 0 -64.5 -13.5t-24.5 -38.5t24.5 -38.5t64.5 -13.5t65.5 13.5z" />
    <glyph glyph-name="uring" unicode="&#x16f;" horiz-adv-x="734" 
d="M676 0h-186l20 206h-9q-18 -113 -76.5 -167.5t-171.5 -54.5q-74 1 -118 28t-65.5 91.5t-21.5 179.5v217h172v-200q0 -70 13 -110.5t40 -58t73 -17.5q47 0 83 29.5t55.5 82.5t19.5 121v153h172v-500zM222 551q-58 13 -92.5 36.5t-34.5 53.5t34.5 53.5t92.5 36.5t126 13
q74 0 131.5 -13t89.5 -36t32 -54t-32 -54t-89.5 -36t-131.5 -13q-68 0 -126 13zM413.5 602.5q25.5 13.5 25.5 37.5q0 26 -24.5 39.5t-66.5 13.5q-40 0 -64.5 -13.5t-24.5 -38.5t24.5 -38.5t64.5 -13.5t65.5 13.5z" />
    <glyph glyph-name="Uhungarumlaut" unicode="&#x170;" horiz-adv-x="917" 
d="M255 19q-82 35 -126.5 119.5t-44.5 229.5v332h172v-362q0 -101 51 -152t151 -51t151.5 51t51.5 152v362h172v-332q0 -144 -45 -229t-127 -120t-203 -35t-203 35zM322 824l287 186v-102l-287 -164v80zM572 824l287 186v-102l-287 -164v80z" />
    <glyph glyph-name="uhungarumlaut" unicode="&#x171;" horiz-adv-x="734" 
d="M676 0h-186l20 206h-9q-18 -113 -76.5 -167.5t-171.5 -54.5q-74 1 -118 28t-65.5 91.5t-21.5 179.5v217h172v-200q0 -70 13 -110.5t40 -58t73 -17.5q47 0 83 29.5t55.5 82.5t19.5 121v153h172v-500zM212 624l287 186v-102l-287 -164v80zM462 624l287 186v-102l-287 -164
v80z" />
    <glyph glyph-name="Uogonek" unicode="&#x172;" horiz-adv-x="917" 
d="M833 700v-332q0 -195 -80.5 -282.5t-236.5 -99.5q-17 -23 -17 -42q0 -32 39 -51t98 -19q42 0 84 9l-3 -97q-52 -16 -111 -16t-109.5 17t-81 48t-30.5 72q0 37 28 78q-162 10 -245.5 97t-83.5 286v332h172v-362q0 -101 51 -152t151 -51t151.5 51t51.5 152v362h172z" />
    <glyph glyph-name="uogonek" unicode="&#x173;" horiz-adv-x="734" 
d="M774 -117l-3 -97q-52 -16 -111 -16t-109.5 17t-81 48t-30.5 72q0 52 53 111l18 188h-9q-18 -113 -76.5 -167.5t-171.5 -54.5q-74 1 -118 28t-65.5 91.5t-21.5 179.5v217h172v-200q0 -70 13 -110.5t40 -58t73 -17.5q47 0 83 29.5t55.5 82.5t19.5 121v153h172v-500h-95
q-29 -30 -29 -56q0 -32 39 -51t99 -19q42 0 84 9z" />
    <glyph glyph-name="Wcircumflex" unicode="&#x174;" horiz-adv-x="1274" 
d="M36 700h192l166 -466l151 466h184l151 -466l166 466h191l-259 -700h-200l-141 421l-141 -421h-201zM924 835v-80l-287 164l-287 -164v80l287 186z" />
    <glyph glyph-name="wcircumflex" unicode="&#x175;" horiz-adv-x="1099" 
d="M25 500h175l138 -324l129 324h154l139 -328l138 328h176l-214 -500h-204l-110 269l-104 -269h-203zM831 635v-80l-287 164l-287 -164v80l287 186z" />
    <glyph glyph-name="Ycircumflex" unicode="&#x176;" horiz-adv-x="1003" 
d="M415 226l-390 474h212l264 -330l265 330h212l-391 -473v-227h-172v226zM788 835v-80l-287 164l-287 -164v80l287 186z" />
    <glyph glyph-name="ycircumflex" unicode="&#x177;" horiz-adv-x="789" 
d="M310 6l-285 494h195l178 -324l177 324h189l-376 -700h-189zM693 635v-80l-287 164l-287 -164v80l287 186z" />
    <glyph glyph-name="Ydieresis" unicode="&#x178;" horiz-adv-x="1003" 
d="M415 226l-390 474h212l264 -330l265 330h212l-391 -473v-227h-172v226zM288.5 761.5q-27.5 23.5 -27.5 61.5t27.5 61.5t71.5 23.5q47 0 73 -23t26 -62t-26 -62t-73 -23q-44 0 -71.5 23.5zM578.5 761.5q-27.5 23.5 -27.5 61.5t27.5 61.5t71.5 23.5q47 0 73 -23t26 -62
t-26 -62t-73 -23q-44 0 -71.5 23.5z" />
    <glyph glyph-name="Zacute" unicode="&#x179;" horiz-adv-x="902" 
d="M39 110l528 444h-520v146h806v-107l-526 -447h536v-146h-824v110zM411 849l287 161v-127l-287 -139v105z" />
    <glyph glyph-name="zacute" unicode="&#x17a;" horiz-adv-x="719" 
d="M30 86l360 285h-352v129h651v-84l-358 -286h348v-130h-649v86zM349 649l287 161v-127l-287 -139v105z" />
    <glyph glyph-name="Zdotaccent" unicode="&#x17b;" horiz-adv-x="902" 
d="M39 110l528 444h-520v146h806v-107l-526 -447h536v-146h-824v110zM363.5 761.5q-27.5 23.5 -27.5 61.5t27.5 61.5t71.5 23.5q47 0 73 -23t26 -62t-26 -62t-73 -23q-44 0 -71.5 23.5z" />
    <glyph glyph-name="zdotaccent" unicode="&#x17c;" horiz-adv-x="719" 
d="M30 86l360 285h-352v129h651v-84l-358 -286h348v-130h-649v86zM301.5 561.5q-27.5 23.5 -27.5 61.5t27.5 61.5t71.5 23.5q47 0 73 -23t26 -62t-26 -62t-73 -23q-44 0 -71.5 23.5z" />
    <glyph glyph-name="Zcaron" unicode="&#x17d;" horiz-adv-x="902" 
d="M39 110l528 444h-520v146h806v-107l-526 -447h536v-146h-824v110zM722 1021v-80l-287 -186l-287 186v80l287 -164z" />
    <glyph glyph-name="zcaron" unicode="&#x17e;" horiz-adv-x="719" 
d="M30 86l360 285h-352v129h651v-84l-358 -286h348v-130h-649v86zM660 821v-80l-287 -186l-287 186v80l287 -164z" />
    <glyph glyph-name="uni0218" unicode="&#x218;" horiz-adv-x="879" 
d="M230 14.5q-91 30.5 -140 85.5t-48 128h182q-1 -45 54 -71.5t149 -26.5q114 0 175.5 20t61.5 59q0 29 -28 43.5t-70.5 19.5t-120.5 8q-119 6 -195 18.5t-131.5 56t-55.5 131.5q0 70 46 122t129.5 80t193.5 28q114 0 201.5 -30t136 -85.5t49.5 -128.5h-182q1 45 -50.5 71.5
t-140.5 26.5q-100 0 -155 -19.5t-55 -56.5q0 -29 28.5 -44t72 -20.5t120.5 -10.5q119 -7 194.5 -20.5t130.5 -56.5t55 -127q0 -71 -49.5 -123t-138.5 -80t-207 -28q-121 0 -212 30.5zM386 -80h148l-113 -270h-98z" />
    <glyph glyph-name="uni0219" unicode="&#x219;" horiz-adv-x="675" 
d="M203 -5.5q-74 10.5 -135 28.5v144q63 -24 119 -34.5t122 -10.5q83 0 119 8.5t36 30.5q0 20 -32.5 27t-102.5 11q-85 4 -142 14t-99 41t-42 92q0 84 78.5 127t215.5 43q46 0 116 -7.5t134 -20.5v-141q-133 28 -228 28q-78 0 -114.5 -9t-36.5 -28q0 -17 29 -22.5t96 -9.5
q87 -4 146.5 -14t103.5 -43t44 -97q0 -86 -78 -127t-216 -41q-59 0 -133 10.5zM281 -71h148l-113 -270h-98z" />
    <glyph glyph-name="uni021A" unicode="&#x21a;" horiz-adv-x="881" 
d="M354 554h-325v146h823v-146h-326v-554h-172v554zM364 -80h148l-113 -270h-98z" />
    <glyph glyph-name="uni021B" unicode="&#x21b;" horiz-adv-x="426" 
d="M151.5 7.5q-31.5 17.5 -42.5 56.5t-11 116v195h-64v125h78v120l158 20v-140h122v-125h-122v-165q0 -48 3.5 -67.5t19 -28t52.5 -8.5q11 0 47 2v-98q-67 -20 -144 -20q-65 0 -96.5 17.5zM162 -71h148l-113 -270h-98z" />
    <glyph glyph-name="circumflex" unicode="&#x2c6;" horiz-adv-x="674" 
d="M624 635v-80l-287 164l-287 -164v80l287 186z" />
    <glyph glyph-name="caron" unicode="&#x2c7;" horiz-adv-x="674" 
d="M624 821v-80l-287 -186l-287 186v80l287 -164z" />
    <glyph glyph-name="breve" unicode="&#x2d8;" horiz-adv-x="526" 
d="M154 569.5q-48 18.5 -76 52.5t-28 78h105q1 -40 30.5 -60.5t77.5 -20.5q49 0 78 20.5t32 60.5h103q-1 -69 -56.5 -109t-156.5 -40q-61 0 -109 18.5z" />
    <glyph glyph-name="dotaccent" unicode="&#x2d9;" horiz-adv-x="298" 
d="M77.5 561.5q-27.5 23.5 -27.5 61.5t27.5 61.5t71.5 23.5q47 0 73 -23t26 -62t-26 -62t-73 -23q-44 0 -71.5 23.5z" />
    <glyph glyph-name="ring" unicode="&#x2da;" horiz-adv-x="606" 
d="M177 551q-58 13 -92.5 36.5t-34.5 53.5t34.5 53.5t92.5 36.5t126 13q74 0 131.5 -13t89.5 -36t32 -54t-32 -54t-89.5 -36t-131.5 -13q-68 0 -126 13zM368.5 602.5q25.5 13.5 25.5 37.5q0 26 -24.5 39.5t-66.5 13.5q-40 0 -64.5 -13.5t-24.5 -38.5t24.5 -38.5t64.5 -13.5
t65.5 13.5z" />
    <glyph glyph-name="ogonek" unicode="&#x2db;" horiz-adv-x="445" 
d="M163.5 -213q-50.5 17 -81 48t-30.5 72q0 58 66 124q30 30 57 30q16 0 27.5 -10t11.5 -22q0 -10 -7 -17q-41 -38 -41 -68q0 -32 39 -51t99 -19q41 0 84 9l-3 -97q-52 -16 -112 -16q-59 0 -109.5 17z" />
    <glyph glyph-name="tilde" unicode="&#x2dc;" horiz-adv-x="481" 
d="M261.5 583.5q-19.5 11.5 -40.5 32.5q-15 14 -25.5 21t-22.5 7q-28 0 -44.5 -18t-17.5 -53h-61q1 58 35 94t88 36q23 0 39.5 -10t37.5 -30q19 -17 31 -24.5t27 -7.5q29 0 45.5 17.5t17.5 53.5h60q-1 -59 -35 -94.5t-88 -35.5q-27 0 -46.5 11.5z" />
    <glyph glyph-name="hungarumlaut" unicode="&#x2dd;" horiz-adv-x="637" 
d="M50 624l287 186v-102l-287 -164v80zM300 624l287 186v-102l-287 -164v80z" />
    <glyph glyph-name="gravecomb" unicode="&#x300;" 
d="M-337 683v127l287 -161v-105z" />
    <glyph glyph-name="acutecomb" unicode="&#x301;" 
d="M-337 649l287 161v-127l-287 -139v105z" />
    <glyph glyph-name="uni0302" unicode="&#x302;" 
d="M-50 635v-80l-287 164l-287 -164v80l287 186z" />
    <glyph glyph-name="tildecomb" unicode="&#x303;" 
d="M-219.5 583.5q-19.5 11.5 -40.5 32.5q-15 14 -25.5 21t-22.5 7q-28 0 -44.5 -18t-17.5 -53h-61q1 58 35 94t88 36q23 0 39.5 -10t37.5 -30q19 -17 31 -24.5t27 -7.5q29 0 45.5 17.5t17.5 53.5h60q-1 -59 -35 -94.5t-88 -35.5q-27 0 -46.5 11.5z" />
    <glyph glyph-name="uni0304" unicode="&#x304;" 
d="M-582 700h532v-54h-532v54z" />
    <glyph glyph-name="uni0306" unicode="&#x306;" 
d="M-372 569.5q-48 18.5 -76 52.5t-28 78h105q1 -40 30.5 -60.5t77.5 -20.5q49 0 78 20.5t32 60.5h103q-1 -69 -56.5 -109t-156.5 -40q-61 0 -109 18.5z" />
    <glyph glyph-name="uni0307" unicode="&#x307;" 
d="M-191.5 561.5q-27.5 23.5 -27.5 61.5t27.5 61.5t71.5 23.5q47 0 73 -23t26 -62t-26 -62t-73 -23q-44 0 -71.5 23.5z" />
    <glyph glyph-name="uni0308" unicode="&#x308;" 
d="M-510.5 561.5q-27.5 23.5 -27.5 61.5t27.5 61.5t71.5 23.5q47 0 73 -23t26 -62t-26 -62t-73 -23q-44 0 -71.5 23.5zM-220.5 561.5q-27.5 23.5 -27.5 61.5t27.5 61.5t71.5 23.5q47 0 73 -23t26 -62t-26 -62t-73 -23q-44 0 -71.5 23.5z" />
    <glyph glyph-name="uni030A" unicode="&#x30a;" 
d="M-429 551q-58 13 -92.5 36.5t-34.5 53.5t34.5 53.5t92.5 36.5t126 13q74 0 131.5 -13t89.5 -36t32 -54t-32 -54t-89.5 -36t-131.5 -13q-68 0 -126 13zM-237.5 602.5q25.5 13.5 25.5 37.5q0 26 -24.5 39.5t-66.5 13.5q-40 0 -64.5 -13.5t-24.5 -38.5t24.5 -38.5
t64.5 -13.5t65.5 13.5z" />
    <glyph glyph-name="uni030B" unicode="&#x30b;" 
d="M-587 624l287 186v-102l-287 -164v80zM-337 624l287 186v-102l-287 -164v80z" />
    <glyph glyph-name="uni030C" unicode="&#x30c;" 
d="M-50 821v-80l-287 -186l-287 186v80l287 -164z" />
    <glyph glyph-name="uni0312" unicode="&#x312;" 
d="M-113 528h-147l113 270h97z" />
    <glyph glyph-name="uni0326" unicode="&#x326;" 
d="M-205 -71h148l-113 -270h-98z" />
    <glyph glyph-name="uni0327" unicode="&#x327;" 
d="M-130.5 -106q80.5 -28 80.5 -71q0 -31 -53.5 -56t-150 -39.5t-222.5 -14.5v55q255 1 255 55q0 26 -61 41t-194 17v53l58 101h118l-54 -105q143 -8 223.5 -36z" />
    <glyph glyph-name="uni0328" unicode="&#x328;" 
d="M-281.5 -213q-50.5 17 -81 48t-30.5 72q0 58 66 124q30 30 57 30q16 0 27.5 -10t11.5 -22q0 -10 -7 -17q-41 -38 -41 -68q0 -32 39 -51t99 -19q41 0 84 9l-3 -97q-52 -16 -112 -16q-59 0 -109.5 17z" />
    <glyph glyph-name="uni0335" unicode="&#x335;" 
d="M-550 402h500v-143h-500v143z" />
    <glyph glyph-name="uni0336" unicode="&#x336;" 
d="M-1050 402h1000v-143h-1000v143z" />
    <glyph glyph-name="uni0337" unicode="&#x337;" 
d="M-206 500h156l-594 -500h-156z" />
    <glyph glyph-name="uni0338" unicode="&#x338;" 
d="M-206 700h156l-832 -700h-156z" />
    <glyph glyph-name="uni0401" unicode="&#x401;" horiz-adv-x="840" 
d="M84 700h682v-146h-510v-130h501v-137h-501v-141h510v-146h-682v700zM211.5 761.5q-27.5 23.5 -27.5 61.5t27.5 61.5t71.5 23.5q47 0 73 -23t26 -62t-26 -62t-73 -23q-44 0 -71.5 23.5zM501.5 761.5q-27.5 23.5 -27.5 61.5t27.5 61.5t71.5 23.5q47 0 73 -23t26 -62
t-26 -62t-73 -23q-44 0 -71.5 23.5z" />
    <glyph glyph-name="uni0410" unicode="&#x410;" horiz-adv-x="1098" 
d="M452 700h194l423 -700h-202l-76 133h-485l-76 -133h-201zM709 279l-160 280l-160 -280h320z" />
    <glyph glyph-name="uni0411" unicode="&#x411;" horiz-adv-x="874" 
d="M761 372q65 -55 65 -158q0 -59 -29 -108t-82.5 -77.5t-123.5 -28.5h-507v700h649v-146h-477v-127h335q105 0 170 -55zM632.5 157.5q21.5 17.5 21.5 56.5t-21.5 56.5t-66.5 17.5h-311v-148h311q45 0 66.5 17.5z" />
    <glyph glyph-name="uni0412" unicode="&#x412;" horiz-adv-x="926" 
d="M84 700h527q106 0 165.5 -51t59.5 -134q0 -75 -51 -114.5t-143 -44.5q101 -2 159 -46t58 -124q0 -55 -28 -97.5t-79.5 -65.5t-118.5 -23h-549v700zM576 420q43 0 65.5 15.5t22.5 50.5q0 68 -88 68h-321l1 -134h320zM598 147q88 0 88 71q0 37 -23 55t-65 18h-342l1 -144
h341z" />
    <glyph glyph-name="uni0413" unicode="&#x413;" horiz-adv-x="737" 
d="M84 700h643v-146h-471v-554h-172v700z" />
    <glyph glyph-name="uni0414" unicode="&#x414;" horiz-adv-x="927" 
d="M12 102q50 0 79 20.5t32 60.5l46 517h629v-598h109v-205h-172v103h-551v-103h-172v205zM626 146v408h-297l-32 -362q-3 -29 -14 -46h343z" />
    <glyph glyph-name="uni0415" unicode="&#x415;" horiz-adv-x="840" 
d="M84 700h682v-146h-510v-130h501v-137h-501v-141h510v-146h-682v700z" />
    <glyph glyph-name="uni0416" unicode="&#x416;" horiz-adv-x="1411" 
d="M442 353l-426 347h243l360 -315v315h172v-315l361 315h242l-426 -347l433 -353h-249l-361 315v-315h-172v315l-360 -315h-249z" />
    <glyph glyph-name="uni0417" unicode="&#x417;" horiz-adv-x="806" 
d="M191.5 -3q-97.5 13 -157.5 39v153q50 -23 151.5 -41t178.5 -18q259 0 259 67q0 32 -39.5 51t-132 29t-255.5 13v122q172 7 258.5 16.5t117.5 24.5t31 40q0 40 -67.5 59t-172.5 19q-74 0 -175.5 -18.5t-153.5 -41.5v154q59 24 159 38t180 14q188 0 290.5 -42t102.5 -150
q0 -101 -82.5 -136.5t-217.5 -35.5q320 0 320 -170q0 -109 -102 -154t-295 -45q-100 0 -197.5 13z" />
    <glyph glyph-name="uni0418" unicode="&#x418;" horiz-adv-x="974" 
d="M719 0v445l-490 -445h-145v700h172v-445l491 445h144v-700h-172z" />
    <glyph glyph-name="uni0419" unicode="&#x419;" horiz-adv-x="974" 
d="M376 769.5q-48 18.5 -76 52.5t-28 78h105q1 -40 30.5 -60.5t77.5 -20.5q49 0 78 20.5t32 60.5h103q-1 -69 -56.5 -109t-156.5 -40q-61 0 -109 18.5zM719 0v445l-490 -445h-145v700h172v-445l491 445h144v-700h-172z" />
    <glyph glyph-name="uni041A" unicode="&#x41a;" horiz-adv-x="879" 
d="M84 700h172v-314l360 314h243l-426 -347l432 -353h-249l-360 314v-314h-172v700z" />
    <glyph glyph-name="uni041B" unicode="&#x41b;" horiz-adv-x="888" 
d="M10 -15l7 80l15 -1q41 0 64.5 22t26.5 60l47 554h628v-700h-172v554h-296l-33 -399q-7 -81 -74 -126t-176 -45q-24 0 -37 1z" />
    <glyph glyph-name="uni041C" unicode="&#x41c;" horiz-adv-x="1050" 
d="M84 700h153l288 -454l287 454h154v-700h-172v404l-252 -404h-34l-252 403v-403h-172v700z" />
    <glyph glyph-name="uni041D" unicode="&#x41d;" horiz-adv-x="953" 
d="M84 700h172v-263h441v263h172v-700h-172v291h-441v-291h-172v700z" />
    <glyph glyph-name="uni041E" unicode="&#x41e;" horiz-adv-x="969" 
d="M249 29.5q-100 45.5 -153.5 128.5t-53.5 192t53.5 192t153.5 128.5t235 45.5t235.5 -45.5t154 -128t53.5 -192.5t-53.5 -192.5t-154 -128t-235.5 -45.5t-235 45.5zM683 187.5q72 57.5 72 162.5t-72 162.5t-199 57.5t-198.5 -57.5t-71.5 -162.5t72 -162.5t198 -57.5
q127 0 199 57.5z" />
    <glyph glyph-name="uni041F" unicode="&#x41f;" horiz-adv-x="825" 
d="M84 700h657v-700h-172v554h-313v-554h-172v700z" />
    <glyph glyph-name="uni0420" unicode="&#x420;" horiz-adv-x="874" 
d="M84 700h507q70 0 123.5 -28.5t82.5 -77.5t29 -108q0 -103 -65 -158t-170 -55h-335v-273h-172v700zM566 413q46 0 67 17t21 56t-21.5 57t-66.5 18h-311v-148h311z" />
    <glyph glyph-name="uni0421" unicode="&#x421;" horiz-adv-x="934" 
d="M249 29.5q-96 45.5 -148.5 128.5t-52.5 192t52.5 192t148.5 128.5t221 45.5t221 -40t148.5 -113t52.5 -168h-174q-6 84 -73 129.5t-175 45.5q-115 0 -182.5 -57.5t-67.5 -162.5q0 -104 68 -162t182 -58q109 0 176 45.5t72 129.5h174q0 -95 -52.5 -168t-148.5 -113
t-221 -40t-221 45.5z" />
    <glyph glyph-name="uni0422" unicode="&#x422;" horiz-adv-x="881" 
d="M354 554h-325v146h823v-146h-326v-554h-172v554z" />
    <glyph glyph-name="uni0423" unicode="&#x423;" horiz-adv-x="789" 
d="M310 205l-285 494h195l178 -324l177 324h189l-376 -700h-189z" />
    <glyph glyph-name="uni0424" unicode="&#x424;" horiz-adv-x="718" 
d="M606.5 178.5q-69.5 -70.5 -186.5 -85.5v-93h-122v93q-117 15 -186.5 85.5t-69.5 176.5t69.5 176.5t186.5 85.5v83h122v-83q117 -15 186.5 -85.5t69.5 -176.5t-69.5 -176.5zM229 279q25 -32 69 -45v242q-44 -13 -69 -45t-25 -76t25 -76zM489 279q25 32 25 76t-25 76
t-69 45v-242q44 13 69 45z" />
    <glyph glyph-name="uni0425" unicode="&#x425;" horiz-adv-x="943" 
d="M353 353l-312 347h232l200 -222l200 222h232l-316 -353l309 -347h-229l-201 223l-201 -223h-229z" />
    <glyph glyph-name="uni0426" unicode="&#x426;" horiz-adv-x="823" 
d="M635 0h-545v700h172v-554h251v554h172v-554h122v-249h-172v103z" />
    <glyph glyph-name="uni0427" unicode="&#x427;" horiz-adv-x="734" 
d="M676 0h-186l20 406h-9q-18 -113 -76.5 -167.5t-171.5 -54.5q-74 1 -118 28t-65.5 91.5t-21.5 179.5v217h172v-200q0 -70 13 -110.5t40 -58t73 -17.5q47 0 83 29.5t55.5 82.5t19.5 121v153h172v-700z" />
    <glyph glyph-name="uni0428" unicode="&#x428;" horiz-adv-x="1141" 
d="M84 700h172v-554h228v554h172v-554h229v554h172v-700h-973v700z" />
    <glyph glyph-name="uni0429" unicode="&#x429;" horiz-adv-x="1201" 
d="M1013 0h-923v700h172v-554h229v554h172v-554h228v554h172v-554h122v-249h-172v103z" />
    <glyph glyph-name="uni042A" unicode="&#x42a;" horiz-adv-x="874" 
d="M761 372q65 -55 65 -158q0 -59 -29 -108t-82.5 -77.5t-123.5 -28.5h-507v598h-113v102h285v-273h335q105 0 170 -55zM632.5 157.5q21.5 17.5 21.5 56.5t-21.5 56.5t-66.5 17.5h-311v-148h311q45 0 66.5 17.5z" />
    <glyph glyph-name="uni042B" unicode="&#x42b;" horiz-adv-x="1219" 
d="M256 700v-273h335q105 0 170 -55t65 -158q0 -59 -29 -108t-82.5 -77.5t-123.5 -28.5h-507v700h172zM963 700h172v-700h-172v700zM255 140h311q45 0 66.5 17.5t21.5 56.5t-21.5 56.5t-66.5 17.5h-311v-148z" />
    <glyph glyph-name="uni042C" unicode="&#x42c;" horiz-adv-x="874" 
d="M256 700v-273h335q105 0 170 -55t65 -158q0 -59 -29 -108t-82.5 -77.5t-123.5 -28.5h-507v700h172zM255 140h311q45 0 66.5 17.5t21.5 56.5t-21.5 56.5t-66.5 17.5h-311v-148z" />
    <glyph glyph-name="uni042D" unicode="&#x42d;" horiz-adv-x="928" 
d="M679 670.5q96 -45.5 148.5 -128.5t52.5 -192t-52.5 -192t-148.5 -128.5t-221 -45.5t-221 40t-148.5 113t-52.5 168h174q5 -84 72 -129.5t176 -45.5q91 0 154 38t85 108h-316v146h317q-22 71 -85 109.5t-155 38.5q-108 0 -175 -45.5t-73 -129.5h-174q0 95 52.5 168
t148.5 113t221 40t221 -45.5z" />
    <glyph glyph-name="uni042E" unicode="&#x42e;" horiz-adv-x="1344" 
d="M1094.5 670.5q100.5 -45.5 154 -128t53.5 -192.5t-53.5 -192.5t-154 -128t-235.5 -45.5q-119 0 -211 35.5t-149.5 101.5t-74.5 155h-162v-276h-172v700h172v-278h161q17 90 74.5 156t150 102t211.5 36q135 0 235.5 -45.5zM1058 187.5q72 57.5 72 162.5t-72 162.5
t-199 57.5t-198.5 -57.5t-71.5 -162.5t72 -162.5t198 -57.5q127 0 199 57.5z" />
    <glyph glyph-name="uni042F" unicode="&#x42f;" horiz-adv-x="941" 
d="M685 0l1 290h-181q-59 0 -96.5 -23.5t-74 -78t-111.5 -188.5h-205q63 125 110 193.5t104.5 104.5t140.5 41h-73q-103 0 -164 46.5t-61 129.5t59.5 134t165.5 51h557v-700h-172zM687 561h-352q-45 0 -66.5 -17t-21.5 -54q0 -33 21.5 -49.5t66.5 -16.5h351z" />
    <glyph glyph-name="uni0430" unicode="&#x430;" horiz-adv-x="687" 
d="M97.5 11.5q-55.5 27.5 -55.5 104.5q0 88 114.5 126.5t309.5 52.5q0 40 -29.5 58.5t-88.5 18.5q-56 0 -123 -15t-120 -38v143q65 24 142 39t141 15q250 0 250 -234v-282h-165l22 169h-9q-24 -97 -84.5 -141t-173.5 -44q-75 0 -130.5 27.5zM417.5 132.5
q48.5 30.5 47.5 87.5q-117 -8 -181 -22t-64 -51q0 -21 23 -33t61 -12q65 0 113.5 30.5z" />
    <glyph glyph-name="uni0431" unicode="&#x431;" horiz-adv-x="860" 
d="M152 82q-110 94 -110 280q0 114 55 193t154 119.5t230 40.5h43q97 0 145.5 3t94.5 13v-159q-34 -10 -92 -10q-28 0 -51 1t-39 2q-68 4 -105 4q-126 0 -194.5 -57t-68.5 -163q50 47 123 79t162 32q159 0 239 -65t80 -173q0 -71 -43 -123.5t-125.5 -81.5t-197.5 -29
q-190 0 -300 94zM592 158q53 24 53 75q0 49 -43.5 75t-127.5 26q-63 0 -133 -21t-111 -53q45 -126 213 -126q96 0 149 24z" />
    <glyph glyph-name="uni0432" unicode="&#x432;" horiz-adv-x="797" 
d="M90 500h425q119 0 172 -32t53 -103q0 -53 -44 -79t-140 -30q108 -2 157.5 -30.5t49.5 -89.5q0 -71 -54 -103.5t-172 -32.5h-447v500zM430 295q73 0 105.5 11.5t32.5 37.5q0 28 -32.5 41t-105.5 13h-169l1 -103h168zM452 103q73 0 105.5 14t32.5 45q0 54 -138 54h-190
l1 -113h189z" />
    <glyph glyph-name="uni0433" unicode="&#x433;" horiz-adv-x="590" 
d="M90 500h473v-146h-301v-354h-172v500z" />
    <glyph glyph-name="uni0434" unicode="&#x434;" horiz-adv-x="867" 
d="M12 102q50 0 78.5 20.5t32.5 60.5l29 330h586v-411h109v-205h-172v103h-491v-103h-172v205zM566 146v221h-254l-15 -175q-3 -29 -14 -46h283z" />
    <glyph glyph-name="uni0435" unicode="&#x435;" horiz-adv-x="686" 
d="M185 17q-68 33 -105.5 93.5t-37.5 139.5t37.5 139.5t105.5 93.5t158 33q89 0 156.5 -28.5t105.5 -80t39 -118.5v-82h-431q12 -47 55.5 -69.5t124.5 -22.5q70 0 113.5 11.5t92.5 33.5l23 10v-137q-71 -27 -128 -38t-151 -11q-90 0 -158 33zM479 283q-3 46 -40 71.5
t-96 25.5q-54 0 -90.5 -27.5t-43.5 -75.5z" />
    <glyph glyph-name="uni0436" unicode="&#x436;" horiz-adv-x="1231" 
d="M407 251l-387 249h234l275 -186v186h172v-186l276 186h234l-388 -249l398 -251h-244l-276 186v-186h-172v186l-275 -186h-244z" />
    <glyph glyph-name="uni0437" unicode="&#x437;" horiz-adv-x="818" 
d="M192 -4.5q-91 10.5 -152 33.5v146q48 -20 140.5 -32t175.5 -12q132 0 186 8.5t54 27.5q0 16 -43 25.5t-149.5 17t-325.5 17.5v50q210 8 312.5 14.5t144 15.5t41.5 25q0 20 -49.5 28.5t-171.5 8.5q-79 0 -172.5 -12.5t-142.5 -32.5v146q59 22 152 33.5t173 11.5
q182 0 287.5 -28t105.5 -101q0 -83 -113.5 -105.5t-216.5 -22.5v-9h24q79 -1 145.5 -7.5t123.5 -33t57 -80.5q0 -76 -103.5 -109.5t-289.5 -33.5q-102 0 -193 10.5z" />
    <glyph glyph-name="uni0438" unicode="&#x438;" horiz-adv-x="898" 
d="M90 500h172v-310l402 310h144v-500h-172v312l-401 -312h-145v500z" />
    <glyph glyph-name="uni0439" unicode="&#x439;" horiz-adv-x="898" 
d="M345 569.5q-48 18.5 -76 52.5t-28 78h105q1 -40 30.5 -60.5t77.5 -20.5q49 0 78 20.5t32 60.5h103q-1 -69 -56.5 -109t-156.5 -40q-61 0 -109 18.5zM90 500h172v-310l402 310h144v-500h-172v312l-401 -312h-145v500z" />
    <glyph glyph-name="uni043A" unicode="&#x43a;" horiz-adv-x="773" 
d="M84 500h172v-186l275 186h234l-387 -249l397 -251h-244l-275 186v-186h-172v500z" />
    <glyph glyph-name="uni043B" unicode="&#x43b;" horiz-adv-x="748" 
d="M17 -12l-3 80q100 0 106 81l30 351h535v-500h-172v354h-203l-16 -196q-7 -82 -70.5 -126.5t-170.5 -44.5q-23 0 -36 1z" />
    <glyph glyph-name="uni043C" unicode="&#x43c;" horiz-adv-x="1012" 
d="M90 500h166l250 -299l250 299h166v-500h-172v269l-233 -269h-22l-233 270v-270h-172v500z" />
    <glyph glyph-name="uni043D" unicode="&#x43d;" horiz-adv-x="855" 
d="M90 500h172v-166h331v166h172v-500h-172v188h-331v-188h-172v500z" />
    <glyph glyph-name="uni043E" unicode="&#x43e;" horiz-adv-x="718" 
d="M192.5 17q-71.5 33 -111 93.5t-39.5 139.5t39.5 139.5t111 93.5t166.5 33t166.5 -33t111 -93.5t39.5 -139.5t-39.5 -139.5t-111 -93.5t-166.5 -33t-166.5 33zM471.5 156q42.5 36 42.5 94q0 59 -42.5 94.5t-112.5 35.5t-112.5 -35.5t-42.5 -94.5q0 -58 42.5 -94t112.5 -36
t112.5 36z" />
    <glyph glyph-name="uni043F" unicode="&#x43f;" horiz-adv-x="783" 
d="M84 500h615v-500h-172v348h-271v-348h-172v500z" />
    <glyph glyph-name="uni0440" unicode="&#x440;" horiz-adv-x="788" 
d="M618.5 482.5q60.5 -33.5 94 -95t33.5 -141.5q0 -77 -33 -136.5t-91.5 -92.5t-132.5 -33q-93 0 -162 47.5t-86 130.5h-4v-362h-172v700h176l-22 -163h12q17 80 86 129.5t163 49.5q78 0 138.5 -33.5zM308 345q-47 -35 -47 -97q0 -61 47 -94.5t114 -33.5t112.5 33.5
t45.5 94.5q0 63 -45.5 97.5t-112.5 34.5t-114 -35z" />
    <glyph glyph-name="uni0441" unicode="&#x441;" horiz-adv-x="637" 
d="M196.5 17q-72.5 33 -113.5 93.5t-41 139.5q0 80 39.5 140t112 93t167.5 33q66 0 119 -12t115 -40v-146q-52 30 -105.5 46t-117.5 16q-78 0 -121 -35.5t-43 -94.5t45.5 -94.5t125.5 -35.5q66 0 117.5 15t98.5 45v-143q-65 -29 -115 -41t-120 -12q-91 0 -163.5 33z" />
    <glyph glyph-name="uni0442" unicode="&#x442;" horiz-adv-x="721" 
d="M275 354h-246v146h663v-146h-245v-354h-172v354z" />
    <glyph glyph-name="uni0443" unicode="&#x443;" horiz-adv-x="789" 
d="M310 6l-285 494h195l178 -324l177 324h189l-376 -700h-189z" />
    <glyph glyph-name="uni0444" unicode="&#x444;" horiz-adv-x="718" 
d="M606.5 73.5q-69.5 -70.5 -186.5 -85.5v-84h-122v84q-117 15 -186.5 85.5t-69.5 176.5t69.5 176.5t186.5 85.5v92h122v-92q117 -15 186.5 -85.5t69.5 -176.5t-69.5 -176.5zM229 174q25 -32 69 -45v242q-44 -13 -69 -45t-25 -76t25 -76zM489 174q25 32 25 76t-25 76t-69 45
v-242q44 13 69 45z" />
    <glyph glyph-name="uni0445" unicode="&#x445;" horiz-adv-x="814" 
d="M290 251l-264 249h219l162 -153l163 153h219l-273 -257l257 -243h-218l-156 147l-156 -147h-218z" />
    <glyph glyph-name="uni0446" unicode="&#x446;" horiz-adv-x="796" 
d="M608 0h-518v500h172v-354h224v354h172v-354h122v-249h-172v103z" />
    <glyph glyph-name="uni0447" unicode="&#x447;" horiz-adv-x="727" 
d="M500 325h-5q-18 -114 -76.5 -168t-171.5 -54q-74 1 -118 28t-65.5 91.5t-21.5 179.5v98h172v-81q0 -70 13 -111t40 -58.5t73 -17.5q47 0 83 29.5t55.5 83t19.5 121.5v34h172v-500h-186z" />
    <glyph glyph-name="uni0448" unicode="&#x448;" horiz-adv-x="1121" 
d="M90 500h172v-354h212v354h172v-354h213v354h172v-500h-941v500z" />
    <glyph glyph-name="uni0449" unicode="&#x449;" horiz-adv-x="1169" 
d="M981 0h-891v500h172v-354h212v354h172v-354h213v354h172v-354h122v-249h-172v103z" />
    <glyph glyph-name="uni044A" unicode="&#x44a;" horiz-adv-x="840" 
d="M84 554h-114v146h286v-273h295q105 0 170 -55t65 -158q0 -59 -29 -108t-82.5 -77.5t-123.5 -28.5h-467v554zM526 140q45 0 66.5 17.5t21.5 56.5t-21.5 56.5t-66.5 17.5h-270v-148h270z" />
    <glyph glyph-name="uni044B" unicode="&#x44b;" horiz-adv-x="1191" 
d="M90 700h172v-273h296q105 0 170 -55t65 -158q0 -59 -29 -108t-82.5 -77.5t-123.5 -28.5h-468v700zM929 700h172v-700h-172v700zM533 140q45 0 66.5 17.5t21.5 56.5t-21.5 56.5t-66.5 17.5h-271v-148h271z" />
    <glyph glyph-name="uni044C" unicode="&#x44c;" horiz-adv-x="840" 
d="M84 700h172v-273h295q105 0 170 -55t65 -158q0 -59 -29 -108t-82.5 -77.5t-123.5 -28.5h-467v700zM526 140q45 0 66.5 17.5t21.5 56.5t-21.5 56.5t-66.5 17.5h-270v-148h270z" />
    <glyph glyph-name="uni044D" unicode="&#x44d;" horiz-adv-x="617" 
d="M423.5 483q72.5 -33 112 -93t39.5 -140q0 -79 -41 -139.5t-113.5 -93.5t-164.5 -33q-70 0 -119 12t-115 41v143q47 -30 98.5 -45t116.5 -15q61 0 102.5 21t58.5 58h-226v102h227q-16 37 -56 58t-99 21q-64 0 -117.5 -16t-104.5 -46v146q62 28 114.5 40t118.5 12
q96 0 168.5 -33z" />
    <glyph glyph-name="uni044E" unicode="&#x44e;" horiz-adv-x="995" 
d="M785.5 483q71.5 -33 111 -93.5t39.5 -139.5t-39.5 -139.5t-111 -93.5t-166.5 -33q-119 0 -201 52t-106 141h-75v-177h-172v500h172v-177h75q24 89 106 141t201 52q95 0 166.5 -33zM731.5 156q42.5 36 42.5 94t-42.5 94t-112.5 36t-112.5 -35.5t-42.5 -94.5
q0 -58 42.5 -94t112.5 -36t112.5 36z" />
    <glyph glyph-name="uni044F" unicode="&#x44f;" horiz-adv-x="811" 
d="M137 117.5q46 40.5 98 59t128 22.5h-57q-119 0 -172 35.5t-53 116.5q0 76 53 109t172 33h415v-493h-172l1 162h-75q-45 0 -74 -9.5t-67.5 -43t-102.5 -109.5h-201q61 77 107 117.5zM550 278l1 100h-160q-53 0 -81.5 -3t-42.5 -13t-14 -30q0 -23 14 -34.5t42.5 -15.5
t81.5 -4h159z" />
    <glyph glyph-name="uni0451" unicode="&#x451;" horiz-adv-x="686" 
d="M185 17q-68 33 -105.5 93.5t-37.5 139.5t37.5 139.5t105.5 93.5t158 33q89 0 156.5 -28.5t105.5 -80t39 -118.5v-82h-431q12 -47 55.5 -69.5t124.5 -22.5q70 0 113.5 11.5t92.5 33.5l23 10v-137q-71 -27 -128 -38t-151 -11q-90 0 -158 33zM479 283q-3 46 -40 71.5
t-96 25.5q-54 0 -90.5 -27.5t-43.5 -75.5zM130.5 561.5q-27.5 23.5 -27.5 61.5t27.5 61.5t71.5 23.5q47 0 73 -23t26 -62t-26 -62t-73 -23q-44 0 -71.5 23.5zM420.5 561.5q-27.5 23.5 -27.5 61.5t27.5 61.5t71.5 23.5q47 0 73 -23t26 -62t-26 -62t-73 -23q-44 0 -71.5 23.5z
" />
    <glyph glyph-name="Wgrave" unicode="&#x1e80;" horiz-adv-x="1274" 
d="M36 700h192l166 -466l151 466h184l151 -466l166 466h191l-259 -700h-200l-141 421l-141 -421h-201zM356 883v127l287 -161v-105z" />
    <glyph glyph-name="wgrave" unicode="&#x1e81;" horiz-adv-x="1099" 
d="M25 500h175l138 -324l129 324h154l139 -328l138 328h176l-214 -500h-204l-110 269l-104 -269h-203zM263 683v127l287 -161v-105z" />
    <glyph glyph-name="Wacute" unicode="&#x1e82;" horiz-adv-x="1274" 
d="M36 700h192l166 -466l151 466h184l151 -466l166 466h191l-259 -700h-200l-141 421l-141 -421h-201zM613 849l287 161v-127l-287 -139v105z" />
    <glyph glyph-name="wacute" unicode="&#x1e83;" horiz-adv-x="1099" 
d="M25 500h175l138 -324l129 324h154l139 -328l138 328h176l-214 -500h-204l-110 269l-104 -269h-203zM520 649l287 161v-127l-287 -139v105z" />
    <glyph glyph-name="Wdieresis" unicode="&#x1e84;" horiz-adv-x="1274" 
d="M36 700h192l166 -466l151 466h184l151 -466l166 466h191l-259 -700h-200l-141 421l-141 -421h-201zM424.5 761.5q-27.5 23.5 -27.5 61.5t27.5 61.5t71.5 23.5q47 0 73 -23t26 -62t-26 -62t-73 -23q-44 0 -71.5 23.5zM714.5 761.5q-27.5 23.5 -27.5 61.5t27.5 61.5
t71.5 23.5q47 0 73 -23t26 -62t-26 -62t-73 -23q-44 0 -71.5 23.5z" />
    <glyph glyph-name="wdieresis" unicode="&#x1e85;" horiz-adv-x="1099" 
d="M25 500h175l138 -324l129 324h154l139 -328l138 328h176l-214 -500h-204l-110 269l-104 -269h-203zM324.5 561.5q-27.5 23.5 -27.5 61.5t27.5 61.5t71.5 23.5q47 0 73 -23t26 -62t-26 -62t-73 -23q-44 0 -71.5 23.5zM614.5 561.5q-27.5 23.5 -27.5 61.5t27.5 61.5
t71.5 23.5q47 0 73 -23t26 -62t-26 -62t-73 -23q-44 0 -71.5 23.5z" />
    <glyph glyph-name="Ygrave" unicode="&#x1ef2;" horiz-adv-x="1003" 
d="M415 226l-390 474h212l264 -330l265 330h212l-391 -473v-227h-172v226zM220 883v127l287 -161v-105z" />
    <glyph glyph-name="ygrave" unicode="&#x1ef3;" horiz-adv-x="789" 
d="M310 6l-285 494h195l178 -324l177 324h189l-376 -700h-189zM125 683v127l287 -161v-105z" />
    <glyph glyph-name="endash" unicode="&#x2013;" horiz-adv-x="560" 
d="M30 402h500v-143h-500v143z" />
    <glyph glyph-name="emdash" unicode="&#x2014;" horiz-adv-x="1060" 
d="M30 402h1000v-143h-1000v143z" />
    <glyph glyph-name="quoteleft" unicode="&#x2018;" horiz-adv-x="293" 
d="M200 430h-147l113 270h97z" />
    <glyph glyph-name="quoteright" unicode="&#x2019;" horiz-adv-x="293" 
d="M93 700h148l-113 -270h-98z" />
    <glyph glyph-name="quotesinglbase" unicode="&#x201a;" horiz-adv-x="293" 
d="M93 101h148l-113 -270h-98z" />
    <glyph glyph-name="quotedblleft" unicode="&#x201c;" horiz-adv-x="515" 
d="M200 430h-147l113 270h97zM422 430h-147l113 270h97z" />
    <glyph glyph-name="quotedblright" unicode="&#x201d;" horiz-adv-x="515" 
d="M93 700h148l-113 -270h-98zM315 700h148l-113 -270h-98z" />
    <glyph glyph-name="quotedblbase" unicode="&#x201e;" horiz-adv-x="515" 
d="M93 101h148l-113 -270h-98zM315 101h148l-113 -270h-98z" />
    <glyph glyph-name="dagger" unicode="&#x2020;" horiz-adv-x="580" 
d="M204 356h-174v143h174v221h172v-221h174v-143h-174v-526h-172v526z" />
    <glyph glyph-name="daggerdbl" unicode="&#x2021;" horiz-adv-x="600" 
d="M204 0h-174v143h174v213h-174v143h174v221h172v-221h174v-143h-174v-213h174v-143h-174v-170h-172v170z" />
    <glyph glyph-name="bullet" unicode="&#x2022;" horiz-adv-x="608" 
d="M170 97.5q-57 29.5 -89 84t-32 127.5t32 127.5t89 84t132 29.5t133 -29.5t90.5 -84t32.5 -127.5q0 -111 -69 -176t-187 -65q-75 0 -132 29.5z" />
    <glyph glyph-name="ellipsis" unicode="&#x2026;" horiz-adv-x="905" 
d="M64.5 12q-26.5 25 -26.5 68q0 42 26.5 67t70.5 25q43 0 70.5 -25t27.5 -67q0 -43 -26.5 -68t-71.5 -25q-44 0 -70.5 25zM364.5 12q-26.5 25 -26.5 68q0 42 26.5 67t70.5 25q43 0 70.5 -25t27.5 -67q0 -43 -26.5 -68t-71.5 -25q-44 0 -70.5 25zM664.5 12
q-26.5 25 -26.5 68q0 42 26.5 67t70.5 25q43 0 70.5 -25t27.5 -67q0 -43 -26.5 -68t-71.5 -25q-44 0 -70.5 25z" />
    <glyph glyph-name="perthousand" unicode="&#x2030;" horiz-adv-x="1519" 
d="M155 476q-48 16 -76.5 44.5t-28.5 64.5t28.5 64.5t76.5 44.5t104 16q93 0 151 -34.5t58 -90.5t-58 -90.5t-151 -34.5q-56 0 -104 16zM806 700h133l-695 -700h-134zM324 533q25 18 25 50q0 34 -24.5 53.5t-65.5 19.5q-40 0 -64.5 -19t-24.5 -52t24.5 -51.5t64.5 -18.5
t65 18zM676 6q-48 16 -76.5 44.5t-28.5 64.5t28.5 64.5t76.5 44.5t104 16q93 0 151 -34.5t58 -90.5t-58 -90.5t-151 -34.5q-56 0 -104 16zM1156 6q-48 16 -76.5 44.5t-28.5 64.5t28.5 64.5t76.5 44.5t104 16q93 0 151 -34.5t58 -90.5t-58 -90.5t-151 -34.5q-56 0 -104 16z
M845.5 62.5q24.5 18.5 24.5 50.5q0 34 -24.5 53t-65.5 19q-39 0 -64 -18.5t-25 -51.5t25 -52t64 -19q41 0 65.5 18.5zM1325 62.5q25 18.5 25 50.5q0 34 -24.5 53t-65.5 19q-40 0 -64.5 -18.5t-24.5 -51.5t24.5 -52t64.5 -19t65 18.5z" />
    <glyph glyph-name="guilsinglleft" unicode="&#x2039;" horiz-adv-x="476" 
d="M232 250l214 -250h-210l-206 250l206 250h210z" />
    <glyph glyph-name="guilsinglright" unicode="&#x203a;" horiz-adv-x="476" 
d="M446 250l-206 -250h-210l214 250l-214 250h210z" />
    <glyph glyph-name="fraction" unicode="&#x2044;" horiz-adv-x="1068" 
d="M872 800h156l-832 -900h-156z" />
    <glyph glyph-name="Euro" unicode="&#x20ac;" horiz-adv-x="1017" 
d="M739 175.5q67 45.5 72 129.5h174q0 -95 -52.5 -168t-148.5 -113t-221 -40q-151 0 -257.5 65t-145.5 179h-137v103h118v19q0 14 1 21h-119v103h138q39 113 145.5 177.5t256.5 64.5q125 0 221 -40t148.5 -113t52.5 -168h-174q-6 84 -73 129.5t-175 45.5q-74 0 -129.5 -24.5
t-86.5 -71.5h306v-103h-339q-1 -7 -1 -21q0 -13 1 -19h339v-103h-307q31 -48 86.5 -73t130.5 -25q109 0 176 45.5z" />
    <glyph glyph-name="trademark" unicode="&#x2122;" horiz-adv-x="1308" 
d="M289 601h-222v99h562v-99h-223v-379h-117v379zM672 700h105l196 -310l197 310h105v-478h-118v276l-172 -276h-23l-172 275v-275h-118v478z" />
    <glyph glyph-name="oneeighth" unicode="&#x215b;" horiz-adv-x="1704" 
d="M1108 722h129l-688 -744h-129zM285 539l-235 -149v117l276 132h76v-478h-117v378zM1190 83q-74 36 -74 103q0 50 46 76.5t113 33.5q-61 10 -103 40.5t-42 80.5q0 62 68.5 96.5t187.5 34.5q114 0 185.5 -34t71.5 -97q0 -50 -42 -80.5t-103 -40.5q67 -7 112.5 -33.5
t45.5 -76.5q0 -64 -72 -101.5t-190 -37.5q-130 0 -204 36zM1494 359.5q30 14.5 30 39.5q0 28 -38.5 41t-99.5 13t-99.5 -13t-38.5 -41q0 -25 29 -39.5t109 -14.5q78 0 108 14.5zM1499.5 156q38.5 13 38.5 39t-33.5 39.5t-118.5 13.5t-118.5 -13.5t-33.5 -39.5q0 -52 152 -52
q75 0 113.5 13z" />
    <glyph glyph-name="threeeighths" unicode="&#x215c;" horiz-adv-x="1711" 
d="M1104 722h129l-688 -744h-129zM152.5 159q-67.5 9 -109.5 26v105q34 -16 103 -28t122 -12q177 0 177 45q0 22 -27 35t-90 20t-174 9v83q118 5 177 11.5t80 16.5t21 28q0 27 -46.5 40t-117.5 13q-51 0 -120.5 -12.5t-104.5 -28.5v105q40 17 108 26.5t123 9.5
q129 0 199 -28.5t70 -102.5q0 -70 -56 -94t-149 -24q218 0 218 -116q0 -74 -69 -105t-199 -31q-68 0 -135.5 9zM1197 80q-74 36 -74 103q0 50 46 76.5t113 33.5q-61 10 -103 40.5t-42 80.5q0 62 68.5 96.5t187.5 34.5q114 0 185.5 -34t71.5 -97q0 -50 -42 -80.5t-103 -40.5
q67 -7 112.5 -33.5t45.5 -76.5q0 -64 -72 -101.5t-190 -37.5q-130 0 -204 36zM1501 356.5q30 14.5 30 39.5q0 28 -38.5 41t-99.5 13t-99.5 -13t-38.5 -41q0 -25 29 -39.5t109 -14.5q78 0 108 14.5zM1506.5 153q38.5 13 38.5 39t-33.5 39.5t-118.5 13.5t-118.5 -13.5
t-33.5 -39.5q0 -52 152 -52q75 0 113.5 13z" />
    <glyph glyph-name="fiveeighths" unicode="&#x215d;" horiz-adv-x="1751" 
d="M1148 722h129l-688 -744h-129zM147 156q-61 9 -99 26v108q35 -18 98 -30.5t123 -12.5q74 0 115.5 17t41.5 50q0 34 -35.5 50t-109.5 16q-42 0 -89 -10.5t-86 -27.5l-53 49l29 245h440v-99h-353l-17 -95q32 13 78.5 19.5t97.5 6.5q96 0 155.5 -36.5t59.5 -120.5
q0 -78 -74.5 -121t-201.5 -43q-59 0 -120 9zM1237 80q-74 36 -74 103q0 50 46 76.5t113 33.5q-61 10 -103 40.5t-42 80.5q0 62 68.5 96.5t187.5 34.5q114 0 185.5 -34t71.5 -97q0 -50 -42 -80.5t-103 -40.5q67 -7 112.5 -33.5t45.5 -76.5q0 -64 -72 -101.5t-190 -37.5
q-130 0 -204 36zM1541 356.5q30 14.5 30 39.5q0 28 -38.5 41t-99.5 13t-99.5 -13t-38.5 -41q0 -25 29 -39.5t109 -14.5q78 0 108 14.5zM1546.5 153q38.5 13 38.5 39t-33.5 39.5t-118.5 13.5t-118.5 -13.5t-33.5 -39.5q0 -52 152 -52q75 0 113.5 13z" />
    <glyph glyph-name="seveneighths" unicode="&#x215e;" horiz-adv-x="1618" 
d="M1002 722h129l-688 -744h-129zM398 537h-370v99h546v-50l-326 -428h-159zM1104 80q-74 36 -74 103q0 50 46 76.5t113 33.5q-61 10 -103 40.5t-42 80.5q0 62 68.5 96.5t187.5 34.5q114 0 185.5 -34t71.5 -97q0 -50 -42 -80.5t-103 -40.5q67 -7 112.5 -33.5t45.5 -76.5
q0 -64 -72 -101.5t-190 -37.5q-130 0 -204 36zM1408 356.5q30 14.5 30 39.5q0 28 -38.5 41t-99.5 13t-99.5 -13t-38.5 -41q0 -25 29 -39.5t109 -14.5q78 0 108 14.5zM1413.5 153q38.5 13 38.5 39t-33.5 39.5t-118.5 13.5t-118.5 -13.5t-33.5 -39.5q0 -52 152 -52
q75 0 113.5 13z" />
    <glyph glyph-name="arrowleft" unicode="&#x2190;" horiz-adv-x="830" 
d="M264 255l150 -176l-178 1l-206 250l206 250h178l-151 -175h537v-150h-536z" />
    <glyph glyph-name="arrowup" unicode="&#x2191;" horiz-adv-x="561" 
d="M205 478l-175 -149l1 177l250 206l250 -206v-177l-175 150v-537h-151v536z" />
    <glyph glyph-name="arrowright" unicode="&#x2192;" horiz-adv-x="830" 
d="M566 406l-149 175l177 -1l206 -250l-206 -250h-177l150 175h-537v151h536z" />
    <glyph glyph-name="arrowdown" unicode="&#x2193;" horiz-adv-x="561" 
d="M356 163l175 150l-1 -178l-250 -206l-250 206v178l175 -151v537h151v-536z" />
    <glyph glyph-name="partialdiff" unicode="&#x2202;" horiz-adv-x="836" 
d="M198.5 17q-82.5 29 -125.5 81.5t-43 123.5q0 108 80 173t239 65q93 0 162 -36.5t115 -90.5q3 88 -32.5 156t-101 107.5t-150.5 42.5l1 116q129 0 233 -50t163.5 -139.5t59.5 -203.5q0 -186 -107 -280t-296 -94q-115 0 -197.5 29zM610 257q-41 37 -106.5 62.5t-129.5 25.5
q-80 0 -125.5 -29t-45.5 -79t56 -78.5t146 -28.5q161 0 205 127z" />
    <glyph glyph-name="emptyset" unicode="&#x2205;" horiz-adv-x="702" 
d="M626 404q50 -66 50 -154q0 -79 -39.5 -139.5t-111 -93.5t-166.5 -33q-104 0 -183 41l-127 -107l-76 80l118 99q-49 64 -49 153q0 79 39.5 139.5t111 93.5t166.5 33q106 0 181 -40l117 98l81 -76zM214 201l203 171q-27 8 -58 8q-70 0 -112.5 -35.5t-42.5 -94.5
q0 -29 10 -49zM504 301l-205 -173q29 -8 60 -8q70 0 112.5 36t42.5 94q0 26 -10 51z" />
    <glyph glyph-name="product" unicode="&#x220f;" horiz-adv-x="790" 
d="M109 557h-79v143h730v-143h-79v-727h-172v727h-228v-727h-172v727z" />
    <glyph glyph-name="summation" unicode="&#x2211;" horiz-adv-x="790" 
d="M30 143l299 197l-299 217v143h730v-143h-488l299 -217l-299 -197h488v-143h-730v143z" />
    <glyph glyph-name="minus" unicode="&#x2212;" horiz-adv-x="580" 
d="M30 402h520v-143h-520v143z" />
    <glyph glyph-name="radical" unicode="&#x221a;" horiz-adv-x="1109" 
d="M5 501h189l196 -373l301 572h388v-143h-274l-294 -557h-242z" />
    <glyph glyph-name="infinity" unicode="&#x221e;" horiz-adv-x="988" 
d="M148.5 109q-56.5 32 -87.5 84t-31 112q0 61 32 115.5t89.5 87.5t128.5 33q95 0 150 -44.5t64 -122.5q9 79 65 123t149 44q71 0 128.5 -33t89.5 -87.5t32 -115.5q0 -60 -31 -112t-87.5 -84t-129.5 -32q-97 0 -152 41t-64 116q-9 -75 -64 -116t-152 -41q-73 0 -129.5 32z
M361 239.5q25 26.5 25 65.5q0 43 -28 69.5t-78 26.5q-46 0 -74.5 -27.5t-28.5 -68.5q0 -43 32 -72t80 -26q47 6 72 32.5zM779 233q32 29 32 72q0 41 -28.5 68.5t-74.5 27.5q-50 0 -78 -26.5t-28 -69.5q0 -39 25 -65.5t72 -32.5q48 -3 80 26z" />
    <glyph glyph-name="integral" unicode="&#x222b;" horiz-adv-x="697" 
d="M23 -82q51 0 91.5 24.5t48.5 59.5l138 587q16 67 102.5 104.5t283.5 37.5l-13 -58q-51 0 -91 -24.5t-48 -59.5l-138 -587q-16 -66 -103 -104t-284 -38z" />
    <glyph glyph-name="approxequal" unicode="&#x2248;" horiz-adv-x="441" 
d="M241.5 321.5q-19.5 11.5 -40.5 32.5q-15 14 -25.5 21t-22.5 7q-28 0 -44.5 -18t-17.5 -53h-61q1 58 35 94t88 36q23 0 39.5 -10t37.5 -30q19 -17 31 -24.5t27 -7.5q29 0 45.5 17.5t17.5 53.5h60q-1 -59 -35 -94.5t-88 -35.5q-27 0 -46.5 11.5zM241.5 151.5
q-19.5 11.5 -40.5 32.5q-15 14 -25.5 21t-22.5 7q-28 0 -44.5 -18t-17.5 -53h-61q1 58 35 94t88 36q23 0 39.5 -10t37.5 -30q19 -17 31 -24.5t27 -7.5q29 0 45.5 17.5t17.5 53.5h60q-1 -59 -35 -94.5t-88 -35.5q-27 0 -46.5 11.5z" />
    <glyph glyph-name="notequal" unicode="&#x2260;" horiz-adv-x="580" 
d="M110 129h-80v143h159l62 110h-221v143h300l53 95h141l-53 -95h79v-143h-158l-62 -110h220v-143h-299l-61 -109h-141z" />
    <glyph glyph-name="lessequal" unicode="&#x2264;" horiz-adv-x="600" 
d="M45 345l249 141h261l-259 -141l259 -141h-261zM68 103h505v-103h-505v103z" />
    <glyph glyph-name="greaterequal" unicode="&#x2265;" horiz-adv-x="600" 
d="M322 345l-259 141h261l249 -141l-249 -141h-261zM45 103h505v-103h-505v103z" />
    <glyph glyph-name="lozenge" unicode="&#x25ca;" horiz-adv-x="726" 
d="M30 250l206 250h254l206 -250l-206 -250h-254zM494 250l-131 153l-131 -153l131 -153z" />
    <glyph glyph-name="A.001" horiz-adv-x="1098" 
d="M415 700h267l387 -700h-199l-68 133h-506l-68 -133h-199zM730 275l-181 353l-181 -353h362z" />
    <glyph glyph-name="B.001" horiz-adv-x="926" 
d="M84 700h527q71 0 121.5 -23.5t77 -64.5t26.5 -93q0 -83 -58.5 -119t-166.5 -36h-41v-17h63q106 0 166 -40.5t60 -124.5q0 -54 -28 -95t-79.5 -64t-118.5 -23h-549v700zM573 420q46 0 68.5 14.5t22.5 48.5q0 38 -22.5 54.5t-68.5 16.5h-317l1 -134h316zM595 147
q45 0 68 17.5t23 55.5q0 71 -91 71h-338v-144h338z" />
    <glyph glyph-name="C.001" horiz-adv-x="851" 
d="M258.5 29.5q-106.5 45.5 -161.5 128t-55 192.5t55 192.5t161.5 128t255.5 45.5q91 -1 159.5 -13t135.5 -41v-156q-60 31 -137.5 47.5t-157.5 16.5q-145 0 -222.5 -57t-77.5 -163t77.5 -163t222.5 -57q80 0 157.5 16.5t137.5 47.5v-156q-67 -29 -135.5 -41t-159.5 -13
q-149 0 -255.5 45.5z" />
    <glyph glyph-name="G.001" horiz-adv-x="908" 
d="M264.5 29.5q-106.5 45.5 -161.5 128t-55 192.5t55 192.5t161.5 128t255.5 45.5q200 -2 320 -54v-156q-58 29 -146.5 46.5t-173.5 17.5q-144 0 -222 -57t-78 -163t78 -163t222 -57q92 0 190 20v125h-348v137h498v-354q-58 -34 -143.5 -54t-196.5 -20q-149 0 -255.5 45.5z
" />
    <glyph glyph-name="J.001" horiz-adv-x="711" 
d="M138 -3q-65 12 -133 41v166q148 -74 288 -74q82 0 122 48t40 161v361h172v-361q0 -186 -84.5 -270.5t-249.5 -84.5q-90 1 -155 13z" />
    <glyph glyph-name="R.001" horiz-adv-x="924" 
d="M84 700h546q107 0 166 -49t59 -131q0 -83 -61 -128t-164 -45h-94v-17q87 0 148 -31.5t112.5 -101.5t113.5 -197h-221q-71 127 -112 186.5t-80.5 84.5t-94.5 25h-147l1 -296h-172v700zM591 431q49 0 70.5 14.5t21.5 48.5q0 36 -21.5 51.5t-70.5 15.5h-337l1 -130h336z" />
    <glyph glyph-name="S.001" horiz-adv-x="883" 
d="M226 9q-101 24 -158 50v159q57 -30 162 -58.5t189 -28.5q131 0 190.5 20.5t59.5 63.5q0 29 -29.5 44t-74 21t-126.5 11q-124 8 -203 21.5t-136.5 57t-57.5 128.5q0 110 111 163.5t277 53.5q101 0 193.5 -12.5t157.5 -41.5v-156q-56 28 -156 46t-180 18q-231 0 -231 -79
q0 -34 52 -46t163 -19q127 -8 209.5 -23t142.5 -59.5t60 -130.5q0 -122 -119.5 -174.5t-286.5 -52.5q-108 0 -209 24z" />
    <glyph glyph-name="i.loclTRK" horiz-adv-x="250" 
d="M39 500h172v-500h-172v500zM54.5 560.5q-27.5 23.5 -27.5 61.5t27.5 61.5t71.5 23.5q47 0 73 -23t26 -62t-26 -62t-73 -23q-44 0 -71.5 23.5z" />
    <glyph glyph-name="zero.tf" horiz-adv-x="949" 
d="M242.5 29.5q-97.5 45.5 -149 128t-51.5 192.5t52.5 192.5t150 128t229.5 45.5q135 0 232.5 -45t149 -127.5t51.5 -193.5q0 -110 -51.5 -192.5t-149 -128t-232.5 -45.5q-134 0 -231.5 45.5zM699 54.5q91 43.5 136 120.5t45 177t-45.5 176t-136.5 118.5t-223 42.5
q-128 0 -219.5 -43.5t-139 -121t-47.5 -176.5t48 -175t139.5 -119t218.5 -43q133 0 224 43.5zM329 151.5q-62 28.5 -95 79.5t-33 119t33 119.5t95 80t146 28.5t146 -28.5t95.5 -80t33.5 -119.5t-33.5 -119t-95.5 -79.5t-146 -28.5t-146 28.5zM598.5 249.5
q44.5 35.5 44.5 100.5t-44.5 101t-123.5 36t-123.5 -36t-44.5 -101t44.5 -100.5t123.5 -35.5t123.5 35.5z" />
    <glyph glyph-name="one.tf" horiz-adv-x="949" 
d="M242.5 29.5q-97.5 45.5 -149 128t-51.5 192.5t52.5 192.5t150 128t229.5 45.5q135 0 232.5 -45t149 -127.5t51.5 -193.5q0 -110 -51.5 -192.5t-149 -128t-232.5 -45.5q-134 0 -231.5 45.5zM698 54.5q91 43.5 136 120.5t45 177t-45.5 176t-136.5 118.5t-223 42.5
q-128 0 -219.5 -43.5t-139 -121t-47.5 -176.5t48 -175t139.5 -119t218.5 -43q133 0 224 43.5zM456 476l-214 -134v106l251 120h69v-435h-106v343z" />
    <glyph glyph-name="two.tf" horiz-adv-x="949" 
d="M242.5 29.5q-97.5 45.5 -149 128t-51.5 192.5q0 109 52.5 191.5t150 128.5t229.5 46q135 0 232.5 -45t149 -127.5t51.5 -193.5q0 -110 -51.5 -192.5t-149 -128t-232.5 -45.5q-134 0 -231.5 45.5zM698 54.5q91 43.5 136 120.5t45 177t-45.5 176t-136.5 118.5t-223 42.5
q-128 0 -219.5 -43.5t-139 -121t-47.5 -176.5t48 -175t139.5 -119t218.5 -43q133 0 224 43.5zM248 199q1 46 34.5 77.5t79 50t116.5 39.5q63 18 93 31.5t30 33.5q0 31 -31.5 44t-101.5 13q-53 0 -116.5 -10.5t-87.5 -20.5v94q30 13 94 21t127 8q119 0 175 -28.5t56 -98.5
q0 -52 -31.5 -84t-75 -49t-112.5 -35q-59 -16 -89.5 -28t-42.5 -31h337v-90h-454v63z" />
    <glyph glyph-name="three.tf" horiz-adv-x="949" 
d="M242.5 29.5q-97.5 45.5 -149 128t-51.5 192.5q0 109 52.5 191.5t150 128.5t229.5 46q135 0 232.5 -45t149 -127.5t51.5 -193.5q0 -110 -51.5 -192.5t-149 -128t-232.5 -45.5q-134 0 -231.5 45.5zM698 54.5q91 43.5 136 120.5t45 177t-45.5 176t-136.5 118.5t-223 42.5
q-128 0 -219.5 -43.5t-139 -121t-47.5 -176.5t48 -175t139.5 -119t218.5 -43q133 0 224 43.5zM367.5 131q-61.5 8 -99.5 24v96q31 -15 94 -26t111 -11q161 0 161 41q0 20 -24.5 32t-81.5 18t-159 8v76q107 4 160.5 10t72.5 15t19 25q0 25 -42 37t-107 12q-45 0 -108.5 -12
t-95.5 -26v96q36 15 98.5 23.5t112.5 8.5q117 0 180.5 -26t63.5 -93q0 -63 -51 -85t-136 -22q199 0 199 -105q0 -68 -62.5 -96t-180.5 -28q-63 0 -124.5 8z" />
    <glyph glyph-name="four.tf" horiz-adv-x="949" 
d="M242.5 29.5q-97.5 45.5 -149 128t-51.5 192.5q0 109 52.5 191.5t150 128.5t229.5 46q135 0 232.5 -45t149 -127.5t51.5 -193.5q0 -110 -51.5 -192.5t-149 -128t-232.5 -45.5q-134 0 -231.5 45.5zM698 54.5q91 43.5 136 120.5t45 177t-45.5 176t-136.5 118.5t-223 42.5
q-128 0 -219.5 -43.5t-139 -121t-47.5 -176.5t48 -175t139.5 -119t218.5 -43q133 0 224 43.5zM543 205h-350v70l293 293h164v-272h60v-91h-60v-72h-107v72zM543 296v207l-205 -207h205z" />
    <glyph glyph-name="five.tf" horiz-adv-x="949" 
d="M242.5 29.5q-97.5 45.5 -149 128t-51.5 192.5q0 109 52.5 191.5t150 128.5t229.5 46q135 0 232.5 -45t149 -127.5t51.5 -193.5q0 -110 -51.5 -192.5t-149 -128t-232.5 -45.5q-134 0 -231.5 45.5zM698 54.5q91 43.5 136 120.5t45 177t-45.5 176t-136.5 118.5t-223 42.5
q-128 0 -219.5 -43.5t-139 -121t-47.5 -176.5t48 -175t139.5 -119t218.5 -43q133 0 224 43.5zM350.5 127q-55.5 8 -89.5 24v98q32 -17 89 -28t112 -11q67 0 104.5 15.5t37.5 45.5q0 31 -32 45.5t-99 14.5q-38 0 -81 -9.5t-79 -25.5l-47 44l25 224h401v-91h-321l-15 -86
q59 24 159 24q88 0 142 -33.5t54 -109.5q0 -70 -68 -109.5t-183 -39.5q-54 0 -109.5 8z" />
    <glyph glyph-name="six.tf" horiz-adv-x="949" 
d="M242.5 29.5q-97.5 45.5 -149 128t-51.5 192.5q0 109 52.5 191.5t150 128.5t229.5 46q135 0 232.5 -45t149 -127.5t51.5 -193.5q0 -110 -51.5 -192.5t-149 -128t-232.5 -45.5q-134 0 -231.5 45.5zM698 54.5q91 43.5 136 120.5t45 177t-45.5 176t-136.5 118.5t-223 42.5
q-128 0 -219.5 -43.5t-139 -121t-47.5 -176.5t48 -175t139.5 -119t218.5 -43q133 0 224 43.5zM296.5 184q-68.5 58 -68.5 174q0 104 73.5 161.5t199.5 57.5q103 0 175 -36v-99q-76 44 -177 44q-77 0 -120.5 -32.5t-43.5 -89.5q36 27 84 41t93 14q98 0 148 -40.5t50 -107.5
t-60 -106t-167 -39q-118 0 -186.5 58zM568.5 232q34.5 16 34.5 46t-27.5 46t-79.5 16q-39 0 -82 -12.5t-69 -32.5q13 -37 47 -58t85 -21q57 0 91.5 16z" />
    <glyph glyph-name="seven.tf" horiz-adv-x="949" 
d="M242.5 29.5q-97.5 45.5 -149 128t-51.5 192.5q0 109 52.5 191.5t150 128.5t229.5 46q135 0 232.5 -45t149 -127.5t51.5 -193.5q0 -110 -51.5 -192.5t-149 -128t-232.5 -45.5q-134 0 -231.5 45.5zM698 54.5q91 43.5 136 120.5t45 177t-45.5 176t-136.5 118.5t-223 42.5
q-128 0 -219.5 -43.5t-139 -121t-47.5 -176.5t48 -175t139.5 -119t218.5 -43q133 0 224 43.5zM592 477h-337v91h496v-46l-296 -389h-145z" />
    <glyph glyph-name="eight.tf" horiz-adv-x="949" 
d="M242.5 29.5q-97.5 45.5 -149 128t-51.5 192.5q0 109 52.5 191.5t150 128.5t229.5 46q135 0 232.5 -45t149 -127.5t51.5 -193.5q0 -110 -51.5 -192.5t-149 -128t-232.5 -45.5q-134 0 -231.5 45.5zM699 54.5q91 43.5 136 120.5t45 177t-45.5 176t-136.5 118.5t-223 42.5
q-128 0 -219.5 -43.5t-139 -121t-47.5 -176.5t48 -175t139.5 -119t218.5 -43q133 0 224 43.5zM296 152q-67 34 -67 94q0 45 41.5 69t103.5 31q-56 9 -94 36t-38 73q0 57 62.5 88.5t170.5 31.5q104 0 168.5 -31.5t64.5 -88.5q0 -46 -38 -73t-94 -36q62 -7 103.5 -31t41.5 -69
q0 -60 -67 -94t-176 -32q-115 -2 -182 32zM601 439q0 25 -35.5 37t-90.5 12t-90.5 -12t-35.5 -37q0 -22 26.5 -35.5t99.5 -13.5q126 0 126 49zM578 218.5q35 12.5 35 35.5q0 24 -30.5 36t-107.5 12t-107.5 -12t-30.5 -36q0 -23 35 -35.5t103 -12.5t103 12.5z" />
    <glyph glyph-name="nine.tf" horiz-adv-x="949" 
d="M242.5 29.5q-97.5 45.5 -149 128t-51.5 192.5q0 109 52.5 191.5t150 128.5t229.5 46q135 0 232.5 -45t149 -127.5t51.5 -193.5q0 -110 -51.5 -192.5t-149 -128t-232.5 -45.5q-134 0 -231.5 45.5zM699 54.5q91 43.5 136 120.5t45 177t-45.5 176t-136.5 118.5t-223 42.5
q-128 0 -219.5 -43.5t-139 -121t-47.5 -176.5t48 -175t139.5 -119t218.5 -43q133 0 224 43.5zM670.5 517.5q68.5 -58.5 68.5 -173.5q0 -105 -73.5 -162t-199.5 -57q-55 0 -97 9t-79 27v99q37 -21 80 -32.5t98 -11.5q77 0 120.5 32.5t43.5 89.5q-36 -27 -84 -41t-93 -14
q-98 0 -148 40.5t-50 107.5t60 106t167 39q118 0 186.5 -58.5zM398.5 470q-34.5 -16 -34.5 -46t27 -46t79 -16q40 0 83 12.5t69 32.5q-13 37 -47 58t-85 21q-57 0 -91.5 -16z" />
    <glyph glyph-name="dollar.001" horiz-adv-x="863" 
d="M318 -8q-79 9 -149 28.5t-111 38.5v159q57 -30 162 -58.5t189 -28.5q131 0 190.5 20.5t59.5 63.5q0 29 -29.5 44t-74 21t-126.5 11q-124 8 -203 21.5t-136.5 57t-57.5 128.5q0 92 79 144t207 67v126h187v-122q169 -9 266 -52v-156q-56 28 -156 46t-180 18
q-231 0 -231 -79q0 -34 52 -46t163 -19q127 -8 209.5 -23t142.5 -59.5t60 -130.5q0 -106 -92.5 -159.5t-233.5 -64.5v-98h-187v102z" />
    <glyph glyph-name="Euro.001" horiz-adv-x="927" 
d="M307 48.5q-116 64.5 -157 179.5h-120v103h100v19q0 14 1 21h-101v103h121q41 114 157 178t294 64q91 -1 159.5 -13t135.5 -41v-156q-62 31 -139.5 47.5t-155.5 16.5q-93 0 -159.5 -24.5t-101.5 -71.5h399v-103h-437l-1 -21q0 -13 1 -19h437v-103h-400q35 -48 101.5 -73
t160.5 -25q80 0 157.5 16.5t137.5 47.5v-156q-67 -29 -135.5 -41t-159.5 -13q-179 0 -295 64.5z" />
    <glyph glyph-name="brevecombcy" 
d="M-356 569.5q-48 18.5 -76 52.5t-28 78h105q1 -40 30.5 -60.5t77.5 -20.5q49 0 78 20.5t32 60.5h103q-1 -69 -56.5 -109t-156.5 -40q-61 0 -109 18.5z" />
    </font>
</defs>
</svg>
