<?xml version="1.0" standalone="no"?>
<!DOCTYPE svg PUBLIC "-//W3C//DTD SVG 1.1//EN" "http://www.w3.org/Graphics/SVG/1.1/DTD/svg11.dtd" >
<svg xmlns="http://www.w3.org/2000/svg" xmlns:xlink="http://www.w3.org/1999/xlink" version="1.1">
<metadata>
Created by FontForge 20170731 at Tue Jan  3 09:47:17 2023
 By Aleksey,,,
Copyright (c) 2023 by Kadek Mahardika. All rights reserved.
</metadata>
<defs>
<font id="Lordish-Regular" horiz-adv-x="0" >
  <font-face 
    font-family="Lordish"
    font-weight="400"
    font-stretch="normal"
    units-per-em="1000"
    panose-1="0 0 5 0 0 0 0 0 0 0"
    ascent="800"
    descent="-200"
    x-height="550"
    cap-height="1069"
    bbox="-405 -370 1040 1129"
    underline-thickness="50"
    underline-position="-150"
    unicode-range="U+0020-E102"
  />
<missing-glyph horiz-adv-x="453" 
d="M202.5 81q-14.5 103 -28.5 136q11 8 23 51q12 47 16 87q-98 -12 -135 -41q-4 10 -19 25q-12 12 -39 22q30 20 39 29q14 11 19 24q31 -28 136 -41q-14 103 -40 132q12 6 24 22q10 12 27 53q16 -42 25 -52q10 -15 24 -23q-28 -34 -40 -132q109 15 136 41q6 -13 19 -24
q9 -9 44 -24q-10 -5 -24 -13t-19 -14q-14 -12 -20 -25q-37 29 -136 41q6 -46 18 -87q2 -6 5 -17.5t7 -18.5t10 -15q-16 -27 -29 -129.5t-21 -231.5q-7 122 -21.5 225z" />
    <glyph glyph-name="f_f" unicode="ff" horiz-adv-x="431" 
d="M138 79q0 -35 27 -58q-55 -65 -79.5 -119t-32.5 -122h-2v449h-44l44 50v109q0 26 -12.5 43.5t-25.5 26.5l174 136l29 -31q17 -19 42 -24l-74 -58l-46 52v-226h68l-68 -78v-150zM417 433l-92 100v-226h68l-68 -78v-167q1 -24 8 -40.5t23 -30.5q-15 -10 -39.5 -44
t-46.5 -89.5t-29 -124.5h-2l-4 345v151h-44l44 50v109q0 26 -12.5 43.5t-25.5 26.5l177 136l75 -79q17 -19 42 -24z" />
    <glyph glyph-name=".notdef" horiz-adv-x="453" 
d="M202.5 81q-14.5 103 -28.5 136q11 8 23 51q12 47 16 87q-98 -12 -135 -41q-4 10 -19 25q-12 12 -39 22q30 20 39 29q14 11 19 24q31 -28 136 -41q-14 103 -40 132q12 6 24 22q10 12 27 53q16 -42 25 -52q10 -15 24 -23q-28 -34 -40 -132q109 15 136 41q6 -13 19 -24
q9 -9 44 -24q-10 -5 -24 -13t-19 -14q-14 -12 -20 -25q-37 29 -136 41q6 -46 18 -87q2 -6 5 -17.5t7 -18.5t10 -15q-16 -27 -29 -129.5t-21 -231.5q-7 122 -21.5 225z" />
    <glyph glyph-name=".null" 
 />
    <glyph glyph-name="nonmarkingreturn" horiz-adv-x="333" 
 />
    <glyph glyph-name="space" unicode=" " horiz-adv-x="200" 
 />
    <glyph glyph-name="exclam" unicode="!" horiz-adv-x="188" 
d="M85 159q-15 173 -32 299t-33 174q20 20 39 50t26 55h17q11 -37 66 -105q-18 -58 -36 -182t-30 -291h-17zM26 28q37 30 61 85h17q27 -60 59 -85q-43 -32 -69 -73q-26 41 -68 73z" />
    <glyph glyph-name="quotedbl" unicode="&#x22;" horiz-adv-x="285" 
d="M25 512q26 13 40 40.5t14 59.5q0 34 -15 65t-44 53v9q21 4 46 24.5t34 41.5q38 -61 38 -124q0 -60 -32.5 -107.5t-80.5 -64.5v3zM152 512q26 13 40 40.5t14 59.5q0 34 -15 65t-44 53v9q21 4 46 24.5t34 41.5q38 -61 38 -124q0 -60 -32.5 -107.5t-80.5 -64.5v3z" />
    <glyph glyph-name="numbersign" unicode="#" horiz-adv-x="618" 
d="M217 259h-26l125 376h26zM475 471h-26l53 155h26zM220 418h-142l7 26h145zM591 418h-304l10 26h301zM317 1h-26l132 396h26zM336 211h-316l7 26h319zM558 211h-146l10 26h143zM133 0h-26l62 180h26z" />
    <glyph glyph-name="dollar" unicode="$" horiz-adv-x="441" 
d="M365 67.5q-56 -46.5 -135 -53.5v-79h-17v78h-8q-77 0 -131 38t-54 107q0 33 19.5 51.5t42.5 18.5q22 0 29 -15q-18 -8 -30 -27.5t-12 -42.5q0 -50 38.5 -77t92.5 -27h13v268l-19 11q-52 29 -82.5 50.5t-52 51.5t-21.5 69q0 71 51 115.5t124 55.5v80l17 8v-87q6 1 18 1
q68 0 115.5 -34.5t47.5 -97.5q0 -28 -15 -44.5t-37 -16.5q-19 0 -34 11q15 6 15 37q0 55 -32.5 87.5t-77.5 34.5v-251q8 -4 15.5 -7.5t13.5 -6.5q52 -25 84.5 -45.5t55 -54.5t22.5 -83q0 -77 -56 -123.5zM141 450q25 -29 72 -53v241q-41 -4 -69 -34t-28 -81q0 -44 25 -73z
M230 41q49 8 81.5 37.5t32.5 74.5q0 46 -30 79t-84 65v-256z" />
    <glyph glyph-name="percent" unicode="%" horiz-adv-x="514" 
d="M443 769l-375 -798l-20 2l375 796h20zM41.5 474.5q-21.5 50.5 -21.5 105.5q0 54 21 100t61 70q-27 -19 -40.5 -52t-13.5 -74q0 -53 23 -105.5t60 -87.5q37 50 37 124q0 86 -54 166q-26 -27 -26 -77q0 -20 3 -35t3 -16q-11 38 -11 67q0 71 61 90q31 -43 49.5 -81t18.5 -87
q0 -53 -17 -88.5t-36.5 -53t-58.5 -45.5q-37 29 -58.5 79.5zM323.5 59.5q-21.5 50.5 -21.5 105.5q0 54 21 100t61 70q-27 -19 -40.5 -52t-13.5 -74q0 -53 23 -105.5t60 -87.5q37 50 37 124q0 86 -54 166q-26 -27 -26 -77q0 -20 3 -35t3 -16q-11 38 -11 67q0 71 61 90
q31 -43 49.5 -81t18.5 -87q0 -53 -17 -88.5t-36.5 -53t-58.5 -45.5q-37 29 -58.5 79.5z" />
    <glyph glyph-name="ampersand" unicode="&#x26;" horiz-adv-x="498" 
d="M130 11q-60 0 -110 -15q16 17 25 38.5t9 57.5v200q0 11 5.5 21t15.5 16l68 41l-53 36q-22 16 -22 43v150q0 15 -7.5 26t-23.5 14l256 151q-7 -17 -7 -38q0 -27 12 -54t29.5 -44t32.5 -16l-137 -87q8 26 8 54q0 50 -21 84l-45 -28q-10 -7 -10 -18v-188q0 -14 10 -23
l31 -28l21 13q44 26 75.5 42.5t46.5 16.5q23 0 41 -19.5t31.5 -40.5t18.5 -29q10 -16 28 -16q15 0 19 12q3 -10 -9 -27.5t-32 -30.5t-37 -13q-16 0 -33 12q-7 -1 -9 -7t-1.5 -14t0.5 -12v-123q0 -19 13 -35t28 -16q-18 -9 -51.5 -51t-69.5 -97q-49 42 -146 42zM265 254
q0 43 25.5 61.5t59.5 21.5q-29 40 -49.5 61.5t-40.5 21.5q-8 0 -15 -4l-90 -51v-186q0 -43 -6.5 -69.5t-30.5 -52.5l1 -1q44 20 79 20q23 0 40 -6.5t27 -16.5v201z" />
    <glyph glyph-name="quotesingle" unicode="'" horiz-adv-x="158" 
d="M25 508q26 13 40 40.5t14 59.5q0 34 -15 65t-44 53v9q21 4 46 24.5t34 41.5q38 -61 38 -124q0 -60 -32.5 -107.5t-80.5 -64.5v3z" />
    <glyph glyph-name="parenleft" unicode="(" horiz-adv-x="274" 
d="M253 -147q-114 87 -173.5 215.5t-59.5 269.5t60 268.5t173 210.5l1 -1q-82 -101 -122.5 -217t-40.5 -241q0 -127 41.5 -255t120.5 -248v-2z" />
    <glyph glyph-name="parenright" unicode=")" horiz-adv-x="274" 
d="M21 -145q79 120 120.5 248t41.5 255q0 125 -40.5 241t-122.5 217l1 1q113 -83 173 -210.5t60 -268.5t-59.5 -269.5t-173.5 -215.5v2z" />
    <glyph glyph-name="asterisk" unicode="*" horiz-adv-x="449" 
d="M103 420q0 30 -12 58q27 2 44.5 9t32.5 21t45 46q-57 10 -75 10t-32.5 -5t-35.5 -17q-12 46 -50 81q47 3 88 36q10 -33 33.5 -50t75.5 -40q-5 54 -16.5 83.5t-36.5 47.5q45 29 61 72q22 -48 62 -72q-24 -19 -36.5 -49t-17.5 -82q50 22 69.5 37t38.5 53q41 -33 88 -36
q-38 -35 -50 -81q-31 11 -48.5 15t-35.5 4q-24 0 -58 -7q40 -43 64 -59t57 -17q-12 -28 -12 -58q0 -17 5 -37q-44 26 -93 23q5 27 5 40q0 22 -8 41t-29 56q-23 -41 -30.5 -59.5t-7.5 -42.5q0 -15 3 -35q-49 3 -93 -23q5 20 5 37z" />
    <glyph glyph-name="plus" unicode="+" horiz-adv-x="271" 
d="M134 304h117l-15 -17h-102v-97l-17 15v82h-97l15 17h82v117l17 -15v-102z" />
    <glyph glyph-name="comma" unicode="," horiz-adv-x="158" 
d="M25 -151q26 13 40 40.5t14 59.5q0 34 -15 65t-44 53v9q21 4 46 24.5t34 41.5q38 -61 38 -124q0 -60 -32.5 -107.5t-80.5 -64.5v3z" />
    <glyph glyph-name="hyphen" unicode="-" horiz-adv-x="271" 
d="M236 294h-216l15 17h216z" />
    <glyph glyph-name="period" unicode="." horiz-adv-x="172" 
d="M139 65l-65 -65l-54 76l68 58z" />
    <glyph glyph-name="slash" unicode="/" horiz-adv-x="425" 
d="M37 -57h-17l368 796h17z" />
    <glyph glyph-name="zero" unicode="0" horiz-adv-x="453" 
d="M66 140.5q-46 109.5 -46 229.5q0 117 44.5 215.5t131.5 151.5q-59 -42 -87.5 -113.5t-28.5 -159.5q0 -113 49.5 -226.5t128.5 -190.5q44 59 62.5 124.5t18.5 144.5q0 90 -30 181.5t-87 175.5q-56 -60 -56 -166q0 -50 7 -79t7 -30q-25 78 -25 143q0 72 32.5 123t100.5 73
q44 -63 73 -111.5t50.5 -113.5t21.5 -139q0 -107 -31.5 -180t-74.5 -116t-109 -90l-25 -18q-81 62 -127 171.5z" />
    <glyph glyph-name="one" unicode="1" horiz-adv-x="323" 
d="M198 -9.5q-21 5.5 -53 17.5q-26 10 -42.5 14.5t-29.5 4.5q-29 0 -25 -27q-28 19 -28 51q0 26 19 41t51 15q37 21 37 97v383q0 30 -20 43l110 70v-471q0 -58 -29.5 -88.5t-85.5 -34.5q26 -2 50.5 -9t59.5 -20q45 -18 62 -18q21 0 25 21q4 -13 4 -27q0 -30 -18 -49t-47 -19
q-19 0 -40 5.5z" />
    <glyph glyph-name="two" unicode="2" horiz-adv-x="578" 
d="M243 6q-118 21 -170 21q-29 0 -25 -27q-28 19 -28 51q0 55 26 100.5t64.5 80.5t101.5 82q64 49 100.5 82t62 76.5t25.5 96.5q0 78 -42 115.5t-103 37.5q-45 0 -73.5 -22t-28.5 -58q0 -27 9 -50t26 -54q16 -29 24.5 -50.5t8.5 -45.5q0 -36 -21.5 -61.5t-51.5 -38.5
t-55 -13q-22 0 -36 10t-14 28q0 19 13.5 35t31.5 16q-11 -8 -11 -20q0 -26 13 -42t29 -16q11 0 19 10t8 29q0 20 -7.5 38.5t-25.5 54.5q-18 32 -27 55t-9 46q0 54 28.5 91.5t75 56t100.5 18.5q56 0 106 -20t81.5 -58.5t31.5 -91.5q0 -69 -38 -123.5t-90.5 -92.5t-139.5 -89
q-68 -40 -106 -66t-63.5 -58t-25.5 -69q24 37 96 37q27 0 64.5 -5t73.5 -11q38 -6 77.5 -11.5t69.5 -5.5q49 0 77.5 13.5t34.5 46.5q11 -35 11 -58q0 -49 -35.5 -70.5t-93.5 -21.5q-53 0 -169 21z" />
    <glyph glyph-name="three" unicode="3" horiz-adv-x="548" 
d="M268 -22q-71 35 -121 66.5t-88.5 79t-38.5 108.5q0 40 24 77t63.5 59.5t83.5 22.5v-1q-59 -12 -88 -37t-29 -59q0 -61 79 -125t222 -116q42 46 42 106q0 73 -54.5 150.5t-133.5 132.5l197 139q-28 3 -60.5 11.5t-80.5 24.5q-49 16 -82.5 24.5t-59.5 8.5q-28 0 -44 -8.5
t-22 -32.5q-2 10 -2 16q0 25 13 52t37 45t54 18q25 0 59.5 -9.5t93.5 -29.5q59 -19 90 -27.5t52 -8.5q22 0 31 9.5t10 29.5q5 -23 5 -42q0 -36 -18 -58.5t-57 -23.5l-117 -86q50 -34 86.5 -84.5t56 -101t19.5 -85.5q0 -54 -42 -115.5t-131 -154.5q-13 8 -49 25z" />
    <glyph glyph-name="four" unicode="4" horiz-adv-x="562" 
d="M501 124q14 -24 14 -54q0 -37 -23 -61.5t-70 -24.5q-21 0 -73 16q-51 17 -77 17q-36 0 -47 -31q0 35 11 57.5t27 35.5t43 29q26 16 41 28t25.5 32t11.5 51q-161 -50 -256 -50q-98 0 -98 57q0 67 77.5 176t186.5 206t193 129q-9 -32 -11 -53.5t-2 -75.5v-343q32 11 50 19
l8 -11q-14 -6 -58 -23v-21q0 -46 -41.5 -77t-122.5 -58q82 -28 126 -28q65 0 65 58zM177.5 244q33.5 -18 90.5 -18q54 0 116 14v412q-63 -42 -118.5 -105t-88.5 -128.5t-33 -116.5q0 -40 33.5 -58z" />
    <glyph glyph-name="five" unicode="5" horiz-adv-x="557" 
d="M120 73.5q-32 51.5 -32 114.5q0 70 41 130q-2 -16 -2 -23q0 -47 25.5 -99t67 -93.5t87.5 -59.5q52 60 52 173q0 107 -43 224q-106 -26 -159.5 -43t-97.5 -39q0 57 19.5 111t53 93t74.5 51q-80 26 -117 26q-53 0 -53 -43q0 -10 3 -24q-19 29 -19 64q0 41 27 70.5t74 29.5
q34 0 74 -10.5t105 -32.5q57 -19 94 -29t67 -10q62 0 74 54q2 -14 2 -20q0 -33 -16 -64t-43 -50t-58 -19q-29 0 -69.5 11.5t-109.5 35.5q-9 2 -25 8q-27 -12 -39 -42.5t-12 -71.5q0 -40 9 -76q67 22 188 45q86 18 109 24q-21 -15 -25.5 -49t-4.5 -107q0 -87 -13 -149
t-63.5 -113.5t-155.5 -70.5q-57 22 -89 73.5z" />
    <glyph glyph-name="six" unicode="6" horiz-adv-x="547" 
d="M213 -18q-16 19 -45 48q-45 47 -74.5 84t-51.5 90t-22 117q0 156 37.5 246t110 128t185.5 38q30 0 45 -1l41 -101q-104 13 -166 13q-111 0 -162 -33t-51 -103q0 -46 21 -109.5t62 -149.5q21 92 61 144.5t84 88.5q35 -2 75.5 -44.5t68 -100t27.5 -96.5q0 -34 -19 -67
t-45 -59.5t-69 -64.5t-64.5 -61t-26.5 -44q-6 18 -22 37zM371 183q0 56 -27.5 109.5t-61.5 88.5t-47 34q-62 -71 -81 -185q21 -35 53 -78.5t88 -112.5q76 64 76 144z" />
    <glyph glyph-name="seven" unicode="7" horiz-adv-x="504" 
d="M176.5 196.5q16.5 103.5 62.5 202t139 227.5l-1 3q-49 -26 -96 -26q-23 0 -45.5 5t-51.5 15t-48.5 14.5t-40.5 4.5q-22 0 -30 -6.5t-8 -18.5q0 -8 2 -20t2 -20q0 -12 -4 -21q-5 -10 -14 -10q-5 0 -8 4t-3 11q0 6 1 9q4 16 8 51q5 38 11 62t21.5 41t43.5 17
q20 0 44.5 -8.5t59.5 -25.5q42 -20 73.5 -30.5t62.5 -10.5q50 0 127 34q-64 -43 -114.5 -112t-78.5 -145.5t-28 -144.5q0 -106 76 -214l-32 -20q-74 -46 -99 -66.5t-48 -60.5q0 156 16.5 259.5z" />
    <glyph glyph-name="eight" unicode="8" horiz-adv-x="534" 
d="M268 -22q-71 35 -121 66.5t-88.5 79t-38.5 108.5q0 40 24 77t63.5 59.5t83.5 22.5v-1q-59 -12 -88 -37t-29 -59q0 -61 81 -125t225 -116q47 51 47 104q0 89 -138 185q-91 65 -136.5 125t-45.5 113q0 55 48 100t139 74q131 -79 131 -154q0 -68 -103 -134q21 27 21 58
q0 47 -42 95t-96 81q-35 -29 -35 -69q0 -47 48 -102.5t121 -105.5q79 -54 115 -102.5t36 -97.5q0 -54 -42 -115.5t-131 -154.5q-13 8 -49 25z" />
    <glyph glyph-name="nine" unicode="9" horiz-adv-x="547" 
d="M312 708q16 -19 45 -48q45 -47 74.5 -84t51.5 -90t22 -117q0 -156 -37.5 -246t-110 -128t-185.5 -38q-30 0 -45 1l-41 101q104 -13 166 -13q111 0 162 33t51 103q0 46 -21 109.5t-62 149.5q-21 -92 -61 -144.5t-84 -88.5q-35 2 -75.5 44.5t-68 100t-27.5 96.5q0 34 19 67
t45 59.5t69 64.5t64.5 61t26.5 44q6 -18 22 -37zM154 507q0 -56 27.5 -109.5t61.5 -88.5t47 -34q62 71 81 185q-21 35 -53 78.5t-88 112.5q-76 -64 -76 -144z" />
    <glyph glyph-name="colon" unicode=":" horiz-adv-x="172" 
d="M139 65l-65 -65l-54 76l68 58zM139 429l-65 -65l-54 76l68 58z" />
    <glyph glyph-name="semicolon" unicode=";" horiz-adv-x="212" 
d="M52 -151q26 13 40 40.5t14 59.5q0 34 -15 65t-44 53v9q21 4 46 24.5t34 41.5q38 -61 38 -124q0 -60 -32.5 -107.5t-80.5 -64.5v3zM166 429l-65 -65l-54 76l68 58z" />
    <glyph glyph-name="equal" unicode="=" horiz-adv-x="271" 
d="M236 293h-216l15 43h216zM236 213h-216l15 43h216z" />
    <glyph glyph-name="question" unicode="?" horiz-adv-x="377" 
d="M139 187q-23 21 -23 53q0 35 18.5 66.5t56.5 77.5q38 47 56 77.5t18 65.5q0 47 -31.5 81t-77.5 34q-51 0 -81.5 -34.5t-30.5 -85.5q0 -37 16 -73q-40 46 -40 91q0 71 105 143q6 4 18.5 14t22.5 14t23 4q44 0 82.5 -24.5t62 -65t23.5 -86.5q0 -51 -29.5 -97t-82.5 -104
q-38 -43 -55 -67t-17 -45q0 -18 11.5 -28.5t29.5 -10.5q16 0 29 8q-17 -29 -52 -29q-29 0 -52 21zM102 27q37 30 61 85h18q14 -31 27 -51t31 -34q-43 -32 -69 -73q-26 41 -68 73z" />
    <glyph glyph-name="at" unicode="@" horiz-adv-x="731" 
d="M240.5 -63.5q-85.5 47.5 -153 145.5t-67.5 248q0 143 62 238t149 143.5t173 64.5q148 -54 227.5 -149.5t79.5 -226.5q0 -112 -48.5 -182t-90.5 -93.5t-105 -50.5q-19 19 -36 43.5t-25 48.5l-68 -92q-14 0 -41.5 11t-49 31.5t-21.5 49.5v69q0 20 -7 31.5t-21 11.5
q-3 0 -11 -2q7 27 41.5 47.5t96.5 45.5q40 15 60.5 26.5t20.5 22.5v18q0 14 -8.5 18t-26.5 4q-40 0 -89 -9.5t-73 -26.5q25 30 43 67.5t18 58.5q25 -32 95 -32q38 0 77.5 9.5t65.5 23.5q-13 -16 -19.5 -50.5t-6.5 -65.5v-217q0 -30 15 -58.5t33 -38.5q51 43 71 113.5
t20 166.5q0 53 -25 117.5t-74 126t-118 103.5q-94 -31 -160.5 -94.5t-100 -147t-33.5 -174.5q0 -90 35 -176t102 -150t157 -88q42 12 100 48t94 69q-43 -59 -95.5 -100t-98.5 -64q-78 20 -163.5 67.5zM406 190v196q-63 -35 -86.5 -67t-23.5 -67v-53q0 -55 67 -67z" />
    <glyph glyph-name="A" unicode="A" horiz-adv-x="885" 
d="M475 337q0 -39 28.5 -56.5t60.5 -17.5q-89 -68 -89 -147v-189q0 -18 5 -43q1 -7 3 -22.5t2 -27.5q0 -25 -11 -39.5t-39 -14.5q30 51 30 147v183q0 29 -15.5 48t-36 27t-35.5 8q39 31 63 68.5t24 75.5v153q-14 -67 -51 -135t-96.5 -121.5t-136.5 -75.5q30 -3 58.5 -16.5
t73.5 -39.5q33 -19 51 -27.5t31 -8.5q27 0 43 18q0 -40 -26.5 -69.5t-67.5 -29.5q-20 0 -43.5 12t-60.5 36q-40 26 -68 40t-53 14q-43 0 -72 -51q40 123 121 123q70 19 116 70.5t66.5 118.5t20.5 136q0 86 -30 145.5t-87 59.5q-34 0 -60 -20.5t-40 -52.5t-14 -66
q0 -25 10.5 -46.5t30.5 -52.5q18 -25 26.5 -42.5t8.5 -36.5q0 -41 -27.5 -87.5t-67 -78t-73.5 -31.5q-19 0 -28.5 10.5t-9.5 26.5q0 19 13.5 35t31.5 16q-11 -8 -11 -20q0 -13 15.5 -24.5t34.5 -11.5q20 0 36 21.5t16 50.5q0 18 -14.5 46t-59.5 97q-15 23 -15 51
q0 54 46 116.5t113.5 105t128.5 42.5q46 0 77 -31t43 -85v21q0 70 23 99t63 29q26 0 56.5 -11.5t70.5 -32.5q30 -15 47.5 -22.5t30.5 -8.5q8 -1 15 10t7 25t-7 27h1q23 -23 23 -59t-22 -64.5t-54 -28.5q-16 0 -35 8.5t-57 27.5q-38 20 -61.5 29.5t-42.5 9.5q-22 0 -35 -22
t-13 -57v-264zM828 362.5q47 -45.5 47 -119.5t-45.5 -140t-97.5 -109t-109 -81q42 39 42 98q0 38 -15 80t-45 107q-36 77 -55 132.5t-19 111.5q0 61 36 111.5t142 51.5v-4q-58 -12 -79.5 -37t-21.5 -67q0 -38 17 -83.5t51 -117.5q36 -74 54 -123t18 -90q0 -35 -15 -60l2 -2
q26 35 41 79.5t15 89.5q0 84 -26.5 142t-88.5 58q-14 0 -36 -5l-3 12q38 11 70 11q74 0 121 -45.5z" />
    <glyph glyph-name="B" unicode="B" horiz-adv-x="695" 
d="M508 412q81 0 129 -30t48 -96q0 -69 -47.5 -141.5t-117 -126.5t-129.5 -69l-44 16q-56 22 -102 37v-84q0 -18 5 -43q1 -7 3 -22.5t2 -27.5q0 -25 -11 -39.5t-39 -14.5q30 51 30 147v87q-87 28 -137 28q-38 0 -59.5 -25.5t-16.5 -66.5h-2q-10 27 -10 56q0 53 35.5 89.5
t93.5 36.5q38 0 96 -14v604q-42 -38 -71 -85.5t-29 -98.5q0 -78 80 -146q-93 51 -135 94.5t-42 81.5q0 46 50 84.5t147 89.5v84q0 39 21.5 64.5t52 39.5t79.5 30q52 17 76 30.5t24 38.5q0 14 -7 27h1q23 -23 23 -59t-21.5 -60.5t-51.5 -38.5t-79 -30q-54 -17 -81 -33
t-27 -42v-45q69 36 112 63t70 57l-14 -36q-14 -35 -18 -54q44 61 101 95q-4 -12 -4 -26q0 -26 13.5 -52t40.5 -65q28 -41 41.5 -67.5t13.5 -53.5q0 -37 -21 -69t-51 -56.5t-88 -66.5q31 4 67 4zM391 738q-1 -8 -1 -29v-327q66 40 94.5 77.5t28.5 77.5q0 31 -12.5 61.5
t-41.5 84.5q-32 58 -44 86q-12 -14 -24 -31zM534.5 53.5q24.5 24.5 42.5 60.5t18 71q0 87 -59 127t-146 40v-51q0 -79 -36.5 -129.5t-106.5 -52.5q25 14 39 49t14 92v501q-20 -10 -55 -39v-616q34 -9 73 -23.5t49 -17.5q56 -20 82.5 -28t45.5 -8q15 0 39.5 24.5z" />
    <glyph glyph-name="C" unicode="C" horiz-adv-x="585" 
d="M525 471q24 -69 24 -129q0 -59 -20.5 -102.5t-59.5 -99.5q-31 -45 -46 -75t-15 -65h-98q-33 0 -65 8v-96q0 -18 5 -43q1 -7 3 -22.5t2 -27.5q0 -25 -11 -39.5t-39 -14.5q30 51 30 147v98q-66 19 -112.5 70.5t-70 122.5t-23.5 150q0 105 42 199.5t122 147.5
q-37 -50 -58 -129t-21 -163q0 -97 30 -175t91 -115v100q0 54 -23.5 81.5t-55.5 27.5q32 27 55.5 73.5t23.5 100.5v161q0 70 23 99t63 29q26 0 56.5 -11.5t70.5 -32.5q30 -15 47.5 -22.5t30.5 -8.5q8 -1 15 10t7 25t-7 27h1q23 -23 23 -59t-22 -64.5t-54 -28.5q-15 0 -36 9
t-54 26q-35 19 -60.5 29.5t-45.5 10.5q-22 0 -35 -22t-13 -57v-103q0 -54 18.5 -82.5t43.5 -37.5q-24 -13 -43 -51t-19 -91v-143q41 -23 97 -23q54 0 89 26t50.5 63.5t15.5 74.5q0 42 -19.5 68.5t-41.5 26.5q-15 0 -24 -15l-2 2q5 15 17.5 26t35.5 26q33 20 48 37t12 46h2z
" />
    <glyph glyph-name="D" unicode="D" horiz-adv-x="800" 
d="M524 762q63 -5 115 -46t82 -106.5t30 -141.5q0 -109 -37 -215.5t-106.5 -183.5t-162.5 -100q-41 15 -89 31.5t-87 25.5v-125q0 -18 5 -43q1 -7 3 -22.5t2 -27.5q0 -25 -11 -39.5t-39 -14.5q30 51 30 147v128q-49 9 -77 9q-37 0 -59 -27.5t-17 -69.5h-2q-10 27 -10 56
q0 53 35.5 89.5t93.5 36.5q19 18 27.5 45t8.5 79v454q-38 -37 -62.5 -81.5t-24.5 -90.5q0 -78 80 -146q-93 51 -135 94.5t-42 81.5q0 44 47 81.5t137 85.5v113q0 39 21.5 64.5t52 39.5t79.5 30q52 17 76 30.5t24 38.5q0 14 -7 27h1q23 -23 23 -59t-21.5 -60.5t-51.5 -38.5
t-79 -30q-54 -17 -81 -33t-27 -42v-74q75 40 120.5 68t74.5 59l-13 -33q-14 -34 -19 -56t-5 -61v-408q0 -79 -36.5 -129.5t-106.5 -52.5q25 14 39 49t14 92v501q-28 -14 -68 -51v-430q0 -41 9 -60.5t27 -27.5q-15 -8 -25.5 -29t-10.5 -41v-2q32 -5 63 -14t71 -24
q43 -15 70 -22.5t51 -7.5q45 0 79.5 43.5t53 114t18.5 149.5q0 137 -47.5 225t-177.5 116z" />
    <glyph glyph-name="E" unicode="E" horiz-adv-x="584" 
d="M540 471q24 -69 24 -129q0 -59 -20.5 -102.5t-59.5 -99.5q-31 -45 -46 -75t-15 -65h-191q-27 0 -47 4v-103q0 -18 5 -43q1 -7 3 -22.5t2 -27.5q0 -25 -11 -39.5t-39 -14.5q30 51 30 147v105q-81 19 -123 88t-42 165q0 98 43.5 195.5t121.5 159.5v225q0 39 21.5 64.5
t52 39.5t79.5 30q52 17 76 30.5t24 38.5q0 14 -7 27h1q23 -23 23 -59t-21.5 -60.5t-51.5 -38.5t-79 -30q-54 -17 -81 -33t-27 -42v-255q17 69 63.5 109t121.5 40h94q45 0 73 13.5t36 48.5l1 -1q0 -42 -5 -73.5t-30.5 -59.5t-80.5 -28h-131q-76 0 -109 -42t-33 -96v-31
q15 45 50 62t86 17h76q32 0 49.5 14.5t23.5 47.5h2q0 -14 1 -22l1 -33q0 -47 -20 -77t-78 -30h-55q-56 0 -79.5 -2t-40 -13t-16.5 -38q0 -71 36 -87q-15 -14 -25.5 -39.5t-10.5 -54.5v-55q50 -31 121 -31h51q54 0 89 26t50.5 63.5t15.5 74.5q0 42 -19.5 68.5t-41.5 26.5
q-15 0 -24 -15l-2 2q5 15 17.5 26t35.5 26q33 20 48 37t12 46h2zM106 215q23 -55 69 -87v41q0 26 -12 40t-31 16q24 26 33.5 52.5t9.5 79.5v256q-44 -60 -68 -132.5t-24 -142.5q0 -68 23 -123z" />
    <glyph glyph-name="F" unicode="F" horiz-adv-x="585" 
d="M42 459.5q-20 19.5 -20 54.5q0 48 22 99t62.5 85t91.5 34q7 0 23 -2l322 -50q17 -3 33 -3q29 0 47.5 9.5t18.5 29.5q0 22 -22 51q-14 20 -14 30q0 4 2 6t4 2q9 0 15 -13q25 -55 25 -107q0 -47 -24.5 -76t-78.5 -29l-396 50q-8 1 -22 1q-42 0 -64.5 -20t-22.5 -43
q0 -19 15 -33t40 -14q17 0 32.5 8t24.5 25v-69q-9 -22 -27 -33.5t-39 -11.5q-28 0 -48 19.5zM205 -95q-50 24 -75 62t-25 79q0 36 18 66t52 48q-26 -33 -26 -71q0 -41 30.5 -69t79.5 -28q51 0 86.5 32t35.5 92q0 49 -18.5 88.5t-52.5 81.5h-147q-29 0 -41.5 -5.5
t-21.5 -26.5q0 57 17.5 84t60.5 27h66q-20 27 -31 51.5t-11 51.5t16.5 58t53.5 76l2 -3q-16 -29 -16 -57q0 -37 21.5 -69.5t66.5 -82.5q16 -16 23 -25h123q21 0 32.5 6t26.5 25q0 -55 -17 -82.5t-58 -27.5h-50q16 -32 16 -64q0 -51 -14.5 -85.5t-43.5 -79.5
q-30 -46 -45 -83.5t-15 -92.5q-69 0 -119 24z" />
    <glyph glyph-name="G" unicode="G" horiz-adv-x="613" 
d="M575 471q29 -57 29 -117q0 -57 -22.5 -106.5t-64.5 -117.5q-30 -44 -44.5 -74t-14.5 -56h-173q-23 0 -50 5v-93q0 -18 5 -43q1 -7 3 -22.5t2 -27.5q0 -25 -11 -39.5t-39 -14.5q30 51 30 147v95q-92 24 -140 112.5t-48 207.5q0 110 40.5 212t115.5 161q-43 -58 -66.5 -137
t-23.5 -161q0 -94 31 -170t91 -113v131q0 38 -15 57.5t-30.5 25.5t-40.5 11q44 27 64.5 56t20.5 76q0 102 49.5 163t139.5 61h109q36 0 60 11t25 50h2q9 -36 9 -60q0 -45 -24.5 -73t-76.5 -28h-155q-75 0 -101 -34.5t-26 -89.5q0 -46 21.5 -58.5t50.5 -12.5q-32 -22 -52 -59
t-20 -90v-143q43 -23 97 -23h30q68 0 116.5 36t73 88t24.5 99h-202q-42 0 -61 -36.5t-19 -86.5h-7q0 104 32 163.5t98 59.5h90q40 0 54.5 14.5t11.5 43.5h2z" />
    <glyph glyph-name="H" unicode="H" horiz-adv-x="637" 
d="M647 474q0 -17 -9.5 -32.5t-32.5 -15.5q27 14 27 29q0 19 -23.5 33t-56.5 14q-11 0 -16 -1v-369q0 -14 10.5 -29t26.5 -20l22 25l8 -7l-82 -101q-46 35 -60.5 65.5t-14.5 66.5v330q-64 -53 -88 -160v-59q0 -91 -41 -125.5t-114 -35.5v-32q22 -18 40.5 -28t38.5 -10
q28 0 44 16.5t16 36.5q0 21 -16 31l1 3q31 -11 31 -47q0 -25 -16.5 -50t-51.5 -42t-87 -19v-40q0 -18 5 -43q1 -7 3 -22.5t2 -27.5q0 -25 -11 -39.5t-39 -14.5q30 51 30 147v40q-55 51 -90.5 73.5t-51.5 22.5q-13 0 -13 -11q0 -8 7 -17.5t17 -14.5q-24 0 -38 16.5t-14 38.5
q0 27 20 48t57 21q26 0 48.5 -14.5t57.5 -45.5v82q0 28 -13 56t-30 38q23 22 33 46.5t10 76.5v243q-39 -66 -62 -134.5t-23 -123.5q0 -73 42 -108q-94 51 -94 134q0 53 35.5 117.5t101.5 145.5v208q0 39 21.5 64.5t52 39.5t79.5 30q52 17 76 30.5t24 38.5q0 14 -7 27h1
q23 -23 23 -59t-21.5 -60.5t-51.5 -38.5t-79 -30q-54 -17 -81 -33t-27 -42v-162q60 71 150 169l42 46l1 -1q-20 -50 -29 -88.5t-9 -90.5v-289q-2 -2 37 40q32 36 51 55v102q0 30 -20 43l110 70v-153q10 3 22 3q89 0 89 -76zM203 497q0 -75 16.5 -108t48.5 -40v356
q-34 -39 -65 -88v-120zM203 85q37 20 51 57.5t14 117.5v56q-47 29 -65 95v-54q0 -67 30 -88q-17 -20 -23.5 -48t-6.5 -81v-55z" />
    <glyph glyph-name="I" unicode="I" horiz-adv-x="393" 
d="M203 644q60 71 150 169l42 46l1 -1q-20 -50 -29 -88.5t-9 -90.5v-436q0 -91 -41 -125.5t-114 -35.5v-32q22 -18 40.5 -28t38.5 -10q28 0 44 16.5t16 36.5q0 21 -16 31l1 3q31 -11 31 -47q0 -25 -16.5 -50t-51.5 -42t-87 -19v-40q0 -18 5 -43q1 -7 3 -22.5t2 -27.5
q0 -25 -11 -39.5t-39 -14.5q30 51 30 147v40q-55 51 -90.5 73.5t-51.5 22.5q-13 0 -13 -11q0 -8 7 -17.5t17 -14.5q-24 0 -38 16.5t-14 38.5q0 27 20 48t57 21q26 0 48.5 -14.5t57.5 -45.5v82q0 28 -13 56t-30 38q23 22 33 46.5t10 76.5v243q-39 -66 -62 -134.5t-23 -123.5
q0 -73 42 -108q-94 51 -94 134q0 53 35.5 117.5t101.5 145.5v208q0 39 21.5 64.5t52 39.5t79.5 30q52 17 76 30.5t24 38.5q0 14 -7 27h1q23 -23 23 -59t-21.5 -60.5t-51.5 -38.5t-79 -30q-54 -17 -81 -33t-27 -42v-162zM268 705q-34 -39 -65 -88v-260q0 -67 30 -88
q-17 -20 -23.5 -48t-6.5 -81v-55q37 20 51 57.5t14 117.5v445z" />
    <glyph glyph-name="J" unicode="J" horiz-adv-x="529" 
d="M340 732q80 43 123 69.5t71 57.5l-13 -33q-14 -34 -19 -56t-5 -61v-408q0 -79 -36.5 -129.5t-106.5 -52.5q25 14 39 49t14 92v501q-28 -14 -67 -50v-354q0 -67 30 -88q-17 -20 -23.5 -48t-6.5 -81v-82q60 -46 82 -46q15 0 32 18t17 39q0 15 -8 27l11 10q9 -21 9 -42
q0 -47 -38 -79.5t-105 -42.5v-41q0 -18 5 -43q1 -7 3 -22.5t2 -27.5q0 -25 -11 -39.5t-39 -14.5q30 51 30 147v40q-85 90 -161 142t-117 52q-11 0 -22 -7t-11 -17q0 -15 27 -29q-23 0 -32.5 15.5t-9.5 32.5q0 76 89 76q37 0 86.5 -30.5t119.5 -85.5l31 -24v74q0 28 -13 56
t-30 38q23 22 33 46.5t10 76.5v345q-38 -37 -63 -81.5t-25 -91.5q0 -78 80 -146q-93 51 -135 94.5t-42 81.5q0 44 47 82t138 86v112q0 39 21.5 64.5t52 39.5t79.5 30q52 17 76 30.5t24 38.5q0 14 -7 27h1q23 -23 23 -59t-21.5 -60.5t-51.5 -38.5t-79 -30q-54 -17 -81 -33
t-27 -42v-74z" />
    <glyph glyph-name="K" unicode="K" horiz-adv-x="747" 
d="M832 -26q12 -21 12 -41q0 -43 -48 -78t-117 -53q-38 76 -60 161t-43 200q-17 90 -26 124q-19 71 -47 87q-12 7 -30 4h-3q-35 -68 -95.5 -121t-140.5 -79q24 -5 41.5 -17t42.5 -35q29 -28 53.5 -42.5t60.5 -14.5q19 0 30.5 11.5t11.5 30.5q0 22 -10 37t-30 36
q-11 10 -16 16.5t-5 12.5q0 15 13 15q28 0 42.5 -47t14.5 -94q0 -45 -23 -73.5t-72 -28.5q-29 0 -64.5 22t-90.5 65q-46 36 -72 53t-44 17q-15 0 -22.5 -10.5t-7.5 -26.5q0 -18 9 -33.5t22 -15.5q-7 -16 -20 -24t-27 -8q-17 0 -29 10t-12 27q0 24 26 52.5t67.5 47.5t84.5 19
q67 22 115 71.5t73 112t25 123.5q0 47 -15.5 87t-43.5 63.5t-62 23.5q-50 0 -50 -49q0 -19 5.5 -42t16.5 -57q8 -24 14 -48.5t6 -39.5q0 -35 -23 -73.5t-59.5 -64.5t-73.5 -26q-21 0 -31.5 8.5t-10.5 21.5q0 16 15 30t35 14q-12 -8 -12 -17q0 -11 17 -20.5t38 -9.5
q35 0 35 38q0 17 -5.5 39.5t-16.5 58.5q-23 71 -23 101q0 44 27 84.5t69 65.5t83 25q76 0 115.5 -46.5t39.5 -119.5v-12q34 102 65.5 155t72.5 53q22 1 44.5 -6t56.5 -20q43 -18 59 -18q12 0 17.5 6.5t5.5 23.5q0 23 -11.5 43.5t-24.5 20.5q-10 0 -18 -13q-1 22 12.5 38
t31.5 16q34 0 34 -57q0 -38 -18 -76t-44.5 -62t-50.5 -24q-20 0 -35.5 7t-37.5 20q-20 12 -30.5 17t-24.5 5q-31 -1 -59 -56.5t-56 -140.5q-8 -26 -13 -38l-10 -30q13 28 40 46.5t56 18.5q28 0 49 -43.5t35.5 -105.5t33.5 -163q25 -133 43.5 -196t45.5 -63q17 0 35 13.5
t18 35.5q0 15 -12 35z" />
    <glyph glyph-name="L" unicode="L" horiz-adv-x="504" 
d="M786 -41q0 -43 -48 -78t-117 -53q-87 59 -178.5 110.5t-162.5 78.5v-116q0 -18 5 -43q1 -7 3 -22.5t2 -27.5q0 -25 -11 -39.5t-39 -14.5q30 51 30 147v120q-55 20 -91 20q-49 0 -48 -41q-12 26 -12 48q0 34 27.5 55t80.5 21q21 0 32 33t11 90v455q-38 -37 -63 -81.5
t-25 -91.5q0 -78 80 -146q-93 51 -135 94.5t-42 81.5q0 44 47 82t138 86v112q0 39 21.5 64.5t52 39.5t79.5 30q52 17 76 30.5t24 38.5q0 14 -7 27h1q23 -23 23 -59t-21.5 -60.5t-51.5 -38.5t-79 -30q-54 -17 -81 -33t-27 -42v-74q80 43 123 69.5t71 57.5l-13 -33
q-14 -34 -19 -56t-5 -61v-408q0 -79 -36.5 -129.5t-106.5 -52.5q25 14 39 49t14 92v501q-28 -14 -67 -50v-464q0 -47 4.5 -73.5t17.5 -37.5q-13 -6 -18 -24q45 -15 102.5 -43.5t152.5 -78.5q79 -42 123 -63t60 -21q25 0 40.5 14t15.5 32q0 19 -18 33q-9 7 -9 13q0 4 3 7t8 3
q6 0 12 -8q12 -17 12 -41z" />
    <glyph glyph-name="M" unicode="M" horiz-adv-x="824" 
d="M505 59l9 -1q-19 -26 -60.5 -46t-83.5 -20q-41 0 -66.5 20.5t-56.5 60.5q-28 37 -46 50q-17 -12 -55 -36l-3 4q21 15 46 38q-10 6 -25 6q-17 0 -32.5 -13.5t-15.5 -25.5t16 -12q8 0 11 1q-16 -10 -40 -10q-16 0 -26.5 5t-10.5 14q0 21 46.5 34.5t89.5 13.5q69 70 105 158
t36 171q0 98 -42 147t-113 49q-31 0 -31 -32q0 -17 7.5 -40t22.5 -63q17 -45 24 -67t7 -40q0 -37 -15 -75t-45 -63.5t-70 -25.5q-27 0 -48.5 16.5t-33.5 42t-12 51.5q0 28 15 46t44 18q-2 -8 -2 -21q0 -45 16.5 -90t49.5 -45q43 0 43 36q0 16 -7 37t-15.5 41t-10.5 26
q-17 39 -25.5 63t-8.5 43q0 54 24.5 96t64 65t83.5 23q45 0 86 -23.5t66.5 -67.5t25.5 -102q0 -90 -55.5 -191t-162.5 -184q48 -4 78 -22.5t62 -50.5q23 -23 38.5 -33.5t37.5 -10.5q29 0 64 35zM607 286v-154q0 -14 10.5 -29t26.5 -20l22 25l8 -7l-82 -101
q-46 35 -60.5 65.5t-14.5 66.5v174q-20 2 -30 2q-20 0 -30.5 -9.5t-10.5 -23.5q0 -15 12.5 -27t33.5 -12v-5q-36 0 -53.5 18.5t-17.5 45.5q0 31 20 56t51 25q7 0 25 -2v208q0 40 -58 40h-23l63 78h8q44 0 72 -28.5t28 -67.5v-253q32 -10 49 -10q9 0 13 3t7 10.5t3 15.5
q0 28 -26 42l6 4q30 -20 30 -55q0 -22 -11.5 -47t-29.5 -47q-14 9 -41 19zM856 108l8 -7l-82 -101q-46 35 -60.5 65.5t-14.5 66.5v450q0 40 -58 40h-23l63 78h8q44 0 72 -28.5t28 -67.5v-472q0 -14 10.5 -29t26.5 -20z" />
    <glyph glyph-name="N" unicode="N" horiz-adv-x="684" 
d="M446 634l53 66h8q44 0 72 -28.5t28 -67.5v-472q0 -14 10.5 -29t26.5 -20l22 25l8 -7l-82 -101q-46 35 -60.5 65.5t-14.5 66.5v450q0 40 -58 40h-13v-375q0 -47 4.5 -73.5t17.5 -37.5q-11 -5 -16.5 -18.5t-5.5 -28.5v-188q0 -18 5 -43q1 -7 3 -22.5t2 -27.5
q0 -25 -11 -39.5t-39 -14.5q30 51 30 147v158q0 19 -7 34t-18 23q2 -10 2 -29q0 -45 -23 -73.5t-72 -28.5q-34 0 -72 23.5t-93 68.5q-41 34 -65 49.5t-41 15.5q-16 0 -25 -13t-9 -30q0 -19 9.5 -31.5t25.5 -11.5q-7 -17 -19.5 -25.5t-25.5 -8.5q-17 0 -25.5 9t-8.5 25
q0 25 21 54t61 49.5t94 20.5q104 50 154.5 128.5t50.5 161.5q0 51 -18.5 94t-51 68.5t-73.5 25.5q-53 0 -53 -40q0 -17 8 -40t24 -57q17 -37 24.5 -58t7.5 -38q0 -34 -25.5 -73t-64 -65t-76.5 -26q-21 0 -31.5 8.5t-10.5 21.5q0 16 15 30t35 14q-12 -8 -12 -17
q0 -11 17 -20.5t38 -9.5q19 0 26.5 10t7.5 28q0 28 -21 95q-12 41 -17.5 63t-5.5 41q0 49 26.5 89t68 63t84.5 23q72 0 113.5 -36t50.5 -96v271q0 39 21.5 64.5t52 39.5t79.5 30q52 17 76 30.5t24 38.5q0 14 -7 27h1q23 -23 23 -59t-21.5 -60.5t-51.5 -38.5t-79 -30
q-54 -17 -81 -33t-27 -42v-172zM436 247v260q-11 -91 -81.5 -182t-188.5 -147q27 -5 47.5 -18.5t46.5 -37.5q30 -27 51.5 -40t50.5 -13q19 0 30.5 11.5t11.5 30.5q0 7 -1 10q-5 3 -10 3q3 0 9 2q-7 29 -40 57q-20 17 -20 34q0 7 4.5 11t9.5 2q22 -10 35 -37t19 -62
q26 24 26 116z" />
    <glyph glyph-name="O" unicode="O" horiz-adv-x="585" 
d="M525 471q24 -69 24 -129q0 -59 -20.5 -102.5t-59.5 -99.5q-31 -45 -46 -75t-15 -65h-98q-33 0 -65 8v-96q0 -18 5 -43q1 -7 3 -22.5t2 -27.5q0 -25 -11 -39.5t-39 -14.5q30 51 30 147v98q-66 19 -112.5 70.5t-70 122.5t-23.5 150q0 105 42 199.5t122 147.5
q-37 -50 -58 -129t-21 -163q0 -97 30 -175t91 -115v132q0 46 -26.5 64.5t-60.5 18.5q38 34 62.5 75.5t24.5 68.5v117q0 62 19 104t50.5 62t67.5 20q65 0 102.5 -55t37.5 -137q0 -53 -17 -108t-50 -104l19 12q32 20 47 37t12 46h2zM431 116q35 26 50.5 63.5t15.5 74.5
q0 42 -19.5 68.5t-41.5 26.5q-8 0 -15 -5l-9 -10l-2 2l1 4v1q44 78 44 162q0 61 -21.5 114.5t-54.5 85t-64 31.5t-50.5 -35.5t-19.5 -107.5v-114q0 -30 28 -51t58 -21q-29 -25 -45 -42.5t-28.5 -44t-12.5 -62.5v-143q41 -23 97 -23q54 0 89 26z" />
    <glyph glyph-name="P" unicode="P" horiz-adv-x="743" 
d="M645.5 313q19.5 25 19.5 54q0 31 -15 66.5t-46 92.5q-22 40 -34.5 67t-15.5 48q-22 -25 -44.5 -62.5t-36.5 -84.5v-249q0 -24 7 -40t23 -31q-19 -12 -49.5 -58t-50.5 -111q25 -12 65 -36q35 -20 53 -28.5t32 -8.5q41 0 41 42q0 23 -14 59q28 -43 28 -88q0 -41 -23 -68.5
t-56 -27.5q-32 0 -63 14t-79 42q-39 24 -65.5 36t-50.5 12t-41.5 -10t-31.5 -42q0 41 19.5 69.5t48.5 42.5t55 14q28 0 62 -13v408q0 56 -16 116.5t-45.5 101t-67.5 40.5q-51 0 -82.5 -38.5t-31.5 -91.5q0 -25 10.5 -46.5t30.5 -52.5q18 -25 26.5 -42.5t8.5 -36.5
q0 -41 -27.5 -87.5t-67 -78t-73.5 -31.5q-19 0 -28.5 10.5t-9.5 26.5q0 19 13.5 35t31.5 16q-10 -9 -10 -21q0 -14 11.5 -24.5t28.5 -10.5q26 0 43.5 21t17.5 51q0 18 -14.5 46t-59.5 97q-15 23 -15 51q0 54 46 116.5t113.5 105t128.5 42.5q57 0 91 -47l37 49v-215
q17 54 59 115.5t103 97.5q-2 -10 -2 -15q0 -28 17 -65.5t49 -93.5q21 -37 31 -58t10 -32q0 -57 -44.5 -123t-139.5 -131q-35 44 -46 76.5t-11 74.5q26 -43 51 -62.5t48 -19.5q28 0 47.5 25z" />
    <glyph glyph-name="Q" unicode="Q" horiz-adv-x="610" 
d="M667 9q17 0 28 11v-1q-11 -29 -32.5 -44t-45.5 -15q-44 0 -88.5 31.5t-98.5 87.5q-22 -42 -22 -79h-98q-33 0 -65 8v-96q0 -18 5 -43q1 -7 3 -22.5t2 -27.5q0 -25 -11 -39.5t-39 -14.5q30 51 30 147v98q-66 19 -112.5 70.5t-70 122.5t-23.5 150q0 105 42 199.5t122 147.5
q-37 -50 -58 -129t-21 -163q0 -97 30 -175t91 -115v132q0 46 -26.5 64.5t-60.5 18.5q38 34 62.5 75.5t24.5 68.5v117q0 62 19 104t50.5 62t67.5 20q65 0 102.5 -55t37.5 -137q0 -53 -17 -108t-50 -104l19 12q32 20 47 37t12 46h2q24 -69 24 -129q0 -56 -19 -99.5t-54 -92.5
l30 -29q44 -42 73 -67q55 -45 88 -45zM245 477q0 -30 28 -51t58 -21q-29 -25 -45 -42.5t-28.5 -44t-12.5 -62.5v-94q24 37 46.5 54.5t47.5 17.5q26 0 58 -21t72 -57q14 22 21 48t7 50q0 42 -19.5 68.5t-41.5 26.5q-8 0 -15 -5l-9 -10l-2 2l1 4v1q44 78 44 162
q0 61 -21.5 114.5t-54.5 85t-64 31.5t-50.5 -35.5t-19.5 -107.5v-114zM407 103q-42 42 -67 62.5t-45 20.5q-24 0 -45 -41l-5 3v-35q41 -23 97 -23q36 0 65 13z" />
    <glyph glyph-name="R" unicode="R" horiz-adv-x="656" 
d="M870.5 -64.5q5.5 -7.5 5.5 -18.5q0 -19 -18.5 -43t-46.5 -41t-54 -17q-37 0 -72.5 38.5t-66 95.5t-77.5 156q-7 14 -34 70.5t-52 101.5q0 -70 36 -86q-15 -14 -25.5 -39.5t-10.5 -54.5v-275q0 -18 5 -43q1 -7 3 -22.5t2 -27.5q0 -25 -11 -39.5t-39 -14.5q30 51 30 147
v268q0 26 -12 40t-31 16q24 26 33.5 52.5t9.5 79.5v17q-40 69 -76 107l-1 -251v-17q0 -24 7 -40t23 -31q-15 -10 -40 -44t-47.5 -89t-30.5 -124h-2v654q-12 3 -25 3q-20 0 -36 -28t-25.5 -72t-9.5 -89q0 -43 9 -76q2 -6 2 -9q0 -9 -6 -15t-15 -6t-16 6.5t-8 19.5q-1 8 -1 27
q0 50 14.5 109t44 106t72.5 63v69q0 64 -15 105.5t-38 60t-49 18.5q-25 0 -43 -17t-18 -42q0 -17 8 -40t24 -57q17 -37 24.5 -58t7.5 -38q0 -34 -25.5 -73t-64 -65t-76.5 -26q-21 0 -31.5 8.5t-10.5 21.5q0 16 15 30t35 14q-12 -8 -12 -17q0 -11 17 -20.5t38 -9.5
q19 0 26.5 10t7.5 28q0 28 -21 95q-12 41 -17.5 63t-5.5 41q0 49 26.5 89t68 63t84.5 23q40 0 71 -29t48 -76.5t17 -101.5v-29q8 25 28.5 57t47.5 62v102q0 39 21.5 64.5t52 39.5t79.5 30q52 17 76 30.5t24 38.5q0 14 -7 27h1q23 -23 23 -59t-21.5 -60.5t-51.5 -38.5
t-79 -30q-54 -17 -81 -33t-27 -42v-58q41 42 79 67q1 -16 11 -37t30 -54q30 -51 46.5 -89t16.5 -77q0 -90 -108 -157q34 -61 88 -176q45 -96 75 -151.5t65.5 -92.5t74.5 -37q9 0 15 5.5t6 13.5q0 6 -9 18t-9 22q0 8 5 13t13 5q11 0 16.5 -7.5zM548.5 479q-15.5 33 -48.5 87
q-14 23 -27 45.5t-18 38.5v-218q37 -41 68 -95q41 31 41 77q0 32 -15.5 65zM369 496q39 -16 76 -53v195q-22 -27 -43 -65t-33 -71v-6z" />
    <glyph glyph-name="S" unicode="S" horiz-adv-x="626" 
d="M379 741q17 5 30 5q34 0 64.5 -24.5t30.5 -54.5q0 -13 -5.5 -24t-19.5 -31q-18 -25 -26.5 -43.5t-8.5 -44.5h-8q3 48 -13.5 89.5t-43.5 63.5v-205q49 17 79 25t56 8q70 0 70 -78v-157q0 -36 4.5 -64.5t16.5 -50.5q-79 -57 -140.5 -108.5t-85.5 -94.5v-50q0 -18 5 -43
q1 -7 3 -22.5t2 -27.5q0 -25 -11 -39.5t-39 -14.5q30 51 30 147v62q-37 41 -97.5 76t-112.5 35q-56 0 -84 -47h-7l152 217h19l-63 -83q23 5 38 5q39 0 71 -20t84 -65v88q0 26 -12 40t-31 16q24 26 33.5 52.5t9.5 79.5v98l-35 -13q-45 -18 -75 -27t-54 -9q-69 0 -65 96
q1 29 -1.5 37.5t-10 15t-12.5 12.5l94 68q64 47 97.5 69t61.5 33v102q0 39 21.5 64.5t52 39.5t79.5 30q52 17 76 30.5t24 38.5q0 14 -7 27h1q23 -23 23 -59t-21.5 -60.5t-51.5 -38.5t-79 -30q-54 -17 -81 -33t-27 -42v-66zM369 685q-18 10 -33 10q-41 0 -73.5 -30t-32.5 -78
v-108q0 -36 37 -36q30 0 102 26v216zM379 459v-101q0 -71 36 -87q-15 -14 -25.5 -39.5t-10.5 -54.5v-104q13 -12 43 -36q27 17 49.5 54.5t22.5 83.5v237q0 61 -50 61q-23 0 -65 -14z" />
    <glyph glyph-name="T" unicode="T" horiz-adv-x="507" 
d="M724.5 828q-47.5 -49 -108 -90t-163.5 -104v-853h-2q-8 69 -30.5 124t-47.5 89t-40 44q16 15 23 31t7 40v468q-102 -64 -157.5 -110.5t-55.5 -90.5q0 -50 53 -71.5t110 -21.5q15 0 20 1q-32 -26 -32 -67q0 -18 3 -36q1 -6 2 -18.5t1 -21.5q0 -37 -17 -66h-1q1 8 1 24
q0 26 -6 50q-11 41 -36 74.5t-56.5 53t-61.5 19.5q-20 0 -31.5 -10t-11.5 -24q0 -3 2 -11l-1 -2q-28 17 -38.5 34t-10.5 38q0 47 43 92t151.5 114.5t355.5 212.5v1l-73 -22q-150 -45 -251 -83t-176.5 -92t-71.5 -119h-2q-5 14 -5 34q0 32 14.5 62.5t40.5 69.5q19 28 29 47.5
t10 35.5q46 15 102.5 28.5t146.5 32.5q132 27 213 48.5t136.5 54.5t55.5 78q0 13 -8 25t-19 19q-22 15 -22 30q0 7 5 11.5t14 4.5q17 -1 30.5 -27t13.5 -58q0 -44 -47.5 -93z" />
    <glyph glyph-name="U" unicode="U" horiz-adv-x="675" 
d="M666 108l8 -7l-82 -101q-41 31 -56.5 59t-18.5 58q-13 -52 -39.5 -81.5t-51 -40.5t-34.5 -11q-39 0 -66.5 13t-45.5 31.5t-40 48.5t-38 44t-38 14q-21 0 -32 -10t-11 -24q0 -16 13 -27q-14 -11 -29 -11q-14 0 -23.5 8t-9.5 18q0 26 38 39.5t79 13.5q92 23 138.5 96.5
t46.5 166.5q0 65 -22 124t-61.5 95.5t-90.5 36.5q-16 0 -29 -16.5t-13 -30.5t6.5 -33t21.5 -53q16 -36 24 -60t8 -43q0 -34 -25.5 -73t-64 -65t-76.5 -26q-21 0 -31.5 8.5t-10.5 21.5q0 16 15 30t35 14q-12 -8 -12 -17q0 -11 17 -20.5t38 -9.5q35 0 35 38q0 17 -5.5 39.5
t-16.5 58.5q-23 71 -23 101q0 43 31 83.5t74.5 66t73.5 25.5q58 0 101.5 -31.5t66.5 -84t23 -114.5q0 -66 -27 -131t-82.5 -118t-137.5 -81q39 -5 70 -19.5t67 -38.5q30 -19 47.5 -27.5t35.5 -8.5q40 0 58.5 37t22.5 112v397q0 29 -7.5 49t-19.5 30l133 108
q-6 -11 -11 -44.5t-5 -68.5v-534q0 -14 10.5 -29t26.5 -20z" />
    <glyph glyph-name="V" unicode="V" horiz-adv-x="710" 
d="M378 6q-41 21 -93 59q-35 25 -55 36.5t-38 11.5q-24 0 -43 -27t-36 -86h-16q22 70 52.5 114.5t78.5 96.5q38 40 59.5 69.5t35.5 73.5t14 106q0 79 -39.5 130t-108.5 51q-31 0 -31 -27q0 -21 8.5 -45.5t25.5 -65.5q13 -29 19.5 -47t6.5 -31q0 -34 -25.5 -73t-64 -65
t-76.5 -26q-21 0 -31.5 8.5t-10.5 21.5q0 16 15 30t35 14q-3 -6 -3 -12q0 -14 13.5 -24.5t32.5 -10.5q35 0 35 38q0 23 -6 48t-18 60q-11 33 -16 53.5t-5 37.5q0 43 31 83.5t74.5 66t73.5 25.5q74 0 117 -53.5t43 -135.5q0 -84 -48.5 -171.5t-143.5 -150.5q42 3 83 -25
t99 -83q40 -37 62.5 -54t39.5 -17q59 0 59 81q0 38 -10 87.5t-31 134.5q-23 88 -35.5 151t-12.5 113q0 62 24.5 96t81.5 34q23 0 53 -6v-4q-56 -7 -56 -91q0 -35 7.5 -79t23.5 -118q18 -89 27 -143.5t9 -103.5q0 -56 -31.5 -96.5t-77.5 -60.5t-87 -20q-49 0 -90 21z" />
    <glyph glyph-name="W" unicode="W" horiz-adv-x="942" 
d="M921 691q-53 -5 -75.5 -32t-22.5 -73q0 -35 10 -78.5t31 -113.5q23 -77 35.5 -130.5t12.5 -101.5q0 -56 -25.5 -96t-60.5 -60.5t-63 -20.5q-31 0 -51.5 6.5t-44.5 18.5q-15 8 -26.5 12t-24.5 4q-16 0 -39 -9q-13 -8 -31 -16l-2 -1h-1q-39 -15 -75 -15q-49 0 -90 21
t-93 59q-35 25 -55 36.5t-38 11.5q-24 0 -43 -27t-36 -86h-16q22 70 52.5 114.5t78.5 96.5q38 40 59.5 69.5t35.5 73.5t14 106q0 79 -39.5 130t-108.5 51q-31 0 -31 -27q0 -21 8.5 -45.5t25.5 -65.5q13 -29 19.5 -47t6.5 -31q0 -34 -25.5 -73t-64 -65t-76.5 -26
q-21 0 -31.5 8.5t-10.5 21.5q0 16 15 30t35 14q-3 -6 -3 -12q0 -14 13.5 -24.5t32.5 -10.5q35 0 35 38q0 23 -6 48t-18 60q-11 33 -16 53.5t-5 37.5q0 43 31 83.5t74.5 66t73.5 25.5q74 0 117 -53.5t43 -135.5q0 -84 -48.5 -171.5t-143.5 -150.5q42 3 83 -25t99 -83
q40 -37 62.5 -54t39.5 -17q59 0 59 81q0 44 -12 152h-92q-12 0 -18.5 -5.5t-6.5 -13.5q0 -7 3 -13h-4q-16 13 -16 34q0 20 15 36.5t37 16.5h76l-6 51q-17 133 -26 219t-9 139q0 62 24.5 96t81.5 34q23 0 53 -6v-4q-56 -7 -56 -91q0 -45 7.5 -136t8.5 -109q3 -35 7 -84
t8 -109h41q13 0 21 8t8 20q0 10 -4 18h3q16 -20 16 -44t-14 -40.5t-35 -16.5h-33q3 -46 3 -81q0 -60 -39 -106q28 11 51 11q19 0 33.5 -6t35.5 -19q19 -11 31 -16.5t27 -5.5q44 0 44 52q0 30 -11.5 73t-33.5 112q-30 93 -46.5 158t-16.5 121q0 78 41.5 121.5t140.5 43.5v-10
z" />
    <glyph glyph-name="X" unicode="X" horiz-adv-x="577" 
d="M404 179q31 -68 79.5 -128t93.5 -60v-1q-25 -18 -63 -18q-49 0 -100 37.5t-92 124.5l-65 138q2 -12 2 -36q0 -63 -24 -121t-63 -94t-81 -36q-53 0 -78 41.5t-25 96.5q0 41 15 68q0 -39 26.5 -70.5t66.5 -31.5q38 0 72.5 20t55.5 56.5t21 82.5q0 39 -18 84h-130
q-25 0 -38.5 -6t-18.5 -21q0 50 16.5 73t63.5 23h75l-49 104q-18 39 -18 78q0 56 34 83q-28 6 -66 6q-60 0 -96.5 -22t-36.5 -62q0 -34 28 -78l-7 -3q-57 79 -57 144q0 33 14.5 57.5t34.5 36.5t38 12q25 0 52.5 -15t67.5 -42q20 -15 40 -26l106 -229q-1 10 -1 29
q0 64 22 124.5t60.5 98.5t85.5 38q31 0 45 -21.5t14 -56.5q0 -33 -10.5 -70t-22.5 -58q-1 45 -21 68t-49 23q-49 0 -77.5 -44.5t-28.5 -108.5q0 -33 9 -66h159q21 0 33 4t20 21q0 -94 -67 -94h-117z" />
    <glyph glyph-name="Y" unicode="Y" horiz-adv-x="633" 
d="M607 703v-645q0 -273 -139 -273q-53 0 -104 23t-115 63q-43 26 -64 36.5t-38 10.5q-31 0 -38 -51l-10 1q27 132 91 132q32 0 64.5 -26.5t79.5 -77.5q44 -47 71.5 -69.5t52.5 -22.5q32 0 45.5 72t13.5 160v72q-17 -71 -55.5 -97t-73.5 -26q-34 0 -61 20t-63 59
q-15 17 -32 33t-32 25q-26 -19 -49 -33l-1 2q20 15 42 35q-20 10 -38 10q-22 0 -34 -8t-12 -19q0 -10 9.5 -17t25.5 -7q-16 -10 -38 -10t-38 9.5t-16 25.5q0 15 20 25.5t61 10.5q34 0 71 -8q70 74 108.5 177.5t38.5 185.5q0 69 -21 115t-52.5 67.5t-63.5 21.5
q-28 0 -46.5 -15t-18.5 -40q0 -19 9 -40.5t27 -54.5t26 -52.5t8 -37.5q0 -34 -25.5 -73t-64 -65t-76.5 -26q-21 0 -31.5 8.5t-10.5 21.5q0 16 15 30t35 14q-12 -8 -12 -17q0 -11 17 -20.5t38 -9.5q35 0 35 38q0 17 -5.5 39.5t-16.5 58.5q-23 71 -23 101q0 54 25 92.5
t65.5 58.5t86.5 20q45 0 83.5 -19t62.5 -57t24 -92q0 -63 -24 -140.5t-74.5 -155t-125.5 -137.5q33 -9 63.5 -21.5t69.5 -31.5q38 -18 60 -26.5t39 -8.5q26 0 45.5 39t23.5 109v395q0 30 -20 43z" />
    <glyph glyph-name="Z" unicode="Z" horiz-adv-x="453" 
d="M429 122q-5 -56 -26.5 -96t-68.5 -40q-22 0 -43.5 8.5t-52.5 25.5q-39 20 -63 29t-52 9q-53 0 -83 -50l-4 -8h-20l174 312q-50 16 -77 16q-54 0 -59 -61h-7q0 80 24.5 113t68.5 33q19 0 40.5 -5t54.5 -15l113 203q-42 -35 -91 -35q-37 0 -64.5 16.5t-57.5 45.5
q-19 18 -30.5 26t-22.5 8q-12 0 -20.5 -11.5t-8.5 -35.5q0 -26 8 -55h-10q-10 28 -10 64q0 48 20 83t62 35q26 0 53.5 -10.5t67.5 -30.5q39 -19 60.5 -27.5t41.5 -8.5q37 0 59 37l2 4h20l-17 -31l-158 -283q23 -8 47 -14t40 -6q26 0 41 16.5t16 55.5q7 -23 7 -52
q0 -45 -20.5 -77.5t-67.5 -32.5q-18 0 -40.5 6.5t-67.5 22.5l-108 -192q35 29 79 29q30 0 58 -10.5t71 -31.5q29 -14 46 -21t30 -7q16 0 25 11.5t13 37.5h8z" />
    <glyph glyph-name="bracketleft" unicode="[" horiz-adv-x="211" 
d="M191 -106h-171v892h171v-22h-112v-848h112v-22z" />
    <glyph glyph-name="backslash" unicode="\" horiz-adv-x="425" 
d="M37 739l368 -796h-17l-368 796h17z" />
    <glyph glyph-name="bracketright" unicode="]" horiz-adv-x="211" 
d="M191 786v-892h-171v22h112v848h-112v22h171z" />
    <glyph glyph-name="asciicircum" unicode="^" horiz-adv-x="461" 
d="M441 394l-55 -39l-157 295l-180 -288l-29 19l228 352z" />
    <glyph glyph-name="underscore" unicode="_" horiz-adv-x="391" 
d="M356 -33h-336l15 17h336z" />
    <glyph glyph-name="grave" unicode="`" horiz-adv-x="185" 
d="M72 618.5q-37 30.5 -52 70.5q42 22 63 56l15 -5q12 -96 67 -160q-56 8 -93 38.5z" />
    <glyph glyph-name="a" unicode="a" horiz-adv-x="375" 
d="M377 108l8 -7l-82 -101q-60 46 -72 97q-39 -58 -84 -97q-31 0 -60.5 17.5t-48 47.5t-18.5 67v134q0 64 52.5 97t123.5 33q12 0 32 -2v29q0 27 -10 38.5t-37 11.5l-107 -1l47 78h74q48 0 85.5 -28.5t37.5 -84.5v-305q0 -14 10.5 -29t26.5 -20zM228 128v4v252l-23 1
q-38 0 -66.5 -26t-28.5 -103v-106q0 -40 26 -64t56 -24q21 24 36 66z" />
    <glyph glyph-name="b" unicode="b" horiz-adv-x="351" 
d="M308.5 175.5q1.5 -6.5 7.5 -14.5l-163 -161l-61 46q-27 20 -38.5 36.5t-16 42.5t-4.5 78v367q0 24 -4 36t-16 27q25 8 45.5 24.5t45.5 43.5q17 18 29 29.5t24 16.5v-1q-14 -10 -24 -31.5t-10 -54.5v-476q0 -33 6.5 -49.5t23.5 -29.5l46 -35l18 19v343q0 40 -58 40h-23
l63 78h8q44 0 72 -28.5t28 -67.5v-258q0 -14 1.5 -20.5z" />
    <glyph glyph-name="c" unicode="c" horiz-adv-x="304" 
d="M165.5 110.5q35.5 -24.5 90.5 -39.5l34 38l8 -7l-85 -102l-55 20q-53 20 -85.5 56.5t-32.5 77.5v186q0 58 -30 79l166 131h120l-49 -81h-154l37 -42v-264q0 -28 35.5 -52.5z" />
    <glyph glyph-name="d" unicode="d" horiz-adv-x="329" 
d="M63 79.5q-33 51.5 -33 127.5v177q0 19 -3 30.5t-13 22.5q36 13 55 42t19 60q0 21 -8.5 34t-24.5 13q-12 0 -22 -5.5t-15 -5.5t-8 4t-3 8q0 6 5 10t12 4q39 0 67.5 -31.5t28.5 -96.5v-266q0 -56 19.5 -85.5t66.5 -58.5q29 32 39.5 68.5t10.5 81.5q0 62 -25.5 125.5
t-74.5 153.5q-37 69 -54 108t-17 70q0 53 29.5 101t68.5 77.5t63 28.5q7 0 12.5 -4.5t5.5 -9.5t-4 -8.5t-10 -3.5q-4 0 -9.5 6t-11.5 6q-14 0 -34.5 -15.5t-35.5 -38t-15 -41.5q0 -45 20.5 -89t61.5 -110q49 -77 74 -133t25 -121q0 -74 -37 -151.5t-123 -163.5
q-69 28 -102 79.5z" />
    <glyph glyph-name="e" unicode="e" horiz-adv-x="308" 
d="M124 162q0 -28 35.5 -52.5t90.5 -39.5l34 38l8 -7l-85 -102l-55 20q-53 20 -85.5 56.5t-32.5 77.5v252q0 24 -5 36.5t-19 21.5l236 87l52 -185q-35 -24 -82 -84.5t-65 -105.5l-20 8q16 31 35.5 59.5t51.5 65.5l-53 192l-42 -16l1 -314v-8z" />
    <glyph glyph-name="f" unicode="f" horiz-adv-x="247" 
d="M233 433l-92 100v-226h68l-68 -78v-167q1 -24 8 -40.5t23 -30.5q-15 -10 -39.5 -44t-46.5 -89.5t-29 -124.5h-2l-4 345v151h-44l44 50v109q0 26 -12.5 43.5t-25.5 26.5l177 136l75 -79q17 -19 42 -24z" />
    <glyph glyph-name="g" unicode="g" horiz-adv-x="330" 
d="M200 552q44 0 72 -28.5t28 -67.5v-356q0 -51 -35.5 -110t-82 -112t-43.5 -47q-30 34 -53.5 48.5t-49.5 14.5q-11 0 -17 -1l61 72q40 0 71.5 -20.5t37.5 -45.5q12 15 18.5 36t6.5 43v82l-72 -60q-39 22 -75.5 64.5t-36.5 113.5v262q0 30 -20 43l110 70v-384
q0 -34 22.5 -61.5t56.5 -42.5l11 7v362q0 40 -58 40h-23l63 78h8zM139 -169z" />
    <glyph glyph-name="h" unicode="h" horiz-adv-x="351" 
d="M132 102.5q12 -12.5 36 -25.5l-62 -76q-42 26 -59 61t-17 70v448q0 36 -20 48q47 22 111 73t87 89l1 -1q-9 -19 -30 -48q-28 -41 -43.5 -71t-15.5 -62v-476q0 -17 12 -29.5zM304.5 103q10.5 -15 26.5 -20l22 25l8 -7l-82 -101q-46 35 -60.5 65.5t-14.5 66.5v300
q0 40 -58 40h-23l63 78h8q44 0 72 -28.5t28 -67.5v-322q0 -14 10.5 -29z" />
    <glyph glyph-name="i" unicode="i" horiz-adv-x="177" 
d="M139 629l-65 -65l-54 76l68 58zM130.5 99q10.5 -15 26.5 -20l22 25l8 -7l-82 -101q-46 35 -60.5 65.5t-14.5 66.5v309q0 30 -20 43l110 70v-422q0 -14 10.5 -29z" />
    <glyph glyph-name="j" unicode="j" horiz-adv-x="169" 
d="M149 637l-77 -61l-57 69l80 63zM-40 -284q46 102 64.5 151.5t18.5 84.5v485q0 30 -20 43l110 70v-504q0 -25 6 -47.5t20 -49.5v-1q-40 -10 -72.5 -48t-80.5 -115l-45 -70z" />
    <glyph glyph-name="k" unicode="k" horiz-adv-x="368" 
d="M339 82q0 -57 19 -82q-72 -19 -145 -124h-1q16 37 26.5 78.5t10.5 76.5v188q0 11 -5 21.5t-11.5 20.5t-9.5 14l-54 83l78 99h-66q-13 0 -33.5 -20t-25.5 -41v-266q0 -17 12 -29.5t36 -25.5l-62 -76q-42 26 -59 61t-17 70v486q0 58 -22 84q44 9 84 41.5t65 76.5l1 -1
q-20 -50 -29 -88.5t-9 -90.5v-215q13 65 34.5 96t58.5 31h89q9 0 38 11l-106 -140l72 -94q17 -22 24 -42.5t7 -47.5v-155z" />
    <glyph glyph-name="l" unicode="l" horiz-adv-x="177" 
d="M130.5 103q10.5 -15 26.5 -20l22 25l8 -7l-82 -101q-46 35 -60.5 65.5t-14.5 66.5v455q0 30 -20 43l110 70v-568q0 -14 10.5 -29z" />
    <glyph glyph-name="m" unicode="m" horiz-adv-x="533" 
d="M132 98.5q12 -12.5 36 -25.5l-62 -76q-42 26 -59 61t-17 70v309q0 30 -20 43l110 70v-422q0 -17 12 -29.5zM306.5 103q10.5 -15 26.5 -20l22 25l8 -7l-82 -101q-46 35 -60.5 65.5t-14.5 66.5v300q0 40 -58 40h-23l63 78h8q44 0 72 -28.5t28 -67.5v-322q0 -14 10.5 -29z
M486.5 103q10.5 -15 26.5 -20l22 25l8 -7l-82 -101q-46 35 -60.5 65.5t-14.5 66.5v300q0 40 -58 40h-23l63 78h8q44 0 72 -28.5t28 -67.5v-322q0 -14 10.5 -29z" />
    <glyph glyph-name="n" unicode="n" horiz-adv-x="353" 
d="M132 98.5q12 -12.5 36 -25.5l-62 -76q-42 26 -59 61t-17 70v309q0 30 -20 43l110 70v-422q0 -17 12 -29.5zM306.5 103q10.5 -15 26.5 -20l22 25l8 -7l-82 -101q-46 35 -60.5 65.5t-14.5 66.5v300q0 40 -58 40h-23l63 78h8q44 0 72 -28.5t28 -67.5v-322q0 -14 10.5 -29z
" />
    <glyph glyph-name="o" unicode="o" horiz-adv-x="330" 
d="M200 552q44 0 72 -28.5t28 -67.5v-324l-158 -132q-39 22 -75.5 64.5t-36.5 113.5v262q0 30 -20 43l110 70v-384q0 -34 22.5 -61.5t56.5 -42.5l11 7v362q0 40 -58 40h-23l63 78h8z" />
    <glyph glyph-name="p" unicode="p" horiz-adv-x="344" 
d="M318 191q3 -13 16 -29q-90 -54 -133 -162q-26 46 -67 85l1 -62q0 -55 -17.5 -104t-45.5 -81t-56 -39l-1 1q21 12 34 34.5t13 50.5q0 54 -49 107q21 26 21 56v359q0 28 -4 40.5t-15 17.5v6l137 95l3 -3q-11 -12 -16.5 -27t-5.5 -47v-382q8 -10 18 -15l74 89v250
q0 40 -58 40h-23l63 78h8q44 0 72 -28.5t28 -67.5v-224q0 -25 3 -38z" />
    <glyph glyph-name="q" unicode="q" horiz-adv-x="330" 
d="M460 -75q-18 -49 -52 -77.5t-77 -28.5q-42 0 -84 25q-17 10 -45 30q-27 20 -45.5 30t-38.5 10q-24 0 -55 -19v10l147 115v37l-68 -57q-39 22 -75.5 64.5t-36.5 113.5v262q0 30 -20 43l110 70v-384q0 -34 22.5 -61.5t56.5 -42.5l11 7v362q0 40 -58 40h-23l63 78h8
q44 0 72 -28.5t28 -67.5v-324q0 -30 3 -47.5t17 -36.5l-169 -85q13 4 30 4q32 0 62.5 -12.5t78.5 -37.5q31 -18 51 -26.5t36 -8.5q33 0 41 47z" />
    <glyph glyph-name="r" unicode="r" horiz-adv-x="282" 
d="M291 560.5q9 -3.5 26 -16.5q-25 -12 -38 -37.5t-13 -55.5q-12 4 -26 4q-31 0 -58.5 -21.5t-44 -59.5t-16.5 -86v-156q0 -14 10.5 -29t26.5 -20l22 25l8 -7l-82 -101q-46 35 -60.5 65.5t-14.5 66.5v305q0 30 -20 43l110 70v-194q11 53 34.5 101t53.5 77.5t57 29.5
q16 0 25 -3.5z" />
    <glyph glyph-name="s" unicode="s" horiz-adv-x="325" 
d="M185 -15q-4 43 -24 76t-48 51t-55 18q-28 0 -44 -20l-4 6q29 36 29 91q0 28 -7 52.5t-16 34.5l5 5q17 -28 38.5 -49.5t53.5 -47.5q44 -36 67 -64t30 -70q28 31 28 63q0 36 -26 71t-78 87q-53 52 -80.5 89t-27.5 76q0 41 32 71.5t79 30.5q14 0 27 -3l-2 -5q-6 1 -15 1
q-26 0 -33 -14.5t-7 -39.5q0 -38 36 -82q-2 44 12.5 76t40.5 48.5t56 16.5q31 0 58 -17q-12 -6 -16 -31.5t-6 -71.5q-2 -47 -6 -60q-11 53 -31 78.5t-43 25.5q-25 0 -42 -24t-13 -54q21 -24 53 -54q56 -55 85.5 -94t34.5 -85q-11 -6 -38 -33.5t-56 -67.5t-46 -82z" />
    <glyph glyph-name="t" unicode="t" horiz-adv-x="235" 
d="M166 0q-3 2 -35 16t-60 57.5t-28 104.5v295h-66l53 77h13v38q0 30 -20 43l110 70v-150h75l-64 -78h-11v-287q0 -99 86 -109l28 32l8 -7z" />
    <glyph glyph-name="u" unicode="u" horiz-adv-x="384" 
d="M386 108l8 -7l-82 -101q-61 47 -71 96q-44 -63 -84 -96q-31 0 -60.5 17.5t-48 47.5t-18.5 67v305q0 30 -20 43l110 70v-400q0 -40 26 -64t56 -24q23 28 35 63v7v305q0 30 -20 43l110 70v-418q0 -14 10.5 -29t26.5 -20z" />
    <glyph glyph-name="v" unicode="v" horiz-adv-x="321" 
d="M59.5 86.5q-29.5 54.5 -29.5 112.5v238q0 30 -20 43l110 70v-360q0 -29 19 -71t52 -67q20 27 20 93v292q0 30 -20 43l110 70v-306q0 -61 -27.5 -112t-64.5 -84t-68 -48q-52 32 -81.5 86.5z" />
    <glyph glyph-name="w" unicode="w" horiz-adv-x="500" 
d="M475 550v-306q0 -61 -27.5 -112t-64.5 -84t-68 -48q-52 31 -82 86l-74 -86q-47 13 -87 55.5t-40 116.5v265q0 30 -20 43l110 70v-355q0 -89 73 -129l31 33q-22 49 -22 100v238q0 30 -20 43l110 70v-360q0 -29 19 -71t52 -67q20 27 20 93v292q0 30 -20 43z" />
    <glyph glyph-name="x" unicode="x" horiz-adv-x="380" 
d="M345 49q13 -28 37 -50t58 -22v-1q-12 -9 -31 -14.5t-40 -5.5q-34 0 -62.5 15.5t-44.5 51.5l-78 174q1 -7 1 -23q0 -47 -17 -95t-47 -79.5t-67 -31.5q-24 0 -34.5 17.5t-10.5 45.5q0 27 7.5 56.5t17.5 46.5q1 -36 16.5 -54.5t37.5 -18.5q21 0 41 14.5t33 40.5t13 60
q0 32 -13 67h-94q-17 0 -26.5 -4t-17.5 -18q0 45 13 61t49 16h52l-52 116q-8 18 -8 45q0 28 11 53t34 38l94 -213q-1 7 -1 23q0 47 17 95.5t47 80t67 31.5q24 0 34.5 -17.5t10.5 -45.5q0 -27 -7.5 -56.5t-17.5 -46.5q-1 36 -16.5 54.5t-37.5 18.5q-21 0 -41 -14.5t-33 -40.5
t-13 -59q0 -32 11 -62h101q14 0 23.5 4.5t17.5 16.5q0 -45 -11.5 -60.5t-40.5 -15.5h-68z" />
    <glyph glyph-name="y" unicode="y" horiz-adv-x="347" 
d="M88.5 -90.5q-33.5 13.5 -63.5 13.5q-15 0 -25 -2l70 66q52 0 90 -27t59 -57q5 3 6 15.5t1 39.5v134l-79 -75q-70 47 -92 79q-4 -3 -8 -7t-10 -6.5t-16 -6.5q10 15 12.5 33.5t2.5 52.5v275q0 30 -20 43l110 70v-339q0 -30 18 -64t57 -62l25 24v328q0 30 -20 43l110 70
v-281q1 -28 5 -45t20 -24l-25 -26v-148q0 -56 -48 -99.5t-117 -67.5q-29 37 -62.5 50.5z" />
    <glyph glyph-name="z" unicode="z" horiz-adv-x="347" 
d="M0 89q6 38 36 82t104 135q13 15 67 83v71h-133q0 24 -19 51.5t-44 39.5h138q28 -1 48.5 -21.5t20.5 -55.5v-73q35 48 35 86q0 29 -17 46.5t-37 18.5v1q32 0 63 -12t51 -36t20 -58q0 -37 -24 -73t-76 -96q-60 -71 -92.5 -120t-40.5 -107l16 -20q45 70 104.5 123.5
t111.5 77.5q-13 -21 -13 -54q0 -57 37 -99q-38 8 -56 8q-36 0 -74 -23t-85 -82q-63 78 -141 107z" />
    <glyph glyph-name="braceleft" unicode="{" horiz-adv-x="310" 
d="M289 -143q-140 75 -140 298q0 42 -17.5 80.5t-47 62.5t-64.5 26v16q36 4 65.5 31.5t46.5 67.5t17 83q0 107 33 179.5t107 111.5l1 -1q-33 -41 -49.5 -86.5t-21 -93.5t-4.5 -119t-43 -120t-111 -61q42 -3 77 -26.5t56 -60.5t21 -81q0 -78 3 -121.5t19 -92.5t53 -92z" />
    <glyph glyph-name="bar" unicode="|" horiz-adv-x="57" 
d="M37 -135h-17v960h17v-960z" />
    <glyph glyph-name="braceright" unicode="}" horiz-adv-x="310" 
d="M20 -142q37 43 53 92t19 92.5t3 121.5q0 44 21 81t56 60.5t77 26.5q-68 12 -111 61t-43 120t-4.5 119t-21 93.5t-49.5 86.5l1 1q74 -39 107 -111.5t33 -179.5q0 -43 17 -83t46.5 -67.5t65.5 -31.5v-16q-35 -2 -64.5 -26t-47 -62.5t-17.5 -80.5q0 -223 -140 -298z" />
    <glyph glyph-name="asciitilde" unicode="~" horiz-adv-x="310" 
d="M98 324l-19 15q-14 -3 -23 -12.5t-23 -30.5l-13 1q30 69 115 77q9 -12 40 -29.5t55 -25.5q12 2 20 10t27 30l13 -2q-21 -32 -46 -48.5t-84 -28.5q-25 13 -62 44z" />
    <glyph glyph-name="exclamdown" unicode="&#xa1;" horiz-adv-x="188" 
d="M163 577q-32 -25 -59 -85h-17q-24 55 -61 85q42 32 68 73q26 -41 69 -73zM102 446q12 -167 30 -291t36 -182q-55 -68 -66 -105h-17q-7 25 -26 55t-39 50q16 48 33 174t32 299h17z" />
    <glyph glyph-name="cent" unicode="&#xa2;" horiz-adv-x="445" 
d="M354.5 164.5q35.5 19.5 63.5 57.5h2q-20 -56 -61.5 -88.5t-92.5 -38.5v-109h-13v108h-11q-56 0 -107 28.5t-83 83t-32 127.5q0 76 34 129.5t87 81.5t112 32v112h13v-112h2q66 0 111.5 -30.5t45.5 -83.5q0 -31 -17.5 -51t-39.5 -20q-21 0 -34 17q22 6 33.5 20.5t11.5 32.5
q0 44 -29.5 69.5t-72.5 25.5h-11v-410q5 -1 16 -1q37 0 72.5 19.5zM154 212.5q40 -52.5 99 -64.5v406q-58 -10 -98.5 -64t-40.5 -147q0 -78 40 -130.5z" />
    <glyph glyph-name="sterling" unicode="&#xa3;" horiz-adv-x="534" 
d="M489 198.5q25 -21.5 25 -58.5q0 -33 -17.5 -65.5t-51.5 -53.5t-81 -21q-19 0 -38.5 6.5t-52.5 20.5q-37 16 -63.5 24.5t-53.5 8.5q-64 0 -113 -60q33 66 44.5 152t12.5 205h-70l-10 17h80v26v89q0 107 51 167t142 60q61 0 101.5 -20t60 -51t19.5 -62q0 -28 -15 -47
t-41 -19q-24 0 -38 19q14 3 21 14.5t7 28.5q0 50 -28.5 79.5t-68.5 29.5q-33 0 -62.5 -21t-48.5 -64t-19 -106v-104v-19h138l10 -17h-148q-1 -96 -12 -144.5t-47 -100.5q34 26 71 26q27 0 55 -11t67 -31q41 -20 64 -29t45 -9q24 0 36.5 13.5t12.5 33.5q0 28 -19.5 47
t-45.5 19q-16 0 -29 -7q-1 27 14.5 41.5t39.5 14.5q31 0 56 -21.5z" />
    <glyph glyph-name="currency" unicode="&#xa4;" horiz-adv-x="422" 
d="M34 196l-14 15l59 60q-21 24 -32.5 54.5t-11.5 61.5q0 69 45 118l-60 59l14 14l60 -59q50 44 116 44q32 0 62.5 -11.5t54.5 -32.5l60 59l14 -15l-59 -59q44 -48 44 -118q0 -32 -11 -62t-32 -54l59 -59l-14 -15l-59 60q-51 -45 -119 -45q-66 0 -116 45zM156.5 253.5
q26.5 -10.5 54.5 -10.5q29 0 55.5 10.5t47.5 31.5t31.5 47.5t10.5 55.5q0 28 -10.5 54.5t-31.5 47.5t-47.5 32t-54.5 11q-61 0 -103 -43q-21 -21 -32 -47.5t-11 -54.5q0 -61 43 -103q21 -21 47.5 -31.5z" />
    <glyph glyph-name="yen" unicode="&#xa5;" horiz-adv-x="701" 
d="M478 0h-257v23l79 -8v282h-217v17h217v13l-72 118h-145v18h134l-134 220h-63v17h229v-17h-42l173 -278l171 278h-58v17h188v-17h-59l-143 -220h133v-18h-144l-69 -106v-25h213v-17h-213v-282l79 8v-23z" />
    <glyph glyph-name="brokenbar" unicode="&#xa6;" horiz-adv-x="57" 
d="M37 483h-17v334h17v-334zM37 -143h-17v334h17v-334z" />
    <glyph glyph-name="section" unicode="&#xa7;" horiz-adv-x="644" 
d="M328 -103.5q-39 24.5 -99 69.5q-53 40 -85 60t-50 20q-20 0 -30.5 -10.5t-10.5 -27.5q0 -27 23.5 -53.5t59.5 -30.5q-12 -4 -27 -4q-37 0 -60.5 29t-23.5 77q0 40 24 72t62 32q33 0 80 -23t124 -69q67 -40 106 -60t63 -20q29 0 29 35q0 34 -39 59.5t-124 63.5
q-100 44 -166.5 83.5t-115 106t-48.5 161.5q0 81 32.5 159.5t89 128.5t126.5 50q24 0 39 -8.5t24.5 -22t24.5 -40.5q28 -53 52 -81q37 -45 71.5 -67t60.5 -22q20 0 31 12t11 33q0 19 -13.5 40.5t-36.5 36t-50 14.5q-13 0 -30 -5q3 32 23 48.5t47 16.5q42 0 72 -32t30 -75
q0 -34 -19 -66t-54 -51.5t-79 -19.5t-81.5 24.5t-65 57t-60.5 81.5q-29 43 -46.5 62t-33.5 19q-12 0 -28 -22t-28.5 -49.5t-12.5 -38.5q0 -40 28.5 -74.5t70.5 -62.5t116 -70q88 -50 140.5 -86t90 -86.5t37.5 -112.5q0 -67 -28.5 -134t-76.5 -109.5t-102 -42.5
q-25 0 -64 24.5zM560 101q0 43 -28.5 80t-71.5 67.5t-119 75.5q-17 11 -41 25.5t-53 33.5q-52 34 -83.5 58t-56 55t-34.5 70q-3 -21 -3 -40q0 -74 35 -123.5t98 -87.5q32 -20 104 -56q71 -37 114.5 -63t79.5 -61.5t51 -79.5q8 26 8 46z" />
    <glyph glyph-name="dieresis" unicode="&#xa8;" horiz-adv-x="281" 
d="M54.5 607.5q-16.5 17.5 -34.5 29.5q49 21 77 82q5 -14 21 -32t29 -25q-24 -17 -41 -34t-34 -50q-1 12 -17.5 29.5zM168.5 607.5q-16.5 17.5 -34.5 29.5q32 14 52 39.5t25 42.5q5 -14 21 -32t29 -25q-24 -16 -41 -33.5t-34 -50.5q-1 12 -17.5 29.5z" />
    <glyph glyph-name="copyright" unicode="&#xa9;" horiz-adv-x="801" 
d="M222 -6.5q-90 73.5 -146 166t-56 193.5q0 136 115.5 260t281.5 211q152 -93 258 -215t106 -244q0 -113 -51.5 -209.5t-134 -169t-178.5 -119.5q-105 53 -195 126.5zM528.5 1q67.5 65 120.5 162t46 203q-5 74 -59.5 156.5t-120 147.5t-100.5 89q-38 -21 -110 -88
t-129.5 -149.5t-60.5 -152.5q-6 -163 95.5 -278.5t206.5 -183.5q44 29 111.5 94zM398.5 159.5q35.5 -24.5 90.5 -39.5l34 38l8 -7l-85 -102l-55 20q-53 20 -85.5 56.5t-32.5 77.5v186q0 58 -30 79l166 131h120l-49 -81h-154l37 -42v-264q0 -28 35.5 -52.5z" />
    <glyph glyph-name="ordfeminine" unicode="&#xaa;" horiz-adv-x="176" 
d="M183 534l3 -3l-37 -46q-28 20 -33 44q-15 -25 -38 -44q-22 0 -40 17.5t-18 42.5v61q0 33 30 47.5t65 10.5v14q0 12 -4.5 17t-17.5 5h-48l21 35h34q22 0 39 -13t17 -38v-139q0 -6 5 -13t12 -9zM115 545v115q-1 0 -15 1t-26.5 -14t-12.5 -45v-49q0 -18 12 -29t25 -11
q12 13 17 32z" />
    <glyph glyph-name="guillemotleft" unicode="&#xab;" horiz-adv-x="417" 
d="M88 344q17 -25 67 -77t78 -75q-14 -9 -26.5 -28t-15.5 -38q-37 28 -94.5 86.5t-76.5 89.5l180 224l17 -17zM252 344q17 -25 67 -77t78 -75q-14 -9 -26.5 -28t-15.5 -38q-37 28 -94.5 86.5t-76.5 89.5l180 224l17 -17z" />
    <glyph glyph-name="uni00AD" unicode="&#xad;" horiz-adv-x="271" 
d="M236 294h-216l15 17h216z" />
    <glyph glyph-name="registered" unicode="&#xae;" horiz-adv-x="507" 
d="M348.5 791q54.5 -29 96.5 -73t42 -95q0 -69 -40.5 -119t-94.5 -76t-89 -26q-34 0 -93.5 27.5t-104.5 76.5t-45 111q0 58 49 107t110.5 77.5t83.5 24.5q31 -6 85.5 -35zM330.5 450.5q41.5 30.5 72.5 77t31 95.5q0 36 -36.5 77.5t-83.5 71.5q4 -5 4 -11q0 -11 -8.5 -17
t-24.5 -11q-12 -4 -18 -7.5t-6 -9.5v-12q5 6 17 14q0 -5 9 -18q5 -9 9.5 -19t4.5 -19q0 -20 -24 -33q9 -15 18 -37q14 -32 24.5 -47.5t23.5 -15.5q5 0 5 4q0 2 -2 4.5t-2 4.5q0 4 4 4q5 0 5 -6t-9 -14t-17 -8q-12 0 -21.5 15t-26.5 50l-18 36q0 -15 8 -19q-8 -8 -8 -21v-60
q0 -4 1 -9t1 -11q0 -12 -11 -12q7 13 7 32v59q0 10 -10 12q6 6 8 12t2 17v4q-7 14 -17 23v-59q0 -9 7 -15q-6 -3 -14.5 -18.5t-11.5 -37.5v142q-2 1 -6 1q-6 0 -10.5 -13t-4.5 -28q0 -7 2 -17q1 -3 -1 -4.5t-4 -1.5q-3 0 -5 5q-2 17 5.5 39.5t23.5 27.5v15q0 20 -7 30
t-16 10q-5 0 -9 -4t-4 -9q0 -4 3 -11t4 -10q7 -14 7 -21q0 -12 -12 -24t-24 -12q-9 0 -9 7q0 3 3.5 6t7.5 3q-3 -1 -3 -3q0 -3 3.5 -5t8.5 -2q7 0 7 8q0 6 -4 22q-5 13 -5 22q0 16 12 27t27 11q13 0 21 -13.5t8 -31.5v-6q3 10 17 26v22q0 12 8.5 18t24.5 11q22 6 22 15
q0 1 -2 5q-32 21 -50 24q-25 5 -70 -24t-79.5 -71.5t-34.5 -76.5q0 -54 35.5 -101t81.5 -75.5t71 -28.5q23 0 64.5 30.5zM261 652q7 -9 15 -21q9 8 9 17q0 11 -11 28.5t-13 22.5v-47zM259 697q-11 -12 -17 -30v-1q10 -3 17 -12v43z" />
    <glyph glyph-name="macron" unicode="&#xaf;" horiz-adv-x="236" 
d="M213 638h-193l3 17h193z" />
    <glyph glyph-name="degree" unicode="&#xb0;" horiz-adv-x="360" 
d="M127.5 529q-41.5 23 -74.5 56.5t-33 66.5q0 37 33 69t74.5 52t59.5 20q17 0 55 -20.5t68 -52t30 -65.5q0 -33 -30 -67.5t-68 -58t-55 -23.5q-18 0 -59.5 23zM230.5 579.5q28.5 15.5 51 36.5t22.5 39q0 15 -21 37t-49.5 38.5t-47.5 16.5q-20 0 -50 -16.5t-53 -38.5
t-23 -35q0 -20 24 -41.5t55 -36.5t48 -15q15 0 43.5 15.5z" />
    <glyph glyph-name="uni00B2" unicode="&#xb2;" horiz-adv-x="374" 
d="M203.5 341q-35.5 6 -44.5 7q-71 13 -106 13q-18 0 -15 -17q-18 12 -18 32q0 34 16 62t39.5 49t63.5 52q58 43 87.5 77t29.5 81q0 48 -26 71.5t-64 23.5q-27 0 -45 -13.5t-18 -35.5q0 -16 5 -29.5t16 -35.5q11 -18 16 -31.5t5 -28.5q0 -22 -13 -38t-31.5 -24t-34.5 -8
q-14 0 -22.5 6t-8.5 18t8.5 22t19.5 10q-7 -6 -7 -13q0 -16 8 -26t18 -10q7 0 12 6.5t5 17.5q0 13 -5.5 26t-15.5 32q-11 21 -16.5 35t-5.5 28q0 49 37.5 76t88.5 27q55 0 95.5 -28.5t40.5 -77.5q0 -43 -23.5 -77t-56.5 -58t-86 -55q-62 -36 -91.5 -61t-29.5 -58
q15 23 60 23q24 0 84 -10q64 -10 93 -10q30 0 47.5 8.5t21.5 28.5q7 -24 7 -36q0 -57 -80 -57q-25 0 -60.5 6z" />
    <glyph glyph-name="uni00B3" unicode="&#xb3;" horiz-adv-x="327" 
d="M159 334q-42 21 -69 38.5t-48.5 44t-21.5 60.5q0 35 29.5 62.5t67.5 27.5v-1q-66 -13 -66 -54q0 -35 44.5 -71t125.5 -65q23 26 23 60q0 41 -30.5 85t-75.5 75l111 78q-24 2 -80 20q-55 19 -79 19q-16 0 -25 -5t-13 -18q-1 3 -1 9q0 23 16.5 44t42.5 21q22 0 86 -22
q61 -21 81 -21q12 0 17 5.5t6 16.5q3 -12 3 -23q0 -21 -10 -33.5t-33 -13.5l-66 -48q42 -28 67 -74.5t25 -78.5q0 -30 -23.5 -64t-74.5 -89q-11 7 -29 15z" />
    <glyph glyph-name="acute" unicode="&#xb4;" horiz-adv-x="185" 
d="M87 740l15 5q21 -34 63 -56q-15 -40 -52 -70.5t-93 -38.5q55 64 67 160z" />
    <glyph glyph-name="paragraph" unicode="&#xb6;" horiz-adv-x="432" 
d="M293 -102q2 18 2 51v216q0 22 -12.5 35t-29.5 13q-23 0 -40.5 -22t-17.5 -63h-6q0 33 -18.5 62t-57.5 76q-46 53 -69.5 92.5t-23.5 88.5q0 103 48.5 150.5t102.5 56.5t124 9v82q0 46 33.5 75.5t83.5 29.5v-1q-6 -2 -14.5 -14.5t-14.5 -33.5t-6 -46v-721q0 -62 -20 -104
t-73 -75q7 25 9 43z" />
    <glyph glyph-name="periodcentered" unicode="&#xb7;" horiz-adv-x="172" 
d="M139 319l-65 -65l-54 76l68 58z" />
    <glyph glyph-name="cedilla" unicode="&#xb8;" horiz-adv-x="157" 
d="M16 -230q44 28 44 68q0 23 -14.5 46.5t-42.5 45.5l70 70h17l-17 -20q47 -51 47 -92q0 -59 -96 -122z" />
    <glyph glyph-name="uni00B9" unicode="&#xb9;" horiz-adv-x="368" 
d="M138.5 318.5q-17.5 4.5 -33.5 10.5q-33 13 -49 13q-20 0 -17 -18q-19 13 -19 35q0 17 12.5 27.5t34.5 10.5q26 14 26 66v262q0 20 -14 29l75 48v-322q0 -78 -78 -84q17 -1 37 -7.5t37 -12.5q6 -2 20 -7t23 -5q14 0 17 15q3 -10 3 -19q0 -20 -12.5 -33t-31.5 -13
q-13 0 -30.5 4.5z" />
    <glyph glyph-name="ordmasculine" unicode="&#xba;" horiz-adv-x="172" 
d="M96 737q20 0 33 -13t13 -30v-148l-72 -60q-17 9 -34 28.5t-17 52.5v119q0 13 -9 20l50 32v-175q0 -15 10 -28t26 -19l5 3v165q0 18 -27 18h-10l28 35h4z" />
    <glyph glyph-name="guillemotright" unicode="&#xbb;" horiz-adv-x="417" 
d="M53 526l180 -224q-19 -31 -76.5 -89.5t-94.5 -86.5q-3 19 -15.5 38t-26.5 28q28 23 78 75t67 77l-129 165zM217 526l180 -224q-19 -31 -76.5 -89.5t-94.5 -86.5q-3 19 -15.5 38t-26.5 28q28 23 78 75t67 77l-129 165z" />
    <glyph glyph-name="onequarter" unicode="&#xbc;" horiz-adv-x="592" 
d="M184.5 451.5q-11.5 -11.5 -28.5 -11.5q-20 0 -58 14q-34 12 -45 12q-18 0 -15 -17q-18 12 -18 32q0 16 12 25t32 9q23 14 23 61v237q0 19 -13 27l69 44v-293q0 -36 -18.5 -55t-53.5 -21q22 -2 43.5 -9.5t24.5 -8.5q29 -11 39 -11q13 0 16 13q2 -7 2 -17
q0 -19 -11.5 -30.5zM77 -57l368 796h17l-368 -796h-17zM485 17q9 -16 9 -34q0 -22 -14.5 -37.5t-43.5 -15.5q-12 0 -46 10q-29 11 -47 11q-22 0 -29 -20q0 31 12.5 46.5t37.5 30.5q23 14 35 27.5t13 40.5q-96 -31 -159 -31q-60 0 -60 35q0 42 48 109.5t115.5 128t119.5 80.5
q-5 -20 -6.5 -33.5t-1.5 -46.5v-214l31 12l5 -6l-36 -15v-13q0 -29 -26 -48.5t-76 -35.5q54 -17 79 -17q40 0 40 36zM284 91.5q21 -11.5 56 -11.5t72 9v256q-60 -41 -104.5 -105.5t-44.5 -111.5q0 -25 21 -36.5z" />
    <glyph glyph-name="onehalf" unicode="&#xbd;" horiz-adv-x="627" 
d="M98 454q-34 12 -45 12q-18 0 -15 -17q-18 12 -18 32q0 16 12 25t32 9q23 14 23 61v237q0 19 -13 27l69 44v-293q0 -36 -18.5 -55t-53.5 -21q22 -2 43.5 -9.5t24.5 -8.5q29 -11 39 -11q13 0 16 13q2 -7 2 -17q0 -19 -11.5 -30.5t-28.5 -11.5q-20 0 -58 14zM83 -57h-17
l368 796h17zM412 -76q-8 1 -44 7t-62 6q-18 0 -15 -17q-18 12 -18 32q0 34 16 62t39.5 49t63.5 52q58 43 87.5 77t29.5 81q0 48 -26 71.5t-64 23.5q-27 0 -45 -13.5t-18 -35.5q0 -16 5 -29.5t16 -35.5q11 -18 16 -31.5t5 -28.5q0 -22 -13 -38t-31.5 -24t-34.5 -8
q-14 0 -22.5 6t-8.5 18t8.5 22t19.5 10q-7 -6 -7 -13q0 -16 8 -26t18 -10q7 0 12 6.5t5 17.5q0 13 -5.5 26t-15.5 32q-11 21 -16.5 35t-5.5 28q0 49 37.5 76t88.5 27q55 0 95.5 -28.5t40.5 -77.5q0 -43 -23.5 -77t-56.5 -58t-86 -55q-62 -36 -91.5 -61t-29.5 -58
q15 23 60 23q24 0 84 -10q64 -10 93 -10q30 0 47.5 8.5t21.5 28.5q7 -25 7 -36q0 -57 -80 -57q-34 0 -105 13z" />
    <glyph glyph-name="threequarters" unicode="&#xbe;" horiz-adv-x="595" 
d="M98 454q-34 12 -45 12q-18 0 -15 -17q-18 12 -18 32q0 16 12 25t32 9q23 14 23 61v237q0 19 -13 27l69 44v-293q0 -36 -18.5 -55t-53.5 -21q22 -2 43.5 -9.5t24.5 -8.5q29 -11 39 -11q13 0 16 13q2 -7 2 -17q0 -19 -11.5 -30.5t-28.5 -11.5q-20 0 -58 14zM74 -57h-17
l368 796h17zM414 -86q-45 22 -76 41.5t-55 49t-24 67.5q0 25 15 48t40 37t52 14v-1q-37 -7 -55 -22.5t-18 -36.5q0 -39 49 -78.5t138 -71.5q26 29 26 66q0 45 -33.5 93t-83.5 82l123 87q-29 2 -88 22q-61 21 -88 21q-17 0 -27 -5.5t-14 -20.5q-1 3 -1 10q0 25 18 48t46 23
q25 0 95 -24q26 -8 50.5 -15t37.5 -7q14 0 19.5 6t6.5 18q3 -12 3 -25q0 -51 -47 -52l-72 -53q45 -32 72.5 -83t27.5 -86q0 -33 -26 -71t-81 -96q-8 5 -30 15z" />
    <glyph glyph-name="questiondown" unicode="&#xbf;" horiz-adv-x="377" 
d="M275 532q-37 -30 -61 -85h-18q-14 31 -27 51t-31 34q43 32 69 73q26 -41 68 -73zM238 372q23 -21 23 -53q0 -35 -18.5 -66.5t-56.5 -77.5q-38 -47 -56 -77.5t-18 -65.5q0 -47 31.5 -81t77.5 -34q51 0 81.5 34.5t30.5 85.5q0 37 -16 73q40 -46 40 -91q0 -71 -105 -143
q-6 -4 -18.5 -14t-22.5 -14t-23 -4q-44 0 -82.5 24.5t-62 65t-23.5 86.5q0 51 29.5 97t82.5 104q38 43 55 67t17 45q0 18 -11.5 28.5t-29.5 10.5q-16 0 -29 -8q17 29 52 29q29 0 52 -21z" />
    <glyph glyph-name="Agrave" unicode="&#xc0;" horiz-adv-x="885" 
d="M475 337q0 -39 28.5 -56.5t60.5 -17.5q-89 -68 -89 -147v-189q0 -18 5 -43q1 -7 3 -22.5t2 -27.5q0 -25 -11 -39.5t-39 -14.5q30 51 30 147v183q0 29 -15.5 48t-36 27t-35.5 8q39 31 63 68.5t24 75.5v153q-14 -67 -51 -135t-96.5 -121.5t-136.5 -75.5q30 -3 58.5 -16.5
t73.5 -39.5q33 -19 51 -27.5t31 -8.5q27 0 43 18q0 -40 -26.5 -69.5t-67.5 -29.5q-20 0 -43.5 12t-60.5 36q-40 26 -68 40t-53 14q-43 0 -72 -51q40 123 121 123q70 19 116 70.5t66.5 118.5t20.5 136q0 86 -30 145.5t-87 59.5q-34 0 -60 -20.5t-40 -52.5t-14 -66
q0 -25 10.5 -46.5t30.5 -52.5q18 -25 26.5 -42.5t8.5 -36.5q0 -41 -27.5 -87.5t-67 -78t-73.5 -31.5q-19 0 -28.5 10.5t-9.5 26.5q0 19 13.5 35t31.5 16q-11 -8 -11 -20q0 -13 15.5 -24.5t34.5 -11.5q20 0 36 21.5t16 50.5q0 18 -14.5 46t-59.5 97q-15 23 -15 51
q0 54 46 116.5t113.5 105t128.5 42.5q46 0 77 -31t43 -85v21q0 70 23 99t63 29q26 0 56.5 -11.5t70.5 -32.5q30 -15 47.5 -22.5t30.5 -8.5q8 -1 15 10t7 25t-7 27h1q23 -23 23 -59t-22 -64.5t-54 -28.5q-16 0 -35 8.5t-57 27.5q-38 20 -61.5 29.5t-42.5 9.5q-22 0 -35 -22
t-13 -57v-264zM828 362.5q47 -45.5 47 -119.5t-45.5 -140t-97.5 -109t-109 -81q42 39 42 98q0 38 -15 80t-45 107q-36 77 -55 132.5t-19 111.5q0 61 36 111.5t142 51.5v-4q-58 -12 -79.5 -37t-21.5 -67q0 -38 17 -83.5t51 -117.5q36 -74 54 -123t18 -90q0 -35 -15 -60l2 -2
q26 35 41 79.5t15 89.5q0 84 -26.5 142t-88.5 58q-14 0 -36 -5l-3 12q38 11 70 11q74 0 121 -45.5zM417 825.5q-37 30.5 -52 70.5q42 22 63 56l15 -5q12 -96 67 -160q-56 8 -93 38.5z" />
    <glyph glyph-name="Aacute" unicode="&#xc1;" horiz-adv-x="885" 
d="M475 337q0 -39 28.5 -56.5t60.5 -17.5q-89 -68 -89 -147v-189q0 -18 5 -43q1 -7 3 -22.5t2 -27.5q0 -25 -11 -39.5t-39 -14.5q30 51 30 147v183q0 29 -15.5 48t-36 27t-35.5 8q39 31 63 68.5t24 75.5v153q-14 -67 -51 -135t-96.5 -121.5t-136.5 -75.5q30 -3 58.5 -16.5
t73.5 -39.5q33 -19 51 -27.5t31 -8.5q27 0 43 18q0 -40 -26.5 -69.5t-67.5 -29.5q-20 0 -43.5 12t-60.5 36q-40 26 -68 40t-53 14q-43 0 -72 -51q40 123 121 123q70 19 116 70.5t66.5 118.5t20.5 136q0 86 -30 145.5t-87 59.5q-34 0 -60 -20.5t-40 -52.5t-14 -66
q0 -25 10.5 -46.5t30.5 -52.5q18 -25 26.5 -42.5t8.5 -36.5q0 -41 -27.5 -87.5t-67 -78t-73.5 -31.5q-19 0 -28.5 10.5t-9.5 26.5q0 19 13.5 35t31.5 16q-11 -8 -11 -20q0 -13 15.5 -24.5t34.5 -11.5q20 0 36 21.5t16 50.5q0 18 -14.5 46t-59.5 97q-15 23 -15 51
q0 54 46 116.5t113.5 105t128.5 42.5q46 0 77 -31t43 -85v21q0 70 23 99t63 29q26 0 56.5 -11.5t70.5 -32.5q30 -15 47.5 -22.5t30.5 -8.5q8 -1 15 10t7 25t-7 27h1q23 -23 23 -59t-22 -64.5t-54 -28.5q-16 0 -35 8.5t-57 27.5q-38 20 -61.5 29.5t-42.5 9.5q-22 0 -35 -22
t-13 -57v-264zM828 362.5q47 -45.5 47 -119.5t-45.5 -140t-97.5 -109t-109 -81q42 39 42 98q0 38 -15 80t-45 107q-36 77 -55 132.5t-19 111.5q0 61 36 111.5t142 51.5v-4q-58 -12 -79.5 -37t-21.5 -67q0 -38 17 -83.5t51 -117.5q36 -74 54 -123t18 -90q0 -35 -15 -60l2 -2
q26 35 41 79.5t15 89.5q0 84 -26.5 142t-88.5 58q-14 0 -36 -5l-3 12q38 11 70 11q74 0 121 -45.5zM432 947l15 5q21 -34 63 -56q-15 -40 -52 -70.5t-93 -38.5q55 64 67 160z" />
    <glyph glyph-name="Acircumflex" unicode="&#xc2;" horiz-adv-x="885" 
d="M475 337q0 -39 28.5 -56.5t60.5 -17.5q-89 -68 -89 -147v-189q0 -18 5 -43q1 -7 3 -22.5t2 -27.5q0 -25 -11 -39.5t-39 -14.5q30 51 30 147v183q0 29 -15.5 48t-36 27t-35.5 8q39 31 63 68.5t24 75.5v153q-14 -67 -51 -135t-96.5 -121.5t-136.5 -75.5q30 -3 58.5 -16.5
t73.5 -39.5q33 -19 51 -27.5t31 -8.5q27 0 43 18q0 -40 -26.5 -69.5t-67.5 -29.5q-20 0 -43.5 12t-60.5 36q-40 26 -68 40t-53 14q-43 0 -72 -51q40 123 121 123q70 19 116 70.5t66.5 118.5t20.5 136q0 86 -30 145.5t-87 59.5q-34 0 -60 -20.5t-40 -52.5t-14 -66
q0 -25 10.5 -46.5t30.5 -52.5q18 -25 26.5 -42.5t8.5 -36.5q0 -41 -27.5 -87.5t-67 -78t-73.5 -31.5q-19 0 -28.5 10.5t-9.5 26.5q0 19 13.5 35t31.5 16q-11 -8 -11 -20q0 -13 15.5 -24.5t34.5 -11.5q20 0 36 21.5t16 50.5q0 18 -14.5 46t-59.5 97q-15 23 -15 51
q0 54 46 116.5t113.5 105t128.5 42.5q46 0 77 -31t43 -85v21q0 70 23 99t63 29q26 0 56.5 -11.5t70.5 -32.5q30 -15 47.5 -22.5t30.5 -8.5q8 -1 15 10t7 25t-7 27h1q23 -23 23 -59t-22 -64.5t-54 -28.5q-16 0 -35 8.5t-57 27.5q-38 20 -61.5 29.5t-42.5 9.5q-22 0 -35 -22
t-13 -57v-264zM828 362.5q47 -45.5 47 -119.5t-45.5 -140t-97.5 -109t-109 -81q42 39 42 98q0 38 -15 80t-45 107q-36 77 -55 132.5t-19 111.5q0 61 36 111.5t142 51.5v-4q-58 -12 -79.5 -37t-21.5 -67q0 -38 17 -83.5t51 -117.5q36 -74 54 -123t18 -90q0 -35 -15 -60l2 -2
q26 35 41 79.5t15 89.5q0 84 -26.5 142t-88.5 58q-14 0 -36 -5l-3 12q38 11 70 11q74 0 121 -45.5zM455.5 844q-18.5 32 -36.5 46l-82 -87l-11 9l121 131q67 -47 102 -114q-43 -22 -63 -47q-12 30 -30.5 62z" />
    <glyph glyph-name="Atilde" unicode="&#xc3;" horiz-adv-x="885" 
d="M475 337q0 -39 28.5 -56.5t60.5 -17.5q-89 -68 -89 -147v-189q0 -18 5 -43q1 -7 3 -22.5t2 -27.5q0 -25 -11 -39.5t-39 -14.5q30 51 30 147v183q0 29 -15.5 48t-36 27t-35.5 8q39 31 63 68.5t24 75.5v153q-14 -67 -51 -135t-96.5 -121.5t-136.5 -75.5q30 -3 58.5 -16.5
t73.5 -39.5q33 -19 51 -27.5t31 -8.5q27 0 43 18q0 -40 -26.5 -69.5t-67.5 -29.5q-20 0 -43.5 12t-60.5 36q-40 26 -68 40t-53 14q-43 0 -72 -51q40 123 121 123q70 19 116 70.5t66.5 118.5t20.5 136q0 86 -30 145.5t-87 59.5q-34 0 -60 -20.5t-40 -52.5t-14 -66
q0 -25 10.5 -46.5t30.5 -52.5q18 -25 26.5 -42.5t8.5 -36.5q0 -41 -27.5 -87.5t-67 -78t-73.5 -31.5q-19 0 -28.5 10.5t-9.5 26.5q0 19 13.5 35t31.5 16q-11 -8 -11 -20q0 -13 15.5 -24.5t34.5 -11.5q20 0 36 21.5t16 50.5q0 18 -14.5 46t-59.5 97q-15 23 -15 51
q0 54 46 116.5t113.5 105t128.5 42.5q46 0 77 -31t43 -85v21q0 70 23 99t63 29q26 0 56.5 -11.5t70.5 -32.5q30 -15 47.5 -22.5t30.5 -8.5q8 -1 15 10t7 25t-7 27h1q23 -23 23 -59t-22 -64.5t-54 -28.5q-16 0 -35 8.5t-57 27.5q-38 20 -61.5 29.5t-42.5 9.5q-22 0 -35 -22
t-13 -57v-264zM828 362.5q47 -45.5 47 -119.5t-45.5 -140t-97.5 -109t-109 -81q42 39 42 98q0 38 -15 80t-45 107q-36 77 -55 132.5t-19 111.5q0 61 36 111.5t142 51.5v-4q-58 -12 -79.5 -37t-21.5 -67q0 -38 17 -83.5t51 -117.5q36 -74 54 -123t18 -90q0 -35 -15 -60l2 -2
q26 35 41 79.5t15 89.5q0 84 -26.5 142t-88.5 58q-14 0 -36 -5l-3 12q38 11 70 11q74 0 121 -45.5zM381 861l-19 15q-14 -3 -23 -12.5t-23 -30.5l-13 1q30 69 115 77q9 -12 40 -29.5t55 -25.5q12 2 20 10t27 30l13 -2q-21 -32 -46 -48.5t-84 -28.5q-25 13 -62 44z" />
    <glyph glyph-name="Adieresis" unicode="&#xc4;" horiz-adv-x="885" 
d="M475 337q0 -39 28.5 -56.5t60.5 -17.5q-89 -68 -89 -147v-189q0 -18 5 -43q1 -7 3 -22.5t2 -27.5q0 -25 -11 -39.5t-39 -14.5q30 51 30 147v183q0 29 -15.5 48t-36 27t-35.5 8q39 31 63 68.5t24 75.5v153q-14 -67 -51 -135t-96.5 -121.5t-136.5 -75.5q30 -3 58.5 -16.5
t73.5 -39.5q33 -19 51 -27.5t31 -8.5q27 0 43 18q0 -40 -26.5 -69.5t-67.5 -29.5q-20 0 -43.5 12t-60.5 36q-40 26 -68 40t-53 14q-43 0 -72 -51q40 123 121 123q70 19 116 70.5t66.5 118.5t20.5 136q0 86 -30 145.5t-87 59.5q-34 0 -60 -20.5t-40 -52.5t-14 -66
q0 -25 10.5 -46.5t30.5 -52.5q18 -25 26.5 -42.5t8.5 -36.5q0 -41 -27.5 -87.5t-67 -78t-73.5 -31.5q-19 0 -28.5 10.5t-9.5 26.5q0 19 13.5 35t31.5 16q-11 -8 -11 -20q0 -13 15.5 -24.5t34.5 -11.5q20 0 36 21.5t16 50.5q0 18 -14.5 46t-59.5 97q-15 23 -15 51
q0 54 46 116.5t113.5 105t128.5 42.5q46 0 77 -31t43 -85v21q0 70 23 99t63 29q26 0 56.5 -11.5t70.5 -32.5q30 -15 47.5 -22.5t30.5 -8.5q8 -1 15 10t7 25t-7 27h1q23 -23 23 -59t-22 -64.5t-54 -28.5q-16 0 -35 8.5t-57 27.5q-38 20 -61.5 29.5t-42.5 9.5q-22 0 -35 -22
t-13 -57v-264zM828 362.5q47 -45.5 47 -119.5t-45.5 -140t-97.5 -109t-109 -81q42 39 42 98q0 38 -15 80t-45 107q-36 77 -55 132.5t-19 111.5q0 61 36 111.5t142 51.5v-4q-58 -12 -79.5 -37t-21.5 -67q0 -38 17 -83.5t51 -117.5q36 -74 54 -123t18 -90q0 -35 -15 -60l2 -2
q26 35 41 79.5t15 89.5q0 84 -26.5 142t-88.5 58q-14 0 -36 -5l-3 12q38 11 70 11q74 0 121 -45.5zM346.5 814.5q-16.5 17.5 -34.5 29.5q49 21 77 82q5 -14 21 -32t29 -25q-24 -17 -41 -34t-34 -50q-1 12 -17.5 29.5zM460.5 814.5q-16.5 17.5 -34.5 29.5q32 14 52 39.5
t25 42.5q5 -14 21 -32t29 -25q-24 -16 -41 -33.5t-34 -50.5q-1 12 -17.5 29.5z" />
    <glyph glyph-name="Aring" unicode="&#xc5;" horiz-adv-x="885" 
d="M475 337q0 -39 28.5 -56.5t60.5 -17.5q-89 -68 -89 -147v-189q0 -18 5 -43q1 -7 3 -22.5t2 -27.5q0 -25 -11 -39.5t-39 -14.5q30 51 30 147v183q0 29 -15.5 48t-36 27t-35.5 8q39 31 63 68.5t24 75.5v153q-14 -67 -51 -135t-96.5 -121.5t-136.5 -75.5q30 -3 58.5 -16.5
t73.5 -39.5q33 -19 51 -27.5t31 -8.5q27 0 43 18q0 -40 -26.5 -69.5t-67.5 -29.5q-20 0 -43.5 12t-60.5 36q-40 26 -68 40t-53 14q-43 0 -72 -51q40 123 121 123q70 19 116 70.5t66.5 118.5t20.5 136q0 86 -30 145.5t-87 59.5q-34 0 -60 -20.5t-40 -52.5t-14 -66
q0 -25 10.5 -46.5t30.5 -52.5q18 -25 26.5 -42.5t8.5 -36.5q0 -41 -27.5 -87.5t-67 -78t-73.5 -31.5q-19 0 -28.5 10.5t-9.5 26.5q0 19 13.5 35t31.5 16q-11 -8 -11 -20q0 -13 15.5 -24.5t34.5 -11.5q20 0 36 21.5t16 50.5q0 18 -14.5 46t-59.5 97q-15 23 -15 51
q0 54 46 116.5t113.5 105t128.5 42.5q46 0 77 -31t43 -85v21q0 70 23 99t63 29q26 0 56.5 -11.5t70.5 -32.5q30 -15 47.5 -22.5t30.5 -8.5q8 -1 15 10t7 25t-7 27h1q23 -23 23 -59t-22 -64.5t-54 -28.5q-16 0 -35 8.5t-57 27.5q-38 20 -61.5 29.5t-42.5 9.5q-22 0 -35 -22
t-13 -57v-264zM828 362.5q47 -45.5 47 -119.5t-45.5 -140t-97.5 -109t-109 -81q42 39 42 98q0 38 -15 80t-45 107q-36 77 -55 132.5t-19 111.5q0 61 36 111.5t142 51.5v-4q-58 -12 -79.5 -37t-21.5 -67q0 -38 17 -83.5t51 -117.5q36 -74 54 -123t18 -90q0 -35 -15 -60l2 -2
q26 35 41 79.5t15 89.5q0 84 -26.5 142t-88.5 58q-14 0 -36 -5l-3 12q38 11 70 11q74 0 121 -45.5zM354 849q0 22 23.5 49t68.5 60q36 -15 55 -37.5t19 -48.5q0 -27 -20 -51.5t-59 -40.5q-87 29 -87 69zM480 851q0 25 -15 47.5t-38 31.5q-14 -10 -21.5 -25t-7.5 -31
q0 -25 17.5 -44.5t48.5 -21.5q16 17 16 43z" />
    <glyph glyph-name="AE" unicode="&#xc6;" horiz-adv-x="1031" 
d="M987 471q24 -69 24 -129q0 -59 -20.5 -102.5t-59.5 -99.5q-31 -45 -46 -75t-15 -65h-191q-27 0 -47 4v-103q0 -18 5 -43q1 -7 3 -22.5t2 -27.5q0 -25 -11 -39.5t-39 -14.5q30 51 30 147v105q-43 10 -78 37q-14 -26 -44 -42t-69 -16q-46 0 -85.5 17t-91.5 48
q-42 25 -69.5 37.5t-55.5 12.5q-34 0 -57 -24q0 23 17 44.5t46.5 35.5t64.5 14q22 0 43 -7q59 45 93.5 136t34.5 185q0 85 -30 140.5t-87 55.5q-51 0 -82.5 -38.5t-31.5 -91.5q0 -25 10.5 -46.5t30.5 -52.5q18 -25 26.5 -42.5t8.5 -36.5q0 -41 -27.5 -87.5t-67 -78
t-73.5 -31.5q-19 0 -28.5 10.5t-9.5 26.5q0 19 13.5 35t31.5 16q-11 -8 -11 -20q0 -13 15.5 -24.5t34.5 -11.5q20 0 36 21.5t16 50.5q0 18 -14.5 46t-59.5 97q-15 23 -15 51q0 54 46 116.5t113.5 105t128.5 42.5q60 0 93.5 -51t33.5 -132q0 -100 -54 -207.5t-161 -187.5
q27 -10 75 -36q51 -28 88 -42.5t78 -14.5q7 0 21 2q-31 35 -46.5 84.5t-15.5 106.5q0 98 43.5 195.5t121.5 159.5v225q0 39 21.5 64.5t52 39.5t79.5 30q52 17 76 30.5t24 38.5q0 14 -7 27h1q23 -23 23 -59t-21.5 -60.5t-51.5 -38.5t-79 -30q-54 -17 -81 -33t-27 -42v-255
q17 69 63.5 109t121.5 40h94q45 0 73 13.5t36 48.5l1 -1q0 -42 -5 -73.5t-30.5 -59.5t-80.5 -28h-131q-76 0 -109 -42t-33 -96v-31q15 45 50 62t86 17h76q32 0 49.5 14.5t23.5 47.5h2q0 -14 1 -22l1 -33q0 -47 -20 -77t-78 -30h-55q-56 0 -79.5 -2t-40 -13t-16.5 -38
q0 -71 36 -87q-15 -14 -25.5 -39.5t-10.5 -54.5v-55q50 -31 121 -31h51q54 0 89 26t50.5 63.5t15.5 74.5q0 42 -19.5 68.5t-41.5 26.5q-15 0 -24 -15l-2 2q5 15 17.5 26t35.5 26q33 20 48 37t12 46h2zM553 215q23 -55 69 -87v41q0 26 -12 40t-31 16q24 26 33.5 52.5
t9.5 79.5v256q-44 -60 -68 -132.5t-24 -142.5q0 -68 23 -123z" />
    <glyph glyph-name="Ccedilla" unicode="&#xc7;" horiz-adv-x="585" 
d="M525 471q24 -69 24 -129q0 -59 -20.5 -102.5t-59.5 -99.5q-31 -45 -46 -75t-15 -65h-98q-33 0 -65 8v-96q0 -18 5 -43q1 -7 3 -22.5t2 -27.5q0 -25 -11 -39.5t-39 -14.5q30 51 30 147v98q-66 19 -112.5 70.5t-70 122.5t-23.5 150q0 105 42 199.5t122 147.5
q-37 -50 -58 -129t-21 -163q0 -97 30 -175t91 -115v100q0 54 -23.5 81.5t-55.5 27.5q32 27 55.5 73.5t23.5 100.5v161q0 70 23 99t63 29q26 0 56.5 -11.5t70.5 -32.5q30 -15 47.5 -22.5t30.5 -8.5q8 -1 15 10t7 25t-7 27h1q23 -23 23 -59t-22 -64.5t-54 -28.5q-15 0 -36 9
t-54 26q-35 19 -60.5 29.5t-45.5 10.5q-22 0 -35 -22t-13 -57v-103q0 -54 18.5 -82.5t43.5 -37.5q-24 -13 -43 -51t-19 -91v-143q41 -23 97 -23q54 0 89 26t50.5 63.5t15.5 74.5q0 42 -19.5 68.5t-41.5 26.5q-15 0 -24 -15l-2 2q5 15 17.5 26t35.5 26q33 20 48 37t12 46h2z
M279 -260q44 28 44 68q0 23 -14.5 46.5t-42.5 45.5l70 70h17l-17 -20q47 -51 47 -92q0 -59 -96 -122z" />
    <glyph glyph-name="Egrave" unicode="&#xc8;" horiz-adv-x="584" 
d="M540 471q24 -69 24 -129q0 -59 -20.5 -102.5t-59.5 -99.5q-31 -45 -46 -75t-15 -65h-191q-27 0 -47 4v-103q0 -18 5 -43q1 -7 3 -22.5t2 -27.5q0 -25 -11 -39.5t-39 -14.5q30 51 30 147v105q-81 19 -123 88t-42 165q0 98 43.5 195.5t121.5 159.5v225q0 39 21.5 64.5
t52 39.5t79.5 30q52 17 76 30.5t24 38.5q0 14 -7 27h1q23 -23 23 -59t-21.5 -60.5t-51.5 -38.5t-79 -30q-54 -17 -81 -33t-27 -42v-255q17 69 63.5 109t121.5 40h94q45 0 73 13.5t36 48.5l1 -1q0 -42 -5 -73.5t-30.5 -59.5t-80.5 -28h-131q-76 0 -109 -42t-33 -96v-31
q15 45 50 62t86 17h76q32 0 49.5 14.5t23.5 47.5h2q0 -14 1 -22l1 -33q0 -47 -20 -77t-78 -30h-55q-56 0 -79.5 -2t-40 -13t-16.5 -38q0 -71 36 -87q-15 -14 -25.5 -39.5t-10.5 -54.5v-55q50 -31 121 -31h51q54 0 89 26t50.5 63.5t15.5 74.5q0 42 -19.5 68.5t-41.5 26.5
q-15 0 -24 -15l-2 2q5 15 17.5 26t35.5 26q33 20 48 37t12 46h2zM106 215q23 -55 69 -87v41q0 26 -12 40t-31 16q24 26 33.5 52.5t9.5 79.5v256q-44 -60 -68 -132.5t-24 -142.5q0 -68 23 -123zM393 768.5q-37 30.5 -52 70.5q42 22 63 56l15 -5q12 -96 67 -160
q-56 8 -93 38.5z" />
    <glyph glyph-name="Eacute" unicode="&#xc9;" horiz-adv-x="584" 
d="M540 471q24 -69 24 -129q0 -59 -20.5 -102.5t-59.5 -99.5q-31 -45 -46 -75t-15 -65h-191q-27 0 -47 4v-103q0 -18 5 -43q1 -7 3 -22.5t2 -27.5q0 -25 -11 -39.5t-39 -14.5q30 51 30 147v105q-81 19 -123 88t-42 165q0 98 43.5 195.5t121.5 159.5v225q0 39 21.5 64.5
t52 39.5t79.5 30q52 17 76 30.5t24 38.5q0 14 -7 27h1q23 -23 23 -59t-21.5 -60.5t-51.5 -38.5t-79 -30q-54 -17 -81 -33t-27 -42v-255q17 69 63.5 109t121.5 40h94q45 0 73 13.5t36 48.5l1 -1q0 -42 -5 -73.5t-30.5 -59.5t-80.5 -28h-131q-76 0 -109 -42t-33 -96v-31
q15 45 50 62t86 17h76q32 0 49.5 14.5t23.5 47.5h2q0 -14 1 -22l1 -33q0 -47 -20 -77t-78 -30h-55q-56 0 -79.5 -2t-40 -13t-16.5 -38q0 -71 36 -87q-15 -14 -25.5 -39.5t-10.5 -54.5v-55q50 -31 121 -31h51q54 0 89 26t50.5 63.5t15.5 74.5q0 42 -19.5 68.5t-41.5 26.5
q-15 0 -24 -15l-2 2q5 15 17.5 26t35.5 26q33 20 48 37t12 46h2zM106 215q23 -55 69 -87v41q0 26 -12 40t-31 16q24 26 33.5 52.5t9.5 79.5v256q-44 -60 -68 -132.5t-24 -142.5q0 -68 23 -123zM408 890l15 5q21 -34 63 -56q-15 -40 -52 -70.5t-93 -38.5q55 64 67 160z" />
    <glyph glyph-name="Ecircumflex" unicode="&#xca;" horiz-adv-x="584" 
d="M540 471q24 -69 24 -129q0 -59 -20.5 -102.5t-59.5 -99.5q-31 -45 -46 -75t-15 -65h-191q-27 0 -47 4v-103q0 -18 5 -43q1 -7 3 -22.5t2 -27.5q0 -25 -11 -39.5t-39 -14.5q30 51 30 147v105q-81 19 -123 88t-42 165q0 98 43.5 195.5t121.5 159.5v225q0 39 21.5 64.5
t52 39.5t79.5 30q52 17 76 30.5t24 38.5q0 14 -7 27h1q23 -23 23 -59t-21.5 -60.5t-51.5 -38.5t-79 -30q-54 -17 -81 -33t-27 -42v-255q17 69 63.5 109t121.5 40h94q45 0 73 13.5t36 48.5l1 -1q0 -42 -5 -73.5t-30.5 -59.5t-80.5 -28h-131q-76 0 -109 -42t-33 -96v-31
q15 45 50 62t86 17h76q32 0 49.5 14.5t23.5 47.5h2q0 -14 1 -22l1 -33q0 -47 -20 -77t-78 -30h-55q-56 0 -79.5 -2t-40 -13t-16.5 -38q0 -71 36 -87q-15 -14 -25.5 -39.5t-10.5 -54.5v-55q50 -31 121 -31h51q54 0 89 26t50.5 63.5t15.5 74.5q0 42 -19.5 68.5t-41.5 26.5
q-15 0 -24 -15l-2 2q5 15 17.5 26t35.5 26q33 20 48 37t12 46h2zM106 215q23 -55 69 -87v41q0 26 -12 40t-31 16q24 26 33.5 52.5t9.5 79.5v256q-44 -60 -68 -132.5t-24 -142.5q0 -68 23 -123zM431.5 787q-18.5 32 -36.5 46l-82 -87l-11 9l121 131q67 -47 102 -114
q-43 -22 -63 -47q-12 30 -30.5 62z" />
    <glyph glyph-name="Edieresis" unicode="&#xcb;" horiz-adv-x="584" 
d="M540 471q24 -69 24 -129q0 -59 -20.5 -102.5t-59.5 -99.5q-31 -45 -46 -75t-15 -65h-191q-27 0 -47 4v-103q0 -18 5 -43q1 -7 3 -22.5t2 -27.5q0 -25 -11 -39.5t-39 -14.5q30 51 30 147v105q-81 19 -123 88t-42 165q0 98 43.5 195.5t121.5 159.5v225q0 39 21.5 64.5
t52 39.5t79.5 30q52 17 76 30.5t24 38.5q0 14 -7 27h1q23 -23 23 -59t-21.5 -60.5t-51.5 -38.5t-79 -30q-54 -17 -81 -33t-27 -42v-255q17 69 63.5 109t121.5 40h94q45 0 73 13.5t36 48.5l1 -1q0 -42 -5 -73.5t-30.5 -59.5t-80.5 -28h-131q-76 0 -109 -42t-33 -96v-31
q15 45 50 62t86 17h76q32 0 49.5 14.5t23.5 47.5h2q0 -14 1 -22l1 -33q0 -47 -20 -77t-78 -30h-55q-56 0 -79.5 -2t-40 -13t-16.5 -38q0 -71 36 -87q-15 -14 -25.5 -39.5t-10.5 -54.5v-55q50 -31 121 -31h51q54 0 89 26t50.5 63.5t15.5 74.5q0 42 -19.5 68.5t-41.5 26.5
q-15 0 -24 -15l-2 2q5 15 17.5 26t35.5 26q33 20 48 37t12 46h2zM106 215q23 -55 69 -87v41q0 26 -12 40t-31 16q24 26 33.5 52.5t9.5 79.5v256q-44 -60 -68 -132.5t-24 -142.5q0 -68 23 -123zM322.5 757.5q-16.5 17.5 -34.5 29.5q49 21 77 82q5 -14 21 -32t29 -25
q-24 -17 -41 -34t-34 -50q-1 12 -17.5 29.5zM436.5 757.5q-16.5 17.5 -34.5 29.5q32 14 52 39.5t25 42.5q5 -14 21 -32t29 -25q-24 -16 -41 -33.5t-34 -50.5q-1 12 -17.5 29.5z" />
    <glyph glyph-name="Igrave" unicode="&#xcc;" horiz-adv-x="393" 
d="M203 745l12 -15l-12 2v-88q60 71 150 169l42 46l1 -1q-20 -50 -29 -88.5t-9 -90.5v-436q0 -91 -41 -125.5t-114 -35.5v-32q22 -18 40.5 -28t38.5 -10q28 0 44 16.5t16 36.5q0 21 -16 31l1 3q31 -11 31 -47q0 -25 -16.5 -50t-51.5 -42t-87 -19v-40q0 -18 5 -43
q1 -7 3 -22.5t2 -27.5q0 -25 -11 -39.5t-39 -14.5q30 51 30 147v40q-55 51 -90.5 73.5t-51.5 22.5q-13 0 -13 -11q0 -8 7 -17.5t17 -14.5q-24 0 -38 16.5t-14 38.5q0 27 20 48t57 21q26 0 48.5 -14.5t57.5 -45.5v82q0 28 -13 56t-30 38q23 22 33 46.5t10 76.5v243
q-39 -66 -62 -134.5t-23 -123.5q0 -73 42 -108q-94 51 -94 134q0 53 35.5 117.5t101.5 145.5v103q-47 12 -78.5 41t-44.5 64q42 22 63 56l15 -5q9 -74 45 -131v80q0 39 21.5 64.5t52 39.5t79.5 30q52 17 76 30.5t24 38.5q0 14 -7 27h1q23 -23 23 -59t-21.5 -60.5
t-51.5 -38.5t-79 -30q-54 -17 -81 -33t-27 -42v-61zM268 705q-34 -39 -65 -88v-260q0 -67 30 -88q-17 -20 -23.5 -48t-6.5 -81v-55q37 20 51 57.5t14 117.5v445z" />
    <glyph glyph-name="Iacute" unicode="&#xcd;" horiz-adv-x="393" 
d="M203 644q60 71 150 169l42 46l1 -1q-20 -50 -29 -88.5t-9 -90.5v-436q0 -91 -41 -125.5t-114 -35.5v-32q22 -18 40.5 -28t38.5 -10q28 0 44 16.5t16 36.5q0 21 -16 31l1 3q31 -11 31 -47q0 -25 -16.5 -50t-51.5 -42t-87 -19v-40q0 -18 5 -43q1 -7 3 -22.5t2 -27.5
q0 -25 -11 -39.5t-39 -14.5q30 51 30 147v40q-55 51 -90.5 73.5t-51.5 22.5q-13 0 -13 -11q0 -8 7 -17.5t17 -14.5q-24 0 -38 16.5t-14 38.5q0 27 20 48t57 21q26 0 48.5 -14.5t57.5 -45.5v82q0 28 -13 56t-30 38q23 22 33 46.5t10 76.5v243q-39 -66 -62 -134.5t-23 -123.5
q0 -73 42 -108q-94 51 -94 134q0 53 35.5 117.5t101.5 145.5v168q-43 -57 -123 -69q55 64 67 160l15 5q14 -23 42 -43q4 35 26 58t51.5 36t74.5 27q52 17 76 30.5t24 38.5q0 14 -7 27h1q23 -23 23 -59t-21.5 -60.5t-51.5 -38.5t-79 -30q-42 -14 -65 -24t-34 -25l-8 -16
q-1 -3 -1 -10v-162zM268 705q-34 -39 -65 -88v-260q0 -67 30 -88q-17 -20 -23.5 -48t-6.5 -81v-55q37 20 51 57.5t14 117.5v445z" />
    <glyph glyph-name="Icircumflex" unicode="&#xce;" horiz-adv-x="393" 
d="M441.5 949.5q-21.5 -24.5 -51.5 -38.5t-79 -30q-41 -14 -64 -24t-34 -24q26 -31 41 -61q-28 -15 -51 -34v-94q60 71 150 169l42 46l1 -1q-20 -50 -29 -88.5t-9 -90.5v-436q0 -91 -41 -125.5t-114 -35.5v-32q22 -18 40.5 -28t38.5 -10q28 0 44 16.5t16 36.5q0 21 -16 31
l1 3q31 -11 31 -47q0 -25 -16.5 -50t-51.5 -42t-87 -19v-40q0 -18 5 -43q1 -7 3 -22.5t2 -27.5q0 -25 -11 -39.5t-39 -14.5q30 51 30 147v40q-55 51 -90.5 73.5t-51.5 22.5q-13 0 -13 -11q0 -8 7 -17.5t17 -14.5q-24 0 -38 16.5t-14 38.5q0 27 20 48t57 21q26 0 48.5 -14.5
t57.5 -45.5v82q0 28 -13 56t-30 38q23 22 33 46.5t10 76.5v243q-39 -66 -62 -134.5t-23 -123.5q0 -73 42 -108q-94 51 -94 134q0 53 35.5 117.5t101.5 145.5v96l-2 -2q-12 30 -30.5 62t-36.5 46l-82 -87l-11 9l121 131q19 -12 42 -34q4 35 26 58t51.5 36t74.5 27
q52 17 76 30.5t24 38.5q0 14 -7 27h1q23 -23 23 -59t-21.5 -60.5zM268 705q-34 -39 -65 -88v-260q0 -67 30 -88q-17 -20 -23.5 -48t-6.5 -81v-55q37 20 51 57.5t14 117.5v445z" />
    <glyph glyph-name="Idieresis" unicode="&#xcf;" horiz-adv-x="393" 
d="M441.5 949.5q-21.5 -24.5 -51.5 -38.5t-79 -30q-33 -10 -53.5 -18.5t-34.5 -19.5q21 -25 35 -31q-18 -12 -30.5 -23t-24.5 -28v-117q60 71 150 169l42 46l1 -1q-20 -50 -29 -88.5t-9 -90.5v-436q0 -91 -41 -125.5t-114 -35.5v-32q22 -18 40.5 -28t38.5 -10q28 0 44 16.5
t16 36.5q0 21 -16 31l1 3q31 -11 31 -47q0 -25 -16.5 -50t-51.5 -42t-87 -19v-40q0 -18 5 -43q1 -7 3 -22.5t2 -27.5q0 -25 -11 -39.5t-39 -14.5q30 51 30 147v40q-55 51 -90.5 73.5t-51.5 22.5q-13 0 -13 -11q0 -8 7 -17.5t17 -14.5q-24 0 -38 16.5t-14 38.5q0 27 20 48
t57 21q26 0 48.5 -14.5t57.5 -45.5v82q0 28 -13 56t-30 38q23 22 33 46.5t10 76.5v243q-39 -66 -62 -134.5t-23 -123.5q0 -73 42 -108q-94 51 -94 134q0 53 35.5 117.5t101.5 145.5v115q-8 -13 -10 -18q-1 12 -17.5 29.5t-34.5 29.5q38 16 62 53q0 39 22 64.5t52.5 39.5
t77.5 29q52 16 76.5 30t24.5 39q0 14 -7 27h1q23 -23 23 -59t-21.5 -60.5zM51.5 757.5q-16.5 17.5 -34.5 29.5q49 21 77 82q5 -14 21 -32t29 -25q-24 -16 -41 -33.5t-34 -50.5q-1 12 -17.5 29.5zM268 705q-34 -39 -65 -88v-260q0 -67 30 -88q-17 -20 -23.5 -48t-6.5 -81v-55
q37 20 51 57.5t14 117.5v445z" />
    <glyph glyph-name="Eth" unicode="&#xd0;" horiz-adv-x="800" 
d="M524 762q63 -5 115 -46t82 -106.5t30 -141.5q0 -109 -37 -215.5t-106.5 -183.5t-162.5 -100q-41 15 -89 31.5t-87 25.5v-125q0 -18 5 -43q1 -7 3 -22.5t2 -27.5q0 -25 -11 -39.5t-39 -14.5q30 51 30 147v128q-49 9 -77 9q-37 0 -59 -27.5t-17 -69.5h-2q-10 27 -10 56
q0 53 35.5 89.5t93.5 36.5q19 18 27.5 45t8.5 79v107h-95l23 17h72v330q-38 -37 -62.5 -81.5t-24.5 -90.5q0 -78 80 -146q-93 51 -135 94.5t-42 81.5q0 44 47 81.5t137 85.5v113q0 39 21.5 64.5t52 39.5t79.5 30q52 17 76 30.5t24 38.5q0 14 -7 27h1q23 -23 23 -59
t-21.5 -60.5t-51.5 -38.5t-79 -30q-54 -17 -81 -33t-27 -42v-74q75 40 120.5 68t74.5 59l-13 -33q-14 -34 -19 -56t-5 -61v-338h96l-23 -17h-73v-53q0 -79 -36.5 -129.5t-106.5 -52.5q25 14 39 49t14 92v94h-68v-74q0 -41 9 -60.5t27 -27.5q-15 -8 -25.5 -29t-10.5 -41v-2
q32 -5 63 -14t71 -24q43 -15 70 -22.5t51 -7.5q45 0 79.5 43.5t53 114t18.5 149.5q0 137 -47.5 225t-177.5 116zM269 371h68v390q-28 -14 -68 -51v-339z" />
    <glyph glyph-name="Ntilde" unicode="&#xd1;" horiz-adv-x="684" 
d="M446 634l53 66h8q44 0 72 -28.5t28 -67.5v-472q0 -14 10.5 -29t26.5 -20l22 25l8 -7l-82 -101q-46 35 -60.5 65.5t-14.5 66.5v450q0 40 -58 40h-13v-375q0 -47 4.5 -73.5t17.5 -37.5q-11 -5 -16.5 -18.5t-5.5 -28.5v-188q0 -18 5 -43q1 -7 3 -22.5t2 -27.5
q0 -25 -11 -39.5t-39 -14.5q30 51 30 147v158q0 19 -7 34t-18 23q2 -10 2 -29q0 -45 -23 -73.5t-72 -28.5q-34 0 -72 23.5t-93 68.5q-41 34 -65 49.5t-41 15.5q-16 0 -25 -13t-9 -30q0 -19 9.5 -31.5t25.5 -11.5q-7 -17 -19.5 -25.5t-25.5 -8.5q-17 0 -25.5 9t-8.5 25
q0 25 21 54t61 49.5t94 20.5q104 50 154.5 128.5t50.5 161.5q0 51 -18.5 94t-51 68.5t-73.5 25.5q-53 0 -53 -40q0 -17 8 -40t24 -57q17 -37 24.5 -58t7.5 -38q0 -34 -25.5 -73t-64 -65t-76.5 -26q-21 0 -31.5 8.5t-10.5 21.5q0 16 15 30t35 14q-12 -8 -12 -17
q0 -11 17 -20.5t38 -9.5q19 0 26.5 10t7.5 28q0 28 -21 95q-12 41 -17.5 63t-5.5 41q0 49 26.5 89t68 63t84.5 23q72 0 113.5 -36t50.5 -96v271q0 39 21.5 64.5t52 39.5t79.5 30q52 17 76 30.5t24 38.5q0 14 -7 27h1q23 -23 23 -59t-21.5 -60.5t-51.5 -38.5t-79 -30
q-54 -17 -81 -33t-27 -42v-172zM436 247v260q-11 -91 -81.5 -182t-188.5 -147q27 -5 47.5 -18.5t46.5 -37.5q30 -27 51.5 -40t50.5 -13q19 0 30.5 11.5t11.5 30.5q0 7 -1 10q-5 3 -10 3q3 0 9 2q-7 29 -40 57q-20 17 -20 34q0 7 4.5 11t9.5 2q22 -10 35 -37t19 -62
q26 24 26 116zM222 792l-19 15q-14 -3 -23 -12.5t-23 -30.5l-13 1q30 69 115 77q9 -12 40 -29.5t55 -25.5q12 2 20 10t27 30l13 -2q-21 -32 -46 -48.5t-84 -28.5q-25 13 -62 44z" />
    <glyph glyph-name="Ograve" unicode="&#xd2;" horiz-adv-x="585" 
d="M525 471q24 -69 24 -129q0 -59 -20.5 -102.5t-59.5 -99.5q-31 -45 -46 -75t-15 -65h-98q-33 0 -65 8v-96q0 -18 5 -43q1 -7 3 -22.5t2 -27.5q0 -25 -11 -39.5t-39 -14.5q30 51 30 147v98q-66 19 -112.5 70.5t-70 122.5t-23.5 150q0 105 42 199.5t122 147.5
q-37 -50 -58 -129t-21 -163q0 -97 30 -175t91 -115v132q0 46 -26.5 64.5t-60.5 18.5q38 34 62.5 75.5t24.5 68.5v117q0 62 19 104t50.5 62t67.5 20q65 0 102.5 -55t37.5 -137q0 -53 -17 -108t-50 -104l19 12q32 20 47 37t12 46h2zM431 116q35 26 50.5 63.5t15.5 74.5
q0 42 -19.5 68.5t-41.5 26.5q-8 0 -15 -5l-9 -10l-2 2l1 4v1q44 78 44 162q0 61 -21.5 114.5t-54.5 85t-64 31.5t-50.5 -35.5t-19.5 -107.5v-114q0 -30 28 -51t58 -21q-29 -25 -45 -42.5t-28.5 -44t-12.5 -62.5v-143q41 -23 97 -23q54 0 89 26zM282 848.5q-37 30.5 -52 70.5
q42 22 63 56l15 -5q12 -96 67 -160q-56 8 -93 38.5z" />
    <glyph glyph-name="Oacute" unicode="&#xd3;" horiz-adv-x="585" 
d="M525 471q24 -69 24 -129q0 -59 -20.5 -102.5t-59.5 -99.5q-31 -45 -46 -75t-15 -65h-98q-33 0 -65 8v-96q0 -18 5 -43q1 -7 3 -22.5t2 -27.5q0 -25 -11 -39.5t-39 -14.5q30 51 30 147v98q-66 19 -112.5 70.5t-70 122.5t-23.5 150q0 105 42 199.5t122 147.5
q-37 -50 -58 -129t-21 -163q0 -97 30 -175t91 -115v132q0 46 -26.5 64.5t-60.5 18.5q38 34 62.5 75.5t24.5 68.5v117q0 62 19 104t50.5 62t67.5 20q65 0 102.5 -55t37.5 -137q0 -53 -17 -108t-50 -104l19 12q32 20 47 37t12 46h2zM431 116q35 26 50.5 63.5t15.5 74.5
q0 42 -19.5 68.5t-41.5 26.5q-8 0 -15 -5l-9 -10l-2 2l1 4v1q44 78 44 162q0 61 -21.5 114.5t-54.5 85t-64 31.5t-50.5 -35.5t-19.5 -107.5v-114q0 -30 28 -51t58 -21q-29 -25 -45 -42.5t-28.5 -44t-12.5 -62.5v-143q41 -23 97 -23q54 0 89 26zM297 970l15 5q21 -34 63 -56
q-15 -40 -52 -70.5t-93 -38.5q55 64 67 160z" />
    <glyph glyph-name="Ocircumflex" unicode="&#xd4;" horiz-adv-x="585" 
d="M525 471q24 -69 24 -129q0 -59 -20.5 -102.5t-59.5 -99.5q-31 -45 -46 -75t-15 -65h-98q-33 0 -65 8v-96q0 -18 5 -43q1 -7 3 -22.5t2 -27.5q0 -25 -11 -39.5t-39 -14.5q30 51 30 147v98q-66 19 -112.5 70.5t-70 122.5t-23.5 150q0 105 42 199.5t122 147.5
q-37 -50 -58 -129t-21 -163q0 -97 30 -175t91 -115v132q0 46 -26.5 64.5t-60.5 18.5q38 34 62.5 75.5t24.5 68.5v117q0 62 19 104t50.5 62t67.5 20q65 0 102.5 -55t37.5 -137q0 -53 -17 -108t-50 -104l19 12q32 20 47 37t12 46h2zM431 116q35 26 50.5 63.5t15.5 74.5
q0 42 -19.5 68.5t-41.5 26.5q-8 0 -15 -5l-9 -10l-2 2l1 4v1q44 78 44 162q0 61 -21.5 114.5t-54.5 85t-64 31.5t-50.5 -35.5t-19.5 -107.5v-114q0 -30 28 -51t58 -21q-29 -25 -45 -42.5t-28.5 -44t-12.5 -62.5v-143q41 -23 97 -23q54 0 89 26zM320.5 867q-18.5 32 -36.5 46
l-82 -87l-11 9l121 131q67 -47 102 -114q-43 -22 -63 -47q-12 30 -30.5 62z" />
    <glyph glyph-name="Otilde" unicode="&#xd5;" horiz-adv-x="585" 
d="M525 471q24 -69 24 -129q0 -59 -20.5 -102.5t-59.5 -99.5q-31 -45 -46 -75t-15 -65h-98q-33 0 -65 8v-96q0 -18 5 -43q1 -7 3 -22.5t2 -27.5q0 -25 -11 -39.5t-39 -14.5q30 51 30 147v98q-66 19 -112.5 70.5t-70 122.5t-23.5 150q0 105 42 199.5t122 147.5
q-37 -50 -58 -129t-21 -163q0 -97 30 -175t91 -115v132q0 46 -26.5 64.5t-60.5 18.5q38 34 62.5 75.5t24.5 68.5v117q0 62 19 104t50.5 62t67.5 20q65 0 102.5 -55t37.5 -137q0 -53 -17 -108t-50 -104l19 12q32 20 47 37t12 46h2zM431 116q35 26 50.5 63.5t15.5 74.5
q0 42 -19.5 68.5t-41.5 26.5q-8 0 -15 -5l-9 -10l-2 2l1 4v1q44 78 44 162q0 61 -21.5 114.5t-54.5 85t-64 31.5t-50.5 -35.5t-19.5 -107.5v-114q0 -30 28 -51t58 -21q-29 -25 -45 -42.5t-28.5 -44t-12.5 -62.5v-143q41 -23 97 -23q54 0 89 26zM246 884l-19 15
q-14 -3 -23 -12.5t-23 -30.5l-13 1q30 69 115 77q9 -12 40 -29.5t55 -25.5q12 2 20 10t27 30l13 -2q-21 -32 -46 -48.5t-84 -28.5q-25 13 -62 44z" />
    <glyph glyph-name="Odieresis" unicode="&#xd6;" horiz-adv-x="585" 
d="M525 471q24 -69 24 -129q0 -59 -20.5 -102.5t-59.5 -99.5q-31 -45 -46 -75t-15 -65h-98q-33 0 -65 8v-96q0 -18 5 -43q1 -7 3 -22.5t2 -27.5q0 -25 -11 -39.5t-39 -14.5q30 51 30 147v98q-66 19 -112.5 70.5t-70 122.5t-23.5 150q0 105 42 199.5t122 147.5
q-37 -50 -58 -129t-21 -163q0 -97 30 -175t91 -115v132q0 46 -26.5 64.5t-60.5 18.5q38 34 62.5 75.5t24.5 68.5v117q0 62 19 104t50.5 62t67.5 20q65 0 102.5 -55t37.5 -137q0 -53 -17 -108t-50 -104l19 12q32 20 47 37t12 46h2zM431 116q35 26 50.5 63.5t15.5 74.5
q0 42 -19.5 68.5t-41.5 26.5q-8 0 -15 -5l-9 -10l-2 2l1 4v1q44 78 44 162q0 61 -21.5 114.5t-54.5 85t-64 31.5t-50.5 -35.5t-19.5 -107.5v-114q0 -30 28 -51t58 -21q-29 -25 -45 -42.5t-28.5 -44t-12.5 -62.5v-143q41 -23 97 -23q54 0 89 26zM211.5 837.5
q-16.5 17.5 -34.5 29.5q49 21 77 82q5 -14 21 -32t29 -25q-24 -17 -41 -34t-34 -50q-1 12 -17.5 29.5zM325.5 837.5q-16.5 17.5 -34.5 29.5q32 14 52 39.5t25 42.5q5 -14 21 -32t29 -25q-24 -16 -41 -33.5t-34 -50.5q-1 12 -17.5 29.5z" />
    <glyph glyph-name="multiply" unicode="&#xd7;" horiz-adv-x="214" 
d="M118 290l76 -84l-29 -6l-66 73l-68 -62l-6 29l57 52l-62 68l29 7l52 -57l83 76l7 -30z" />
    <glyph glyph-name="Oslash" unicode="&#xd8;" horiz-adv-x="585" 
d="M525 471q24 -69 24 -129q0 -59 -20.5 -102.5t-59.5 -99.5q-31 -45 -46 -75t-15 -65h-98q-33 0 -65 8v-96q0 -18 5 -43q1 -7 3 -22.5t2 -27.5q0 -25 -11 -39.5t-39 -14.5q30 51 30 147v98q-24 7 -53 23l-37 -81h-17l41 89q-67 45 -103.5 129.5t-36.5 182.5q0 105 42 199.5
t122 147.5q-37 -50 -58 -129t-21 -163q0 -87 24.5 -159.5t73.5 -114.5l23 49v67q0 46 -26.5 64.5t-60.5 18.5q38 34 62.5 75.5t24.5 68.5v117q0 62 19 104t50.5 62t67.5 20q35 0 62.5 -17t46.5 -48l15 33h17l-23 -50q22 -49 22 -110q0 -53 -17 -108t-50 -104l19 12
q32 20 47 37t12 46h2zM245 205l189 410q-20 53 -53.5 86t-65.5 33q-31 0 -50.5 -35.5t-19.5 -107.5v-114q0 -30 28 -51t58 -21q-29 -25 -45 -42.5t-28.5 -44t-12.5 -62.5v-51zM431 116q35 26 50.5 63.5t15.5 74.5q0 42 -19.5 68.5t-41.5 26.5q-8 0 -15 -5l-9 -10l-2 2l1 4v1
q44 78 44 162q0 46 -13 91l-197 -426v-55q41 -23 97 -23q54 0 89 26zM235 147l-10 -22l10 -7v29z" />
    <glyph glyph-name="Ugrave" unicode="&#xd9;" horiz-adv-x="675" 
d="M666 108l8 -7l-82 -101q-41 31 -56.5 59t-18.5 58q-13 -52 -39.5 -81.5t-51 -40.5t-34.5 -11q-39 0 -66.5 13t-45.5 31.5t-40 48.5t-38 44t-38 14q-21 0 -32 -10t-11 -24q0 -16 13 -27q-14 -11 -29 -11q-14 0 -23.5 8t-9.5 18q0 26 38 39.5t79 13.5q92 23 138.5 96.5
t46.5 166.5q0 65 -22 124t-61.5 95.5t-90.5 36.5q-16 0 -29 -16.5t-13 -30.5t6.5 -33t21.5 -53q16 -36 24 -60t8 -43q0 -34 -25.5 -73t-64 -65t-76.5 -26q-21 0 -31.5 8.5t-10.5 21.5q0 16 15 30t35 14q-12 -8 -12 -17q0 -11 17 -20.5t38 -9.5q35 0 35 38q0 17 -5.5 39.5
t-16.5 58.5q-23 71 -23 101q0 43 31 83.5t74.5 66t73.5 25.5q58 0 101.5 -31.5t66.5 -84t23 -114.5q0 -66 -27 -131t-82.5 -118t-137.5 -81q39 -5 70 -19.5t67 -38.5q30 -19 47.5 -27.5t35.5 -8.5q40 0 58.5 37t22.5 112v397q0 29 -7.5 49t-19.5 30l133 108
q-6 -11 -11 -44.5t-5 -68.5v-534q0 -14 10.5 -29t26.5 -20zM334 768.5q-37 30.5 -52 70.5q42 22 63 56l15 -5q12 -96 67 -160q-56 8 -93 38.5z" />
    <glyph glyph-name="Uacute" unicode="&#xda;" horiz-adv-x="675" 
d="M666 108l8 -7l-82 -101q-41 31 -56.5 59t-18.5 58q-13 -52 -39.5 -81.5t-51 -40.5t-34.5 -11q-39 0 -66.5 13t-45.5 31.5t-40 48.5t-38 44t-38 14q-21 0 -32 -10t-11 -24q0 -16 13 -27q-14 -11 -29 -11q-14 0 -23.5 8t-9.5 18q0 26 38 39.5t79 13.5q92 23 138.5 96.5
t46.5 166.5q0 65 -22 124t-61.5 95.5t-90.5 36.5q-16 0 -29 -16.5t-13 -30.5t6.5 -33t21.5 -53q16 -36 24 -60t8 -43q0 -34 -25.5 -73t-64 -65t-76.5 -26q-21 0 -31.5 8.5t-10.5 21.5q0 16 15 30t35 14q-12 -8 -12 -17q0 -11 17 -20.5t38 -9.5q35 0 35 38q0 17 -5.5 39.5
t-16.5 58.5q-23 71 -23 101q0 43 31 83.5t74.5 66t73.5 25.5q58 0 101.5 -31.5t66.5 -84t23 -114.5q0 -66 -27 -131t-82.5 -118t-137.5 -81q39 -5 70 -19.5t67 -38.5q30 -19 47.5 -27.5t35.5 -8.5q40 0 58.5 37t22.5 112v397q0 29 -7.5 49t-19.5 30l133 108
q-6 -11 -11 -44.5t-5 -68.5v-534q0 -14 10.5 -29t26.5 -20zM349 890l15 5q21 -34 63 -56q-15 -40 -52 -70.5t-93 -38.5q55 64 67 160z" />
    <glyph glyph-name="Ucircumflex" unicode="&#xdb;" horiz-adv-x="675" 
d="M666 108l8 -7l-82 -101q-41 31 -56.5 59t-18.5 58q-13 -52 -39.5 -81.5t-51 -40.5t-34.5 -11q-39 0 -66.5 13t-45.5 31.5t-40 48.5t-38 44t-38 14q-21 0 -32 -10t-11 -24q0 -16 13 -27q-14 -11 -29 -11q-14 0 -23.5 8t-9.5 18q0 26 38 39.5t79 13.5q92 23 138.5 96.5
t46.5 166.5q0 65 -22 124t-61.5 95.5t-90.5 36.5q-16 0 -29 -16.5t-13 -30.5t6.5 -33t21.5 -53q16 -36 24 -60t8 -43q0 -34 -25.5 -73t-64 -65t-76.5 -26q-21 0 -31.5 8.5t-10.5 21.5q0 16 15 30t35 14q-12 -8 -12 -17q0 -11 17 -20.5t38 -9.5q35 0 35 38q0 17 -5.5 39.5
t-16.5 58.5q-23 71 -23 101q0 43 31 83.5t74.5 66t73.5 25.5q58 0 101.5 -31.5t66.5 -84t23 -114.5q0 -66 -27 -131t-82.5 -118t-137.5 -81q39 -5 70 -19.5t67 -38.5q30 -19 47.5 -27.5t35.5 -8.5q40 0 58.5 37t22.5 112v397q0 29 -7.5 49t-19.5 30l133 108
q-6 -11 -11 -44.5t-5 -68.5v-534q0 -14 10.5 -29t26.5 -20zM372.5 787q-18.5 32 -36.5 46l-82 -87l-11 9l121 131q67 -47 102 -114q-43 -22 -63 -47q-12 30 -30.5 62z" />
    <glyph glyph-name="Udieresis" unicode="&#xdc;" horiz-adv-x="675" 
d="M666 108l8 -7l-82 -101q-41 31 -56.5 59t-18.5 58q-13 -52 -39.5 -81.5t-51 -40.5t-34.5 -11q-39 0 -66.5 13t-45.5 31.5t-40 48.5t-38 44t-38 14q-21 0 -32 -10t-11 -24q0 -16 13 -27q-14 -11 -29 -11q-14 0 -23.5 8t-9.5 18q0 26 38 39.5t79 13.5q92 23 138.5 96.5
t46.5 166.5q0 65 -22 124t-61.5 95.5t-90.5 36.5q-16 0 -29 -16.5t-13 -30.5t6.5 -33t21.5 -53q16 -36 24 -60t8 -43q0 -34 -25.5 -73t-64 -65t-76.5 -26q-21 0 -31.5 8.5t-10.5 21.5q0 16 15 30t35 14q-12 -8 -12 -17q0 -11 17 -20.5t38 -9.5q35 0 35 38q0 17 -5.5 39.5
t-16.5 58.5q-23 71 -23 101q0 43 31 83.5t74.5 66t73.5 25.5q58 0 101.5 -31.5t66.5 -84t23 -114.5q0 -66 -27 -131t-82.5 -118t-137.5 -81q39 -5 70 -19.5t67 -38.5q30 -19 47.5 -27.5t35.5 -8.5q40 0 58.5 37t22.5 112v397q0 29 -7.5 49t-19.5 30l133 108
q-6 -11 -11 -44.5t-5 -68.5v-534q0 -14 10.5 -29t26.5 -20zM263.5 757.5q-16.5 17.5 -34.5 29.5q49 21 77 82q5 -14 21 -32t29 -25q-24 -17 -41 -34t-34 -50q-1 12 -17.5 29.5zM377.5 757.5q-16.5 17.5 -34.5 29.5q32 14 52 39.5t25 42.5q5 -14 21 -32t29 -25
q-24 -16 -41 -33.5t-34 -50.5q-1 12 -17.5 29.5z" />
    <glyph glyph-name="Yacute" unicode="&#xdd;" horiz-adv-x="633" 
d="M607 703v-645q0 -273 -139 -273q-53 0 -104 23t-115 63q-43 26 -64 36.5t-38 10.5q-31 0 -38 -51l-10 1q27 132 91 132q32 0 64.5 -26.5t79.5 -77.5q44 -47 71.5 -69.5t52.5 -22.5q32 0 45.5 72t13.5 160v72q-17 -71 -55.5 -97t-73.5 -26q-34 0 -61 20t-63 59
q-15 17 -32 33t-32 25q-26 -19 -49 -33l-1 2q20 15 42 35q-20 10 -38 10q-22 0 -34 -8t-12 -19q0 -10 9.5 -17t25.5 -7q-16 -10 -38 -10t-38 9.5t-16 25.5q0 15 20 25.5t61 10.5q34 0 71 -8q70 74 108.5 177.5t38.5 185.5q0 69 -21 115t-52.5 67.5t-63.5 21.5
q-28 0 -46.5 -15t-18.5 -40q0 -19 9 -40.5t27 -54.5t26 -52.5t8 -37.5q0 -34 -25.5 -73t-64 -65t-76.5 -26q-21 0 -31.5 8.5t-10.5 21.5q0 16 15 30t35 14q-12 -8 -12 -17q0 -11 17 -20.5t38 -9.5q35 0 35 38q0 17 -5.5 39.5t-16.5 58.5q-23 71 -23 101q0 54 25 92.5
t65.5 58.5t86.5 20q45 0 83.5 -19t62.5 -57t24 -92q0 -63 -24 -140.5t-74.5 -155t-125.5 -137.5q33 -9 63.5 -21.5t69.5 -31.5q38 -18 60 -26.5t39 -8.5q26 0 45.5 39t23.5 109v395q0 30 -20 43zM478 899l15 5q21 -34 63 -56q-15 -40 -52 -70.5t-93 -38.5q55 64 67 160z" />
    <glyph glyph-name="Thorn" unicode="&#xde;" horiz-adv-x="776" 
d="M675.5 537.5q38.5 -39.5 64.5 -94.5t26 -98q0 -34 -16.5 -64.5t-46.5 -62t-94 -91.5l-53 -50q-16 25 -50.5 49.5t-58.5 33.5q-5 -18 -7 -23q58 -77 58 -163q0 -80 -49 -148h-1q9 27 9 58q0 60 -31 111t-88 72q6 20 6 37q0 48 -44 68q19 9 28.5 27.5t9.5 43.5v276
q0 34 11 56t38 41l107 75v1q-23 3 -74 16q-52 13 -87 19.5t-69 6.5q-166 0 -167 -127q0 -37 26.5 -65t74.5 -28q21 0 45 6v-1q-40 -17 -86 -17q-62 0 -104.5 31.5t-42.5 83.5q0 67 67.5 98t160.5 31q39 0 73 -4.5t91 -13.5q71 -13 99 -13q31 0 50 11t26 38h1q0 -35 -26 -60
t-69 -51q-21 -12 -25 -16v-145q25 10 61 42q23 21 41 32t41 11q36 0 74.5 -39.5zM659.5 223q16.5 39 16.5 84q0 47 -19 90t-53.5 69.5t-78.5 26.5q-17 0 -27 -5t-22 -14t-18 -14l-1 -193q40 -12 69.5 -34.5t80.5 -76.5q36 28 52.5 67z" />
    <glyph glyph-name="germandbls" unicode="&#xdf;" horiz-adv-x="393" 
d="M188 17q36 4 53.5 33t17.5 59v221l-87 36v5q49 24 69 54t20 66q0 21 -5 40.5t-16 55.5q-14 42 -17 62l-90 -48v-473q0 -27 5 -43.5t18 -26.5l-69 -56q-24 24 -35.5 55t-11.5 62v441l257 141q3 -33 24 -87q12 -37 17.5 -57t5.5 -40q0 -33 -19 -61.5t-65 -53.5l113 -44
q-22 -20 -22 -87v-136q0 -50 -28 -81t-66 -44t-69 -10v17z" />
    <glyph glyph-name="agrave" unicode="&#xe0;" horiz-adv-x="375" 
d="M377 108l8 -7l-82 -101q-60 46 -72 97q-39 -58 -84 -97q-31 0 -60.5 17.5t-48 47.5t-18.5 67v134q0 64 52.5 97t123.5 33q12 0 32 -2v29q0 27 -10 38.5t-37 11.5l-107 -1l47 78h74q48 0 85.5 -28.5t37.5 -84.5v-305q0 -14 10.5 -29t26.5 -20zM228 128v4v252l-23 1
q-38 0 -66.5 -26t-28.5 -103v-106q0 -40 26 -64t56 -24q21 24 36 66zM167 618.5q-37 30.5 -52 70.5q42 22 63 56l15 -5q12 -96 67 -160q-56 8 -93 38.5z" />
    <glyph glyph-name="aacute" unicode="&#xe1;" horiz-adv-x="375" 
d="M377 108l8 -7l-82 -101q-60 46 -72 97q-39 -58 -84 -97q-31 0 -60.5 17.5t-48 47.5t-18.5 67v134q0 64 52.5 97t123.5 33q12 0 32 -2v29q0 27 -10 38.5t-37 11.5l-107 -1l47 78h74q48 0 85.5 -28.5t37.5 -84.5v-305q0 -14 10.5 -29t26.5 -20zM228 128v4v252l-23 1
q-38 0 -66.5 -26t-28.5 -103v-106q0 -40 26 -64t56 -24q21 24 36 66zM182 740l15 5q21 -34 63 -56q-15 -40 -52 -70.5t-93 -38.5q55 64 67 160z" />
    <glyph glyph-name="acircumflex" unicode="&#xe2;" horiz-adv-x="375" 
d="M377 108l8 -7l-82 -101q-60 46 -72 97q-39 -58 -84 -97q-31 0 -60.5 17.5t-48 47.5t-18.5 67v134q0 64 52.5 97t123.5 33q12 0 32 -2v29q0 27 -10 38.5t-37 11.5l-107 -1l47 78h74q48 0 85.5 -28.5t37.5 -84.5v-305q0 -14 10.5 -29t26.5 -20zM228 128v4v252l-23 1
q-38 0 -66.5 -26t-28.5 -103v-106q0 -40 26 -64t56 -24q21 24 36 66zM205.5 637q-18.5 32 -36.5 46l-82 -87l-11 9l121 131q67 -47 102 -114q-43 -22 -63 -47q-12 30 -30.5 62z" />
    <glyph glyph-name="atilde" unicode="&#xe3;" horiz-adv-x="375" 
d="M377 108l8 -7l-82 -101q-60 46 -72 97q-39 -58 -84 -97q-31 0 -60.5 17.5t-48 47.5t-18.5 67v134q0 64 52.5 97t123.5 33q12 0 32 -2v29q0 27 -10 38.5t-37 11.5l-107 -1l47 78h74q48 0 85.5 -28.5t37.5 -84.5v-305q0 -14 10.5 -29t26.5 -20zM228 128v4v252l-23 1
q-38 0 -66.5 -26t-28.5 -103v-106q0 -40 26 -64t56 -24q21 24 36 66zM131 654l-19 15q-14 -3 -23 -12.5t-23 -30.5l-13 1q30 69 115 77q9 -12 40 -29.5t55 -25.5q12 2 20 10t27 30l13 -2q-21 -32 -46 -48.5t-84 -28.5q-25 13 -62 44z" />
    <glyph glyph-name="adieresis" unicode="&#xe4;" horiz-adv-x="375" 
d="M377 108l8 -7l-82 -101q-60 46 -72 97q-39 -58 -84 -97q-31 0 -60.5 17.5t-48 47.5t-18.5 67v134q0 64 52.5 97t123.5 33q12 0 32 -2v29q0 27 -10 38.5t-37 11.5l-107 -1l47 78h74q48 0 85.5 -28.5t37.5 -84.5v-305q0 -14 10.5 -29t26.5 -20zM228 128v4v252l-23 1
q-38 0 -66.5 -26t-28.5 -103v-106q0 -40 26 -64t56 -24q21 24 36 66zM96.5 607.5q-16.5 17.5 -34.5 29.5q49 21 77 82q5 -14 21 -32t29 -25q-24 -17 -41 -34t-34 -50q-1 12 -17.5 29.5zM210.5 607.5q-16.5 17.5 -34.5 29.5q32 14 52 39.5t25 42.5q5 -14 21 -32t29 -25
q-24 -16 -41 -33.5t-34 -50.5q-1 12 -17.5 29.5z" />
    <glyph glyph-name="aring" unicode="&#xe5;" horiz-adv-x="375" 
d="M377 108l8 -7l-82 -101q-60 46 -72 97q-39 -58 -84 -97q-31 0 -60.5 17.5t-48 47.5t-18.5 67v134q0 64 52.5 97t123.5 33q12 0 32 -2v29q0 27 -10 38.5t-37 11.5l-107 -1l47 78h74q48 0 85.5 -28.5t37.5 -84.5v-305q0 -14 10.5 -29t26.5 -20zM228 128v4v252l-23 1
q-38 0 -66.5 -26t-28.5 -103v-106q0 -40 26 -64t56 -24q21 24 36 66zM104 642q0 22 23.5 49t68.5 60q36 -15 55 -37.5t19 -48.5q0 -27 -20 -51.5t-59 -40.5q-87 29 -87 69zM230 644q0 25 -15 47.5t-38 31.5q-14 -10 -21.5 -25t-7.5 -31q0 -25 17.5 -44.5t48.5 -21.5
q16 17 16 43z" />
    <glyph glyph-name="ae" unicode="&#xe6;" horiz-adv-x="502" 
d="M86.5 17.5q-29.5 17.5 -48 48t-18.5 66.5v95q0 88 48.5 128.5t123.5 40.5q12 0 36 -2v29q-1 27 -10.5 38.5t-36.5 11.5l-107 -1l47 78h74q32 0 62.5 -14t46.5 -42l136 56l52 -185q-35 -24 -82 -84.5t-65 -105.5l-20 8q16 31 35.5 59.5t51.5 65.5l-53 192l-41 -16v-322
q0 -28 35.5 -52.5t90.5 -39.5l34 38l8 -7l-85 -102l-55 20q-38 14 -66 37t-41 51q-45 -65 -92 -108q-31 1 -60.5 18.5zM228 132v252q-16 0 -43.5 -10t-51 -38.5t-23.5 -79.5v-106q0 -40 26 -64t56 -24q24 29 36 70z" />
    <glyph glyph-name="ccedilla" unicode="&#xe7;" horiz-adv-x="304" 
d="M202 -13q47 -51 47 -92q0 -59 -96 -122l-8 4q44 28 44 68q0 23 -14.5 46.5t-42.5 45.5l68 68l-42 15q-53 20 -85.5 56.5t-32.5 77.5v186q0 58 -30 79l166 131h120l-49 -81h-154l37 -42v-264q0 -28 35.5 -52.5t90.5 -39.5l34 38l8 -7l-79 -95z" />
    <glyph glyph-name="egrave" unicode="&#xe8;" horiz-adv-x="308" 
d="M124 162q0 -28 35.5 -52.5t90.5 -39.5l34 38l8 -7l-85 -102l-55 20q-53 20 -85.5 56.5t-32.5 77.5v252q0 24 -5 36.5t-19 21.5l236 87l52 -185q-35 -24 -82 -84.5t-65 -105.5l-20 8q16 31 35.5 59.5t51.5 65.5l-53 192l-42 -16l1 -314v-8zM146 602.5q-37 30.5 -52 70.5
q42 22 63 56l15 -5q12 -96 67 -160q-56 8 -93 38.5z" />
    <glyph glyph-name="eacute" unicode="&#xe9;" horiz-adv-x="308" 
d="M124 162q0 -28 35.5 -52.5t90.5 -39.5l34 38l8 -7l-85 -102l-55 20q-53 20 -85.5 56.5t-32.5 77.5v252q0 24 -5 36.5t-19 21.5l236 87l52 -185q-35 -24 -82 -84.5t-65 -105.5l-20 8q16 31 35.5 59.5t51.5 65.5l-53 192l-42 -16l1 -314v-8zM161 724l15 5q21 -34 63 -56
q-15 -40 -52 -70.5t-93 -38.5q55 64 67 160z" />
    <glyph glyph-name="ecircumflex" unicode="&#xea;" horiz-adv-x="308" 
d="M124 162q0 -28 35.5 -52.5t90.5 -39.5l34 38l8 -7l-85 -102l-55 20q-53 20 -85.5 56.5t-32.5 77.5v252q0 24 -5 36.5t-19 21.5l236 87l52 -185q-35 -24 -82 -84.5t-65 -105.5l-20 8q16 31 35.5 59.5t51.5 65.5l-53 192l-42 -16l1 -314v-8zM184.5 621q-18.5 32 -36.5 46
l-82 -87l-11 9l121 131q67 -47 102 -114q-43 -22 -63 -47q-12 30 -30.5 62z" />
    <glyph glyph-name="edieresis" unicode="&#xeb;" horiz-adv-x="308" 
d="M124 162q0 -28 35.5 -52.5t90.5 -39.5l34 38l8 -7l-85 -102l-55 20q-53 20 -85.5 56.5t-32.5 77.5v252q0 24 -5 36.5t-19 21.5l236 87l52 -185q-35 -24 -82 -84.5t-65 -105.5l-20 8q16 31 35.5 59.5t51.5 65.5l-53 192l-42 -16l1 -314v-8zM75.5 591.5
q-16.5 17.5 -34.5 29.5q49 21 77 82q5 -14 21 -32t29 -25q-24 -17 -41 -34t-34 -50q-1 12 -17.5 29.5zM189.5 591.5q-16.5 17.5 -34.5 29.5q32 14 52 39.5t25 42.5q5 -14 21 -32t29 -25q-24 -16 -41 -33.5t-34 -50.5q-1 12 -17.5 29.5z" />
    <glyph glyph-name="igrave" unicode="&#xec;" horiz-adv-x="177" 
d="M130.5 99q10.5 -15 26.5 -20l22 25l8 -7l-82 -101q-46 35 -60.5 65.5t-14.5 66.5v309q0 30 -20 43l110 70v-422q0 -14 10.5 -29zM63 638.5q-37 30.5 -52 70.5q42 22 63 56l15 -5q12 -96 67 -160q-56 8 -93 38.5z" />
    <glyph glyph-name="iacute" unicode="&#xed;" horiz-adv-x="177" 
d="M130.5 99q10.5 -15 26.5 -20l22 25l8 -7l-82 -101q-46 35 -60.5 65.5t-14.5 66.5v309q0 30 -20 43l110 70v-422q0 -14 10.5 -29zM78 760l15 5q21 -34 63 -56q-15 -40 -52 -70.5t-93 -38.5q55 64 67 160z" />
    <glyph glyph-name="icircumflex" unicode="&#xee;" horiz-adv-x="177" 
d="M130.5 99q10.5 -15 26.5 -20l22 25l8 -7l-82 -101q-46 35 -60.5 65.5t-14.5 66.5v309q0 30 -20 43l110 70v-422q0 -14 10.5 -29zM101.5 657q-18.5 32 -36.5 46l-82 -87l-11 9l121 131q67 -47 102 -114q-43 -22 -63 -47q-12 30 -30.5 62z" />
    <glyph glyph-name="idieresis" unicode="&#xef;" horiz-adv-x="177" 
d="M130.5 99q10.5 -15 26.5 -20l22 25l8 -7l-82 -101q-46 35 -60.5 65.5t-14.5 66.5v309q0 30 -20 43l110 70v-422q0 -14 10.5 -29zM-7.5 627.5q-16.5 17.5 -34.5 29.5q49 21 77 82q5 -14 21 -32t29 -25q-24 -17 -41 -34t-34 -50q-1 12 -17.5 29.5zM106.5 627.5
q-16.5 17.5 -34.5 29.5q32 14 52 39.5t25 42.5q5 -14 21 -32t29 -25q-24 -16 -41 -33.5t-34 -50.5q-1 12 -17.5 29.5z" />
    <glyph glyph-name="eth" unicode="&#xf0;" horiz-adv-x="329" 
d="M153 710q9 -31 26 -62t47 -79q49 -77 74 -133t25 -121q0 -74 -37 -151.5t-123 -163.5q-69 28 -102 79.5t-33 127.5v177q0 19 -3 30.5t-13 22.5q36 13 55 42t19 60q0 21 -8.5 34t-24.5 13q-12 0 -22 -5.5t-15 -5.5t-8 4t-3 8q0 6 5 10t12 4q39 0 67.5 -31.5t28.5 -96.5
v-266q0 -56 19.5 -85.5t66.5 -58.5q29 32 39.5 68.5t10.5 81.5q0 62 -26 126t-74 152q-36 68 -53 107t-18 71l-62 -38v15l63 38q4 50 33.5 94.5t66.5 72t60 26.5q7 0 12.5 -4.5t5.5 -9.5t-4 -8.5t-10 -3.5q-4 0 -9.5 6t-11.5 6q-14 0 -34.5 -15.5t-35.5 -38t-15 -41.5
q0 -22 6 -45l109 66v-15z" />
    <glyph glyph-name="ntilde" unicode="&#xf1;" horiz-adv-x="353" 
d="M132 98.5q12 -12.5 36 -25.5l-62 -76q-42 26 -59 61t-17 70v309q0 30 -20 43l110 70v-422q0 -17 12 -29.5zM306.5 103q10.5 -15 26.5 -20l22 25l8 -7l-82 -101q-46 35 -60.5 65.5t-14.5 66.5v300q0 40 -58 40h-23l63 78h8q44 0 72 -28.5t28 -67.5v-322q0 -14 10.5 -29z
M120 654l-19 15q-14 -3 -23 -12.5t-23 -30.5l-13 1q30 69 115 77q9 -12 40 -29.5t55 -25.5q12 2 20 10t27 30l13 -2q-21 -32 -46 -48.5t-84 -28.5q-25 13 -62 44z" />
    <glyph glyph-name="ograve" unicode="&#xf2;" horiz-adv-x="330" 
d="M200 552q44 0 72 -28.5t28 -67.5v-324l-158 -132q-39 22 -75.5 64.5t-36.5 113.5v262q0 30 -20 43l110 70v-384q0 -34 22.5 -61.5t56.5 -42.5l11 7v362q0 40 -58 40h-23l63 78h8zM144 618.5q-37 30.5 -52 70.5q42 22 63 56l15 -5q12 -96 67 -160q-56 8 -93 38.5z" />
    <glyph glyph-name="oacute" unicode="&#xf3;" horiz-adv-x="330" 
d="M200 552q44 0 72 -28.5t28 -67.5v-324l-158 -132q-39 22 -75.5 64.5t-36.5 113.5v262q0 30 -20 43l110 70v-384q0 -34 22.5 -61.5t56.5 -42.5l11 7v362q0 40 -58 40h-23l63 78h8zM159 740l15 5q21 -34 63 -56q-15 -40 -52 -70.5t-93 -38.5q55 64 67 160z" />
    <glyph glyph-name="ocircumflex" unicode="&#xf4;" horiz-adv-x="330" 
d="M200 552q44 0 72 -28.5t28 -67.5v-324l-158 -132q-39 22 -75.5 64.5t-36.5 113.5v262q0 30 -20 43l110 70v-384q0 -34 22.5 -61.5t56.5 -42.5l11 7v362q0 40 -58 40h-23l63 78h8zM182.5 637q-18.5 32 -36.5 46l-82 -87l-11 9l121 131q67 -47 102 -114q-43 -22 -63 -47
q-12 30 -30.5 62z" />
    <glyph glyph-name="otilde" unicode="&#xf5;" horiz-adv-x="330" 
d="M200 552q44 0 72 -28.5t28 -67.5v-324l-158 -132q-39 22 -75.5 64.5t-36.5 113.5v262q0 30 -20 43l110 70v-384q0 -34 22.5 -61.5t56.5 -42.5l11 7v362q0 40 -58 40h-23l63 78h8zM108 654l-19 15q-14 -3 -23 -12.5t-23 -30.5l-13 1q30 69 115 77q9 -12 40 -29.5t55 -25.5
q12 2 20 10t27 30l13 -2q-21 -32 -46 -48.5t-84 -28.5q-25 13 -62 44z" />
    <glyph glyph-name="odieresis" unicode="&#xf6;" horiz-adv-x="330" 
d="M200 552q44 0 72 -28.5t28 -67.5v-324l-158 -132q-39 22 -75.5 64.5t-36.5 113.5v262q0 30 -20 43l110 70v-384q0 -34 22.5 -61.5t56.5 -42.5l11 7v362q0 40 -58 40h-23l63 78h8zM73.5 607.5q-16.5 17.5 -34.5 29.5q49 21 77 82q5 -14 21 -32t29 -25q-24 -17 -41 -34
t-34 -50q-1 12 -17.5 29.5zM187.5 607.5q-16.5 17.5 -34.5 29.5q32 14 52 39.5t25 42.5q5 -14 21 -32t29 -25q-24 -16 -41 -33.5t-34 -50.5q-1 12 -17.5 29.5z" />
    <glyph glyph-name="oslash" unicode="&#xf8;" horiz-adv-x="330" 
d="M307 550l-21 -44q14 -23 14 -50v-324l-158 -132q-41 22 -70 58l-27 -58h-17l34 72q-32 48 -32 106v262q0 30 -20 43l110 70v-360l90 189v52q0 40 -58 40h-23l63 78h8q46 0 76 -32l14 30h17zM210 72v274l-89 -187q3 -31 24.5 -55.5t53.5 -38.5z" />
    <glyph glyph-name="ugrave" unicode="&#xf9;" horiz-adv-x="384" 
d="M386 108l8 -7l-82 -101q-61 47 -71 96q-44 -63 -84 -96q-31 0 -60.5 17.5t-48 47.5t-18.5 67v305q0 30 -20 43l110 70v-400q0 -40 26 -64t56 -24q23 28 35 63v7v305q0 30 -20 43l110 70v-418q0 -14 10.5 -29t26.5 -20zM171 618.5q-37 30.5 -52 70.5q42 22 63 56l15 -5
q12 -96 67 -160q-56 8 -93 38.5z" />
    <glyph glyph-name="uacute" unicode="&#xfa;" horiz-adv-x="384" 
d="M386 108l8 -7l-82 -101q-61 47 -71 96q-44 -63 -84 -96q-31 0 -60.5 17.5t-48 47.5t-18.5 67v305q0 30 -20 43l110 70v-400q0 -40 26 -64t56 -24q23 28 35 63v7v305q0 30 -20 43l110 70v-418q0 -14 10.5 -29t26.5 -20zM186 740l15 5q21 -34 63 -56q-15 -40 -52 -70.5
t-93 -38.5q55 64 67 160z" />
    <glyph glyph-name="ucircumflex" unicode="&#xfb;" horiz-adv-x="384" 
d="M386 108l8 -7l-82 -101q-61 47 -71 96q-44 -63 -84 -96q-31 0 -60.5 17.5t-48 47.5t-18.5 67v305q0 30 -20 43l110 70v-400q0 -40 26 -64t56 -24q23 28 35 63v7v305q0 30 -20 43l110 70v-418q0 -14 10.5 -29t26.5 -20zM209.5 637q-18.5 32 -36.5 46l-82 -87l-11 9
l121 131q67 -47 102 -114q-43 -22 -63 -47q-12 30 -30.5 62z" />
    <glyph glyph-name="udieresis" unicode="&#xfc;" horiz-adv-x="384" 
d="M386 108l8 -7l-82 -101q-61 47 -71 96q-44 -63 -84 -96q-31 0 -60.5 17.5t-48 47.5t-18.5 67v305q0 30 -20 43l110 70v-400q0 -40 26 -64t56 -24q23 28 35 63v7v305q0 30 -20 43l110 70v-418q0 -14 10.5 -29t26.5 -20zM100.5 607.5q-16.5 17.5 -34.5 29.5q49 21 77 82
q5 -14 21 -32t29 -25q-24 -17 -41 -34t-34 -50q-1 12 -17.5 29.5zM214.5 607.5q-16.5 17.5 -34.5 29.5q32 14 52 39.5t25 42.5q5 -14 21 -32t29 -25q-24 -16 -41 -33.5t-34 -50.5q-1 12 -17.5 29.5z" />
    <glyph glyph-name="yacute" unicode="&#xfd;" horiz-adv-x="347" 
d="M88.5 -90.5q-33.5 13.5 -63.5 13.5q-15 0 -25 -2l70 66q52 0 90 -27t59 -57q5 3 6 15.5t1 39.5v134l-79 -75q-70 47 -92 79q-4 -3 -8 -7t-10 -6.5t-16 -6.5q10 15 12.5 33.5t2.5 52.5v275q0 30 -20 43l110 70v-339q0 -30 18 -64t57 -62l25 24v328q0 30 -20 43l110 70
v-281q1 -28 5 -45t20 -24l-25 -26v-148q0 -56 -48 -99.5t-117 -67.5q-29 37 -62.5 50.5zM203 740l15 5q21 -34 63 -56q-15 -40 -52 -70.5t-93 -38.5q55 64 67 160z" />
    <glyph glyph-name="thorn" unicode="&#xfe;" horiz-adv-x="344" 
d="M15 -200q21 12 34 34.5t13 50.5q0 54 -49 107q21 26 21 56v493q0 28 -4 40.5t-15 17.5v6l137 95l3 -3q-11 -12 -16.5 -27t-5.5 -47v-516q8 -10 18 -15l74 89v250q0 40 -58 40h-23l63 78h8q44 0 72 -28.5t28 -67.5v-224q0 -25 3 -38t16 -29q-90 -54 -133 -162
q-26 46 -67 85l1 -62q1 -54 -16.5 -103.5t-46 -81.5t-56.5 -39z" />
    <glyph glyph-name="ydieresis" unicode="&#xff;" horiz-adv-x="347" 
d="M88.5 -90.5q-33.5 13.5 -63.5 13.5q-15 0 -25 -2l70 66q52 0 90 -27t59 -57q5 3 6 15.5t1 39.5v134l-79 -75q-70 47 -92 79q-4 -3 -8 -7t-10 -6.5t-16 -6.5q10 15 12.5 33.5t2.5 52.5v275q0 30 -20 43l110 70v-339q0 -30 18 -64t57 -62l25 24v328q0 30 -20 43l110 70
v-281q1 -28 5 -45t20 -24l-25 -26v-148q0 -56 -48 -99.5t-117 -67.5q-29 37 -62.5 50.5zM117.5 607.5q-16.5 17.5 -34.5 29.5q49 21 77 82q5 -14 21 -32t29 -25q-24 -17 -41 -34t-34 -50q-1 12 -17.5 29.5zM231.5 607.5q-16.5 17.5 -34.5 29.5q32 14 52 39.5t25 42.5
q5 -14 21 -32t29 -25q-24 -16 -41 -33.5t-34 -50.5q-1 12 -17.5 29.5z" />
    <glyph glyph-name="Amacron" unicode="&#x100;" horiz-adv-x="885" 
d="M475 337q0 -39 28.5 -56.5t60.5 -17.5q-89 -68 -89 -147v-189q0 -18 5 -43q1 -7 3 -22.5t2 -27.5q0 -25 -11 -39.5t-39 -14.5q30 51 30 147v183q0 29 -15.5 48t-36 27t-35.5 8q39 31 63 68.5t24 75.5v153q-14 -67 -51 -135t-96.5 -121.5t-136.5 -75.5q30 -3 58.5 -16.5
t73.5 -39.5q33 -19 51 -27.5t31 -8.5q27 0 43 18q0 -40 -26.5 -69.5t-67.5 -29.5q-20 0 -43.5 12t-60.5 36q-40 26 -68 40t-53 14q-43 0 -72 -51q40 123 121 123q70 19 116 70.5t66.5 118.5t20.5 136q0 86 -30 145.5t-87 59.5q-34 0 -60 -20.5t-40 -52.5t-14 -66
q0 -25 10.5 -46.5t30.5 -52.5q18 -25 26.5 -42.5t8.5 -36.5q0 -41 -27.5 -87.5t-67 -78t-73.5 -31.5q-19 0 -28.5 10.5t-9.5 26.5q0 19 13.5 35t31.5 16q-11 -8 -11 -20q0 -13 15.5 -24.5t34.5 -11.5q20 0 36 21.5t16 50.5q0 18 -14.5 46t-59.5 97q-15 23 -15 51
q0 54 46 116.5t113.5 105t128.5 42.5q46 0 77 -31t43 -85v21q0 70 23 99t63 29q26 0 56.5 -11.5t70.5 -32.5q30 -15 47.5 -22.5t30.5 -8.5q8 -1 15 10t7 25t-7 27h1q23 -23 23 -59t-22 -64.5t-54 -28.5q-16 0 -35 8.5t-57 27.5q-38 20 -61.5 29.5t-42.5 9.5q-22 0 -35 -22
t-13 -57v-264zM828 362.5q47 -45.5 47 -119.5t-45.5 -140t-97.5 -109t-109 -81q42 39 42 98q0 38 -15 80t-45 107q-36 77 -55 132.5t-19 111.5q0 61 36 111.5t142 51.5v-4q-58 -12 -79.5 -37t-21.5 -67q0 -38 17 -83.5t51 -117.5q36 -74 54 -123t18 -90q0 -35 -15 -60l2 -2
q26 35 41 79.5t15 89.5q0 84 -26.5 142t-88.5 58q-14 0 -36 -5l-3 12q38 11 70 11q74 0 121 -45.5zM533 845h-193l3 17h193z" />
    <glyph glyph-name="amacron" unicode="&#x101;" horiz-adv-x="375" 
d="M377 108l8 -7l-82 -101q-60 46 -72 97q-39 -58 -84 -97q-31 0 -60.5 17.5t-48 47.5t-18.5 67v134q0 64 52.5 97t123.5 33q12 0 32 -2v29q0 27 -10 38.5t-37 11.5l-107 -1l47 78h74q48 0 85.5 -28.5t37.5 -84.5v-305q0 -14 10.5 -29t26.5 -20zM228 128v4v252l-23 1
q-38 0 -66.5 -26t-28.5 -103v-106q0 -40 26 -64t56 -24q21 24 36 66zM283 638h-193l3 17h193z" />
    <glyph glyph-name="Abreve" unicode="&#x102;" horiz-adv-x="885" 
d="M475 337q0 -39 28.5 -56.5t60.5 -17.5q-89 -68 -89 -147v-189q0 -18 5 -43q1 -7 3 -22.5t2 -27.5q0 -25 -11 -39.5t-39 -14.5q30 51 30 147v183q0 29 -15.5 48t-36 27t-35.5 8q39 31 63 68.5t24 75.5v153q-14 -67 -51 -135t-96.5 -121.5t-136.5 -75.5q30 -3 58.5 -16.5
t73.5 -39.5q33 -19 51 -27.5t31 -8.5q27 0 43 18q0 -40 -26.5 -69.5t-67.5 -29.5q-20 0 -43.5 12t-60.5 36q-40 26 -68 40t-53 14q-43 0 -72 -51q40 123 121 123q70 19 116 70.5t66.5 118.5t20.5 136q0 86 -30 145.5t-87 59.5q-34 0 -60 -20.5t-40 -52.5t-14 -66
q0 -25 10.5 -46.5t30.5 -52.5q18 -25 26.5 -42.5t8.5 -36.5q0 -41 -27.5 -87.5t-67 -78t-73.5 -31.5q-19 0 -28.5 10.5t-9.5 26.5q0 19 13.5 35t31.5 16q-11 -8 -11 -20q0 -13 15.5 -24.5t34.5 -11.5q20 0 36 21.5t16 50.5q0 18 -14.5 46t-59.5 97q-15 23 -15 51
q0 54 46 116.5t113.5 105t128.5 42.5q46 0 77 -31t43 -85v21q0 70 23 99t63 29q26 0 56.5 -11.5t70.5 -32.5q30 -15 47.5 -22.5t30.5 -8.5q8 -1 15 10t7 25t-7 27h1q23 -23 23 -59t-22 -64.5t-54 -28.5q-16 0 -35 8.5t-57 27.5q-38 20 -61.5 29.5t-42.5 9.5q-22 0 -35 -22
t-13 -57v-264zM828 362.5q47 -45.5 47 -119.5t-45.5 -140t-97.5 -109t-109 -81q42 39 42 98q0 38 -15 80t-45 107q-36 77 -55 132.5t-19 111.5q0 61 36 111.5t142 51.5v-4q-58 -12 -79.5 -37t-21.5 -67q0 -38 17 -83.5t51 -117.5q36 -74 54 -123t18 -90q0 -35 -15 -60l2 -2
q26 35 41 79.5t15 89.5q0 84 -26.5 142t-88.5 58q-14 0 -36 -5l-3 12q38 11 70 11q74 0 121 -45.5zM324 912l17 2l60 -20q6 -39 17.5 -61.5t33.5 -22.5q21 0 37 24t14 64l28 19l20 2q2 -36 -12.5 -65t-41.5 -45t-59 -16q-89 0 -114 119z" />
    <glyph glyph-name="abreve" unicode="&#x103;" horiz-adv-x="375" 
d="M377 108l8 -7l-82 -101q-60 46 -72 97q-39 -58 -84 -97q-31 0 -60.5 17.5t-48 47.5t-18.5 67v134q0 64 52.5 97t123.5 33q12 0 32 -2v29q0 27 -10 38.5t-37 11.5l-107 -1l47 78h74q48 0 85.5 -28.5t37.5 -84.5v-305q0 -14 10.5 -29t26.5 -20zM228 128v4v252l-23 1
q-38 0 -66.5 -26t-28.5 -103v-106q0 -40 26 -64t56 -24q21 24 36 66zM74 705l17 2l60 -20q6 -39 17.5 -61.5t33.5 -22.5q21 0 37 24t14 64l28 19l20 2q2 -36 -12.5 -65t-41.5 -45t-59 -16q-89 0 -114 119z" />
    <glyph glyph-name="Aogonek" unicode="&#x104;" horiz-adv-x="885" 
d="M475 -73q0 -18 5 -43q1 -7 3 -22.5t2 -27.5q0 -25 -11 -39.5t-39 -14.5q30 51 30 147v183q0 29 -15.5 48t-36 27t-35.5 8q39 31 63 68.5t24 75.5v153q-14 -67 -51 -135t-96.5 -121.5t-136.5 -75.5q30 -3 58.5 -16.5t73.5 -39.5q33 -19 51 -27.5t31 -8.5q27 0 43 18
q0 -40 -26.5 -69.5t-67.5 -29.5q-20 0 -43.5 12t-60.5 36q-40 26 -68 40t-53 14q-43 0 -72 -51q40 123 121 123q70 19 116 70.5t66.5 118.5t20.5 136q0 86 -30 145.5t-87 59.5q-34 0 -60 -20.5t-40 -52.5t-14 -66q0 -25 10.5 -46.5t30.5 -52.5q18 -25 26.5 -42.5t8.5 -36.5
q0 -41 -27.5 -87.5t-67 -78t-73.5 -31.5q-19 0 -28.5 10.5t-9.5 26.5q0 19 13.5 35t31.5 16q-11 -8 -11 -20q0 -13 15.5 -24.5t34.5 -11.5q20 0 36 21.5t16 50.5q0 18 -14.5 46t-59.5 97q-15 23 -15 51q0 54 46 116.5t113.5 105t128.5 42.5q46 0 77 -31t43 -85v21
q0 70 23 99t63 29q26 0 56.5 -11.5t70.5 -32.5q30 -15 47.5 -22.5t30.5 -8.5q8 -1 15 10t7 25t-7 27h1q23 -23 23 -59t-22 -64.5t-54 -28.5q-16 0 -35 8.5t-57 27.5q-38 20 -61.5 29.5t-42.5 9.5q-22 0 -35 -22t-13 -57v-264q0 -39 28.5 -56.5t60.5 -17.5q-89 -68 -89 -147
v-189zM829.5 103q-45.5 -66 -97.5 -109t-109 -81q42 39 42 98q0 38 -15 80t-45 107q-36 77 -55 132.5t-19 111.5q0 61 36 111.5t142 51.5v-4q-58 -12 -79.5 -37t-21.5 -67q0 -38 17 -83.5t51 -117.5q36 -74 54 -123t18 -90q0 -35 -15 -60l2 -2q26 35 41 79.5t15 89.5
q0 84 -26.5 142t-88.5 58q-14 0 -36 -5l-3 12q38 11 70 11q74 0 121 -45.5t47 -119.5t-45.5 -140zM623 -87q-17 -20 -24 -41t-7 -46q0 -31 13 -56.5t39 -36.5l-70 -40q-31 32 -31 83q0 37 20.5 76.5t49.5 70.5z" />
    <glyph glyph-name="aogonek" unicode="&#x105;" horiz-adv-x="375" 
d="M293 -133.5q13 -25.5 39 -36.5l-70 -40q-31 32 -31 83q0 34 17 70t43 66q-50 42 -60 88q-39 -58 -84 -97q-31 0 -60.5 17.5t-48 47.5t-18.5 67v134q0 64 52.5 97t123.5 33q12 0 32 -2v29q0 27 -10 38.5t-37 11.5l-107 -1l47 78h74q48 0 85.5 -28.5t37.5 -84.5v-305
q0 -14 10.5 -29t26.5 -20l22 25l8 -7l-81 -100q-24 -33 -24 -78q0 -31 13 -56.5zM228 128v4v252l-23 1q-38 0 -66.5 -26t-28.5 -103v-106q0 -40 26 -64t56 -24q21 24 36 66z" />
    <glyph glyph-name="Cacute" unicode="&#x106;" horiz-adv-x="585" 
d="M525 471q24 -69 24 -129q0 -59 -20.5 -102.5t-59.5 -99.5q-31 -45 -46 -75t-15 -65h-98q-33 0 -65 8v-96q0 -18 5 -43q1 -7 3 -22.5t2 -27.5q0 -25 -11 -39.5t-39 -14.5q30 51 30 147v98q-66 19 -112.5 70.5t-70 122.5t-23.5 150q0 105 42 199.5t122 147.5
q-37 -50 -58 -129t-21 -163q0 -97 30 -175t91 -115v100q0 54 -23.5 81.5t-55.5 27.5q32 27 55.5 73.5t23.5 100.5v161q0 70 23 99t63 29q26 0 56.5 -11.5t70.5 -32.5q30 -15 47.5 -22.5t30.5 -8.5q8 -1 15 10t7 25t-7 27h1q23 -23 23 -59t-22 -64.5t-54 -28.5q-15 0 -36 9
t-54 26q-35 19 -60.5 29.5t-45.5 10.5q-22 0 -35 -22t-13 -57v-103q0 -54 18.5 -82.5t43.5 -37.5q-24 -13 -43 -51t-19 -91v-143q41 -23 97 -23q54 0 89 26t50.5 63.5t15.5 74.5q0 42 -19.5 68.5t-41.5 26.5q-15 0 -24 -15l-2 2q5 15 17.5 26t35.5 26q33 20 48 37t12 46h2z
M315 980l15 5q21 -34 63 -56q-15 -40 -52 -70.5t-93 -38.5q55 64 67 160z" />
    <glyph glyph-name="cacute" unicode="&#x107;" horiz-adv-x="304" 
d="M165.5 110.5q35.5 -24.5 90.5 -39.5l34 38l8 -7l-85 -102l-55 20q-53 20 -85.5 56.5t-32.5 77.5v186q0 58 -30 79l166 131h120l-49 -81h-154l37 -42v-264q0 -28 35.5 -52.5zM163 760l15 5q21 -34 63 -56q-15 -40 -52 -70.5t-93 -38.5q55 64 67 160z" />
    <glyph glyph-name="Cdotaccent" unicode="&#x10a;" horiz-adv-x="585" 
d="M525 471q24 -69 24 -129q0 -59 -20.5 -102.5t-59.5 -99.5q-31 -45 -46 -75t-15 -65h-98q-33 0 -65 8v-96q0 -18 5 -43q1 -7 3 -22.5t2 -27.5q0 -25 -11 -39.5t-39 -14.5q30 51 30 147v98q-66 19 -112.5 70.5t-70 122.5t-23.5 150q0 105 42 199.5t122 147.5
q-37 -50 -58 -129t-21 -163q0 -97 30 -175t91 -115v100q0 54 -23.5 81.5t-55.5 27.5q32 27 55.5 73.5t23.5 100.5v161q0 70 23 99t63 29q26 0 56.5 -11.5t70.5 -32.5q30 -15 47.5 -22.5t30.5 -8.5q8 -1 15 10t7 25t-7 27h1q23 -23 23 -59t-22 -64.5t-54 -28.5q-15 0 -36 9
t-54 26q-35 19 -60.5 29.5t-45.5 10.5q-22 0 -35 -22t-13 -57v-103q0 -54 18.5 -82.5t43.5 -37.5q-24 -13 -43 -51t-19 -91v-143q41 -23 97 -23q54 0 89 26t50.5 63.5t15.5 74.5q0 42 -19.5 68.5t-41.5 26.5q-15 0 -24 -15l-2 2q5 15 17.5 26t35.5 26q33 20 48 37t12 46h2z
M284 846q-15 17 -33 30q21 13 44 43q18 23 33 54q18 -29 29 -41q12 -13 34 -28q-23 -20 -44 -47q-14 -18 -34 -52q-13 22 -29 41z" />
    <glyph glyph-name="cdotaccent" unicode="&#x10b;" horiz-adv-x="304" 
d="M165.5 110.5q35.5 -24.5 90.5 -39.5l34 38l8 -7l-85 -102l-55 20q-53 20 -85.5 56.5t-32.5 77.5v186q0 58 -30 79l166 131h120l-49 -81h-154l37 -42v-264q0 -28 35.5 -52.5zM132 626q-15 17 -33 30q21 13 44 43q18 23 33 54q18 -29 29 -41q12 -13 34 -28q-23 -20 -44 -47
q-14 -18 -34 -52q-13 22 -29 41z" />
    <glyph glyph-name="Ccaron" unicode="&#x10c;" horiz-adv-x="585" 
d="M525 471q24 -69 24 -129q0 -59 -20.5 -102.5t-59.5 -99.5q-31 -45 -46 -75t-15 -65h-98q-33 0 -65 8v-96q0 -18 5 -43q1 -7 3 -22.5t2 -27.5q0 -25 -11 -39.5t-39 -14.5q30 51 30 147v98q-66 19 -112.5 70.5t-70 122.5t-23.5 150q0 105 42 199.5t122 147.5
q-37 -50 -58 -129t-21 -163q0 -97 30 -175t91 -115v100q0 54 -23.5 81.5t-55.5 27.5q32 27 55.5 73.5t23.5 100.5v161q0 70 23 99t63 29q26 0 56.5 -11.5t70.5 -32.5q30 -15 47.5 -22.5t30.5 -8.5q8 -1 15 10t7 25t-7 27h1q23 -23 23 -59t-22 -64.5t-54 -28.5q-15 0 -36 9
t-54 26q-35 19 -60.5 29.5t-45.5 10.5q-22 0 -35 -22t-13 -57v-103q0 -54 18.5 -82.5t43.5 -37.5q-24 -13 -43 -51t-19 -91v-143q41 -23 97 -23q54 0 89 26t50.5 63.5t15.5 74.5q0 42 -19.5 68.5t-41.5 26.5q-15 0 -24 -15l-2 2q5 15 17.5 26t35.5 26q33 20 48 37t12 46h2z
M311 815q-68 47 -102 114q43 22 63 47q0 -15 23 -51.5t43 -52.5l77 87l17 -13z" />
    <glyph glyph-name="ccaron" unicode="&#x10d;" horiz-adv-x="304" 
d="M165.5 110.5q35.5 -24.5 90.5 -39.5l34 38l8 -7l-85 -102l-55 20q-53 20 -85.5 56.5t-32.5 77.5v186q0 58 -30 79l166 131h120l-49 -81h-154l37 -42v-264q0 -28 35.5 -52.5zM159 595q-68 47 -102 114q43 22 63 47q0 -15 23 -51.5t43 -52.5l77 87l17 -13z" />
    <glyph glyph-name="Dcaron" unicode="&#x10e;" horiz-adv-x="800" 
d="M524 762q63 -5 115 -46t82 -106.5t30 -141.5q0 -109 -37 -215.5t-106.5 -183.5t-162.5 -100q-41 15 -89 31.5t-87 25.5v-125q0 -18 5 -43q1 -7 3 -22.5t2 -27.5q0 -25 -11 -39.5t-39 -14.5q30 51 30 147v128q-49 9 -77 9q-37 0 -59 -27.5t-17 -69.5h-2q-10 27 -10 56
q0 53 35.5 89.5t93.5 36.5q19 18 27.5 45t8.5 79v454q-38 -37 -62.5 -81.5t-24.5 -90.5q0 -78 80 -146q-93 51 -135 94.5t-42 81.5q0 44 47 81.5t137 85.5v113q0 39 21.5 64.5t52 39.5t79.5 30q52 17 76 30.5t24 38.5q0 14 -7 27h1q23 -23 23 -59t-21.5 -60.5t-51.5 -38.5
t-79 -30q-54 -17 -81 -33t-27 -42v-74q75 40 120.5 68t74.5 59l-13 -33q-14 -34 -19 -56t-5 -61v-408q0 -79 -36.5 -129.5t-106.5 -52.5q25 14 39 49t14 92v501q-28 -14 -68 -51v-430q0 -41 9 -60.5t27 -27.5q-15 -8 -25.5 -29t-10.5 -41v-2q32 -5 63 -14t71 -24
q43 -15 70 -22.5t51 -7.5q45 0 79.5 43.5t53 114t18.5 149.5q0 137 -47.5 225t-177.5 116zM595 788q-68 47 -102 114q43 22 63 47q0 -15 23 -51.5t43 -52.5l77 87l17 -13z" />
    <glyph glyph-name="dcaron" unicode="&#x10f;" horiz-adv-x="372" 
d="M63 79.5q-33 51.5 -33 127.5v177q0 19 -3 30.5t-13 22.5q36 13 55 42t19 60q0 21 -8.5 34t-24.5 13q-12 0 -22 -5.5t-15 -5.5t-8 4t-3 8q0 6 5 10t12 4q39 0 67.5 -31.5t28.5 -96.5v-266q0 -56 19.5 -85.5t66.5 -58.5q29 32 39.5 68.5t10.5 81.5q0 62 -25.5 125.5
t-74.5 153.5q-37 69 -54 108t-17 70q0 53 29.5 101t68.5 77.5t63 28.5q7 0 12.5 -4.5t5.5 -9.5t-4 -8.5t-10 -3.5q-4 0 -9.5 6t-11.5 6q-14 0 -34.5 -15.5t-35.5 -38t-15 -41.5q0 -45 20.5 -89t61.5 -110q49 -77 74 -133t25 -121q0 -74 -37 -151.5t-123 -163.5
q-69 28 -102 79.5zM279 576q26 13 40 40.5t14 59.5q0 34 -15 65t-44 53v9q21 4 46 24.5t34 41.5q38 -61 38 -124q0 -60 -32.5 -107.5t-80.5 -64.5v3z" />
    <glyph glyph-name="Dcroat" unicode="&#x110;" horiz-adv-x="800" 
d="M524 762q63 -5 115 -46t82 -106.5t30 -141.5q0 -109 -37 -215.5t-106.5 -183.5t-162.5 -100q-41 15 -89 31.5t-87 25.5v-125q0 -18 5 -43q1 -7 3 -22.5t2 -27.5q0 -25 -11 -39.5t-39 -14.5q30 51 30 147v128q-49 9 -77 9q-37 0 -59 -27.5t-17 -69.5h-2q-10 27 -10 56
q0 53 35.5 89.5t93.5 36.5q19 18 27.5 45t8.5 79v107h-95l23 17h72v330q-38 -37 -62.5 -81.5t-24.5 -90.5q0 -78 80 -146q-93 51 -135 94.5t-42 81.5q0 44 47 81.5t137 85.5v113q0 39 21.5 64.5t52 39.5t79.5 30q52 17 76 30.5t24 38.5q0 14 -7 27h1q23 -23 23 -59
t-21.5 -60.5t-51.5 -38.5t-79 -30q-54 -17 -81 -33t-27 -42v-74q75 40 120.5 68t74.5 59l-13 -33q-14 -34 -19 -56t-5 -61v-338h96l-23 -17h-73v-53q0 -79 -36.5 -129.5t-106.5 -52.5q25 14 39 49t14 92v94h-68v-74q0 -41 9 -60.5t27 -27.5q-15 -8 -25.5 -29t-10.5 -41v-2
q32 -5 63 -14t71 -24q43 -15 70 -22.5t51 -7.5q45 0 79.5 43.5t53 114t18.5 149.5q0 137 -47.5 225t-177.5 116zM269 371h68v390q-28 -14 -68 -51v-339z" />
    <glyph glyph-name="dcroat" unicode="&#x111;" horiz-adv-x="329" 
d="M145 752q3 -42 23.5 -82.5t58.5 -100.5q49 -79 73.5 -134.5t24.5 -119.5q0 -74 -37 -151.5t-123 -163.5q-69 28 -102 79.5t-33 127.5v177q0 19 -3 30.5t-13 22.5q36 13 55 42t19 60q0 21 -8.5 34t-24.5 13q-12 0 -22 -5.5t-15 -5.5t-8 4t-3 8q0 6 5 10t12 4
q39 0 67.5 -31.5t28.5 -96.5v-266q0 -56 19.5 -85.5t66.5 -58.5q29 32 39.5 68.5t10.5 81.5q0 62 -25.5 125.5t-74.5 153.5q-37 69 -54 108t-17 70q0 42 19 82h-75l15 17h69q26 45 66.5 76.5t65.5 31.5q7 0 13 -4.5t6 -9.5t-4 -8.5t-10 -3.5q-4 0 -9.5 6t-11.5 6
q-14 0 -34 -15t-35.5 -37.5t-15.5 -41.5h116l-15 -17h-100z" />
    <glyph glyph-name="Emacron" unicode="&#x112;" horiz-adv-x="584" 
d="M540 471q24 -69 24 -129q0 -59 -20.5 -102.5t-59.5 -99.5q-31 -45 -46 -75t-15 -65h-191q-27 0 -47 4v-103q0 -18 5 -43q1 -7 3 -22.5t2 -27.5q0 -25 -11 -39.5t-39 -14.5q30 51 30 147v105q-81 19 -123 88t-42 165q0 98 43.5 195.5t121.5 159.5v225q0 39 21.5 64.5
t52 39.5t79.5 30q52 17 76 30.5t24 38.5q0 14 -7 27h1q23 -23 23 -59t-21.5 -60.5t-51.5 -38.5t-79 -30q-54 -17 -81 -33t-27 -42v-255q17 69 63.5 109t121.5 40h94q45 0 73 13.5t36 48.5l1 -1q0 -42 -5 -73.5t-30.5 -59.5t-80.5 -28h-131q-76 0 -109 -42t-33 -96v-31
q15 45 50 62t86 17h76q32 0 49.5 14.5t23.5 47.5h2q0 -14 1 -22l1 -33q0 -47 -20 -77t-78 -30h-55q-56 0 -79.5 -2t-40 -13t-16.5 -38q0 -71 36 -87q-15 -14 -25.5 -39.5t-10.5 -54.5v-55q50 -31 121 -31h51q54 0 89 26t50.5 63.5t15.5 74.5q0 42 -19.5 68.5t-41.5 26.5
q-15 0 -24 -15l-2 2q5 15 17.5 26t35.5 26q33 20 48 37t12 46h2zM106 215q23 -55 69 -87v41q0 26 -12 40t-31 16q24 26 33.5 52.5t9.5 79.5v256q-44 -60 -68 -132.5t-24 -142.5q0 -68 23 -123zM509 788h-193l3 17h193z" />
    <glyph glyph-name="emacron" unicode="&#x113;" horiz-adv-x="308" 
d="M124 162q0 -28 35.5 -52.5t90.5 -39.5l34 38l8 -7l-85 -102l-55 20q-53 20 -85.5 56.5t-32.5 77.5v252q0 24 -5 36.5t-19 21.5l236 87l52 -185q-35 -24 -82 -84.5t-65 -105.5l-20 8q16 31 35.5 59.5t51.5 65.5l-53 192l-42 -16l1 -314v-8zM262 622h-193l3 17h193z" />
    <glyph glyph-name="Edotaccent" unicode="&#x116;" horiz-adv-x="584" 
d="M540 471q24 -69 24 -129q0 -59 -20.5 -102.5t-59.5 -99.5q-31 -45 -46 -75t-15 -65h-191q-27 0 -47 4v-103q0 -18 5 -43q1 -7 3 -22.5t2 -27.5q0 -25 -11 -39.5t-39 -14.5q30 51 30 147v105q-81 19 -123 88t-42 165q0 98 43.5 195.5t121.5 159.5v225q0 39 21.5 64.5
t52 39.5t79.5 30q52 17 76 30.5t24 38.5q0 14 -7 27h1q23 -23 23 -59t-21.5 -60.5t-51.5 -38.5t-79 -30q-54 -17 -81 -33t-27 -42v-255q17 69 63.5 109t121.5 40h94q45 0 73 13.5t36 48.5l1 -1q0 -42 -5 -73.5t-30.5 -59.5t-80.5 -28h-131q-76 0 -109 -42t-33 -96v-31
q15 45 50 62t86 17h76q32 0 49.5 14.5t23.5 47.5h2q0 -14 1 -22l1 -33q0 -47 -20 -77t-78 -30h-55q-56 0 -79.5 -2t-40 -13t-16.5 -38q0 -71 36 -87q-15 -14 -25.5 -39.5t-10.5 -54.5v-55q50 -31 121 -31h51q54 0 89 26t50.5 63.5t15.5 74.5q0 42 -19.5 68.5t-41.5 26.5
q-15 0 -24 -15l-2 2q5 15 17.5 26t35.5 26q33 20 48 37t12 46h2zM106 215q23 -55 69 -87v41q0 26 -12 40t-31 16q24 26 33.5 52.5t9.5 79.5v256q-44 -60 -68 -132.5t-24 -142.5q0 -68 23 -123zM377 756q-15 17 -33 30q21 13 44 43q18 23 33 54q18 -29 29 -41q12 -13 34 -28
q-23 -20 -44 -47q-14 -18 -34 -52q-13 22 -29 41z" />
    <glyph glyph-name="edotaccent" unicode="&#x117;" horiz-adv-x="308" 
d="M124 162q0 -28 35.5 -52.5t90.5 -39.5l34 38l8 -7l-85 -102l-55 20q-53 20 -85.5 56.5t-32.5 77.5v252q0 24 -5 36.5t-19 21.5l236 87l52 -185q-35 -24 -82 -84.5t-65 -105.5l-20 8q16 31 35.5 59.5t51.5 65.5l-53 192l-42 -16l1 -314v-8zM130 590q-15 17 -33 30
q21 13 44 43q18 23 33 54q18 -29 29 -41q12 -13 34 -28q-23 -20 -44 -47q-14 -18 -34 -52q-13 22 -29 41z" />
    <glyph glyph-name="Eogonek" unicode="&#x118;" horiz-adv-x="584" 
d="M543.5 239.5q-20.5 -43.5 -59.5 -99.5q-31 -45 -46 -75t-15 -65q-17 -20 -24 -41t-7 -46q0 -31 13 -56.5t39 -36.5l-70 -40q-31 32 -31 83q0 34 17.5 70.5t43.5 66.5h-172q-27 0 -47 4v-103q0 -18 5 -43q1 -7 3 -22.5t2 -27.5q0 -25 -11 -39.5t-39 -14.5q30 51 30 147
v105q-81 19 -123 88t-42 165q0 98 43.5 195.5t121.5 159.5v225q0 39 21.5 64.5t52 39.5t79.5 30q52 17 76 30.5t24 38.5q0 14 -7 27h1q23 -23 23 -59t-21.5 -60.5t-51.5 -38.5t-79 -30q-54 -17 -81 -33t-27 -42v-255q17 69 63.5 109t121.5 40h94q45 0 73 13.5t36 48.5l1 -1
q0 -42 -5 -73.5t-30.5 -59.5t-80.5 -28h-131q-76 0 -109 -42t-33 -96v-31q15 45 50 62t86 17h76q32 0 49.5 14.5t23.5 47.5h2q0 -14 1 -22l1 -33q0 -47 -20 -77t-78 -30h-55q-56 0 -79.5 -2t-40 -13t-16.5 -38q0 -71 36 -87q-15 -14 -25.5 -39.5t-10.5 -54.5v-55
q50 -31 121 -31h51q54 0 89 26t50.5 63.5t15.5 74.5q0 42 -19.5 68.5t-41.5 26.5q-15 0 -24 -15l-2 2q5 15 17.5 26t35.5 26q33 20 48 37t12 46h2q24 -69 24 -129q0 -59 -20.5 -102.5zM106 215q23 -55 69 -87v41q0 26 -12 40t-31 16q24 26 33.5 52.5t9.5 79.5v256
q-44 -60 -68 -132.5t-24 -142.5q0 -68 23 -123z" />
    <glyph glyph-name="eogonek" unicode="&#x119;" horiz-adv-x="308" 
d="M292 101l-85 -102l-3 1q-17 -20 -24 -41t-7 -46q0 -31 13 -56.5t39 -36.5l-70 -40q-31 32 -31 83q0 36 19 73.5t47 68.5l-38 14q-53 20 -85.5 56.5t-32.5 77.5v252q0 24 -5 36.5t-19 21.5l236 87l52 -185q-35 -24 -82 -84.5t-65 -105.5l-20 8q16 31 35.5 59.5t51.5 65.5
l-53 192l-42 -16l1 -314v-8q0 -28 35.5 -52.5t90.5 -39.5l34 38z" />
    <glyph glyph-name="Ecaron" unicode="&#x11a;" horiz-adv-x="584" 
d="M540 471q24 -69 24 -129q0 -59 -20.5 -102.5t-59.5 -99.5q-31 -45 -46 -75t-15 -65h-191q-27 0 -47 4v-103q0 -18 5 -43q1 -7 3 -22.5t2 -27.5q0 -25 -11 -39.5t-39 -14.5q30 51 30 147v105q-81 19 -123 88t-42 165q0 98 43.5 195.5t121.5 159.5v225q0 39 21.5 64.5
t52 39.5t79.5 30q52 17 76 30.5t24 38.5q0 14 -7 27h1q23 -23 23 -59t-21.5 -60.5t-51.5 -38.5t-79 -30q-54 -17 -81 -33t-27 -42v-255q17 69 63.5 109t121.5 40h94q45 0 73 13.5t36 48.5l1 -1q0 -42 -5 -73.5t-30.5 -59.5t-80.5 -28h-131q-76 0 -109 -42t-33 -96v-31
q15 45 50 62t86 17h76q32 0 49.5 14.5t23.5 47.5h2q0 -14 1 -22l1 -33q0 -47 -20 -77t-78 -30h-55q-56 0 -79.5 -2t-40 -13t-16.5 -38q0 -71 36 -87q-15 -14 -25.5 -39.5t-10.5 -54.5v-55q50 -31 121 -31h51q54 0 89 26t50.5 63.5t15.5 74.5q0 42 -19.5 68.5t-41.5 26.5
q-15 0 -24 -15l-2 2q5 15 17.5 26t35.5 26q33 20 48 37t12 46h2zM106 215q23 -55 69 -87v41q0 26 -12 40t-31 16q24 26 33.5 52.5t9.5 79.5v256q-44 -60 -68 -132.5t-24 -142.5q0 -68 23 -123zM404 725q-68 47 -102 114q43 22 63 47q0 -15 23 -51.5t43 -52.5l77 87l17 -13z
" />
    <glyph glyph-name="ecaron" unicode="&#x11b;" horiz-adv-x="308" 
d="M124 162q0 -28 35.5 -52.5t90.5 -39.5l34 38l8 -7l-85 -102l-55 20q-53 20 -85.5 56.5t-32.5 77.5v252q0 24 -5 36.5t-19 21.5l236 87l52 -185q-35 -24 -82 -84.5t-65 -105.5l-20 8q16 31 35.5 59.5t51.5 65.5l-53 192l-42 -16l1 -314v-8zM157 559q-68 47 -102 114
q43 22 63 47q0 -15 23 -51.5t43 -52.5l77 87l17 -13z" />
    <glyph glyph-name="Gbreve" unicode="&#x11e;" horiz-adv-x="613" 
d="M575 471q29 -57 29 -117q0 -57 -22.5 -106.5t-64.5 -117.5q-30 -44 -44.5 -74t-14.5 -56h-173q-23 0 -50 5v-93q0 -18 5 -43q1 -7 3 -22.5t2 -27.5q0 -25 -11 -39.5t-39 -14.5q30 51 30 147v95q-92 24 -140 112.5t-48 207.5q0 110 40.5 212t115.5 161q-43 -58 -66.5 -137
t-23.5 -161q0 -94 31 -170t91 -113v131q0 38 -15 57.5t-30.5 25.5t-40.5 11q44 27 64.5 56t20.5 76q0 102 49.5 163t139.5 61h109q36 0 60 11t25 50h2q9 -36 9 -60q0 -45 -24.5 -73t-76.5 -28h-155q-75 0 -101 -34.5t-26 -89.5q0 -46 21.5 -58.5t50.5 -12.5q-32 -22 -52 -59
t-20 -90v-143q43 -23 97 -23h30q68 0 116.5 36t73 88t24.5 99h-202q-42 0 -61 -36.5t-19 -86.5h-7q0 104 32 163.5t98 59.5h90q40 0 54.5 14.5t11.5 43.5h2zM187 895l17 2l60 -20q6 -39 17.5 -61.5t33.5 -22.5q21 0 37 24t14 64l28 19l20 2q2 -36 -12.5 -65t-41.5 -45
t-59 -16q-89 0 -114 119z" />
    <glyph glyph-name="gbreve" unicode="&#x11f;" horiz-adv-x="330" 
d="M200 552q44 0 72 -28.5t28 -67.5v-356q0 -51 -35.5 -110t-82 -112t-43.5 -47q-30 34 -53.5 48.5t-49.5 14.5q-11 0 -17 -1l61 72q40 0 71.5 -20.5t37.5 -45.5q12 15 18.5 36t6.5 43v82l-72 -60q-39 22 -75.5 64.5t-36.5 113.5v262q0 30 -20 43l110 70v-384
q0 -34 22.5 -61.5t56.5 -42.5l11 7v362q0 40 -58 40h-23l63 78h8zM139 -169zM71 705l17 2l60 -20q6 -39 17.5 -61.5t33.5 -22.5q21 0 37 24t14 64l28 19l20 2q2 -36 -12.5 -65t-41.5 -45t-59 -16q-89 0 -114 119z" />
    <glyph glyph-name="Gdotaccent" unicode="&#x120;" horiz-adv-x="613" 
d="M575 471q29 -57 29 -117q0 -57 -22.5 -106.5t-64.5 -117.5q-30 -44 -44.5 -74t-14.5 -56h-173q-23 0 -50 5v-93q0 -18 5 -43q1 -7 3 -22.5t2 -27.5q0 -25 -11 -39.5t-39 -14.5q30 51 30 147v95q-92 24 -140 112.5t-48 207.5q0 110 40.5 212t115.5 161q-43 -58 -66.5 -137
t-23.5 -161q0 -94 31 -170t91 -113v131q0 38 -15 57.5t-30.5 25.5t-40.5 11q44 27 64.5 56t20.5 76q0 102 49.5 163t139.5 61h109q36 0 60 11t25 50h2q9 -36 9 -60q0 -45 -24.5 -73t-76.5 -28h-155q-75 0 -101 -34.5t-26 -89.5q0 -46 21.5 -58.5t50.5 -12.5q-32 -22 -52 -59
t-20 -90v-143q43 -23 97 -23h30q68 0 116.5 36t73 88t24.5 99h-202q-42 0 -61 -36.5t-19 -86.5h-7q0 104 32 163.5t98 59.5h90q40 0 54.5 14.5t11.5 43.5h2zM264 796q-15 17 -33 30q21 13 44 43q18 23 33 54q18 -29 29 -41q12 -13 34 -28q-23 -20 -44 -47q-14 -18 -34 -52
q-13 22 -29 41z" />
    <glyph glyph-name="gdotaccent" unicode="&#x121;" horiz-adv-x="330" 
d="M200 552q44 0 72 -28.5t28 -67.5v-356q0 -51 -35.5 -110t-82 -112t-43.5 -47q-30 34 -53.5 48.5t-49.5 14.5q-11 0 -17 -1l61 72q40 0 71.5 -20.5t37.5 -45.5q12 15 18.5 36t6.5 43v82l-72 -60q-39 22 -75.5 64.5t-36.5 113.5v262q0 30 -20 43l110 70v-384
q0 -34 22.5 -61.5t56.5 -42.5l11 7v362q0 40 -58 40h-23l63 78h8zM139 -169zM148 606q-15 17 -33 30q21 13 44 43q18 23 33 54q18 -29 29 -41q12 -13 34 -28q-23 -20 -44 -47q-14 -18 -34 -52q-13 22 -29 41z" />
    <glyph glyph-name="uni0122" unicode="&#x122;" horiz-adv-x="613" 
d="M575 471q29 -57 29 -117q0 -57 -22.5 -106.5t-64.5 -117.5q-30 -44 -44.5 -74t-14.5 -56h-173q-23 0 -50 5v-93q0 -18 5 -43q1 -7 3 -22.5t2 -27.5q0 -25 -11 -39.5t-39 -14.5q30 51 30 147v95q-92 24 -140 112.5t-48 207.5q0 110 40.5 212t115.5 161q-43 -58 -66.5 -137
t-23.5 -161q0 -94 31 -170t91 -113v131q0 38 -15 57.5t-30.5 25.5t-40.5 11q44 27 64.5 56t20.5 76q0 102 49.5 163t139.5 61h109q36 0 60 11t25 50h2q9 -36 9 -60q0 -45 -24.5 -73t-76.5 -28h-155q-75 0 -101 -34.5t-26 -89.5q0 -46 21.5 -58.5t50.5 -12.5q-32 -22 -52 -59
t-20 -90v-143q43 -23 97 -23h30q68 0 116.5 36t73 88t24.5 99h-202q-42 0 -61 -36.5t-19 -86.5h-7q0 104 32 163.5t98 59.5h90q40 0 54.5 14.5t11.5 43.5h2zM301 -341q26 13 40 40.5t14 59.5q0 34 -15 65t-44 53v9q21 4 46 24.5t34 41.5q38 -61 38 -124q0 -60 -32.5 -107.5
t-80.5 -64.5v3z" />
    <glyph glyph-name="uni0123" unicode="&#x123;" horiz-adv-x="330" 
d="M200 552q44 0 72 -28.5t28 -67.5v-356q0 -51 -35.5 -110t-82 -112t-43.5 -47q-30 34 -53.5 48.5t-49.5 14.5q-11 0 -17 -1l61 72q40 0 71.5 -20.5t37.5 -45.5q12 15 18.5 36t6.5 43v82l-72 -60q-39 22 -75.5 64.5t-36.5 113.5v262q0 30 -20 43l110 70v-384
q0 -34 22.5 -61.5t56.5 -42.5l11 7v362q0 40 -58 40h-23l63 78h8zM139 -169zM233 870q-26 -13 -40 -40.5t-14 -59.5q0 -34 15 -65t44 -53v-9q-21 -4 -46 -24.5t-34 -41.5q-38 61 -38 124q0 60 32.5 107.5t80.5 64.5v-3z" />
    <glyph glyph-name="Hbar" unicode="&#x126;" horiz-adv-x="637" 
d="M647 474q0 -17 -9.5 -32.5t-32.5 -15.5q27 14 27 29q0 19 -23.5 33t-56.5 14q-11 0 -16 -1v-369q0 -14 10.5 -29t26.5 -20l22 25l8 -7l-82 -101q-46 35 -60.5 65.5t-14.5 66.5v330q-64 -53 -88 -160v-59q0 -91 -41 -125.5t-114 -35.5v-32q22 -18 40.5 -28t38.5 -10
q28 0 44 16.5t16 36.5q0 21 -16 31l1 3q31 -11 31 -47q0 -25 -16.5 -50t-51.5 -42t-87 -19v-40q0 -18 5 -43q1 -7 3 -22.5t2 -27.5q0 -25 -11 -39.5t-39 -14.5q30 51 30 147v40q-55 51 -90.5 73.5t-51.5 22.5q-13 0 -13 -11q0 -8 7 -17.5t17 -14.5q-24 0 -38 16.5t-14 38.5
q0 27 20 48t57 21q26 0 48.5 -14.5t57.5 -45.5v82q0 28 -13 56t-30 38q23 22 33 46.5t10 76.5v243q-39 -66 -62 -134.5t-23 -123.5q0 -73 42 -108q-94 51 -94 134q0 53 35.5 117.5t101.5 145.5v208q0 39 21.5 64.5t52 39.5t79.5 30q52 17 76 30.5t24 38.5q0 14 -7 27h1
q23 -23 23 -59t-21.5 -60.5t-51.5 -38.5t-79 -30q-54 -17 -81 -33t-27 -42v-162q60 71 150 169l42 46l1 -1q-20 -50 -29 -88.5t-9 -90.5v-84h88q-5 25 -20 35l110 70v-105h79l-24 -17h-55v-31q10 3 22 3q89 0 89 -76zM203 497q0 -75 16.5 -108t48.5 -40v229h-21l21 15v112
q-34 -39 -65 -88v-120zM358 390q-2 -2 37 40q32 36 51 55v93h-88v-188zM203 85q37 20 51 57.5t14 117.5v56q-47 29 -65 95v-54q0 -67 30 -88q-17 -20 -23.5 -48t-6.5 -81v-55z" />
    <glyph glyph-name="hbar" unicode="&#x127;" horiz-adv-x="351" 
d="M120 132q0 -17 12 -29.5t36 -25.5l-62 -76q-42 26 -59 61t-17 70v436h-66l15 17h51q-1 15 -5 26t-15 17q47 22 111 73t87 89l1 -1q-9 -19 -30 -48q-28 -41 -43.5 -71t-15.5 -62v-23h75l-15 -17h-60v-436zM353 108l8 -7l-82 -101q-46 35 -60.5 65.5t-14.5 66.5v300
q0 40 -58 40h-23l63 78h8q44 0 72 -28.5t28 -67.5v-322q0 -14 10.5 -29t26.5 -20z" />
    <glyph glyph-name="Imacron" unicode="&#x12a;" horiz-adv-x="393" 
d="M441.5 949.5q-21.5 -24.5 -51.5 -38.5t-79 -30q-54 -17 -81 -33t-27 -42v-1h38l-3 -17h-35v-144q60 71 150 169l42 46l1 -1q-20 -50 -29 -88.5t-9 -90.5v-436q0 -91 -41 -125.5t-114 -35.5v-32q22 -18 40.5 -28t38.5 -10q28 0 44 16.5t16 36.5q0 21 -16 31l1 3
q31 -11 31 -47q0 -25 -16.5 -50t-51.5 -42t-87 -19v-40q0 -18 5 -43q1 -7 3 -22.5t2 -27.5q0 -25 -11 -39.5t-39 -14.5q30 51 30 147v40q-55 51 -90.5 73.5t-51.5 22.5q-13 0 -13 -11q0 -8 7 -17.5t17 -14.5q-24 0 -38 16.5t-14 38.5q0 27 20 48t57 21q26 0 48.5 -14.5
t57.5 -45.5v82q0 28 -13 56t-30 38q23 22 33 46.5t10 76.5v243q-39 -66 -62 -134.5t-23 -123.5q0 -73 42 -108q-94 51 -94 134q0 53 35.5 117.5t101.5 145.5v157h-148l3 17h145v34q0 39 21.5 64.5t52 39.5t79.5 30q52 17 76 30.5t24 38.5q0 14 -7 27h1q23 -23 23 -59
t-21.5 -60.5zM268 705q-34 -39 -65 -88v-260q0 -67 30 -88q-17 -20 -23.5 -48t-6.5 -81v-55q37 20 51 57.5t14 117.5v445z" />
    <glyph glyph-name="imacron" unicode="&#x12b;" horiz-adv-x="177" 
d="M130.5 99q10.5 -15 26.5 -20l22 25l8 -7l-82 -101q-46 35 -60.5 65.5t-14.5 66.5v309q0 30 -20 43l110 70v-422q0 -14 10.5 -29zM179 658h-193l3 17h193z" />
    <glyph glyph-name="Iogonek" unicode="&#x12e;" horiz-adv-x="393" 
d="M203 644q60 71 150 169l42 46l1 -1q-20 -50 -29 -88.5t-9 -90.5v-436q0 -91 -41 -125.5t-114 -35.5v-32q22 -18 40.5 -28t38.5 -10q28 0 44 16.5t16 36.5q0 21 -16 31l1 3q31 -11 31 -47q0 -18 -9.5 -37t-27.5 -35q-22 -31 -22 -75q0 -31 13 -56.5t39 -36.5l-70 -40
q-31 32 -31 83q0 50 36 103q-38 -16 -83 -17v-40q0 -18 5 -43q1 -7 3 -22.5t2 -27.5q0 -25 -11 -39.5t-39 -14.5q30 51 30 147v40q-55 51 -90.5 73.5t-51.5 22.5q-13 0 -13 -11q0 -8 7 -17.5t17 -14.5q-24 0 -38 16.5t-14 38.5q0 27 20 48t57 21q26 0 48.5 -14.5t57.5 -45.5
v82q0 28 -13 56t-30 38q23 22 33 46.5t10 76.5v243q-39 -66 -62 -134.5t-23 -123.5q0 -73 42 -108q-94 51 -94 134q0 53 35.5 117.5t101.5 145.5v208q0 39 21.5 64.5t52 39.5t79.5 30q52 17 76 30.5t24 38.5q0 14 -7 27h1q23 -23 23 -59t-21.5 -60.5t-51.5 -38.5t-79 -30
q-54 -17 -81 -33t-27 -42v-162zM268 705q-34 -39 -65 -88v-260q0 -67 30 -88q-17 -20 -23.5 -48t-6.5 -81v-55q37 20 51 57.5t14 117.5v445z" />
    <glyph glyph-name="iogonek" unicode="&#x12f;" horiz-adv-x="177" 
d="M14 656q21 13 44 43q18 23 33 54q18 -29 29 -41q12 -13 34 -28q-23 -20 -44 -47q-14 -18 -34 -52q-13 22 -29 41q-15 17 -33 30zM90 -143.5q13 -25.5 39 -36.5l-70 -40q-31 32 -31 83q0 36 19 73.5t47 68.5q-39 32 -51.5 60.5t-12.5 62.5v309q0 30 -20 43l110 70v-422
q0 -14 10.5 -29t26.5 -20l22 25l8 -7l-82 -101q-16 -19 -22 -38.5t-6 -44.5q0 -31 13 -56.5z" />
    <glyph glyph-name="Idotaccent" unicode="&#x130;" horiz-adv-x="393" 
d="M441.5 950q-21.5 -24 -51.5 -38t-78 -30q-50 -17 -75 -29.5t-32 -33.5q1 0 8 -5l-10 -9v-161q60 71 150 169l42 46l1 -1q-20 -50 -29 -88.5t-9 -90.5v-436q0 -91 -41 -125.5t-114 -35.5v-32q22 -18 40.5 -28t38.5 -10q28 0 44 16.5t16 36.5q0 21 -16 31l1 3
q31 -11 31 -47q0 -25 -16.5 -50t-51.5 -42t-87 -19v-40q0 -18 5 -43q1 -7 3 -22.5t2 -27.5q0 -25 -11 -39.5t-39 -14.5q30 51 30 147v40q-55 51 -90.5 73.5t-51.5 22.5q-13 0 -13 -11q0 -8 7 -17.5t17 -14.5q-24 0 -38 16.5t-14 38.5q0 27 20 48t57 21q26 0 48.5 -14.5
t57.5 -45.5v82q0 28 -13 56t-30 38q23 22 33 46.5t10 76.5v243q-39 -66 -62 -134.5t-23 -123.5q0 -73 42 -108q-94 51 -94 134q0 53 35.5 117.5t101.5 145.5v164l-24 -28q-14 -18 -34 -52q-13 22 -29 41q-15 16 -33 30q21 13 44 43q18 23 33 54q18 -29 29 -41l14 -13v10
q0 39 21.5 64.5t52 39.5t79.5 30q52 17 76 30.5t24 38.5q0 14 -7 27h1q23 -23 23 -59t-21.5 -60zM268 705q-34 -39 -65 -88v-260q0 -67 30 -88q-17 -20 -23.5 -48t-6.5 -81v-55q37 20 51 57.5t14 117.5v445z" />
    <glyph glyph-name="dotlessi" unicode="&#x131;" horiz-adv-x="177" 
d="M130.5 99q10.5 -15 26.5 -20l22 25l8 -7l-82 -101q-46 35 -60.5 65.5t-14.5 66.5v309q0 30 -20 43l110 70v-422q0 -14 10.5 -29z" />
    <glyph glyph-name="uni0136" unicode="&#x136;" horiz-adv-x="747" 
d="M832 -26q12 -21 12 -41q0 -43 -48 -78t-117 -53q-38 76 -60 161t-43 200q-17 90 -26 124q-19 71 -47 87q-12 7 -30 4h-3q-35 -68 -95.5 -121t-140.5 -79q24 -5 41.5 -17t42.5 -35q29 -28 53.5 -42.5t60.5 -14.5q19 0 30.5 11.5t11.5 30.5q0 22 -10 37t-30 36
q-11 10 -16 16.5t-5 12.5q0 15 13 15q28 0 42.5 -47t14.5 -94q0 -45 -23 -73.5t-72 -28.5q-7 0 -10 1q36 -58 36 -121q0 -60 -32.5 -107.5t-80.5 -64.5v3q26 13 40 40.5t14 59.5q0 34 -15 65t-44 53v9q20 4 44 23.5t35 39.5q-28 5 -61.5 27t-80.5 59q-46 36 -72 53t-44 17
q-15 0 -22.5 -10.5t-7.5 -26.5q0 -18 9 -33.5t22 -15.5q-7 -16 -20 -24t-27 -8q-17 0 -29 10t-12 27q0 24 26 52.5t67.5 47.5t84.5 19q67 22 115 71.5t73 112t25 123.5q0 47 -15.5 87t-43.5 63.5t-62 23.5q-50 0 -50 -49q0 -19 5.5 -42t16.5 -57q8 -24 14 -48.5t6 -39.5
q0 -35 -23 -73.5t-59.5 -64.5t-73.5 -26q-21 0 -31.5 8.5t-10.5 21.5q0 16 15 30t35 14q-12 -8 -12 -17q0 -11 17 -20.5t38 -9.5q35 0 35 38q0 17 -5.5 39.5t-16.5 58.5q-23 71 -23 101q0 44 27 84.5t69 65.5t83 25q76 0 115.5 -46.5t39.5 -119.5v-12q34 102 65.5 155
t72.5 53q22 1 44.5 -6t56.5 -20q43 -18 59 -18q12 0 17.5 6.5t5.5 23.5q0 23 -11.5 43.5t-24.5 20.5q-10 0 -18 -13q-1 22 12.5 38t31.5 16q34 0 34 -57q0 -38 -18 -76t-44.5 -62t-50.5 -24q-20 0 -35.5 7t-37.5 20q-20 12 -30.5 17t-24.5 5q-31 -1 -59 -56.5t-56 -140.5
q-8 -26 -13 -38l-10 -30q13 28 40 46.5t56 18.5q28 0 49 -43.5t35.5 -105.5t33.5 -163q25 -133 43.5 -196t45.5 -63q17 0 35 13.5t18 35.5q0 15 -12 35z" />
    <glyph glyph-name="uni0137" unicode="&#x137;" horiz-adv-x="368" 
d="M339 82q0 -57 19 -82q-72 -19 -145 -124h-1q16 37 26.5 78.5t10.5 76.5v188q0 11 -5 21.5t-11.5 20.5t-9.5 14l-54 83l78 99h-66q-13 0 -33.5 -20t-25.5 -41v-266q0 -17 12 -29.5t36 -25.5l-62 -76q-42 26 -59 61t-17 70v486q0 58 -22 84q44 9 84 41.5t65 76.5l1 -1
q-20 -50 -29 -88.5t-9 -90.5v-215q13 65 34.5 96t58.5 31h89q9 0 38 11l-106 -140l72 -94q17 -22 24 -42.5t7 -47.5v-155zM71 -304q26 13 40 40.5t14 59.5q0 34 -15 65t-44 53v9q21 4 46 24.5t34 41.5q38 -61 38 -124q0 -60 -32.5 -107.5t-80.5 -64.5v3z" />
    <glyph glyph-name="Lacute" unicode="&#x139;" horiz-adv-x="504" 
d="M786 -41q0 -43 -48 -78t-117 -53q-87 59 -178.5 110.5t-162.5 78.5v-116q0 -18 5 -43q1 -7 3 -22.5t2 -27.5q0 -25 -11 -39.5t-39 -14.5q30 51 30 147v120q-55 20 -91 20q-49 0 -48 -41q-12 26 -12 48q0 34 27.5 55t80.5 21q21 0 32 33t11 90v455q-38 -37 -63 -81.5
t-25 -91.5q0 -78 80 -146q-93 51 -135 94.5t-42 81.5q0 44 47 82t138 86v112q0 39 21.5 64.5t52 39.5t79.5 30q52 17 76 30.5t24 38.5q0 14 -7 27h1q23 -23 23 -59t-21.5 -60.5t-51.5 -38.5t-79 -30q-54 -17 -81 -33t-27 -42v-74q80 43 123 69.5t71 57.5l-13 -33
q-14 -34 -19 -56t-5 -61v-408q0 -79 -36.5 -129.5t-106.5 -52.5q25 14 39 49t14 92v501q-28 -14 -67 -50v-464q0 -47 4.5 -73.5t17.5 -37.5q-13 -6 -18 -24q45 -15 102.5 -43.5t152.5 -78.5q79 -42 123 -63t60 -21q25 0 40.5 14t15.5 32q0 19 -18 33q-9 7 -9 13q0 4 3 7t8 3
q6 0 12 -8q12 -17 12 -41zM345 1124l15 5q21 -34 63 -56q-15 -40 -52 -70.5t-93 -38.5q55 64 67 160z" />
    <glyph glyph-name="lacute" unicode="&#x13a;" horiz-adv-x="177" 
d="M130.5 103q10.5 -15 26.5 -20l22 25l8 -7l-82 -101q-46 35 -60.5 65.5t-14.5 66.5v455q0 30 -20 43l110 70v-568q0 -14 10.5 -29zM83 890l15 5q21 -34 63 -56q-15 -40 -52 -70.5t-93 -38.5q55 64 67 160z" />
    <glyph glyph-name="uni013B" unicode="&#x13b;" horiz-adv-x="504" 
d="M786 -41q0 -43 -48 -78t-117 -53q-87 59 -178.5 110.5t-162.5 78.5v-116q0 -18 5 -43q1 -7 3 -22.5t2 -27.5q0 -25 -11 -39.5t-39 -14.5q30 51 30 147v120q-55 20 -91 20q-49 0 -48 -41q-12 26 -12 48q0 34 27.5 55t80.5 21q21 0 32 33t11 90v455q-38 -37 -63 -81.5
t-25 -91.5q0 -78 80 -146q-93 51 -135 94.5t-42 81.5q0 44 47 82t138 86v112q0 39 21.5 64.5t52 39.5t79.5 30q52 17 76 30.5t24 38.5q0 14 -7 27h1q23 -23 23 -59t-21.5 -60.5t-51.5 -38.5t-79 -30q-54 -17 -81 -33t-27 -42v-74q80 43 123 69.5t71 57.5l-13 -33
q-14 -34 -19 -56t-5 -61v-408q0 -79 -36.5 -129.5t-106.5 -52.5q25 14 39 49t14 92v501q-28 -14 -67 -50v-464q0 -47 4.5 -73.5t17.5 -37.5q-13 -6 -18 -24q45 -15 102.5 -43.5t152.5 -78.5q79 -42 123 -63t60 -21q25 0 40.5 14t15.5 32q0 19 -18 33q-9 7 -9 13q0 4 3 7t8 3
q6 0 12 -8q12 -17 12 -41zM335 -367q26 13 40 40.5t14 59.5q0 34 -15 65t-44 53v9q21 4 46 24.5t34 41.5q38 -61 38 -124q0 -60 -32.5 -107.5t-80.5 -64.5v3z" />
    <glyph glyph-name="uni013C" unicode="&#x13c;" horiz-adv-x="177" 
d="M130.5 103q10.5 -15 26.5 -20l22 25l8 -7l-82 -101q-46 35 -60.5 65.5t-14.5 66.5v455q0 30 -20 43l110 70v-568q0 -14 10.5 -29zM16 -304q26 13 40 40.5t14 59.5q0 34 -15 65t-44 53v9q21 4 46 24.5t34 41.5q38 -61 38 -124q0 -60 -32.5 -107.5t-80.5 -64.5v3z" />
    <glyph glyph-name="Lcaron" unicode="&#x13d;" horiz-adv-x="504" 
d="M786 -41q0 -43 -48 -78t-117 -53q-87 59 -178.5 110.5t-162.5 78.5v-116q0 -18 5 -43q1 -7 3 -22.5t2 -27.5q0 -25 -11 -39.5t-39 -14.5q30 51 30 147v120q-55 20 -91 20q-49 0 -48 -41q-12 26 -12 48q0 34 27.5 55t80.5 21q21 0 32 33t11 90v455q-38 -37 -63 -81.5
t-25 -91.5q0 -78 80 -146q-93 51 -135 94.5t-42 81.5q0 44 47 82t138 86v112q0 39 21.5 64.5t52 39.5t79.5 30q52 17 76 30.5t24 38.5q0 14 -7 27h1q23 -23 23 -59t-21.5 -60.5t-51.5 -38.5t-79 -30q-54 -17 -81 -33t-27 -42v-74q80 43 123 69.5t71 57.5l-13 -33
q-14 -34 -19 -56t-5 -61v-408q0 -79 -36.5 -129.5t-106.5 -52.5q25 14 39 49t14 92v501q-28 -14 -67 -50v-464q0 -47 4.5 -73.5t17.5 -37.5q-13 -6 -18 -24q45 -15 102.5 -43.5t152.5 -78.5q79 -42 123 -63t60 -21q25 0 40.5 14t15.5 32q0 19 -18 33q-9 7 -9 13q0 4 3 7t8 3
q6 0 12 -8q12 -17 12 -41zM263 927q-68 47 -102 114q43 22 63 47q0 -15 23 -51.5t43 -52.5l77 87l17 -13z" />
    <glyph glyph-name="lcaron" unicode="&#x13e;" horiz-adv-x="310" 
d="M130.5 103q10.5 -15 26.5 -20l22 25l8 -7l-82 -101q-46 35 -60.5 65.5t-14.5 66.5v455q0 30 -20 43l110 70v-568q0 -14 10.5 -29zM187 576q26 13 40 40.5t14 59.5q0 34 -15 65t-44 53v9q21 4 46 24.5t34 41.5q38 -61 38 -124q0 -60 -32.5 -107.5t-80.5 -64.5v3z" />
    <glyph glyph-name="Lslash" unicode="&#x141;" horiz-adv-x="463" 
d="M786 -41q0 -43 -48 -78t-117 -53q-87 59 -178.5 110.5t-162.5 78.5v-116q0 -18 5 -43q1 -7 3 -22.5t2 -27.5q0 -25 -11 -39.5t-39 -14.5q30 51 30 147v120q-55 20 -91 20q-49 0 -48 -41q-12 26 -12 48q0 34 27.5 55t80.5 21q21 0 32 33t11 90v60l-93 -87l-6 8l99 93v381
q-38 -37 -63 -81.5t-25 -91.5q0 -78 80 -146q-93 51 -135 94.5t-42 81.5q0 44 47 82t138 86v112q0 39 21.5 64.5t52 39.5t79.5 30q52 17 76 30.5t24 38.5q0 14 -7 27h1q23 -23 23 -59t-21.5 -60.5t-51.5 -38.5t-79 -30q-54 -17 -81 -33t-27 -42v-74q80 43 123 69.5t71 57.5
l-13 -33q-14 -34 -19 -56t-5 -61v-232l49 46v-14l-49 -46v-162q0 -79 -36.5 -129.5t-106.5 -52.5q25 14 39 49t14 92v119l-67 -63v-69q0 -47 4.5 -73.5t17.5 -37.5q-13 -6 -18 -24q45 -15 102.5 -43.5t152.5 -78.5q79 -42 123 -63t60 -21q25 0 40.5 14t15.5 32q0 19 -18 33
q-9 7 -9 13q0 4 3 7t8 3q6 0 12 -8q12 -17 12 -41zM280 330l67 63v368q-28 -14 -67 -50v-381z" />
    <glyph glyph-name="lslash" unicode="&#x142;" horiz-adv-x="177" 
d="M179 108l8 -7l-82 -101q-46 35 -60.5 65.5t-14.5 66.5v87l-22 -22v17l22 22v351q0 30 -20 43l110 70v-372l56 57v-17l-56 -57v-179q0 -14 10.5 -29t26.5 -20z" />
    <glyph glyph-name="Nacute" unicode="&#x143;" horiz-adv-x="684" 
d="M446 634l53 66h8q44 0 72 -28.5t28 -67.5v-472q0 -14 10.5 -29t26.5 -20l22 25l8 -7l-82 -101q-46 35 -60.5 65.5t-14.5 66.5v450q0 40 -58 40h-13v-375q0 -47 4.5 -73.5t17.5 -37.5q-11 -5 -16.5 -18.5t-5.5 -28.5v-188q0 -18 5 -43q1 -7 3 -22.5t2 -27.5
q0 -25 -11 -39.5t-39 -14.5q30 51 30 147v158q0 19 -7 34t-18 23q2 -10 2 -29q0 -45 -23 -73.5t-72 -28.5q-34 0 -72 23.5t-93 68.5q-41 34 -65 49.5t-41 15.5q-16 0 -25 -13t-9 -30q0 -19 9.5 -31.5t25.5 -11.5q-7 -17 -19.5 -25.5t-25.5 -8.5q-17 0 -25.5 9t-8.5 25
q0 25 21 54t61 49.5t94 20.5q104 50 154.5 128.5t50.5 161.5q0 51 -18.5 94t-51 68.5t-73.5 25.5q-53 0 -53 -40q0 -17 8 -40t24 -57q17 -37 24.5 -58t7.5 -38q0 -34 -25.5 -73t-64 -65t-76.5 -26q-21 0 -31.5 8.5t-10.5 21.5q0 16 15 30t35 14q-12 -8 -12 -17
q0 -11 17 -20.5t38 -9.5q19 0 26.5 10t7.5 28q0 28 -21 95q-12 41 -17.5 63t-5.5 41q0 49 26.5 89t68 63t84.5 23q72 0 113.5 -36t50.5 -96v271q0 39 21.5 64.5t52 39.5t79.5 30q52 17 76 30.5t24 38.5q0 14 -7 27h1q23 -23 23 -59t-21.5 -60.5t-51.5 -38.5t-79 -30
q-54 -17 -81 -33t-27 -42v-172zM436 247v260q-11 -91 -81.5 -182t-188.5 -147q27 -5 47.5 -18.5t46.5 -37.5q30 -27 51.5 -40t50.5 -13q19 0 30.5 11.5t11.5 30.5q0 7 -1 10q-5 3 -10 3q3 0 9 2q-7 29 -40 57q-20 17 -20 34q0 7 4.5 11t9.5 2q22 -10 35 -37t19 -62
q26 24 26 116zM319 901l15 5q21 -34 63 -56q-15 -40 -52 -70.5t-93 -38.5q55 64 67 160z" />
    <glyph glyph-name="nacute" unicode="&#x144;" horiz-adv-x="353" 
d="M132 98.5q12 -12.5 36 -25.5l-62 -76q-42 26 -59 61t-17 70v309q0 30 -20 43l110 70v-422q0 -17 12 -29.5zM306.5 103q10.5 -15 26.5 -20l22 25l8 -7l-82 -101q-46 35 -60.5 65.5t-14.5 66.5v300q0 40 -58 40h-23l63 78h8q44 0 72 -28.5t28 -67.5v-322q0 -14 10.5 -29z
M171 740l15 5q21 -34 63 -56q-15 -40 -52 -70.5t-93 -38.5q55 64 67 160z" />
    <glyph glyph-name="uni0145" unicode="&#x145;" horiz-adv-x="684" 
d="M446 634l53 66h8q44 0 72 -28.5t28 -67.5v-472q0 -14 10.5 -29t26.5 -20l22 25l8 -7l-82 -101q-46 35 -60.5 65.5t-14.5 66.5v450q0 40 -58 40h-13v-375q0 -47 4.5 -73.5t17.5 -37.5q-11 -5 -16.5 -18.5t-5.5 -28.5v-188q0 -18 5 -43q1 -7 3 -22.5t2 -27.5
q0 -25 -11 -39.5t-39 -14.5q30 51 30 147v158q0 19 -7 34t-18 23q2 -10 2 -29q0 -45 -23 -73.5t-72 -28.5q-34 0 -72 23.5t-93 68.5q-41 34 -65 49.5t-41 15.5q-16 0 -25 -13t-9 -30q0 -19 9.5 -31.5t25.5 -11.5q-7 -17 -19.5 -25.5t-25.5 -8.5q-17 0 -25.5 9t-8.5 25
q0 25 21 54t61 49.5t94 20.5q104 50 154.5 128.5t50.5 161.5q0 51 -18.5 94t-51 68.5t-73.5 25.5q-53 0 -53 -40q0 -17 8 -40t24 -57q17 -37 24.5 -58t7.5 -38q0 -34 -25.5 -73t-64 -65t-76.5 -26q-21 0 -31.5 8.5t-10.5 21.5q0 16 15 30t35 14q-12 -8 -12 -17
q0 -11 17 -20.5t38 -9.5q19 0 26.5 10t7.5 28q0 28 -21 95q-12 41 -17.5 63t-5.5 41q0 49 26.5 89t68 63t84.5 23q72 0 113.5 -36t50.5 -96v271q0 39 21.5 64.5t52 39.5t79.5 30q52 17 76 30.5t24 38.5q0 14 -7 27h1q23 -23 23 -59t-21.5 -60.5t-51.5 -38.5t-79 -30
q-54 -17 -81 -33t-27 -42v-172zM436 247v260q-11 -91 -81.5 -182t-188.5 -147q27 -5 47.5 -18.5t46.5 -37.5q30 -27 51.5 -40t50.5 -13q19 0 30.5 11.5t11.5 30.5q0 7 -1 10q-5 3 -10 3q3 0 9 2q-7 29 -40 57q-20 17 -20 34q0 7 4.5 11t9.5 2q22 -10 35 -37t19 -62
q26 24 26 116zM474 -292q26 13 40 40.5t14 59.5q0 34 -15 65t-44 53v9q21 4 46 24.5t34 41.5q38 -61 38 -124q0 -60 -32.5 -107.5t-80.5 -64.5v3z" />
    <glyph glyph-name="uni0146" unicode="&#x146;" horiz-adv-x="353" 
d="M132 98.5q12 -12.5 36 -25.5l-62 -76q-42 26 -59 61t-17 70v309q0 30 -20 43l110 70v-422q0 -17 12 -29.5zM306.5 103q10.5 -15 26.5 -20l22 25l8 -7l-82 -101q-46 35 -60.5 65.5t-14.5 66.5v300q0 40 -58 40h-23l63 78h8q44 0 72 -28.5t28 -67.5v-322q0 -14 10.5 -29z
M104 -304q26 13 40 40.5t14 59.5q0 34 -15 65t-44 53v9q21 4 46 24.5t34 41.5q38 -61 38 -124q0 -60 -32.5 -107.5t-80.5 -64.5v3z" />
    <glyph glyph-name="Ncaron" unicode="&#x147;" horiz-adv-x="684" 
d="M446 634l53 66h8q44 0 72 -28.5t28 -67.5v-472q0 -14 10.5 -29t26.5 -20l22 25l8 -7l-82 -101q-46 35 -60.5 65.5t-14.5 66.5v450q0 40 -58 40h-13v-375q0 -47 4.5 -73.5t17.5 -37.5q-11 -5 -16.5 -18.5t-5.5 -28.5v-188q0 -18 5 -43q1 -7 3 -22.5t2 -27.5
q0 -25 -11 -39.5t-39 -14.5q30 51 30 147v158q0 19 -7 34t-18 23q2 -10 2 -29q0 -45 -23 -73.5t-72 -28.5q-34 0 -72 23.5t-93 68.5q-41 34 -65 49.5t-41 15.5q-16 0 -25 -13t-9 -30q0 -19 9.5 -31.5t25.5 -11.5q-7 -17 -19.5 -25.5t-25.5 -8.5q-17 0 -25.5 9t-8.5 25
q0 25 21 54t61 49.5t94 20.5q104 50 154.5 128.5t50.5 161.5q0 51 -18.5 94t-51 68.5t-73.5 25.5q-53 0 -53 -40q0 -17 8 -40t24 -57q17 -37 24.5 -58t7.5 -38q0 -34 -25.5 -73t-64 -65t-76.5 -26q-21 0 -31.5 8.5t-10.5 21.5q0 16 15 30t35 14q-12 -8 -12 -17
q0 -11 17 -20.5t38 -9.5q19 0 26.5 10t7.5 28q0 28 -21 95q-12 41 -17.5 63t-5.5 41q0 49 26.5 89t68 63t84.5 23q72 0 113.5 -36t50.5 -96v271q0 39 21.5 64.5t52 39.5t79.5 30q52 17 76 30.5t24 38.5q0 14 -7 27h1q23 -23 23 -59t-21.5 -60.5t-51.5 -38.5t-79 -30
q-54 -17 -81 -33t-27 -42v-172zM436 247v260q-11 -91 -81.5 -182t-188.5 -147q27 -5 47.5 -18.5t46.5 -37.5q30 -27 51.5 -40t50.5 -13q19 0 30.5 11.5t11.5 30.5q0 7 -1 10q-5 3 -10 3q3 0 9 2q-7 29 -40 57q-20 17 -20 34q0 7 4.5 11t9.5 2q22 -10 35 -37t19 -62
q26 24 26 116zM307 729q-68 47 -102 114q43 22 63 47q0 -15 23 -51.5t43 -52.5l77 87l17 -13z" />
    <glyph glyph-name="ncaron" unicode="&#x148;" horiz-adv-x="353" 
d="M132 98.5q12 -12.5 36 -25.5l-62 -76q-42 26 -59 61t-17 70v309q0 30 -20 43l110 70v-422q0 -17 12 -29.5zM306.5 103q10.5 -15 26.5 -20l22 25l8 -7l-82 -101q-46 35 -60.5 65.5t-14.5 66.5v300q0 40 -58 40h-23l63 78h8q44 0 72 -28.5t28 -67.5v-322q0 -14 10.5 -29z
M167 575q-68 47 -102 114q43 22 63 47q0 -15 23 -51.5t43 -52.5l77 87l17 -13z" />
    <glyph glyph-name="Eng" unicode="&#x14a;" horiz-adv-x="684" 
d="M446 634l53 66h8q44 0 72 -28.5t28 -67.5v-472q0 -14 10.5 -29t26.5 -20l22 25l8 -7l-82 -101q-46 35 -60.5 65.5t-14.5 66.5v450q0 40 -58 40h-13v-375q0 -47 4.5 -73.5t17.5 -37.5q-11 -5 -16.5 -18.5t-5.5 -28.5v-188q0 -18 5 -43q1 -7 3 -22.5t2 -27.5
q0 -25 -11 -39.5t-39 -14.5q30 51 30 147v158q0 19 -7 34t-18 23q2 -10 2 -29q0 -45 -23 -73.5t-72 -28.5q-34 0 -72 23.5t-93 68.5q-41 34 -65 49.5t-41 15.5q-16 0 -25 -13t-9 -30q0 -19 9.5 -31.5t25.5 -11.5q-7 -17 -19.5 -25.5t-25.5 -8.5q-17 0 -25.5 9t-8.5 25
q0 25 21 54t61 49.5t94 20.5q104 50 154.5 128.5t50.5 161.5q0 51 -18.5 94t-51 68.5t-73.5 25.5q-53 0 -53 -40q0 -17 8 -40t24 -57q17 -37 24.5 -58t7.5 -38q0 -34 -25.5 -73t-64 -65t-76.5 -26q-21 0 -31.5 8.5t-10.5 21.5q0 16 15 30t35 14q-12 -8 -12 -17
q0 -11 17 -20.5t38 -9.5q19 0 26.5 10t7.5 28q0 28 -21 95q-12 41 -17.5 63t-5.5 41q0 49 26.5 89t68 63t84.5 23q72 0 113.5 -36t50.5 -96v271q0 39 21.5 64.5t52 39.5t79.5 30q52 17 76 30.5t24 38.5q0 14 -7 27h1q23 -23 23 -59t-21.5 -60.5t-51.5 -38.5t-79 -30
q-54 -17 -81 -33t-27 -42v-172zM436 247v260q-11 -91 -81.5 -182t-188.5 -147q27 -5 47.5 -18.5t46.5 -37.5q30 -27 51.5 -40t50.5 -13q19 0 30.5 11.5t11.5 30.5q0 7 -1 10q-5 3 -10 3q3 0 9 2q-7 29 -40 57q-20 17 -20 34q0 7 4.5 11t9.5 2q22 -10 35 -37t19 -62
q26 24 26 116z" />
    <glyph glyph-name="eng" unicode="&#x14b;" horiz-adv-x="354" 
d="M318 127q0 -18 10 -29.5t29 -20.5q0 -55 -17 -104t-52 -80t-85 -31v99q24 -8 56 -8t54 11t22 35l-64 34q-19 10 -29.5 32t-10.5 48v313q0 14 -9.5 21.5t-22.5 7.5q-14 0 -23.5 -7.5t-9.5 -21.5v-345l15 -12l-60 -69l-45 33q-35 25 -35 100v260q0 34 -7.5 50t-23.5 26
l119 81v-409q0 -15 4.5 -25.5t15.5 -20.5v374q0 32 15.5 56.5t58.5 24.5h57q19 0 36.5 5t29.5 14l1 -1q-29 -36 -29 -84v-357z" />
    <glyph glyph-name="Omacron" unicode="&#x14c;" horiz-adv-x="585" 
d="M525 471q24 -69 24 -129q0 -59 -20.5 -102.5t-59.5 -99.5q-31 -45 -46 -75t-15 -65h-98q-33 0 -65 8v-96q0 -18 5 -43q1 -7 3 -22.5t2 -27.5q0 -25 -11 -39.5t-39 -14.5q30 51 30 147v98q-66 19 -112.5 70.5t-70 122.5t-23.5 150q0 105 42 199.5t122 147.5
q-37 -50 -58 -129t-21 -163q0 -97 30 -175t91 -115v132q0 46 -26.5 64.5t-60.5 18.5q38 34 62.5 75.5t24.5 68.5v117q0 62 19 104t50.5 62t67.5 20q65 0 102.5 -55t37.5 -137q0 -53 -17 -108t-50 -104l19 12q32 20 47 37t12 46h2zM431 116q35 26 50.5 63.5t15.5 74.5
q0 42 -19.5 68.5t-41.5 26.5q-8 0 -15 -5l-9 -10l-2 2l1 4v1q44 78 44 162q0 61 -21.5 114.5t-54.5 85t-64 31.5t-50.5 -35.5t-19.5 -107.5v-114q0 -30 28 -51t58 -21q-29 -25 -45 -42.5t-28.5 -44t-12.5 -62.5v-143q41 -23 97 -23q54 0 89 26zM398 868h-193l3 17h193z" />
    <glyph glyph-name="omacron" unicode="&#x14d;" horiz-adv-x="330" 
d="M200 552q44 0 72 -28.5t28 -67.5v-324l-158 -132q-39 22 -75.5 64.5t-36.5 113.5v262q0 30 -20 43l110 70v-384q0 -34 22.5 -61.5t56.5 -42.5l11 7v362q0 40 -58 40h-23l63 78h8zM260 638h-193l3 17h193z" />
    <glyph glyph-name="Ohungarumlaut" unicode="&#x150;" horiz-adv-x="585" 
d="M525 471q24 -69 24 -129q0 -59 -20.5 -102.5t-59.5 -99.5q-31 -45 -46 -75t-15 -65h-98q-33 0 -65 8v-96q0 -18 5 -43q1 -7 3 -22.5t2 -27.5q0 -25 -11 -39.5t-39 -14.5q30 51 30 147v98q-66 19 -112.5 70.5t-70 122.5t-23.5 150q0 105 42 199.5t122 147.5
q-37 -50 -58 -129t-21 -163q0 -97 30 -175t91 -115v132q0 46 -26.5 64.5t-60.5 18.5q38 34 62.5 75.5t24.5 68.5v117q0 62 19 104t50.5 62t67.5 20q65 0 102.5 -55t37.5 -137q0 -53 -17 -108t-50 -104l19 12q32 20 47 37t12 46h2zM431 116q35 26 50.5 63.5t15.5 74.5
q0 42 -19.5 68.5t-41.5 26.5q-8 0 -15 -5l-9 -10l-2 2l1 4v1q44 78 44 162q0 61 -21.5 114.5t-54.5 85t-64 31.5t-50.5 -35.5t-19.5 -107.5v-114q0 -30 28 -51t58 -21q-29 -25 -45 -42.5t-28.5 -44t-12.5 -62.5v-143q41 -23 97 -23q54 0 89 26zM237 970l15 5q21 -34 63 -56
q-15 -40 -52 -70.5t-93 -38.5q55 64 67 160zM358 970l15 5q21 -34 63 -56q-15 -40 -52 -70.5t-93 -38.5q55 64 67 160z" />
    <glyph glyph-name="ohungarumlaut" unicode="&#x151;" horiz-adv-x="330" 
d="M200 552q44 0 72 -28.5t28 -67.5v-324l-158 -132q-39 22 -75.5 64.5t-36.5 113.5v262q0 30 -20 43l110 70v-384q0 -34 22.5 -61.5t56.5 -42.5l11 7v362q0 40 -58 40h-23l63 78h8zM99 740l15 5q21 -34 63 -56q-15 -40 -52 -70.5t-93 -38.5q55 64 67 160zM220 740l15 5
q21 -34 63 -56q-15 -40 -52 -70.5t-93 -38.5q55 64 67 160z" />
    <glyph glyph-name="OE" unicode="&#x152;" horiz-adv-x="1050" 
d="M1006 480q24 -69 24 -129q0 -59 -20.5 -102.5t-59.5 -99.5q-31 -45 -46 -75t-15 -65h-191q-82 0 -135 43.5t-74 116.5l-21 -31q-31 -44 -45.5 -74t-14.5 -64h-98q-33 0 -65 8v-96q0 -18 5 -43q1 -7 3 -22.5t2 -27.5q0 -25 -11 -39.5t-39 -14.5q30 51 30 147v98
q-66 19 -112.5 70.5t-70 122.5t-23.5 150q0 105 42 199.5t122 147.5q-37 -50 -58 -129t-21 -163q0 -97 30 -175t91 -115v132q0 46 -26.5 64.5t-60.5 18.5q38 34 62.5 75.5t24.5 68.5v117q0 62 19 104t50.5 62t67.5 20q65 0 102.5 -55t37.5 -137q0 -53 -17 -108t-50 -104
q6 5 20 13q23 14 35 26q14 38 23 56v0q44 93 120 154q-45 -61 -69.5 -134t-24.5 -144q0 -69 24.5 -125.5t74.5 -89.5t124 -33h51q54 0 89 26t50.5 63.5t15.5 74.5q0 42 -19.5 68.5t-41.5 26.5q-15 0 -24 -15l-2 2q5 15 17.5 26t35.5 26q33 20 48 37t12 46h2zM641 471
q0 106 48.5 172t146.5 66h94q45 0 73 13.5t36 48.5l1 -1q0 -42 -5 -73.5t-30.5 -59.5t-80.5 -28h-131q-76 0 -109 -42t-33 -96h-10zM433 117.5q35 27.5 51 69.5q-8 42 -8 81q0 25 3 52q-9 14 -20.5 21.5t-22.5 7.5q-8 0 -15 -5l-9 -10l-2 2l1 4v1q44 78 44 162
q0 61 -21.5 114.5t-54.5 85t-64 31.5t-50.5 -35.5t-19.5 -107.5v-114q0 -30 28 -51t58 -21q-29 -25 -45 -42.5t-28.5 -44t-12.5 -62.5v-143q41 -23 97 -23t91 27.5zM863 519q32 0 49.5 14.5t23.5 47.5h2q0 -14 1 -22l1 -33q0 -47 -20 -77t-78 -30h-55q-56 0 -79.5 -2
t-40 -13t-16.5 -38h-10q0 90 39 121.5t107 31.5h76z" />
    <glyph glyph-name="oe" unicode="&#x153;" horiz-adv-x="484" 
d="M142 0q-26 17 -48.5 36t-43 55.5t-20.5 86.5v262q0 30 -20 43l110 70v-384q0 -34 22.5 -61.5t56.5 -42.5l11 7v362q0 40 -58 40h-23l63 78h8q30 0 53 -14t36 -37l133 49l52 -185q-35 -24 -82 -84.5t-65 -105.5l-20 8q16 31 35.5 59.5t51.5 65.5l-53 192l-41 -16v-322
q0 -28 35.5 -52.5t90.5 -39.5l34 38l8 -7l-85 -101l-55 19q-54 19 -90 61z" />
    <glyph glyph-name="Racute" unicode="&#x154;" horiz-adv-x="656" 
d="M870.5 -64.5q5.5 -7.5 5.5 -18.5q0 -19 -18.5 -43t-46.5 -41t-54 -17q-37 0 -72.5 38.5t-66 95.5t-77.5 156q-7 14 -34 70.5t-52 101.5q0 -70 36 -86q-15 -14 -25.5 -39.5t-10.5 -54.5v-275q0 -18 5 -43q1 -7 3 -22.5t2 -27.5q0 -25 -11 -39.5t-39 -14.5q30 51 30 147
v268q0 26 -12 40t-31 16q24 26 33.5 52.5t9.5 79.5v17q-40 69 -76 107l-1 -251v-17q0 -24 7 -40t23 -31q-15 -10 -40 -44t-47.5 -89t-30.5 -124h-2v654q-12 3 -25 3q-20 0 -36 -28t-25.5 -72t-9.5 -89q0 -43 9 -76q2 -6 2 -9q0 -9 -6 -15t-15 -6t-16 6.5t-8 19.5q-1 8 -1 27
q0 50 14.5 109t44 106t72.5 63v69q0 64 -15 105.5t-38 60t-49 18.5q-25 0 -43 -17t-18 -42q0 -17 8 -40t24 -57q17 -37 24.5 -58t7.5 -38q0 -34 -25.5 -73t-64 -65t-76.5 -26q-21 0 -31.5 8.5t-10.5 21.5q0 16 15 30t35 14q-12 -8 -12 -17q0 -11 17 -20.5t38 -9.5
q19 0 26.5 10t7.5 28q0 28 -21 95q-12 41 -17.5 63t-5.5 41q0 49 26.5 89t68 63t84.5 23q40 0 71 -29t48 -76.5t17 -101.5v-29q8 25 28.5 57t47.5 62v102q0 39 21.5 64.5t52 39.5t79.5 30q52 17 76 30.5t24 38.5q0 14 -7 27h1q23 -23 23 -59t-21.5 -60.5t-51.5 -38.5
t-79 -30q-54 -17 -81 -33t-27 -42v-58q41 42 79 67q1 -16 11 -37t30 -54q30 -51 46.5 -89t16.5 -77q0 -90 -108 -157q34 -61 88 -176q45 -96 75 -151.5t65.5 -92.5t74.5 -37q9 0 15 5.5t6 13.5q0 6 -9 18t-9 22q0 8 5 13t13 5q11 0 16.5 -7.5zM548.5 479q-15.5 33 -48.5 87
q-14 23 -27 45.5t-18 38.5v-218q37 -41 68 -95q41 31 41 77q0 32 -15.5 65zM369 496q39 -16 76 -53v195q-22 -27 -43 -65t-33 -71v-6zM364 969l15 5q21 -34 63 -56q-15 -40 -52 -70.5t-93 -38.5q55 64 67 160z" />
    <glyph glyph-name="racute" unicode="&#x155;" horiz-adv-x="282" 
d="M291 560.5q9 -3.5 26 -16.5q-25 -12 -38 -37.5t-13 -55.5q-12 4 -26 4q-31 0 -58.5 -21.5t-44 -59.5t-16.5 -86v-156q0 -14 10.5 -29t26.5 -20l22 25l8 -7l-82 -101q-46 35 -60.5 65.5t-14.5 66.5v305q0 30 -20 43l110 70v-194q11 53 34.5 101t53.5 77.5t57 29.5
q16 0 25 -3.5zM150 760l15 5q21 -34 63 -56q-15 -40 -52 -70.5t-93 -38.5q55 64 67 160z" />
    <glyph glyph-name="uni0156" unicode="&#x156;" horiz-adv-x="656" 
d="M870.5 -64.5q5.5 -7.5 5.5 -18.5q0 -19 -18.5 -43t-46.5 -41t-54 -17q-37 0 -72.5 38.5t-66 95.5t-77.5 156q-7 14 -34 70.5t-52 101.5q0 -70 36 -86q-15 -14 -25.5 -39.5t-10.5 -54.5v-28q34 -57 34 -117q0 -61 -34 -110v-20q0 -18 5 -43q1 -7 3 -22.5t2 -27.5
q0 -25 -11 -39.5t-39 -14.5q30 51 30 147v7q-29 -35 -69 -49v3q26 13 40 40.5t14 59.5q0 34 -15 65t-44 53v9q18 3 39.5 19.5t34.5 35.5v25q0 26 -12 40t-31 16q24 26 33.5 52.5t9.5 79.5v17q-40 69 -76 107l-1 -251v-17q0 -24 7 -40t23 -31q-15 -10 -40 -44t-47.5 -89
t-30.5 -124h-2v654q-12 3 -25 3q-20 0 -36 -28t-25.5 -72t-9.5 -89q0 -43 9 -76q2 -6 2 -9q0 -9 -6 -15t-15 -6t-16 6.5t-8 19.5q-1 8 -1 27q0 50 14.5 109t44 106t72.5 63v69q0 64 -15 105.5t-38 60t-49 18.5q-25 0 -43 -17t-18 -42q0 -17 8 -40t24 -57q17 -37 24.5 -58
t7.5 -38q0 -34 -25.5 -73t-64 -65t-76.5 -26q-21 0 -31.5 8.5t-10.5 21.5q0 16 15 30t35 14q-12 -8 -12 -17q0 -11 17 -20.5t38 -9.5q19 0 26.5 10t7.5 28q0 28 -21 95q-12 41 -17.5 63t-5.5 41q0 49 26.5 89t68 63t84.5 23q40 0 71 -29t48 -76.5t17 -101.5v-29
q8 25 28.5 57t47.5 62v102q0 39 21.5 64.5t52 39.5t79.5 30q52 17 76 30.5t24 38.5q0 14 -7 27h1q23 -23 23 -59t-21.5 -60.5t-51.5 -38.5t-79 -30q-54 -17 -81 -33t-27 -42v-58q41 42 79 67q1 -16 11 -37t30 -54q30 -51 46.5 -89t16.5 -77q0 -90 -108 -157q34 -61 88 -176
q45 -96 75 -151.5t65.5 -92.5t74.5 -37q9 0 15 5.5t6 13.5q0 6 -9 18t-9 22q0 8 5 13t13 5q11 0 16.5 -7.5zM548.5 479q-15.5 33 -48.5 87q-14 23 -27 45.5t-18 38.5v-218q37 -41 68 -95q41 31 41 77q0 32 -15.5 65zM369 496q39 -16 76 -53v195q-22 -27 -43 -65t-33 -71v-6z
" />
    <glyph glyph-name="uni0157" unicode="&#x157;" horiz-adv-x="282" 
d="M291 560.5q9 -3.5 26 -16.5q-25 -12 -38 -37.5t-13 -55.5q-12 4 -26 4q-31 0 -58.5 -21.5t-44 -59.5t-16.5 -86v-156q0 -14 10.5 -29t26.5 -20l22 25l8 -7l-82 -101q-46 35 -60.5 65.5t-14.5 66.5v305q0 30 -20 43l110 70v-194q11 53 34.5 101t53.5 77.5t57 29.5
q16 0 25 -3.5zM78 -304q26 13 40 40.5t14 59.5q0 34 -15 65t-44 53v9q21 4 46 24.5t34 41.5q38 -61 38 -124q0 -60 -32.5 -107.5t-80.5 -64.5v3z" />
    <glyph glyph-name="Rcaron" unicode="&#x158;" horiz-adv-x="656" 
d="M870.5 -64.5q5.5 -7.5 5.5 -18.5q0 -19 -18.5 -43t-46.5 -41t-54 -17q-37 0 -72.5 38.5t-66 95.5t-77.5 156q-7 14 -34 70.5t-52 101.5q0 -70 36 -86q-15 -14 -25.5 -39.5t-10.5 -54.5v-275q0 -18 5 -43q1 -7 3 -22.5t2 -27.5q0 -25 -11 -39.5t-39 -14.5q30 51 30 147
v268q0 26 -12 40t-31 16q24 26 33.5 52.5t9.5 79.5v17q-40 69 -76 107l-1 -251v-17q0 -24 7 -40t23 -31q-15 -10 -40 -44t-47.5 -89t-30.5 -124h-2v654q-12 3 -25 3q-20 0 -36 -28t-25.5 -72t-9.5 -89q0 -43 9 -76q2 -6 2 -9q0 -9 -6 -15t-15 -6t-16 6.5t-8 19.5q-1 8 -1 27
q0 50 14.5 109t44 106t72.5 63v69q0 64 -15 105.5t-38 60t-49 18.5q-25 0 -43 -17t-18 -42q0 -17 8 -40t24 -57q17 -37 24.5 -58t7.5 -38q0 -34 -25.5 -73t-64 -65t-76.5 -26q-21 0 -31.5 8.5t-10.5 21.5q0 16 15 30t35 14q-12 -8 -12 -17q0 -11 17 -20.5t38 -9.5
q19 0 26.5 10t7.5 28q0 28 -21 95q-12 41 -17.5 63t-5.5 41q0 49 26.5 89t68 63t84.5 23q40 0 71 -29t48 -76.5t17 -101.5v-29q8 25 28.5 57t47.5 62v102q0 39 21.5 64.5t52 39.5t79.5 30q52 17 76 30.5t24 38.5q0 14 -7 27h1q23 -23 23 -59t-21.5 -60.5t-51.5 -38.5
t-79 -30q-54 -17 -81 -33t-27 -42v-58q41 42 79 67q1 -16 11 -37t30 -54q30 -51 46.5 -89t16.5 -77q0 -90 -108 -157q34 -61 88 -176q45 -96 75 -151.5t65.5 -92.5t74.5 -37q9 0 15 5.5t6 13.5q0 6 -9 18t-9 22q0 8 5 13t13 5q11 0 16.5 -7.5zM548.5 479q-15.5 33 -48.5 87
q-14 23 -27 45.5t-18 38.5v-218q37 -41 68 -95q41 31 41 77q0 32 -15.5 65zM369 496q39 -16 76 -53v195q-22 -27 -43 -65t-33 -71v-6zM360 804q-68 47 -102 114q43 22 63 47q0 -15 23 -51.5t43 -52.5l77 87l17 -13z" />
    <glyph glyph-name="rcaron" unicode="&#x159;" horiz-adv-x="282" 
d="M291 560.5q9 -3.5 26 -16.5q-25 -12 -38 -37.5t-13 -55.5q-12 4 -26 4q-31 0 -58.5 -21.5t-44 -59.5t-16.5 -86v-156q0 -14 10.5 -29t26.5 -20l22 25l8 -7l-82 -101q-46 35 -60.5 65.5t-14.5 66.5v305q0 30 -20 43l110 70v-194q11 53 34.5 101t53.5 77.5t57 29.5
q16 0 25 -3.5zM146 595q-68 47 -102 114q43 22 63 47q0 -15 23 -51.5t43 -52.5l77 87l17 -13z" />
    <glyph glyph-name="Sacute" unicode="&#x15a;" horiz-adv-x="626" 
d="M379 741q17 5 30 5q34 0 64.5 -24.5t30.5 -54.5q0 -13 -5.5 -24t-19.5 -31q-18 -25 -26.5 -43.5t-8.5 -44.5h-8q3 48 -13.5 89.5t-43.5 63.5v-205q49 17 79 25t56 8q70 0 70 -78v-157q0 -36 4.5 -64.5t16.5 -50.5q-79 -57 -140.5 -108.5t-85.5 -94.5v-50q0 -18 5 -43
q1 -7 3 -22.5t2 -27.5q0 -25 -11 -39.5t-39 -14.5q30 51 30 147v62q-37 41 -97.5 76t-112.5 35q-56 0 -84 -47h-7l152 217h19l-63 -83q23 5 38 5q39 0 71 -20t84 -65v88q0 26 -12 40t-31 16q24 26 33.5 52.5t9.5 79.5v98l-35 -13q-45 -18 -75 -27t-54 -9q-69 0 -65 96
q1 29 -1.5 37.5t-10 15t-12.5 12.5l94 68q64 47 97.5 69t61.5 33v102q0 39 21.5 64.5t52 39.5t79.5 30q52 17 76 30.5t24 38.5q0 14 -7 27h1q23 -23 23 -59t-21.5 -60.5t-51.5 -38.5t-79 -30q-54 -17 -81 -33t-27 -42v-66zM369 685q-18 10 -33 10q-41 0 -73.5 -30t-32.5 -78
v-108q0 -36 37 -36q30 0 102 26v216zM379 459v-101q0 -71 36 -87q-15 -14 -25.5 -39.5t-10.5 -54.5v-104q13 -12 43 -36q27 17 49.5 54.5t22.5 83.5v237q0 61 -50 61q-23 0 -65 -14zM234 890l15 5q21 -34 63 -56q-15 -40 -52 -70.5t-93 -38.5q55 64 67 160z" />
    <glyph glyph-name="sacute" unicode="&#x15b;" horiz-adv-x="325" 
d="M185 -15q-4 43 -24 76t-48 51t-55 18q-28 0 -44 -20l-4 6q29 36 29 91q0 28 -7 52.5t-16 34.5l5 5q17 -28 38.5 -49.5t53.5 -47.5q44 -36 67 -64t30 -70q28 31 28 63q0 36 -26 71t-78 87q-53 52 -80.5 89t-27.5 76q0 41 32 71.5t79 30.5q14 0 27 -3l-2 -5q-6 1 -15 1
q-26 0 -33 -14.5t-7 -39.5q0 -38 36 -82q-2 44 12.5 76t40.5 48.5t56 16.5q31 0 58 -17q-12 -6 -16 -31.5t-6 -71.5q-2 -47 -6 -60q-11 53 -31 78.5t-43 25.5q-25 0 -42 -24t-13 -54q21 -24 53 -54q56 -55 85.5 -94t34.5 -85q-11 -6 -38 -33.5t-56 -67.5t-46 -82zM172 760
l15 5q21 -34 63 -56q-15 -40 -52 -70.5t-93 -38.5q55 64 67 160z" />
    <glyph glyph-name="Scedilla" unicode="&#x15e;" horiz-adv-x="626" 
d="M379 741q17 5 30 5q34 0 64.5 -24.5t30.5 -54.5q0 -13 -5.5 -24t-19.5 -31q-18 -25 -26.5 -43.5t-8.5 -44.5h-8q3 48 -13.5 89.5t-43.5 63.5v-205q49 17 79 25t56 8q70 0 70 -78v-157q0 -36 4.5 -64.5t16.5 -50.5q-79 -57 -140.5 -108.5t-85.5 -94.5v-50q0 -18 5 -43
q1 -7 3 -22.5t2 -27.5q0 -25 -11 -39.5t-39 -14.5q30 51 30 147v62q-37 41 -97.5 76t-112.5 35q-56 0 -84 -47h-7l152 217h19l-63 -83q23 5 38 5q39 0 71 -20t84 -65v88q0 26 -12 40t-31 16q24 26 33.5 52.5t9.5 79.5v98l-35 -13q-45 -18 -75 -27t-54 -9q-69 0 -65 96
q1 29 -1.5 37.5t-10 15t-12.5 12.5l94 68q64 47 97.5 69t61.5 33v102q0 39 21.5 64.5t52 39.5t79.5 30q52 17 76 30.5t24 38.5q0 14 -7 27h1q23 -23 23 -59t-21.5 -60.5t-51.5 -38.5t-79 -30q-54 -17 -81 -33t-27 -42v-66zM369 685q-18 10 -33 10q-41 0 -73.5 -30t-32.5 -78
v-108q0 -36 37 -36q30 0 102 26v216zM379 459v-101q0 -71 36 -87q-15 -14 -25.5 -39.5t-10.5 -54.5v-104q13 -12 43 -36q27 17 49.5 54.5t22.5 83.5v237q0 61 -50 61q-23 0 -65 -14zM428 -230q44 28 44 68q0 23 -14.5 46.5t-42.5 45.5l70 70h17l-17 -20q47 -51 47 -92
q0 -59 -96 -122z" />
    <glyph glyph-name="scedilla" unicode="&#x15f;" horiz-adv-x="325" 
d="M292.5 138q-24.5 -24 -51.5 -59t-45 -73l-1 -1l-9 -21l-1 1q0 5 -1 7l-5 -6q47 -51 47 -92q0 -59 -96 -122l-8 4q44 28 44 68q0 23 -14.5 46.5t-42.5 45.5l70 70h3q-8 37 -28 65t-46 43.5t-50 15.5q-28 0 -44 -20l-4 6q29 36 29 91q0 28 -7 52.5t-16 34.5l5 5
q17 -28 38.5 -49.5t53.5 -47.5q44 -36 67 -64t30 -70q28 31 28 63q0 36 -26 71t-78 87q-53 52 -80.5 89t-27.5 76q0 41 32 71.5t79 30.5q14 0 27 -3l-2 -5q-6 1 -15 1q-26 0 -33 -14.5t-7 -39.5q0 -38 36 -82q-2 44 12.5 76t40.5 48.5t56 16.5q31 0 58 -17q-12 -6 -16 -31.5
t-6 -71.5q-2 -47 -6 -60q-11 53 -31 78.5t-43 25.5q-25 0 -42 -24t-13 -54q21 -24 53 -54q56 -55 85.5 -94t34.5 -85q-9 -5 -33.5 -29z" />
    <glyph glyph-name="Scaron" unicode="&#x160;" horiz-adv-x="626" 
d="M379 741q17 5 30 5q34 0 64.5 -24.5t30.5 -54.5q0 -13 -5.5 -24t-19.5 -31q-18 -25 -26.5 -43.5t-8.5 -44.5h-8q3 48 -13.5 89.5t-43.5 63.5v-205q49 17 79 25t56 8q70 0 70 -78v-157q0 -36 4.5 -64.5t16.5 -50.5q-79 -57 -140.5 -108.5t-85.5 -94.5v-50q0 -18 5 -43
q1 -7 3 -22.5t2 -27.5q0 -25 -11 -39.5t-39 -14.5q30 51 30 147v62q-37 41 -97.5 76t-112.5 35q-56 0 -84 -47h-7l152 217h19l-63 -83q23 5 38 5q39 0 71 -20t84 -65v88q0 26 -12 40t-31 16q24 26 33.5 52.5t9.5 79.5v98l-35 -13q-45 -18 -75 -27t-54 -9q-69 0 -65 96
q1 29 -1.5 37.5t-10 15t-12.5 12.5l94 68q64 47 97.5 69t61.5 33v102q0 39 21.5 64.5t52 39.5t79.5 30q52 17 76 30.5t24 38.5q0 14 -7 27h1q23 -23 23 -59t-21.5 -60.5t-51.5 -38.5t-79 -30q-54 -17 -81 -33t-27 -42v-66zM369 685q-18 10 -33 10q-41 0 -73.5 -30t-32.5 -78
v-108q0 -36 37 -36q30 0 102 26v216zM379 459v-101q0 -71 36 -87q-15 -14 -25.5 -39.5t-10.5 -54.5v-104q13 -12 43 -36q27 17 49.5 54.5t22.5 83.5v237q0 61 -50 61q-23 0 -65 -14zM230 725q-68 47 -102 114q43 22 63 47q0 -15 23 -51.5t43 -52.5l77 87l17 -13z" />
    <glyph glyph-name="scaron" unicode="&#x161;" horiz-adv-x="325" 
d="M185 -15q-4 43 -24 76t-48 51t-55 18q-28 0 -44 -20l-4 6q29 36 29 91q0 28 -7 52.5t-16 34.5l5 5q17 -28 38.5 -49.5t53.5 -47.5q44 -36 67 -64t30 -70q28 31 28 63q0 36 -26 71t-78 87q-53 52 -80.5 89t-27.5 76q0 41 32 71.5t79 30.5q14 0 27 -3l-2 -5q-6 1 -15 1
q-26 0 -33 -14.5t-7 -39.5q0 -38 36 -82q-2 44 12.5 76t40.5 48.5t56 16.5q31 0 58 -17q-12 -6 -16 -31.5t-6 -71.5q-2 -47 -6 -60q-11 53 -31 78.5t-43 25.5q-25 0 -42 -24t-13 -54q21 -24 53 -54q56 -55 85.5 -94t34.5 -85q-11 -6 -38 -33.5t-56 -67.5t-46 -82zM168 595
q-68 47 -102 114q43 22 63 47q0 -15 23 -51.5t43 -52.5l77 87l17 -13z" />
    <glyph glyph-name="uni0162" unicode="&#x162;" horiz-adv-x="507" 
d="M724.5 828q-47.5 -49 -108 -90t-163.5 -104v-853h-2q-8 69 -30.5 124t-47.5 89t-40 44q16 15 23 31t7 40v468q-102 -64 -157.5 -110.5t-55.5 -90.5q0 -50 53 -71.5t110 -21.5q15 0 20 1q-32 -26 -32 -67q0 -18 3 -36q1 -6 2 -18.5t1 -21.5q0 -37 -17 -66h-1q1 8 1 24
q0 26 -6 50q-11 41 -36 74.5t-56.5 53t-61.5 19.5q-20 0 -31.5 -10t-11.5 -24q0 -3 2 -11l-1 -2q-28 17 -38.5 34t-10.5 38q0 47 43 92t151.5 114.5t355.5 212.5v1l-73 -22q-150 -45 -251 -83t-176.5 -92t-71.5 -119h-2q-5 14 -5 34q0 32 14.5 62.5t40.5 69.5q19 28 29 47.5
t10 35.5q46 15 102.5 28.5t146.5 32.5q132 27 213 48.5t136.5 54.5t55.5 78q0 13 -8 25t-19 19q-22 15 -22 30q0 7 5 11.5t14 4.5q17 -1 30.5 -27t13.5 -58q0 -44 -47.5 -93zM298 -274q44 28 44 68q0 23 -14.5 46.5t-42.5 45.5l70 70h17l-17 -20q47 -51 47 -92
q0 -59 -96 -122z" />
    <glyph glyph-name="uni0163" unicode="&#x163;" horiz-adv-x="232" 
d="M92 -217q32 35 32 66q0 37 -45 85l74 70q-40 17 -75 57t-35 117v295h-66l61 77h5v36q0 16 -3.5 26t-17.5 19l108 72v-153h75l-69 -77h-6v-287q0 -30 17.5 -66.5t68.5 -42.5l28 32l8 -7l-107 -123q45 -42 45 -91q0 -34 -22.5 -64.5t-67.5 -53.5z" />
    <glyph glyph-name="Tcaron" unicode="&#x164;" horiz-adv-x="507" 
d="M724.5 828q-47.5 -49 -108 -90t-163.5 -104v-853h-2q-8 69 -30.5 124t-47.5 89t-40 44q16 15 23 31t7 40v468q-102 -64 -157.5 -110.5t-55.5 -90.5q0 -50 53 -71.5t110 -21.5q15 0 20 1q-32 -26 -32 -67q0 -18 3 -36q1 -6 2 -18.5t1 -21.5q0 -37 -17 -66h-1q1 8 1 24
q0 26 -6 50q-11 41 -36 74.5t-56.5 53t-61.5 19.5q-20 0 -31.5 -10t-11.5 -24q0 -3 2 -11l-1 -2q-28 17 -38.5 34t-10.5 38q0 47 43 92t151.5 114.5t355.5 212.5v1l-73 -22q-150 -45 -251 -83t-176.5 -92t-71.5 -119h-2q-5 14 -5 34q0 32 14.5 62.5t40.5 69.5q19 28 29 47.5
t10 35.5q46 15 102.5 28.5t146.5 32.5q132 27 213 48.5t136.5 54.5t55.5 78q0 13 -8 25t-19 19q-22 15 -22 30q0 7 5 11.5t14 4.5q17 -1 30.5 -27t13.5 -58q0 -44 -47.5 -93zM411 795q-68 47 -102 114q43 22 63 47q0 -15 23 -51.5t43 -52.5l77 87l17 -13z" />
    <glyph glyph-name="tcaron" unicode="&#x165;" horiz-adv-x="346" 
d="M166 0q-3 2 -35 16t-60 57.5t-28 104.5v295h-66l53 77h13v38q0 30 -20 43l110 70v-150h75l-64 -78h-11v-287q0 -99 86 -109l28 32l8 -7zM203 445q26 13 40 40.5t14 59.5q0 34 -15 65t-44 53v9q21 4 46 24.5t34 41.5q38 -61 38 -124q0 -60 -32.5 -107.5t-80.5 -64.5v3z
" />
    <glyph glyph-name="Tbar" unicode="&#x166;" horiz-adv-x="507" 
d="M724.5 828q-47.5 -49 -108 -90t-163.5 -104v-205h77l-15 -17h-62v-631h-2q-8 69 -30.5 124t-47.5 89t-40 44q16 15 23 31t7 40v303h-64l15 17h49v148q-102 -64 -157.5 -110.5t-55.5 -90.5q0 -50 53 -71.5t110 -21.5q15 0 20 1q-32 -26 -32 -67q0 -18 3 -36q1 -6 2 -18.5
t1 -21.5q0 -37 -17 -66h-1q1 8 1 24q0 26 -6 50q-11 41 -36 74.5t-56.5 53t-61.5 19.5q-20 0 -31.5 -10t-11.5 -24q0 -3 2 -11l-1 -2q-28 17 -38.5 34t-10.5 38q0 47 43 92t151.5 114.5t355.5 212.5v1l-73 -22q-150 -45 -251 -83t-176.5 -92t-71.5 -119h-2q-5 14 -5 34
q0 32 14.5 62.5t40.5 69.5q19 28 29 47.5t10 35.5q46 15 102.5 28.5t146.5 32.5q132 27 213 48.5t136.5 54.5t55.5 78q0 13 -8 25t-19 19q-22 15 -22 30q0 7 5 11.5t14 4.5q17 -1 30.5 -27t13.5 -58q0 -44 -47.5 -93z" />
    <glyph glyph-name="tbar" unicode="&#x167;" horiz-adv-x="235" 
d="M247 109l8 -7l-89 -102q-3 2 -35 16t-60 57.5t-28 104.5v134h-54l15 17h39v144h-66l53 77h13v38q0 30 -20 43l110 70v-150h75l-64 -78h-11v-144h87l-15 -17h-72v-126q0 -99 86 -109z" />
    <glyph glyph-name="Umacron" unicode="&#x16a;" horiz-adv-x="675" 
d="M666 108l8 -7l-82 -101q-41 31 -56.5 59t-18.5 58q-13 -52 -39.5 -81.5t-51 -40.5t-34.5 -11q-39 0 -66.5 13t-45.5 31.5t-40 48.5t-38 44t-38 14q-21 0 -32 -10t-11 -24q0 -16 13 -27q-14 -11 -29 -11q-14 0 -23.5 8t-9.5 18q0 26 38 39.5t79 13.5q92 23 138.5 96.5
t46.5 166.5q0 65 -22 124t-61.5 95.5t-90.5 36.5q-16 0 -29 -16.5t-13 -30.5t6.5 -33t21.5 -53q16 -36 24 -60t8 -43q0 -34 -25.5 -73t-64 -65t-76.5 -26q-21 0 -31.5 8.5t-10.5 21.5q0 16 15 30t35 14q-12 -8 -12 -17q0 -11 17 -20.5t38 -9.5q35 0 35 38q0 17 -5.5 39.5
t-16.5 58.5q-23 71 -23 101q0 43 31 83.5t74.5 66t73.5 25.5q58 0 101.5 -31.5t66.5 -84t23 -114.5q0 -66 -27 -131t-82.5 -118t-137.5 -81q39 -5 70 -19.5t67 -38.5q30 -19 47.5 -27.5t35.5 -8.5q40 0 58.5 37t22.5 112v397q0 29 -7.5 49t-19.5 30l133 108
q-6 -11 -11 -44.5t-5 -68.5v-534q0 -14 10.5 -29t26.5 -20zM450 788h-193l3 17h193z" />
    <glyph glyph-name="umacron" unicode="&#x16b;" horiz-adv-x="384" 
d="M386 108l8 -7l-82 -101q-61 47 -71 96q-44 -63 -84 -96q-31 0 -60.5 17.5t-48 47.5t-18.5 67v305q0 30 -20 43l110 70v-400q0 -40 26 -64t56 -24q23 28 35 63v7v305q0 30 -20 43l110 70v-418q0 -14 10.5 -29t26.5 -20zM287 638h-193l3 17h193z" />
    <glyph glyph-name="Uring" unicode="&#x16e;" horiz-adv-x="675" 
d="M666 108l8 -7l-82 -101q-41 31 -56.5 59t-18.5 58q-13 -52 -39.5 -81.5t-51 -40.5t-34.5 -11q-39 0 -66.5 13t-45.5 31.5t-40 48.5t-38 44t-38 14q-21 0 -32 -10t-11 -24q0 -16 13 -27q-14 -11 -29 -11q-14 0 -23.5 8t-9.5 18q0 26 38 39.5t79 13.5q92 23 138.5 96.5
t46.5 166.5q0 65 -22 124t-61.5 95.5t-90.5 36.5q-16 0 -29 -16.5t-13 -30.5t6.5 -33t21.5 -53q16 -36 24 -60t8 -43q0 -34 -25.5 -73t-64 -65t-76.5 -26q-21 0 -31.5 8.5t-10.5 21.5q0 16 15 30t35 14q-12 -8 -12 -17q0 -11 17 -20.5t38 -9.5q35 0 35 38q0 17 -5.5 39.5
t-16.5 58.5q-23 71 -23 101q0 43 31 83.5t74.5 66t73.5 25.5q58 0 101.5 -31.5t66.5 -84t23 -114.5q0 -66 -27 -131t-82.5 -118t-137.5 -81q39 -5 70 -19.5t67 -38.5q30 -19 47.5 -27.5t35.5 -8.5q40 0 58.5 37t22.5 112v397q0 29 -7.5 49t-19.5 30l133 108
q-6 -11 -11 -44.5t-5 -68.5v-534q0 -14 10.5 -29t26.5 -20zM271 792q0 22 23.5 49t68.5 60q36 -15 55 -37.5t19 -48.5q0 -27 -20 -51.5t-59 -40.5q-87 29 -87 69zM397 794q0 25 -15 47.5t-38 31.5q-14 -10 -21.5 -25t-7.5 -31q0 -25 17.5 -44.5t48.5 -21.5q16 17 16 43z" />
    <glyph glyph-name="uring" unicode="&#x16f;" horiz-adv-x="384" 
d="M386 108l8 -7l-82 -101q-61 47 -71 96q-44 -63 -84 -96q-31 0 -60.5 17.5t-48 47.5t-18.5 67v305q0 30 -20 43l110 70v-400q0 -40 26 -64t56 -24q23 28 35 63v7v305q0 30 -20 43l110 70v-418q0 -14 10.5 -29t26.5 -20zM108 642q0 22 23.5 49t68.5 60q36 -15 55 -37.5
t19 -48.5q0 -27 -20 -51.5t-59 -40.5q-87 29 -87 69zM234 644q0 25 -15 47.5t-38 31.5q-14 -10 -21.5 -25t-7.5 -31q0 -25 17.5 -44.5t48.5 -21.5q16 17 16 43z" />
    <glyph glyph-name="Uhungarumlaut" unicode="&#x170;" horiz-adv-x="675" 
d="M666 108l8 -7l-82 -101q-41 31 -56.5 59t-18.5 58q-13 -52 -39.5 -81.5t-51 -40.5t-34.5 -11q-39 0 -66.5 13t-45.5 31.5t-40 48.5t-38 44t-38 14q-21 0 -32 -10t-11 -24q0 -16 13 -27q-14 -11 -29 -11q-14 0 -23.5 8t-9.5 18q0 26 38 39.5t79 13.5q92 23 138.5 96.5
t46.5 166.5q0 65 -22 124t-61.5 95.5t-90.5 36.5q-16 0 -29 -16.5t-13 -30.5t6.5 -33t21.5 -53q16 -36 24 -60t8 -43q0 -34 -25.5 -73t-64 -65t-76.5 -26q-21 0 -31.5 8.5t-10.5 21.5q0 16 15 30t35 14q-12 -8 -12 -17q0 -11 17 -20.5t38 -9.5q35 0 35 38q0 17 -5.5 39.5
t-16.5 58.5q-23 71 -23 101q0 43 31 83.5t74.5 66t73.5 25.5q58 0 101.5 -31.5t66.5 -84t23 -114.5q0 -66 -27 -131t-82.5 -118t-137.5 -81q39 -5 70 -19.5t67 -38.5q30 -19 47.5 -27.5t35.5 -8.5q40 0 58.5 37t22.5 112v397q0 29 -7.5 49t-19.5 30l133 108
q-6 -11 -11 -44.5t-5 -68.5v-534q0 -14 10.5 -29t26.5 -20zM289 890l15 5q21 -34 63 -56q-15 -40 -52 -70.5t-93 -38.5q55 64 67 160zM410 890l15 5q21 -34 63 -56q-15 -40 -52 -70.5t-93 -38.5q55 64 67 160z" />
    <glyph glyph-name="uhungarumlaut" unicode="&#x171;" horiz-adv-x="384" 
d="M386 108l8 -7l-82 -101q-61 47 -71 96q-44 -63 -84 -96q-31 0 -60.5 17.5t-48 47.5t-18.5 67v305q0 30 -20 43l110 70v-400q0 -40 26 -64t56 -24q23 28 35 63v7v305q0 30 -20 43l110 70v-418q0 -14 10.5 -29t26.5 -20zM126 740l15 5q21 -34 63 -56q-15 -40 -52 -70.5
t-93 -38.5q55 64 67 160zM247 740l15 5q21 -34 63 -56q-15 -40 -52 -70.5t-93 -38.5q55 64 67 160z" />
    <glyph glyph-name="Uogonek" unicode="&#x172;" horiz-adv-x="675" 
d="M598 -110.5q13 -25.5 39 -36.5l-70 -40q-31 32 -31 83q0 53 43 114q-33 27 -46 53t-16 54q-13 -52 -39.5 -81.5t-51 -40.5t-34.5 -11q-39 0 -66.5 13t-45.5 31.5t-40 48.5t-38 44t-38 14q-21 0 -32 -10t-11 -24q0 -16 13 -27q-14 -11 -29 -11q-14 0 -23.5 8t-9.5 18
q0 26 38 39.5t79 13.5q92 23 138.5 96.5t46.5 166.5q0 65 -22 124t-61.5 95.5t-90.5 36.5q-16 0 -29 -16.5t-13 -30.5t6.5 -33t21.5 -53q16 -36 24 -60t8 -43q0 -34 -25.5 -73t-64 -65t-76.5 -26q-21 0 -31.5 8.5t-10.5 21.5q0 16 15 30t35 14q-12 -8 -12 -17
q0 -11 17 -20.5t38 -9.5q35 0 35 38q0 17 -5.5 39.5t-16.5 58.5q-23 71 -23 101q0 43 31 83.5t74.5 66t73.5 25.5q58 0 101.5 -31.5t66.5 -84t23 -114.5q0 -66 -27 -131t-82.5 -118t-137.5 -81q39 -5 70 -19.5t67 -38.5q30 -19 47.5 -27.5t35.5 -8.5q40 0 58.5 37t22.5 112
v397q0 29 -7.5 49t-19.5 30l133 108q-6 -11 -11 -44.5t-5 -68.5v-534q0 -14 10.5 -29t26.5 -20l22 25l8 -7l-75 -92q-14 -28 -14 -63q0 -31 13 -56.5z" />
    <glyph glyph-name="uogonek" unicode="&#x173;" horiz-adv-x="384" 
d="M302 -133.5q13 -25.5 39 -36.5l-70 -40q-31 32 -31 83q0 34 17 70t43 66q-49 41 -59 87q-44 -63 -84 -96q-31 0 -60.5 17.5t-48 47.5t-18.5 67v305q0 30 -20 43l110 70v-400q0 -40 26 -64t56 -24q23 28 35 63v7v305q0 30 -20 43l110 70v-418q0 -14 10.5 -29t26.5 -20
l22 25l8 -7l-81 -100q-24 -33 -24 -78q0 -31 13 -56.5z" />
    <glyph glyph-name="Wcircumflex" unicode="&#x174;" horiz-adv-x="942" 
d="M921 691q-53 -5 -75.5 -32t-22.5 -73q0 -35 10 -78.5t31 -113.5q23 -77 35.5 -130.5t12.5 -101.5q0 -56 -25.5 -96t-60.5 -60.5t-63 -20.5q-31 0 -51.5 6.5t-44.5 18.5q-15 8 -26.5 12t-24.5 4q-16 0 -39 -9q-13 -8 -31 -16l-2 -1h-1q-39 -15 -75 -15q-49 0 -90 21
t-93 59q-35 25 -55 36.5t-38 11.5q-24 0 -43 -27t-36 -86h-16q22 70 52.5 114.5t78.5 96.5q38 40 59.5 69.5t35.5 73.5t14 106q0 79 -39.5 130t-108.5 51q-31 0 -31 -27q0 -21 8.5 -45.5t25.5 -65.5q13 -29 19.5 -47t6.5 -31q0 -34 -25.5 -73t-64 -65t-76.5 -26
q-21 0 -31.5 8.5t-10.5 21.5q0 16 15 30t35 14q-3 -6 -3 -12q0 -14 13.5 -24.5t32.5 -10.5q35 0 35 38q0 23 -6 48t-18 60q-11 33 -16 53.5t-5 37.5q0 43 31 83.5t74.5 66t73.5 25.5q74 0 117 -53.5t43 -135.5q0 -84 -48.5 -171.5t-143.5 -150.5q42 3 83 -25t99 -83
q40 -37 62.5 -54t39.5 -17q59 0 59 81q0 44 -12 152h-92q-12 0 -18.5 -5.5t-6.5 -13.5q0 -7 3 -13h-4q-16 13 -16 34q0 20 15 36.5t37 16.5h76l-6 51q-17 133 -26 219t-9 139q0 62 24.5 96t81.5 34q23 0 53 -6v-4q-56 -7 -56 -91q0 -45 7.5 -136t8.5 -109q3 -35 7 -84
t8 -109h41q13 0 21 8t8 20q0 10 -4 18h3q16 -20 16 -44t-14 -40.5t-35 -16.5h-33q3 -46 3 -81q0 -60 -39 -106q28 11 51 11q19 0 33.5 -6t35.5 -19q19 -11 31 -16.5t27 -5.5q44 0 44 52q0 30 -11.5 73t-33.5 112q-30 93 -46.5 158t-16.5 121q0 78 41.5 121.5t140.5 43.5v-10
zM619.5 924q-18.5 32 -36.5 46l-82 -87l-11 9l121 131q67 -47 102 -114q-43 -22 -63 -47q-12 30 -30.5 62z" />
    <glyph glyph-name="wcircumflex" unicode="&#x175;" horiz-adv-x="500" 
d="M475 550v-306q0 -61 -27.5 -112t-64.5 -84t-68 -48q-52 31 -82 86l-74 -86q-47 13 -87 55.5t-40 116.5v265q0 30 -20 43l110 70v-355q0 -89 73 -129l31 33q-22 49 -22 100v238q0 30 -20 43l110 70v-360q0 -29 19 -71t52 -67q20 27 20 93v292q0 30 -20 43zM267.5 657
q-18.5 32 -36.5 46l-82 -87l-11 9l121 131q67 -47 102 -114q-43 -22 -63 -47q-12 30 -30.5 62z" />
    <glyph glyph-name="Ycircumflex" unicode="&#x176;" horiz-adv-x="633" 
d="M607 703v-645q0 -273 -139 -273q-53 0 -104 23t-115 63q-43 26 -64 36.5t-38 10.5q-31 0 -38 -51l-10 1q27 132 91 132q32 0 64.5 -26.5t79.5 -77.5q44 -47 71.5 -69.5t52.5 -22.5q32 0 45.5 72t13.5 160v72q-17 -71 -55.5 -97t-73.5 -26q-34 0 -61 20t-63 59
q-15 17 -32 33t-32 25q-26 -19 -49 -33l-1 2q20 15 42 35q-20 10 -38 10q-22 0 -34 -8t-12 -19q0 -10 9.5 -17t25.5 -7q-16 -10 -38 -10t-38 9.5t-16 25.5q0 15 20 25.5t61 10.5q34 0 71 -8q70 74 108.5 177.5t38.5 185.5q0 69 -21 115t-52.5 67.5t-63.5 21.5
q-28 0 -46.5 -15t-18.5 -40q0 -19 9 -40.5t27 -54.5t26 -52.5t8 -37.5q0 -34 -25.5 -73t-64 -65t-76.5 -26q-21 0 -31.5 8.5t-10.5 21.5q0 16 15 30t35 14q-12 -8 -12 -17q0 -11 17 -20.5t38 -9.5q35 0 35 38q0 17 -5.5 39.5t-16.5 58.5q-23 71 -23 101q0 54 25 92.5
t65.5 58.5t86.5 20q45 0 83.5 -19t62.5 -57t24 -92q0 -63 -24 -140.5t-74.5 -155t-125.5 -137.5q33 -9 63.5 -21.5t69.5 -31.5q38 -18 60 -26.5t39 -8.5q26 0 45.5 39t23.5 109v395q0 30 -20 43zM501.5 796q-18.5 32 -36.5 46l-82 -87l-11 9l121 131q67 -47 102 -114
q-43 -22 -63 -47q-12 30 -30.5 62z" />
    <glyph glyph-name="ycircumflex" unicode="&#x177;" horiz-adv-x="347" 
d="M88.5 -90.5q-33.5 13.5 -63.5 13.5q-15 0 -25 -2l70 66q52 0 90 -27t59 -57q5 3 6 15.5t1 39.5v134l-79 -75q-70 47 -92 79q-4 -3 -8 -7t-10 -6.5t-16 -6.5q10 15 12.5 33.5t2.5 52.5v275q0 30 -20 43l110 70v-339q0 -30 18 -64t57 -62l25 24v328q0 30 -20 43l110 70
v-281q1 -28 5 -45t20 -24l-25 -26v-148q0 -56 -48 -99.5t-117 -67.5q-29 37 -62.5 50.5zM226.5 637q-18.5 32 -36.5 46l-82 -87l-11 9l121 131q67 -47 102 -114q-43 -22 -63 -47q-12 30 -30.5 62z" />
    <glyph glyph-name="Ydieresis" unicode="&#x178;" horiz-adv-x="633" 
d="M607 703v-645q0 -273 -139 -273q-53 0 -104 23t-115 63q-43 26 -64 36.5t-38 10.5q-31 0 -38 -51l-10 1q27 132 91 132q32 0 64.5 -26.5t79.5 -77.5q44 -47 71.5 -69.5t52.5 -22.5q32 0 45.5 72t13.5 160v72q-17 -71 -55.5 -97t-73.5 -26q-34 0 -61 20t-63 59
q-15 17 -32 33t-32 25q-26 -19 -49 -33l-1 2q20 15 42 35q-20 10 -38 10q-22 0 -34 -8t-12 -19q0 -10 9.5 -17t25.5 -7q-16 -10 -38 -10t-38 9.5t-16 25.5q0 15 20 25.5t61 10.5q34 0 71 -8q70 74 108.5 177.5t38.5 185.5q0 69 -21 115t-52.5 67.5t-63.5 21.5
q-28 0 -46.5 -15t-18.5 -40q0 -19 9 -40.5t27 -54.5t26 -52.5t8 -37.5q0 -34 -25.5 -73t-64 -65t-76.5 -26q-21 0 -31.5 8.5t-10.5 21.5q0 16 15 30t35 14q-12 -8 -12 -17q0 -11 17 -20.5t38 -9.5q35 0 35 38q0 17 -5.5 39.5t-16.5 58.5q-23 71 -23 101q0 54 25 92.5
t65.5 58.5t86.5 20q45 0 83.5 -19t62.5 -57t24 -92q0 -63 -24 -140.5t-74.5 -155t-125.5 -137.5q33 -9 63.5 -21.5t69.5 -31.5q38 -18 60 -26.5t39 -8.5q26 0 45.5 39t23.5 109v395q0 30 -20 43zM392.5 766.5q-16.5 17.5 -34.5 29.5q49 21 77 82q5 -14 21 -32t29 -25
q-24 -17 -41 -34t-34 -50q-1 12 -17.5 29.5zM506.5 766.5q-16.5 17.5 -34.5 29.5q32 14 52 39.5t25 42.5q5 -14 21 -32t29 -25q-24 -16 -41 -33.5t-34 -50.5q-1 12 -17.5 29.5z" />
    <glyph glyph-name="Zacute" unicode="&#x179;" horiz-adv-x="453" 
d="M429 122q-5 -56 -26.5 -96t-68.5 -40q-22 0 -43.5 8.5t-52.5 25.5q-39 20 -63 29t-52 9q-53 0 -83 -50l-4 -8h-20l174 312q-50 16 -77 16q-54 0 -59 -61h-7q0 80 24.5 113t68.5 33q19 0 40.5 -5t54.5 -15l113 203q-42 -35 -91 -35q-37 0 -64.5 16.5t-57.5 45.5
q-19 18 -30.5 26t-22.5 8q-12 0 -20.5 -11.5t-8.5 -35.5q0 -26 8 -55h-10q-10 28 -10 64q0 48 20 83t62 35q26 0 53.5 -10.5t67.5 -30.5q39 -19 60.5 -27.5t41.5 -8.5q37 0 59 37l2 4h20l-17 -31l-158 -283q23 -8 47 -14t40 -6q26 0 41 16.5t16 55.5q7 -23 7 -52
q0 -45 -20.5 -77.5t-67.5 -32.5q-18 0 -40.5 6.5t-67.5 22.5l-108 -192q35 29 79 29q30 0 58 -10.5t71 -31.5q29 -14 46 -21t30 -7q16 0 25 11.5t13 37.5h8zM297 890l15 5q21 -34 63 -56q-15 -40 -52 -70.5t-93 -38.5q55 64 67 160z" />
    <glyph glyph-name="zacute" unicode="&#x17a;" horiz-adv-x="347" 
d="M0 89q6 38 36 82t104 135q13 15 67 83v71h-133q0 24 -19 51.5t-44 39.5h138q28 -1 48.5 -21.5t20.5 -55.5v-73q35 48 35 86q0 29 -17 46.5t-37 18.5v1q32 0 63 -12t51 -36t20 -58q0 -37 -24 -73t-76 -96q-60 -71 -92.5 -120t-40.5 -107l16 -20q45 70 104.5 123.5
t111.5 77.5q-13 -21 -13 -54q0 -57 37 -99q-38 8 -56 8q-36 0 -74 -23t-85 -82q-63 78 -141 107zM166 760l15 5q21 -34 63 -56q-15 -40 -52 -70.5t-93 -38.5q55 64 67 160z" />
    <glyph glyph-name="Zdotaccent" unicode="&#x17b;" horiz-adv-x="453" 
d="M429 122q-5 -56 -26.5 -96t-68.5 -40q-22 0 -43.5 8.5t-52.5 25.5q-39 20 -63 29t-52 9q-53 0 -83 -50l-4 -8h-20l174 312q-50 16 -77 16q-54 0 -59 -61h-7q0 80 24.5 113t68.5 33q19 0 40.5 -5t54.5 -15l113 203q-42 -35 -91 -35q-37 0 -64.5 16.5t-57.5 45.5
q-19 18 -30.5 26t-22.5 8q-12 0 -20.5 -11.5t-8.5 -35.5q0 -26 8 -55h-10q-10 28 -10 64q0 48 20 83t62 35q26 0 53.5 -10.5t67.5 -30.5q39 -19 60.5 -27.5t41.5 -8.5q37 0 59 37l2 4h20l-17 -31l-158 -283q23 -8 47 -14t40 -6q26 0 41 16.5t16 55.5q7 -23 7 -52
q0 -45 -20.5 -77.5t-67.5 -32.5q-18 0 -40.5 6.5t-67.5 22.5l-108 -192q35 29 79 29q30 0 58 -10.5t71 -31.5q29 -14 46 -21t30 -7q16 0 25 11.5t13 37.5h8zM266 756q-15 17 -33 30q21 13 44 43q18 23 33 54q18 -29 29 -41q12 -13 34 -28q-23 -20 -44 -47q-14 -18 -34 -52
q-13 22 -29 41z" />
    <glyph glyph-name="zdotaccent" unicode="&#x17c;" horiz-adv-x="347" 
d="M0 89q6 38 36 82t104 135q13 15 67 83v71h-133q0 24 -19 51.5t-44 39.5h138q28 -1 48.5 -21.5t20.5 -55.5v-73q35 48 35 86q0 29 -17 46.5t-37 18.5v1q32 0 63 -12t51 -36t20 -58q0 -37 -24 -73t-76 -96q-60 -71 -92.5 -120t-40.5 -107l16 -20q45 70 104.5 123.5
t111.5 77.5q-13 -21 -13 -54q0 -57 37 -99q-38 8 -56 8q-36 0 -74 -23t-85 -82q-63 78 -141 107zM135 626q-15 17 -33 30q21 13 44 43q18 23 33 54q18 -29 29 -41q12 -13 34 -28q-23 -20 -44 -47q-14 -18 -34 -52q-13 22 -29 41z" />
    <glyph glyph-name="Zcaron" unicode="&#x17d;" horiz-adv-x="453" 
d="M429 122q-5 -56 -26.5 -96t-68.5 -40q-22 0 -43.5 8.5t-52.5 25.5q-39 20 -63 29t-52 9q-53 0 -83 -50l-4 -8h-20l174 312q-50 16 -77 16q-54 0 -59 -61h-7q0 80 24.5 113t68.5 33q19 0 40.5 -5t54.5 -15l113 203q-42 -35 -91 -35q-37 0 -64.5 16.5t-57.5 45.5
q-19 18 -30.5 26t-22.5 8q-12 0 -20.5 -11.5t-8.5 -35.5q0 -26 8 -55h-10q-10 28 -10 64q0 48 20 83t62 35q26 0 53.5 -10.5t67.5 -30.5q39 -19 60.5 -27.5t41.5 -8.5q37 0 59 37l2 4h20l-17 -31l-158 -283q23 -8 47 -14t40 -6q26 0 41 16.5t16 55.5q7 -23 7 -52
q0 -45 -20.5 -77.5t-67.5 -32.5q-18 0 -40.5 6.5t-67.5 22.5l-108 -192q35 29 79 29q30 0 58 -10.5t71 -31.5q29 -14 46 -21t30 -7q16 0 25 11.5t13 37.5h8zM293 725q-68 47 -102 114q43 22 63 47q0 -15 23 -51.5t43 -52.5l77 87l17 -13z" />
    <glyph glyph-name="zcaron" unicode="&#x17e;" horiz-adv-x="347" 
d="M0 89q6 38 36 82t104 135q13 15 67 83v71h-133q0 24 -19 51.5t-44 39.5h138q28 -1 48.5 -21.5t20.5 -55.5v-73q35 48 35 86q0 29 -17 46.5t-37 18.5v1q32 0 63 -12t51 -36t20 -58q0 -37 -24 -73t-76 -96q-60 -71 -92.5 -120t-40.5 -107l16 -20q45 70 104.5 123.5
t111.5 77.5q-13 -21 -13 -54q0 -57 37 -99q-38 8 -56 8q-36 0 -74 -23t-85 -82q-63 78 -141 107zM162 595q-68 47 -102 114q43 22 63 47q0 -15 23 -51.5t43 -52.5l77 87l17 -13z" />
    <glyph glyph-name="uni0218" unicode="&#x218;" horiz-adv-x="626" 
d="M379 741q17 5 30 5q34 0 64.5 -24.5t30.5 -54.5q0 -13 -5.5 -24t-19.5 -31q-18 -25 -26.5 -43.5t-8.5 -44.5h-8q3 48 -13.5 89.5t-43.5 63.5v-205q49 17 79 25t56 8q70 0 70 -78v-157q0 -36 4.5 -64.5t16.5 -50.5q-79 -57 -140.5 -108.5t-85.5 -94.5v-50q0 -18 5 -43
q1 -7 3 -22.5t2 -27.5q0 -25 -11 -39.5t-39 -14.5q30 51 30 147v62q-37 41 -97.5 76t-112.5 35q-56 0 -84 -47h-7l152 217h19l-63 -83q23 5 38 5q39 0 71 -20t84 -65v88q0 26 -12 40t-31 16q24 26 33.5 52.5t9.5 79.5v98l-35 -13q-45 -18 -75 -27t-54 -9q-69 0 -65 96
q1 29 -1.5 37.5t-10 15t-12.5 12.5l94 68q64 47 97.5 69t61.5 33v102q0 39 21.5 64.5t52 39.5t79.5 30q52 17 76 30.5t24 38.5q0 14 -7 27h1q23 -23 23 -59t-21.5 -60.5t-51.5 -38.5t-79 -30q-54 -17 -81 -33t-27 -42v-66zM369 685q-18 10 -33 10q-41 0 -73.5 -30t-32.5 -78
v-108q0 -36 37 -36q30 0 102 26v216zM379 459v-101q0 -71 36 -87q-15 -14 -25.5 -39.5t-10.5 -54.5v-104q13 -12 43 -36q27 17 49.5 54.5t22.5 83.5v237q0 61 -50 61q-23 0 -65 -14zM418 -304q26 13 40 40.5t14 59.5q0 34 -15 65t-44 53v9q21 4 46 24.5t34 41.5
q38 -61 38 -124q0 -60 -32.5 -107.5t-80.5 -64.5v3z" />
    <glyph glyph-name="uni0219" unicode="&#x219;" horiz-adv-x="325" 
d="M289.5 134.5q-26.5 -26.5 -54.5 -64.5t-46 -78q36 -58 36 -121q0 -60 -32.5 -107.5t-80.5 -64.5v3q26 13 40 40.5t14 59.5q0 34 -15 65t-44 53v9q20 4 43 22.5t34 38.5q-5 41 -25 73t-47.5 49.5t-53.5 17.5q-28 0 -44 -20l-4 6q29 36 29 91q0 28 -7 52.5t-16 34.5l5 5
q17 -28 38.5 -49.5t53.5 -47.5q44 -36 67 -64t30 -70q28 31 28 63q0 36 -26 71t-78 87q-53 52 -80.5 89t-27.5 76q0 41 32 71.5t79 30.5q14 0 27 -3l-2 -5q-6 1 -15 1q-26 0 -33 -14.5t-7 -39.5q0 -38 36 -82q-2 44 12.5 76t40.5 48.5t56 16.5q31 0 58 -17q-12 -6 -16 -31.5
t-6 -71.5q-2 -47 -6 -60q-11 53 -31 78.5t-43 25.5q-25 0 -42 -24t-13 -54q21 -24 53 -54q56 -55 85.5 -94t34.5 -85q-10 -6 -36.5 -32.5z" />
    <glyph glyph-name="uni021A" unicode="&#x21a;" horiz-adv-x="507" 
d="M724.5 828q-47.5 -49 -108 -90t-163.5 -104v-853h-2q-8 69 -30.5 124t-47.5 89t-40 44q16 15 23 31t7 40v468q-102 -64 -157.5 -110.5t-55.5 -90.5q0 -50 53 -71.5t110 -21.5q15 0 20 1q-32 -26 -32 -67q0 -18 3 -36q1 -6 2 -18.5t1 -21.5q0 -37 -17 -66h-1q1 8 1 24
q0 26 -6 50q-11 41 -36 74.5t-56.5 53t-61.5 19.5q-20 0 -31.5 -10t-11.5 -24q0 -3 2 -11l-1 -2q-28 17 -38.5 34t-10.5 38q0 47 43 92t151.5 114.5t355.5 212.5v1l-73 -22q-150 -45 -251 -83t-176.5 -92t-71.5 -119h-2q-5 14 -5 34q0 32 14.5 62.5t40.5 69.5q19 28 29 47.5
t10 35.5q46 15 102.5 28.5t146.5 32.5q132 27 213 48.5t136.5 54.5t55.5 78q0 13 -8 25t-19 19q-22 15 -22 30q0 7 5 11.5t14 4.5q17 -1 30.5 -27t13.5 -58q0 -44 -47.5 -93zM288 -348q26 13 40 40.5t14 59.5q0 34 -15 65t-44 53v9q21 4 46 24.5t34 41.5q38 -61 38 -124
q0 -60 -32.5 -107.5t-80.5 -64.5v3z" />
    <glyph glyph-name="uni021B" unicode="&#x21b;" horiz-adv-x="235" 
d="M166 0q-3 2 -35 16t-60 57.5t-28 104.5v295h-66l53 77h13v38q0 30 -20 43l110 70v-150h75l-64 -78h-11v-287q0 -99 86 -109l28 32l8 -7zM50 -304q26 13 40 40.5t14 59.5q0 34 -15 65t-44 53v9q21 4 46 24.5t34 41.5q38 -61 38 -124q0 -60 -32.5 -107.5t-80.5 -64.5v3z
" />
    <glyph glyph-name="circumflex" unicode="&#x2c6;" horiz-adv-x="263" 
d="M149.5 637q-18.5 32 -36.5 46l-82 -87l-11 9l121 131q67 -47 102 -114q-43 -22 -63 -47q-12 30 -30.5 62z" />
    <glyph glyph-name="tilde" unicode="&#x2dc;" horiz-adv-x="310" 
d="M98 654l-19 15q-14 -3 -23 -12.5t-23 -30.5l-13 1q30 69 115 77q9 -12 40 -29.5t55 -25.5q12 2 20 10t27 30l13 -2q-21 -32 -46 -48.5t-84 -28.5q-25 13 -62 44z" />
    <glyph glyph-name="gravecomb" unicode="&#x300;" 
d="M-113 618.5q-37 30.5 -52 70.5q42 22 63 56l15 -5q12 -96 67 -160q-56 8 -93 38.5z" />
    <glyph glyph-name="acutecomb" unicode="&#x301;" 
d="M-98 740l15 5q21 -34 63 -56q-15 -40 -52 -70.5t-93 -38.5q55 64 67 160z" />
    <glyph glyph-name="uni0302" unicode="&#x302;" 
d="M-113.5 637q-18.5 32 -36.5 46l-82 -87l-11 9l121 131q67 -47 102 -114q-43 -22 -63 -47q-12 30 -30.5 62z" />
    <glyph glyph-name="tildecomb" unicode="&#x303;" 
d="M-212 654l-19 15q-14 -3 -23 -12.5t-23 -30.5l-13 1q30 69 115 77q9 -12 40 -29.5t55 -25.5q12 2 20 10t27 30l13 -2q-21 -32 -46 -48.5t-84 -28.5q-25 13 -62 44z" />
    <glyph glyph-name="uni0304" unicode="&#x304;" 
d="M-23 638h-193l3 17h193z" />
    <glyph glyph-name="uni0306" unicode="&#x306;" 
d="M-247 705l17 2l60 -20q6 -39 17.5 -61.5t33.5 -22.5q21 0 37 24t14 64l28 19l20 2q2 -36 -12.5 -65t-41.5 -45t-59 -16q-89 0 -114 119z" />
    <glyph glyph-name="uni0307" unicode="&#x307;" 
d="M-127 606q-15 17 -33 30q21 13 44 43q18 23 33 54q18 -29 29 -41q12 -13 34 -28q-23 -20 -44 -47q-14 -18 -34 -52q-13 22 -29 41z" />
    <glyph glyph-name="uni0308" unicode="&#x308;" 
d="M-226.5 607.5q-16.5 17.5 -34.5 29.5q49 21 77 82q5 -14 21 -32t29 -25q-24 -17 -41 -34t-34 -50q-1 12 -17.5 29.5zM-112.5 607.5q-16.5 17.5 -34.5 29.5q32 14 52 39.5t25 42.5q5 -14 21 -32t29 -25q-24 -16 -41 -33.5t-34 -50.5q-1 12 -17.5 29.5z" />
    <glyph glyph-name="uni030A" unicode="&#x30a;" 
d="M-186 642q0 22 23.5 49t68.5 60q36 -15 55 -37.5t19 -48.5q0 -27 -20 -51.5t-59 -40.5q-87 29 -87 69zM-60 644q0 25 -15 47.5t-38 31.5q-14 -10 -21.5 -25t-7.5 -31q0 -25 17.5 -44.5t48.5 -21.5q16 17 16 43z" />
    <glyph glyph-name="uni030B" unicode="&#x30b;" 
d="M-219 740l15 5q21 -34 63 -56q-15 -40 -52 -70.5t-93 -38.5q55 64 67 160zM-98 740l15 5q21 -34 63 -56q-15 -40 -52 -70.5t-93 -38.5q55 64 67 160z" />
    <glyph glyph-name="uni030C" unicode="&#x30c;" 
d="M-141 575q-68 47 -102 114q43 22 63 47q0 -15 23 -51.5t43 -52.5l77 87l17 -13z" />
    <glyph glyph-name="uni0312" unicode="&#x312;" 
d="M-37 870q-26 -13 -40 -40.5t-14 -59.5q0 -34 15 -65t44 -53v-9q-21 -4 -46 -24.5t-34 -41.5q-38 61 -38 124q0 60 32.5 107.5t80.5 64.5v-3z" />
    <glyph glyph-name="uni0326" unicode="&#x326;" 
d="M-133 -304q26 13 40 40.5t14 59.5q0 34 -15 65t-44 53v9q21 4 46 24.5t34 41.5q38 -61 38 -124q0 -60 -32.5 -107.5t-80.5 -64.5v3z" />
    <glyph glyph-name="uni0327" unicode="&#x327;" 
d="M-141 -230q44 28 44 68q0 23 -14.5 46.5t-42.5 45.5l70 70h17l-17 -20q47 -51 47 -92q0 -59 -96 -122z" />
    <glyph glyph-name="uni0328" unicode="&#x328;" 
d="M-90 -208q-31 32 -31 83q0 37 20.5 76.5t49.5 70.5l10 -10q-17 -20 -24 -41t-7 -46q0 -31 13 -56.5t39 -36.5z" />
    <glyph glyph-name="uni0335" unicode="&#x335;" 
d="M-35 294h-216l15 17h216z" />
    <glyph glyph-name="uni0336" unicode="&#x336;" 
d="M-44 294h-344l24 17h344z" />
    <glyph glyph-name="uni0337" unicode="&#x337;" 
d="M-388 7h-17l368 543h17z" />
    <glyph glyph-name="uni0338" unicode="&#x338;" 
d="M-388 -57h-17l368 796h17z" />
    <glyph glyph-name="Wgrave" unicode="&#x1e80;" horiz-adv-x="942" 
d="M921 691q-53 -5 -75.5 -32t-22.5 -73q0 -35 10 -78.5t31 -113.5q23 -77 35.5 -130.5t12.5 -101.5q0 -56 -25.5 -96t-60.5 -60.5t-63 -20.5q-31 0 -51.5 6.5t-44.5 18.5q-15 8 -26.5 12t-24.5 4q-16 0 -39 -9q-13 -8 -31 -16l-2 -1h-1q-39 -15 -75 -15q-49 0 -90 21
t-93 59q-35 25 -55 36.5t-38 11.5q-24 0 -43 -27t-36 -86h-16q22 70 52.5 114.5t78.5 96.5q38 40 59.5 69.5t35.5 73.5t14 106q0 79 -39.5 130t-108.5 51q-31 0 -31 -27q0 -21 8.5 -45.5t25.5 -65.5q13 -29 19.5 -47t6.5 -31q0 -34 -25.5 -73t-64 -65t-76.5 -26
q-21 0 -31.5 8.5t-10.5 21.5q0 16 15 30t35 14q-3 -6 -3 -12q0 -14 13.5 -24.5t32.5 -10.5q35 0 35 38q0 23 -6 48t-18 60q-11 33 -16 53.5t-5 37.5q0 43 31 83.5t74.5 66t73.5 25.5q74 0 117 -53.5t43 -135.5q0 -84 -48.5 -171.5t-143.5 -150.5q42 3 83 -25t99 -83
q40 -37 62.5 -54t39.5 -17q59 0 59 81q0 44 -12 152h-92q-12 0 -18.5 -5.5t-6.5 -13.5q0 -7 3 -13h-4q-16 13 -16 34q0 20 15 36.5t37 16.5h76l-6 51q-17 133 -26 219t-9 139q0 62 24.5 96t81.5 34q23 0 53 -6v-4q-56 -7 -56 -91q0 -45 7.5 -136t8.5 -109q3 -35 7 -84
t8 -109h41q13 0 21 8t8 20q0 10 -4 18h3q16 -20 16 -44t-14 -40.5t-35 -16.5h-33q3 -46 3 -81q0 -60 -39 -106q28 11 51 11q19 0 33.5 -6t35.5 -19q19 -11 31 -16.5t27 -5.5q44 0 44 52q0 30 -11.5 73t-33.5 112q-30 93 -46.5 158t-16.5 121q0 78 41.5 121.5t140.5 43.5v-10
zM581 905.5q-37 30.5 -52 70.5q42 22 63 56l15 -5q12 -96 67 -160q-56 8 -93 38.5z" />
    <glyph glyph-name="wgrave" unicode="&#x1e81;" horiz-adv-x="500" 
d="M475 550v-306q0 -61 -27.5 -112t-64.5 -84t-68 -48q-52 31 -82 86l-74 -86q-47 13 -87 55.5t-40 116.5v265q0 30 -20 43l110 70v-355q0 -89 73 -129l31 33q-22 49 -22 100v238q0 30 -20 43l110 70v-360q0 -29 19 -71t52 -67q20 27 20 93v292q0 30 -20 43zM229 638.5
q-37 30.5 -52 70.5q42 22 63 56l15 -5q12 -96 67 -160q-56 8 -93 38.5z" />
    <glyph glyph-name="Wacute" unicode="&#x1e82;" horiz-adv-x="942" 
d="M921 691q-53 -5 -75.5 -32t-22.5 -73q0 -35 10 -78.5t31 -113.5q23 -77 35.5 -130.5t12.5 -101.5q0 -56 -25.5 -96t-60.5 -60.5t-63 -20.5q-31 0 -51.5 6.5t-44.5 18.5q-15 8 -26.5 12t-24.5 4q-16 0 -39 -9q-13 -8 -31 -16l-2 -1h-1q-39 -15 -75 -15q-49 0 -90 21
t-93 59q-35 25 -55 36.5t-38 11.5q-24 0 -43 -27t-36 -86h-16q22 70 52.5 114.5t78.5 96.5q38 40 59.5 69.5t35.5 73.5t14 106q0 79 -39.5 130t-108.5 51q-31 0 -31 -27q0 -21 8.5 -45.5t25.5 -65.5q13 -29 19.5 -47t6.5 -31q0 -34 -25.5 -73t-64 -65t-76.5 -26
q-21 0 -31.5 8.5t-10.5 21.5q0 16 15 30t35 14q-3 -6 -3 -12q0 -14 13.5 -24.5t32.5 -10.5q35 0 35 38q0 23 -6 48t-18 60q-11 33 -16 53.5t-5 37.5q0 43 31 83.5t74.5 66t73.5 25.5q74 0 117 -53.5t43 -135.5q0 -84 -48.5 -171.5t-143.5 -150.5q42 3 83 -25t99 -83
q40 -37 62.5 -54t39.5 -17q59 0 59 81q0 44 -12 152h-92q-12 0 -18.5 -5.5t-6.5 -13.5q0 -7 3 -13h-4q-16 13 -16 34q0 20 15 36.5t37 16.5h76l-6 51q-17 133 -26 219t-9 139q0 62 24.5 96t81.5 34q23 0 53 -6v-4q-56 -7 -56 -91q0 -45 7.5 -136t8.5 -109q3 -35 7 -84
t8 -109h41q13 0 21 8t8 20q0 10 -4 18h3q16 -20 16 -44t-14 -40.5t-35 -16.5h-33q3 -46 3 -81q0 -60 -39 -106q28 11 51 11q19 0 33.5 -6t35.5 -19q19 -11 31 -16.5t27 -5.5q44 0 44 52q0 30 -11.5 73t-33.5 112q-30 93 -46.5 158t-16.5 121q0 78 41.5 121.5t140.5 43.5v-10
zM596 1027l15 5q21 -34 63 -56q-15 -40 -52 -70.5t-93 -38.5q55 64 67 160z" />
    <glyph glyph-name="wacute" unicode="&#x1e83;" horiz-adv-x="500" 
d="M475 550v-306q0 -61 -27.5 -112t-64.5 -84t-68 -48q-52 31 -82 86l-74 -86q-47 13 -87 55.5t-40 116.5v265q0 30 -20 43l110 70v-355q0 -89 73 -129l31 33q-22 49 -22 100v238q0 30 -20 43l110 70v-360q0 -29 19 -71t52 -67q20 27 20 93v292q0 30 -20 43zM244 760l15 5
q21 -34 63 -56q-15 -40 -52 -70.5t-93 -38.5q55 64 67 160z" />
    <glyph glyph-name="Wdieresis" unicode="&#x1e84;" horiz-adv-x="942" 
d="M921 691q-53 -5 -75.5 -32t-22.5 -73q0 -35 10 -78.5t31 -113.5q23 -77 35.5 -130.5t12.5 -101.5q0 -56 -25.5 -96t-60.5 -60.5t-63 -20.5q-31 0 -51.5 6.5t-44.5 18.5q-15 8 -26.5 12t-24.5 4q-16 0 -39 -9q-13 -8 -31 -16l-2 -1h-1q-39 -15 -75 -15q-49 0 -90 21
t-93 59q-35 25 -55 36.5t-38 11.5q-24 0 -43 -27t-36 -86h-16q22 70 52.5 114.5t78.5 96.5q38 40 59.5 69.5t35.5 73.5t14 106q0 79 -39.5 130t-108.5 51q-31 0 -31 -27q0 -21 8.5 -45.5t25.5 -65.5q13 -29 19.5 -47t6.5 -31q0 -34 -25.5 -73t-64 -65t-76.5 -26
q-21 0 -31.5 8.5t-10.5 21.5q0 16 15 30t35 14q-3 -6 -3 -12q0 -14 13.5 -24.5t32.5 -10.5q35 0 35 38q0 23 -6 48t-18 60q-11 33 -16 53.5t-5 37.5q0 43 31 83.5t74.5 66t73.5 25.5q74 0 117 -53.5t43 -135.5q0 -84 -48.5 -171.5t-143.5 -150.5q42 3 83 -25t99 -83
q40 -37 62.5 -54t39.5 -17q59 0 59 81q0 44 -12 152h-92q-12 0 -18.5 -5.5t-6.5 -13.5q0 -7 3 -13h-4q-16 13 -16 34q0 20 15 36.5t37 16.5h76l-6 51q-17 133 -26 219t-9 139q0 62 24.5 96t81.5 34q23 0 53 -6v-4q-56 -7 -56 -91q0 -45 7.5 -136t8.5 -109q3 -35 7 -84
t8 -109h41q13 0 21 8t8 20q0 10 -4 18h3q16 -20 16 -44t-14 -40.5t-35 -16.5h-33q3 -46 3 -81q0 -60 -39 -106q28 11 51 11q19 0 33.5 -6t35.5 -19q19 -11 31 -16.5t27 -5.5q44 0 44 52q0 30 -11.5 73t-33.5 112q-30 93 -46.5 158t-16.5 121q0 78 41.5 121.5t140.5 43.5v-10
zM510.5 894.5q-16.5 17.5 -34.5 29.5q49 21 77 82q5 -14 21 -32t29 -25q-24 -17 -41 -34t-34 -50q-1 12 -17.5 29.5zM624.5 894.5q-16.5 17.5 -34.5 29.5q32 14 52 39.5t25 42.5q5 -14 21 -32t29 -25q-24 -16 -41 -33.5t-34 -50.5q-1 12 -17.5 29.5z" />
    <glyph glyph-name="wdieresis" unicode="&#x1e85;" horiz-adv-x="500" 
d="M475 550v-306q0 -61 -27.5 -112t-64.5 -84t-68 -48q-52 31 -82 86l-74 -86q-47 13 -87 55.5t-40 116.5v265q0 30 -20 43l110 70v-355q0 -89 73 -129l31 33q-22 49 -22 100v238q0 30 -20 43l110 70v-360q0 -29 19 -71t52 -67q20 27 20 93v292q0 30 -20 43zM158.5 627.5
q-16.5 17.5 -34.5 29.5q49 21 77 82q5 -14 21 -32t29 -25q-24 -17 -41 -34t-34 -50q-1 12 -17.5 29.5zM272.5 627.5q-16.5 17.5 -34.5 29.5q32 14 52 39.5t25 42.5q5 -14 21 -32t29 -25q-24 -16 -41 -33.5t-34 -50.5q-1 12 -17.5 29.5z" />
    <glyph glyph-name="uni1E9E" unicode="&#x1e9e;" horiz-adv-x="624" 
d="M604 358q-22 -20 -22 -87v-136q0 -50 -28 -81t-66 -44t-69 -10v17q36 4 53.5 33t17.5 59v221l-87 36v5q49 24 69 54t20 66q0 21 -5 40.5t-16 55.5q-14 42 -17 62l-90 -48v-473q0 -27 5 -43.5t18 -26.5l-69 -56q-24 24 -35.5 55t-11.5 62v365q0 71 -13 122t-33 77t-39 26
q-16 0 -26 -18t-10 -51q0 -64 12.5 -106.5t35.5 -90.5q15 -31 21.5 -50.5t6.5 -41.5q0 -47 -26.5 -87.5t-66 -64.5t-75.5 -24q-19 0 -28.5 10.5t-9.5 26.5q0 19 13.5 35t31.5 16q-11 -8 -11 -20q0 -13 15.5 -24.5t34.5 -11.5q20 0 36 21.5t16 50.5q0 20 -11 48.5t-32 71.5
q-23 48 -34.5 77.5t-11.5 52.5q0 41 24 90.5t65 83.5t89 34t77 -34.5t38 -93.5l168 92q3 -33 24 -87q12 -37 17.5 -57t5.5 -40q0 -33 -19 -61.5t-65 -53.5z" />
    <glyph glyph-name="Ygrave" unicode="&#x1ef2;" horiz-adv-x="633" 
d="M607 703v-645q0 -273 -139 -273q-53 0 -104 23t-115 63q-43 26 -64 36.5t-38 10.5q-31 0 -38 -51l-10 1q27 132 91 132q32 0 64.5 -26.5t79.5 -77.5q44 -47 71.5 -69.5t52.5 -22.5q32 0 45.5 72t13.5 160v72q-17 -71 -55.5 -97t-73.5 -26q-34 0 -61 20t-63 59
q-15 17 -32 33t-32 25q-26 -19 -49 -33l-1 2q20 15 42 35q-20 10 -38 10q-22 0 -34 -8t-12 -19q0 -10 9.5 -17t25.5 -7q-16 -10 -38 -10t-38 9.5t-16 25.5q0 15 20 25.5t61 10.5q34 0 71 -8q70 74 108.5 177.5t38.5 185.5q0 69 -21 115t-52.5 67.5t-63.5 21.5
q-28 0 -46.5 -15t-18.5 -40q0 -19 9 -40.5t27 -54.5t26 -52.5t8 -37.5q0 -34 -25.5 -73t-64 -65t-76.5 -26q-21 0 -31.5 8.5t-10.5 21.5q0 16 15 30t35 14q-12 -8 -12 -17q0 -11 17 -20.5t38 -9.5q35 0 35 38q0 17 -5.5 39.5t-16.5 58.5q-23 71 -23 101q0 54 25 92.5
t65.5 58.5t86.5 20q45 0 83.5 -19t62.5 -57t24 -92q0 -63 -24 -140.5t-74.5 -155t-125.5 -137.5q33 -9 63.5 -21.5t69.5 -31.5q38 -18 60 -26.5t39 -8.5q26 0 45.5 39t23.5 109v395q0 30 -20 43zM463 777.5q-37 30.5 -52 70.5q42 22 63 56l15 -5q12 -96 67 -160
q-56 8 -93 38.5z" />
    <glyph glyph-name="ygrave" unicode="&#x1ef3;" horiz-adv-x="347" 
d="M88.5 -90.5q-33.5 13.5 -63.5 13.5q-15 0 -25 -2l70 66q52 0 90 -27t59 -57q5 3 6 15.5t1 39.5v134l-79 -75q-70 47 -92 79q-4 -3 -8 -7t-10 -6.5t-16 -6.5q10 15 12.5 33.5t2.5 52.5v275q0 30 -20 43l110 70v-339q0 -30 18 -64t57 -62l25 24v328q0 30 -20 43l110 70
v-281q1 -28 5 -45t20 -24l-25 -26v-148q0 -56 -48 -99.5t-117 -67.5q-29 37 -62.5 50.5zM188 618.5q-37 30.5 -52 70.5q42 22 63 56l15 -5q12 -96 67 -160q-56 8 -93 38.5z" />
    <glyph glyph-name="endash" unicode="&#x2013;" horiz-adv-x="391" 
d="M356 294h-336l15 17h336z" />
    <glyph glyph-name="emdash" unicode="&#x2014;" horiz-adv-x="665" 
d="M630 294h-610l15 17h610z" />
    <glyph glyph-name="quoteleft" unicode="&#x2018;" horiz-adv-x="158" 
d="M133 772q-26 -13 -40 -40.5t-14 -59.5q0 -34 15 -65t44 -53v-9q-21 -4 -46 -24.5t-34 -41.5q-38 61 -38 124q0 60 32.5 107.5t80.5 64.5v-3z" />
    <glyph glyph-name="quoteright" unicode="&#x2019;" horiz-adv-x="158" 
d="M25 508q26 13 40 40.5t14 59.5q0 34 -15 65t-44 53v9q21 4 46 24.5t34 41.5q38 -61 38 -124q0 -60 -32.5 -107.5t-80.5 -64.5v3z" />
    </font>
</defs>
</svg>
