<?xml version="1.0" standalone="no"?>
<!DOCTYPE svg PUBLIC "-//W3C//DTD SVG 1.1//EN" "http://www.w3.org/Graphics/SVG/1.1/DTD/svg11.dtd" >
<svg xmlns="http://www.w3.org/2000/svg" xmlns:xlink="http://www.w3.org/1999/xlink" version="1.1">
<metadata>
Created by FontForge 20170731 at Tue Nov  8 11:07:48 2022
 By Aleksey,,,
</metadata>
<defs>
<font id="BentogaItalic-Thin" horiz-adv-x="1105" >
  <font-face 
    font-family="Gibson Serif Thin"
    font-weight="100"
    font-stretch="normal"
    units-per-em="2048"
    panose-1="0 0 0 0 0 0 0 0 0 0"
    ascent="1638"
    descent="-410"
    x-height="1024"
    cap-height="1434"
    bbox="-349.01 -674 2470 2042"
    underline-thickness="102"
    underline-position="-358"
    unicode-range="U+000D-FB04"
  />
<missing-glyph horiz-adv-x="512" 
 />
    <glyph glyph-name="f_f" unicode="ff" horiz-adv-x="1574" 
d="M642 1430q-52 -10 -92 -58t-57 -109t-11 -127.5t39 -111.5h404q32 120 50 164q109 268 410 268q194 0 254 -99q42 -69 3 -151q-34 -72 -105 -101q-32 -13 -66 -13q-52 0 -80 28t-28 70q48 39 70 87t16 86t-42.5 59t-96.5 10q-73 -14 -126 -63t-75 -109.5t-17.5 -125
t37.5 -110.5h254q10 0 7.5 -10t-13.5 -10h-254l-248 -979q-36 -144 -127.5 -226t-203.5 -82q-41 0 -74 12t-50.5 28t-29 35t-15 31.5t-3.5 18.5q-2 25 7 24q4 -1 7 -9q14 -43 44.5 -62.5t66.5 -19.5q43 0 76 28.5t50 66t31 91.5l265 1043h-404l-248 -979q-36 -144 -128 -226
t-204 -82q-41 0 -74 12t-50.5 28t-29 35t-15 31.5t-3.5 18.5q-2 25 7 24q5 -1 8 -9q26 -82 110 -82q63 0 99.5 51t58.5 135l264 1043h-112q-11 0 -8 10t14 10h112q33 126 48 166q102 265 352 266q158 0 203 -94q34 -70 -9 -154q-39 -77 -112 -105q-29 -11 -60 -11
q-52 0 -80 28t-30 70q78 55 95 135q14 65 -23 93q-23 18 -58 12z" />
    <glyph glyph-name="fi" unicode="fi" horiz-adv-x="1257" 
d="M810 1427q-73 -14 -131.5 -45.5t-93.5 -72.5t-57 -90t-21.5 -98.5t14.5 -96.5q80 0 199.5 33t183.5 33q62 0 105 -18.5t63 -45t28 -62t6 -64.5t-9 -58l-148 -559q-3 -11 -8.5 -31t-9 -34.5t-7.5 -33t-3 -31.5t4.5 -25t14.5 -18t28 -6q52 0 97 52t75 127q2 6 7 6.5t9 -3.5
t2 -10q-10 -31 -26.5 -67t-45 -80t-62 -78.5t-79.5 -58t-94 -23.5q-52 0 -85.5 26.5t-45 67.5t-11.5 81t9 75l151 557q31 120 34 154q6 87 -66 97q-10 1 -21 1q-23 0 -135 -12t-166 -12l-248 -979q-36 -144 -128 -226t-204 -82q-41 0 -74 12t-50.5 28t-29 35t-15 31.5
t-3.5 18.5q-2 25 7 24q5 -1 8 -9q26 -82 110 -82q63 0 99.5 51t58.5 135l264 1043h-112q-11 0 -8 10t14 10h112q55 203 209 317.5t385 114.5q222 0 293 -103q47 -69 11 -151q-32 -69 -101 -97q-32 -13 -65 -13q-52 0 -80.5 28t-30.5 70q54 47 72 103.5t-14 98.5t-113 42
q-25 0 -72 -7z" />
    <glyph glyph-name="fl" unicode="fl" horiz-adv-x="1265" 
d="M701 1432q-73 -14 -126 -63t-74.5 -109.5t-17 -125t37.5 -110.5h254q10 0 7 -10t-13 -10h-254l-248 -979q-36 -144 -128 -226t-204 -82q-41 0 -74 12t-50.5 28t-29 35t-15 31.5t-3.5 18.5q-2 25 7 24q5 -1 8 -9q26 -82 110 -82q63 0 99.5 51t58.5 135l264 1043h-112
q-11 0 -8 10t14 10h112q2 7 6 23q8 33 13.5 51.5t18 56t24.5 61.5t33 59t43.5 57.5t56 48t71.5 40.5t88 25t107 10q28 0 55.5 -4t56 -10t42.5 -8q77 -13 164 -13q44 0 86.5 3.5t63.5 6.5l20 3l-308 -1151q-24 -91 -25 -118q-2 -63 50 -63t96.5 52.5t75.5 126.5q2 7 7 8t9 -3
t2 -10q-10 -31 -26.5 -67.5t-45 -80t-62 -78t-79.5 -58t-94 -23.5q-42 0 -72 18t-44.5 45.5t-20.5 62t-3.5 65.5t9.5 57l246 918q-49 -43 -117 -43q-52 0 -80 28t-28 70q64 52 82 115.5t-19 102.5t-117 24z" />
    <glyph glyph-name="f_f_i" unicode="ffi" horiz-adv-x="1865" 
d="M925 1024q55 203 209 317.5t385 114.5q222 0 293 -103q47 -69 10 -151q-32 -69 -101 -97q-32 -13 -65 -13q-52 0 -80.5 28t-30.5 70q54 47 72 103.5t-14 98.5t-113 42q-25 0 -72 -7q-73 -14 -131.5 -45.5t-93.5 -72.5t-57 -90t-21.5 -98.5t14.5 -96.5q80 0 199.5 33
t183.5 33q62 0 105 -18t63.5 -45t28.5 -62.5t6 -65t-10 -57.5l-148 -559q-3 -11 -8.5 -31t-9 -34.5t-7.5 -33t-3 -31.5t4.5 -25t14.5 -18t28 -6q52 0 97 52t75 127q2 6 7 6.5t9 -3.5t2 -10q-10 -31 -26.5 -67t-45 -80t-62 -78.5t-79.5 -58t-94 -23.5q-52 0 -85.5 26.5
t-45 67.5t-11.5 81t9 75l152 557q34 124 35 166q-4 84 -89 86q-23 0 -135 -12t-166 -12l-248 -979q-36 -144 -127.5 -226t-203.5 -82q-41 0 -74 12t-50.5 28t-29 35t-15 31.5t-3.5 18.5q-2 25 7 24q4 -1 7 -9q14 -43 44.5 -62.5t66.5 -19.5q43 0 76 28.5t50 66t31 91.5
l265 1043h-404l-248 -979q-36 -144 -128 -226t-204 -82q-41 0 -74 12t-50.5 28t-29 35t-15 31.5t-3.5 18.5q-2 25 7 24q5 -1 8 -9q26 -82 110 -82q63 0 99.5 51t58.5 135l264 1043h-112q-11 0 -8 10t14 10h112q33 126 48 166q102 265 352 266q158 0 203 -94q34 -70 -9 -154
q-39 -77 -112 -105q-29 -11 -60 -11q-52 0 -80 28t-30 70q78 55 95 135q14 65 -23 93q-23 18 -58 12q-52 -10 -92 -58t-57 -109t-11 -127.5t39 -111.5h404z" />
    <glyph glyph-name="f_f_l" unicode="ffl" horiz-adv-x="1873" 
d="M925 1024q32 120 50 164q109 268 410 268q28 0 55.5 -4t56 -10t42.5 -8q77 -13 164 -13q44 0 86.5 3.5t63.5 6.5l20 3l-307 -1151q-24 -90 -25 -114q-5 -67 49 -67q52 0 96.5 52.5t75.5 126.5q2 7 7.5 8t9.5 -3t2 -10q-10 -31 -26.5 -67.5t-45 -80t-62 -78t-79.5 -58
t-94 -23.5q-52 0 -85.5 26.5t-44.5 67t-11 80.5t9 74l246 918q-49 -43 -117 -43q-52 0 -80 27.5t-28 70.5q48 39 70 87t16 86t-42.5 59t-96.5 10q-73 -14 -126 -63t-75 -109.5t-17.5 -125t37.5 -110.5h254q10 0 7.5 -10t-13.5 -10h-254l-248 -979q-36 -144 -127.5 -226
t-203.5 -82q-41 0 -74 12t-50.5 28t-29 35t-15 31.5t-3.5 18.5q-2 25 7 24q4 -1 7 -9q14 -43 44.5 -62.5t66.5 -19.5q43 0 76 28.5t50 66t31 91.5l265 1043h-404l-248 -979q-36 -144 -128 -226t-204 -82q-41 0 -74 12t-50.5 28t-29 35t-15 31.5t-3.5 18.5q-2 25 7 24
q5 -1 8 -9q26 -82 110 -82q63 0 99.5 51t58.5 135l264 1043h-112q-11 0 -8 10t14 10h112q33 126 48 166q102 265 352 266q158 0 203 -94q34 -70 -9 -154q-39 -77 -112 -105q-29 -11 -60 -11q-52 0 -80 28t-30 70q78 55 95 135q14 65 -23 93q-23 18 -58 12q-52 -10 -92 -58
t-57 -109t-11 -127.5t39 -111.5h404z" />
    <glyph glyph-name=".notdef" horiz-adv-x="512" 
 />
    <glyph glyph-name="uni0000" horiz-adv-x="0" 
 />
    <glyph glyph-name="uni0000" horiz-adv-x="0" 
 />
    <glyph glyph-name="uni000D" unicode="&#xd;" horiz-adv-x="512" 
 />
    <glyph glyph-name="space" unicode=" " horiz-adv-x="532" 
 />
    <glyph glyph-name="exclam" unicode="!" horiz-adv-x="940" 
d="M222 106l264 1438h267l-510 -1438q-10 -23 -18 -16q-4 5 -3 16zM132 -266q-79 0 -97 63q-17 58 24 122q48 73 129 80q8 1 16 1q79 0 97 -63q17 -58 -24 -122q-48 -73 -129 -80z" />
    <glyph glyph-name="quotedbl" unicode="&#x22;" horiz-adv-x="1101" 
d="M464 1636q-83 0 -103 62q-18 55 23 116q48 70 134 77l16 1q69 0 89 -44.5t3 -108.5q-11 -41 -49 -95.5t-88.5 -104t-113 -84t-114.5 -34.5q-9 0 -9 4q3 7 17 11q59 11 115 76t80 124zM787 1636q-83 0 -103 62q-18 55 23 116q48 70 134 77l16 1q69 0 89 -44.5t3 -108.5
q-11 -41 -49 -95.5t-88.5 -104t-112.5 -84t-114 -34.5q-9 0 -9 4q1 7 17 11q59 11 114.5 76t79.5 124z" />
    <glyph glyph-name="numbersign" unicode="#" horiz-adv-x="2119" 
d="M416 414l344 598h-443l17 61h461l272 473l193 -2l-273 -471h354l273 473l192 -2l-272 -471h303l-16 -61h-322l-342 -598h504l-16 -62h-523l-268 -465l-190 7l264 458h-353l-268 -465l-190 7l264 458h-240l17 62h258zM963 414l344 598h-355l-342 -598h353z" />
    <glyph glyph-name="dollar" unicode="$" horiz-adv-x="1650" 
d="M937 1585h268q-16 -59 -39 -125q24 -7 60.5 -19.5t56.5 -19t43 -11.5t39 -5q46 0 74 39q12 16 19 9q3 -3 1 -9l-102 -385q-3 -9 -7.5 -12.5t-8.5 -0.5t-5 13q-35 266 -182 362q-110 -324 -313 -655q99 -62 127 -82q96 -66 130 -97q155 -140 109 -315q-23 -83 -84 -150
t-134.5 -106t-159.5 -65t-153 -35.5t-120 -9.5q14 -64 43 -117h-266q19 67 45 143q-50 13 -117.5 44.5t-101.5 31.5q-54 0 -84 -39q-12 -17 -20 -9q-2 4 -1 9l103 385q3 10 8 13t8.5 -0.5t3.5 -12.5q32 -323 209 -399q65 180 155 346t228 387q-10 7 -54.5 37.5t-68.5 48.5
q-25 17 -61.5 41.5t-60 40.5t-54.5 38.5t-50 40t-40.5 40.5t-32.5 45t-19 48t-7 55t10 61q20 74 74.5 134.5t124.5 96.5t150.5 59t154 29t133.5 0q-9 54 -31 82zM820 780q94 183 132.5 379.5t19.5 317.5q-46 0 -105 -18t-120 -51.5t-112 -93.5t-71 -134q-9 -35 -10 -67
t7 -61t20 -54.5t32.5 -50.5t42 -46t50.5 -43t55 -39.5t59 -38.5zM552 -70q82 4 156.5 40t128 90t90 115.5t53.5 123.5q12 44 12.5 83.5t-11.5 73.5t-29 63.5t-45.5 58t-56 51t-65.5 49.5q-77 -125 -132.5 -245.5t-87 -258t-13.5 -244.5z" />
    <glyph glyph-name="percent" unicode="%" horiz-adv-x="1851" 
d="M262 -106l950 1652l191 -6l-952 -1653zM596 1454q158 0 214 -120q50 -106 4 -252q-46 -147 -160 -241q-110 -91 -246 -91q-158 0 -214 120q-50 106 -4 252q46 147 160 241q110 91 246 91zM414 770q73 0 147 138q73 138 97 302q24 166 -29 211q-16 13 -37 13
q-74 0 -148 -139q-73 -138 -96 -302q-24 -165 29 -210q15 -13 37 -13zM1257 694q158 0 214 -120q50 -106 4 -252q-46 -147 -160 -241q-110 -91 -246 -91q-158 0 -214 120q-50 106 -4 252q46 147 160 241q110 91 246 91zM1073 10q73 0 147 138q73 138 97 302q24 166 -29 211
q-15 13 -37 13q-73 0 -147 -138q-73 -138 -97 -302q-24 -166 29 -211q15 -13 37 -13z" />
    <glyph glyph-name="ampersand" unicode="&#x26;" horiz-adv-x="1691" 
d="M428 -127q-235 0 -333 159q-82 133 -44 329q37 191 168 342q151 174 355 204q40 6 79 6q154 0 312 -84q-29 29 -168.5 139.5t-256.5 216.5t-141 163q-24 56 54 105.5t215.5 77.5t287.5 28q178 0 314 -45t176 -136q16 -32 4 -75q-15 -56 -65 -95t-105 -39t-83 39t-13 95
q17 63 76.5 103t117.5 28q-56 45 -152.5 69.5t-201.5 24.5q-92 0 -165.5 -18t-112.5 -55t-19 -87q24 -62 120.5 -250t153.5 -293q3 -7 9 -16q6 -11 2 -12q-3 0 -10 1.5t-22 5.5t-30 7q-80 18 -147 18q-223 0 -371 -166q-118 -132 -146 -315q-26 -175 45 -298
q78 -136 243 -136h16q68 3 130.5 32t107.5 73.5t77.5 96.5t45 105t5.5 96q-10 62 -47 95.5t-86 33.5q-74 0 -134.5 -69t-67.5 -189q-45 33 -56.5 96.5t21 137t106.5 123.5q101 67 246 67q42 0 120 -6t111 -6q88 0 134 31q61 42 65.5 103.5t-63.5 88.5q134 11 171 -69
q30 -68 -20 -158q-55 -97 -162 -147q-38 -18 -80 -27q-22 -139 -135.5 -265.5t-288.5 -205t-362 -78.5z" />
    <glyph glyph-name="quotesingle" unicode="'" horiz-adv-x="778" 
d="M464 1638q-83 0 -103 62q-18 55 23 116q48 70 134 77l16 1q69 0 89 -44.5t3 -108.5q-11 -41 -49 -95.5t-88.5 -104t-113 -84t-114.5 -34.5q-9 0 -9 5q3 7 17 10q59 12 115 77t80 123z" />
    <glyph glyph-name="parenleft" unicode="(" horiz-adv-x="925" 
d="M891 1544q12 0 12 -12t-12 -12q-113 0 -190.5 -70.5t-149 -242.5t-160.5 -502q-44 -166 -70 -284t-37 -208.5t-6.5 -146t27.5 -90.5t58.5 -48.5t91.5 -13.5q13 0 10 -12q-4 -10 -14 -11q-270 0 -338.5 204t47.5 626q115 427 288.5 625t442.5 198z" />
    <glyph glyph-name="parenright" unicode=")" horiz-adv-x="806" 
d="M-141 -109q-12 0 -12 12.5t12 12.5q68 0 120 23.5t99.5 76.5t91.5 149.5t88.5 231.5t97.5 334q45 166 71 284t37 208.5t6.5 146t-27 90.5t-58.5 48.5t-92 13.5q-11 0 -9 11t13 11q272 0 340 -203.5t-49 -625.5q-114 -427 -287 -625.5t-442 -198.5z" />
    <glyph glyph-name="asterisk" unicode="*" horiz-adv-x="1089" 
d="M745 1812l-124 -184l172 133q28 17 53 17q36 0 52 -31t-2 -70t-67 -57l-200 -31l139 -102q30 -44 -9 -92.5t-89 -48.5q-41 0 -54 38l-26 177l-121 -177q-33 -38 -76 -38q-23 0 -40.5 13.5t-23.5 33.5t4 46t38 48l192 102l-180 27q-26 9 -36 28t-4 41t20 42t37 33.5
t46 13.5q21 0 41 -13l105 -133l-8 182q6 42 37 67.5t67 25.5q35 0 53 -24.5t4 -66.5z" />
    <glyph glyph-name="plus" unicode="+" horiz-adv-x="1380" 
d="M176 666l49 182h350l95 350h182l-94 -350h350l-49 -182h-350l-95 -351h-182l94 351h-350z" />
    <glyph glyph-name="comma" unicode="," horiz-adv-x="808" 
d="M183 45q-83 0 -103 62q-18 55 23 116q48 70 134 77q8 1 16 1q48 0 73 -23.5t25.5 -57.5t-6.5 -73q-11 -41 -48.5 -95.5t-87.5 -104t-112 -83.5t-114 -34q-10 0 -9 5q0 7 15 9q60 12 115 76.5t79 124.5z" />
    <glyph glyph-name="hyphen" unicode="-" horiz-adv-x="1347" 
d="M240 666l43 161h698l-43 -161h-698z" />
    <glyph glyph-name="period" unicode="." horiz-adv-x="843" 
d="M119 172q13 55 62.5 94t105.5 39q55 0 83.5 -38.5t14.5 -94.5q-15 -54 -65 -93.5t-105 -39.5t-83 39.5t-13 93.5z" />
    <glyph glyph-name="slash" unicode="/" horiz-adv-x="1249" 
d="M223 -113l-190 7l950 1652l193 -2z" />
    <glyph glyph-name="zero" unicode="0" horiz-adv-x="1261" 
d="M956 1458q113 0 194 -38t124.5 -104.5t60 -160.5t6 -202.5t-44.5 -233.5q-42 -158 -107.5 -289t-155.5 -234t-211 -161t-261 -58q-113 0 -193 38.5t-124 105.5t-60 162t-5 204t44 234t80.5 233t114 201.5t145.5 160t179.5 104.5t213.5 38zM565 -2q68 0 136.5 54.5
t121.5 136t101.5 185t80 192.5t52.5 169q17 65 30.5 135t24 152.5t7 154t-17.5 131.5t-51 95t-94 35q-67 0 -134.5 -52.5t-119 -130.5t-98.5 -179.5t-77.5 -188t-51.5 -166.5q-17 -64 -30.5 -134.5t-24.5 -155t-9 -159t15 -137.5t48.5 -100t90.5 -37z" />
    <glyph glyph-name="one" unicode="1" horiz-adv-x="913" 
d="M950 1432l-348 -1303q-15 -56 88 -91q12 -4 58 -18q8 -4 6 -10q0 -10 -13 -10q-166 16 -272 16q-103 0 -281 -16q-8 0 -8 10q2 7 15 10q112 29 150 51q43 25 52 58l283 1055q16 50 3 83t-62 25l-244 -41q-6 -1 -8 2.5t0 8.5q2 7 12 10q76 15 155 36.5t119.5 35t139.5 49
t127 45.5q29 7 28 -3v-3z" />
    <glyph glyph-name="two" unicode="2" horiz-adv-x="1267" 
d="M930 1464q257 0 359 -92t57 -264q-26 -99 -91.5 -187.5t-154.5 -157.5t-192 -132t-216 -122t-215 -114.5t-199 -122.5t-159 -135q-35 -37 -40 -65t10.5 -40t41.5 -12q232 0 487.5 81t428.5 216q9 9 12 7q4 -1 4 -13q-75 -92 -106.5 -157t-43.5 -154h-798q-14 0 -27.5 4
t-24.5 15t-14 27t7.5 42.5t37.5 58.5q48 56 125 114t159 108.5t173 106.5t176.5 119t160 134.5t132.5 164t86 196.5q42 160 -15 255t-180 95q-79 0 -150.5 -37.5t-109.5 -102.5t-18 -135q17 -63 -31 -103t-113 -40q-60 0 -93.5 35t-14.5 104q81 303 549 303z" />
    <glyph glyph-name="three" unicode="3" horiz-adv-x="1071" 
d="M430 811q-47 -16 -63 -16q-13 0 12 19l14 11q90 64 282.5 244t268.5 264q27 29 34 47t-5 24t-20.5 7.5t-24.5 1.5q-103 0 -243 -54.5t-300 -180.5q-13 -11 -17 -3q-2 4 1 9q63 80 95 146t38 104h608q94 0 116 -8q41 -16 -12 -70q-55 -58 -206 -160t-359.5 -230.5
t-220.5 -136.5q152 58 287 58q185 0 273 -112.5t32 -319.5q-59 -219 -227 -349.5t-392 -130.5q-181 0 -259 74t-42 207q17 67 71 102t114 35q31 0 55.5 -10t37 -27.5t5 -44.5t-36.5 -57q-38 -40 -58 -79t-19.5 -70t14.5 -55t41.5 -37t62.5 -13q135 0 252 145
q106 131 144 305q41 183 -22 291q-56 97 -183 97q-62 0 -148 -27z" />
    <glyph glyph-name="four" unicode="4" horiz-adv-x="1200" 
d="M856 551l162 600q38 0 126.5 74t137.5 153l-201 -753q108 46 176 100q15 11 19 2q0 -4 -2 -8q-54 -58 -89.5 -128.5t-43.5 -123.5l-103 -2l-90 -336q-15 -56 88 -91q12 -4 58 -18q8 -4 6 -10q0 -10 -13 -10q-166 16 -272 16q-102 0 -280 -16q-9 0 -9 10q2 7 15 10
q112 29 150 51q43 25 52 58l91 334l-611 -6q-78 0 -47 78q21 53 89 134.5t154.5 171.5t176 186.5t167.5 205t114 201.5h253q-43 -96 -141 -198.5t-212 -190t-227 -171t-208 -169.5t-133 -156q-21 -38 -14 -54t41 -16q328 0 620 72z" />
    <glyph glyph-name="five" unicode="5" horiz-adv-x="1085" 
d="M334 731q-21 -14 -33 -14q-18 0 -12 24l188 701h770q-60 -147 -18 -312q1 -4 -2 -8t-8.5 -4t-10.5 6q-26 36 -34 47t-35 44.5t-41 46.5t-45 40.5t-55 40t-61.5 31t-74.5 26.5t-85 14.5t-101 6.5l-148 -549q92 15 168 15q221 0 313 -116t35 -325q-41 -153 -137.5 -261
t-225 -159t-280.5 -51q-75 0 -132 14t-90.5 38t-54.5 52.5t-27 61.5t-5 61t8 54q19 69 71 104t110 35q42 0 69 -17t30.5 -49t-32.5 -77q-42 -52 -54.5 -101t1.5 -81t42 -51t62 -19q147 0 268 150q108 132 145 311q39 183 -24 294q-60 106 -198 101q-41 -2 -79.5 -13
t-68 -28.5t-48.5 -31.5t-38.5 -32.5t-21.5 -19.5z" />
    <glyph glyph-name="six" unicode="6" horiz-adv-x="1120" 
d="M545 -23q-140 0 -227.5 58t-119 162t-25 234.5t49.5 289.5t105 287.5t149 232t205 160.5t258 57q170 0 266 -77.5t64 -194.5q-19 -70 -70.5 -107t-107.5 -37q-61 0 -85 39t15 109q35 56 45 101t0 71.5t-32 44.5t-46.5 24.5t-48.5 6.5q-52 0 -104 -31t-96.5 -85
t-84.5 -119.5t-74 -143t-59.5 -145.5t-46.5 -136q130 127 326 127q92 0 164 -26.5t121 -82t60 -141.5t-18 -204q-26 -98 -76 -182.5t-121.5 -150.5t-171 -103.5t-214.5 -37.5zM467 748q-18 -69 -33 -137t-30.5 -159t-17 -166.5t7.5 -143t42 -106t88 -38.5q59 0 109.5 24
t88.5 64.5t70.5 100.5t56 123.5t44.5 142.5q33 128 33.5 217t-49.5 136.5t-154 47.5q-63 0 -133.5 -24t-122.5 -82z" />
    <glyph glyph-name="seven" unicode="7" horiz-adv-x="1048" 
d="M371 2h-246q32 120 95.5 235.5t137 204t167 181t173.5 160t169 147.5t143 137q140 151 152 248q11 87 -95 97l-27 1q-110 0 -199 -16.5t-172 -55t-150.5 -84t-162.5 -120.5q-12 -9 -18 -4q-3 3 2 10q57 77 77.5 108t39 77.5t26.5 105.5h797q52 0 56 -15q5 -25 -96 -134
q-51 -56 -159 -167q-184 -191 -281 -311q-319 -394 -429 -805z" />
    <glyph glyph-name="eight" unicode="8" horiz-adv-x="1232" 
d="M939 1458q268 0 384 -121q86 -91 55.5 -215t-161.5 -218q-179 -128 -450 -130q-10 0 -8 11q4 9 12 10q153 5 267 133q95 107 115 241q21 137 -52 211q-57 58 -162 58q-157 0 -272 -135q-96 -112 -118 -257.5t46 -226.5q55 -65 156 -65q261 0 373 -131q87 -101 55 -242
q-32 -140 -164 -248q-175 -142 -434 -152q-19 -1 -37 -1q-257 0 -368 127q-85 98 -55 234q31 135 161 237q176 138 440 143h8q7 0 9.5 -4.5t0.5 -9.5t-8 -5q-153 -5 -267 -142q-95 -116 -117 -265t47 -231q54 -64 153 -64q151 0 270 139q102 117 132 271q30 157 -35 247
q-56 76 -168 76q-259 0 -370 126q-86 96 -55 228t161 233q178 135 446 138h10z" />
    <glyph glyph-name="nine" unicode="9" horiz-adv-x="1146" 
d="M879 1458q113 0 191.5 -38.5t119.5 -105t54.5 -162t1.5 -203.5t-46 -234t-79.5 -233t-109.5 -201.5t-140.5 -161t-175.5 -104.5t-212 -38q-170 0 -265.5 77.5t-63.5 195.5q19 70 70 106.5t108 36.5q61 0 84.5 -38.5t-15.5 -108.5q-36 -56 -46 -101t0 -71.5t32.5 -44.5
t47 -24.5t48.5 -6.5q52 0 104 31t96.5 85t84.5 119.5t74 142.5t59.5 145t46.5 136q-130 -127 -327 -127q-92 0 -164 27t-120.5 82.5t-59.5 141.5t18 204q26 98 76 182t122 150t171.5 103.5t214.5 37.5zM956 688q18 69 33 137t30.5 159t17 166.5t-7.5 143t-42 106t-88 38.5
q-59 0 -109.5 -24t-88.5 -64.5t-70.5 -100.5t-56 -123.5t-44.5 -142.5q-34 -128 -34.5 -217t50 -136.5t154.5 -47.5q63 0 133.5 24t122.5 82z" />
    <glyph glyph-name="colon" unicode=":" horiz-adv-x="753" 
d="M233 928q15 55 64.5 94t105.5 39q55 0 83.5 -38.5t13.5 -94.5q-13 -55 -62.5 -94t-105.5 -39q-55 0 -84 38.5t-15 94.5zM33 172q13 55 62.5 94t105.5 39q55 0 83.5 -38.5t14.5 -94.5q-15 -55 -64.5 -94t-105.5 -39q-55 0 -83 38.5t-13 94.5z" />
    <glyph glyph-name="semicolon" unicode=";" horiz-adv-x="862" 
d="M342 928q15 55 64.5 94t105.5 39q55 0 83 -38.5t13 -94.5q-13 -55 -62.5 -94t-105.5 -39q-55 0 -83.5 38.5t-14.5 94.5zM238 49q-83 0 -103 62q-17 55 24 116q48 70 134 77q8 1 16 1q69 0 89 -44.5t3 -108.5q-11 -41 -49 -95.5t-88.5 -104t-112.5 -84t-114 -34.5
q-8 0 -9 3q-1 7 17 11q59 11 113.5 76t79.5 125z" />
    <glyph glyph-name="less" unicode="&#x3c;" horiz-adv-x="915" 
d="M436 145q36 -55 -14.5 -109t-114.5 -54q-67 0 -78 65l-98 539l393 534q45 62 107 62q28 0 50.5 -14t32.5 -35.5t0 -50.5t-42 -56l-520 -440z" />
    <glyph glyph-name="equal" unicode="=" horiz-adv-x="1392" 
d="M231 827l43 162h883l-43 -162h-883zM145 504l43 162h883l-43 -162h-883z" />
    <glyph glyph-name="greater" unicode="&#x3e;" horiz-adv-x="854" 
d="M322 1012q-36 55 14.5 109.5t114.5 54.5q66 0 77 -66l101 -539l-393 -534q-48 -62 -109 -62q-28 0 -50.5 14t-32.5 35.5t0 50.5t42 56l522 440z" />
    <glyph glyph-name="question" unicode="?" horiz-adv-x="1445" 
d="M911 1571q229 0 339 -91t65 -259q-20 -74 -66 -144.5t-108 -130t-137.5 -117.5t-156 -112t-161 -108.5t-155.5 -112.5t-136.5 -117t-107.5 -129.5t-66 -143.5q-9 -35 -19 -36t-1 34q21 79 60 150t87.5 126.5t105.5 107t118 99.5t122 96.5t119 104t107.5 116t90.5 139
t64 167.5q40 148 -16.5 244t-165.5 96q-79 0 -151.5 -38t-111.5 -104t-20 -136q18 -63 -29.5 -103.5t-113.5 -40.5q-59 0 -92.5 36t-14.5 104q81 303 551 303zM111 -266q-80 0 -98 64q-16 59 25 122q48 72 130 79q7 1 14 1q80 0 98 -64q16 -59 -25 -122q-48 -72 -130 -79z
" />
    <glyph glyph-name="at" unicode="@" horiz-adv-x="2140" 
d="M1307 1583q128 0 239 -32t200 -97.5t142 -164t63.5 -231t-34.5 -300.5q-41 -150 -125 -278t-197 -204q-183 -126 -284 -126q-34 0 -48.5 15.5t-7.5 43.5l45 170q-40 -91 -168.5 -161.5t-277.5 -70.5q-185 0 -255 104q-56 84 -16 194q41 111 156 182q114 69 262 69
q126 0 245.5 45t180.5 109l7 29q20 78 22.5 141.5t-13 114.5t-59 79.5t-112.5 28.5q-92 0 -144.5 -61t-27.5 -117q26 -59 -23 -99t-119 -40q-60 0 -93.5 34t-16.5 101q6 24 20.5 48.5t47 53t78 50.5t119.5 36.5t165 14.5q174 0 262.5 -44t108.5 -143.5t-27 -261.5l-127 -477
q-9 -32 -1.5 -52t30.5 -20t61 25q110 75 189.5 196.5t117.5 264.5q68 259 4.5 435t-209 266.5t-339.5 90.5q-113 0 -226.5 -31.5t-225 -98t-207 -161.5t-173 -232t-121.5 -300q-48 -174 -32 -322t80 -256t180.5 -169.5t267.5 -61.5q129 0 262 41q11 3 11 -7q0 -9 -9 -12
q-151 -47 -309 -47q-172 0 -316 59.5t-238.5 169t-126.5 266t19 349.5q44 162 132 302t201 239.5t246.5 170.5t271.5 105.5t272 34.5zM1004 215q64 10 125.5 46.5t102 80t66.5 82.5t31 61l92 342q-50 -56 -148 -101t-179 -56q-142 -21 -224 -134q-66 -91 -57 -187
q8 -92 82 -124q46 -20 109 -10z" />
    <glyph glyph-name="A" unicode="A" horiz-adv-x="1574" 
d="M40 0q-6 -1 -6 6q0 9 12 14q52 18 87 41t65 68l854 1305h217l84 -707q9 -72 24 -198q34 -290 55.5 -391t67.5 -118q10 -4 5.5 -13t-11.5 -7q-112 16 -149 16q-35 0 -160 -16q-6 -1 -7 6q1 11 13 14q72 15 112 110t44.5 239t-13.5 323q-574 -18 -917 -563
q-20 -33 -20.5 -54.5t13 -32.5t42.5 -22q9 -4 5 -13t-12 -7q-125 16 -202 16q-72 0 -203 -16zM1248 1401l-690 -1055q311 352 774 367z" />
    <glyph glyph-name="B" unicode="B" horiz-adv-x="1222" 
d="M-178 0q-11 0 -8 10t14 10q48 -2 88 29t53 80l316 1176q12 50 -11.5 80.5t-72.5 29.5q-9 0 -6 10q0 11 12 11q121 0 261.5 11t260.5 11q124 0 218 -26t145 -68.5t74.5 -97t16 -112t-40.5 -114t-86 -102t-128.5 -75.5t-161.5 -36q187 -4 269 -126q72 -107 34 -258
q-40 -161 -184 -283q-199 -170 -504 -182q-22 -1 -45 -1q-120 0 -256.5 11.5t-257.5 11.5zM715 1438q-27 0 -56 -5t-66 -18.5t-65.5 -43.5t-40.5 -73l-168 -626q31 44 76.5 76t92.5 47.5t67 20t39 7.5q193 24 290 162q75 108 62 235q-13 117 -97 177q-57 41 -134 41z
M555 786q-92 -11 -166 -70t-90 -118l-125 -469q-11 -41 8.5 -69.5t54 -40.5t81.5 -16.5t82.5 -3.5t66.5 5q190 25 292 183q85 131 78 294q-6 151 -88 238q-77 80 -194 67z" />
    <glyph glyph-name="C" unicode="C" horiz-adv-x="1236" 
d="M1016 309q16 18 22 11q3 -5 -2 -11q-83 -84 -141.5 -135.5t-135 -103.5t-156.5 -76.5t-169 -24.5q-243 0 -349 187q-94 167 -55 426q40 257 190 483q162 242 387 342q132 59 274 59q60 0 102.5 -10.5t65.5 -25.5t42.5 -30t45.5 -25.5t61 -10.5q48 0 76 39q13 17 19 8
l1 -8l-100 -369q-2 -10 -7 -14t-9 -0.5t-4 14.5q-1 73 -8.5 132t-28 114.5t-52.5 90.5t-85 51t-123 5q-201 -34 -368 -250q-149 -194 -214.5 -451.5t-10.5 -438.5q55 -180 216 -210q58 -11 129 -1q111 16 198 72.5t189 160.5z" />
    <glyph glyph-name="D" unicode="D" horiz-adv-x="1202" 
d="M-178 0q-11 0 -8 10t14 10q50 0 89 30t52 79l316 1176q12 49 -11 79.5t-73 30.5q-9 0 -6 10q0 11 12 11q121 0 282 10t281 10q187 0 285 -174q93 -165 77 -420q-16 -267 -144 -492q-140 -248 -363 -341q-117 -49 -250 -49q-120 0 -276 10t-277 10zM500 1343l-326 -1214
q-13 -48 28 -80.5t101.5 -43t118.5 -3.5q177 24 306 254q119 211 156 509q36 284 -24 475q-56 178 -178 193q-16 2 -33 1q-47 -2 -92.5 -25t-56.5 -66z" />
    <glyph glyph-name="E" unicode="E" horiz-adv-x="1126" 
d="M336 731h96q44 0 82.5 8t68 21t57.5 35.5t47 43t42 52.5t36 54.5t34.5 59t34.5 56.5q6 9 14 6q6 -3 2 -12q-20 -55 -45.5 -113.5t-43 -105.5t-34.5 -113q-18 -67 -26.5 -116.5t-15 -111.5t-15.5 -116q-5 -10 -11 -12q-10 -3 -10 6q-2 21 -4 57t-3 58.5t-6.5 54.5
t-13.5 52t-24 42.5t-38.5 35.5t-57 21t-78.5 8h-96l-154 -573q-13 -48 31 -78.5t114 -30.5q151 0 245.5 27t173 97t163.5 206q6 9 14 6q7 -4 3 -12l-127 -344h-969q-11 0 -8 10q2 7 14 10q59 15 93.5 39t47.5 70l316 1176q11 46 -11 70.5t-73 39.5q-8 3 -6 10q0 11 12 11
h969l-58 -344l-2 -4q-1 -4 -2.5 -6t-5.5 -3q-10 -3 -10 6q-10 103 -32.5 165t-71.5 100t-118.5 51.5t-183.5 13.5q-74 0 -132.5 -30.5t-70.5 -77.5z" />
    <glyph glyph-name="F" unicode="F" horiz-adv-x="1175" 
d="M174 129q-13 -48 1.5 -70.5t62.5 -38.5q8 -4 6 -10q0 -10 -13 -10q-122 16 -200 16t-209 -16q-11 0 -8 10q2 7 14 10q61 17 95 40.5t46 68.5l316 1176q11 46 -11 70.5t-73 39.5q-8 3 -6 10q0 11 12 11h969l-58 -344l-2 -4q-1 -4 -2.5 -6t-5.5 -3q-10 -3 -10 6
q-8 83 -25 138.5t-45 94t-76 59.5t-109.5 29.5t-152.5 8.5q-73 0 -131 -30.5t-70 -77.5l-153 -576h96q44 0 82.5 8t68 21t57.5 35.5t47 43t42 52.5t36 54.5t34.5 59t34.5 56.5q6 9 14 6q6 -3 2 -12q-20 -55 -45.5 -113.5t-43 -105.5t-34.5 -113q-18 -67 -26.5 -116.5
t-15 -111.5t-15.5 -116q-5 -10 -11 -12q-10 -3 -10 6q-2 21 -4 57t-3 58.5t-6.5 54.5t-13.5 52t-24 42.5t-38.5 35.5t-57 21t-78.5 8h-96z" />
    <glyph glyph-name="G" unicode="G" horiz-adv-x="1206" 
d="M1096 537q19 10 23 2.5t-13 -19.5q-34 -24 -73 -120.5t-55 -201.5t5 -184q3 -8 7 -16q2 -3 1 -3t-5 1q-11 2 -21 4q-88 16 -166 16q-70 0 -188 -23.5t-210 -23.5q-229 0 -325 190q-86 173 -42 441q44 265 191 491q156 240 363 329q106 46 215 46q77 0 132 -16t78.5 -35
t56 -35t71.5 -16q48 0 76 39q13 17 19 8l1 -8l-100 -369q-2 -10 -7 -14t-9.5 -0.5t-4.5 14.5q-1 89 -17 163.5t-49.5 134t-92 87.5t-136.5 15q-185 -31 -337 -257q-139 -208 -198 -491q-59 -279 -5 -470q51 -185 193 -210q21 -4 44 -4q90 0 158.5 56t97.5 159
q36 139 -28.5 225t-176.5 86q-7 0 -4 7q4 7 19 8q68 0 192 -19.5t178 -19.5q85 0 142 33z" />
    <glyph glyph-name="H" unicode="H" horiz-adv-x="1427" 
d="M201 1413q-10 3 -8 10q4 11 14 11q123 -15 211 -15q90 0 219 15q10 0 6 -11q-2 -7 -12 -10q-61 -16 -96 -39t-46 -69l-153 -574h620l152 572q12 47 -9 69.5t-73 40.5q-10 3 -8 10q4 11 14 11q123 -15 211 -15q90 0 219 15q10 0 6 -11q-2 -7 -12 -10q-63 -17 -96.5 -40
t-44.5 -68l-316 -1176q-12 -46 9.5 -69t74.5 -40q10 0 7 -10q0 -10 -13 -10q-128 16 -211 16q-78 0 -219 -16q-8 0 -8 10q3 10 14 10q61 17 95.5 40.5t46.5 68.5l153 573h-620l-154 -573q-12 -46 9.5 -69t74.5 -40q9 0 6 -10q0 -10 -12 -10q-128 16 -211 16q-81 0 -219 -16
q-11 0 -8 10t14 10q61 17 95 40.5t46 68.5l314 1174q12 47 -9 69.5t-73 40.5z" />
    <glyph glyph-name="I" unicode="I" horiz-adv-x="602" 
d="M487 1303l-313 -1174q-13 -46 9.5 -70t74.5 -39q8 -4 6 -10q0 -10 -12 -10q-128 16 -211 16q-81 0 -219 -16q-11 0 -8 10q2 7 14 10q59 15 93.5 39t47.5 70l316 1176q11 45 -10.5 68t-73.5 40q-10 3 -8 10q4 11 14 11q123 -15 211 -15q90 0 219 15q10 0 6 -11
q-2 -7 -12 -10q-63 -17 -97.5 -40t-46.5 -70z" />
    <glyph glyph-name="J" unicode="J" horiz-adv-x="706" 
d="M-170 20q38 2 83.5 22t95 58.5t93.5 107.5t68 157l252 940q11 45 -12 68.5t-74 39.5q-8 4 -6 10q4 11 12 11q194 -15 223 -15t232 15q8 0 4 -11q-2 -6 -10 -10q-61 -16 -97 -39.5t-47 -68.5l-235 -877q-23 -84 -71.5 -159t-120.5 -136t-174.5 -96.5t-221.5 -36.5
q-10 0 -7 10t13 10z" />
    <glyph glyph-name="K" unicode="K" horiz-adv-x="1210" 
d="M504 848l203 153q401 311 341 387q-14 18 -51 25q-10 3 -8 10q5 14 15 11q86 -15 149 -15q65 0 160 15q4 1 6 -2.5t0 -8.5q-2 -7 -12 -10q-7 -3 -24 -9.5t-25 -10.5t-26.5 -14.5t-43 -28.5t-60.5 -45l-421 -324l100 -852q6 -26 18 -44.5t31.5 -30.5t35.5 -19t44 -15
q6 -5 4 -10q0 -10 -10 -10q-134 16 -219 16q-84 0 -228 -16q-8 0 -8 10q2 7 14 10q60 17 82.5 37.5t16.5 71.5zM489 1305l-315 -1176q-12 -46 9.5 -69t74.5 -40q8 -4 6 -10q0 -10 -12 -10q-128 16 -211 16q-81 0 -219 -16q-11 0 -8 10q2 7 14 10q61 17 95 40.5t46 68.5
l316 1176q11 45 -10.5 68t-73.5 40q-10 3 -8 10q4 11 14 11q123 -15 211 -15q90 0 219 15q10 0 6 -11q-2 -7 -12 -10q-63 -17 -97 -40t-45 -68z" />
    <glyph glyph-name="L" unicode="L" horiz-adv-x="1081" 
d="M489 1307l-315 -1178q-12 -47 27.5 -78t111.5 -31q85 0 150 9t126 30.5t112 59.5t100.5 94.5t99.5 136.5q6 9 14 6q7 -4 3 -12l-127 -344h-969q-11 0 -8 10t14 10q50 0 89.5 31t51.5 80l316 1176q12 46 -10 69.5t-74 38.5q-8 3 -6 10q0 11 12 11q123 -15 211 -15
q90 0 219 15q8 0 8 -11q-2 -6 -14 -10q-60 -15 -95 -38.5t-47 -69.5z" />
    <glyph glyph-name="M" unicode="M" horiz-adv-x="1617" 
d="M-178 0q-11 0 -8 10q2 7 14 10q61 17 95 40.5t46 68.5l350 1307h240l174 -781l602 779q95 -15 158 -15q61 0 160 15q4 1 6 -2.5t0 -8.5q-2 -7 -12 -10q-63 -17 -97 -40t-45 -68l-315 -1176q-13 -46 9.5 -70t74.5 -39q8 -4 6 -10q0 -10 -12 -10q-128 16 -211 16
q-78 0 -219 -16q-9 0 -9 10q2 7 15 10q59 15 93.5 39t47.5 70l336 1257l-760 -985l-227 1014q-7 -31 -23 -104q-26 -113 -40 -179.5t-41 -197t-39 -216.5t-27 -202.5t-12.5 -192.5t12.5 -149t39.5 -110.5t75.5 -40.5q11 -2 12 -12q1 -12 -19 -11q-163 16 -221 16
q-55 0 -229 -16z" />
    <glyph glyph-name="N" unicode="N" horiz-adv-x="1351" 
d="M-186 10q2 7 14 10q61 17 95 40.5t46 68.5l350 1307h238l317 -1416q90 394 107 479q183 900 -35 916q-9 0 -6 10q0 11 12 11q117 -15 213 -15q95 0 221 15q9 0 9 -11q-2 -6 -15 -10q-61 -18 -95 -40.5t-46 -67.5l-350 -1307h-240l-315 1415q-98 -419 -127 -565
q-161 -813 35 -830q9 0 6 -10q0 -10 -12 -10q-118 16 -203 16q-83 0 -211 -16q-11 0 -8 10z" />
    <glyph glyph-name="O" unicode="O" horiz-adv-x="1423" 
d="M842 1466q247 0 353 -190q95 -169 56 -432q-39 -259 -186 -484q-157 -239 -372 -336q-123 -55 -253 -55q-247 0 -353 190q-95 169 -56 432q39 259 186 484q157 239 372 336q123 55 253 55zM557 0q165 18 290 236q118 205 156 497q38 288 -23 486q-60 192 -195 214
q-29 4 -60 1q-165 -18 -290 -236q-118 -205 -156 -497q-38 -288 23 -486q60 -192 195 -214q29 -4 60 -1z" />
    <glyph glyph-name="P" unicode="P" horiz-adv-x="1275" 
d="M770 1458q274 0 391 -139q88 -104 59 -250q-27 -139 -147 -243q-144 -126 -348 -134q-171 -6 -309.5 -93t-169.5 -200l-72 -270q-13 -46 9.5 -70t74.5 -39q8 -4 6 -10q0 -10 -12 -10q-128 16 -211 16q-81 0 -219 -16q-11 0 -8 10q2 7 14 10q59 15 93.5 39t47.5 70
l316 1176q12 49 -11 79.5t-73 30.5q-9 0 -6 10q0 11 12 11q121 0 282 11t281 11zM639 717q183 26 279 174q78 123 67 271q-11 140 -97 217q-65 59 -159 59q-30 0 -62.5 -5.5t-71 -19t-68 -42t-40.5 -68.5l-217 -814q68 96 167.5 155t201.5 73z" />
    <glyph glyph-name="Q" unicode="Q" horiz-adv-x="1423" 
d="M843 1466q247 0 354 -191q95 -169 56 -432q-39 -259 -187 -485q-157 -239 -373 -335q-75 -33 -153 -46q35 -19 69 -56.5t59 -75.5t51 -73.5t57.5 -58t66.5 -22.5q81 0 186 114q8 8 14.5 2.5t-0.5 -14.5q-95 -122 -176 -178.5t-174 -56.5q-54 0 -102 33.5t-83.5 81
t-69 94.5t-75 80.5t-86.5 33.5q-64 0 -143 -71q-9 -7 -15.5 -1t1.5 15q101 118 213 156q-198 43 -274 240q-72 191 -11 456q61 264 222 473q181 233 415 296q78 21 158 21zM558 0q165 18 290 236q118 205 156 497q38 288 -23 486q-60 192 -195 214q-29 4 -60 1
q-165 -18 -290 -236q-118 -205 -156 -497q-38 -288 23 -486q60 -192 195 -214q29 -4 60 -1z" />
    <glyph glyph-name="R" unicode="R" horiz-adv-x="1275" 
d="M-178 0q-11 0 -8 10q2 7 14 10q59 15 93.5 39t47.5 70l316 1176q12 49 -11 79.5t-73 30.5q-9 0 -6 10q0 11 12 11q121 0 282 11t281 11q274 0 391 -139q88 -105 59 -251q-29 -139 -149 -243q-138 -118 -330 -131l66 -565q2 -21 11.5 -38t19.5 -27t30.5 -19.5t31 -13
t36.5 -11.5q6 -3 4 -10q0 -10 -10 -10q-134 16 -219 16q-84 0 -228 -16q-8 0 -8 10q2 7 14 10q60 17 82.5 37.5t16.5 71.5l-62 524q-107 -38 -182.5 -107t-97.5 -147l-72 -270q-13 -46 9.5 -70t74.5 -39q8 -3 6 -10q0 -10 -12 -10q-128 16 -211 16q-81 0 -219 -16zM729 1438
q-30 0 -62.5 -5.5t-71 -19t-68 -42t-40.5 -68.5l-217 -814q68 96 167.5 155t201.5 73q183 26 279 174q78 123 67 271q-11 140 -97 217q-65 59 -159 59z" />
    <glyph glyph-name="S" unicode="S" horiz-adv-x="1277" 
d="M1040 287q-16 -59 -50 -108t-76.5 -81.5t-96 -57t-103.5 -38t-105.5 -22t-95.5 -11t-79 -2.5q-93 0 -169 16t-114.5 35.5t-78 35.5t-68.5 16q-54 0 -84 -39q-12 -16 -19 -9q-3 3 -1 9l102 385q3 10 8 13t9 -0.5t4 -12.5q11 -108 38 -187.5t61 -124t79.5 -71t84.5 -34
t85 -7.5q171 0 288.5 95.5t153.5 225.5q58 221 -190 383q-34 22 -75.5 46.5t-75.5 43t-72 40.5t-68 40.5t-60 40.5t-51 43.5t-38.5 47.5t-25.5 53t-8.5 60t9.5 69q17 62 54.5 110.5t88.5 78.5t104 50.5t111.5 30t99.5 13t80 3.5q103 0 206 -25.5t176.5 -51t105.5 -25.5
q45 0 73 39q10 16 19 9q2 -4 2 -9l-104 -385q-2 -9 -6.5 -12.5t-9 -0.5t-5.5 13q-28 217 -128.5 317.5t-242.5 100.5q-38 0 -79 -6.5t-90.5 -24t-91 -45t-77 -75t-51.5 -107.5q-10 -39 -10.5 -74t9 -65.5t24 -57t39 -52t48 -46t57 -43.5t60 -40t63.5 -40.5t62 -40.5
q17 -11 50.5 -33t53.5 -35.5t51 -36t49 -41t41 -44t34 -50.5t20 -55.5t7.5 -64.5t-11.5 -72z" />
    <glyph glyph-name="T" unicode="T" horiz-adv-x="1433" 
d="M127 1090l127 344h1180l-58 -342l-2 -4q-1 -4 -2.5 -6t-5.5 -3q-10 -3 -10 6q-4 51 -12.5 92.5t-29 88t-52 77.5t-84.5 51.5t-123 20.5q-59 0 -95 -29.5t-49 -78.5l-315 -1178q-13 -48 1.5 -71.5t61.5 -37.5q9 -4 7 -10q0 -10 -13 -10q-115 16 -190 16q-71 0 -199 -16
q-8 0 -8 10q2 6 14 10q54 14 81 37.5t40 71.5l316 1176q27 108 -86 108q-70 0 -134 -20.5t-112 -51.5t-93.5 -77.5t-76.5 -88t-62 -92.5q-6 -9 -14 -6q-7 2 -2 13z" />
    <glyph glyph-name="U" unicode="U" horiz-adv-x="1359" 
d="M209 1413q-5 1 -6.5 4t-1 6t2.5 5.5t5 4.5t6 1q123 -15 211 -15q90 0 219 15q8 2 8 -8q-1 -10 -14 -13q-61 -15 -95.5 -38.5t-45.5 -69.5l-287 -1072q-19 -70 20.5 -121.5t113.5 -75.5t167 -24q146 0 268 58.5t150 162.5q32 117 59 240.5t50 258t31.5 253t3 214.5
t-35.5 154t-84 62q-13 2 -7 14q5 7 11 7q120 -15 216 -15t219 15q8 2 8 -7q1 -10 -12 -14q-63 -17 -97.5 -40t-46.5 -68l-287 -1074q-24 -89 -102.5 -150.5t-178 -87.5t-214.5 -26q-130 0 -241 32t-174 93.5t-42 138.5l285 1070q13 47 -8.5 71t-73.5 39z" />
    <glyph glyph-name="V" unicode="V" horiz-adv-x="1550" 
d="M459 1303l151 -1272l453 688q237 365 275 555q25 122 -46 137q-7 2 -7.5 7.5t3 10t8.5 3.5q108 -15 152 -15t158 15q8 2 8 -7q0 -10 -12 -14q-56 -18 -135.5 -124t-280.5 -413q-71 -108 -111 -169l-463 -707h-184l-156 1305q-4 45 -26.5 67.5t-65.5 40.5q-6 3 -6.5 8.5
t3 9.5t7.5 3q117 -15 183 -15q67 0 190 15q9 1 9 -7q-1 -9 -13 -14q-53 -17 -75.5 -39t-18.5 -69z" />
    <glyph glyph-name="W" unicode="W" horiz-adv-x="2406" 
d="M180 1411q-8 4 -4.5 13.5t10.5 7.5q117 -15 199 -15q84 0 207 15q7 1 7 -6q-1 -10 -13 -15q-53 -17 -74.5 -39t-17.5 -69l149 -1272l453 688q65 99 108 203.5t59 202.5t-13.5 176t-106.5 112q-9 4 -4 13q6 8 18 6q80 -15 232 -15q148 0 272 15q6 1 7 -6q1 -10 -13 -15
q-49 -15 -96 -59t-77.5 -85.5t-118.5 -174.5q-13 -19 -20 -29l123 -1032l453 688q225 341 272 536q34 139 -43 156q-6 2 -6.5 7.5t3 10t7.5 3.5q108 -15 152 -15t158 15q8 2 8 -7q-1 -9 -12 -14q-56 -18 -135.5 -124t-280.5 -413q-71 -108 -111 -169l-463 -707h-217l-92 782
q-86 -130 -257 -391t-257 -391h-217l-154 1305q-5 45 -28 67.5t-66 40.5z" />
    <glyph glyph-name="X" unicode="X" horiz-adv-x="1370" 
d="M-178 0q-8 -1 -8 6q2 11 14 14q72 13 96 24q43 21 109 85l502 485l-197 691q-31 108 -129 108q-8 0 -5 11q3 10 11 10h461q10 0 7 -11q-3 -10 -13 -10q-53 0 -83 -29t-16 -79l129 -459q500 502 343 560q-12 5 -27 7q-6 1 -7 6.5t2.5 10.5t10.5 4q136 -11 186 -11
q47 0 205 11q8 1 7 -7q-1 -12 -13 -14q-4 -1 -22 -4l-21 -3.5t-17.5 -3.5t-18.5 -5.5t-16.5 -7t-18.5 -9t-18 -12t-22 -16.5t-23 -21t-28 -26l-495 -480l198 -696q14 -48 45 -70.5t84 -38.5q8 -3 4.5 -11.5t-10.5 -8.5q-138 16 -227 16q-87 0 -234 -16q-7 -1 -8 6
q-1 9 14 14q63 18 88 39.5t11 69.5l-133 465q-441 -448 -395 -544q12 -24 55 -30q6 -1 7 -6.5t-2.5 -10t-10.5 -3.5q-92 10 -177 10q-87 0 -194 -10z" />
    <glyph glyph-name="Y" unicode="Y" horiz-adv-x="1443" 
d="M188 1413q-5 1 -5.5 6t2.5 10t8 5q123 -15 231 -15q111 0 240 15q12 0 6 -11q-4 -7 -13 -10q-64 -18 -89.5 -40t-8.5 -68l213 -584q411 454 427 604q8 75 -77 88q-11 2 -7 13q3 9 13 8q136 -11 175 -11q38 0 196 11q8 1 7 -7q-1 -12 -13 -14q-38 -7 -101.5 -57
t-146 -136.5t-153.5 -165.5t-167.5 -190t-144.5 -164l-157 -571q-11 -45 11 -68.5t73 -40.5q9 -3 6 -12.5t-13 -9.5q-96 16 -211 16q-112 0 -219 -16q-10 0 -6 11q3 8 12 11q62 17 96.5 40t45.5 69l141 514l-244 662q-17 46 -46.5 68t-80.5 40z" />
    <glyph glyph-name="Z" unicode="Z" horiz-adv-x="1452" 
d="M1163 426q6 9 15 6q6 -3 2 -12l-148 -420h-1153l1208 1305q61 66 46 86t-130 22h-53q-100 0 -171 -5t-144.5 -20.5t-130 -43t-115.5 -72.5t-112 -110t-109 -154q-6 -10 -14 -7q-7 2 -2 13l147 420h1153l-1206 -1305q-60 -65 -49 -86q12 -21 120 -23h62q99 0 170.5 5
t145.5 20.5t131 43.5t115.5 73t112 110t109.5 154z" />
    <glyph glyph-name="bracketleft" unicode="[" horiz-adv-x="907" 
d="M485 1544h433l-7 -20h-227l-430 -1612h227l-6 -21h-432z" />
    <glyph glyph-name="backslash" unicode="\" horiz-adv-x="1101" 
d="M455 -113l-64 1657l193 2l65 -1652z" />
    <glyph glyph-name="bracketright" unicode="]" horiz-adv-x="753" 
d="M309 -109h-432l4 21h230l430 1612h-228l6 20h433z" />
    <glyph glyph-name="asciicircum" unicode="^" horiz-adv-x="1363" 
d="M403 1485q-41 -27 -69 -27q-45 0 -66.5 43t0 94t84.5 70l475 141l398 -141q49 -25 44 -70.5t-49.5 -90t-89.5 -44.5q-32 0 -51 25l-258 301z" />
    <glyph glyph-name="underscore" unicode="_" horiz-adv-x="1302" 
d="M2 -291l43 162h926l-43 -162h-926z" />
    <glyph glyph-name="grave" unicode="`" horiz-adv-x="518" 
d="M301 1724l203 -221q12 -12 13 -20t-5.5 -9t-15.5 1l-355 114q-34 10 -5 60q27 49 77 77q27 15 49 15q25 0 39 -17z" />
    <glyph glyph-name="a" unicode="a" horiz-adv-x="1290" 
d="M1003 283q-2 -7 -8 -30.5t-8.5 -35.5t-6 -33t-1.5 -32.5t6.5 -24.5t15.5 -19t28 -6q51 0 96.5 53.5t73.5 127.5q3 6 9 6.5t10 -3.5t2 -10q-10 -31 -27 -67.5t-46 -80t-62.5 -78t-80 -58t-94.5 -23.5q-41 0 -70.5 17.5t-43.5 44t-19.5 60t-3 64t9.5 56.5
q-16 -26 -39.5 -53.5t-65 -62.5t-90 -62t-117 -45.5t-142.5 -18.5q-185 0 -255 104q-56 84 -16 194q41 111 156 182q114 69 262 69q126 0 245.5 45t180.5 109q42 156 44 224q4 169 -163 169q-52 0 -99 -18t-79 -48t-50.5 -66.5t-16 -76.5t27.5 -74q-25 -41 -69 -68.5
t-97 -27.5q-78 0 -100 60q-23 64 32 144q73 109 235 161q108 34 241 34q220 0 287.5 -102.5t1.5 -345.5zM896 649q-48 -55 -146.5 -100.5t-179.5 -56.5q-142 -20 -225 -136q-68 -95 -61 -195q7 -96 81 -131q45 -21 109 -12q56 8 115 41t101 73t70.5 76.5t33.5 55.5z" />
    <glyph glyph-name="b" unicode="b" horiz-adv-x="1165" 
d="M229 86l-227 -86l344 1284q7 26 -17 45.5t-73 36.5q-11 3 -7.5 11.5t11.5 8.5q83 -9 166 3t124 29l42 16l-156 -580q40 95 149 164t257 69q171 0 242 -149q66 -139 23 -349q-44 -217 -179 -384q-161 -200 -380 -232q-39 -6 -79 -6q-68 0 -118 19t-73.5 41.5t-48.5 58.5z
M657 1010q-74 -11 -148.5 -87.5t-100.5 -174.5l-148 -551q-11 -39 -3.5 -70.5t28.5 -49t49.5 -29.5t60.5 -13t62 2q162 25 280 210q104 164 129 372q25 199 -39 309q-57 100 -170 82z" />
    <glyph glyph-name="c" unicode="c" 
d="M670 1057q-136 -31 -245 -206q-105 -168 -134 -374q-31 -215 42 -334q62 -100 185 -98q191 2 418 242q10 9 16.5 2.5t-2.5 -17.5q-155 -170 -285.5 -237.5t-267.5 -67.5q-215 0 -304 160q-79 139 -38 348q39 207 174 372q154 190 364 230q51 10 103 10q248 0 334 -113
q56 -73 23 -161q-26 -74 -96 -109q-37 -18 -78 -18q-53 0 -82.5 27.5t-32.5 68.5q43 34 64.5 77.5t18.5 82.5t-22 70t-60.5 44t-94.5 1z" />
    <glyph glyph-name="d" unicode="d" horiz-adv-x="1261" 
d="M1016 1284q7 26 -17 45.5t-73 36.5q-11 3 -7.5 11.5t11.5 8.5q83 -9 166 3t124 29l42 16l-310 -1151q-24 -91 -25 -118q-2 -63 50 -63q51 0 95 53t75 128q4 9 13.5 5.5t6.5 -12.5q-10 -31 -27 -67.5t-45.5 -80t-62 -78t-79 -58t-93.5 -23.5q-52 0 -85 26.5t-43.5 67
t-10.5 80.5t10 74q-144 -250 -412 -250q-178 0 -244 158q-61 147 -9 367q51 219 183 384q150 188 334 209l42 2q76 0 132.5 -21t86.5 -56t44 -74t13 -82zM696 1022q-160 -24 -277 -213q-102 -167 -129 -381q-25 -201 34 -310q51 -93 151 -77q91 15 176.5 108t112.5 197
l102 383q39 153 -19 230t-151 63z" />
    <glyph glyph-name="e" unicode="e" 
d="M398 -33q-217 0 -306 161q-78 139 -37 348q41 207 176 372q155 189 365 229q50 10 101 10q233 0 323 -116q64 -83 32 -188q-30 -97 -121 -152q-52 -31 -113 -39q-30 -4 -94.5 -4t-122.5 -2.5t-121 -11.5t-113 -36t-77 -71q-15 -87 -9.5 -164.5t27.5 -135t72.5 -90.5
t124.5 -32q203 2 430 242q10 9 16.5 2.5t-2.5 -17.5q-155 -170 -285 -237.5t-266 -67.5zM673 1063q-87 -17 -166.5 -102.5t-132 -203.5t-76.5 -247q33 47 96 81.5t121.5 50t125.5 34t97 33.5q33 17 59 47.5t39 66.5t18 74t-5.5 71.5t-31 58.5t-58 35t-86.5 1z" />
    <glyph glyph-name="f" unicode="f" horiz-adv-x="964" 
d="M515 1004l-248 -979q-37 -144 -129 -226t-205 -82q-41 0 -73.5 12t-50 27.5t-29 35.5t-15 31t-4.5 19q-2 25 7 24q5 -1 8 -9q26 -82 110 -82q112 0 158 186l266 1043h-112q-10 0 -8.5 10t12.5 10h112q33 118 44 148q88 230 306 274q53 10 113 10q194 0 254 -99
q41 -69 1 -151q-34 -72 -105 -101q-33 -13 -66 -13q-51 0 -79.5 28t-28.5 70q64 52 82 115.5t-19 102.5t-117 24q-72 -14 -125 -63t-75 -109.5t-17.5 -125t37.5 -110.5h254q10 0 8 -10t-12 -10h-254z" />
    <glyph glyph-name="g" unicode="g" horiz-adv-x="1161" 
d="M104 -272q97 -97 242 -97q68 0 120.5 23t90 69t63 102.5t46.5 135.5l63 240q-40 -96 -149 -165t-256 -69q-171 0 -242 149q-67 139 -24 349q44 216 178 384q161 200 379 232q39 6 79 6q99 0 151 -31t91 -87l225 86l-274 -1030q-32 -119 -86 -206t-121.5 -135.5
t-138.5 -71t-150 -22.5q-181 0 -303 125q-4 4 -1.5 9t7.5 6.5t10 -2.5zM709 1018q-163 -25 -281 -210q-103 -163 -129 -371q-25 -199 38 -310q58 -100 171 -82q74 11 149 87.5t101 174.5l147 551q10 39 2.5 70.5t-28 49t-49 29.5t-60 13t-61.5 -2z" />
    <glyph glyph-name="h" unicode="h" horiz-adv-x="1267" 
d="M346 1284q7 26 -17 45.5t-73 36.5q-11 3 -7.5 11.5t11.5 8.5q83 -9 166 3t124 29l42 16l-197 -732q50 106 119 184t141.5 120t140.5 61.5t132 19.5q74 0 121.5 -25.5t66 -72t17 -104.5t-20.5 -129l-127 -473q-2 -7 -6.5 -24t-7 -26.5t-6.5 -26t-5 -27t-1.5 -24t3 -22
t8.5 -16.5t15 -11.5t23 -3.5q52 0 96.5 53t75.5 128q2 6 7 6.5t9 -3.5t2 -10q-10 -31 -26.5 -67.5t-45 -80t-62 -78t-79.5 -58t-94 -23.5q-52 0 -85 26.5t-43.5 67t-10.5 80.5t10 74l131 483q41 155 2.5 224t-123.5 69q-88 0 -177 -70.5t-152.5 -174t-92.5 -213.5l-143 -535
h-205z" />
    <glyph glyph-name="i" unicode="i" horiz-adv-x="688" 
d="M420 1204q-91 0 -115 68q-21 61 21 129q48 77 134 94q20 4 40 4q91 0 115 -68q21 -61 -21 -129q-48 -77 -134 -94q-20 -4 -40 -4zM510 840l-148 -557q-2 -9 -8.5 -31t-10 -35t-7.5 -33.5t-2.5 -32.5t5 -24.5t14.5 -18.5t28 -6q51 0 96.5 53.5t73.5 127.5q4 9 13.5 5.5
t6.5 -12.5q-10 -31 -27 -67.5t-45.5 -80t-62 -78t-79 -58t-93.5 -23.5q-52 0 -85.5 26.5t-45 67t-11.5 80.5t9 74l152 557q2 7 6.5 24t7 26.5t6.5 26t5 27t1.5 23.5t-3 21.5t-8.5 16.5t-15 11.5t-23 3.5q-52 0 -96.5 -52t-75.5 -126q-2 -7 -7 -8t-9 2.5t-2 9.5
q10 31 26.5 67.5t45 80t61.5 78t78.5 58t93.5 23.5q53 0 87 -26.5t45 -67t11 -79.5t-8 -74z" />
    <glyph glyph-name="j" unicode="j" horiz-adv-x="641" 
d="M440 1204q-91 0 -115 68q-21 61 20 129q47 77 133 94q20 4 40 4q91 0 115 -68q21 -61 -20 -129q-47 -77 -133 -94q-20 -4 -40 -4zM526 840l-219 -822q-14 -53 -27.5 -93t-34.5 -87t-45.5 -80.5t-60 -66.5t-78.5 -54t-100.5 -34t-126.5 -13q-11 0 -8 11q2 10 12 10
q158 7 248 344l219 819q24 92 25 120q1 60 -49 60q-52 0 -96.5 -52t-75.5 -126q-2 -7 -7.5 -8t-9.5 2.5t-2 9.5q9 31 25.5 67.5t45 80t62 78t79 58t93.5 23.5q52 0 85 -26.5t43.5 -67t10.5 -79.5t-8 -74z" />
    <glyph glyph-name="k" unicode="k" horiz-adv-x="1232" 
d="M207 0h-205l340 1284q6 26 -18.5 46t-73.5 36q-10 3 -6 11.5t12 8.5q82 -9 165 3t125 29l42 16zM567 217l-39 330q101 73 201 160q256 218 198 276q-14 14 -48 21q-9 4 -7 10q4 13 13 10q80 -14 149 -14q72 0 160 14q4 1 7 -2t1 -8q-2 -7 -14 -10q-6 -3 -22.5 -9.5
t-24.5 -10.5t-26.5 -15t-43.5 -29t-61 -45l-277 -213l45 -397q1 -9 3 -31t3.5 -35.5t5 -33.5t8.5 -32.5t12.5 -25.5t18.5 -19t25 -6q44 0 87 53.5t73 127.5q2 6 7 6.5t9 -3.5t2 -10q-10 -31 -26.5 -67.5t-45 -80t-61.5 -78t-78.5 -58t-93.5 -23.5q-27 0 -49.5 8t-37.5 19
t-27 31t-18.5 35.5t-12 41.5t-7.5 40t-4.5 40t-3.5 33z" />
    <glyph glyph-name="l" unicode="l" horiz-adv-x="542" 
d="M543 1434l-307 -1151q-24 -90 -25 -114q-5 -67 49 -67q51 0 95 53t75 128q3 6 9 6.5t10 -3.5t2 -10q-10 -31 -27 -67.5t-46 -80t-62.5 -78t-79 -58t-93.5 -23.5q-42 0 -72 18t-44.5 45.5t-20.5 62t-3.5 65.5t9.5 57l285 1067q7 26 -17 45.5t-73 36.5q-11 3 -7.5 11.5
t11.5 8.5q83 -9 166 3t125 29z" />
    <glyph glyph-name="m" unicode="m" horiz-adv-x="2043" 
d="M72 0l213 774q25 94 24 124q0 56 -49 56q-52 0 -96.5 -52t-75.5 -126q-2 -7 -7 -8t-9 2.5t-2 9.5q9 31 25.5 67.5t45 80t62 78t79 58t93.5 23.5q52 0 85.5 -26.5t44.5 -66.5t10.5 -80t-9.5 -74l-41 -138q50 105 118.5 183.5t140.5 120.5t138 61.5t127 19.5
q279 0 178 -385q50 106 119 184t141.5 120t140.5 61.5t132 19.5q74 0 121.5 -25.5t66 -72t17 -104.5t-20.5 -129l-127 -473l-6 -24t-6.5 -26.5t-6 -26.5t-4 -26.5t-0.5 -24t3 -22t8.5 -16.5t15.5 -11.5t23 -3.5q51 0 96.5 53.5t73.5 127.5q4 9 13.5 5.5t6.5 -12.5
q-10 -31 -27 -67.5t-45.5 -80t-62 -78t-79 -58t-93.5 -23.5q-52 0 -85 26.5t-43.5 67t-10.5 80.5t10 74l127 483q19 84 19 140t-20.5 90t-50 48.5t-69.5 14.5q-88 0 -177 -70.5t-152.5 -174t-92.5 -213.5l-141 -535h-205l187 700q39 154 2.5 223.5t-117.5 69.5
q-84 0 -174.5 -70t-157.5 -175t-96 -213l-144 -535h-204z" />
    <glyph glyph-name="n" unicode="n" horiz-adv-x="1339" 
d="M257 954q-51 0 -95 -52t-75 -126q-6 -13 -16 -7q-6 4 -4 11q10 31 27 67.5t45.5 80t62 78t79 58t93.5 23.5q52 0 85.5 -26.5t44 -66.5t10 -80t-10.5 -74l-37 -138q41 85 94.5 153t107.5 110.5t114 70.5t112.5 39.5t103.5 11.5q74 0 122 -25.5t66 -72t17 -104.5t-20 -129
l-127 -473q-24 -90 -25 -114q-5 -67 49 -67q51 0 95 53t75 128q3 6 9 6.5t10 -3.5t2 -10q-10 -31 -27 -67.5t-45.5 -80t-62 -78t-79 -58t-93.5 -23.5q-42 0 -72 18t-44.5 45.5t-20.5 62t-3.5 65.5t9.5 57l129 483q31 110 17.5 175t-48 91.5t-88.5 26.5q-88 0 -177 -70.5
t-152 -174t-93 -213.5l-143 -535h-205l211 774q24 93 24 123q-3 56 -51 57z" />
    <glyph glyph-name="o" unicode="o" horiz-adv-x="1159" 
d="M728 1087q234 0 332 -162q83 -138 43 -343q-39 -203 -177 -367q-160 -190 -377 -234q-59 -12 -120 -12q-232 0 -331 161q-84 137 -47 342q38 202 174 366q158 190 378 236q62 13 125 13zM546 0q139 24 231 207q86 173 95 400q8 223 -66 350q-71 122 -195 100
q-139 -24 -231 -207q-86 -173 -95 -400q-8 -223 66 -350q71 -122 195 -100z" />
    <glyph glyph-name="p" unicode="p" horiz-adv-x="1269" 
d="M205 -408l-205 -2l317 1182q2 10 8 31t9 35t6.5 33t2.5 32t-5 25t-15 18t-28 6q-52 0 -96.5 -52t-75.5 -126q-2 -7 -7.5 -8t-9.5 2.5t-2 9.5q10 31 26.5 67.5t45.5 80t62.5 78t79.5 58t94 23.5q52 0 84.5 -26.5t43 -67t10 -79.5t-8.5 -74q143 249 411 249q177 0 243 -157
q62 -146 10 -367q-51 -219 -183 -384q-150 -188 -334 -210q-22 -2 -43 -2q-61 0 -110 14.5t-79.5 37.5t-50 54t-27.5 62.5t-7 65.5zM575 33q159 24 276 213q102 167 129 381q25 202 -35 311q-51 92 -150 76q-90 -14 -175 -107.5t-114 -197.5l-103 -383q-29 -110 -5 -177.5
t71.5 -96t105.5 -19.5z" />
    <glyph glyph-name="q" unicode="q" horiz-adv-x="1161" 
d="M569 -410l162 611q-40 -96 -149.5 -165t-257.5 -69q-171 0 -242 149q-66 139 -23 349q44 217 180 385q161 199 379 231q39 6 78 6q99 0 151 -31t89 -85l225 84l-385 -1465h-207zM711 1018q-164 -25 -282 -211q-103 -164 -129 -372q-24 -199 39 -309q57 -99 169 -81
q74 12 149.5 88.5t102.5 173.5l145 551q11 39 3.5 70.5t-27.5 49t-48.5 29.5t-60 13t-61.5 -2z" />
    <glyph glyph-name="r" unicode="r" horiz-adv-x="1269" 
d="M282 0h-205l209 774q24 93 24 123q-3 56 -51 57q-52 0 -96.5 -52.5t-73.5 -125.5q-6 -13 -16 -7q-6 4 -4 11q10 31 27 67.5t45.5 80t62 78t79 58t93.5 23.5q52 0 86 -26.5t45.5 -66.5t11.5 -80.5t-10 -73.5l-37 -140q51 107 113 185t127.5 120.5t128.5 62t129 19.5
q180 0 237 -102q42 -74 2 -165q-36 -81 -112 -116q-38 -18 -80 -18q-53 0 -82.5 26.5t-32.5 69.5q42 29 67.5 69.5t28 77t-26.5 62t-87 25.5q-64 0 -128 -33t-115.5 -84.5t-95.5 -116.5t-73.5 -128t-44.5 -119z" />
    <glyph glyph-name="s" unicode="s" horiz-adv-x="1116" 
d="M676 1087q68 0 125.5 -16t89.5 -35t67 -35t62 -16q46 0 74 39q12 16 19 9q3 -3 1 -9l-102 -385q-6 -17 -15 -15q-7 1 -6 15q4 109 -19 193t-65.5 133.5t-95 74.5t-111.5 25q-100 0 -184 -64t-113 -170q-9 -33 -9.5 -63t8 -53t19.5 -42t30.5 -34t36 -26t40 -21t38.5 -15.5
t36 -11.5q241 -77 317.5 -143.5t47.5 -177.5q-15 -56 -47.5 -102t-72 -74t-84 -49t-86 -30.5t-75 -15t-54.5 -5.5l-20 -1q-88 0 -163 16t-115 35.5t-79.5 35.5t-66.5 16q-51 0 -81 -39q-12 -17 -20 -9q-3 3 -1 9l102 385q3 10 8 13t9 -0.5t4 -12.5q14 -209 98.5 -313.5
t200.5 -104.5q104 0 194 76.5t123 199.5q28 103 -22 163.5t-211 109.5q-22 7 -54.5 16t-55.5 15t-53 15.5t-51 17.5t-44.5 20.5t-38.5 25t-29 29.5t-19.5 36.5t-5.5 44.5t7 54q18 67 68 118.5t108 78.5t129 43.5t118.5 21t88.5 4.5z" />
    <glyph glyph-name="t" unicode="t" horiz-adv-x="653" 
d="M258 -51q-79 0 -115 10q-202 53 -116 387l172 658h-93q-10 0 -8 10t13 10q71 0 183.5 80t156.5 151h20l-63 -231h243l-4 -20h-244l-188 -721q-13 -50 -16 -91t1.5 -66t15.5 -43t21.5 -26.5t24 -13.5t19 -5.5t10.5 -0.5q44 0 86.5 25.5t75 66t55 78t37.5 74.5q3 7 8.5 8
t9.5 -3t2 -10q-10 -32 -26.5 -69.5t-45.5 -85t-62.5 -84.5t-79 -62.5t-93.5 -25.5z" />
    <glyph glyph-name="u" unicode="u" horiz-adv-x="1337" 
d="M259 954q-51 0 -95 -52t-75 -126q-6 -13 -16 -7q-6 4 -4 11q10 31 27 67.5t45.5 80t62 78t79 58t93.5 23.5q52 0 85 -26.5t43.5 -67t10.5 -80t-10 -73.5l-137 -516q-20 -84 -20.5 -140t20 -90t49.5 -48.5t69 -14.5q88 0 177 70.5t152.5 174t92.5 213.5l142 535h204
l-196 -741q-2 -9 -8.5 -31t-10 -35t-7.5 -33t-3 -32.5t4.5 -25t14.5 -18.5t28 -6q52 0 96.5 53t73.5 128q3 6 9 6.5t10 -3.5t2 -10q-10 -31 -26.5 -67.5t-45 -80t-62 -78t-79.5 -58t-94 -23.5q-52 0 -84 26.5t-41.5 67.5t-9 80t9.5 74l28 105q-50 -105 -118.5 -183.5
t-141 -120.5t-140 -61.5t-132.5 -19.5q-74 0 -122 25.5t-66 72t-17 104.5t20 129l136 506q2 7 6.5 24t7 26.5t6.5 26t5 27t1.5 23.5t-3 21.5t-8.5 16.5t-15 11.5t-23 3.5z" />
    <glyph glyph-name="v" unicode="v" horiz-adv-x="1216" 
d="M260 954q-51 0 -95 -52t-75 -126q-6 -13 -16 -7q-6 4 -4 11q10 31 27 67.5t45.5 80t62 78t79 58t93.5 23.5q52 0 85 -26.5t43.5 -67t10.5 -80t-10 -73.5l-148 -557q-17 -65 -20 -111.5t4.5 -73.5t26 -42.5t39.5 -20t51 -4.5q88 0 178.5 56t163 152t125.5 223t66 269.5
t-15 292.5h237q-9 -143 -55 -284.5t-114.5 -259t-157 -220t-183 -173t-191.5 -110.5t-183 -40q-272 0 -183 331l136 506q2 7 6.5 24t7 26.5t6.5 26t5 27t1.5 23.5t-3 21.5t-8.5 16.5t-15 11.5t-23 3.5z" />
    <glyph glyph-name="w" unicode="w" horiz-adv-x="1894" 
d="M259 954q-51 0 -95 -52t-75 -126q-6 -13 -16 -7q-6 4 -4 11q10 31 27 67.5t45.5 80t62 78t79 58t93.5 23.5q52 0 85 -26.5t43.5 -67t10.5 -80t-10 -73.5l-137 -516q-20 -84 -20.5 -140t20 -90t49.5 -48.5t69 -14.5q88 0 177 70.5t152.5 174t92.5 213.5l135 508h205
l-200 -753q0 -1 -5 -22t-6.5 -27t-5 -26.5t-2.5 -29t2 -27t6.5 -27t14.5 -21t22 -18.5t32.5 -10.5t43.5 -4.5q90 0 180 56t160 152t120.5 223t61.5 269.5t-16 292.5h237q-11 -171 -71 -338t-151 -299.5t-200 -235.5t-224.5 -158.5t-217.5 -55.5q-62 0 -105 21.5t-63 53
t-28.5 72t-6.5 73t9 60.5l28 105q-50 -105 -118.5 -183.5t-141 -120.5t-140 -61.5t-132.5 -19.5q-74 0 -122 25.5t-66 72t-17 104.5t20 129l136 506q2 7 6.5 24t7 26.5t6.5 26t5 27t1.5 23.5t-3 21.5t-8.5 16.5t-15 11.5t-23 3.5z" />
    <glyph glyph-name="x" unicode="x" horiz-adv-x="1228" 
d="M287 956q-41 0 -89.5 -47t-82.5 -112q-3 -5 -9 -5t-9.5 3.5t-0.5 9.5q22 50 49 95t62.5 86.5t79.5 66t90 24.5q28 0 54 -10t45.5 -24.5t39 -38.5t32 -44.5t27 -51t22 -49t18 -46.5t14.5 -37l41 -106q143 226 247.5 333t212.5 107q45 0 99 -23l-74 -188q-81 51 -133 51
q-68 0 -150.5 -69t-191.5 -236l158 -407q2 -5 9.5 -23t11 -25.5t11 -24t13 -24t14.5 -19.5t17 -17.5t18.5 -10t21.5 -4.5q40 0 85.5 46t80.5 112q6 11 16 5q7 -4 3 -11q-30 -69 -70 -128t-97.5 -102t-115.5 -43q-25 0 -47.5 7t-42 22t-35.5 29t-32 40t-26 41.5t-23 46
t-18 42t-16 41t-12 32.5l-45 115q-70 -110 -124 -184t-112 -135t-113.5 -90t-111.5 -29q-43 0 -98 22l76 189q83 -52 133 -52q68 0 149.5 69t190.5 237l-154 403q-1 3 -7.5 20t-9 22t-8.5 20t-10 21.5t-11 18t-13 16.5t-14 11.5t-16.5 9t-18.5 2.5z" />
    <glyph glyph-name="y" unicode="y" horiz-adv-x="1157" 
d="M264 954q-47 0 -90 -52.5t-74 -125.5q-3 -10 -12.5 -7.5t-7.5 11.5q13 40 37.5 87.5t62 99.5t90.5 86t109 34q29 0 52.5 -10t38.5 -23.5t27.5 -38.5t19 -42.5t12 -48.5t6.5 -43.5t4 -40.5l100 -836q71 108 130 218t105.5 227.5t69.5 220.5t15 195.5t-52 154.5l244 67
q14 -57 -6 -148.5t-69.5 -201.5t-101 -211.5t-122 -218t-109 -178t-84.5 -131.5q-16 -25 -47 -74.5t-50 -78.5t-50 -73t-55 -71t-58 -59t-65 -49.5t-70 -29.5t-80 -12q-45 0 -80 13.5t-56 36.5t-33.5 52.5t-12.5 62t6 65t23 62t39 52.5t52.5 36.5t63.5 13.5q53 0 82.5 -27
t32.5 -70q-66 -46 -90 -118q-23 -70 17 -98q17 -13 46 -13q85 0 159 100q65 87 75 176q9 86 -46 101q-9 2 -20 2l-92 776q-1 6 -2.5 23.5t-3 27t-4 26.5t-5.5 26.5t-7.5 23.5t-10.5 22t-13.5 16t-17.5 11.5t-22 3.5z" />
    <glyph glyph-name="z" unicode="z" horiz-adv-x="1116" 
d="M348 129q-38 -49 -9.5 -79t103.5 -30q73 0 155.5 28.5t177.5 101.5t161 180q6 9 14 6q7 -2 2 -12l-121 -324h-831l768 895q39 49 10.5 79t-104.5 30q-73 0 -155.5 -28.5t-177.5 -101.5t-161 -180q-6 -9 -14 -6q-7 2 -2 12l121 324h831z" />
    <glyph glyph-name="braceleft" unicode="{" horiz-adv-x="880" 
d="M141 729q39 22 66.5 65t43 95t29 114t30.5 124t40.5 123t65.5 114t100 93.5t149.5 63.5t208.5 23v-24q-90 0 -152.5 -43t-95.5 -112t-57 -153t-47 -169.5t-54.5 -158t-91.5 -122t-147 -57.5q83 -8 116.5 -57.5t26.5 -122t-30 -158.5t-45 -170t-26 -153t35.5 -112
t129.5 -43l-12 -24q-117 0 -196 23t-115.5 63.5t-50.5 93.5t-5 114t26 123t36.5 124t32 114t8.5 95t-31 65q-12 9 -7.5 24.5t19.5 24.5z" />
    <glyph glyph-name="bar" unicode="|" horiz-adv-x="772" 
d="M43 -109l442 1653h103l-443 -1653h-102z" />
    <glyph glyph-name="braceright" unicode="}" horiz-adv-x="800" 
d="M604 680q-39 -22 -66 -65t-42.5 -95t-29 -114t-30.5 -124t-40.5 -123t-65.5 -114t-100.5 -93.5t-150 -63.5t-208.5 -23v24q72 0 126 26.5t87.5 72t57.5 104t41.5 124.5t34 132t40 127.5t55 110t83 80.5t120.5 39q-82 8 -115.5 57.5t-26.5 122t30 158t44.5 169.5t25.5 153
t-35.5 112t-129.5 43l13 24q117 0 196 -23t115.5 -63.5t50 -93.5t4.5 -114t-25.5 -123t-36.5 -124t-32.5 -114t-8.5 -95t31 -65q12 -9 8.5 -24.5t-20.5 -24.5z" />
    <glyph glyph-name="asciitilde" unicode="~" horiz-adv-x="1472" 
d="M176 690q105 244 279 244q69 0 158.5 -39t160.5 -85t151 -85t134 -39q71 0 115 64q8 9 16 5t4 -14q-104 -241 -276 -241q-69 0 -158.5 39t-161 85t-152.5 85t-135 39q-72 0 -114 -64q-4 -6 -10 -6.5t-9.5 3t-1.5 9.5z" />
    <glyph glyph-name="uni00A0" unicode="&#xa0;" horiz-adv-x="532" 
 />
    <glyph glyph-name="exclamdown" unicode="&#xa1;" horiz-adv-x="968" 
d="M606 1339q-78 0 -96 64q-17 58 24 122q48 73 129 80q8 1 15 1q79 0 97 -64q17 -58 -25 -122q-47 -73 -128 -80q-8 -1 -16 -1zM61 -205l506 1438q10 23 18 16q4 -3 3 -16l-260 -1438h-267z" />
    <glyph glyph-name="cent" unicode="&#xa2;" 
d="M669 1057q-136 -31 -245 -206q-105 -168 -134 -374q-31 -215 42 -334q62 -100 185 -98q187 2 418 242q10 9 16.5 2.5t-2.5 -17.5q-141 -154 -259.5 -223t-239.5 -80l-68 -254h-102l67 254q-193 19 -268 181q-68 148 -18 357q49 209 189 366q166 187 385 211q6 1 11 1
l76 283h102l-75 -283q219 -13 290 -124q48 -75 10 -160q-32 -72 -103 -102q-33 -13 -68 -13q-53 0 -83 27.5t-32 68.5q43 34 64.5 77.5t18.5 82.5t-22 70t-60.5 44t-94.5 1z" />
    <glyph glyph-name="sterling" unicode="&#xa3;" horiz-adv-x="1482" 
d="M1050 1538q187 0 273 -69.5t50 -202.5q-28 -106 -106.5 -170t-157.5 -64q-43 0 -75 21.5t-44 62.5q118 47 174 151q49 92 20 167q-29 78 -128 84h-13q-38 0 -72.5 -12.5t-62.5 -31t-55 -54t-46.5 -66t-41.5 -84t-36.5 -91.5t-34 -105t-30.5 -107.5t-30 -114.5
q23 -14 92 -64t120 -76t95 -26q60 0 105 62q8 9 16 5t4 -14q-100 -237 -254 -237q-41 0 -89 18.5t-78 36t-77 49.5q-18 -66 -49 -181.5t-49 -182.5q57 -19 131.5 -59.5t130.5 -76t119.5 -63t108.5 -27.5q70 0 114 64q5 6 11 6.5t9.5 -3.5t0.5 -11q-105 -242 -277 -242
q-69 0 -158.5 39t-160.5 85t-152 85t-135 39q-73 0 -115 -64q-8 -12 -17 -5q-4 4 -1 11q77 180 188 226l123 454q-74 10 -127 -67q-8 -12 -17 -5q-4 4 -1 11q90 212 196 252q55 191 115 317t135.5 199t159.5 102t199 29z" />
    <glyph glyph-name="currency" unicode="&#xa4;" horiz-adv-x="1658" 
d="M944 1274q293 0 373 -152l117 80q15 10 32 10q28 0 46.5 -27.5t13 -60.5t-38.5 -47l-139 -63q14 -113 -33 -295q-49 -181 -129 -301l106 -64q15 -9 16.5 -26t-9.5 -35.5t-27 -36t-35.5 -28.5t-36.5 -11q-18 0 -26 10l-78 84q-163 -147 -447 -147q-283 0 -364 145
l-123 -84q-13 -10 -33 -10q-27 0 -45 27.5t-12.5 60.5t37.5 47l143 66q-15 120 35 305q46 174 121 293l-105 63q-22 18 -10.5 48t44.5 58.5t60 28.5q17 0 25 -10l74 -80q159 152 448 152zM653 184q185 0 326 254l-156 168q-20 20 -6 25q11 4 31 -8l170 -103q84 184 112 393
l-233 -106q-19 -8 -31 -8q-13 0 2 13q5 5 15 11l254 174q4 256 -191 256q-196 0 -332 -260l158 -170q19 -19 7 -24q-10 -4 -29 8l-175 104q-84 -195 -102 -393l225 103q36 15 36 4q-1 -9 -21 -23l-244 -166q0 -252 184 -252z" />
    <glyph glyph-name="yen" unicode="&#xa5;" horiz-adv-x="1445" 
d="M188 1495q-4 1 -4 6t3 10t8 5q123 -15 231 -15q111 0 240 15q12 0 6 -11q-4 -7 -13 -10q-64 -18 -89.5 -40t-8.5 -69l213 -583q419 463 427 611q4 69 -77 81q-7 1 -8 6.5t2.5 10.5t9.5 4q136 -11 177 -11q36 0 194 11q9 1 8 -7q-1 -12 -12 -14q-39 -7 -102 -56.5
t-147 -137t-153 -165t-167.5 -191t-143.5 -163.5l-47 -166h219l-43 -161h-219l-33 -119h222l-45 -162h-220l-34 -125q-12 -47 9.5 -70t74.5 -40q8 -3 5 -12t-12 -9q-101 14 -210 14q-108 0 -220 -14q-12 0 -6 11q5 7 13 10q61 18 95 40.5t46 69.5l35 125h-222l43 162h222
l32 119h-223l45 161h221l31 109l-244 661q-17 47 -47 69t-82 40z" />
    <glyph glyph-name="brokenbar" unicode="&#xa6;" horiz-adv-x="772" 
d="M483 956h-176l158 588h176zM23 -109l157 588h176l-157 -588h-176z" />
    <glyph glyph-name="section" unicode="&#xa7;" horiz-adv-x="1261" 
d="M729 418q159 -60 210.5 -121.5t25.5 -155.5q-15 -56 -47.5 -102t-72 -74t-84 -48.5t-86 -30t-75 -15t-54.5 -5.5l-20 -1q-88 0 -162 16t-114 35t-79.5 35t-66.5 16q-51 0 -81 -39q-12 -17 -20 -9q-3 3 -1 9l102 385q3 10 7.5 13t8.5 -0.5t5 -12.5q13 -209 98 -313
t201 -104q102 0 193 76.5t124 199.5q24 90 -9.5 146.5t-143.5 99.5q-29 11 -85.5 26t-103.5 27t-99.5 34.5t-85.5 48.5t-48.5 68.5t-1.5 96.5q16 62 60 110t98.5 76.5t121.5 47.5t124.5 25.5t113.5 6.5q-18 6 -45.5 13t-51.5 12.5t-54.5 14t-54.5 17t-52 21t-46.5 26
t-37.5 32t-25.5 39.5t-10.5 48t7 58q18 67 68 118.5t108 78.5t128.5 43.5t118 21t87.5 4.5q68 0 125.5 -16t89.5 -35t67 -35t62 -16q45 0 74 38q11 16 19 10q4 -3 2 -10l-103 -385q-5 -16 -14 -14q-7 3 -6 14q8 212 -77.5 320t-213.5 108q-99 0 -184 -63.5t-113 -169.5
q-8 -30 -9 -57t3.5 -48t15.5 -40.5t23 -33t30 -26.5t32.5 -21t35.5 -17t33.5 -13t31.5 -10q142 -46 164 -55q194 -76 209 -192q5 -36 -6 -75q-19 -73 -66 -127.5t-108 -83t-110 -42t-99 -19.5zM758 956q-35 7 -60 7q-100 0 -184 -63.5t-111 -168.5q-8 -30 -9.5 -57t2 -48
t15.5 -40.5t22.5 -33t32 -27.5t36.5 -22t42 -19t42.5 -16t44.5 -15q88 21 158.5 92.5t97.5 175.5q24 85 -4.5 139t-124.5 96z" />
    <glyph glyph-name="dieresis" unicode="&#xa8;" horiz-adv-x="1071" 
d="M823 1745q55 0 84 -38.5t15 -94.5q-15 -55 -64.5 -94t-105.5 -39q-55 0 -83.5 38.5t-13.5 94.5q13 55 62.5 94t105.5 39zM426 1745q56 0 84.5 -39t13.5 -94q-15 -56 -64 -94.5t-104 -38.5q-56 0 -84.5 39t-13.5 94q15 56 64 94.5t104 38.5z" />
    <glyph glyph-name="copyright" unicode="&#xa9;" horiz-adv-x="1650" 
d="M961 1360q101 0 187 -32.5t145.5 -90.5t97 -138t41 -175t-22.5 -201q-35 -128 -115 -245.5t-185.5 -203t-233.5 -136t-254 -50.5q-101 0 -188 32.5t-146.5 90.5t-97.5 138t-41.5 174.5t22.5 199.5q35 130 115.5 248t186 203t234 135.5t255.5 50.5zM625 109
q162 0 322.5 82.5t279 224t162.5 307.5q36 128 16.5 240.5t-76.5 196t-155 131.5t-220 48q-163 0 -323.5 -82t-278.5 -224t-162 -310q-25 -102 -21.5 -193.5t40 -168.5t94 -133t141 -87.5t181.5 -31.5zM918 1233q48 0 81 -11t46.5 -24t35 -24t49.5 -11q35 0 50 27
q12 12 14 4q1 -1 0 -4l-66 -248q-2 -6 -5.5 -8.5t-6 -0.5t-2.5 9q-1 62 -10 110t-30 88.5t-61 58t-98 7.5q-147 -25 -264 -193q-106 -152 -138 -340q-31 -191 37 -295q64 -96 200 -77q74 11 133 50t125 108q14 12 17 6q1 -2 -3 -6q-56 -57 -95 -91.5t-90 -69.5t-104 -51
t-112 -16q-177 0 -244 146q-62 132 -14 328q48 197 178 343q156 174 354 184q12 1 23 1z" />
    <glyph glyph-name="ordfeminine" unicode="&#xaa;" horiz-adv-x="980" 
d="M747 1096l-3.5 -14t-4 -15.5t-3.5 -15t-2.5 -15.5t-1 -14t1.5 -12.5t5 -9.5t8.5 -7t13.5 -2q57 0 100 105q1 3 4.5 3.5t6 -1.5t1.5 -6q-7 -23 -21.5 -51t-37 -58t-55 -50t-66.5 -20q-39 0 -59.5 26t-19.5 57.5t6 58.5q-13 -20 -32.5 -41t-52 -45.5t-80 -40t-100.5 -15.5
q-120 0 -156 73q-30 61 13 132q47 79 149 105q37 10 78 10q74 0 143.5 26t104.5 64q7 26 9.5 36t9 36.5t6.5 39.5t0.5 34.5t-6 33t-16.5 24t-28 18t-42 5.5q-78 0 -121 -56.5t-6 -107.5q-32 -55 -97 -55q-52 0 -61 42q-10 48 40 100q80 84 239 90h20q127 0 166.5 -60
t1.5 -200zM685 1309q-30 -32 -86.5 -59t-103.5 -33q-92 -13 -140 -92q-40 -67 -22 -126q18 -61 88 -59l18 2q61 9 120 61.5t65 81.5z" />
    <glyph glyph-name="guillemotleft" unicode="&#xab;" horiz-adv-x="1200" 
d="M961 1016l-474 -459l228 -459q18 -43 0.5 -79.5t-55 -60.5t-74.5 -24q-27 0 -45 16t-21 48l-53 559l352 559q41 64 101 64q37 0 61.5 -23t22 -62t-42.5 -79zM625 1016l-473 -459l227 -459q18 -43 0.5 -79.5t-55 -60.5t-74.5 -24q-27 0 -45 16t-21 48l-53 559l352 559
q41 64 101 64q37 0 61.5 -23t22 -62t-42.5 -79z" />
    <glyph glyph-name="logicalnot" unicode="&#xac;" horiz-adv-x="1390" 
d="M143 666l45 163l967 -2l-160 -600h-102l117 439h-867z" />
    <glyph glyph-name="uni00AD" unicode="&#xad;" horiz-adv-x="1126" 
d="M145 627l50 182h698l-49 -182h-699z" />
    <glyph glyph-name="registered" unicode="&#xae;" horiz-adv-x="1650" 
d="M961 1360q101 0 187 -32.5t145.5 -90.5t97 -138t41 -175t-22.5 -201q-35 -128 -115 -245.5t-185.5 -203t-233.5 -136t-254 -50.5q-101 0 -188 32.5t-146.5 90.5t-97.5 138t-41.5 174.5t22.5 199.5q35 130 115.5 248t186 203t234 135.5t255.5 50.5zM954 1339
q-163 0 -323.5 -82t-278.5 -224t-162 -310q-25 -102 -21.5 -193.5t40 -168.5t94 -133t141 -87.5t181.5 -31.5q162 0 322.5 82.5t279 224t162.5 307.5q36 128 16.5 240.5t-76.5 196t-155 131.5t-220 48zM401 360q-7 0 -4 7q0 4 6 4q32 9 49.5 21t24.5 36l164 610q6 26 -6 42
t-37 16q-7 0 -4 6q0 4 6 4q62 0 146 6t147 6q169 0 220 -95.5t-23 -194t-211 -107.5l32 -293q2 -11 7.5 -20t9.5 -14t16 -10t16 -6.5t19 -6.5q6 0 2 -4q0 -7 -4 -7q-64 9 -115 9q-48 0 -119 -9q-4 0 -4 7q4 4 9 4q32 10 43 20t8 37l-33 272q-56 -20 -95.5 -56t-49.5 -77
l-37 -139q-7 -24 4.5 -36t38.5 -21q4 0 4 -4q-3 -7 -6 -7q-64 9 -111 9q-46 0 -113 -9zM872 1108q-22 0 -45 -5t-48 -22.5t-31 -44.5l-115 -422q35 50 86.5 80.5t105.5 38.5q108 15 156 111q40 80 16 163q-23 78 -90 96q-16 5 -35 5z" />
    <glyph glyph-name="macron" unicode="&#xaf;" horiz-adv-x="1292" 
d="M362 1550l46 162h698l-43 -162h-701z" />
    <glyph glyph-name="degree" unicode="&#xb0;" horiz-adv-x="1083" 
d="M600 1460q-140 0 -187 89q-40 74 3 167q44 95 145 144q71 34 156 34q143 0 190 -90q39 -74 -6 -167q-44 -95 -146 -143q-71 -34 -155 -34zM612 1505q129 0 209 84q63 66 57 141q-7 76 -85 105q-37 14 -88 14q-132 0 -210 -86q-62 -66 -53 -141t86 -104q37 -13 84 -13z
" />
    <glyph glyph-name="plusminus" unicode="&#xb1;" horiz-adv-x="1482" 
d="M233 666l50 182h350l94 350h182l-94 -350h350l-49 -182h-350l-94 -351h-183l95 351h-351zM88 10l45 162h801l-45 -162h-801z" />
    <glyph glyph-name="twosuperior" unicode="&#xb2;" horiz-adv-x="995" 
d="M627 1464q126 0 182 -45t33 -131q-16 -62 -69.5 -115.5t-125.5 -93.5t-145 -76t-146 -79t-112 -86q-16 -18 -19 -31.5t4.5 -19t20.5 -5.5q103 0 227.5 47t208.5 113l8 4q3 -3 0 -6q-64 -81 -76 -168h-376q-12 0 -22 6t-10 23t21 41q30 35 87 73t114 72.5t114 76t101 99
t62 125.5q21 75 -5.5 119.5t-85.5 44.5q-58 0 -102 -39.5t-31 -89.5q8 -30 -17 -49t-60 -19q-32 0 -51 17t-11 49q22 76 99.5 109.5t181.5 33.5z" />
    <glyph glyph-name="threesuperior" unicode="&#xb3;" horiz-adv-x="897" 
d="M371 1147q-33 -11 -33 -7q0 2 14 13q42 29 131.5 113.5t126.5 124.5q12 13 15.5 21t-2 11t-9.5 3.5t-12 0.5q-112 0 -254 -110q-3 -3 -5.5 -2.5t-3 2.5t0.5 4q49 59 63 117h283q58 0 63 -10q5 -9 -12 -27q-20 -20 -75.5 -59t-102 -68.5t-115.5 -72t-75 -46.5
q71 27 133 27q87 0 128.5 -52.5t14.5 -150.5q-26 -101 -105.5 -162t-183.5 -61q-86 0 -122 34.5t-19 96.5q8 31 33 47t53 16q33 0 44 -17t-15 -46q-43 -49 -33.5 -84t53.5 -35q74 0 134 90q57 86 57 178q1 97 -67 118q-16 5 -36 5q-26 0 -67 -12z" />
    <glyph glyph-name="acute" unicode="&#xb4;" horiz-adv-x="933" 
d="M664 1765q25 17 49 17q35 0 58 -34t18 -71.5t-39 -46.5l-414 -114q-21 -5 -19 3q1 9 25 25z" />
    <glyph glyph-name="paragraph" unicode="&#xb6;" horiz-adv-x="1853" 
d="M905 1458q106 0 285 -11t369 -11h176l-414 -1545h-82l408 1524h-99q-6 0 -31.5 1t-39.5 0t-39 -3t-41.5 -9.5t-35.5 -19t-32 -32t-20 -47.5l-344 -1285q-12 -46 10 -69.5t74 -38.5q8 -4 6 -10q-4 -11 -13 -11q-123 15 -211 15q-90 0 -219 -15q-5 0 -7 3.5t-1 7.5
q2 7 14 10q60 15 95 38.5t47 69.5l100 379q31 113 -60 200t-261 93q-196 8 -273 129q-67 103 -22 243q47 145 190 251q193 143 471 143zM637 717q94 -14 162.5 -73t85.5 -155l217 814q6 28 3 49t-18 36t-32.5 25t-40.5 15.5t-42.5 7.5t-37.5 2q-144 0 -284 -130
q-120 -111 -173 -255q-57 -156 6 -250q46 -70 154 -86z" />
    <glyph glyph-name="periodcentered" unicode="&#xb7;" horiz-adv-x="681" 
d="M280 618q-79 0 -98 64q-16 58 24 122q47 73 127 80l16 1q79 0 98 -64q16 -58 -24 -122q-47 -73 -127 -80z" />
    <glyph glyph-name="cedilla" unicode="&#xb8;" horiz-adv-x="624" 
d="M37 -193q-41 -32 -37 -13q1 6 8 18l101 163h59l-76 -127q92 15 127.5 -20t-0.5 -111q-30 -62 -84 -95.5t-121 -33.5q-32 0 -52.5 8.5t-27.5 21.5t-9.5 27t1.5 25q11 39 54 39q20 0 26.5 -10.5t-6.5 -30.5q-23 -32 -16 -53t30 -21q59 0 112 75q48 68 46 125q-2 52 -51 50
q-25 -1 -50 -14.5t-34 -22.5z" />
    <glyph glyph-name="onesuperior" unicode="&#xb9;" horiz-adv-x="768" 
d="M621 1411l-150 -557q-3 -13 2 -23.5t22.5 -19.5t25 -12t31.5 -10q3 -1 5 -1.5t4 -1.5q4 0 4 -6q-3 -6 -8 -6q-105 10 -168 10q-57 0 -174 -10q-4 0 -4 6q3 6 8 6q2 1 19.5 5.5t23 6.5t21 7t22.5 9t17 10.5t15 14t7 15.5l109 406q11 30 2.5 50.5t-37.5 14.5l-152 -25
q-8 0 -4 7q0 6 8 6q46 9 92.5 22.5t77 23.5t81.5 28t81 28q3 1 6 1.5t6.5 1t5.5 -1.5t1 -5z" />
    <glyph glyph-name="ordmasculine" unicode="&#xba;" horiz-adv-x="1187" 
d="M759 1577q181 0 250 -132q59 -115 13.5 -277.5t-167.5 -276.5q-139 -129 -315 -129q-180 0 -249 132q-59 115 -15 277q44 164 166 277q139 129 317 129zM626 784q108 19 176 167q66 143 62 318q-4 173 -75 247q-47 50 -116 38q-108 -19 -176 -167q-65 -143 -61 -318
q4 -173 75 -247q47 -50 115 -38z" />
    <glyph glyph-name="guillemotright" unicode="&#xbb;" horiz-adv-x="1167" 
d="M82 98l473 459l-227 459q-18 43 -0.5 79.5t55 60.5t74.5 24q61 0 67 -64l51 -559l-352 -559q-41 -64 -100 -64q-37 0 -61.5 23t-22 62t42.5 79zM418 98l473 459l-227 459q-18 43 -0.5 79.5t55 60.5t74.5 24q59 0 65 -64l53 -559l-352 -559q-41 -64 -100 -64
q-37 0 -61.5 23t-22 62t42.5 79z" />
    <glyph glyph-name="onequarter" unicode="&#xbc;" horiz-adv-x="1769" 
d="M401 -113l-192 7l952 1652l191 -2zM645 1411l-149 -557q-3 -13 2 -23.5t22.5 -19.5t25 -12t31.5 -10q3 -1 5 -1.5t4 -1.5q4 0 4 -6q-3 -6 -8 -6q-105 10 -168 10q-57 0 -174 -10q-4 0 -4 6q3 6 8 6q2 1 19.5 5.5t23 6.5t21 7t22.5 9t17 10.5t15 14t7 15.5l108 406
q11 30 2.5 50.5t-37.5 14.5l-151 -25q-7 0 -4 7q0 6 8 6q46 9 92.5 22.5t77 23.5t81.5 28t81 28q3 1 5.5 1.5t6 1t5.5 -1t1 -5.5zM1210 471q24 0 78 45t84 94l-88 -331q65 25 109 61q9 7 11 0l-1 -4q-33 -36 -55 -79.5t-27 -76.5h-64l-26 -100q-3 -13 3 -24t19.5 -18.5
t26 -12.5t29.5 -10q7 -2 10 -3q6 0 6 -6q-3 -6 -8 -6q-105 10 -168 10q-59 0 -172 -10q-7 0 -4 6q0 6 8 6q3 1 17 4.5t19.5 5.5t18.5 6t19.5 7t16.5 8.5t15.5 10.5t11 12t7.5 14l27 98l-375 -4q-49 0 -29 47q13 33 51 70t86 73t97.5 76t94 93t66.5 110h156
q-27 -58 -83.5 -107.5t-121.5 -84.5t-129.5 -67t-119.5 -71.5t-78 -83.5q-12 -23 -8 -32t26 -9q202 0 381 45z" />
    <glyph glyph-name="onehalf" unicode="&#xbd;" horiz-adv-x="1792" 
d="M401 -113l-192 7l952 1652l191 -2zM645 1411l-149 -557q-3 -13 2 -23.5t22.5 -19.5t25 -12t31.5 -10q3 -1 5 -1.5t4 -1.5q4 0 4 -6q-3 -6 -8 -6q-105 10 -168 10q-57 0 -174 -10q-4 0 -4 6q3 6 8 6q2 1 19.5 5.5t23 6.5t21 7t22.5 9t17 10.5t15 14t7 15.5l108 406
q11 30 2.5 50.5t-37.5 14.5l-151 -25q-7 0 -4 7q0 6 8 6q46 9 92.5 22.5t77 23.5t81.5 28t81 28q3 1 5.5 1.5t6 1t5.5 -1t1 -5.5zM1206 692q124 0 180.5 -45t34.5 -131q-17 -62 -70 -115.5t-124.5 -93.5t-145 -76t-147 -79t-113.5 -86q-16 -18 -18.5 -31.5t4.5 -19t20 -5.5
q104 0 228.5 46.5t210.5 113.5q4 4 6 4q2 -2 2 -6q-67 -81 -76 -168h-379q-11 0 -20.5 6t-9 23t21.5 41q30 35 87 73t113.5 72.5t113.5 76t101 99t62 125.5q21 74 -6 119t-86 45q-58 0 -101.5 -39.5t-29.5 -89.5q7 -30 -19 -49t-61 -19q-31 0 -49 17t-10 49q14 52 58.5 85
t99 45.5t122.5 12.5z" />
    <glyph glyph-name="threequarters" unicode="&#xbe;" horiz-adv-x="1769" 
d="M399 -113l-190 7l950 1652l193 -2zM412 1147q-33 -11 -33 -7q0 2 14 13q42 29 131.5 113.5t126.5 124.5q12 13 15.5 21t-2 11t-9.5 3.5t-12 0.5q-112 0 -254 -110q-3 -3 -5.5 -2.5t-3 2.5t0.5 4q49 59 63 117h283q58 0 63 -10q5 -9 -12 -27q-20 -20 -75.5 -59t-102 -68.5
t-115.5 -72t-75 -46.5q70 27 133 27q87 0 128.5 -52.5t14.5 -150.5q-28 -101 -106.5 -162t-182.5 -61q-86 0 -122 34.5t-19 96.5q8 31 33 47t53 16q32 0 43.5 -17t-14.5 -46q-43 -49 -33.5 -84t53.5 -35q74 0 134 90q57 86 57 178q1 97 -67 118q-16 5 -36 5q-26 0 -67 -12z
M1208 471q25 0 80 45t84 94l-88 -331q66 26 107 61q10 6 11 0l-1 -4q-33 -37 -55 -80.5t-25 -75.5h-64l-26 -100q-4 -5 -1.5 -11.5t2.5 -10.5t5.5 -8.5t8.5 -7.5t10.5 -7t12 -6t13 -5t13 -4.5t13 -4t11.5 -3.5q7 0 4 -6q0 -6 -8 -6q-105 10 -166 10q-59 0 -172 -10
q-7 0 -4 6q0 6 6 6q3 1 14 4t15.5 4t15.5 4t16 5t14.5 6t14.5 7t12 7.5t11 9t7.5 10t4.5 11.5l26 98l-372 -4q-49 0 -31 47q13 33 51.5 70t86.5 73t97.5 76t93.5 93t66 110h156q-26 -58 -82 -107.5t-121 -84.5t-129.5 -67t-119.5 -71.5t-78 -83.5q-12 -23 -8 -32t24 -9
q205 0 381 45z" />
    <glyph glyph-name="questiondown" unicode="&#xbf;" horiz-adv-x="1472" 
d="M1235 1612q79 0 97 -63q17 -58 -24 -122q-48 -73 -129 -80l-16 -1q-79 0 -97 63q-17 58 24 122q48 73 129 80zM434 -225q-229 0 -338.5 90.5t-64.5 259.5q25 93 92.5 182t157 161t193 143.5t207.5 142.5t193.5 143.5t157 160.5t92.5 181q8 33 19 36q4 1 5 -5
q2 -10 -3 -29q-21 -79 -60 -150t-87.5 -126.5t-105.5 -107t-118 -99.5t-122 -96.5t-119.5 -104t-108.5 -116t-91 -139t-65 -167.5q-38 -148 19 -244t166 -96q79 0 151 38.5t110.5 104.5t18.5 136q-17 63 31 103t113 40q60 0 93.5 -35t14.5 -104q-81 -303 -551 -303z" />
    <glyph glyph-name="Agrave" unicode="&#xc0;" horiz-adv-x="1574" 
d="M1191 1806l205 -221q11 -12 11.5 -20t-6.5 -9.5t-16 0.5l-354 115q-34 10 -5 60q27 49 77 77q27 15 49 15q25 0 39 -17zM40 0q-6 -1 -6 6q0 9 12 14q52 18 87 41t65 68l854 1305h217l84 -707q9 -72 24 -198q34 -290 55.5 -391t67.5 -118q10 -4 5.5 -13t-11.5 -7
q-112 16 -149 16q-35 0 -160 -16q-6 -1 -7 6q1 11 13 14q72 15 112 110t44.5 239t-13.5 323q-574 -18 -917 -563q-20 -33 -20.5 -54.5t13 -32.5t42.5 -22q9 -4 5 -13t-12 -7q-125 16 -202 16q-72 0 -203 -16zM1248 1401l-690 -1055q311 352 774 367z" />
    <glyph glyph-name="Aacute" unicode="&#xc1;" horiz-adv-x="1574" 
d="M1308 1765q23 17 47 17q36 0 59 -34t18 -71.5t-38 -46.5l-416 -114q-21 -5 -19 3q3 10 25 25zM40 0q-6 -1 -6 6q0 9 12 14q52 18 87 41t65 68l854 1305h217l84 -707q9 -72 24 -198q34 -290 55.5 -391t67.5 -118q10 -4 5.5 -13t-11.5 -7q-112 16 -149 16q-35 0 -160 -16
q-6 -1 -7 6q1 11 13 14q72 15 112 110t44.5 239t-13.5 323q-574 -18 -917 -563q-20 -33 -20.5 -54.5t13 -32.5t42.5 -22q9 -4 5 -13t-12 -7q-125 16 -202 16q-72 0 -203 -16zM1248 1401l-690 -1055q311 352 774 367z" />
    <glyph glyph-name="Acircumflex" unicode="&#xc2;" horiz-adv-x="1574" 
d="M917 1620q-36 -29 -68 -29q-24 0 -43 15t-25.5 38.5t-3 48.5t25 49.5t58.5 37.5l391 141l277 -141q37 -19 40.5 -52.5t-16.5 -64t-52.5 -53.5t-61.5 -23q-34 0 -51 33l-140 281zM40 0q-6 -1 -6 6q0 9 12 14q52 18 87 41t65 68l854 1305h217l84 -707q9 -72 24 -198
q34 -290 55.5 -391t67.5 -118q10 -4 5.5 -13t-11.5 -7q-112 16 -149 16q-35 0 -160 -16q-6 -1 -7 6q1 11 13 14q72 15 112 110t44.5 239t-13.5 323q-574 -18 -917 -563q-20 -33 -20.5 -54.5t13 -32.5t42.5 -22q9 -4 5 -13t-12 -7q-125 16 -202 16q-72 0 -203 -16zM1248 1401
l-690 -1055q311 352 774 367z" />
    <glyph glyph-name="Atilde" unicode="&#xc3;" horiz-adv-x="1574" 
d="M880 1753q93 203 200 203q43 0 93.5 -31t89 -67.5t83.5 -67.5t78 -31q46 0 80 51q5 6 11 6.5t9.5 -3.5t0.5 -11q-91 -200 -199 -200q-34 0 -73 20t-73.5 49t-67.5 58t-67.5 49t-62.5 20q-47 0 -84 -53q-6 -9 -14 -5.5t-4 13.5zM40 0q-6 -1 -6 6q0 9 12 14q52 18 87 41
t65 68l854 1305h217l84 -707q9 -72 24 -198q34 -290 55.5 -391t67.5 -118q10 -4 5.5 -13t-11.5 -7q-112 16 -149 16q-35 0 -160 -16q-6 -1 -7 6q1 11 13 14q72 15 112 110t44.5 239t-13.5 323q-574 -18 -917 -563q-20 -33 -20.5 -54.5t13 -32.5t42.5 -22q9 -4 5 -13t-12 -7
q-125 16 -202 16q-72 0 -203 -16zM1248 1401l-690 -1055q311 352 774 367z" />
    <glyph glyph-name="Adieresis" unicode="&#xc4;" horiz-adv-x="1574" 
d="M1455 1827q55 0 83.5 -38.5t14.5 -94.5q-15 -55 -64.5 -94t-105.5 -39q-55 0 -83 38.5t-13 94.5q13 55 62.5 94t105.5 39zM1058 1827q55 0 83.5 -38.5t14.5 -94.5q-15 -55 -64.5 -94t-105.5 -39q-55 0 -83 38.5t-13 94.5q13 55 62.5 94t105.5 39zM40 0q-6 -1 -6 6
q0 9 12 14q52 18 87 41t65 68l854 1305h217l84 -707q9 -72 24 -198q34 -290 55.5 -391t67.5 -118q10 -4 5.5 -13t-11.5 -7q-112 16 -149 16q-35 0 -160 -16q-6 -1 -7 6q1 11 13 14q72 15 112 110t44.5 239t-13.5 323q-574 -18 -917 -563q-20 -33 -20.5 -54.5t13 -32.5
t42.5 -22q9 -4 5 -13t-12 -7q-125 16 -202 16q-72 0 -203 -16zM1248 1401l-690 -1055q311 352 774 367z" />
    <glyph glyph-name="Aring" unicode="&#xc5;" horiz-adv-x="1574" 
d="M1181 1546q-141 0 -189 89q-39 73 3 166q43 94 144 143q72 34 158 34q143 0 190 -89q39 -74 -5 -167q-45 -95 -147 -143q-71 -33 -154 -33zM1193 1589q129 0 209 84q62 66 56 141q-7 76 -85 105q-38 14 -88 14q-132 0 -211 -86q-61 -66 -52 -141q9 -76 87 -104
q37 -13 84 -13zM40 0q-6 -1 -6 6q0 9 12 14q52 18 87 41t65 68l854 1305h217l84 -707q9 -72 24 -198q34 -290 55.5 -391t67.5 -118q10 -4 5.5 -13t-11.5 -7q-112 16 -149 16q-35 0 -160 -16q-6 -1 -7 6q1 11 13 14q72 15 112 110t44.5 239t-13.5 323q-574 -18 -917 -563
q-20 -33 -20.5 -54.5t13 -32.5t42.5 -22q9 -4 5 -13t-12 -7q-125 16 -202 16q-72 0 -203 -16zM1248 1401l-690 -1055q311 352 774 367z" />
    <glyph glyph-name="AE" unicode="&#xc6;" horiz-adv-x="2066" 
d="M908 129l154 576q-78 0 -161.5 -44.5t-166 -127t-159 -180.5t-158.5 -224q-21 -32 -21 -53.5t13.5 -33t42.5 -22.5q9 -4 5 -13t-12 -7q-122 16 -198 16q-73 0 -207 -16q-6 -1 -6 6q0 9 12 14q52 18 87 41t65 68l854 1305l1063 2l-58 -344l-2 -4q-1 -4 -2.5 -6t-5.5 -3
q-10 -3 -10 6q-10 103 -32.5 165t-71.5 100t-118.5 51.5t-183.5 13.5q-74 0 -132 -30.5t-70 -77.5l-156 -584h96q44 0 83 8.5t68 22t57.5 36.5t48 44.5t42 54t36.5 56t35 59.5t34 57q6 9 14 6q6 -3 2 -12q-20 -55 -45.5 -113.5t-43 -105.5t-34.5 -113q-18 -67 -26.5 -116.5
t-15 -111.5t-15.5 -116q-5 -10 -11 -12q-10 -3 -10 6q-2 21 -4 57t-3 58.5t-6.5 54.5t-13.5 52t-24 42.5t-38.5 35.5t-57 21t-78.5 8h-96l-154 -573q-13 -47 30.5 -75.5t115.5 -33.5q146 -8 243 20.5t174 100t164 209.5q6 9 14 6q7 -4 3 -12l-127 -344h-969q-8 0 -8 10
q2 7 14 10q59 15 93.5 39t47.5 70zM1248 1401l-635 -973q104 132 225 214.5t230 82.5z" />
    <glyph glyph-name="Ccedilla" unicode="&#xc7;" horiz-adv-x="1236" 
d="M1017 309q16 18 22 11q3 -5 -2 -11q-84 -84 -141.5 -134.5t-134 -103t-155.5 -77t-167 -25.5l-69 -121q91 15 126.5 -20t-1.5 -111q-30 -62 -84 -95.5t-119 -33.5q-61 0 -78.5 26t-9.5 56q6 20 21 30.5t30 10.5q20 0 27 -11.5t-7 -31.5q-23 -32 -15 -53t30 -21
q59 0 112 75q48 67 46 125q-2 52 -50 50q-39 -2 -86 -37q-26 -20 -32 -20q-4 1 -1.5 8.5t7.5 16.5l96 159q-219 22 -309 212q-84 178 -34 439q50 260 207 478q174 241 409 326q111 40 227 40q60 0 102.5 -10.5t65.5 -25.5t42.5 -30t45.5 -25.5t61 -10.5q48 0 76 39
q13 17 19 8l1 -8l-100 -369q-2 -10 -7 -14t-9 -0.5t-4 14.5q-1 73 -8.5 132t-28 114.5t-52.5 90.5t-85 51t-123 5q-201 -34 -368 -250q-149 -194 -214.5 -451.5t-10.5 -438.5q55 -180 216 -210q58 -11 129 -1q111 16 198 72.5t189 160.5z" />
    <glyph glyph-name="Egrave" unicode="&#xc8;" horiz-adv-x="1126" 
d="M721 1765l203 -221q17 -18 11.5 -25.5t-22.5 -2.5l-352 114q-34 10 -5 60q27 49 77 77q27 15 49 15q25 0 39 -17zM336 731h96q44 0 82.5 8t68 21t57.5 35.5t47 43t42 52.5t36 54.5t34.5 59t34.5 56.5q6 9 14 6q6 -3 2 -12q-20 -55 -45.5 -113.5t-43 -105.5t-34.5 -113
q-18 -67 -26.5 -116.5t-15 -111.5t-15.5 -116q-5 -10 -11 -12q-10 -3 -10 6q-2 21 -4 57t-3 58.5t-6.5 54.5t-13.5 52t-24 42.5t-38.5 35.5t-57 21t-78.5 8h-96l-154 -573q-13 -47 30.5 -75.5t114.5 -33.5q146 -8 243.5 20.5t174.5 100t164 209.5q6 9 14 6q7 -4 3 -12
l-127 -344h-969q-11 0 -8 10q2 7 14 10q59 15 93.5 39t47.5 70l316 1176q11 46 -11 70.5t-73 39.5q-8 3 -6 10q0 11 12 11h969l-58 -344l-2 -4q-1 -4 -2.5 -6t-5.5 -3q-10 -3 -10 6q-10 103 -32.5 165t-71.5 100t-118.5 51.5t-183.5 13.5q-74 0 -132.5 -30.5t-70.5 -77.5z
" />
    <glyph glyph-name="Eacute" unicode="&#xc9;" horiz-adv-x="1126" 
d="M530 1544l324 221q23 17 47 17q36 0 59 -34t18 -71.5t-38 -46.5l-416 -114q-21 -5 -19 3q1 9 25 25zM336 731h96q44 0 82.5 8t68 21t57.5 35.5t47 43t42 52.5t36 54.5t34.5 59t34.5 56.5q6 9 14 6q6 -3 2 -12q-20 -55 -45.5 -113.5t-43 -105.5t-34.5 -113
q-18 -67 -26.5 -116.5t-15 -111.5t-15.5 -116q-5 -10 -11 -12q-10 -3 -10 6q-2 21 -4 57t-3 58.5t-6.5 54.5t-13.5 52t-24 42.5t-38.5 35.5t-57 21t-78.5 8h-96l-154 -573q-13 -47 30.5 -75.5t114.5 -33.5q146 -8 243.5 20.5t174.5 100t164 209.5q6 9 14 6q7 -4 3 -12
l-127 -344h-969q-11 0 -8 10q2 7 14 10q59 15 93.5 39t47.5 70l316 1176q11 46 -11 70.5t-73 39.5q-8 3 -6 10q0 11 12 11h969l-58 -344l-2 -4q-1 -4 -2.5 -6t-5.5 -3q-10 -3 -10 6q-10 103 -32.5 165t-71.5 100t-118.5 51.5t-183.5 13.5q-74 0 -132.5 -30.5t-70.5 -77.5z
" />
    <glyph glyph-name="Ecircumflex" unicode="&#xca;" horiz-adv-x="1126" 
d="M807 1847l-330 -280q-36 -29 -67 -29q-24 0 -43 15t-25.5 38t-3.5 48.5t24.5 49.5t57.5 37l393 142l315 -142q31 -13 41 -37t-0.5 -49.5t-30 -48.5t-47 -38t-51.5 -15q-34 0 -51 29zM336 731h96q44 0 82.5 8t68 21t57.5 35.5t47 43t42 52.5t36 54.5t34.5 59t34.5 56.5
q6 9 14 6q6 -3 2 -12q-20 -55 -45.5 -113.5t-43 -105.5t-34.5 -113q-18 -67 -26.5 -116.5t-15 -111.5t-15.5 -116q-5 -10 -11 -12q-10 -3 -10 6q-2 21 -4 57t-3 58.5t-6.5 54.5t-13.5 52t-24 42.5t-38.5 35.5t-57 21t-78.5 8h-96l-154 -573q-13 -47 30.5 -75.5t114.5 -33.5
q146 -8 243.5 20.5t174.5 100t164 209.5q6 9 14 6q7 -4 3 -12l-127 -344h-969q-11 0 -8 10q2 7 14 10q59 15 93.5 39t47.5 70l316 1176q11 46 -11 70.5t-73 39.5q-8 3 -6 10q0 11 12 11h969l-58 -344l-2 -4q-1 -4 -2.5 -6t-5.5 -3q-10 -3 -10 6q-10 103 -32.5 165t-71.5 100
t-118.5 51.5t-183.5 13.5q-74 0 -132.5 -30.5t-70.5 -77.5z" />
    <glyph glyph-name="Edieresis" unicode="&#xcb;" horiz-adv-x="1126" 
d="M995 1806q56 0 85 -39t14 -94t-64.5 -94t-105.5 -39q-55 0 -83.5 38.5t-13.5 94.5t64 94.5t104 38.5zM598 1806q56 0 84.5 -39t13.5 -94q-15 -56 -64 -94.5t-104 -38.5q-56 0 -84.5 39t-13.5 94q15 56 64 94.5t104 38.5zM336 731h96q44 0 82.5 8t68 21t57.5 35.5t47 43
t42 52.5t36 54.5t34.5 59t34.5 56.5q6 9 14 6q6 -3 2 -12q-20 -55 -45.5 -113.5t-43 -105.5t-34.5 -113q-18 -67 -26.5 -116.5t-15 -111.5t-15.5 -116q-5 -10 -11 -12q-10 -3 -10 6q-2 21 -4 57t-3 58.5t-6.5 54.5t-13.5 52t-24 42.5t-38.5 35.5t-57 21t-78.5 8h-96
l-154 -573q-13 -47 30.5 -75.5t114.5 -33.5q146 -8 243.5 20.5t174.5 100t164 209.5q6 9 14 6q7 -4 3 -12l-127 -344h-969q-11 0 -8 10q2 7 14 10q59 15 93.5 39t47.5 70l316 1176q11 46 -11 70.5t-73 39.5q-8 3 -6 10q0 11 12 11h969l-58 -344l-2 -4q-1 -4 -2.5 -6t-5.5 -3
q-10 -3 -10 6q-10 103 -32.5 165t-71.5 100t-118.5 51.5t-183.5 13.5q-74 0 -132.5 -30.5t-70.5 -77.5z" />
    <glyph glyph-name="Igrave" unicode="&#xcc;" horiz-adv-x="618" 
d="M444 1765l203 -221q17 -18 12 -25.5t-22 -2.5l-352 114q-34 10 -5 60q27 49 77 77q27 15 49 15q24 0 38 -17zM487 1303l-313 -1174q-13 -46 9.5 -70t74.5 -39q8 -4 6 -10q0 -10 -12 -10q-128 16 -211 16q-81 0 -219 -16q-11 0 -8 10q2 7 14 10q59 15 93.5 39t47.5 70
l316 1176q11 45 -10.5 68t-73.5 40q-10 3 -8 10q4 11 14 11q123 -15 211 -15q90 0 219 15q10 0 6 -11q-2 -7 -12 -10q-63 -17 -97.5 -40t-46.5 -70z" />
    <glyph glyph-name="Iacute" unicode="&#xcd;" horiz-adv-x="618" 
d="M254 1544l324 221q23 17 47 17q36 0 59 -34t18 -71.5t-38 -46.5l-416 -114q-21 -5 -19 3q3 10 25 25zM487 1303l-313 -1174q-13 -46 9.5 -70t74.5 -39q8 -4 6 -10q0 -10 -12 -10q-128 16 -211 16q-81 0 -219 -16q-11 0 -8 10q2 7 14 10q59 15 93.5 39t47.5 70l316 1176
q11 45 -10.5 68t-73.5 40q-10 3 -8 10q4 11 14 11q123 -15 211 -15q90 0 219 15q10 0 6 -11q-2 -7 -12 -10q-63 -17 -97.5 -40t-46.5 -70z" />
    <glyph glyph-name="Icircumflex" unicode="&#xce;" horiz-adv-x="602" 
d="M127 1745l393 141l234 -141q35 -21 37.5 -55.5t-18 -64.5t-52.5 -52.5t-59 -22.5q-37 0 -48 35l-100 281l-330 -281q-36 -29 -67 -29q-24 0 -43 15t-26 38.5t-4 48.5t24.5 49.5t58.5 37.5zM487 1303l-313 -1174q-13 -46 9.5 -70t74.5 -39q8 -4 6 -10q0 -10 -12 -10
q-128 16 -211 16q-81 0 -219 -16q-11 0 -8 10q2 7 14 10q59 15 93.5 39t47.5 70l316 1176q11 45 -10.5 68t-73.5 40q-10 3 -8 10q4 11 14 11q123 -15 211 -15q90 0 219 15q10 0 6 -11q-2 -7 -12 -10q-63 -17 -97.5 -40t-46.5 -70z" />
    <glyph glyph-name="Idieresis" unicode="&#xcf;" horiz-adv-x="602" 
d="M682 1806q56 0 84.5 -39t13.5 -94t-64.5 -94t-105.5 -39q-55 0 -83 38.5t-13 94.5t64 94.5t104 38.5zM346 1806q56 0 84.5 -39t13.5 -94q-15 -56 -64 -94.5t-104 -38.5q-56 0 -84.5 39t-13.5 94q15 56 64 94.5t104 38.5zM487 1303l-313 -1174q-13 -46 9.5 -70t74.5 -39
q8 -4 6 -10q0 -10 -12 -10q-128 16 -211 16q-81 0 -219 -16q-11 0 -8 10q2 7 14 10q59 15 93.5 39t47.5 70l316 1176q11 45 -10.5 68t-73.5 40q-10 3 -8 10q4 11 14 11q123 -15 211 -15q90 0 219 15q10 0 6 -11q-2 -7 -12 -10q-63 -17 -97.5 -40t-46.5 -70z" />
    <glyph glyph-name="Eth" unicode="&#xd0;" horiz-adv-x="1202" 
d="M-178 0q-11 0 -8 10t14 10q50 0 89 30t52 79l142 526h-113l43 162h113l131 488q12 49 -11 79.5t-73 30.5q-9 0 -6 10q0 11 12 11q121 0 282 10t281 10q187 0 285 -174q93 -165 77 -420q-16 -267 -144 -492q-140 -248 -363 -341q-117 -49 -250 -49q-120 0 -276 10t-277 10
zM500 1343l-142 -526h269l-43 -162h-269l-141 -526q-13 -48 28 -80.5t101.5 -43t118.5 -3.5q177 24 306 254q119 211 156 509q36 284 -24 475q-56 178 -178 193q-16 2 -33 1q-47 -2 -92.5 -25t-56.5 -66z" />
    <glyph glyph-name="Ntilde" unicode="&#xd1;" horiz-adv-x="1351" 
d="M512 1683q-3 -6 -8 -6.5t-8.5 4t-1.5 11.5q93 202 200 202q35 0 74 -20t74 -49t68 -58t67.5 -49t62.5 -20q43 0 80 51q4 6 10.5 6.5t10 -3.5t0.5 -11q-94 -201 -199 -201q-43 0 -93.5 31t-89 67.5t-84 67.5t-79.5 31q-47 0 -84 -54zM-186 10q2 7 14 10q61 17 95 40.5
t46 68.5l350 1307h238l317 -1416q90 394 107 479q183 900 -35 916q-9 0 -6 10q0 11 12 11q117 -15 213 -15q95 0 221 15q9 0 9 -11q-2 -6 -15 -10q-61 -18 -95 -40.5t-46 -67.5l-350 -1307h-240l-315 1415q-98 -419 -127 -565q-161 -813 35 -830q9 0 6 -10q0 -10 -12 -10
q-118 16 -203 16q-83 0 -211 -16q-11 0 -8 10z" />
    <glyph glyph-name="Ograve" unicode="&#xd2;" horiz-adv-x="1423" 
d="M856 1888l203 -221q12 -12 13 -20t-6 -9.5t-17 0.5l-353 115q-34 10 -5 60q27 49 77 77q27 15 49 15q25 0 39 -17zM842 1466q247 0 353 -190q95 -169 56 -432q-39 -259 -186 -484q-157 -239 -372 -336q-123 -55 -253 -55q-247 0 -353 190q-95 169 -56 432q39 259 186 484
q157 239 372 336q123 55 253 55zM557 0q165 18 290 236q118 205 156 497q38 288 -23 486q-60 192 -195 214q-29 4 -60 1q-165 -18 -290 -236q-118 -205 -156 -497q-38 -288 23 -486q60 -192 195 -214q29 -4 60 -1z" />
    <glyph glyph-name="Oacute" unicode="&#xd3;" horiz-adv-x="1423" 
d="M666 1647l323 221q21 16 47 16q36 0 59 -34t18 -71t-38 -46l-416 -115q-20 -5 -19 3q1 9 24 25zM842 1466q247 0 353 -190q95 -169 56 -432q-39 -259 -186 -484q-157 -239 -372 -336q-123 -55 -253 -55q-247 0 -353 190q-95 169 -56 432q39 259 186 484q157 239 372 336
q123 55 253 55zM557 0q165 18 290 236q118 205 156 497q38 288 -23 486q-60 192 -195 214q-29 4 -60 1q-165 -18 -290 -236q-118 -205 -156 -497q-38 -288 23 -486q60 -192 195 -214q29 -4 60 -1z" />
    <glyph glyph-name="Ocircumflex" unicode="&#xd4;" horiz-adv-x="1423" 
d="M539 1782l393 141l233 -141q35 -21 37.5 -55t-18 -64.5t-53 -53t-60.5 -22.5q-34 0 -45 35l-100 281l-330 -281q-36 -29 -68 -29q-24 0 -42.5 15t-25.5 38.5t-3.5 48.5t25 49.5t57.5 37.5zM842 1466q247 0 353 -190q95 -169 56 -432q-39 -259 -186 -484
q-157 -239 -372 -336q-123 -55 -253 -55q-247 0 -353 190q-95 169 -56 432q39 259 186 484q157 239 372 336q123 55 253 55zM557 0q165 18 290 236q118 205 156 497q38 288 -23 486q-60 192 -195 214q-29 4 -60 1q-165 -18 -290 -236q-118 -205 -156 -497q-38 -288 23 -486
q60 -192 195 -214q29 -4 60 -1z" />
    <glyph glyph-name="Otilde" unicode="&#xd5;" horiz-adv-x="1423" 
d="M539 1774q93 202 200 202q35 0 74 -20t74 -49t68 -58t67.5 -49t62.5 -20q43 0 80 51q6 9 15 5.5t6 -13.5q-94 -201 -199 -201q-43 0 -93.5 31t-89 67.5t-84 67.5t-79.5 31q-47 0 -84 -54q-6 -9 -14 -5t-4 14zM842 1466q247 0 353 -190q95 -169 56 -432
q-39 -259 -186 -484q-157 -239 -372 -336q-123 -55 -253 -55q-247 0 -353 190q-95 169 -56 432q39 259 186 484q157 239 372 336q123 55 253 55zM557 0q165 18 290 236q118 205 156 497q38 288 -23 486q-60 192 -195 214q-29 4 -60 1q-165 -18 -290 -236
q-118 -205 -156 -497q-38 -288 23 -486q60 -192 195 -214q29 -4 60 -1z" />
    <glyph glyph-name="Odieresis" unicode="&#xd6;" horiz-adv-x="1423" 
d="M1130 1903q56 0 85 -39.5t14 -94.5t-64.5 -94t-105.5 -39q-55 0 -83 38.5t-13 94.5t63.5 95t103.5 39zM733 1903q56 0 84.5 -39.5t13.5 -94.5q-15 -56 -63.5 -94.5t-103.5 -38.5q-56 0 -85 39t-14 94q15 56 64 95t104 39zM842 1466q247 0 353 -190q95 -169 56 -432
q-39 -259 -186 -484q-157 -239 -372 -336q-123 -55 -253 -55q-247 0 -353 190q-95 169 -56 432q39 259 186 484q157 239 372 336q123 55 253 55zM557 0q165 18 290 236q118 205 156 497q38 288 -23 486q-60 192 -195 214q-29 4 -60 1q-165 -18 -290 -236
q-118 -205 -156 -497q-38 -288 23 -486q60 -192 195 -214q29 -4 60 -1z" />
    <glyph glyph-name="multiply" unicode="&#xd7;" horiz-adv-x="1267" 
d="M285 1004l164 129l182 -248l313 248l94 -129l-313 -246l180 -248l-164 -129l-180 248l-313 -248l-94 129l313 248z" />
    <glyph glyph-name="Oslash" unicode="&#xd8;" horiz-adv-x="1423" 
d="M315 -16l-55 -97l-190 7l96 167q-69 60 -105.5 154t-40.5 203t21 230.5t74 237.5t124 221.5t165 185t204 126.5t234 47q70 0 125 -14l53 94l192 -2l-96 -170q69 -59 105.5 -153t40.5 -203t-21 -230.5t-74 -237.5t-124 -222t-165 -185.5t-204 -126.5t-234 -47
q-66 0 -125 15zM557 0q165 18 290 236q118 205 156 497q38 288 -23 486q-60 192 -195 214q-29 4 -60 1q-165 -18 -290 -236q-118 -205 -156 -497q-38 -288 23 -486q60 -192 195 -214q29 -4 60 -1z" />
    <glyph glyph-name="Ugrave" unicode="&#xd9;" horiz-adv-x="1359" 
d="M825 1847l205 -221q11 -12 11.5 -20t-6 -9.5t-15.5 0.5l-354 115q-34 10 -6 60q27 49 77 77q27 15 49 15q25 0 39 -17zM209 1413q-5 1 -6.5 4t-1 6t2.5 5.5t5 4.5t6 1q123 -15 211 -15q90 0 219 15q8 2 8 -8q-1 -10 -14 -13q-61 -15 -95.5 -38.5t-45.5 -69.5l-287 -1072
q-19 -70 20.5 -121.5t113.5 -75.5t167 -24q146 0 268 58.5t150 162.5q32 117 59 240.5t50 258t31.5 253t3 214.5t-35.5 154t-84 62q-13 2 -7 14q5 7 11 7q120 -15 216 -15t219 15q8 2 8 -7q1 -10 -12 -14q-63 -17 -97.5 -40t-46.5 -68l-287 -1074q-24 -89 -102.5 -150.5
t-178 -87.5t-214.5 -26q-130 0 -241 32t-174 93.5t-42 138.5l285 1070q13 47 -8.5 71t-73.5 39z" />
    <glyph glyph-name="Uacute" unicode="&#xda;" horiz-adv-x="1359" 
d="M958 1847q25 17 50 17q35 0 57.5 -34t17 -71.5t-38.5 -46.5l-413 -115q-20 -5 -20 3q0 9 24 25l2 1zM209 1413q-5 1 -6.5 4t-1 6t2.5 5.5t5 4.5t6 1q123 -15 211 -15q90 0 219 15q8 2 8 -8q-1 -10 -14 -13q-61 -15 -95.5 -38.5t-45.5 -69.5l-287 -1072
q-19 -70 20.5 -121.5t113.5 -75.5t167 -24q146 0 268 58.5t150 162.5q32 117 59 240.5t50 258t31.5 253t3 214.5t-35.5 154t-84 62q-13 2 -7 14q5 7 11 7q120 -15 216 -15t219 15q8 2 8 -7q1 -10 -12 -14q-63 -17 -97.5 -40t-46.5 -68l-287 -1074q-24 -89 -102.5 -150.5
t-178 -87.5t-214.5 -26q-130 0 -241 32t-174 93.5t-42 138.5l285 1070q13 47 -8.5 71t-73.5 39z" />
    <glyph glyph-name="Ucircumflex" unicode="&#xdb;" horiz-adv-x="1359" 
d="M596 1622q-36 -29 -68 -29q-24 0 -42.5 15t-25.5 38.5t-3.5 48.5t25 49.5t57.5 37.5l393 141l233 -141q35 -21 37.5 -55t-18 -64.5t-53 -53t-60.5 -22.5q-34 0 -45 35l-100 281zM209 1413q-5 1 -6.5 4t-1 6t2.5 5.5t5 4.5t6 1q123 -15 211 -15q90 0 219 15q8 2 8 -8
q-1 -10 -14 -13q-61 -15 -95.5 -38.5t-45.5 -69.5l-287 -1072q-19 -70 20.5 -121.5t113.5 -75.5t167 -24q146 0 268 58.5t150 162.5q32 117 59 240.5t50 258t31.5 253t3 214.5t-35.5 154t-84 62q-13 2 -7 14q5 7 11 7q120 -15 216 -15t219 15q8 2 8 -7q1 -10 -12 -14
q-63 -17 -97.5 -40t-46.5 -68l-287 -1074q-24 -89 -102.5 -150.5t-178 -87.5t-214.5 -26q-130 0 -241 32t-174 93.5t-42 138.5l285 1070q13 47 -8.5 71t-73.5 39z" />
    <glyph glyph-name="Udieresis" unicode="&#xdc;" horiz-adv-x="1359" 
d="M1102 1868q55 0 83 -38.5t13 -94.5q-13 -55 -62.5 -94t-105.5 -39q-55 0 -83.5 38.5t-14.5 94.5q15 55 64.5 94t105.5 39zM705 1868q55 0 83.5 -38.5t14.5 -94.5q-15 -55 -64.5 -94t-105.5 -39q-55 0 -83 38.5t-13 94.5q13 55 62.5 94t105.5 39zM209 1413q-5 1 -6.5 4
t-1 6t2.5 5.5t5 4.5t6 1q123 -15 211 -15q90 0 219 15q8 2 8 -8q-1 -10 -14 -13q-61 -15 -95.5 -38.5t-45.5 -69.5l-287 -1072q-19 -70 20.5 -121.5t113.5 -75.5t167 -24q146 0 268 58.5t150 162.5q32 117 59 240.5t50 258t31.5 253t3 214.5t-35.5 154t-84 62q-13 2 -7 14
q5 7 11 7q120 -15 216 -15t219 15q8 2 8 -7q1 -10 -12 -14q-63 -17 -97.5 -40t-46.5 -68l-287 -1074q-24 -89 -102.5 -150.5t-178 -87.5t-214.5 -26q-130 0 -241 32t-174 93.5t-42 138.5l285 1070q13 47 -8.5 71t-73.5 39z" />
    <glyph glyph-name="Yacute" unicode="&#xdd;" horiz-adv-x="1443" 
d="M1001 1847q25 17 50 17q35 0 57.5 -34t17 -71.5t-38.5 -46.5l-413 -115q-20 -5 -20 3q0 9 24 25l2 1zM188 1413q-5 1 -5.5 6t2.5 10t8 5q123 -15 231 -15q111 0 240 15q12 0 6 -11q-4 -7 -13 -10q-64 -18 -89.5 -40t-8.5 -68l213 -584q411 454 427 604q8 75 -77 88
q-11 2 -7 13q3 9 13 8q136 -11 175 -11q38 0 196 11q8 1 7 -7q-1 -12 -13 -14q-38 -7 -101.5 -57t-146 -136.5t-153.5 -165.5t-167.5 -190t-144.5 -164l-157 -571q-11 -45 11 -68.5t73 -40.5q9 -3 6 -12.5t-13 -9.5q-96 16 -211 16q-112 0 -219 -16q-10 0 -6 11q3 8 12 11
q62 17 96.5 40t45.5 69l141 514l-244 662q-17 46 -46.5 68t-80.5 40z" />
    <glyph glyph-name="Thorn" unicode="&#xde;" horiz-adv-x="1445" 
d="M-53 0q-11 0 -8 10q2 7 14 10q59 15 93.5 39t47.5 70l324 1208q13 46 -9.5 70t-74.5 39q-8 4 -6 10q0 5 4 8t8 2q83 -14 156 -14t161 14l-39 -141q72 78 263 78q273 0 389 -137q88 -105 58 -249q-30 -139 -153 -244q-151 -127 -366 -136q-177 -7 -299.5 -92t-153.5 -201
l-57 -215q-13 -46 9.5 -70t74.5 -39q8 -3 6 -10q0 -10 -12 -10q-128 16 -211 16q-78 0 -219 -16zM821 1380q-30 0 -60 -5.5t-64.5 -18.5t-61 -41t-37.5 -68l-217 -813q46 92 152 152.5t212 75.5q184 26 280 172q79 121 67 267q-11 140 -100 218q-70 61 -171 61z" />
    <glyph glyph-name="germandbls" unicode="&#xdf;" horiz-adv-x="1501" 
d="M133 94q20 10 51 10q46 0 108 -31t112 -66.5t103.5 -61t84.5 -17.5q136 38 242 212q99 162 123 350q23 190 -47 279q-47 58 -124 58q-37 0 -90 -16q-29 -10 -49 -10q-25 0 -7 19q12 13 34 24q171 86 275.5 203.5t133.5 226.5q30 117 -27.5 191.5t-172.5 74.5
q-44 0 -91 -13t-93.5 -42.5t-80.5 -71t-49.5 -106t-3.5 -140.5l-258 -960h-205l258 960q27 100 73 174.5t97.5 117t118 68.5t124.5 34t126 8q46 0 91 -4.5t92.5 -14t87 -26t74 -40t53.5 -55.5t26.5 -73.5t-8.5 -93.5q-31 -120 -151.5 -221t-311.5 -160q57 16 117 16
q164 0 217 -152q49 -142 -11 -355q-59 -207 -184 -354q-140 -163 -295 -163q-69 0 -197.5 50t-187.5 50q-66 0 -118 -41q-62 -51 -119 -51q-53 0 -69 42q-18 49 33 105q35 38 95 66z" />
    <glyph glyph-name="agrave" unicode="&#xe0;" horiz-adv-x="1288" 
d="M769 1499l301 -221q38 -28 21 -31q-5 -1 -15 2l-415 115q-33 9 -34 47t27 72.5t66 34.5q24 0 49 -19zM1000 283l-6 -24t-6.5 -26.5t-6 -26.5t-4 -26.5t-0.5 -24t3 -22t8.5 -16.5t15.5 -11.5t23 -3.5q52 0 96.5 53t75.5 128q2 6 7.5 6.5t9.5 -3.5t2 -10
q-10 -31 -26.5 -67.5t-45.5 -80t-62.5 -78t-79.5 -58t-94 -23.5q-52 0 -85 25.5t-43.5 65t-10.5 78.5t10 73q-16 -26 -39 -53.5t-65 -62.5t-90 -62t-117 -45.5t-143 -18.5q-185 0 -255 104q-56 84 -16 194q41 111 156 182q114 69 262 69q127 0 247 45t179 109q42 156 44 224
q4 169 -163 169q-52 0 -99 -18t-79 -48t-50.5 -66.5t-16 -76.5t27.5 -74q-25 -41 -68.5 -68.5t-95.5 -27.5q-79 0 -101 60q-23 64 31 144q73 109 235 160q110 35 243 35q218 0 285.5 -102.5t3.5 -345.5zM894 649q-49 -56 -146.5 -101t-179.5 -56q-142 -20 -225 -136
q-68 -95 -60 -195q7 -97 81 -131q46 -21 110 -12q55 8 114 41t101 73t70.5 76.5t32.5 55.5z" />
    <glyph glyph-name="aacute" unicode="&#xe1;" horiz-adv-x="1290" 
d="M990 1499q25 17 49 17q35 0 58 -34t18 -71.5t-39 -46.5l-413 -115q-20 -5 -19 3q0 9 23 25q1 0 2 1zM783 209q-21 -33 -55 -69t-89.5 -77t-137 -67.5t-172.5 -26.5q-185 0 -255 104q-56 84 -16 194q41 111 156 182q114 69 262 69q126 0 245.5 45t180.5 109q42 156 44 224
q4 169 -163 169q-52 0 -99 -18t-79 -48t-50.5 -66.5t-16 -76.5t27.5 -74q-25 -41 -69 -68.5t-97 -27.5q-78 0 -100 60q-23 64 32 144q73 109 235 161q108 34 241 34q220 0 287.5 -102.5t1.5 -345.5l-94 -354q-24 -92 -25 -121q2 -59 51 -60q51 0 96.5 53.5t73.5 127.5
q3 6 9 6.5t10 -3.5t2 -10q-10 -31 -27 -67.5t-46 -80t-62.5 -78t-80 -58t-94.5 -23.5q-51 0 -84 25.5t-43 64.5t-10 77.5t10 72.5zM896 649q-48 -55 -146.5 -100.5t-179.5 -56.5q-142 -20 -225 -136q-68 -95 -61 -195q7 -96 81 -131q45 -21 109 -12q56 8 115 41t101 73
t70.5 76.5t33.5 55.5z" />
    <glyph glyph-name="acircumflex" unicode="&#xe2;" horiz-adv-x="1370" 
d="M603 1260q-36 -29 -67 -29q-24 0 -43 15t-25.5 38t-3 48.5t25 49.5t58.5 37l391 142l317 -142q30 -13 39.5 -37t-1 -49.5t-30 -48.5t-47 -38t-51.5 -15q-34 0 -51 29l-180 280zM777 197q-71 -97 -187.5 -162.5t-260.5 -65.5q-185 0 -255 104q-56 84 -16 194
q41 111 156 182q114 69 262 69q126 0 245.5 45t180.5 109q42 156 44 224q4 169 -163 169q-52 0 -99 -18t-79 -48t-50.5 -66.5t-16 -76.5t27.5 -74q-25 -41 -69 -68.5t-97 -27.5q-78 0 -100 60q-23 64 32 144q73 109 235 161q108 34 241 34q220 0 287.5 -102.5t1.5 -345.5
l-94 -354q-2 -7 -6.5 -23.5t-7.5 -27t-6.5 -26.5t-4.5 -26.5t-1.5 -24t2.5 -22t8 -16.5t15 -11.5t23 -3.5q51 0 95 53t75 128q3 9 13.5 5.5t7.5 -12.5q-10 -31 -27 -67.5t-46 -80t-62.5 -78t-80 -58t-94.5 -23.5q-51 0 -83.5 23.5t-43 60.5t-10.5 73t8 71zM896 649
q-48 -55 -146.5 -100.5t-179.5 -56.5q-142 -20 -225 -136q-68 -95 -61 -195q7 -96 81 -131q45 -21 109 -12q56 8 115 41t101 73t70.5 76.5t33.5 55.5z" />
    <glyph glyph-name="atilde" unicode="&#xe3;" horiz-adv-x="1284" 
d="M529 1376q93 203 201 203q43 0 93.5 -31t89 -67.5t84 -67.5t79.5 -31q42 0 80 52q6 9 14.5 5t4.5 -14q-91 -200 -199 -200q-34 0 -73 20t-73.5 49t-67.5 58t-67.5 49t-62.5 20q-47 0 -84 -53q-4 -6 -10 -6.5t-9 3.5t0 11zM783 1065q-52 0 -99 -18t-79 -48t-50.5 -66.5
t-16 -76.5t27.5 -74q-25 -41 -69 -68.5t-97 -27.5q-78 0 -100 60q-23 64 32 144q73 109 235 161q108 34 241 34q220 0 287.5 -102.5t1.5 -345.5l-94 -354q-2 -7 -6.5 -23.5t-7.5 -27t-6.5 -26.5t-4.5 -26.5t-1.5 -24t2.5 -22t8 -16.5t15 -11.5t23 -3.5q51 0 95 53t75 128
q3 9 13.5 5.5t7.5 -12.5q-10 -31 -27 -67.5t-46 -80t-62.5 -78t-80 -58t-94.5 -23.5q-51 0 -83.5 23.5t-43 60.5t-10.5 73t8 71q-71 -97 -187.5 -162.5t-260.5 -65.5q-185 0 -255 104q-56 84 -16 194q41 111 156 182q114 69 262 69q126 0 245.5 45t180.5 109q42 156 44 224
q4 169 -163 169zM896 649q-48 -55 -146.5 -100.5t-179.5 -56.5q-142 -20 -225 -136q-68 -95 -61 -195q7 -96 81 -131q45 -21 109 -12q56 8 115 41t101 73t70.5 76.5t33.5 55.5z" />
    <glyph glyph-name="adieresis" unicode="&#xe4;" horiz-adv-x="1292" 
d="M1121 1495q55 0 84 -38.5t15 -94.5q-15 -55 -64.5 -94t-105.5 -39q-55 0 -83.5 38.5t-13.5 94.5q13 55 62.5 94t105.5 39zM724 1495q55 0 83.5 -38.5t14.5 -94.5q-15 -55 -64.5 -94t-105.5 -39q-55 0 -83 38.5t-13 94.5q13 55 62.5 94t105.5 39zM777 197
q-71 -97 -187.5 -162.5t-260.5 -65.5q-185 0 -255 104q-56 84 -16 194q41 111 156 182q114 69 262 69q126 0 245.5 45t180.5 109q42 156 44 224q4 169 -163 169q-52 0 -99 -18t-79 -48t-50.5 -66.5t-16 -76.5t27.5 -74q-25 -41 -69 -68.5t-97 -27.5q-78 0 -100 60
q-23 64 32 144q73 109 235 161q108 34 241 34q220 0 287.5 -102.5t1.5 -345.5l-94 -354q-2 -7 -6.5 -23.5t-7.5 -27t-6.5 -26.5t-4.5 -26.5t-1.5 -24t2.5 -22t8 -16.5t15 -11.5t23 -3.5q51 0 95 53t75 128q3 9 13.5 5.5t7.5 -12.5q-10 -31 -27 -67.5t-46 -80t-62.5 -78
t-80 -58t-94.5 -23.5q-51 0 -83.5 23.5t-43 60.5t-10.5 73t8 71zM896 649q-48 -55 -146.5 -100.5t-179.5 -56.5q-142 -20 -225 -136q-68 -95 -61 -195q7 -96 81 -131q45 -21 109 -12q56 8 115 41t101 73t70.5 76.5t33.5 55.5z" />
    <glyph glyph-name="aring" unicode="&#xe5;" horiz-adv-x="1284" 
d="M849 1219q-141 0 -189 89q-39 74 4 167q44 95 145 143q71 33 155 33q143 0 190 -89q40 -74 -4 -167q-45 -95 -147 -143q-71 -33 -154 -33zM861 1262q128 0 208 84q62 67 55 142q-7 76 -87 105q-37 13 -86 13q-130 0 -208 -84q-62 -67 -53 -142q8 -76 86 -104
q36 -14 85 -14zM777 197q-71 -97 -187.5 -162.5t-260.5 -65.5q-185 0 -255 104q-56 84 -16 194q41 111 156 182q114 69 262 69q126 0 245.5 45t180.5 109q42 156 44 224q4 169 -163 169q-52 0 -99 -18t-79 -48t-50.5 -66.5t-16 -76.5t27.5 -74q-25 -41 -69 -68.5t-97 -27.5
q-78 0 -100 60q-23 64 32 144q73 109 235 161q108 34 241 34q220 0 287.5 -102.5t1.5 -345.5l-94 -354q-2 -7 -6.5 -23.5t-7.5 -27t-6.5 -26.5t-4.5 -26.5t-1.5 -24t2.5 -22t8 -16.5t15 -11.5t23 -3.5q51 0 95 53t75 128q3 9 13.5 5.5t7.5 -12.5q-10 -31 -27 -67.5t-46 -80
t-62.5 -78t-80 -58t-94.5 -23.5q-51 0 -83.5 23.5t-43 60.5t-10.5 73t8 71zM896 649q-48 -55 -146.5 -100.5t-179.5 -56.5q-142 -20 -225 -136q-68 -95 -61 -195q7 -96 81 -131q45 -21 109 -12q56 8 115 41t101 73t70.5 76.5t33.5 55.5z" />
    <glyph glyph-name="ae" unicode="&#xe6;" horiz-adv-x="1886" 
d="M1180 -33q-141 0 -227 67.5t-115 182.5q-125 -132 -247 -190t-261 -58q-185 0 -255 104q-57 84 -17 194q40 111 155 181q113 70 262 70q139 0 265.5 42.5t160.5 111.5q31 64 41.5 131.5t-0.5 126.5t-56 97t-120 38q-49 0 -93.5 -18.5t-74.5 -49t-47 -67t-13.5 -76
t27.5 -72.5q-25 -41 -69 -68.5t-97 -27.5q-78 0 -100 62q-23 64 30 145q72 109 227 159q103 33 226 33q137 0 217 -34t111 -105q167 141 369 141q233 0 323 -116q64 -83 31 -188q-30 -96 -120 -151q-52 -32 -114 -40q-42 -6 -96 -3t-119 0t-123 -10t-109.5 -33.5
t-78.5 -70.5q-15 -87 -9 -165.5t27.5 -137.5t72.5 -93.5t126 -33.5q203 2 430 242q6 6 11.5 4.5t6 -7t-4.5 -12.5q-153 -169 -284.5 -237t-268.5 -68zM1454 1063q-87 -17 -166.5 -102.5t-132 -203.5t-76.5 -247q33 47 96 81.5t122 50t126 34t97 33.5q33 17 58.5 47.5
t39 66.5t18 74t-6 71.5t-30.5 58.5t-58 35t-87 1zM496 43q87 13 179.5 67t158.5 128q-37 170 45 380q-46 -46 -138.5 -80.5t-165.5 -43.5q-148 -21 -233 -132q-68 -89 -60 -184q8 -91 86 -124q53 -23 128 -11z" />
    <glyph glyph-name="ccedilla" unicode="&#xe7;" horiz-adv-x="1103" 
d="M511 45q195 2 422 242q10 9 16.5 2.5t-2.5 -17.5q-136 -149 -266.5 -227t-298.5 -78l-70 -119q92 15 127.5 -20t-0.5 -111q-30 -62 -83.5 -95.5t-120.5 -33.5q-32 0 -53 8.5t-27.5 21.5t-9.5 27t1 25q6 20 21.5 30.5t32.5 10.5q19 0 26 -11.5t-6 -31.5q-23 -32 -15.5 -53
t30.5 -21q58 0 111 75q48 68 46 125q-2 52 -51 50q-39 -2 -86 -37q-26 -20 -33 -20q-4 1 -1.5 8.5t7.5 16.5l97 159q-183 27 -251 190q-64 152 -9 362q54 209 198 363q171 184 392 200q19 1 38 1q248 0 334 -113q56 -73 23 -161q-26 -74 -96 -109q-37 -18 -78 -18
q-53 0 -83 27.5t-32 68.5q43 34 64.5 77.5t18.5 82.5t-22 70t-60.5 44t-94.5 1q-135 -31 -246 -205q-107 -168 -138 -374q-33 -215 40 -334q62 -101 188 -99z" />
    <glyph glyph-name="egrave" unicode="&#xe8;" 
d="M715 1479l205 -222q11 -12 11.5 -20t-6.5 -9t-16 1l-354 114q-34 10 -5 60q27 49 77 77q27 15 49 15q26 0 39 -16zM397 -33q-217 0 -306 161q-78 139 -36 348q41 207 177 372q156 190 366 230q49 9 100 9q233 0 323 -116q64 -83 32 -188q-30 -97 -121 -152
q-52 -31 -113 -39q-30 -4 -94.5 -4t-122.5 -2.5t-121 -11.5t-113 -36t-77 -71q-15 -87 -9.5 -164.5t27.5 -135t72.5 -90.5t124.5 -32q203 2 430 242q10 9 16.5 2.5t-2.5 -17.5q-155 -170 -285.5 -237.5t-267.5 -67.5zM674 1063q-87 -17 -166.5 -102.5t-132 -203.5
t-76.5 -247q33 47 96 81.5t121.5 50t125.5 34t97 33.5q33 17 59 47.5t39 66.5t18 74t-5.5 71.5t-31 58.5t-58 35t-86.5 1z" />
    <glyph glyph-name="eacute" unicode="&#xe9;" 
d="M847 1479q24 16 49 16q35 0 57.5 -34t17.5 -71.5t-38 -46.5l-414 -114q-22 -5 -21 3q2 9 27 25zM398 -33q-217 0 -306 161q-78 139 -37 348q41 207 176 372q155 189 365 229q50 10 101 10q233 0 323 -116q64 -83 32 -188q-30 -97 -121 -152q-52 -31 -113 -39
q-30 -4 -94.5 -4t-122.5 -2.5t-121 -11.5t-113 -36t-77 -71q-15 -87 -9 -164.5t28 -135t73 -90.5t125 -32q203 2 430 242q10 9 16.5 2.5t-2.5 -17.5q-155 -170 -285.5 -237.5t-267.5 -67.5zM673 1063q-87 -17 -166.5 -102.5t-132 -203.5t-76.5 -247q33 47 96 81.5t121.5 50
t125.5 34t97 33.5q33 17 59 47.5t39 66.5t18 74t-5.5 71.5t-31 58.5t-58 35t-86.5 1z" />
    <glyph glyph-name="ecircumflex" unicode="&#xea;" 
d="M464 1257q-35 -28 -68 -28q-24 0 -42.5 15t-25 38t-3.5 48.5t25 49.5t59 37l391 142l317 -142q30 -13 39.5 -37t-1 -49.5t-30 -48.5t-47 -38t-51.5 -15q-34 0 -51 28l-180 281zM398 -33q-217 0 -306 161q-78 139 -37 348q41 207 176 372q155 189 365 229q50 10 101 10
q233 0 323 -116q64 -83 32 -188q-30 -97 -121 -152q-52 -31 -113 -39q-30 -4 -94.5 -4t-122.5 -2.5t-121 -11.5t-113 -36t-77 -71q-15 -87 -9 -164.5t28 -135t73 -90.5t125 -32q203 2 430 242q10 9 16.5 2.5t-2.5 -17.5q-155 -170 -285.5 -237.5t-267.5 -67.5zM673 1063
q-87 -17 -166.5 -102.5t-132 -203.5t-76.5 -247q33 47 96 81.5t121.5 50t125.5 34t97 33.5q33 17 59 47.5t39 66.5t18 74t-5.5 71.5t-31 58.5t-58 35t-86.5 1z" />
    <glyph glyph-name="edieresis" unicode="&#xeb;" horiz-adv-x="1124" 
d="M980 1495q55 0 83 -38.5t13 -94.5t-64 -94.5t-104 -38.5q-56 0 -84.5 39t-13.5 94t64.5 94t105.5 39zM583 1495q55 0 83 -38.5t13 -94.5q-13 -55 -62.5 -94t-105.5 -39q-55 0 -83.5 38.5t-14.5 94.5q15 55 64.5 94t105.5 39zM405 -33q-221 0 -313 162q-79 140 -39 349
q40 206 174 370q155 189 363 229q51 10 103 10q233 0 323 -116q64 -83 32 -188q-30 -97 -121 -152q-52 -31 -113 -39q-30 -4 -94.5 -4t-122.5 -2.5t-121 -11.5t-113 -36t-77 -71q-15 -87 -9 -164.5t28 -135t73 -90.5t125 -32q203 2 430 242q10 9 16.5 2.5t-2.5 -17.5
q-154 -169 -283.5 -237t-258.5 -68zM669 1063q-87 -17 -166.5 -102.5t-132 -203.5t-76.5 -247q33 47 96 81.5t121.5 50t125.5 34t97 33.5q33 17 59 47.5t39 66.5t18 74t-5.5 71.5t-31 58.5t-58 35t-86.5 1z" />
    <glyph glyph-name="igrave" unicode="&#xec;" horiz-adv-x="641" 
d="M328 1479l282 -222q47 -39 6 -28l-415 114q-39 10 -28 58q10 48 51 78q25 18 52 18q31 0 52 -18zM510 840l-148 -557q-2 -9 -8.5 -31t-10 -35t-7.5 -33.5t-2.5 -32.5t5 -24.5t14.5 -18.5t28 -6q51 0 95 53t75 128q4 9 13.5 5.5t6.5 -12.5q-10 -31 -27 -67.5t-45.5 -80
t-62 -78t-79 -58t-93.5 -23.5q-52 0 -85.5 26.5t-45 67t-11.5 80.5t9 74l152 557q2 7 6.5 24t7 26.5t6.5 26t5 27t1.5 23.5t-3 21.5t-8.5 16.5t-15 11.5t-23 3.5q-52 0 -96.5 -52t-75.5 -126q-2 -7 -7 -8t-9 2.5t-2 9.5q10 31 26.5 67.5t45 80t61.5 78t78.5 58t93.5 23.5
q53 0 87 -26.5t45 -67t11 -79.5t-8 -74z" />
    <glyph glyph-name="iacute" unicode="&#xed;" horiz-adv-x="641" 
d="M543 1479q21 16 47 16q36 0 59 -34t18 -71.5t-38 -46.5l-414 -114q-22 -5 -21 3q1 7 27 25zM510 840l-148 -557q-2 -9 -8.5 -31t-10 -35t-7.5 -33.5t-2.5 -32.5t5 -24.5t14.5 -18.5t28 -6q51 0 95 53t75 128q4 9 13.5 5.5t6.5 -12.5q-10 -31 -27 -67.5t-45.5 -80t-62 -78
t-79 -58t-93.5 -23.5q-52 0 -85.5 26.5t-45 67t-11.5 80.5t9 74l152 557q2 7 6.5 24t7 26.5t6.5 26t5 27t1.5 23.5t-3 21.5t-8.5 16.5t-15 11.5t-23 3.5q-52 0 -96.5 -52t-75.5 -126q-2 -7 -7 -8t-9 2.5t-2 9.5q10 31 26.5 67.5t45 80t61.5 78t78.5 58t93.5 23.5
q53 0 87 -26.5t45 -67t11 -79.5t-8 -74z" />
    <glyph glyph-name="icircumflex" unicode="&#xee;" horiz-adv-x="641" 
d="M225 1298q-16 -16 -39 -16q-28 0 -48 28.5t-13 62t45 46.5l266 88l199 -88q20 -9 25.5 -26t-2 -35.5t-20.5 -36t-30.5 -28.5t-32.5 -11q-17 0 -28 16l-113 187zM510 840l-148 -557q-2 -9 -8.5 -31t-10 -35t-7.5 -33.5t-2.5 -32.5t5 -24.5t14.5 -18.5t28 -6q51 0 95 53
t75 128q4 9 13.5 5.5t6.5 -12.5q-10 -31 -27 -67.5t-45.5 -80t-62 -78t-79 -58t-93.5 -23.5q-52 0 -85.5 26.5t-45 67t-11.5 80.5t9 74l152 557q2 7 6.5 24t7 26.5t6.5 26t5 27t1.5 23.5t-3 21.5t-8.5 16.5t-15 11.5t-23 3.5q-52 0 -96.5 -52t-75.5 -126q-2 -7 -7 -8t-9 2.5
t-2 9.5q10 31 26.5 67.5t45 80t61.5 78t78.5 58t93.5 23.5q53 0 87 -26.5t45 -67t11 -79.5t-8 -74z" />
    <glyph glyph-name="idieresis" unicode="&#xef;" horiz-adv-x="641" 
d="M637 1499q55 0 83 -38.5t13 -94.5q-13 -55 -62.5 -94t-105.5 -39q-55 0 -83.5 38.5t-14.5 94.5q15 55 64.5 94t105.5 39zM322 1499q55 0 83 -38.5t13 -94.5q-13 -55 -62.5 -94t-105.5 -39q-55 0 -83.5 38.5t-14.5 94.5q15 55 64.5 94t105.5 39zM510 840l-148 -557
q-2 -9 -8.5 -31t-10 -35t-7.5 -33.5t-2.5 -32.5t5 -24.5t14.5 -18.5t28 -6q51 0 95 53t75 128q4 9 13.5 5.5t6.5 -12.5q-10 -31 -27 -67.5t-45.5 -80t-62 -78t-79 -58t-93.5 -23.5q-52 0 -85.5 26.5t-45 67t-11.5 80.5t9 74l152 557q2 7 6.5 24t7 26.5t6.5 26t5 27t1.5 23.5
t-3 21.5t-8.5 16.5t-15 11.5t-23 3.5q-52 0 -96.5 -52t-75.5 -126q-2 -7 -7 -8t-9 2.5t-2 9.5q10 31 26.5 67.5t45 80t61.5 78t78.5 58t93.5 23.5q53 0 87 -26.5t45 -67t11 -79.5t-8 -74z" />
    <glyph glyph-name="eth" unicode="&#xf0;" horiz-adv-x="1439" 
d="M823 1438q-24 0 -51.5 -6.5t-59.5 -24.5t-56 -44.5t-37.5 -71.5t-8.5 -101q6 -66 -41.5 -107t-109.5 -41q-57 0 -88.5 37t-12.5 107q32 117 170 194.5t308 77.5q109 0 184 -35q168 179 266 179q61 0 103 -68q6 -9 -3.5 -16t-17.5 -2q-32 19 -89.5 -29.5t-145.5 -151.5
q139 -185 22 -614q-43 -159 -105.5 -289.5t-149.5 -234.5t-205.5 -162t-258.5 -58q-93 0 -162.5 25t-110.5 68t-61 103.5t-18.5 130t22.5 147.5q31 114 90.5 203t136.5 142.5t164 81t179 27.5q196 0 260 -127q52 220 49 387q-89 -99 -157.5 -154t-122.5 -55q-64 0 -99 86
q-3 8 5 14.5t14 0.5q9 -6 18 -6q18 0 41.5 14.5t59.5 51t59.5 62.5t75 86t73.5 85q-42 88 -129 88zM469 -2q47 0 94 30t86.5 78t77.5 115t67 134.5t56.5 143.5t45 134.5t32.5 114.5q-15 40 -52 65t-73 33t-74 8q-153 0 -243 -100t-144 -301q-27 -99 -36.5 -176t-0.5 -142.5
t50 -101t114 -35.5z" />
    <glyph glyph-name="ntilde" unicode="&#xf1;" horiz-adv-x="1339" 
d="M529 1376q93 203 201 203q43 0 93.5 -31t89 -67.5t84 -67.5t79.5 -31q42 0 80 52q6 9 14.5 5t4.5 -14q-91 -200 -199 -200q-34 0 -73 20t-73.5 49t-67.5 58t-67.5 49t-62.5 20q-47 0 -84 -53q-4 -6 -10 -6.5t-9 3.5t0 11zM257 954q-51 0 -95 -52t-75 -126q-6 -13 -16 -7
q-6 4 -4 11q10 31 27 67.5t45.5 80t62 78t79 58t93.5 23.5q52 0 85 -26.5t43.5 -67t10.5 -80t-10 -73.5l-37 -138q41 85 94.5 153t107.5 110.5t114 70.5t112.5 39.5t103.5 11.5q74 0 122 -25.5t66 -72t17 -104.5t-20 -129l-127 -473q-24 -90 -25 -114q-5 -67 49 -67
q51 0 95 53t75 128q3 6 9 6.5t10 -3.5t2 -10q-10 -31 -27 -67.5t-45.5 -80t-62 -78t-79 -58t-93.5 -23.5q-42 0 -72 18t-44.5 45.5t-20.5 62t-3.5 65.5t9.5 57l129 483q31 110 17.5 175t-48 91.5t-88.5 26.5q-88 0 -177 -70.5t-152.5 -174t-92.5 -213.5l-143 -535h-205
l211 774q24 93 24 123q-3 56 -51 57z" />
    <glyph glyph-name="ograve" unicode="&#xf2;" horiz-adv-x="1159" 
d="M765 1479l205 -222q17 -18 12 -25.5t-22 -2.5l-353 114q-34 10 -6 60q28 49 78 77q26 15 47 15q26 0 39 -16zM728 1087q234 0 332 -162q83 -138 43 -343q-39 -203 -177 -367q-160 -190 -377 -234q-59 -12 -120 -12q-232 0 -331 161q-84 137 -47 342q38 202 174 366
q158 190 378 236q62 13 125 13zM546 0q139 24 231 207q86 173 95 400q8 223 -66 350q-71 122 -195 100q-139 -24 -231 -207q-86 -173 -95 -400q-8 -223 66 -350q71 -122 195 -100z" />
    <glyph glyph-name="oacute" unicode="&#xf3;" horiz-adv-x="1159" 
d="M577 1257l321 222q21 16 47 16q36 0 59.5 -34t19 -71.5t-37.5 -46.5l-416 -114q-21 -5 -19 3q4 8 26 25zM728 1087q234 0 332 -162q83 -138 43 -343q-39 -203 -177 -367q-160 -190 -377 -234q-59 -12 -120 -12q-232 0 -331 161q-84 137 -47 342q38 202 174 366
q158 190 378 236q62 13 125 13zM546 0q139 24 231 207q86 173 95 400q8 223 -66 350q-71 122 -195 100q-139 -24 -231 -207q-86 -173 -95 -400q-8 -223 66 -350q71 -122 195 -100z" />
    <glyph glyph-name="ocircumflex" unicode="&#xf4;" horiz-adv-x="1159" 
d="M845 1532l-330 -281q-35 -28 -67 -28q-24 0 -43 15t-25.5 38t-3 48.5t25 49.5t58.5 37l391 141l317 -141q30 -13 39.5 -37t-1 -49.5t-30 -48.5t-47 -38t-51.5 -15q-34 0 -51 28zM728 1087q234 0 332 -162q83 -138 43 -343q-39 -203 -177 -367q-160 -190 -377 -234
q-59 -12 -120 -12q-232 0 -331 161q-84 137 -47 342q38 202 174 366q158 190 378 236q62 13 125 13zM546 0q139 24 231 207q86 173 95 400q8 223 -66 350q-71 122 -195 100q-139 -24 -231 -207q-86 -173 -95 -400q-8 -223 66 -350q71 -122 195 -100z" />
    <glyph glyph-name="otilde" unicode="&#xf5;" horiz-adv-x="1159" 
d="M443 1376q93 203 201 203q43 0 93 -31t88.5 -67.5t83.5 -67.5t79 -31q42 0 80 52q8 9 16.5 5t4.5 -14q-91 -200 -199 -200q-34 0 -73 20t-73.5 49t-67.5 58t-67.5 49t-62.5 20q-47 0 -84 -53q-4 -6 -10 -6.5t-9 3.5t0 11zM728 1087q234 0 332 -162q83 -138 43 -343
q-39 -203 -177 -367q-160 -190 -377 -234q-59 -12 -120 -12q-232 0 -331 161q-84 137 -47 342q38 202 174 366q158 190 378 236q62 13 125 13zM546 0q139 24 231 207q86 173 95 400q8 223 -66 350q-71 122 -195 100q-139 -24 -231 -207q-86 -173 -95 -400q-8 -223 66 -350
q71 -122 195 -100z" />
    <glyph glyph-name="odieresis" unicode="&#xf6;" horiz-adv-x="1159" 
d="M1035 1495q55 0 84 -38.5t15 -94.5q-15 -55 -64.5 -94t-105.5 -39q-55 0 -83.5 38.5t-13.5 94.5q13 55 62.5 94t105.5 39zM638 1495q55 0 83.5 -38.5t14.5 -94.5q-15 -55 -64.5 -94t-105.5 -39q-55 0 -83 38.5t-13 94.5q13 55 62.5 94t105.5 39zM728 1087q234 0 332 -162
q83 -138 43 -343q-39 -203 -177 -367q-160 -190 -377 -234q-59 -12 -120 -12q-232 0 -331 161q-84 137 -47 342q38 202 174 366q158 190 378 236q62 13 125 13zM546 0q139 24 231 207q86 173 95 400q8 223 -66 350q-71 122 -195 100q-139 -24 -231 -207q-86 -173 -95 -400
q-8 -223 66 -350q71 -122 195 -100z" />
    <glyph glyph-name="divide" unicode="&#xf7;" horiz-adv-x="1308" 
d="M565 1032q15 55 64.5 94t105.5 39q55 0 83 -38.5t13 -94.5t-63.5 -94.5t-103.5 -38.5q-56 0 -85 39t-14 94zM242 627l47 182h698l-47 -182h-698zM395 393q13 55 62.5 94t105.5 39q55 0 84 -38.5t15 -94.5q-15 -55 -64.5 -94t-105.5 -39q-55 0 -83.5 38.5t-13.5 94.5z" />
    <glyph glyph-name="oslash" unicode="&#xf8;" horiz-adv-x="1159" 
d="M360 -27l-165 -288l-191 6l195 338q-67 42 -106 111.5t-48.5 151t6.5 173.5t54.5 179.5t101 168.5t139.5 141.5t176.5 96.5t206.5 36q30 0 76 -4l149 260l193 -2l-180 -315q65 -43 102.5 -113t45.5 -151.5t-9 -173.5t-56 -179.5t-101.5 -167.5t-139.5 -140t-175.5 -96
t-203.5 -36q-24 0 -70 4zM547 0q142 25 233 209q85 173 92 400q6 222 -69 349q-71 120 -191 99q-138 -24 -230 -207q-86 -173 -95 -400q-8 -224 66 -351q71 -121 194 -99z" />
    <glyph glyph-name="ugrave" unicode="&#xf9;" horiz-adv-x="1337" 
d="M857 1479l205 -222q11 -13 12 -20.5t-5.5 -8.5t-16.5 1l-353 114q-34 10 -6 60q28 49 78 77q26 15 47 15q26 0 39 -16zM259 954q-51 0 -95 -52t-75 -126q-6 -13 -16 -7q-6 4 -4 11q10 31 27 67.5t45.5 80t62 78t79 58t93.5 23.5q52 0 85 -26.5t43.5 -67t10.5 -80
t-10 -73.5l-137 -516q-20 -84 -20.5 -140t20 -90t49.5 -48.5t69 -14.5q88 0 177 70.5t152.5 174t92.5 213.5l142 535h204l-196 -741q-2 -9 -8.5 -31t-10 -35t-7.5 -33t-3 -32.5t4.5 -25t14.5 -18.5t28 -6q52 0 96.5 53t73.5 128q3 6 9 6.5t10 -3.5t2 -10
q-10 -31 -26.5 -67.5t-45 -80t-62 -78t-79.5 -58t-94 -23.5q-52 0 -84 26.5t-41.5 67.5t-9 80t9.5 74l28 105q-50 -105 -118.5 -183.5t-141 -120.5t-140 -61.5t-132.5 -19.5q-74 0 -122 25.5t-66 72t-17 104.5t20 129l136 506q2 7 6.5 24t7 26.5t6.5 26t5 27t1.5 23.5
t-3 21.5t-8.5 16.5t-15 11.5t-23 3.5z" />
    <glyph glyph-name="uacute" unicode="&#xfa;" horiz-adv-x="1337" 
d="M992 1479q21 16 47 16q35 0 58 -34t18.5 -71.5t-37.5 -46.5l-415 -114q-21 -5 -19 3q3 10 25 25zM259 954q-51 0 -95 -52t-75 -126q-6 -13 -16 -7q-6 4 -4 11q10 31 27 67.5t45.5 80t62 78t79 58t93.5 23.5q52 0 85 -26.5t43.5 -67t10.5 -80t-10 -73.5l-137 -516
q-20 -84 -20.5 -140t20 -90t49.5 -48.5t69 -14.5q88 0 177 70.5t152.5 174t92.5 213.5l142 535h204l-196 -741q-2 -9 -8.5 -31t-10 -35t-7.5 -33t-3 -32.5t4.5 -25t14.5 -18.5t28 -6q52 0 96.5 53t73.5 128q3 6 9 6.5t10 -3.5t2 -10q-10 -31 -26.5 -67.5t-45 -80t-62 -78
t-79.5 -58t-94 -23.5q-52 0 -84 26.5t-41.5 67.5t-9 80t9.5 74l28 105q-50 -105 -118.5 -183.5t-141 -120.5t-140 -61.5t-132.5 -19.5q-74 0 -122 25.5t-66 72t-17 104.5t20 129l136 506q2 7 6.5 24t7 26.5t6.5 26t5 27t1.5 23.5t-3 21.5t-8.5 16.5t-15 11.5t-23 3.5z" />
    <glyph glyph-name="ucircumflex" unicode="&#xfb;" horiz-adv-x="1337" 
d="M609 1262q-36 -29 -67 -29q-24 0 -43 15t-25.5 38t-3 48.5t25 49.5t58.5 37l393 142l316 -142q30 -13 39.5 -37t-1 -49.5t-30 -48.5t-47 -38t-51.5 -15q-35 0 -52 29l-180 280zM259 954q-51 0 -95 -52t-75 -126q-6 -13 -16 -7q-6 4 -4 11q10 31 27 67.5t45.5 80t62 78
t79 58t93.5 23.5q52 0 85 -26.5t43.5 -67t10.5 -80t-10 -73.5l-137 -516q-20 -84 -20.5 -140t20 -90t49.5 -48.5t69 -14.5q88 0 177 70.5t152.5 174t92.5 213.5l142 535h204l-196 -741q-2 -9 -8.5 -31t-10 -35t-7.5 -33t-3 -32.5t4.5 -25t14.5 -18.5t28 -6q52 0 96.5 53
t73.5 128q3 6 9 6.5t10 -3.5t2 -10q-10 -31 -26.5 -67.5t-45 -80t-62 -78t-79.5 -58t-94 -23.5q-52 0 -84 26.5t-41.5 67.5t-9 80t9.5 74l28 105q-50 -105 -118.5 -183.5t-141 -120.5t-140 -61.5t-132.5 -19.5q-74 0 -122 25.5t-66 72t-17 104.5t20 129l136 506q2 7 6.5 24
t7 26.5t6.5 26t5 27t1.5 23.5t-3 21.5t-8.5 16.5t-15 11.5t-23 3.5z" />
    <glyph glyph-name="udieresis" unicode="&#xfc;" horiz-adv-x="1337" 
d="M1127 1493q55 0 83.5 -38.5t13.5 -94.5q-13 -55 -62.5 -94t-105.5 -39q-55 0 -84 38.5t-15 94.5q15 55 64.5 94t105.5 39zM730 1493q55 0 83.5 -38.5t14.5 -94.5q-15 -55 -64.5 -94t-105.5 -39q-55 0 -83 38.5t-13 94.5q13 55 62.5 94t105.5 39zM259 954q-51 0 -95 -52
t-75 -126q-6 -13 -16 -7q-6 4 -4 11q10 31 27 67.5t45.5 80t62 78t79 58t93.5 23.5q52 0 85 -26.5t43.5 -67t10.5 -80t-10 -73.5l-137 -516q-20 -84 -20.5 -140t20 -90t49.5 -48.5t69 -14.5q88 0 177 70.5t152.5 174t92.5 213.5l142 535h204l-196 -741q-2 -9 -8.5 -31
t-10 -35t-7.5 -33t-3 -32.5t4.5 -25t14.5 -18.5t28 -6q52 0 96.5 53t73.5 128q3 6 9 6.5t10 -3.5t2 -10q-10 -31 -26.5 -67.5t-45 -80t-62 -78t-79.5 -58t-94 -23.5q-52 0 -84 26.5t-41.5 67.5t-9 80t9.5 74l28 105q-50 -105 -118.5 -183.5t-141 -120.5t-140 -61.5
t-132.5 -19.5q-74 0 -122 25.5t-66 72t-17 104.5t20 129l136 506q2 7 6.5 24t7 26.5t6.5 26t5 27t1.5 23.5t-3 21.5t-8.5 16.5t-15 11.5t-23 3.5z" />
    <glyph glyph-name="yacute" unicode="&#xfd;" horiz-adv-x="1157" 
d="M971 1479q21 16 47 16q36 0 59 -34t18 -71.5t-38 -46.5l-416 -114q-21 -5 -19 3q3 10 25 25zM264 954q-47 0 -90 -52.5t-74 -125.5q-2 -7 -7 -8t-9 2.5t-2 9.5q12 40 36.5 88t61.5 99.5t90 85.5t109 34q29 0 52.5 -10t38.5 -23.5t27.5 -38.5t19 -42.5t12 -48.5t6.5 -43.5
t4 -40.5l100 -836q71 108 130 218t105.5 227.5t69.5 220.5t15 195.5t-52 154.5l244 67q14 -57 -6 -148.5t-69.5 -201.5t-101 -211.5t-122 -218t-109 -178t-84.5 -131.5q-16 -25 -47 -74.5t-50 -78.5t-50 -73t-55 -71t-58 -59t-65 -49.5t-70 -29.5t-80 -12q-45 0 -80 13.5
t-56 36.5t-33.5 52.5t-12.5 62t6 65t23 62t39 52.5t52.5 36.5t63.5 13.5q53 0 82.5 -27t32.5 -70q-66 -46 -90 -118q-23 -70 17 -98q17 -13 46 -13q85 0 159 100q65 87 75 176q9 86 -46 101q-9 2 -20 2l-92 776q-1 6 -2.5 23.5t-3 27t-4 26.5t-5.5 26.5t-7.5 23.5t-10.5 22
t-13.5 16t-17.5 11.5t-22 3.5z" />
    <glyph glyph-name="thorn" unicode="&#xfe;" horiz-adv-x="1480" 
d="M-27 0q-11 0 -8 10q2 7 15 10q59 15 93.5 39t47.5 70l323 1208q13 46 -9.5 70t-74.5 39q-8 4 -6 10q0 5 4.5 8t8.5 2q83 -14 155 -14q74 0 162 14l-76 -284q70 78 260 78q273 0 390 -137q88 -104 58 -248q-28 -139 -151 -244q-151 -128 -368 -137q-176 -7 -298 -91.5
t-155 -201.5l-18 -72q-13 -46 9.5 -70t74.5 -39q8 -3 6 -10q0 -10 -13 -10q-128 16 -210 16q-79 0 -220 -16zM809 1237q-29 0 -59 -5.5t-64.5 -18.5t-61.5 -41t-38 -68l-217 -813q46 92 152 152t214 75q183 26 278 172q79 121 67 268q-12 141 -101 219q-70 60 -170 60z" />
    <glyph glyph-name="ydieresis" unicode="&#xff;" horiz-adv-x="1157" 
d="M647 1495q55 0 83.5 -38.5t14.5 -94.5q-15 -55 -64.5 -94t-105.5 -39q-55 0 -83 38.5t-13 94.5q13 55 62.5 94t105.5 39zM997 1495q55 0 84 -38.5t15 -94.5q-15 -55 -64.5 -94t-105.5 -39q-55 0 -83.5 38.5t-13.5 94.5q13 55 62.5 94t105.5 39zM264 954q-47 0 -90 -52.5
t-74 -125.5q-2 -7 -7 -8t-9 2.5t-2 9.5q12 40 36.5 88t61.5 99.5t90 85.5t109 34q29 0 52.5 -10t38.5 -23.5t27.5 -38.5t19 -42.5t12 -48.5t6.5 -43.5t4 -40.5l100 -836q71 108 130 218t105.5 227.5t69.5 220.5t15 195.5t-52 154.5l244 67q14 -57 -6 -148.5t-69.5 -201.5
t-101 -211.5t-122 -218t-109 -178t-84.5 -131.5q-16 -25 -47 -74.5t-50 -78.5t-50 -73t-55 -71t-58 -59t-65 -49.5t-70 -29.5t-80 -12q-45 0 -80 13.5t-56 36.5t-33.5 52.5t-12.5 62t6 65t23 62t39 52.5t52.5 36.5t63.5 13.5q53 0 82.5 -27t32.5 -70q-66 -46 -90 -118
q-23 -70 17 -98q17 -13 46 -13q85 0 159 100q65 87 75 176q9 86 -46 101q-9 2 -20 2l-92 776q-1 6 -2.5 23.5t-3 27t-4 26.5t-5.5 26.5t-7.5 23.5t-10.5 22t-13.5 16t-17.5 11.5t-22 3.5z" />
    <glyph glyph-name="Amacron" unicode="&#x100;" horiz-adv-x="1574" 
d="M955 1753l514 2l-43 -162l-514 -2zM40 0q-6 -1 -6 6q0 9 12 14q52 18 87 41t65 68l854 1305h217l84 -707q9 -72 24 -198q34 -290 55.5 -391t67.5 -118q10 -4 5.5 -13t-11.5 -7q-112 16 -149 16q-35 0 -160 -16q-6 -1 -7 6q1 11 13 14q72 15 112 110t44.5 239t-13.5 323
q-574 -18 -917 -563q-20 -33 -20.5 -54.5t13 -32.5t42.5 -22q9 -4 5 -13t-12 -7q-125 16 -202 16q-72 0 -203 -16zM1248 1401l-690 -1055q311 352 774 367z" />
    <glyph glyph-name="amacron" unicode="&#x101;" horiz-adv-x="1290" 
d="M546 1389l514 2l-43 -162l-514 -2zM1003 283q-24 -92 -25 -121q2 -59 51 -60q51 0 96.5 53.5t73.5 127.5q3 6 9 6.5t10 -3.5t2 -10q-10 -31 -27 -67.5t-46 -80t-62.5 -78t-80 -58t-94.5 -23.5q-41 0 -70.5 17.5t-43.5 44t-19.5 60t-3 64t9.5 56.5q-16 -26 -39.5 -53.5
t-65 -62.5t-90 -62t-117 -45.5t-142.5 -18.5q-185 0 -255 104q-56 84 -16 194q41 111 156 182q114 69 262 69q126 0 245.5 45t180.5 109q42 156 44 224q4 169 -163 169q-52 0 -99 -18t-79 -48t-50.5 -66.5t-16 -76.5t27.5 -74q-25 -41 -69 -68.5t-97 -27.5q-78 0 -100 60
q-23 64 32 144q73 109 235 161q108 34 241 34q220 0 287.5 -102.5t1.5 -345.5zM896 649q-48 -55 -146.5 -100.5t-179.5 -56.5q-142 -20 -225 -136q-68 -95 -61 -195q7 -96 81 -131q45 -21 109 -12q56 8 115 41t101 73t70.5 76.5t33.5 55.5z" />
    <glyph glyph-name="Abreve" unicode="&#x102;" horiz-adv-x="1574" 
d="M1527 1864q7 15 18 11q6 -3 4 -11q-41 -136 -134.5 -207.5t-221.5 -71.5q-132 0 -197 73t-32 206q1 7 6 10t9.5 0.5t4.5 -10.5q-2 -29 26 -53t71 -36.5t83.5 -19t71.5 -6.5q43 0 98.5 10.5t114.5 38t78 66.5zM40 0q-6 -1 -6 6q0 9 12 14q52 18 87 41t65 68l854 1305h217
l84 -707q9 -72 24 -198q34 -290 55.5 -391t67.5 -118q10 -4 5.5 -13t-11.5 -7q-112 16 -149 16q-35 0 -160 -16q-6 -1 -7 6q1 11 13 14q72 15 112 110t44.5 239t-13.5 323q-574 -18 -917 -563q-20 -33 -20.5 -54.5t13 -32.5t42.5 -22q9 -4 5 -13t-12 -7q-125 16 -202 16
q-72 0 -203 -16zM1248 1401l-690 -1055q311 352 774 367z" />
    <glyph glyph-name="abreve" unicode="&#x103;" horiz-adv-x="1290" 
d="M1109 1464q6 12 14 8q4 -3 2 -8q-31 -102 -126 -168.5t-195 -66.5q-105 0 -169.5 66.5t-39.5 168.5q1 5 5 7t7.5 0.5t3.5 -7.5q-1 -23 25.5 -41.5t66 -27.5t75 -14t59.5 -5q64 0 157 22.5t115 65.5zM1003 283q-24 -92 -25 -121q2 -59 51 -60q51 0 96.5 53.5t73.5 127.5
q3 6 9 6.5t10 -3.5t2 -10q-10 -31 -27 -67.5t-46 -80t-62.5 -78t-80 -58t-94.5 -23.5q-41 0 -70.5 17.5t-43.5 44t-19.5 60t-3 64t9.5 56.5q-16 -26 -39.5 -53.5t-65 -62.5t-90 -62t-117 -45.5t-142.5 -18.5q-185 0 -255 104q-56 84 -16 194q41 111 156 182q114 69 262 69
q126 0 245.5 45t180.5 109q42 156 44 224q4 169 -163 169q-52 0 -99 -18t-79 -48t-50.5 -66.5t-16 -76.5t27.5 -74q-25 -41 -69 -68.5t-97 -27.5q-78 0 -100 60q-23 64 32 144q73 109 235 161q108 34 241 34q220 0 287.5 -102.5t1.5 -345.5zM896 649q-48 -55 -146.5 -100.5
t-179.5 -56.5q-142 -20 -225 -136q-68 -95 -61 -195q7 -96 81 -131q45 -21 109 -12q56 8 115 41t101 73t70.5 76.5t33.5 55.5z" />
    <glyph glyph-name="Aogonek" unicode="&#x104;" horiz-adv-x="1574" 
d="M40 0q-6 -1 -6 6q0 9 12 14q52 18 87 41t65 68l854 1305h217l84 -707q9 -72 24 -198q34 -290 55.5 -391t67.5 -118q10 -4 5.5 -13t-11.5 -7q-107 14 -133 14q-3 -2 -27 -14q-24 -13 -47.5 -40.5t-35.5 -60.5t-10 -63.5t35.5 -51t96.5 -20.5q56 0 55 -41q-2 -40 -51 -86
q-47 -42 -90 -43q-61 0 -99.5 20t-51 52.5t-10 73t20 82.5t41 80t52 67.5t53.5 42.5q-30 -2 -108 -12q-6 -1 -7 6q1 11 13 14q72 15 112 110t44.5 239t-13.5 323q-574 -18 -917 -563q-20 -33 -20.5 -54.5t13 -32.5t42.5 -22q9 -4 5 -13t-12 -7q-122 16 -198 16
q-73 0 -207 -16zM1248 1401l-690 -1055q311 352 774 367z" />
    <glyph glyph-name="aogonek" unicode="&#x105;" horiz-adv-x="1290" 
d="M329 -31q-185 0 -255 104q-56 84 -16 194q41 111 156 182q114 69 262 69q126 0 245.5 45t180.5 109q42 156 44 224q4 169 -163 169q-52 0 -99 -18t-79 -48t-50.5 -66.5t-16 -76.5t27.5 -74q-25 -41 -69 -68.5t-97 -27.5q-78 0 -100 60q-23 64 32 144q73 109 235 161
q108 34 241 34q220 0 287.5 -102.5t1.5 -345.5l-94 -354q-24 -92 -25 -121q2 -59 51 -60q52 0 96.5 53t73.5 128q3 6 9 6.5t10 -3.5t2 -10q-10 -31 -27 -67.5t-46 -80t-62.5 -78t-80 -58t-94.5 -23.5q-21 -8 -41.5 -26t-36 -41t-20.5 -47.5t1.5 -44.5t33.5 -33t72 -13
q56 0 55 -41q-2 -40 -51 -86q-47 -42 -90 -43q-69 0 -111 32t-48.5 81t8.5 102.5t57.5 102.5t99.5 76q-35 21 -51.5 63t-14.5 82.5t10 77.5q-16 -26 -39.5 -53.5t-65 -62.5t-90 -62t-117 -45.5t-142.5 -18.5zM794 264l102 385q-48 -55 -146.5 -100.5t-179.5 -56.5
q-142 -20 -225 -136q-68 -95 -61 -195q7 -96 81 -131q45 -21 109 -12q56 8 115 41t101 73t70.5 76.5t33.5 55.5z" />
    <glyph glyph-name="Cacute" unicode="&#x106;" horiz-adv-x="1236" 
d="M971 1837q24 16 49 16q35 0 57.5 -33.5t17.5 -71t-38 -46.5l-414 -115q-22 -5 -21 3q0 9 25 25l2 1zM1016 309q16 18 22 11q3 -5 -2 -11q-83 -84 -141.5 -135.5t-135 -103.5t-156.5 -76.5t-169 -24.5q-243 0 -349 187q-94 167 -55 426q40 257 190 483q162 242 387 342
q132 59 274 59q60 0 102.5 -10.5t65.5 -25.5t42.5 -30t45.5 -25.5t61 -10.5q48 0 76 39q13 17 19 8l1 -8l-100 -369q-2 -10 -7 -14t-9 -0.5t-4 14.5q-1 73 -8.5 132t-28 114.5t-52.5 90.5t-85 51t-123 5q-201 -34 -368 -250q-149 -194 -214.5 -451.5t-10.5 -438.5
q55 -180 216 -210q58 -11 129 -1q111 16 198 72.5t189 160.5z" />
    <glyph glyph-name="cacute" unicode="&#x107;" 
d="M842 1479q21 16 47 16q36 0 59.5 -34t19 -71.5t-37.5 -46.5l-416 -114q-21 -5 -19 3q1 7 25 25zM670 1057q-136 -31 -245 -206q-105 -168 -134 -374q-31 -215 42 -334q62 -100 185 -98q191 2 418 242q10 9 16.5 2.5t-2.5 -17.5q-155 -170 -285.5 -237.5t-267.5 -67.5
q-215 0 -304 160q-79 139 -38 348q39 207 174 372q154 190 364 230q51 10 103 10q248 0 334 -113q56 -73 23 -161q-26 -74 -96 -109q-37 -18 -78 -18q-53 0 -82.5 27.5t-32.5 68.5q43 34 64.5 77.5t18.5 82.5t-22 70t-60.5 44t-94.5 1z" />
    <glyph glyph-name="Ccircumflex" unicode="&#x108;" horiz-adv-x="1236" 
d="M586 1614q-36 -29 -68 -29q-23 0 -42 15t-25.5 38.5t-3.5 48.5t24.5 49.5t58.5 37.5l394 141l315 -141q31 -14 41 -38.5t-0.5 -49.5t-30 -48.5t-46.5 -38t-52 -14.5q-33 0 -53 29l-180 280zM1016 309q16 18 22 11q3 -5 -2 -11q-83 -84 -141.5 -135.5t-135 -103.5
t-156.5 -76.5t-169 -24.5q-243 0 -349 187q-94 167 -55 426q40 257 190 483q162 242 387 342q132 59 274 59q60 0 102.5 -10.5t65.5 -25.5t42.5 -30t45.5 -25.5t61 -10.5q48 0 76 39q13 17 19 8l1 -8l-100 -369q-2 -10 -7 -14t-9 -0.5t-4 14.5q-1 73 -8.5 132t-28 114.5
t-52.5 90.5t-85 51t-123 5q-201 -34 -368 -250q-149 -194 -214.5 -451.5t-10.5 -438.5q55 -180 216 -210q58 -11 129 -1q111 16 198 72.5t189 160.5z" />
    <glyph glyph-name="ccircumflex" unicode="&#x109;" horiz-adv-x="1107" 
d="M457 1262q-36 -29 -68 -29q-24 0 -43 15t-25.5 38t-3 48.5t25 49.5t58.5 37l392 142l235 -142q35 -21 37 -55t-18.5 -64.5t-52.5 -52.5t-60 -22q-36 0 -47 35l-99 280zM670 1057q-136 -31 -245 -206q-105 -168 -134 -374q-31 -215 42 -334q62 -100 185 -98q191 2 418 242
q10 9 16.5 2.5t-2.5 -17.5q-155 -170 -285.5 -237.5t-267.5 -67.5q-215 0 -304 160q-79 139 -38 348q39 207 174 372q154 190 364 230q51 10 103 10q248 0 334 -113q56 -73 23 -161q-26 -74 -96 -109q-37 -18 -78 -18q-53 0 -82.5 27.5t-32.5 68.5q43 34 64.5 77.5
t18.5 82.5t-22 70t-60.5 44t-94.5 1z" />
    <glyph glyph-name="Cdotaccent" unicode="&#x10a;" horiz-adv-x="1236" 
d="M838 1585q-80 0 -98 64q-16 58 25 122q47 72 128 79l14 1q80 0 98 -64q16 -58 -25 -122q-47 -72 -128 -79zM1016 309q16 18 22 11q3 -5 -2 -11q-83 -84 -141.5 -135.5t-135 -103.5t-156.5 -76.5t-169 -24.5q-243 0 -349 187q-94 167 -55 426q40 257 190 483
q162 242 387 342q132 59 274 59q60 0 102.5 -10.5t65.5 -25.5t42.5 -30t45.5 -25.5t61 -10.5q48 0 76 39q13 17 19 8l1 -8l-100 -369q-2 -10 -7 -14t-9 -0.5t-4 14.5q-1 73 -8.5 132t-28 114.5t-52.5 90.5t-85 51t-123 5q-201 -34 -368 -250q-149 -194 -214.5 -451.5
t-10.5 -438.5q55 -180 216 -210q58 -11 129 -1q111 16 198 72.5t189 160.5z" />
    <glyph glyph-name="cdotaccent" unicode="&#x10b;" 
d="M709 1229q-78 0 -96 63q-18 58 23 122q47 73 128 80q8 1 16 1q80 0 98 -64q16 -59 -25 -122q-48 -72 -130 -79zM670 1057q-136 -31 -245 -206q-105 -168 -134 -374q-31 -215 42 -334q62 -100 185 -98q191 2 418 242q10 9 16.5 2.5t-2.5 -17.5q-155 -170 -285.5 -237.5
t-267.5 -67.5q-215 0 -304 160q-79 139 -38 348q39 207 174 372q154 190 364 230q51 10 103 10q248 0 334 -113q56 -73 23 -161q-26 -74 -96 -109q-37 -18 -78 -18q-53 0 -82.5 27.5t-32.5 68.5q43 34 64.5 77.5t18.5 82.5t-22 70t-60.5 44t-94.5 1z" />
    <glyph glyph-name="Ccaron" unicode="&#x10c;" horiz-adv-x="1259" 
d="M659 1886l183 -280l329 280q36 29 68 29q24 0 43.5 -15t26.5 -38.5t4 -48.5t-25.5 -49.5t-60.5 -37.5l-391 -141l-318 141q-29 13 -37.5 37.5t1.5 49.5t29.5 48.5t46 38.5t50.5 15q34 0 51 -29zM1016 309q16 18 22 11q3 -5 -2 -11q-83 -84 -141.5 -135.5t-135 -103.5
t-156.5 -76.5t-169 -24.5q-243 0 -349 187q-94 167 -55 426q40 257 190 483q162 242 387 342q132 59 274 59q60 0 102.5 -10.5t65.5 -25.5t42.5 -30t45.5 -25.5t61 -10.5q48 0 76 39q13 17 19 8l1 -8l-100 -369q-2 -10 -7 -14t-9 -0.5t-4 14.5q-1 73 -8.5 132t-28 114.5
t-52.5 90.5t-85 51t-123 5q-201 -34 -368 -250q-149 -194 -214.5 -451.5t-10.5 -438.5q55 -180 216 -210q58 -11 129 -1q111 16 198 72.5t189 160.5z" />
    <glyph glyph-name="ccaron" unicode="&#x10d;" horiz-adv-x="1144" 
d="M963 1530q36 29 67 29q24 0 43 -15t25.5 -38.5t3 -48.5t-25 -49.5t-58.5 -37.5l-391 -141l-236 141q-35 21 -37 55t18.5 64.5t52.5 53t60 22.5q36 0 47 -35l99 -281zM670 1057q-136 -31 -245 -206q-105 -168 -134 -374q-31 -215 42 -334q62 -100 185 -98q191 2 418 242
q10 9 16.5 2.5t-2.5 -17.5q-155 -170 -285.5 -237.5t-267.5 -67.5q-215 0 -304 160q-79 139 -38 348q39 207 174 372q154 190 364 230q51 10 103 10q248 0 334 -113q56 -73 23 -161q-26 -74 -96 -109q-37 -18 -78 -18q-53 0 -82.5 27.5t-32.5 68.5q43 34 64.5 77.5
t18.5 82.5t-22 70t-60.5 44t-94.5 1z" />
    <glyph glyph-name="Dcaron" unicode="&#x10e;" horiz-adv-x="1202" 
d="M1061 1909q35 28 67 28q24 0 43.5 -15t26.5 -38t4 -48.5t-25.5 -49.5t-60.5 -37l-391 -141l-317 141q-29 13 -37.5 37t2 49.5t30 48.5t46 38t49.5 15q34 0 51 -28l182 -281zM-178 0q-11 0 -8 10t14 10q50 0 89 30t52 79l316 1176q12 49 -11 79.5t-73 30.5q-9 0 -6 10
q0 11 12 11q121 0 282 10t281 10q187 0 285 -174q93 -165 77 -420q-16 -267 -144 -492q-140 -248 -363 -341q-117 -49 -250 -49q-120 0 -276 10t-277 10zM500 1343l-326 -1214q-13 -48 28 -80.5t101.5 -43t118.5 -3.5q177 24 306 254q119 211 156 509q36 284 -24 475
q-56 178 -178 193q-16 2 -33 1q-47 -2 -92.5 -25t-56.5 -66z" />
    <glyph glyph-name="dcaron" unicode="&#x10f;" horiz-adv-x="1540" 
d="M1665 1573q21 16 47 16q36 0 59.5 -34t19 -71t-37.5 -46l-416 -115q-20 -5 -19 3q0 8 25 26zM1016 1284q7 26 -17 45.5t-73 36.5q-11 3 -7.5 11.5t11.5 8.5q83 -9 166 3t124 29l42 16l-310 -1151q-24 -91 -25 -118q-2 -63 50 -63q51 0 95 53t75 128q4 9 13.5 5.5
t6.5 -12.5q-10 -31 -27 -67.5t-45.5 -80t-62 -78t-79 -58t-93.5 -23.5q-52 0 -85 26.5t-43.5 67t-10.5 80.5t10 74q-144 -250 -412 -250q-178 0 -244 158q-61 147 -9 367q51 219 183 384q150 188 334 209l42 2q76 0 132.5 -21t86.5 -56t44 -74t13 -82zM696 1022
q-160 -24 -277 -213q-102 -167 -129 -381q-25 -201 34 -310q51 -93 151 -77q91 15 176.5 108t112.5 197l102 383q39 153 -19 230t-151 63z" />
    <glyph glyph-name="Dcroat" unicode="&#x110;" horiz-adv-x="1202" 
d="M-178 0q-11 0 -8 10t14 10q50 0 89 30t52 79l142 526h-113l43 162h113l131 488q12 49 -11 79.5t-73 30.5q-9 0 -6 10q0 11 12 11q121 0 282 10t281 10q187 0 285 -174q93 -165 77 -420q-16 -267 -144 -492q-140 -248 -363 -341q-117 -49 -250 -49q-120 0 -276 10t-277 10
zM500 1343l-142 -526h269l-43 -162h-269l-141 -526q-13 -48 28 -80.5t101.5 -43t118.5 -3.5q177 24 306 254q119 211 156 509q36 284 -24 475q-56 178 -178 193q-16 2 -33 1q-47 -2 -92.5 -25t-56.5 -66z" />
    <glyph glyph-name="dcroat" unicode="&#x111;" horiz-adv-x="1261" 
d="M319 -33q-178 0 -244 158q-61 147 -9 367q51 219 183 384q150 188 334 209l42 2q76 0 132.5 -21t86.5 -56t44 -74t13 -82l82 307h-266l26 101h267l6 22q7 26 -17 45.5t-73 36.5q-11 3 -7.5 11.5t11.5 8.5q83 -9 166 3t124 29l42 16l-48 -172h123l-26 -101h-123l-236 -878
q-24 -91 -25 -118q-2 -63 50 -63q51 0 95 53t75 128q4 9 13.5 5.5t6.5 -12.5q-10 -31 -27 -67.5t-45.5 -80t-62 -78t-79 -58t-93.5 -23.5q-52 0 -85 26.5t-43.5 67t-10.5 80.5t10 74q-144 -250 -412 -250zM764 346l102 383q39 153 -19 230t-151 63q-160 -24 -277 -213
q-102 -167 -129 -381q-25 -201 34 -310q51 -93 151 -77q91 15 176.5 108t112.5 197z" />
    <glyph glyph-name="Emacron" unicode="&#x112;" horiz-adv-x="1126" 
d="M479 1591l43 162l514 2l-43 -162zM336 731h96q44 0 82.5 8t68 21t57.5 35.5t47 43t42 52.5t36 54.5t34.5 59t34.5 56.5q6 9 14 6q6 -3 2 -12q-20 -55 -45.5 -113.5t-43 -105.5t-34.5 -113q-18 -67 -26.5 -116.5t-15 -111.5t-15.5 -116q-5 -10 -11 -12q-10 -3 -10 6
q-2 21 -4 57t-3 58.5t-6.5 54.5t-13.5 52t-24 42.5t-38.5 35.5t-57 21t-78.5 8h-96l-154 -573q-13 -47 30.5 -75.5t114.5 -33.5q146 -8 243.5 20.5t174.5 100t164 209.5q6 9 14 6q7 -4 3 -12l-127 -344h-969q-11 0 -8 10q2 7 14 10q59 15 93.5 39t47.5 70l316 1176
q11 46 -11 70.5t-73 39.5q-8 3 -6 10q0 11 12 11h969l-58 -344l-2 -4q-1 -4 -2.5 -6t-5.5 -3q-10 -3 -10 6q-10 103 -32.5 165t-71.5 100t-118.5 51.5t-183.5 13.5q-74 0 -132.5 -30.5t-70.5 -77.5z" />
    <glyph glyph-name="emacron" unicode="&#x113;" 
d="M441 1389l514 2l-43 -162l-514 -2zM398 -33q-217 0 -306 161q-78 139 -37 348q41 207 176 372q155 189 365 229q50 10 101 10q233 0 323 -116q64 -83 32 -188q-30 -97 -121 -152q-52 -31 -113 -39q-30 -4 -95 -4t-122.5 -2.5t-121 -11.5t-113.5 -36t-76 -71
q-15 -87 -9.5 -164.5t27 -135t72 -90.5t125.5 -32q203 2 430 242q10 9 16.5 1.5t-2.5 -16.5q-155 -170 -285 -237.5t-266 -67.5zM673 1063q-87 -17 -166.5 -102.5t-132 -203.5t-76.5 -247q33 47 96 81.5t121.5 50t125.5 34t97 33.5q33 17 59 47.5t39 66.5t18 74t-5.5 71.5
t-31 58.5t-58 35t-86.5 1z" />
    <glyph glyph-name="Ebreve" unicode="&#x114;" horiz-adv-x="1126" 
d="M1135 1864q7 13 18 9q6 -2 4 -9q-26 -88 -95 -153t-152.5 -95.5t-170.5 -30.5q-89 0 -157 30.5t-102 95.5t-13 153q2 6 7.5 8.5t10 0.5t4.5 -9q-2 -29 32.5 -53t85.5 -36.5t97.5 -19t77.5 -6.5q45 0 114.5 10.5t144.5 38.5t94 66zM336 731h96q44 0 82.5 8t68 21
t57.5 35.5t47 43t42 52.5t36 54.5t34.5 59t34.5 56.5q6 9 14 6q6 -3 2 -12q-20 -55 -45.5 -113.5t-43 -105.5t-34.5 -113q-18 -67 -26.5 -116.5t-15 -111.5t-15.5 -116q-5 -10 -11 -12q-10 -3 -10 6q-2 21 -4 57t-3 58.5t-6.5 54.5t-13.5 52t-24 42.5t-38.5 35.5t-57 21
t-78.5 8h-96l-154 -573q-13 -47 30.5 -75.5t114.5 -33.5q146 -8 243.5 20.5t174.5 100t164 209.5q6 9 14 6q7 -4 3 -12l-127 -344h-969q-11 0 -8 10q2 7 14 10q59 15 93.5 39t47.5 70l316 1176q11 46 -11 70.5t-73 39.5q-8 3 -6 10q0 11 12 11h969l-58 -344l-2 -4
q-1 -4 -2.5 -6t-5.5 -3q-10 -3 -10 6q-10 103 -32.5 165t-71.5 100t-118.5 51.5t-183.5 13.5q-74 0 -132.5 -30.5t-70.5 -77.5z" />
    <glyph glyph-name="ebreve" unicode="&#x115;" 
d="M1005 1464q6 12 14 8q4 -3 2 -8q-31 -102 -126 -168.5t-196 -66.5q-105 0 -169 66.5t-39 168.5q1 5 5 7t7.5 0.5t3.5 -7.5q-1 -23 25.5 -41.5t65.5 -28t74.5 -14t59.5 -4.5q65 0 158 22.5t115 65.5zM398 -33q-217 0 -306 161q-78 139 -37 348q41 207 176 372
q155 189 365 229q50 10 101 10q233 0 323 -116q64 -83 32 -188q-30 -97 -121 -152q-52 -31 -113 -39q-30 -4 -94.5 -4t-122.5 -2.5t-121 -11.5t-113 -36t-77 -71q-15 -87 -9.5 -164.5t27.5 -135t72.5 -90.5t124.5 -32q203 2 430 242q10 9 16.5 2.5t-2.5 -17.5
q-155 -170 -285 -237.5t-266 -67.5zM673 1063q-87 -17 -166.5 -102.5t-132 -203.5t-76.5 -247q33 47 96 81.5t121.5 50t125.5 34t97 33.5q33 17 59 47.5t39 66.5t18 74t-5.5 71.5t-31 58.5t-58 35t-86.5 1z" />
    <glyph glyph-name="Edotaccent" unicode="&#x116;" horiz-adv-x="1126" 
d="M739 1585q-80 0 -98 64q-16 58 26 122q47 72 128 79q7 1 14 1q80 0 98 -64q16 -58 -26 -122q-47 -72 -128 -79q-7 -1 -14 -1zM336 731h96q44 0 82.5 8t68 21t57.5 35.5t47 43t42 52.5t36 54.5t34.5 59t34.5 56.5q6 9 14 6q6 -3 2 -12q-20 -55 -45.5 -113.5t-43 -105.5
t-34.5 -113q-18 -67 -26.5 -116.5t-15 -111.5t-15.5 -116q-5 -10 -11 -12q-10 -3 -10 6q-2 21 -4 57t-3 58.5t-6.5 54.5t-13.5 52t-24 42.5t-38.5 35.5t-57 21t-78.5 8h-96l-154 -573q-13 -47 30.5 -75.5t114.5 -33.5q146 -8 243.5 20.5t174.5 100t164 209.5q6 9 14 6
q7 -4 3 -12l-127 -344h-969q-11 0 -8 10q2 7 14 10q59 15 93.5 39t47.5 70l316 1176q11 46 -11 70.5t-73 39.5q-8 3 -6 10q0 11 12 11h969l-58 -344l-2 -4q-1 -4 -2.5 -6t-5.5 -3q-10 -3 -10 6q-10 103 -32.5 165t-71.5 100t-118.5 51.5t-183.5 13.5q-74 0 -132.5 -30.5
t-70.5 -77.5z" />
    <glyph glyph-name="edotaccent" unicode="&#x117;" 
d="M714 1229q-80 0 -98 64q-16 59 25 122q48 72 130 79l14 1q78 0 96 -63q17 -58 -24 -122q-47 -73 -127 -80q-8 -1 -16 -1zM398 -33q-217 0 -306 161q-78 139 -37 348q41 207 176 372q155 189 365 229q50 10 101 10q233 0 323 -116q64 -83 32 -188q-30 -97 -121 -152
q-52 -31 -113 -39q-30 -4 -94.5 -4t-122.5 -2.5t-121 -11.5t-113 -36t-77 -71q-15 -87 -9.5 -164.5t27.5 -135t72.5 -90.5t124.5 -32q203 2 430 242q10 9 16.5 2.5t-2.5 -17.5q-155 -170 -285 -237.5t-266 -67.5zM673 1063q-87 -17 -166.5 -102.5t-132 -203.5t-76.5 -247
q33 47 96 81.5t121.5 50t125.5 34t97 33.5q33 17 59 47.5t39 66.5t18 74t-5.5 71.5t-31 58.5t-58 35t-86.5 1z" />
    <glyph glyph-name="Eogonek" unicode="&#x118;" horiz-adv-x="1126" 
d="M207 1436h969l-58 -344l-2 -4q-1 -4 -2.5 -6t-5.5 -3q-10 -3 -10 6q-10 103 -32.5 165t-71.5 100t-118.5 51.5t-183.5 13.5q-74 0 -132.5 -30.5t-70.5 -77.5l-153 -576h96q44 0 82.5 8t68 21t57.5 35.5t47 43t42 52.5t36 54.5t34.5 59t34.5 56.5q6 9 14 6q6 -3 2 -12
q-20 -55 -45.5 -113.5t-43 -105.5t-34.5 -113q-18 -67 -26.5 -116.5t-15 -111.5t-15.5 -116q-5 -10 -11 -12q-10 -3 -10 6q-2 21 -4 57t-3 58.5t-6.5 54.5t-13.5 52t-24 42.5t-38.5 35.5t-57 21t-78.5 8h-96l-154 -573q-13 -47 30.5 -75.5t114.5 -33.5q146 -8 243.5 20.5
t174.5 100t164 209.5q6 9 14 6q7 -4 3 -12l-127 -344h-437q-24 -13 -47.5 -40.5t-35.5 -60.5t-10 -63.5t35.5 -51t96.5 -20.5q56 0 55 -41q-2 -40 -51 -86q-47 -42 -90 -43q-68 0 -107.5 24t-48.5 62t-1.5 84t31 91.5t53 84t59.5 60.5h-471q-11 0 -8 10q2 7 14 10
q59 15 93.5 39t47.5 70l316 1176q11 46 -11 70.5t-73 39.5q-8 3 -6 10q0 11 12 11z" />
    <glyph glyph-name="eogonek" unicode="&#x119;" 
d="M346 -31q-192 20 -266 182q-68 148 -17 357t192 367q168 186 387 209q28 3 56 3q233 0 323 -116q64 -83 32 -188q-30 -97 -121 -152q-52 -31 -113 -39q-30 -4 -95 -4t-122.5 -2.5t-121 -11.5t-113.5 -36t-76 -71q-15 -87 -9.5 -164.5t27 -135t72 -90.5t125.5 -32
q203 2 430 242q10 9 16.5 1.5t-2.5 -16.5q-153 -170 -283 -237.5t-266 -67.5q-25 -28 -39.5 -61.5t-13.5 -66t34.5 -54t98.5 -21.5q56 0 55 -41q-2 -40 -51 -86q-47 -42 -90 -43q-73 0 -113.5 28t-46 71.5t7.5 94.5t41 98.5t62 82.5zM674 1063q-87 -17 -166.5 -102.5
t-132 -203.5t-76.5 -247q33 47 96 81.5t121.5 50t125.5 34t97 33.5q33 17 59 47.5t39 66.5t18 74t-5.5 71.5t-31 58.5t-58 35t-86.5 1z" />
    <glyph glyph-name="Ecaron" unicode="&#x11a;" horiz-adv-x="1126" 
d="M561 1886l182 -280l330 280q36 29 68 29q24 0 43.5 -15t26.5 -38.5t3.5 -48.5t-26 -49.5t-60.5 -37.5l-391 -141l-317 141q-29 13 -37.5 37.5t1.5 49.5t29.5 48.5t46 38.5t50.5 15q34 0 51 -29zM336 731h96q44 0 82.5 8t68 21t57.5 35.5t47 43t42 52.5t36 54.5t34.5 59
t34.5 56.5q6 9 14 6q6 -3 2 -12q-20 -55 -45.5 -113.5t-43 -105.5t-34.5 -113q-18 -67 -26.5 -116.5t-15 -111.5t-15.5 -116q-5 -10 -11 -12q-10 -3 -10 6q-2 21 -4 57t-3 58.5t-6.5 54.5t-13.5 52t-24 42.5t-38.5 35.5t-57 21t-78.5 8h-96l-154 -573q-13 -47 30.5 -75.5
t114.5 -33.5q146 -8 243.5 20.5t174.5 100t164 209.5q6 9 14 6q7 -4 3 -12l-127 -344h-969q-11 0 -8 10q2 7 14 10q59 15 93.5 39t47.5 70l316 1176q11 46 -11 70.5t-73 39.5q-8 3 -6 10q0 11 12 11h969l-58 -344l-2 -4q-1 -4 -2.5 -6t-5.5 -3q-10 -3 -10 6
q-10 103 -32.5 165t-71.5 100t-118.5 51.5t-183.5 13.5q-74 0 -132.5 -30.5t-70.5 -77.5z" />
    <glyph glyph-name="ecaron" unicode="&#x11b;" 
d="M1072 1530q36 29 66 29q24 0 43 -15t25.5 -38.5t3.5 -48.5t-24.5 -49.5t-58.5 -37.5l-393 -141l-233 141q-35 21 -37.5 55t18 64.5t53 53t60.5 22.5q36 0 47 -35l98 -281zM398 -33q-217 0 -306 161q-78 139 -37 348q41 207 176 372q155 189 365 229q50 10 101 10
q233 0 323 -116q64 -83 32 -188q-30 -97 -121 -152q-52 -31 -113 -39q-30 -4 -94.5 -4t-122.5 -2.5t-121 -11.5t-113 -36t-77 -71q-15 -87 -9.5 -164.5t27.5 -135t72.5 -90.5t124.5 -32q203 2 430 242q10 9 16.5 2.5t-2.5 -17.5q-155 -170 -285 -237.5t-266 -67.5zM673 1063
q-87 -17 -166.5 -102.5t-132 -203.5t-76.5 -247q33 47 96 81.5t121.5 50t125.5 34t97 33.5q33 17 59 47.5t39 66.5t18 74t-5.5 71.5t-31 58.5t-58 35t-86.5 1z" />
    <glyph glyph-name="Gcircumflex" unicode="&#x11c;" horiz-adv-x="1206" 
d="M604 1612q-33 -29 -65 -29q-24 0 -43 15t-26 38.5t-4 48.5t24.5 49.5t58.5 37.5l393 141l315 -141q31 -13 41 -37.5t-0.5 -49.5t-30 -48.5t-47 -38.5t-51.5 -15q-36 0 -53 29l-180 280zM1096 537q19 10 23 2.5t-13 -19.5q-34 -24 -73 -120.5t-55 -201.5t5 -184
q3 -8 7 -16q2 -3 1 -3t-5 1q-11 2 -21 4q-88 16 -166 16q-70 0 -188 -23.5t-210 -23.5q-229 0 -325 190q-86 173 -42 441q44 265 191 491q156 240 363 329q106 46 215 46q77 0 132 -16t78.5 -35t56 -35t71.5 -16q48 0 76 39q13 17 19 8l1 -8l-100 -369q-2 -10 -7 -14
t-9.5 -0.5t-4.5 14.5q-1 89 -17 163.5t-49.5 134t-92 87.5t-136.5 15q-185 -31 -337 -257q-139 -208 -198 -491q-59 -279 -5 -470q51 -185 193 -210q21 -4 44 -4q90 0 158.5 56t97.5 159q36 139 -28.5 225t-176.5 86q-7 0 -4 7q4 7 19 8q68 0 192 -19.5t178 -19.5
q85 0 142 33z" />
    <glyph glyph-name="gcircumflex" unicode="&#x11d;" horiz-adv-x="1161" 
d="M590 1264q-36 -29 -66 -29q-24 0 -43 15t-25.5 38t-3.5 48.5t24.5 49.5t58.5 37l393 142l233 -142q35 -21 37.5 -55t-18 -64.5t-53 -52.5t-60.5 -22q-36 0 -47 35l-98 280zM104 -272q97 -97 242 -97q68 0 120.5 23t90 69t63 102.5t46.5 135.5l63 240q-40 -96 -149 -165
t-256 -69q-171 0 -242 149q-67 139 -24 349q44 216 178 384q161 200 379 232q39 6 79 6q99 0 151 -31t91 -87l225 86l-274 -1030q-32 -119 -86 -206t-121.5 -135.5t-138.5 -71t-150 -22.5q-181 0 -303 125q-4 4 -1.5 9t7.5 6.5t10 -2.5zM709 1018q-163 -25 -281 -210
q-103 -163 -129 -371q-25 -199 38 -310q58 -100 171 -82q74 11 149 87.5t101 174.5l147 551q10 39 2.5 70.5t-28 49t-49 29.5t-60 13t-61.5 -2z" />
    <glyph glyph-name="Gbreve" unicode="&#x11e;" horiz-adv-x="1206" 
d="M1210 1864q8 13 19 9q6 -2 4 -9q-40 -134 -143 -206.5t-234 -72.5q-133 0 -197.5 72.5t-33.5 206.5q2 6 7.5 8.5t10 0.5t4.5 -9q-2 -29 26 -53t71 -36.5t83.5 -19t71.5 -6.5q43 0 103.5 10.5t124.5 38.5t83 66zM1096 537q19 10 23 2.5t-13 -19.5q-34 -24 -73 -120.5
t-55 -201.5t5 -184q3 -8 7 -16q2 -3 1 -3t-5 1q-11 2 -21 4q-88 16 -166 16q-70 0 -188 -23.5t-210 -23.5q-229 0 -325 190q-86 173 -42 441q44 265 191 491q156 240 363 329q106 46 215 46q77 0 132 -16t78.5 -35t56 -35t71.5 -16q48 0 76 39q13 17 19 8l1 -8l-100 -369
q-2 -10 -7 -14t-9.5 -0.5t-4.5 14.5q-1 89 -17 163.5t-49.5 134t-92 87.5t-136.5 15q-185 -31 -337 -257q-139 -208 -198 -491q-59 -279 -5 -470q51 -185 193 -210q21 -4 44 -4q90 0 158.5 56t97.5 159q36 139 -28.5 225t-176.5 86q-7 0 -4 7q4 7 19 8q68 0 192 -19.5
t178 -19.5q85 0 142 33z" />
    <glyph glyph-name="gbreve" unicode="&#x11f;" horiz-adv-x="1161" 
d="M1128 1464q5 11 14 8q4 -3 3 -8q-31 -102 -126 -168.5t-196 -66.5q-105 0 -169.5 66.5t-39.5 168.5q1 5 5 7t8 0.5t4 -7.5q-1 -23 25.5 -41.5t65.5 -28t74.5 -14t59.5 -4.5q64 0 157 22.5t115 65.5zM104 -272q97 -97 242 -97q68 0 120.5 23t90 69t63 102.5t46.5 135.5
l63 240q-40 -96 -149 -165t-256 -69q-171 0 -242 149q-67 139 -24 349q44 216 178 384q161 200 379 232q39 6 79 6q99 0 151 -31t91 -87l225 86l-274 -1030q-32 -119 -86 -206t-121.5 -135.5t-138.5 -71t-150 -22.5q-181 0 -303 125q-4 4 -1.5 9t7.5 6.5t10 -2.5zM709 1018
q-163 -25 -281 -210q-103 -163 -129 -371q-25 -199 38 -310q58 -100 171 -82q74 11 149 87.5t101 174.5l147 551q10 39 2.5 70.5t-28 49t-49 29.5t-60 13t-61.5 -2z" />
    <glyph glyph-name="Gdotaccent" unicode="&#x120;" horiz-adv-x="1206" 
d="M856 1585q-80 0 -98 64q-16 58 26 122q47 72 128 79q7 1 14 1q80 0 98 -64q16 -58 -26 -122q-47 -72 -128 -79q-7 -1 -14 -1zM1096 537q19 10 23 2.5t-13 -19.5q-34 -24 -73 -120.5t-55 -201.5t5 -184q3 -8 7 -16q2 -3 1 -3t-5 1q-11 2 -21 4q-88 16 -166 16
q-70 0 -188 -23.5t-210 -23.5q-229 0 -325 190q-86 173 -42 441q44 265 191 491q156 240 363 329q106 46 215 46q77 0 132 -16t78.5 -35t56 -35t71.5 -16q48 0 76 39q13 17 19 8l1 -8l-100 -369q-2 -10 -7 -14t-9.5 -0.5t-4.5 14.5q-1 89 -17 163.5t-49.5 134t-92 87.5
t-136.5 15q-185 -31 -337 -257q-139 -208 -198 -491q-59 -279 -5 -470q51 -185 193 -210q21 -4 44 -4q90 0 158.5 56t97.5 159q36 139 -28.5 225t-176.5 86q-7 0 -4 7q4 7 19 8q68 0 192 -19.5t178 -19.5q85 0 142 33z" />
    <glyph glyph-name="gdotaccent" unicode="&#x121;" horiz-adv-x="1161" 
d="M924 1229q-78 0 -96 63q-18 58 23 122q47 73 128 80q8 1 16 1q80 0 98 -64q16 -59 -25 -122q-48 -72 -130 -79zM104 -272q97 -97 242 -97q68 0 120.5 23t90 69t63 102.5t46.5 135.5l63 240q-40 -96 -149 -165t-256 -69q-171 0 -242 149q-67 139 -24 349q44 216 178 384
q161 200 379 232q39 6 79 6q99 0 151 -31t91 -87l225 86l-274 -1030q-32 -119 -86 -206t-121.5 -135.5t-138.5 -71t-150 -22.5q-181 0 -303 125q-4 4 -1.5 9t7.5 6.5t10 -2.5zM709 1018q-163 -25 -281 -210q-103 -163 -129 -371q-25 -199 38 -310q58 -100 171 -82
q74 11 149 87.5t101 174.5l147 551q10 39 2.5 70.5t-28 49t-49 29.5t-60 13t-61.5 -2z" />
    <glyph glyph-name="uni0122" unicode="&#x122;" horiz-adv-x="1206" 
d="M1096 537q19 10 23 2.5t-13 -19.5q-34 -24 -73 -120.5t-55 -201.5t5 -184q3 -8 7 -16q2 -3 1 -3t-5 1q-11 2 -21 4q-88 16 -166 16q-70 0 -188 -23.5t-210 -23.5q-229 0 -325 190q-86 173 -42 441q44 265 191 491q156 240 363 329q106 46 215 46q77 0 132 -16t78.5 -35
t56 -35t71.5 -16q48 0 76 39q13 17 19 8l1 -8l-100 -369q-2 -10 -7 -14t-9.5 -0.5t-4.5 14.5q-1 89 -17 163.5t-49.5 134t-92 87.5t-136.5 15q-185 -31 -337 -257q-139 -208 -198 -491q-59 -279 -5 -470q51 -185 193 -210q21 -4 44 -4q90 0 158.5 56t97.5 159
q36 139 -28.5 225t-176.5 86q-7 0 -4 7q4 7 19 8q68 0 192 -19.5t178 -19.5q85 0 142 33zM328 -418q-83 1 -103 63q-18 56 23 116q48 70 134 76q8 1 15 1q70 0 89.5 -44t2.5 -107q-15 -57 -72 -131t-139 -131.5t-151 -57.5q-13 0 -8 8q6 6 16 9q59 11 115 76t78 122z" />
    <glyph glyph-name="uni0123" unicode="&#x123;" horiz-adv-x="1161" 
d="M989 1444q-83 0 -103 62q-18 55 23 116q48 70 134 77q8 1 16 1q70 0 89.5 -45t2.5 -109q-15 -56 -72.5 -129.5t-139.5 -130.5t-151 -57q-8 0 -8 4q1 7 17 10q59 12 114.5 78t77.5 123zM104 -272q97 -97 242 -97q68 0 120.5 23t90 69t63 102.5t46.5 135.5l63 240
q-40 -96 -149 -165t-256 -69q-171 0 -242 149q-67 139 -24 349q44 216 178 384q161 200 379 232q39 6 79 6q99 0 151 -31t91 -87l225 86l-274 -1030q-32 -119 -86 -206t-121.5 -135.5t-138.5 -71t-150 -22.5q-181 0 -303 125q-4 4 -1.5 9t7.5 6.5t10 -2.5zM709 1018
q-163 -25 -281 -210q-103 -163 -129 -371q-25 -199 38 -310q58 -100 171 -82q74 11 149 87.5t101 174.5l147 551q10 39 2.5 70.5t-28 49t-49 29.5t-60 13t-61.5 -2z" />
    <glyph glyph-name="Hcircumflex" unicode="&#x124;" horiz-adv-x="1427" 
d="M625 1616q-33 -29 -66 -29q-24 0 -43 15t-25.5 38.5t-3.5 48.5t24.5 49.5t57.5 37.5l394 141l315 -141q31 -13 41 -37.5t-0.5 -49.5t-30 -48.5t-47 -38.5t-51.5 -15q-36 0 -53 29l-181 280zM201 1413q-10 3 -8 10q4 11 14 11q123 -15 211 -15q90 0 219 15q10 0 6 -11
q-2 -7 -12 -10q-61 -16 -96 -39t-46 -69l-153 -574h620l152 572q12 47 -9 69.5t-73 40.5q-10 3 -8 10q4 11 14 11q123 -15 211 -15q90 0 219 15q10 0 6 -11q-2 -7 -12 -10q-63 -17 -96.5 -40t-44.5 -68l-316 -1176q-12 -46 9.5 -69t74.5 -40q10 0 7 -10q0 -10 -13 -10
q-128 16 -211 16q-78 0 -219 -16q-8 0 -8 10q3 10 14 10q61 17 95.5 40.5t46.5 68.5l153 573h-620l-154 -573q-12 -46 9.5 -69t74.5 -40q9 0 6 -10q0 -10 -12 -10q-128 16 -211 16q-81 0 -219 -16q-11 0 -8 10t14 10q61 17 95 40.5t46 68.5l314 1174q12 47 -9 69.5t-73 40.5
z" />
    <glyph glyph-name="hcircumflex" unicode="&#x125;" horiz-adv-x="1267" 
d="M631 1616q-33 -29 -66 -29q-24 0 -43 15t-25.5 38.5t-3.5 48.5t24.5 49.5t57.5 37.5l394 141l315 -141q31 -13 41 -37.5t-0.5 -49.5t-30 -48.5t-47 -38.5t-51.5 -15q-36 0 -53 29l-180 280zM346 1284q7 26 -17 45.5t-73 36.5q-11 3 -7.5 11.5t11.5 8.5q83 -9 166 3
t124 29l42 16l-197 -732q50 106 119 184t141.5 120t140.5 61.5t132 19.5q74 0 121.5 -25.5t66 -72t17 -104.5t-20.5 -129l-127 -473q-2 -7 -6.5 -24t-7 -26.5t-6.5 -26t-5 -27t-1.5 -24t3 -22t8.5 -16.5t15 -11.5t23 -3.5q52 0 96.5 53t75.5 128q2 6 7 6.5t9 -3.5t2 -10
q-10 -31 -26.5 -67.5t-45 -80t-62 -78t-79.5 -58t-94 -23.5q-52 0 -85 26.5t-43.5 67t-10.5 80.5t10 74l131 483q41 155 2.5 224t-123.5 69q-88 0 -177 -70.5t-152.5 -174t-92.5 -213.5l-143 -535h-205z" />
    <glyph glyph-name="Hbar" unicode="&#x126;" horiz-adv-x="1427" 
d="M201 1413q-10 3 -8 10q4 11 14 11q123 -15 211 -15q90 0 219 15q10 0 6 -11q-2 -7 -12 -10q-60 -15 -96 -39.5t-48 -70.5l-6 -23h621l6 23q12 47 -9 69.5t-73 40.5q-10 3 -8 10q4 11 14 11q123 -15 211 -15q90 0 219 15q10 0 6 -11q-2 -7 -12 -10q-62 -17 -96.5 -40.5
t-46.5 -69.5l-4 -23h123l-33 -121h-123l-277 -1030q-12 -46 9.5 -69t74.5 -40q10 0 7 -10q0 -10 -13 -10q-128 16 -211 16q-78 0 -219 -16q-8 0 -8 10q3 10 14 10q61 17 95.5 40.5t46.5 68.5l153 573h-620l-154 -573q-12 -46 9.5 -69t74.5 -40q9 0 6 -10q0 -10 -12 -10
q-128 16 -211 16q-81 0 -219 -16q-11 0 -8 10t14 10q61 17 95 40.5t46 68.5l277 1030h-123l31 121h122l7 23q12 47 -9 69.5t-73 40.5zM336 731h620l115 428h-620z" />
    <glyph glyph-name="hbar" unicode="&#x127;" horiz-adv-x="1267" 
d="M223 1262h117l6 22q7 26 -17 45.5t-73 36.5q-11 3 -7.5 11.5t11.5 8.5q83 -9 166 3t124 29l42 16l-47 -172l370 2l-26 -101l-371 -2l-123 -459q50 106 119 184t141.5 120t140.5 61.5t132 19.5q74 0 121.5 -25.5t66 -72t17 -104.5t-20.5 -129l-127 -473q-2 -7 -6.5 -24
t-7 -26.5t-6.5 -26t-5 -27t-1.5 -24t3 -22t8.5 -16.5t15 -11.5t23 -3.5q52 0 96.5 53t75.5 128q2 6 7 6.5t9 -3.5t2 -10q-10 -31 -26.5 -67.5t-45 -80t-62 -78t-79.5 -58t-94 -23.5q-52 0 -85 26.5t-43.5 67t-10.5 80.5t10 74l131 483q41 155 2.5 224t-123.5 69
q-88 0 -177 -70.5t-152.5 -174t-92.5 -213.5l-143 -535h-205l311 1161h-116z" />
    <glyph glyph-name="Itilde" unicode="&#x128;" horiz-adv-x="602" 
d="M193 1724q93 203 200 203q35 0 74 -20t73.5 -49t68 -58t67.5 -49t61 -20q46 0 80 51q5 6 11 6.5t9.5 -3.5t0.5 -11q-91 -201 -199 -201q-34 0 -73 20t-73.5 49t-67.5 58t-67.5 49t-62.5 20q-47 0 -84 -53q-6 -9 -14 -5.5t-4 13.5zM487 1303l-313 -1174q-13 -46 9.5 -70
t74.5 -39q8 -4 6 -10q0 -10 -12 -10q-128 16 -211 16q-81 0 -219 -16q-11 0 -8 10q2 7 14 10q59 15 93.5 39t47.5 70l316 1176q11 45 -10.5 68t-73.5 40q-10 3 -8 10q4 11 14 11q123 -15 211 -15q90 0 219 15q10 0 6 -11q-2 -7 -12 -10q-63 -17 -97.5 -40t-46.5 -70z" />
    <glyph glyph-name="itilde" unicode="&#x129;" horiz-adv-x="638" 
d="M110 1376q93 203 200 203q43 0 93.5 -31t89 -67.5t84 -67.5t79.5 -31q42 0 80 52q8 9 16.5 5t4.5 -14q-93 -200 -199 -200q-35 0 -74 20t-74 49t-68 58t-67.5 49t-62.5 20q-47 0 -84 -53q-5 -9 -13 -5.5t-5 13.5zM507 840l-146 -557q-2 -9 -8.5 -31t-10 -35t-7.5 -33.5
t-2.5 -32.5t5 -24.5t14.5 -18.5t28 -6q51 0 95 53t75 128q2 6 7.5 6.5t10 -3.5t2.5 -10q-10 -31 -27 -67.5t-45.5 -80t-62 -78t-79 -58t-93.5 -23.5q-52 0 -85.5 26.5t-45 67t-11.5 80.5t9 74l150 557q2 7 6.5 24t7 26.5t6.5 26t5 27t1.5 23.5t-3 21.5t-8.5 16.5t-15 11.5
t-23 3.5q-51 0 -95 -52t-75 -126q-6 -13 -16 -7q-6 4 -4 11q10 31 27 67.5t45.5 80t62 78t79 58t93.5 23.5q52 0 85.5 -26.5t45 -66.5t11.5 -80t-9 -74z" />
    <glyph glyph-name="Imacron" unicode="&#x12a;" horiz-adv-x="602" 
d="M176 1591l43 162l514 2l-43 -162zM487 1303l-313 -1174q-13 -46 9.5 -70t74.5 -39q8 -4 6 -10q0 -10 -12 -10q-128 16 -211 16q-81 0 -219 -16q-11 0 -8 10q2 7 14 10q59 15 93.5 39t47.5 70l316 1176q11 45 -10.5 68t-73.5 40q-10 3 -8 10q4 11 14 11q123 -15 211 -15
q90 0 219 15q10 0 6 -11q-2 -7 -12 -10q-63 -17 -97.5 -40t-46.5 -70z" />
    <glyph glyph-name="imacron" unicode="&#x12b;" horiz-adv-x="641" 
d="M131 1229l43 162h514l-43 -162h-514zM510 840l-148 -557q-2 -9 -8.5 -31t-10 -35t-7.5 -33.5t-2.5 -32.5t5 -24.5t14.5 -18.5t28 -6q52 0 96.5 53t73.5 128q4 9 13.5 5.5t6.5 -12.5q-10 -31 -26.5 -67.5t-45 -80t-62 -78t-79.5 -58t-94 -23.5q-52 0 -85.5 26.5t-45 67
t-11.5 80.5t9 74l152 557q2 7 6.5 24t7 26.5t6.5 26t5 27t1.5 23.5t-3 21.5t-8.5 16.5t-15 11.5t-23 3.5q-52 0 -96.5 -52t-75.5 -126q-2 -7 -7 -8t-9 2.5t-2 9.5q10 31 26.5 67.5t45 80t62 78t79.5 58t94 23.5q42 0 72 -18t44.5 -45t20.5 -61.5t4.5 -65t-8.5 -57.5z" />
    <glyph glyph-name="Iogonek" unicode="&#x12e;" horiz-adv-x="602" 
d="M487 1303l-313 -1174q-13 -46 9.5 -70t74.5 -39q8 -4 6 -10q0 -10 -12 -10q-79 9 -137 12q-18 -9 -23 -12q-24 -13 -47.5 -40.5t-35.5 -60.5t-10 -63.5t35.5 -51t96.5 -20.5q56 0 55 -41q-2 -40 -51 -86q-47 -42 -90 -43q-86 0 -126.5 38.5t-35.5 95t30.5 116t66.5 107.5
t77 65q-85 0 -235 -16q-11 0 -8 10q2 7 14 10q59 15 93.5 39t47.5 70l316 1176q11 45 -10.5 68t-73.5 40q-10 3 -8 10q4 11 14 11q123 -15 211 -15q90 0 219 15q10 0 6 -11q-2 -7 -12 -10q-63 -17 -97.5 -40t-46.5 -70z" />
    <glyph glyph-name="iogonek" unicode="&#x12f;" horiz-adv-x="688" 
d="M420 1204q-91 0 -115 68q-21 61 21 129q48 77 134 94q20 4 40 4q91 0 115 -68q21 -61 -21 -129q-48 -77 -134 -94q-20 -4 -40 -4zM510 840l-148 -557q-2 -9 -8.5 -31t-10 -35t-7.5 -33.5t-2.5 -32.5t5 -24.5t14.5 -18.5t28 -6q51 0 95 53t75 128q4 9 13.5 5.5t6.5 -12.5
q-17 -54 -45.5 -105.5t-68 -98t-92.5 -75t-109 -28.5q-21 -21 -35.5 -47.5t-19 -54t4.5 -50.5t41 -38t85 -15q56 0 55 -41q-2 -40 -51 -86q-47 -42 -90 -43q-75 0 -115 29.5t-44 75t11.5 98.5t45.5 101t65 82q-33 13 -54 42t-27 64.5t-5 68.5t8 62l152 557q2 7 6.5 24
t7 26.5t6.5 26t5 27t1.5 23.5t-3 21.5t-8.5 16.5t-15 11.5t-23 3.5q-52 0 -96.5 -52t-75.5 -126q-2 -7 -7 -8t-9 2.5t-2 9.5q10 31 26.5 67.5t45 80t61.5 78t78.5 58t93.5 23.5q53 0 87 -26.5t45 -67t11 -79.5t-8 -74z" />
    <glyph glyph-name="Idotaccent" unicode="&#x130;" horiz-adv-x="602" 
d="M461 1585q-78 0 -96 63q-17 58 24 122q47 73 127 80q8 1 16 1q80 0 98 -64q16 -59 -25 -122q-48 -72 -130 -79zM487 1303l-313 -1174q-13 -46 9.5 -70t74.5 -39q8 -4 6 -10q0 -10 -12 -10q-128 16 -211 16q-81 0 -219 -16q-11 0 -8 10q2 7 14 10q59 15 93.5 39t47.5 70
l316 1176q11 45 -10.5 68t-73.5 40q-10 3 -8 10q4 11 14 11q123 -15 211 -15q90 0 219 15q10 0 6 -11q-2 -7 -12 -10q-63 -17 -97.5 -40t-46.5 -70z" />
    <glyph glyph-name="dotlessi" unicode="&#x131;" horiz-adv-x="641" 
d="M510 840l-148 -557q-2 -9 -8.5 -31t-10 -35t-7.5 -33.5t-2.5 -32.5t5 -24.5t14.5 -18.5t28 -6q51 0 96.5 53.5t73.5 127.5q4 9 13.5 5.5t6.5 -12.5q-10 -31 -27 -67.5t-45.5 -80t-62 -78t-79 -58t-93.5 -23.5q-52 0 -85.5 26.5t-45 67t-11.5 80.5t9 74l152 557
q2 7 6.5 24t7 26.5t6.5 26t5 27t1.5 23.5t-3 21.5t-8.5 16.5t-15 11.5t-23 3.5q-52 0 -96.5 -52t-75.5 -126q-2 -7 -7 -8t-9 2.5t-2 9.5q10 31 26.5 67.5t45 80t61.5 78t78.5 58t93.5 23.5q53 0 87 -26.5t45 -67t11 -79.5t-8 -74z" />
    <glyph glyph-name="IJ" unicode="&#x132;" horiz-adv-x="1239" 
d="M487 1303l-313 -1174q-13 -46 9.5 -70t74.5 -39q8 -4 6 -10q0 -10 -12 -10q-128 16 -211 16q-81 0 -219 -16q-11 0 -8 10q2 7 14 10q59 15 93.5 39t47.5 70l316 1176q11 45 -10.5 68t-73.5 40q-10 3 -8 10q4 11 14 11q123 -15 211 -15q90 0 219 15q10 0 6 -11
q-2 -7 -12 -10q-63 -17 -97.5 -40t-46.5 -70zM362 20q38 2 83.5 22t95 58.5t93.5 107.5t68 157l252 940q11 45 -12 68.5t-74 39.5q-8 4 -6 10q4 11 12 11q194 -15 224 -15q28 0 231 15q8 0 4 -11q-2 -6 -10 -10q-60 -16 -96 -39.5t-47 -68.5l-236 -877q-23 -84 -71.5 -159
t-120.5 -136t-174.5 -96.5t-221.5 -36.5q-10 0 -7 10t13 10z" />
    <glyph glyph-name="ij" unicode="&#x133;" horiz-adv-x="1234" 
d="M419 1204q-91 0 -115 68q-21 61 21 129q48 77 134 94q20 4 40 4q91 0 115 -68q21 -61 -21 -129q-48 -77 -134 -94q-20 -4 -40 -4zM1031 1204q-91 0 -115 68q-21 61 21 129q48 77 134 94q20 4 40 4q91 0 115 -68q21 -61 -21 -129q-48 -77 -134 -94q-20 -4 -40 -4z
M962 1087q61 0 100 -26.5t51.5 -67t13 -79.5t-9.5 -74l-219 -822q-14 -53 -27 -93t-34 -86.5t-45 -80.5t-60 -67t-79 -54t-101 -34t-127 -13q-11 0 -7 11q3 10 13 10q158 7 248 344l219 819q1 5 4 15q6 23 9.5 36t7.5 36t2.5 36.5t-6.5 28t-17.5 21.5t-32.5 7
q-64 0 -111.5 -89t-109.5 -312q-89 -317 -169 -450.5t-200 -133.5q-56 0 -93 27t-48 66t-13.5 81.5t9.5 73.5l152 557q2 7 6.5 24t7 26.5t6.5 26t5 27t1.5 23.5t-3 21.5t-8.5 16.5t-15 11.5t-23 3.5q-52 0 -96.5 -52.5t-73.5 -125.5q-6 -13 -16 -7q-6 4 -4 11
q10 31 26.5 67.5t45 80t62 78t79.5 58t94 23.5q52 0 85.5 -26.5t45 -66.5t11.5 -80t-9 -74l-148 -557q-2 -9 -11.5 -43.5t-12.5 -51t-3.5 -40.5t11.5 -35t35 -11q72 0 128.5 123t147.5 437q18 63 30.5 103.5t30.5 90t34.5 80t39 62.5t47 49.5t56 28.5t68.5 11z" />
    <glyph glyph-name="Jcircumflex" unicode="&#x134;" horiz-adv-x="706" 
d="M674 1894l-330 -280q-36 -29 -68 -29q-24 0 -42.5 15t-25 38.5t-3.5 48.5t25 49.5t59 37.5l391 141l317 -141q30 -13 39.5 -37.5t-1 -49.5t-30 -48.5t-47 -38.5t-51.5 -15q-34 0 -51 29zM-170 20q38 2 83.5 22t95 58.5t93.5 107.5t68 157l252 940q11 45 -12 68.5
t-74 39.5q-8 4 -6 10q4 11 12 11q194 -15 223 -15t232 15q8 0 4 -11q-2 -6 -10 -10q-61 -16 -97 -39.5t-47 -68.5l-235 -877q-23 -84 -71.5 -159t-120.5 -136t-174.5 -96.5t-221.5 -36.5q-10 0 -7 10t13 10z" />
    <glyph glyph-name="jcircumflex" unicode="&#x135;" horiz-adv-x="641" 
d="M274 1526q-36 -29 -67 -29q-24 0 -43 15t-25.5 38.5t-3.5 48.5t24.5 49.5t57.5 37.5l393 141l316 -141q31 -13 41 -37.5t-0.5 -49.5t-30 -48.5t-47 -38.5t-51.5 -15q-35 0 -52 29l-182 280zM440 1204q-91 0 -115 68q-21 61 20 129q47 77 133 94q20 4 40 4q91 0 115 -68
q21 -61 -20 -129q-47 -77 -133 -94q-20 -4 -40 -4zM524 840l-217 -822q-14 -53 -27.5 -93t-34.5 -87t-45.5 -80.5t-60 -66.5t-78.5 -54t-100.5 -34t-126.5 -13q-11 0 -8 11q2 10 12 10q158 7 248 344l219 819q24 91 25 119q-1 60 -51 61q-51 0 -95 -52t-75 -126q-2 -7 -8 -8
t-10.5 2.5t-2.5 9.5q10 31 27 67.5t45.5 80t62 78t79 58t93.5 23.5q52 0 85 -26.5t43.5 -67t10.5 -80t-10 -73.5z" />
    <glyph glyph-name="uni0136" unicode="&#x136;" horiz-adv-x="1210" 
d="M504 848l203 153q401 311 341 387q-14 18 -51 25q-10 3 -8 10q5 14 15 11q86 -15 149 -15q65 0 160 15q4 1 6 -2.5t0 -8.5q-2 -7 -12 -10q-7 -3 -24 -9.5t-25 -10.5t-26.5 -14.5t-43 -28.5t-60.5 -45l-421 -324l100 -852q6 -26 18 -44.5t31.5 -30.5t35.5 -19t44 -15
q6 -5 4 -10q0 -10 -10 -10q-134 16 -219 16q-84 0 -228 -16q-8 0 -8 10q2 7 14 10q60 17 82.5 37.5t16.5 71.5zM489 1305l-315 -1176q-12 -46 9.5 -69t74.5 -40q8 -4 6 -10q0 -10 -12 -10q-128 16 -211 16q-81 0 -219 -16q-11 0 -8 10q2 7 14 10q61 17 95 40.5t46 68.5
l316 1176q11 45 -10.5 68t-73.5 40q-10 3 -8 10q4 11 14 11q123 -15 211 -15q90 0 219 15q10 0 6 -11q-2 -7 -12 -10q-63 -17 -97 -40t-45 -68zM268 -418q-83 1 -103 63q-18 56 24 116q48 70 134 76q8 1 15 1q48 0 73 -23t25.5 -56.5t-6.5 -71.5q-16 -57 -73.5 -131
t-139 -131.5t-149.5 -57.5q-9 0 -9 5q1 8 15 12q60 11 114.5 75t79.5 123z" />
    <glyph glyph-name="uni0137" unicode="&#x137;" horiz-adv-x="1232" 
d="M205 0h-205l340 1284q7 26 -17 46t-73 36q-10 3 -6 11.5t12 8.5q82 -9 165 3t125 29l42 16zM567 217l-39 330q120 90 201 160q256 218 198 276q-14 14 -48 21q-9 3 -7 10q0 5 4.5 8t8.5 2q80 -14 149 -14q72 0 160 14q4 1 6 -2t2 -8q-2 -7 -14 -10q-7 -3 -23 -9.5
t-24.5 -11t-26.5 -15t-43 -28.5t-61 -45l-279 -213l47 -397q1 -9 3 -31t3.5 -35.5t5 -33.5t8.5 -32.5t12.5 -25.5t18.5 -19t25 -6q44 0 87 54t71 127q4 9 13.5 5.5t6.5 -12.5q-10 -31 -26.5 -67.5t-45 -80t-61.5 -78t-78.5 -58t-93.5 -23.5q-22 0 -41 5t-32.5 12.5
t-25.5 21.5t-20 25t-14.5 30.5t-10 31.5t-7 33.5t-4.5 31.5t-3 31t-2 26zM303 -385q-83 1 -103 63q-17 56 25 116q50 71 137 77h13q47 0 72 -23.5t26 -57t-6 -71.5q-16 -57 -74 -131t-140 -131t-151 -57q-12 0 -6 8q5 5 15 8q59 11 114.5 76.5t77.5 122.5z" />
    <glyph glyph-name="kgreenlandic" unicode="&#x138;" horiz-adv-x="1357" 
d="M684 547q101 73 201 160q257 218 197 276q-15 14 -48 21q-8 4 -6 10q4 13 12 10q80 -14 150 -14q72 0 160 14q4 1 7 -2t1 -8q-2 -7 -15 -10q-6 -3 -22.5 -9.5t-24.5 -10.5t-26.5 -15t-43.5 -29t-61 -45l-276 -213l63 -553q6 -26 18 -44.5t31.5 -30.5t35.5 -19t44 -15
q6 -3 4 -10q0 -10 -10 -10q-134 16 -219 16q-83 0 -227 -16q-8 0 -8 10q2 6 14 10q60 17 82 37t16 72zM633 1024l-240 -895q-12 -46 9.5 -69t74.5 -40q8 -4 6 -10q0 -10 -12 -10q-128 16 -211 16q-78 0 -219 -16q-8 0 -8 10q2 7 14 10q61 17 95 40.5t46 68.5l205 766
q12 46 -9.5 69t-74.5 40q-8 4 -6 10q0 10 12 10q129 -14 156 -14q25 0 162 14z" />
    <glyph glyph-name="Lacute" unicode="&#x139;" horiz-adv-x="1081" 
d="M977 1452q21 16 47 16q36 0 59 -33.5t18 -70.5t-38 -47l-416 -115q-20 -5 -19 3q0 9 23 25q1 0 2 1zM489 1307l-315 -1178q-12 -47 27.5 -78t111.5 -31q85 0 150 9t126 30.5t112 59.5t100.5 94.5t99.5 136.5q6 9 14 6q7 -4 3 -12l-127 -344h-969q-11 0 -8 10t14 10
q50 0 89.5 31t51.5 80l316 1176q12 46 -10 69.5t-74 38.5q-8 3 -6 10q0 11 12 11q123 -15 211 -15q90 0 219 15q8 0 8 -11q-2 -6 -14 -10q-60 -15 -95 -38.5t-47 -69.5z" />
    <glyph glyph-name="lacute" unicode="&#x13a;" horiz-adv-x="823" 
d="M668 1352l323 221q21 16 47 16q35 0 58 -34t18.5 -71t-37.5 -46l-413 -115q-23 -6 -21 4q3 9 25 25zM543 1434l-307 -1151q-24 -90 -25 -114q-5 -67 49 -67q51 0 95 53t75 128q3 6 9 6.5t10 -3.5t2 -10q-10 -31 -27 -67.5t-46 -80t-62.5 -78t-79 -58t-93.5 -23.5
q-42 0 -72 18t-44.5 45.5t-20.5 62t-3.5 65.5t9.5 57l285 1067q7 26 -17 45.5t-73 36.5q-11 3 -7.5 11.5t11.5 8.5q83 -9 166 3t125 29z" />
    <glyph glyph-name="uni013B" unicode="&#x13b;" horiz-adv-x="1081" 
d="M489 1307l-315 -1178q-12 -47 27.5 -78t111.5 -31q85 0 150 9t126 30.5t112 59.5t100.5 94.5t99.5 136.5q6 9 14 6q7 -4 3 -12l-127 -344h-969q-11 0 -8 10t14 10q50 0 89.5 31t51.5 80l316 1176q12 46 -10 69.5t-74 38.5q-8 3 -6 10q0 11 12 11q123 -15 211 -15
q90 0 219 15q8 0 8 -11q-2 -6 -14 -10q-60 -15 -95 -38.5t-47 -69.5zM219 -385q-83 0 -103 62q-17 55 25 116q48 70 134 77q8 1 16 1q69 0 88 -45t2 -109q-15 -56 -72.5 -129.5t-139.5 -130.5t-151 -57q-7 0 -8 4q2 7 17 10q59 12 114.5 78t77.5 123z" />
    <glyph glyph-name="uni013C" unicode="&#x13c;" horiz-adv-x="542" 
d="M544 1434l-310 -1151q-2 -8 -8 -31t-8.5 -35.5t-6 -33t-2 -32.5t6 -24.5t15.5 -18.5t28 -6q52 0 96.5 52.5t75.5 126.5q2 7 7.5 8t9.5 -3t2 -10q-13 -41 -37.5 -88t-62.5 -99t-92.5 -86t-113.5 -34q-53 0 -87 26.5t-45 67t-11 80.5t10 74l285 1065q7 28 -17 47.5
t-73 34.5q-10 4 -6 13t12 7q82 -8 165 4.5t125 29.5zM36 -385q-83 0 -103 62q-17 55 24 116q48 70 134 77l16 1q47 0 72.5 -23.5t26.5 -57.5t-6 -73q-16 -56 -74 -129.5t-140 -130.5t-151 -57q-7 0 -8 4t8 8l8 2q59 12 115 78t78 123z" />
    <glyph glyph-name="Lcaron" unicode="&#x13d;" horiz-adv-x="1081" 
d="M1167 1907q39 26 70 26q45 0 66.5 -43t0 -94t-84.5 -70l-476 -141l-397 141q-49 25 -44.5 70.5t48.5 90t88 44.5q35 0 54 -24l258 -301zM489 1307l-315 -1178q-12 -47 27.5 -78t111.5 -31q85 0 150 9t126 30.5t112 59.5t100.5 94.5t99.5 136.5q6 9 14 6q7 -4 3 -12
l-127 -344h-969q-11 0 -8 10t14 10q50 0 89.5 31t51.5 80l316 1176q12 46 -10 69.5t-74 38.5q-8 3 -6 10q0 11 12 11q123 -15 211 -15q90 0 219 15q8 0 8 -11q-2 -6 -14 -10q-60 -15 -95 -38.5t-47 -69.5z" />
    <glyph glyph-name="lcaron" unicode="&#x13e;" horiz-adv-x="542" 
d="M467 1626l332 281q35 28 65 28q24 0 43 -15t25.5 -38t3.5 -48.5t-24.5 -49.5t-57.5 -37l-393 -141l-234 141q-35 21 -37.5 55t18.5 64.5t53.5 53t60.5 22.5q36 0 47 -35zM543 1434l-310 -1151q-2 -8 -8 -31t-8.5 -35.5t-6 -33t-2 -32.5t6 -24.5t15.5 -18.5t28 -6
q52 0 96.5 52.5t75.5 126.5q2 7 7.5 8t9.5 -3t2 -10q-13 -41 -37.5 -88t-62.5 -99t-92.5 -86t-113.5 -34q-53 0 -87 26.5t-45 67t-11 80.5t10 74l285 1065q7 28 -17 47.5t-73 34.5q-10 4 -6 13t12 7q82 -8 165 4.5t125 29.5z" />
    <glyph glyph-name="Ldot" unicode="&#x13f;" horiz-adv-x="1081" 
d="M489 1307l-315 -1178q-12 -47 27.5 -78t111.5 -31q85 0 150 9t126 30.5t112 59.5t100.5 94.5t99.5 136.5q6 9 14 6q7 -4 3 -12l-127 -344h-969q-11 0 -8 10t14 10q50 0 89.5 31t51.5 80l316 1176q12 46 -10 69.5t-74 38.5q-8 3 -6 10q0 11 12 11q123 -15 211 -15
q90 0 219 15q8 0 8 -11q-2 -6 -14 -10q-60 -15 -95 -38.5t-47 -69.5zM623 602q-78 0 -96 63q-18 58 23 122q47 73 128 80q8 1 16 1q80 0 98 -64q16 -59 -25 -122q-48 -72 -130 -79z" />
    <glyph glyph-name="ldot" unicode="&#x140;" horiz-adv-x="681" 
d="M543 1458l-307 -1151q-2 -6 -6.5 -23.5t-7 -27t-6.5 -26t-4.5 -26.5t-1.5 -24t2.5 -22t8.5 -16t14.5 -11.5t22.5 -3.5q52 0 96.5 52t75.5 126q3 10 13 7.5t8 -11.5q-10 -31 -27 -67.5t-46 -80t-62.5 -78t-79 -58t-93.5 -23.5q-42 0 -72 18t-44.5 45.5t-20.5 62t-3.5 65.5
t9.5 57l285 1065q7 28 -17.5 47.5t-74.5 34.5q-10 4 -6 13t12 7q83 -8 166 4.5t125 28.5zM559 618q-79 0 -97 64q-17 58 24 122q47 73 127 80q8 1 16 1q79 0 97 -64q17 -58 -24 -122q-47 -73 -127 -80q-8 -1 -16 -1z" />
    <glyph glyph-name="Lslash" unicode="&#x141;" horiz-adv-x="1081" 
d="M489 1307l-129 -480h371l-43 -161h-371l-143 -537q-12 -47 27.5 -78t111.5 -31q85 0 150 9t126 30.5t112 59.5t100.5 94.5t99.5 136.5q6 9 14 6q7 -4 3 -12l-127 -344h-969q-11 0 -8 10t14 10q50 0 89.5 31t51.5 80l144 535h-123l43 161h123l129 480q12 46 -10 69.5
t-74 38.5q-8 3 -6 10q0 11 12 11q123 -15 211 -15q90 0 219 15q8 0 8 -11q-2 -6 -14 -10q-60 -15 -95 -38.5t-47 -69.5z" />
    <glyph glyph-name="lslash" unicode="&#x142;" horiz-adv-x="542" 
d="M10 242l115 424h-129l43 161h129l129 480q7 27 -17.5 47.5t-74.5 36.5q-7 2 -7 7t4 8.5t9 2.5q83 -8 166 4.5t125 28.5l41 16l-168 -631h112l-43 -161h-114l-94 -359q-2 -6 -6.5 -23.5t-7 -27t-6.5 -26t-4.5 -26.5t-1 -24t3 -22t8.5 -16t15 -11.5t23 -3.5q51 0 95 52
t75 126q2 7 7.5 8t9.5 -2.5t2 -9.5q-9 -31 -26 -67.5t-45.5 -80t-62 -78t-79 -58t-93.5 -23.5q-42 0 -72 18t-44.5 45.5t-20.5 62t-4.5 65t8.5 57.5z" />
    <glyph glyph-name="Nacute" unicode="&#x143;" horiz-adv-x="1351" 
d="M647 1614l324 221q21 16 47 16q36 0 59 -33.5t18 -70.5t-38 -47l-414 -115q-23 -6 -21 5q3 9 25 24zM-186 10q2 7 14 10q61 17 95 40.5t46 68.5l350 1307h238l317 -1416q90 394 107 479q183 900 -35 916q-9 0 -6 10q0 11 12 11q117 -15 213 -15q95 0 221 15q9 0 9 -11
q-2 -6 -15 -10q-61 -18 -95 -40.5t-46 -67.5l-350 -1307h-240l-315 1415q-98 -419 -127 -565q-161 -813 35 -830q9 0 6 -10q0 -10 -12 -10q-118 16 -203 16q-83 0 -211 -16q-11 0 -8 10z" />
    <glyph glyph-name="nacute" unicode="&#x144;" horiz-adv-x="1339" 
d="M988 1479q21 16 47 16q36 0 59.5 -34t19 -71.5t-37.5 -46.5l-415 -114q-21 -5 -19 3q3 9 25 25zM257 954q-51 0 -95 -52t-75 -126q-6 -13 -16 -7q-6 4 -4 11q10 31 27 67.5t45.5 80t62 78t79 58t93.5 23.5q52 0 85 -26.5t43.5 -67t10.5 -80t-10 -73.5l-37 -138
q41 85 94.5 153t107.5 110.5t114 70.5t112.5 39.5t103.5 11.5q74 0 122 -25.5t66 -72t17 -104.5t-20 -129l-127 -473q-24 -90 -25 -114q-5 -67 49 -67q51 0 95 53t75 128q3 6 9 6.5t10 -3.5t2 -10q-10 -31 -27 -67.5t-45.5 -80t-62 -78t-79 -58t-93.5 -23.5q-42 0 -72 18
t-44.5 45.5t-20.5 62t-3.5 65.5t9.5 57l129 483q31 110 17.5 175t-48 91.5t-88.5 26.5q-88 0 -177 -70.5t-152.5 -174t-92.5 -213.5l-143 -535h-205l211 774q24 93 24 123q-3 56 -51 57z" />
    <glyph glyph-name="uni0145" unicode="&#x145;" horiz-adv-x="1351" 
d="M-186 10q2 7 14 10q61 17 95 40.5t46 68.5l350 1307h238l317 -1416q90 394 107 479q183 900 -35 916q-9 0 -6 10q0 11 12 11q117 -15 213 -15q95 0 221 15q9 0 9 -11q-2 -6 -15 -10q-61 -18 -95 -40.5t-46 -67.5l-350 -1307h-240l-315 1415q-98 -419 -127 -565
q-161 -813 35 -830q9 0 6 -10q0 -10 -12 -10q-118 16 -203 16q-83 0 -211 -16q-11 0 -8 10zM317 -385q-83 0 -103 62q-17 55 25 116q48 70 134 77q8 1 16 1q69 0 88 -45t2 -109q-11 -41 -48.5 -95.5t-87.5 -104t-112 -83.5t-114 -34q-7 0 -8 4t8 8q3 1 8 2q59 12 114.5 78
t77.5 123z" />
    <glyph glyph-name="uni0146" unicode="&#x146;" horiz-adv-x="1339" 
d="M257 954q-51 0 -95 -52t-75 -126q-6 -13 -16 -7q-6 4 -4 11q10 31 27 67.5t45.5 80t62 78t79 58t93.5 23.5q52 0 85 -26.5t43.5 -67t10.5 -80t-10 -73.5l-37 -138q41 85 94.5 153t107.5 110.5t114 70.5t112.5 39.5t103.5 11.5q74 0 122 -25.5t66 -72t17 -104.5t-20 -129
l-127 -473q-24 -90 -25 -114q-5 -67 49 -67q51 0 95 53t75 128q3 6 9 6.5t10 -3.5t2 -10q-10 -31 -27 -67.5t-45.5 -80t-62 -78t-79 -58t-93.5 -23.5q-42 0 -72 18t-44.5 45.5t-20.5 62t-3.5 65.5t9.5 57l129 483q31 110 17.5 175t-48 91.5t-88.5 26.5q-88 0 -177 -70.5
t-152.5 -174t-92.5 -213.5l-143 -535h-205l211 774q24 93 24 123q-3 56 -51 57zM431 -385q-83 0 -103 62q-18 55 23 116q48 70 134 77l16 1q48 0 73 -23.5t25.5 -57.5t-6.5 -73q-15 -56 -72.5 -129.5t-139.5 -130.5t-151 -57q-10 0 -9 5q1 7 16 9q60 12 114.5 77t79.5 124z
" />
    <glyph glyph-name="Ncaron" unicode="&#x147;" horiz-adv-x="1351" 
d="M659 1886l183 -280l329 280q36 29 68 29q24 0 43.5 -15t26.5 -38.5t4 -48.5t-25.5 -49.5t-60.5 -37.5l-391 -141l-318 141q-29 13 -37.5 37.5t1.5 49.5t29.5 48.5t46 38.5t50.5 15q34 0 51 -29zM-186 10q2 7 14 10q61 17 95 40.5t46 68.5l350 1307h238l317 -1416
q90 394 107 479q183 900 -35 916q-9 0 -6 10q0 11 12 11q117 -15 213 -15q95 0 221 15q9 0 9 -11q-2 -6 -15 -10q-61 -18 -95 -40.5t-46 -67.5l-350 -1307h-240l-315 1415q-98 -419 -127 -565q-161 -813 35 -830q9 0 6 -10q0 -10 -12 -10q-118 16 -203 16q-83 0 -211 -16
q-11 0 -8 10z" />
    <glyph glyph-name="ncaron" unicode="&#x148;" horiz-adv-x="1339" 
d="M1109 1530q36 29 68 29q24 0 42.5 -15t25 -38.5t3.5 -48.5t-25 -49.5t-59 -37.5l-391 -141l-235 141q-35 21 -37 55t18.5 64.5t52.5 53t60 22.5q36 0 47 -35l98 -281zM257 954q-51 0 -95 -52t-75 -126q-6 -13 -16 -7q-6 4 -4 11q10 31 27 67.5t45.5 80t62 78t79 58
t93.5 23.5q52 0 85 -26.5t43.5 -67t10.5 -80t-10 -73.5l-37 -138q41 85 94.5 153t107.5 110.5t114 70.5t112.5 39.5t103.5 11.5q74 0 122 -25.5t66 -72t17 -104.5t-20 -129l-127 -473q-24 -90 -25 -114q-5 -67 49 -67q51 0 95 53t75 128q3 6 9 6.5t10 -3.5t2 -10
q-10 -31 -27 -67.5t-45.5 -80t-62 -78t-79 -58t-93.5 -23.5q-42 0 -72 18t-44.5 45.5t-20.5 62t-3.5 65.5t9.5 57l129 483q31 110 17.5 175t-48 91.5t-88.5 26.5q-88 0 -177 -70.5t-152.5 -174t-92.5 -213.5l-143 -535h-205l211 774q24 93 24 123q-3 56 -51 57z" />
    <glyph glyph-name="napostrophe" unicode="&#x149;" horiz-adv-x="1339" 
d="M597 1430q-83 0 -103 62q-18 55 23 116q48 70 134 77l16 1q69 0 89 -45t3 -109q-11 -41 -49 -95.5t-88 -104t-112 -84t-114 -34.5q-9 0 -9 4q1 7 18 11q59 11 113 76t79 125zM257 954q-51 0 -95 -52t-75 -126q-6 -13 -16 -7q-6 4 -4 11q10 31 27 67.5t45.5 80t62 78
t79 58t93.5 23.5q52 0 85 -26.5t43.5 -67t10.5 -80t-10 -73.5l-37 -138q41 85 94.5 153t107.5 110.5t114 70.5t112.5 39.5t103.5 11.5q74 0 122 -25.5t66 -72t17 -104.5t-20 -129l-127 -473q-24 -90 -25 -114q-5 -67 49 -67q51 0 95 53t75 128q3 6 9 6.5t10 -3.5t2 -10
q-10 -31 -27 -67.5t-45.5 -80t-62 -78t-79 -58t-93.5 -23.5q-42 0 -72 18t-44.5 45.5t-20.5 62t-3.5 65.5t9.5 57l129 483q31 110 17.5 175t-48 91.5t-88.5 26.5q-88 0 -177 -70.5t-152.5 -174t-92.5 -213.5l-143 -535h-205l211 774q24 93 24 123q-3 56 -51 57z" />
    <glyph glyph-name="Omacron" unicode="&#x14c;" horiz-adv-x="1423" 
d="M612 1585l43 162l514 2l-43 -162zM842 1466q247 0 353 -190q95 -169 56 -432q-39 -259 -186 -484q-157 -239 -372 -336q-123 -55 -253 -55q-247 0 -353 190q-95 169 -56 432q39 259 186 484q157 239 372 336q123 55 253 55zM557 0q165 18 290 236q118 205 156 497
q38 288 -23 486q-60 192 -195 214q-29 4 -60 1q-165 -18 -290 -236q-118 -205 -156 -497q-38 -288 23 -486q60 -192 195 -214q29 -4 60 -1z" />
    <glyph glyph-name="omacron" unicode="&#x14d;" horiz-adv-x="1159" 
d="M484 1229l43 162h514l-43 -162h-514zM728 1087q234 0 332 -162q83 -138 43 -343q-39 -203 -177 -367q-160 -190 -377 -234q-59 -12 -120 -12q-232 0 -331 161q-84 137 -47 342q38 202 174 366q158 190 378 236q62 13 125 13zM546 0q139 24 231 207q86 173 95 400
q8 223 -66 350q-71 122 -195 100q-139 -24 -231 -207q-86 -173 -95 -400q-8 -223 66 -350q71 -122 195 -100z" />
    <glyph glyph-name="Obreve" unicode="&#x14e;" horiz-adv-x="1423" 
d="M1270 1864q7 15 18 11q6 -3 4 -11q-26 -88 -95 -153t-152.5 -95.5t-170.5 -30.5q-88 0 -156 30.5t-102 95.5t-12 153q1 6 6 8.5t10 0.5t5 -9q-2 -29 32.5 -53t85.5 -36.5t97.5 -19t77.5 -6.5q45 0 114 10.5t144 38.5t94 66zM842 1466q247 0 353 -190q95 -169 56 -432
q-39 -259 -186 -484q-157 -239 -372 -336q-123 -55 -253 -55q-247 0 -353 190q-95 169 -56 432q39 259 186 484q157 239 372 336q123 55 253 55zM557 0q165 18 290 236q118 205 156 497q38 288 -23 486q-60 192 -195 214q-29 4 -60 1q-165 -18 -290 -236
q-118 -205 -156 -497q-38 -288 23 -486q60 -192 195 -214q29 -4 60 -1z" />
    <glyph glyph-name="obreve" unicode="&#x14f;" horiz-adv-x="1159" 
d="M978 1464q6 12 14 8q4 -3 2 -8q-31 -102 -126 -168.5t-195 -66.5q-105 0 -169.5 66.5t-39.5 168.5q1 5 5 7t7.5 0.5t3.5 -7.5q-1 -23 25.5 -41.5t66 -27.5t75 -14t59.5 -5q64 0 157 22.5t115 65.5zM728 1087q234 0 332 -162q83 -138 43 -343q-39 -203 -177 -367
q-160 -190 -377 -234q-59 -12 -120 -12q-232 0 -331 161q-84 137 -47 342q38 202 174 366q158 190 378 236q62 13 125 13zM546 0q139 24 231 207q86 173 95 400q8 223 -66 350q-71 122 -195 100q-139 -24 -231 -207q-86 -173 -95 -400q-8 -223 66 -350q71 -122 195 -100z
" />
    <glyph glyph-name="Ohungarumlaut" unicode="&#x150;" horiz-adv-x="1423" 
d="M778 1786q-83 0 -103 62q-18 55 23 116q48 70 134 77l16 1q69 0 89 -45t3 -109q-15 -56 -73 -129.5t-140.5 -130.5t-151.5 -57q-14 0 -6 7q5 4 15 7q59 11 113 75t81 126zM1096 1786q-83 0 -103 62q-17 55 24 116q48 70 134 77l16 1q69 0 88 -45t2 -109
q-11 -41 -48.5 -95.5t-87.5 -104t-112 -83.5t-114 -34q-10 0 -9 4q3 6 17 10q59 11 113.5 76t79.5 125zM842 1466q247 0 353 -190q95 -169 56 -432q-39 -259 -186 -484q-157 -239 -372 -336q-123 -55 -253 -55q-247 0 -353 190q-95 169 -56 432q39 259 186 484
q157 239 372 336q123 55 253 55zM557 0q165 18 290 236q118 205 156 497q38 288 -23 486q-60 192 -195 214q-29 4 -60 1q-165 -18 -290 -236q-118 -205 -156 -497q-38 -288 23 -486q60 -192 195 -214q29 -4 60 -1z" />
    <glyph glyph-name="ohungarumlaut" unicode="&#x151;" horiz-adv-x="1159" 
d="M714 1430q-83 0 -103 62q-17 55 24 116q48 70 134 77l16 1q47 0 72.5 -23.5t26.5 -57.5t-6 -73q-16 -56 -74 -129.5t-140 -131t-151 -57.5q-9 0 -9 4q0 7 17 11q59 11 113.5 76t79.5 125zM1037 1430q-83 0 -103 62q-17 55 25 116q48 70 134 77l16 1q47 0 72 -23.5
t26 -57.5t-6 -73q-16 -56 -73.5 -129.5t-139.5 -131t-151 -57.5q-9 0 -9 4q0 7 17 11q59 11 113 76t79 125zM728 1087q234 0 332 -162q83 -138 43 -343q-39 -203 -177 -367q-160 -190 -377 -234q-59 -12 -120 -12q-232 0 -331 161q-84 137 -47 342q38 202 174 366
q158 190 378 236q62 13 125 13zM546 0q139 24 231 207q86 173 95 400q8 223 -66 350q-71 122 -195 100q-139 -24 -231 -207q-86 -173 -95 -400q-8 -223 66 -350q71 -122 195 -100z" />
    <glyph glyph-name="OE" unicode="&#x152;" horiz-adv-x="2025" 
d="M803 1466q39 0 192 -15t277 -15h803l-58 -344l-1 -4q-2 -4 -3.5 -6t-5.5 -3q-10 -3 -10 6q-10 103 -32.5 165t-71.5 100t-118.5 51.5t-183.5 13.5q-74 0 -132 -30.5t-70 -77.5l-154 -576h96q44 0 82.5 8t68 21t57.5 35.5t47 43t42 52.5t36 54.5t34.5 59t34.5 56.5
q6 9 14 6q6 -3 2 -12q-20 -55 -45.5 -113.5t-43 -105.5t-34.5 -113q-18 -67 -26.5 -116.5t-15 -111.5t-15.5 -116q-5 -10 -10 -12q-11 -4 -11 6q-2 21 -4 57t-3 58.5t-6.5 54.5t-13.5 52t-24 42.5t-38.5 35.5t-57 21t-78.5 8h-96l-154 -573q-13 -47 30 -75.5t116 -33.5
q212 -12 333 57.5t248 272.5q6 9 15 6q6 -3 2 -12l-127 -344h-789q-124 0 -285 -15.5t-200 -15.5q-234 0 -334 190q-90 172 -50 439q40 262 185 489q153 238 360 330q110 49 226 49zM557 0q165 18 290 236q117 205 155 497q38 288 -24 486q-60 192 -195 214q-29 4 -60 1
q-165 -18 -290 -236q-117 -205 -155 -497q-38 -288 24 -486q60 -192 195 -214q29 -4 60 -1z" />
    <glyph glyph-name="oe" unicode="&#x153;" horiz-adv-x="1912" 
d="M1212 -33q-250 0 -329 199q-197 -197 -453 -197q-232 0 -331 161q-84 137 -46 342q38 203 175 367q159 190 379 235q61 13 124 13q132 0 219.5 -51.5t128.5 -142.5q184 194 426 194q233 0 323 -116q64 -83 32 -188q-30 -97 -121 -152q-52 -31 -113 -39q-30 -4 -94.5 -4
t-122.5 -2.5t-121 -11.5t-113 -36t-77 -71q-15 -87 -11 -164.5t24 -135t70.5 -90.5t127.5 -32q207 2 434 242q10 9 16.5 2.5t-2.5 -17.5q-154 -169 -283.5 -237t-261.5 -68zM1481 1063q-87 -17 -166.5 -102.5t-132 -203.5t-76.5 -247q33 47 96 81.5t121.5 50t125.5 34
t97 33.5q33 17 59 47.5t39 66.5t18 74t-5.5 71.5t-31 58.5t-58 35t-86.5 1zM614 1057q-139 -24 -231 -207q-86 -173 -95 -400q-8 -223 65 -350q71 -122 194 -100q139 24 231 207q87 173 96 400q8 223 -66 350q-70 122 -194 100z" />
    <glyph glyph-name="Racute" unicode="&#x154;" horiz-adv-x="1275" 
d="M928 1835q24 16 49 16q35 0 58 -34t18 -71t-39 -46l-414 -115q-20 -5 -19 3q0 9 23 25q1 0 2 1zM-178 0q-11 0 -8 10q2 7 14 10q59 15 93.5 39t47.5 70l316 1176q12 49 -11 79.5t-73 30.5q-9 0 -6 10q0 11 12 11q121 0 282 11t281 11q274 0 391 -139q88 -105 59 -251
q-29 -139 -149 -243q-138 -118 -330 -131l66 -565q2 -21 11.5 -38t19.5 -27t30.5 -19.5t31 -13t36.5 -11.5q6 -3 4 -10q0 -10 -10 -10q-134 16 -219 16q-84 0 -228 -16q-8 0 -8 10q2 7 14 10q60 17 82.5 37.5t16.5 71.5l-62 524q-107 -38 -182.5 -107t-97.5 -147l-72 -270
q-13 -46 9.5 -70t74.5 -39q8 -3 6 -10q0 -10 -12 -10q-128 16 -211 16q-81 0 -219 -16zM729 1438q-30 0 -62.5 -5.5t-71 -19t-68 -42t-40.5 -68.5l-217 -814q68 96 167.5 155t201.5 73q183 26 279 174q78 123 67 271q-11 140 -97 217q-65 59 -159 59z" />
    <glyph glyph-name="racute" unicode="&#x155;" horiz-adv-x="1269" 
d="M914 1479q21 16 48 16q36 0 59.5 -34t19 -71.5t-37.5 -46.5l-416 -114q-21 -5 -19 3q3 10 25 25zM282 0h-205l209 774q24 93 24 123q-3 56 -51 57q-52 0 -96.5 -52.5t-73.5 -125.5q-6 -13 -16 -7q-6 4 -4 11q10 31 27 67.5t45.5 80t62 78t79 58t93.5 23.5q52 0 86 -26.5
t45.5 -66.5t11.5 -80.5t-10 -73.5l-37 -140q51 107 113 185t127.5 120.5t128.5 62t129 19.5q180 0 237 -102q42 -74 2 -165q-36 -81 -112 -116q-38 -18 -80 -18q-53 0 -82.5 26.5t-32.5 69.5q42 29 67.5 69.5t28 77t-26.5 62t-87 25.5q-64 0 -128 -33t-115.5 -84.5
t-95.5 -116.5t-73.5 -128t-44.5 -119z" />
    <glyph glyph-name="uni0156" unicode="&#x156;" horiz-adv-x="1275" 
d="M-178 0q-11 0 -8 10q2 7 14 10q59 15 93.5 39t47.5 70l316 1176q12 49 -11 79.5t-73 30.5q-9 0 -6 10q0 11 12 11q121 0 282 11t281 11q274 0 391 -139q88 -105 59 -251q-29 -139 -149 -243q-138 -118 -330 -131l66 -565q2 -21 11.5 -38t19.5 -27t30.5 -19.5t31 -13
t36.5 -11.5q6 -3 4 -10q0 -10 -10 -10q-134 16 -219 16q-84 0 -228 -16q-8 0 -8 10q2 7 14 10q60 17 82.5 37.5t16.5 71.5l-62 524q-107 -38 -182.5 -107t-97.5 -147l-72 -270q-13 -46 9.5 -70t74.5 -39q8 -3 6 -10q0 -10 -12 -10q-128 16 -211 16q-81 0 -219 -16zM729 1438
q-30 0 -62.5 -5.5t-71 -19t-68 -42t-40.5 -68.5l-217 -814q68 96 167.5 155t201.5 73q183 26 279 174q78 123 67 271q-11 140 -97 217q-65 59 -159 59zM276 -385q-83 0 -103 62q-18 55 23 116q48 70 134 77l16 1q48 0 73 -23.5t25.5 -57.5t-6.5 -73q-11 -41 -48.5 -95.5
t-87.5 -104t-112 -83.5t-114 -34q-10 0 -9 5q0 7 15 9q60 12 114.5 77t79.5 124z" />
    <glyph glyph-name="uni0157" unicode="&#x157;" horiz-adv-x="1269" 
d="M282 0h-205l209 774q24 93 24 123q-3 56 -51 57q-52 0 -96.5 -52.5t-73.5 -125.5q-6 -13 -16 -7q-6 4 -4 11q10 31 27 67.5t45.5 80t62 78t79 58t93.5 23.5q52 0 86 -26.5t45.5 -66.5t11.5 -80.5t-10 -73.5l-37 -140q51 107 113 185t127.5 120.5t128.5 62t129 19.5
q180 0 237 -102q42 -74 2 -165q-36 -81 -112 -116q-38 -18 -80 -18q-53 0 -82.5 26.5t-32.5 69.5q42 29 67.5 69.5t28 77t-26.5 62t-87 25.5q-64 0 -128 -33t-115.5 -84.5t-95.5 -116.5t-73.5 -128t-44.5 -119zM359 -385q-83 0 -103 62q-18 55 23 116q48 70 134 77l16 1
q48 0 73 -23.5t25.5 -57.5t-6.5 -73q-11 -41 -48.5 -95.5t-87.5 -104t-112 -83.5t-114 -34q-10 0 -9 5q0 7 15 9q60 12 114.5 77t79.5 124z" />
    <glyph glyph-name="Rcaron" unicode="&#x158;" horiz-adv-x="1275" 
d="M618 1886l181 -280l331 280q36 29 68 29q24 0 43 -15t26 -38.5t4 -48.5t-25 -49.5t-60 -37.5l-393 -141l-316 141q-30 13 -39 37.5t1.5 49.5t29.5 48.5t46.5 38.5t51.5 15q34 0 51 -29zM-178 0q-11 0 -8 10q2 7 14 10q59 15 93.5 39t47.5 70l316 1176q12 49 -11 79.5
t-73 30.5q-9 0 -6 10q0 11 12 11q121 0 282 11t281 11q274 0 391 -139q88 -105 59 -251q-29 -139 -149 -243q-138 -118 -330 -131l66 -565q2 -21 11.5 -38t19.5 -27t30.5 -19.5t31 -13t36.5 -11.5q6 -3 4 -10q0 -10 -10 -10q-134 16 -219 16q-84 0 -228 -16q-8 0 -8 10
q2 7 14 10q60 17 82.5 37.5t16.5 71.5l-62 524q-107 -38 -182.5 -107t-97.5 -147l-72 -270q-13 -46 9.5 -70t74.5 -39q8 -3 6 -10q0 -10 -12 -10q-128 16 -211 16q-81 0 -219 -16zM729 1438q-30 0 -62.5 -5.5t-71 -19t-68 -42t-40.5 -68.5l-217 -814q68 96 167.5 155
t201.5 73q183 26 279 174q78 123 67 271q-11 140 -97 217q-65 59 -159 59z" />
    <glyph glyph-name="rcaron" unicode="&#x159;" horiz-adv-x="1269" 
d="M1037 1538q36 29 68 29q24 0 43 -15t25.5 -38.5t3 -48.5t-25 -49.5t-58.5 -37.5l-392 -141l-235 141q-34 20 -36.5 54.5t18.5 65t53 53t59 22.5q36 0 47 -35l99 -281zM282 0h-205l209 774q24 93 24 123q-3 56 -51 57q-52 0 -96.5 -52.5t-73.5 -125.5q-6 -13 -16 -7
q-6 4 -4 11q10 31 27 67.5t45.5 80t62 78t79 58t93.5 23.5q52 0 86 -26.5t45.5 -66.5t11.5 -80.5t-10 -73.5l-37 -140q51 107 113 185t127.5 120.5t128.5 62t129 19.5q180 0 237 -102q42 -74 2 -165q-36 -81 -112 -116q-38 -18 -80 -18q-53 0 -82.5 26.5t-32.5 69.5
q42 29 67.5 69.5t28 77t-26.5 62t-87 25.5q-64 0 -128 -33t-115.5 -84.5t-95.5 -116.5t-73.5 -128t-44.5 -119z" />
    <glyph glyph-name="Sacute" unicode="&#x15a;" horiz-adv-x="1277" 
d="M639 1614l322 221q24 16 49 16q35 0 58 -34t18 -71t-39 -46l-414 -115q-20 -5 -19 3q0 9 23 25q1 0 2 1zM1040 287q-16 -59 -50 -108t-76.5 -81.5t-96 -57t-103.5 -38t-105.5 -22t-95.5 -11t-79 -2.5q-93 0 -169 16t-114.5 35.5t-78 35.5t-68.5 16q-54 0 -84 -39
q-12 -16 -19 -9q-3 3 -1 9l102 385q3 10 8 13t9 -0.5t4 -12.5q11 -108 38 -187.5t61 -124t79.5 -71t84.5 -34t85 -7.5q171 0 288.5 95.5t153.5 225.5q58 221 -190 383q-34 22 -75.5 46.5t-75.5 43t-72 40.5t-68 40.5t-60 40.5t-51 43.5t-38.5 47.5t-25.5 53t-8.5 60t9.5 69
q17 62 54.5 110.5t88.5 78.5t104 50.5t111.5 30t99.5 13t80 3.5q103 0 206 -25.5t176.5 -51t105.5 -25.5q45 0 73 39q10 16 19 9q2 -4 2 -9l-104 -385q-2 -9 -6.5 -12.5t-9 -0.5t-5.5 13q-28 217 -128.5 317.5t-242.5 100.5q-38 0 -79 -6.5t-90.5 -24t-91 -45t-77 -75
t-51.5 -107.5q-10 -39 -10.5 -74t9 -65.5t24 -57t39 -52t48 -46t57 -43.5t60 -40t63.5 -40.5t62 -40.5q17 -11 50.5 -33t53.5 -35.5t51 -36t49 -41t41 -44t34 -50.5t20 -55.5t7.5 -64.5t-11.5 -72z" />
    <glyph glyph-name="sacute" unicode="&#x15b;" horiz-adv-x="1116" 
d="M563 1257l324 222q21 16 47 16q36 0 59 -34t18 -71.5t-38 -46.5l-416 -114q-21 -5 -19 3q3 10 25 25zM676 1087q68 0 125.5 -16t89.5 -35t67 -35t62 -16q46 0 74 39q12 16 19 9q3 -3 1 -9l-102 -385q-6 -17 -15 -15q-7 1 -6 15q4 109 -19 193t-65.5 133.5t-95 74.5
t-111.5 25q-100 0 -184 -64t-113 -170q-9 -33 -9.5 -63t8 -53t19.5 -42t30.5 -34t36 -26t40 -21t38.5 -15.5t36 -11.5q241 -77 317.5 -143.5t47.5 -177.5q-15 -56 -47.5 -102t-72 -74t-84 -49t-86 -30.5t-75 -15t-54.5 -5.5l-20 -1q-88 0 -163 16t-115 35.5t-79.5 35.5
t-66.5 16q-51 0 -81 -39q-12 -17 -20 -9q-3 3 -1 9l102 385q3 10 8 13t9 -0.5t4 -12.5q14 -209 98.5 -313.5t200.5 -104.5q104 0 194 76.5t123 199.5q28 103 -22 163.5t-211 109.5q-22 7 -54.5 16t-55.5 15t-53 15.5t-51 17.5t-44.5 20.5t-38.5 25t-29 29.5t-19.5 36.5
t-5.5 44.5t7 54q18 67 68 118.5t108 78.5t129 43.5t118.5 21t88.5 4.5z" />
    <glyph glyph-name="Scircumflex" unicode="&#x15c;" horiz-adv-x="1277" 
d="M907 1888l-332 -280q-33 -29 -65 -29q-24 0 -43 15t-26 38t-4 48.5t24.5 49.5t58.5 37l393 142l316 -142q31 -13 41 -37t-0.5 -49.5t-30 -48.5t-47 -38t-51.5 -15q-37 0 -54 29zM1040 287q-16 -59 -50 -108t-76.5 -81.5t-96 -57t-103.5 -38t-105.5 -22t-95.5 -11
t-79 -2.5q-93 0 -169 16t-114.5 35.5t-78 35.5t-68.5 16q-54 0 -84 -39q-12 -16 -19 -9q-3 3 -1 9l102 385q3 10 8 13t9 -0.5t4 -12.5q11 -108 38 -187.5t61 -124t79.5 -71t84.5 -34t85 -7.5q171 0 288.5 95.5t153.5 225.5q58 221 -190 383q-34 22 -75.5 46.5t-75.5 43
t-72 40.5t-68 40.5t-60 40.5t-51 43.5t-38.5 47.5t-25.5 53t-8.5 60t9.5 69q17 62 54.5 110.5t88.5 78.5t104 50.5t111.5 30t99.5 13t80 3.5q103 0 206 -25.5t176.5 -51t105.5 -25.5q45 0 73 39q10 16 19 9q2 -4 2 -9l-104 -385q-2 -9 -6.5 -12.5t-9 -0.5t-5.5 13
q-28 217 -128.5 317.5t-242.5 100.5q-38 0 -79 -6.5t-90.5 -24t-91 -45t-77 -75t-51.5 -107.5q-10 -39 -10.5 -74t9 -65.5t24 -57t39 -52t48 -46t57 -43.5t60 -40t63.5 -40.5t62 -40.5q17 -11 50.5 -33t53.5 -35.5t51 -36t49 -41t41 -44t34 -50.5t20 -55.5t7.5 -64.5
t-11.5 -72z" />
    <glyph glyph-name="scircumflex" unicode="&#x15d;" horiz-adv-x="1116" 
d="M840 1540l-332 -280q-36 -29 -68 -29q-24 0 -42.5 15t-25 38t-3.5 48.5t25 49.5t59 37l391 142l317 -142q30 -13 39.5 -37t-1 -49.5t-30 -48.5t-47 -38t-51.5 -15q-34 0 -51 29zM676 1087q68 0 125.5 -16t89.5 -35t67 -35t62 -16q46 0 74 39q12 16 19 9q3 -3 1 -9
l-102 -385q-6 -17 -15 -15q-7 1 -6 15q4 109 -19 193t-65.5 133.5t-95 74.5t-111.5 25q-100 0 -184 -64t-113 -170q-9 -33 -9.5 -63t8 -53t19.5 -42t30.5 -34t36 -26t40 -21t38.5 -15.5t36 -11.5q241 -77 317.5 -143.5t47.5 -177.5q-15 -56 -47.5 -102t-72 -74t-84 -49
t-86 -30.5t-75 -15t-54.5 -5.5l-20 -1q-88 0 -163 16t-115 35.5t-79.5 35.5t-66.5 16q-51 0 -81 -39q-12 -17 -20 -9q-3 3 -1 9l102 385q3 10 8 13t9 -0.5t4 -12.5q14 -209 98.5 -313.5t200.5 -104.5q104 0 194 76.5t123 199.5q28 103 -22 163.5t-211 109.5q-22 7 -54.5 16
t-55.5 15t-53 15.5t-51 17.5t-44.5 20.5t-38.5 25t-29 29.5t-19.5 36.5t-5.5 44.5t7 54q18 67 68 118.5t108 78.5t129 43.5t118.5 21t88.5 4.5z" />
    <glyph glyph-name="Scedilla" unicode="&#x15e;" horiz-adv-x="1277" 
d="M696 1466q103 0 206 -25.5t176.5 -51t105.5 -25.5q45 0 73 39q10 16 19 9q2 -4 2 -9l-104 -385q-2 -9 -6.5 -12.5t-9 -0.5t-5.5 13q-28 217 -128.5 317.5t-242.5 100.5q-38 0 -79 -6.5t-90.5 -24t-91 -45t-77 -75t-51.5 -107.5q-10 -39 -10.5 -74t9 -65.5t24 -57t39 -52
t48 -46t57 -43.5t60 -40t63.5 -40.5t62 -40.5q17 -11 50.5 -33t53.5 -35.5t51 -36t49 -41t41 -44t34 -50.5t20 -55.5t7.5 -64.5t-11.5 -72q-16 -59 -51.5 -108t-80 -81.5t-101 -57t-109.5 -38t-110.5 -22t-99 -11t-80.5 -2.5l-70 -119q92 15 127.5 -20t-0.5 -111
q-30 -62 -84 -95.5t-121 -33.5q-32 0 -52.5 8.5t-27.5 21.5t-9.5 27t1.5 25q6 20 21 30.5t32 10.5q19 0 26.5 -11.5t-5.5 -31.5q-23 -32 -16 -53t30 -21q58 0 111 75q48 68 47 125q-2 52 -51 50q-39 -2 -86 -37q-26 -20 -33 -20q-4 1 -1.5 8.5t7.5 16.5l96 159
q-88 7 -157 32t-112.5 46t-76.5 21q-54 0 -84 -39q-12 -16 -19 -9q-3 3 -1 9l102 385q3 10 8 13t9 -0.5t4 -12.5q11 -108 38 -188t61 -124.5t79.5 -71t84.5 -34.5t85 -8q171 0 288.5 96t153.5 227q58 221 -190 383q-34 22 -75.5 46.5t-75.5 43t-72 40.5t-68 40.5t-60 40.5
t-51 43.5t-38.5 47.5t-25.5 53t-8.5 60t9.5 69q17 62 54.5 110.5t88.5 78.5t104 50.5t111.5 30t99.5 13t80 3.5z" />
    <glyph glyph-name="scedilla" unicode="&#x15f;" horiz-adv-x="1116" 
d="M676 1087q68 0 125.5 -16t89.5 -35t67 -35t62 -16q46 0 74 39q12 16 19 9q3 -3 1 -9l-102 -385q-6 -17 -15 -15q-7 1 -6 15q4 109 -19 193t-65.5 133.5t-95 74.5t-111.5 25q-100 0 -184 -63t-113 -168q-9 -34 -9.5 -64t8 -53t19.5 -42.5t30 -35t35.5 -26.5t40 -21
t38 -15.5t35.5 -11.5q242 -77 319 -143.5t48 -177.5q-15 -56 -47.5 -102t-72 -74t-84 -49t-86 -30.5t-75 -15t-54.5 -5.5l-20 -1q-52 0 -96 6l-74 -125q92 15 127.5 -20t-0.5 -111q-30 -62 -83.5 -95.5t-120.5 -33.5q-32 0 -52.5 8.5t-27.5 21.5t-9.5 27t1.5 25
q6 20 21 30.5t32 10.5q19 0 26 -11.5t-6 -31.5q-23 -32 -15.5 -53t30.5 -21q58 0 111 75q48 68 46 125q-2 52 -51 50q-39 -2 -86 -37q-26 -20 -33 -20q-4 1 -1.5 8.5t7.5 16.5l105 168q-75 15 -159 52.5t-116 37.5q-51 0 -81 -39q-12 -17 -20 -9q-3 3 -1 9l102 385
q3 10 8 13t9 -0.5t4 -12.5q14 -209 98.5 -313.5t200.5 -104.5q104 0 194 76.5t123 199.5q28 103 -22 163.5t-211 109.5q-22 7 -54.5 16t-55.5 15t-53 15.5t-51 17.5t-44.5 20.5t-38.5 25t-29 29.5t-19.5 36.5t-5.5 44.5t7 54q18 67 68 118.5t108 78.5t129 43.5t118.5 21
t88.5 4.5z" />
    <glyph glyph-name="Scaron" unicode="&#x160;" horiz-adv-x="1277" 
d="M651 1886l180 -280l332 280q36 29 68 29q24 0 43 -15t26 -38.5t4 -48.5t-25 -49.5t-60 -37.5l-394 -141l-315 141q-30 13 -39 37.5t1.5 49.5t29.5 48.5t46.5 38.5t51.5 15q34 0 51 -29zM1040 287q-16 -59 -50 -108t-76.5 -81.5t-96 -57t-103.5 -38t-105.5 -22t-95.5 -11
t-79 -2.5q-93 0 -169 16t-114.5 35.5t-78 35.5t-68.5 16q-54 0 -84 -39q-12 -16 -19 -9q-3 3 -1 9l102 385q3 10 8 13t9 -0.5t4 -12.5q11 -108 38 -187.5t61 -124t79.5 -71t84.5 -34t85 -7.5q171 0 288.5 95.5t153.5 225.5q58 221 -190 383q-34 22 -75.5 46.5t-75.5 43
t-72 40.5t-68 40.5t-60 40.5t-51 43.5t-38.5 47.5t-25.5 53t-8.5 60t9.5 69q17 62 54.5 110.5t88.5 78.5t104 50.5t111.5 30t99.5 13t80 3.5q103 0 206 -25.5t176.5 -51t105.5 -25.5q45 0 73 39q10 16 19 9q2 -4 2 -9l-104 -385q-2 -9 -6.5 -12.5t-9 -0.5t-5.5 13
q-28 217 -128.5 317.5t-242.5 100.5q-38 0 -79 -6.5t-90.5 -24t-91 -45t-77 -75t-51.5 -107.5q-10 -39 -10.5 -74t9 -65.5t24 -57t39 -52t48 -46t57 -43.5t60 -40t63.5 -40.5t62 -40.5q17 -11 50.5 -33t53.5 -35.5t51 -36t49 -41t41 -44t34 -50.5t20 -55.5t7.5 -64.5
t-11.5 -72z" />
    <glyph glyph-name="scaron" unicode="&#x161;" horiz-adv-x="1116" 
d="M575 1530l181 -281l331 281q36 29 68 29q24 0 43.5 -15t26.5 -38.5t4 -48.5t-25.5 -49.5t-60.5 -37.5l-391 -141l-318 141q-30 13 -39 37.5t1.5 49.5t29.5 48.5t46.5 38.5t51.5 15q34 0 51 -29zM676 1087q68 0 125.5 -16t89.5 -35t67 -35t62 -16q46 0 74 39q12 16 19 9
q3 -3 1 -9l-102 -385q-6 -17 -15 -15q-7 1 -6 15q4 109 -19 193t-65.5 133.5t-95 74.5t-111.5 25q-100 0 -184 -64t-113 -170q-9 -33 -9.5 -63t8 -53t19.5 -42t30.5 -34t36 -26t40 -21t38.5 -15.5t36 -11.5q241 -77 317.5 -143.5t47.5 -177.5q-15 -56 -47.5 -102t-72 -74
t-84 -49t-86 -30.5t-75 -15t-54.5 -5.5l-20 -1q-88 0 -163 16t-115 35.5t-79.5 35.5t-66.5 16q-51 0 -81 -39q-12 -17 -20 -9q-3 3 -1 9l102 385q3 10 8 13t9 -0.5t4 -12.5q14 -209 98.5 -313.5t200.5 -104.5q104 0 194 76.5t123 199.5q28 103 -22 163.5t-211 109.5
q-22 7 -54.5 16t-55.5 15t-53 15.5t-51 17.5t-44.5 20.5t-38.5 25t-29 29.5t-19.5 36.5t-5.5 44.5t7 54q18 67 68 118.5t108 78.5t129 43.5t118.5 21t88.5 4.5z" />
    <glyph glyph-name="uni0162" unicode="&#x162;" horiz-adv-x="1433" 
d="M127 1090l127 344h1180l-58 -342l-2 -4q-1 -4 -2.5 -6t-5.5 -3q-10 -3 -10 6q-4 51 -12.5 92.5t-29 88t-52 77.5t-84.5 51.5t-123 20.5q-59 0 -95 -29.5t-49 -78.5l-315 -1178q-13 -48 1.5 -71.5t61.5 -37.5q9 -4 7 -10q0 -10 -13 -10q-115 16 -190 16q-71 0 -199 -16
q-8 0 -8 10q2 6 14 10q54 14 81 37.5t40 71.5l316 1176q27 108 -86 108q-70 0 -134 -20.5t-112 -51.5t-93.5 -77.5t-76.5 -88t-62 -92.5q-6 -9 -14 -6q-7 2 -2 13zM365 -385q-83 0 -103 62q-17 55 24 116q48 70 134 77l16 1q69 0 88 -45t2 -109q-11 -41 -48.5 -95.5
t-87.5 -104t-112 -83.5t-114 -34q-7 0 -8 4t8 8l8 2q59 12 115 78t78 123z" />
    <glyph glyph-name="uni0163" unicode="&#x163;" horiz-adv-x="651" 
d="M256 -72h-10q-26 0 -43.5 0.5t-52.5 7.5t-58 21t-48 43t-35 70t-7 107t25 149l170 657h-93q-11 0 -7 11q5 9 14 10q71 0 183 80t155 151h20l-61 -231h243l-6 -21h-244l-188 -721q-13 -50 -16 -91t1.5 -66t15.5 -43t21.5 -26.5t24 -13.5t19 -5.5t10.5 -0.5q44 0 87 25.5
t75 65.5t55 78.5t37 74.5q6 13 16 7q6 -4 4 -11q-10 -32 -26.5 -70t-45.5 -85t-62.5 -84.5t-79 -63t-93.5 -25.5zM100 -418q-83 1 -103 63q-17 56 25 116q50 71 137 77h13q47 0 72 -23t26 -56.5t-6 -71.5q-16 -57 -73.5 -131t-139.5 -131.5t-151 -57.5q-11 0 -7 8q5 6 15 9
q59 11 114.5 76t77.5 122z" />
    <glyph glyph-name="Tcaron" unicode="&#x164;" horiz-adv-x="1433" 
d="M707 1886l182 -280l330 280q36 29 67 29q24 0 43.5 -15t26.5 -38.5t4 -48.5t-25.5 -49.5t-60.5 -37.5l-391 -141l-318 141q-29 13 -37.5 37.5t1.5 49.5t29.5 48.5t46 38.5t50.5 15q35 0 52 -29zM127 1090l127 344h1180l-58 -342l-2 -4q-1 -4 -2.5 -6t-5.5 -3
q-10 -3 -10 6q-4 51 -12.5 92.5t-29 88t-52 77.5t-84.5 51.5t-123 20.5q-59 0 -95 -29.5t-49 -78.5l-315 -1178q-13 -48 1.5 -71.5t61.5 -37.5q9 -4 7 -10q0 -10 -13 -10q-115 16 -190 16q-71 0 -199 -16q-8 0 -8 10q2 6 14 10q54 14 81 37.5t40 71.5l316 1176
q27 108 -86 108q-70 0 -134 -20.5t-112 -51.5t-93.5 -77.5t-76.5 -88t-62 -92.5q-6 -9 -14 -6q-7 2 -2 13z" />
    <glyph glyph-name="tcaron" unicode="&#x165;" horiz-adv-x="651" 
d="M776 1722q36 29 68 29q24 0 42.5 -15t25 -38t3.5 -48.5t-25 -49.5t-59 -37l-391 -142l-235 142q-35 21 -37 55t18.5 64.5t52.5 52.5t60 22q36 0 47 -35l98 -280zM256 -72h-10q-26 0 -43.5 0.5t-52.5 7.5t-58 21t-48 43t-35 70t-7 107t25 149l170 657h-93q-11 0 -7 11
q5 9 14 10q71 0 183 80t155 151h20l-61 -231h243l-6 -21h-244l-188 -721q-13 -50 -16 -91t1.5 -66t15.5 -43t21.5 -26.5t24 -13.5t19 -5.5t10.5 -0.5q44 0 87 25.5t75 65.5t55 78.5t37 74.5q6 13 16 7q6 -4 4 -11q-10 -32 -26.5 -70t-45.5 -85t-62.5 -84.5t-79 -63
t-93.5 -25.5z" />
    <glyph glyph-name="Tbar" unicode="&#x166;" horiz-adv-x="1433" 
d="M127 1090l127 344h1180l-58 -342l-2 -4q-1 -4 -2.5 -6t-5.5 -3q-10 -3 -10 6q-4 51 -12.5 92.5t-29 88t-52 77.5t-84.5 51.5t-123 20.5q-59 0 -95 -29.5t-49 -78.5l-57 -215h246l-43 -162h-246l-215 -801q-13 -48 1.5 -71.5t61.5 -37.5q9 -4 7 -10q0 -10 -13 -10
q-115 16 -190 16q-71 0 -199 -16q-8 0 -8 10q2 6 14 10q54 14 81 37.5t40 71.5l215 801h-248l43 162h248l58 213q27 108 -86 108q-70 0 -134 -20.5t-112 -51.5t-93.5 -77.5t-76.5 -88t-62 -92.5q-6 -9 -14 -6q-7 2 -2 13z" />
    <glyph glyph-name="tbar" unicode="&#x167;" horiz-adv-x="653" 
d="M258 -51q-79 0 -115 10q-202 53 -116 387l94 361h-135l45 161h131l37 136h-93q-10 0 -8 10t13 10q71 0 183.5 80t156.5 151h20l-63 -231h243l-4 -20h-244l-36 -136h231l-43 -161h-229l-111 -424q-13 -50 -16 -91t1.5 -66t15.5 -43t21.5 -26.5t24 -13.5t19 -5.5t10.5 -0.5
q44 0 86.5 25.5t75 66t55 79t37.5 75.5q4 9 13.5 5.5t6.5 -12.5q-10 -32 -26.5 -69.5t-45.5 -85t-62.5 -84.5t-79 -62.5t-93.5 -25.5z" />
    <glyph glyph-name="Utilde" unicode="&#x168;" horiz-adv-x="1359" 
d="M549 1712q93 203 201 203q43 0 93 -31t88.5 -67.5t83.5 -67.5t79 -31q43 0 80 51q5 6 11 6.5t9 -3.5t0 -11q-91 -200 -199 -200q-34 0 -73 20t-73.5 49t-67.5 58t-67.5 49t-62.5 20q-47 0 -84 -53q-6 -9 -14 -5.5t-4 13.5zM209 1413q-5 1 -6.5 4t-1 6t2.5 5.5t5 4.5t6 1
q123 -15 211 -15q90 0 219 15q8 2 8 -8q-1 -10 -14 -13q-61 -15 -95.5 -38.5t-45.5 -69.5l-287 -1072q-19 -70 20.5 -121.5t113.5 -75.5t167 -24q146 0 268 58.5t150 162.5q32 117 59 240.5t50 258t31.5 253t3 214.5t-35.5 154t-84 62q-13 2 -7 14q5 7 11 7q120 -15 216 -15
t219 15q8 2 8 -7q1 -10 -12 -14q-63 -17 -97.5 -40t-46.5 -68l-287 -1074q-24 -89 -102.5 -150.5t-178 -87.5t-214.5 -26q-130 0 -241 32t-174 93.5t-42 138.5l285 1070q13 47 -8.5 71t-73.5 39z" />
    <glyph glyph-name="utilde" unicode="&#x169;" horiz-adv-x="1337" 
d="M505 1376q93 203 201 203q43 0 93 -31t88.5 -67.5t83.5 -67.5t79 -31q41 0 79 52q5 6 11 6.5t9.5 -4t0.5 -11.5q-93 -200 -199 -200q-43 0 -93 30.5t-88.5 67.5t-83.5 67.5t-79 30.5q-47 0 -84 -53q-6 -9 -14 -5.5t-4 13.5zM259 954q-51 0 -95 -52t-75 -126
q-6 -13 -16 -7q-6 4 -4 11q10 31 27 67.5t45.5 80t62 78t79 58t93.5 23.5q52 0 85 -26.5t43.5 -67t10.5 -80t-10 -73.5l-137 -516q-20 -84 -20.5 -140t20 -90t49.5 -48.5t69 -14.5q88 0 177 70.5t152.5 174t92.5 213.5l142 535h204l-196 -741q-2 -9 -8.5 -31t-10 -35
t-7.5 -33t-3 -32.5t4.5 -25t14.5 -18.5t28 -6q52 0 96.5 53t73.5 128q3 6 9 6.5t10 -3.5t2 -10q-10 -31 -26.5 -67.5t-45 -80t-62 -78t-79.5 -58t-94 -23.5q-52 0 -84 26.5t-41.5 67.5t-9 80t9.5 74l28 105q-50 -105 -118.5 -183.5t-141 -120.5t-140 -61.5t-132.5 -19.5
q-74 0 -122 25.5t-66 72t-17 104.5t20 129l136 506q2 7 6.5 24t7 26.5t6.5 26t5 27t1.5 23.5t-3 21.5t-8.5 16.5t-15 11.5t-23 3.5z" />
    <glyph glyph-name="Umacron" unicode="&#x16a;" horiz-adv-x="1359" 
d="M590 1747h514l-43 -162h-514zM209 1413q-5 1 -6.5 4t-1 6t2.5 5.5t5 4.5t6 1q123 -15 211 -15q90 0 219 15q8 2 8 -8q-1 -10 -14 -13q-61 -15 -95.5 -38.5t-45.5 -69.5l-287 -1072q-19 -70 20.5 -121.5t113.5 -75.5t167 -24q146 0 268 58.5t150 162.5q32 117 59 240.5
t50 258t31.5 253t3 214.5t-35.5 154t-84 62q-13 2 -7 14q5 7 11 7q120 -15 216 -15t219 15q8 2 8 -7q1 -10 -12 -14q-63 -17 -97.5 -40t-46.5 -68l-287 -1074q-24 -89 -102.5 -150.5t-178 -87.5t-214.5 -26q-130 0 -241 32t-174 93.5t-42 138.5l285 1070q13 47 -8.5 71
t-73.5 39z" />
    <glyph glyph-name="umacron" unicode="&#x16b;" horiz-adv-x="1337" 
d="M552 1229l43 162h514l-43 -162h-514zM259 954q-51 0 -95 -52t-75 -126q-6 -13 -16 -7q-6 4 -4 11q10 31 27 67.5t45.5 80t62 78t79 58t93.5 23.5q52 0 85 -26.5t43.5 -67t10.5 -80t-10 -73.5l-137 -516q-20 -84 -20.5 -140t20 -90t49.5 -48.5t69 -14.5q88 0 177 70.5
t152.5 174t92.5 213.5l142 535h204l-196 -741q-2 -9 -8.5 -31t-10 -35t-7.5 -33t-3 -32.5t4.5 -25t14.5 -18.5t28 -6q52 0 96.5 53t73.5 128q3 6 9 6.5t10 -3.5t2 -10q-10 -31 -26.5 -67.5t-45 -80t-62 -78t-79.5 -58t-94 -23.5q-52 0 -84 26.5t-41.5 67.5t-9 80t9.5 74
l28 105q-50 -105 -118.5 -183.5t-141 -120.5t-140 -61.5t-132.5 -19.5q-74 0 -122 25.5t-66 72t-17 104.5t20 129l136 506q2 7 6.5 24t7 26.5t6.5 26t5 27t1.5 23.5t-3 21.5t-8.5 16.5t-15 11.5t-23 3.5z" />
    <glyph glyph-name="Ubreve" unicode="&#x16c;" horiz-adv-x="1359" 
d="M1239 1864q7 13 20 9q7 -2 5 -9q-26 -88 -95 -153t-153 -95.5t-172 -30.5t-155.5 30.5t-102 95.5t-13.5 153q2 10 13 10q9 0 8 -10q-1 -29 33.5 -53t85.5 -36.5t97.5 -19t78.5 -6.5q44 0 113 10.5t143.5 38.5t93.5 66zM209 1413q-5 1 -6.5 4t-1 6t2.5 5.5t5 4.5t6 1
q123 -15 211 -15q90 0 219 15q8 2 8 -8q-1 -10 -14 -13q-61 -15 -95.5 -38.5t-45.5 -69.5l-287 -1072q-19 -70 20.5 -121.5t113.5 -75.5t167 -24q146 0 268 58.5t150 162.5q32 117 59 240.5t50 258t31.5 253t3 214.5t-35.5 154t-84 62q-13 2 -7 14q5 7 11 7q120 -15 216 -15
t219 15q8 2 8 -7q1 -10 -12 -14q-63 -17 -97.5 -40t-46.5 -68l-287 -1074q-24 -89 -102.5 -150.5t-178 -87.5t-214.5 -26q-130 0 -241 32t-174 93.5t-42 138.5l285 1070q13 47 -8.5 71t-73.5 39z" />
    <glyph glyph-name="ubreve" unicode="&#x16d;" horiz-adv-x="1337" 
d="M1093 1464q6 11 14 8q5 -2 4 -8q-31 -103 -126.5 -169t-197.5 -66q-103 0 -167.5 66.5t-40.5 168.5q1 5 5 7t7.5 0.5t3.5 -7.5q-1 -23 25.5 -41.5t66 -28t75 -14t60.5 -4.5q63 0 156 22.5t115 65.5zM259 954q-51 0 -95 -52t-75 -126q-6 -13 -16 -7q-6 4 -4 11
q10 31 27 67.5t45.5 80t62 78t79 58t93.5 23.5q52 0 85 -26.5t43.5 -67t10.5 -80t-10 -73.5l-137 -516q-20 -84 -20.5 -140t20 -90t49.5 -48.5t69 -14.5q88 0 177 70.5t152.5 174t92.5 213.5l142 535h204l-196 -741q-2 -9 -8.5 -31t-10 -35t-7.5 -33t-3 -32.5t4.5 -25
t14.5 -18.5t28 -6q52 0 96.5 53t73.5 128q3 6 9 6.5t10 -3.5t2 -10q-10 -31 -26.5 -67.5t-45 -80t-62 -78t-79.5 -58t-94 -23.5q-52 0 -84 26.5t-41.5 67.5t-9 80t9.5 74l28 105q-50 -105 -118.5 -183.5t-141 -120.5t-140 -61.5t-132.5 -19.5q-74 0 -122 25.5t-66 72
t-17 104.5t20 129l136 506q2 7 6.5 24t7 26.5t6.5 26t5 27t1.5 23.5t-3 21.5t-8.5 16.5t-15 11.5t-23 3.5z" />
    <glyph glyph-name="Uring" unicode="&#x16e;" horiz-adv-x="1359" 
d="M844 1585q-141 0 -189 89q-40 74 3 167q44 95 145 142q71 34 155 34q143 0 191 -89q40 -73 -4 -166q-43 -94 -144 -142q-72 -35 -157 -35zM856 1630q129 0 209 85q62 66 55 140q-7 75 -86 104q-37 13 -86 13q-132 0 -210 -85q-61 -66 -53 -140q8 -75 86 -104
q37 -13 85 -13zM209 1413q-5 1 -6.5 4t-1 6t2.5 5.5t5 4.5t6 1q123 -15 211 -15q90 0 219 15q8 2 8 -8q-1 -10 -14 -13q-61 -15 -95.5 -38.5t-45.5 -69.5l-287 -1072q-19 -70 20.5 -121.5t113.5 -75.5t167 -24q146 0 268 58.5t150 162.5q32 117 59 240.5t50 258t31.5 253
t3 214.5t-35.5 154t-84 62q-13 2 -7 14q5 7 11 7q120 -15 216 -15t219 15q8 2 8 -7q1 -10 -12 -14q-63 -17 -97.5 -40t-46.5 -68l-287 -1074q-24 -89 -102.5 -150.5t-178 -87.5t-214.5 -26q-130 0 -241 32t-174 93.5t-42 138.5l285 1070q13 47 -8.5 71t-73.5 39z" />
    <glyph glyph-name="uring" unicode="&#x16f;" horiz-adv-x="1337" 
d="M857 1229q-141 0 -189 89q-39 73 4 166q43 94 144 143q72 34 158 34q143 0 190 -89q39 -74 -6 -167q-45 -95 -147 -143q-71 -33 -154 -33zM869 1274q130 0 210 85q62 66 56 140q-8 75 -87 104q-37 13 -86 13q-132 0 -210 -85q-62 -66 -54 -140q8 -75 86 -103
q36 -14 85 -14zM259 954q-51 0 -95 -52t-75 -126q-6 -13 -16 -7q-6 4 -4 11q10 31 27 67.5t45.5 80t62 78t79 58t93.5 23.5q52 0 85 -26.5t43.5 -67t10.5 -80t-10 -73.5l-137 -516q-20 -84 -20.5 -140t20 -90t49.5 -48.5t69 -14.5q88 0 177 70.5t152.5 174t92.5 213.5
l142 535h204l-196 -741q-2 -9 -8.5 -31t-10 -35t-7.5 -33t-3 -32.5t4.5 -25t14.5 -18.5t28 -6q52 0 96.5 53t73.5 128q3 6 9 6.5t10 -3.5t2 -10q-10 -31 -26.5 -67.5t-45 -80t-62 -78t-79.5 -58t-94 -23.5q-52 0 -84 26.5t-41.5 67.5t-9 80t9.5 74l28 105
q-50 -105 -118.5 -183.5t-141 -120.5t-140 -61.5t-132.5 -19.5q-74 0 -122 25.5t-66 72t-17 104.5t20 129l136 506q2 7 6.5 24t7 26.5t6.5 26t5 27t1.5 23.5t-3 21.5t-8.5 16.5t-15 11.5t-23 3.5z" />
    <glyph glyph-name="Uhungarumlaut" unicode="&#x170;" horiz-adv-x="1359" 
d="M1067 1786q-83 0 -103 62q-18 55 23 116q48 70 134 77q8 1 16 1q69 0 89 -45t3 -109q-15 -56 -73 -129.5t-140.5 -130.5t-151.5 -57q-8 0 -9 3q-1 7 17 11q59 11 113.5 75.5t81.5 125.5zM748 1786q-83 0 -103 62q-17 55 24 116q48 70 134 77l16 1q69 0 88 -45t2 -109
q-11 -41 -48.5 -95.5t-87.5 -104t-112 -83.5t-114 -34q-10 0 -9 4q3 6 17 10q59 11 113.5 76t79.5 125zM209 1413q-5 1 -6.5 4t-1 6t2.5 5.5t5 4.5t6 1q123 -15 211 -15q90 0 219 15q8 2 8 -8q-1 -10 -14 -13q-61 -15 -95.5 -38.5t-45.5 -69.5l-287 -1072
q-19 -70 20.5 -121.5t113.5 -75.5t167 -24q146 0 268 58.5t150 162.5q32 117 59 240.5t50 258t31.5 253t3 214.5t-35.5 154t-84 62q-13 2 -7 14q5 7 11 7q120 -15 216 -15t219 15q8 2 8 -7q1 -10 -12 -14q-63 -17 -97.5 -40t-46.5 -68l-287 -1074q-24 -89 -102.5 -150.5
t-178 -87.5t-214.5 -26q-130 0 -241 32t-174 93.5t-42 138.5l285 1070q13 47 -8.5 71t-73.5 39z" />
    <glyph glyph-name="uhungarumlaut" unicode="&#x171;" horiz-adv-x="1337" 
d="M759 1430q-83 0 -103 62q-17 55 24 116q48 70 134 77l16 1q47 0 72.5 -23.5t26.5 -57.5t-6 -73q-16 -56 -74 -129.5t-140 -131t-151 -57.5q-9 0 -9 4q0 7 17 11q59 11 113.5 76t79.5 125zM1082 1430q-83 0 -103 62q-17 55 25 116q48 70 134 77l16 1q47 0 72 -23.5
t26 -57.5t-6 -73q-16 -56 -73.5 -129.5t-139.5 -131t-151 -57.5q-9 0 -9 4q0 7 17 11q59 11 113 76t79 125zM259 954q-51 0 -95 -52t-75 -126q-6 -13 -16 -7q-6 4 -4 11q10 31 27 67.5t45.5 80t62 78t79 58t93.5 23.5q52 0 85 -26.5t43.5 -67t10.5 -80t-10 -73.5l-137 -516
q-20 -84 -20.5 -140t20 -90t49.5 -48.5t69 -14.5q88 0 177 70.5t152.5 174t92.5 213.5l142 535h204l-196 -741q-2 -9 -8.5 -31t-10 -35t-7.5 -33t-3 -32.5t4.5 -25t14.5 -18.5t28 -6q52 0 96.5 53t73.5 128q3 6 9 6.5t10 -3.5t2 -10q-10 -31 -26.5 -67.5t-45 -80t-62 -78
t-79.5 -58t-94 -23.5q-52 0 -84 26.5t-41.5 67.5t-9 80t9.5 74l28 105q-50 -105 -118.5 -183.5t-141 -120.5t-140 -61.5t-132.5 -19.5q-74 0 -122 25.5t-66 72t-17 104.5t20 129l136 506q2 7 6.5 24t7 26.5t6.5 26t5 27t1.5 23.5t-3 21.5t-8.5 16.5t-15 11.5t-23 3.5z" />
    <glyph glyph-name="Uogonek" unicode="&#x172;" horiz-adv-x="1359" 
d="M209 1413q-5 1 -6.5 4t-1 6t2.5 5.5t5 4.5t6 1q123 -15 211 -15q90 0 219 15q8 2 8 -8q-1 -10 -14 -13q-61 -15 -95.5 -38.5t-45.5 -69.5l-287 -1072q-19 -70 20.5 -121.5t113.5 -75.5t167 -24q146 0 268 58.5t150 162.5q32 117 59 240.5t50 258t31.5 253t3 214.5
t-35.5 154t-84 62q-13 2 -7 14q5 7 11 7q120 -15 216 -15t219 15q8 2 8 -7q1 -10 -12 -14q-63 -17 -97.5 -40t-46.5 -68l-287 -1074q-22 -81 -88.5 -139t-153 -87t-190.5 -36q-28 -23 -47 -56.5t-22 -68t30.5 -58.5t104.5 -24q56 0 55 -41q-2 -40 -51 -86q-47 -42 -90 -43
q-63 0 -102 20.5t-50.5 54t-8 75t22.5 83t44.5 79t54.5 63.5q-130 -1 -242.5 30.5t-176.5 93.5t-42 140l285 1070q13 47 -8.5 71t-73.5 39z" />
    <glyph glyph-name="uogonek" unicode="&#x173;" horiz-adv-x="1337" 
d="M259 954q-51 0 -95 -52t-75 -126q-6 -13 -16 -7q-6 4 -4 11q10 31 27 67.5t45.5 80t62 78t79 58t93.5 23.5q52 0 85 -26.5t43.5 -67t10.5 -80t-10 -73.5l-137 -516q-20 -84 -20.5 -140t20 -90t49.5 -48.5t69 -14.5q88 0 177 70.5t152.5 174t92.5 213.5l142 535h204
l-196 -741q-2 -9 -8.5 -31t-10 -35t-7.5 -33t-3 -32.5t4.5 -25t14.5 -18.5t28 -6q52 0 96.5 53t73.5 128q3 6 9 6.5t10 -3.5t2 -10q-10 -31 -26.5 -67.5t-45 -80t-62 -78t-79.5 -58t-94 -23.5q-17 0 -37 4q-21 -21 -37 -47.5t-21 -55t3 -52t40 -39t86 -15.5q56 0 55 -41
q-2 -40 -51 -86q-47 -42 -90 -43q-77 0 -117.5 31.5t-42.5 79.5t16 103t51 103.5t69 78.5q-32 23 -46.5 67t-13 84t10.5 76l28 105q-50 -105 -118 -183.5t-141 -120.5t-140 -61.5t-131 -19.5q-75 0 -123 25.5t-66.5 72t-17.5 104.5t20 129l136 506q2 7 6.5 24t7 26.5t6.5 26
t5 27t1.5 23.5t-3 21.5t-8.5 16.5t-15 11.5t-23 3.5z" />
    <glyph glyph-name="Wcircumflex" unicode="&#x174;" horiz-adv-x="2406" 
d="M1114 1608q-36 -29 -67 -29q-24 0 -43 15t-25.5 38t-3 48.5t25 49.5t58.5 37l391 142l317 -142q30 -13 39.5 -37t-1 -49.5t-30 -48.5t-47 -38t-51.5 -15q-34 0 -51 29l-180 280zM180 1411q-8 4 -4.5 13.5t10.5 7.5q117 -15 199 -15q84 0 207 15q7 1 7 -6q-1 -10 -13 -15
q-53 -17 -74.5 -39t-17.5 -69l149 -1272l453 688q65 99 108 203.5t59 202.5t-13.5 176t-106.5 112q-9 4 -4 13q6 8 18 6q80 -15 232 -15q148 0 272 15q6 1 7 -6q1 -10 -13 -15q-49 -15 -96 -59t-77.5 -85.5t-118.5 -174.5q-13 -19 -20 -29l123 -1032l453 688
q225 341 272 536q34 139 -43 156q-6 2 -6.5 7.5t3 10t7.5 3.5q108 -15 152 -15t158 15q8 2 8 -7q-1 -9 -12 -14q-56 -18 -135.5 -124t-280.5 -413q-71 -108 -111 -169l-463 -707h-217l-92 782q-86 -130 -257 -391t-257 -391h-217l-154 1305q-5 45 -28 67.5t-66 40.5z" />
    <glyph glyph-name="wcircumflex" unicode="&#x175;" horiz-adv-x="1894" 
d="M890 1264q-36 -29 -68 -29q-24 0 -42.5 15t-25.5 38t-3.5 48.5t25 49.5t57.5 37l393 142l233 -142q35 -21 38 -55t-17.5 -64.5t-52.5 -52.5t-60 -22q-36 0 -47 35l-100 280zM259 954q-51 0 -95 -52t-75 -126q-6 -13 -16 -7q-6 4 -4 11q10 31 27 67.5t45.5 80t62 78t79 58
t93.5 23.5q52 0 85 -26.5t43.5 -67t10.5 -80t-10 -73.5l-137 -516q-20 -84 -20.5 -140t20 -90t49.5 -48.5t69 -14.5q88 0 177 70.5t152.5 174t92.5 213.5l135 508h205l-200 -753q0 -1 -5 -22t-6.5 -27t-5 -26.5t-2.5 -29t2 -27t6.5 -27t14.5 -21t22 -18.5t32.5 -10.5
t43.5 -4.5q90 0 180 56t160 152t120.5 223t61.5 269.5t-16 292.5h237q-11 -171 -71 -338t-151 -299.5t-200 -235.5t-224.5 -158.5t-217.5 -55.5q-62 0 -105 21.5t-63 53t-28.5 72t-6.5 73t9 60.5l28 105q-50 -105 -118.5 -183.5t-141 -120.5t-140 -61.5t-132.5 -19.5
q-74 0 -122 25.5t-66 72t-17 104.5t20 129l136 506q2 7 6.5 24t7 26.5t6.5 26t5 27t1.5 23.5t-3 21.5t-8.5 16.5t-15 11.5t-23 3.5z" />
    <glyph glyph-name="Ycircumflex" unicode="&#x176;" horiz-adv-x="1443" 
d="M635 1608q-33 -29 -66 -29q-24 0 -43 15t-25.5 38t-3.5 48.5t24.5 49.5t58.5 37l393 142l315 -142q31 -13 41 -37t-0.5 -49.5t-30 -48.5t-47 -38t-51.5 -15q-36 0 -53 29l-180 280zM188 1413q-5 1 -5.5 6t2.5 10t8 5q123 -15 231 -15q111 0 240 15q12 0 6 -11
q-4 -7 -13 -10q-64 -18 -89.5 -40t-8.5 -68l213 -584q411 454 427 604q8 75 -77 88q-11 2 -7 13q3 9 13 8q136 -11 175 -11q38 0 196 11q8 1 7 -7q-1 -12 -13 -14q-38 -7 -101.5 -57t-146 -136.5t-153.5 -165.5t-167.5 -190t-144.5 -164l-157 -571q-11 -45 11 -68.5
t73 -40.5q9 -3 6 -12.5t-13 -9.5q-96 16 -211 16q-112 0 -219 -16q-10 0 -6 11q3 8 12 11q62 17 96.5 40t45.5 69l141 514l-244 662q-17 46 -46.5 68t-80.5 40z" />
    <glyph glyph-name="ycircumflex" unicode="&#x177;" horiz-adv-x="1157" 
d="M526 1264q-36 -29 -67 -29q-24 0 -43 15t-25.5 38t-3 48.5t25 49.5t58.5 37l391 142l236 -142q35 -21 37 -55t-18.5 -64.5t-52.5 -52.5t-60 -22q-37 0 -48 35l-100 280zM264 954q-47 0 -90 -52.5t-74 -125.5q-2 -7 -7 -8t-9 2.5t-2 9.5q12 40 36.5 88t61.5 99.5t90 85.5
t109 34q29 0 52.5 -10t38.5 -23.5t27.5 -38.5t19 -42.5t12 -48.5t6.5 -43.5t4 -40.5l100 -836q71 108 130 218t105.5 227.5t69.5 220.5t15 195.5t-52 154.5l244 67q14 -57 -6 -148.5t-69.5 -201.5t-101 -211.5t-122 -218t-109 -178t-84.5 -131.5q-16 -25 -47 -74.5
t-50 -78.5t-50 -73t-55 -71t-58 -59t-65 -49.5t-70 -29.5t-80 -12q-45 0 -80 13.5t-56 36.5t-33.5 52.5t-12.5 62t6 65t23 62t39 52.5t52.5 36.5t63.5 13.5q53 0 82.5 -27t32.5 -70q-66 -46 -90 -118q-23 -70 17 -98q17 -13 46 -13q85 0 159 100q65 87 75 176q9 86 -46 101
q-9 2 -20 2l-92 776q-1 6 -2.5 23.5t-3 27t-4 26.5t-5.5 26.5t-7.5 23.5t-10.5 22t-13.5 16t-17.5 11.5t-22 3.5z" />
    <glyph glyph-name="Ydieresis" unicode="&#x178;" horiz-adv-x="1443" 
d="M1155 1847q55 0 83.5 -38.5t14.5 -94.5q-15 -55 -64.5 -94t-105.5 -39q-55 0 -83 38.5t-13 94.5q13 55 62.5 94t105.5 39zM758 1847q56 0 84.5 -39t13.5 -94q-15 -56 -64 -94.5t-104 -38.5q-56 0 -84.5 39t-13.5 94q15 56 64 94.5t104 38.5zM188 1413q-5 1 -5.5 6t2.5 10
t8 5q123 -15 231 -15q111 0 240 15q12 0 6 -11q-4 -7 -13 -10q-64 -18 -89.5 -40t-8.5 -68l213 -584q411 454 427 604q8 75 -77 88q-11 2 -7 13q3 9 13 8q136 -11 175 -11q38 0 196 11q8 1 7 -7q-1 -12 -13 -14q-38 -7 -101.5 -57t-146 -136.5t-153.5 -165.5t-167.5 -190
t-144.5 -164l-157 -571q-11 -45 11 -68.5t73 -40.5q9 -3 6 -12.5t-13 -9.5q-96 16 -211 16q-112 0 -219 -16q-10 0 -6 11q3 8 12 11q62 17 96.5 40t45.5 69l141 514l-244 662q-17 46 -46.5 68t-80.5 40z" />
    <glyph glyph-name="Zacute" unicode="&#x179;" horiz-adv-x="1452" 
d="M709 1614l323 221q21 16 47 16q36 0 59 -34t18 -71t-38 -46l-413 -115q-23 -6 -21 5q3 9 25 24zM1163 426q6 9 15 6q6 -3 2 -12l-148 -420h-1153l1208 1305q61 66 46 86t-130 22h-53q-100 0 -171 -5t-144.5 -20.5t-130 -43t-115.5 -72.5t-112 -110t-109 -154
q-6 -10 -14 -7q-7 2 -2 13l147 420h1153l-1206 -1305q-60 -65 -49 -86q12 -21 120 -23h62q99 0 170.5 5t145.5 20.5t131 43.5t115.5 73t112 110t109.5 154z" />
    <glyph glyph-name="zacute" unicode="&#x17a;" horiz-adv-x="1116" 
d="M883 1479q21 16 47 16q36 0 59.5 -34t19 -71.5t-37.5 -46.5l-416 -114q-21 -5 -19 3q3 9 25 25zM348 129q-38 -49 -9.5 -79t103.5 -30q73 0 155.5 28.5t177.5 101.5t161 180q6 9 14 6q7 -2 2 -12l-121 -324h-831l768 895q39 49 10.5 79t-104.5 30q-73 0 -155.5 -28.5
t-177.5 -101.5t-161 -180q-6 -9 -14 -6q-7 2 -2 12l121 324h831z" />
    <glyph glyph-name="Zdotaccent" unicode="&#x17b;" horiz-adv-x="1452" 
d="M899 1585q-80 0 -98 64q-16 58 26 122q47 72 128 79q7 1 14 1q80 0 98 -64q16 -58 -26 -122q-47 -72 -128 -79q-7 -1 -14 -1zM1163 426q6 9 15 6q6 -3 2 -12l-148 -420h-1153l1208 1305q61 66 46 86t-130 22h-53q-100 0 -171 -5t-144.5 -20.5t-130 -43t-115.5 -72.5
t-112 -110t-109 -154q-6 -10 -14 -7q-7 2 -2 13l147 420h1153l-1206 -1305q-60 -65 -49 -86q12 -21 120 -23h62q99 0 170.5 5t145.5 20.5t131 43.5t115.5 73t112 110t109.5 154z" />
    <glyph glyph-name="zdotaccent" unicode="&#x17c;" horiz-adv-x="1116" 
d="M737 1229q-78 0 -96 63q-17 58 24 122q47 73 128 80q8 1 16 1q79 0 97 -63q17 -58 -24 -122q-48 -73 -129 -80zM348 129q-38 -49 -9.5 -79t103.5 -30q73 0 155.5 28.5t177.5 101.5t161 180q6 9 14 6q7 -2 2 -12l-121 -324h-831l768 895q39 49 10.5 79t-104.5 30
q-73 0 -155.5 -28.5t-177.5 -101.5t-161 -180q-6 -9 -14 -6q-7 2 -2 12l121 324h831z" />
    <glyph glyph-name="Zcaron" unicode="&#x17d;" horiz-adv-x="1452" 
d="M721 1886l182 -280l330 280q36 29 67 29q24 0 43.5 -15t26.5 -38.5t4 -48.5t-25.5 -49.5t-60.5 -37.5l-391 -141l-317 141q-29 13 -37.5 37.5t1.5 49.5t29.5 48.5t46 38.5t50.5 15q34 0 51 -29zM1163 426q6 9 15 6q6 -3 2 -12l-148 -420h-1153l1208 1305q61 66 46 86
t-130 22h-53q-100 0 -171 -5t-144.5 -20.5t-130 -43t-115.5 -72.5t-112 -110t-109 -154q-6 -10 -14 -7q-7 2 -2 13l147 420h1153l-1206 -1305q-60 -65 -49 -86q12 -21 120 -23h62q99 0 170.5 5t145.5 20.5t131 43.5t115.5 73t112 110t109.5 154z" />
    <glyph glyph-name="zcaron" unicode="&#x17e;" horiz-adv-x="1116" 
d="M991 1530q36 29 68 29q24 0 43 -15t25.5 -38.5t3 -48.5t-25 -49.5t-58.5 -37.5l-392 -141l-235 141q-35 21 -37 55t18.5 64.5t52.5 53t60 22.5q36 0 47 -35l98 -281zM348 129q-38 -49 -9.5 -79t103.5 -30q73 0 155.5 28.5t177.5 101.5t161 180q6 9 14 6q7 -2 2 -12
l-121 -324h-831l768 895q39 49 10.5 79t-104.5 30q-73 0 -155.5 -28.5t-177.5 -101.5t-161 -180q-6 -9 -14 -6q-7 2 -2 12l121 324h831z" />
    <glyph glyph-name="florin" unicode="&#x192;" horiz-adv-x="1052" 
d="M600 1004l-264 -986q-22 -85 -67 -159.5t-113 -135.5t-168 -96.5t-219 -36.5q-11 0 -7 11q3 10 13 10q38 2 84 21.5t95.5 58t93.5 107.5t67 157l280 1049h-112q-11 0 -8 10t14 10h112q2 7 6 23q8 33 13.5 51.5t18 56t24.5 61.5t33 59t43.5 57.5t56 48t71.5 40.5t88 25
t107 10q194 0 254 -99q42 -69 3 -151q-34 -72 -105 -101q-32 -13 -66 -13q-52 0 -80 28t-28 70q64 52 82 115.5t-19 102.5t-117 24q-73 -14 -126 -63t-74.5 -109.5t-17 -125t37.5 -110.5h254q10 0 7 -10t-13 -10h-254z" />
    <glyph glyph-name="uni0218" unicode="&#x218;" horiz-adv-x="1277" 
d="M1040 287q-16 -59 -50 -108t-76.5 -81.5t-96 -57t-103.5 -38t-105.5 -22t-95.5 -11t-79 -2.5q-93 0 -169 16t-114.5 35.5t-78 35.5t-68.5 16q-54 0 -84 -39q-12 -16 -19 -9q-3 3 -1 9l102 385q3 10 8 13t9 -0.5t4 -12.5q11 -108 38 -187.5t61 -124t79.5 -71t84.5 -34
t85 -7.5q171 0 288.5 95.5t153.5 225.5q58 221 -190 383q-34 22 -75.5 46.5t-75.5 43t-72 40.5t-68 40.5t-60 40.5t-51 43.5t-38.5 47.5t-25.5 53t-8.5 60t9.5 69q17 62 54.5 110.5t88.5 78.5t104 50.5t111.5 30t99.5 13t80 3.5q103 0 206 -25.5t176.5 -51t105.5 -25.5
q45 0 73 39q10 16 19 9q2 -4 2 -9l-104 -385q-2 -9 -6.5 -12.5t-9 -0.5t-5.5 13q-28 217 -128.5 317.5t-242.5 100.5q-38 0 -79 -6.5t-90.5 -24t-91 -45t-77 -75t-51.5 -107.5q-10 -39 -10.5 -74t9 -65.5t24 -57t39 -52t48 -46t57 -43.5t60 -40t63.5 -40.5t62 -40.5
q17 -11 50.5 -33t53.5 -35.5t51 -36t49 -41t41 -44t34 -50.5t20 -55.5t7.5 -64.5t-11.5 -72zM309 -385q-83 0 -103 62q-18 55 23 116q48 70 134 77l16 1q48 0 73 -23.5t25.5 -57.5t-6.5 -73q-11 -41 -48.5 -95.5t-87.5 -104t-112 -83.5t-114 -34q-10 0 -9 5q0 7 15 9
q60 12 114.5 77t79.5 124z" />
    </font>
</defs>
</svg>
