<?xml version="1.0" standalone="no"?>
<!DOCTYPE svg PUBLIC "-//W3C//DTD SVG 1.1//EN" "http://www.w3.org/Graphics/SVG/1.1/DTD/svg11.dtd" >
<svg xmlns="http://www.w3.org/2000/svg" xmlns:xlink="http://www.w3.org/1999/xlink" version="1.1">
<metadata>
Created by FontForge 20170731 at Sun Jan  2 20:38:03 2022
 By Aleksey,,,
copyright missing
</metadata>
<defs>
<font id="Arsenica-Italic" horiz-adv-x="0" >
  <font-face 
    font-family="Arsenica"
    font-weight="400"
    font-style="italic"
    font-stretch="normal"
    units-per-em="2048"
    panose-1="0 0 5 0 0 0 0 0 0 0"
    ascent="1638"
    descent="-410"
    x-height="948"
    cap-height="1440"
    bbox="-1240.14 -500.778 2416 2161.76"
    underline-thickness="102"
    underline-position="-307"
    slope="-18"
    unicode-range="U+0020-F8FF"
  />
<missing-glyph horiz-adv-x="940" 
d="M770 1468v-1878h-596v1878h596zM625 1343h-310v-63h123v-70h-125v-61h312v61h-123v70h123v63zM502 1100h-189v-195h312v64h-123v131zM438 1036v-67h-63v67h63zM625 854h-312v-61h125v-70h-125v-61h189v131h123v61zM625 741h-62v-123h-250v-65h312v188zM625 512h-187v-104
h64v43h61v-89h-188v150h-62v-211h312v211zM625 188h-312v-213h312v213zM563 125v-88h-188v88h188zM625 -68h-312v-61h131l-131 -88v-64h312v64h-191l131 88h60v61z" />
    <glyph glyph-name=".notdef" horiz-adv-x="940" 
d="M770 1468v-1878h-596v1878h596zM625 1343h-310v-63h123v-70h-125v-61h312v61h-123v70h123v63zM502 1100h-189v-195h312v64h-123v131zM438 1036v-67h-63v67h63zM625 854h-312v-61h125v-70h-125v-61h189v131h123v61zM625 741h-62v-123h-250v-65h312v188zM625 512h-187v-104
h64v43h61v-89h-188v150h-62v-211h312v211zM625 188h-312v-213h312v213zM563 125v-88h-188v88h188zM625 -68h-312v-61h131l-131 -88v-64h312v64h-191l131 88h60v61z" />
    <glyph glyph-name=".null" 
 />
    <glyph glyph-name="nonmarkingreturn" horiz-adv-x="682" 
 />
    <glyph glyph-name="space" unicode=" " horiz-adv-x="448" 
 />
    <glyph glyph-name="exclam" unicode="!" horiz-adv-x="446" 
d="M182 365q61 207 127.5 563.5t91.5 433.5q30 90 144 90q56 0 78 -20.5t6 -69.5q-26 -80 -190.5 -434.5t-239.5 -560.5q-4 -13 -13 -11q-5 2 -4 9zM49 -18q-56 -1 -78.5 23t-3.5 61q16 35 64 61t108 27q57 1 80.5 -22.5t5.5 -59.5q-18 -37 -66.5 -63t-109.5 -27z" />
    <glyph glyph-name="quotedbl" unicode="&#x22;" horiz-adv-x="393" 
d="M290 1049q-4 -11 -10 -9q-4 2 -2 9q21 75 30.5 135.5t9 90t-0.5 58.5t6 49q12 37 29.5 49.5t60.5 12.5q42 0 52 -14t-3 -48q-7 -25 -33 -62.5t-65 -106t-74 -164.5zM499 1049q-3 -10 -10 -9q-6 1 -3 9q27 96 35 170t3.5 96.5t6.5 66.5q12 36 30 49t61 13q42 0 52 -14
t-3 -48q-7 -25 -33 -62.5t-65 -106t-74 -164.5z" />
    <glyph glyph-name="numbersign" unicode="#" horiz-adv-x="913" 
d="M1188 1442q25 0 8 -35q-73 -134 -240 -455h86q11 0 11 -6q-2 -7 -17 -8h-86q-53 -99 -229 -440h84q11 0 11 -6q-3 -9 -17 -11h-86q-143 -273 -236 -458q-12 -27 -35 -27q-29 0 -12 33q27 56 232 452h-486q-50 -98 -131 -253.5t-104 -200.5q-14 -31 -39 -31q-27 0 -8 35
q27 54 63.5 124.5t87.5 168.5t82 157h-92q-11 0 -10 6q2 10 18 11h92q143 276 230 440h-93q-9 0 -10 4q-1 6 12 9l7 1h90l239 461q15 29 39 29t6 -39q-3 -6 -233 -451h485q130 250 240 459q15 31 41 31zM670 498l229 440h-485q-142 -275 -230 -440h486z" />
    <glyph glyph-name="dollar" unicode="$" horiz-adv-x="1163" 
d="M989 1462q95 0 175.5 -32t117.5 -89.5t-2 -138.5l-170 -307q-10 -16 -13 -7q-2 5 3 17q108 247 65.5 384.5t-233.5 137.5h-4l-174 -528q14 -11 57 -41q42 -28 67.5 -46.5t61.5 -49.5t56.5 -57t41.5 -63t27.5 -74t3.5 -84t-20 -99q-54 -165 -220 -283t-378 -131l-35 -108
q-6 -19 -17 -20t-7 16q0 2 1 4l35 106h-29q-77 0 -143.5 17t-110 46.5t-71.5 68t-28 81t20 86.5l182 314q5 9 9 12t3.5 -1.5t-4.5 -14.5q-114 -298 -67 -435t251 -139l217 662l-39 26q-47 34 -78.5 60t-66.5 59.5t-54.5 64.5t-34 68t-13.5 78t16 86q20 58 68 116t116 106.5
t159 83t188 44.5l34 109q6 20 16 22q11 1 6 -20q-1 -1 -1 -2l-35 -107q16 2 51 2zM737 911l170 516q-131 -6 -201 -60.5t-104 -160.5q-29 -92 6.5 -158.5t128.5 -136.5zM825 281q17 51 17 98t-11.5 83.5t-36.5 72t-53.5 62.5t-66.5 56l-211 -649q39 1 75 8t80.5 26t81 48.5
t70.5 79.5t55 115z" />
    <glyph glyph-name="percent" unicode="%" horiz-adv-x="1384" 
d="M418 725q-122 0 -160.5 104.5t16.5 264.5q54 170 163 270t229 100q123 0 162 -105t-15 -265q-57 -172 -165.5 -270.5t-229.5 -98.5zM162 35l1192 1378q29 29 47 29q26 0 -4 -35l-1198 -1384q-21 -27 -45 -27q-29 0 8 39zM463 756q87 0 139 64t94 194q34 100 36.5 197
t-26 159t-81.5 62q-90 0 -142 -63.5t-94 -194.5q-33 -100 -36 -196.5t26 -159t84 -62.5zM885 -31q-82 0 -128 49t-49 131.5t29 190.5q57 171 165 270t228 99q82 0 128 -48.5t49 -130.5t-29 -190q-56 -173 -164.5 -272t-228.5 -99zM928 2q88 0 140.5 63.5t94.5 194.5
q33 99 35.5 196t-25.5 159.5t-81 62.5q-88 0 -142.5 -64.5t-97.5 -193.5q-31 -101 -33.5 -197.5t26.5 -158.5t83 -62z" />
    <glyph glyph-name="ampersand" unicode="&#x26;" horiz-adv-x="1669" 
d="M1788 985q7 6 9 5t1.5 -4.5t-2.5 -6.5q-45 -45 -120 -91.5t-163 -76.5q33 -46 49.5 -109t10.5 -156.5t-41 -197.5q-56 -165 -170.5 -272t-243.5 -107q-51 0 -89 20t-61 57.5t-36 77.5t-21 93q-2 8 -5.5 30t-6.5 36q-61 -73 -115 -124.5t-122 -97.5t-147.5 -69t-170.5 -23
q-191 0 -266 136t-8 344q24 73 79 154t131 153.5t179 120t207 47.5q56 0 106 -6q-46 187 -10 294q35 113 154.5 182.5t281.5 69.5q76 0 134 -22.5t88 -58t41.5 -77t1 -82t-39.5 -69.5l-256 -268q212 -15 287 -15q111 0 197 33t137 80zM1481 285q37 126 29.5 238t-53.5 188.5
t-111 76.5q-53 0 -133.5 1.5t-116.5 1.5q-16 2 -18.5 7.5t9.5 20.5l3 2q20 25 28 33q104 116 152 180t63 109q37 117 -16.5 202t-155.5 85q-43 0 -70.5 -4.5t-58 -19t-53 -47.5t-39.5 -85q-15 -44 -16 -92.5t10.5 -107t25.5 -114.5t36 -143.5t36 -163.5l6 -37l56 -354
q14 -92 46.5 -141t104.5 -49q167 0 236 213zM514 86q104 0 188.5 47t194.5 164q-33 183 -49 301q-2 12 -7 37t-7 37q-33 122 -98 169.5t-156 47.5q-49 0 -94.5 -21t-79 -53t-62.5 -74t-47 -79.5t-31 -75.5q-33 -98 -35.5 -187t24 -159.5t93.5 -112t166 -41.5z" />
    <glyph glyph-name="quotesingle" unicode="'" horiz-adv-x="178" 
d="M285 1049q-3 -10 -10 -9q-6 1 -3 9q27 96 35.5 170t4.5 96.5t7 66.5q13 37 29.5 49.5t59.5 12.5q42 0 52 -14t-3 -48q-7 -25 -33 -62.5t-65 -106t-74 -164.5z" />
    <glyph glyph-name="parenleft" unicode="(" horiz-adv-x="671" 
d="M346 -322q-136 100 -211 231t-86.5 295.5t51.5 356.5q203 630 840 944q12 7 12.5 0t-8.5 -10q-197 -129 -366 -371t-254 -503q-62 -192 -81 -371.5t10 -327t105 -233.5q4 -6 0 -12.5t-12 1.5z" />
    <glyph glyph-name="parenright" unicode=")" horiz-adv-x="671" 
d="M409 1505q206 -150 271 -371.5t-24 -512.5q-208 -630 -841 -943q-11 -8 -12 -2q-1 7 8 13q197 129 366 371t254 503q94 285 87 543.5t-122 388.5q-2 2 -1 6.5t4.5 6t9.5 -2.5z" />
    <glyph glyph-name="asterisk" unicode="*" horiz-adv-x="528" 
d="M709 1341q19 6 27 -3t7 -38q0 -49 -36 -61q-12 -4 -68.5 0.5t-116.5 -12.5q13 -37 35.5 -60t41.5 -36.5t24 -26.5q6 -18 -3 -32.5t-38 -31.5q-31 -18 -44.5 -18t-21.5 16q-5 13 1.5 70t-7.5 109q-40 -48 -73.5 -106.5t-47.5 -74.5q-17 -17 -29.5 -17t-31.5 19t-19.5 34.5
t15.5 29.5q16 15 74 48.5t106 76.5q-44 13 -104 9t-70 1q-34 12 2 63q32 53 63 41q12 -5 26.5 -22.5t37.5 -40.5t53 -39q18 58 14.5 117.5t1.5 70.5q4 20 18.5 28.5t43.5 8.5t38 -8.5t3 -28.5q-5 -14 -46 -72.5t-63 -117.5q60 21 115.5 60t71.5 44z" />
    <glyph glyph-name="plus" unicode="+" horiz-adv-x="727" 
d="M266 195l86 268q5 16 -4 16h-244q-21 0 -20 13q9 15 31 18h243q13 0 19 22l86 269q9 26 23 28q8 1 10 -9q1 -8 -2 -19l-88 -269q-6 -22 2 -22h243q14 0 14 -12q0 -14 -17 -18q-4 -1 -9 -1h-242q-9 0 -14 -16l-88 -268q-9 -26 -23 -27q-13 -1 -8 21z" />
    <glyph glyph-name="comma" unicode="," horiz-adv-x="346" 
d="M-156 -264q-12 -6 -11.5 0t13.5 12q156 76 195 195q8 24 -14.5 33t-53.5 10t-52 17.5t-9 53.5q11 34 61 65.5t105 31.5q68 3 88.5 -30.5t5.5 -82.5q-31 -94 -134 -181t-194 -124z" />
    <glyph glyph-name="hyphen" unicode="-" horiz-adv-x="647" 
d="M574 502h-477q-14 0 -15 6q-1 3 6 6l13 2h478q14 0 15 -6q-1 -7 -20 -8z" />
    <glyph glyph-name="period" unicode="." horiz-adv-x="346" 
d="M-2 -18q-56 -1 -78.5 23t-3.5 61q16 35 64 61t108 27q57 1 80.5 -22.5t5.5 -59.5q-18 -37 -66.5 -63t-109.5 -27z" />
    <glyph glyph-name="slash" unicode="/" horiz-adv-x="428" 
d="M-195 -195q87 157 444 817t451 824q10 18 25 18q14 0 6 -22q-91 -157 -439.5 -800.5t-457.5 -838.5q-7 -16 -22 -16q-18 0 -7 18z" />
    <glyph glyph-name="zero" unicode="0" horiz-adv-x="1206" 
d="M438 -27q-124 0 -205 57t-113 158t-22 238t62 299q107 329 322.5 533t453.5 204q124 0 205 -57t113 -158.5t21.5 -238.5t-63.5 -299q-114 -346 -323.5 -541t-450.5 -195zM524 16q164 0 278 129t204 402q49 152 63 310t-6 281t-75 201t-136 78q-314 0 -483 -530
q-68 -206 -72 -408.5t56.5 -332.5t170.5 -130z" />
    <glyph glyph-name="one" unicode="1" horiz-adv-x="501" 
d="M602 1163l-317 -983q-28 -95 -15 -131.5t66 -38.5q12 -2 6 -9q-3 -5 -10 -5q-73 4 -200.5 3.5t-197.5 -3.5q1 0 0 2t-1.5 5t1 5t5.5 2q55 0 93 39.5t68 132.5l330 1020q5 14 7 21.5t3 17t-1.5 13t-8 8t-16 4t-26.5 -2t-38 -6t-51 -12.5q-13 -3 -13 1q0 7 17 11
q80 18 154.5 53t117.5 66t75 54.5t40 23.5q19 0 10 -27q-2 -8 -35 -89.5t-63 -174.5z" />
    <glyph glyph-name="two" unicode="2" horiz-adv-x="1091" 
d="M350 1182q-12 -15 -16.5 -12t8.5 20q90 119 227.5 192.5t290.5 73.5q181 0 267.5 -115t31.5 -286q-90 -275 -467 -510l-586 -387l627 26q58 6 95.5 31.5t82 92t115.5 206.5q6 14 14 14q5 0 0 -14q-132 -297 -192 -483q-19 -56 -41 -56q-9 0 -53.5 12.5t-116.5 12.5h-719
q-16 0 -21.5 6t-2.5 14q6 17 34 37l447 346q257 200 404 349t188 280q54 166 -11.5 265.5t-228.5 99.5q-204 0 -377 -215z" />
    <glyph glyph-name="three" unicode="3" horiz-adv-x="974" 
d="M1004 1214q-38 -119 -165.5 -213.5t-320.5 -160.5q151 22 258.5 -8t151.5 -109.5t6 -194.5q-36 -113 -127.5 -212t-224.5 -173t-311 -116.5t-375 -42.5q-8 0 -8 5q0 7 12 7q159 4 303.5 48t251 114t181 157.5t105.5 182.5q46 146 -18 229t-227 80q-50 0 -128 -15
t-135 -32q-14 -5 -14 1q1 6 11 10q2 1 3 1q260 81 396.5 179.5t187.5 256.5q32 91 -11 150t-151 59q-125 0 -237 -59q-9 -6 -10 -2q-2 8 10 14q98 51 169 72.5t163 21.5q158 0 223 -72t31 -178z" />
    <glyph glyph-name="four" unicode="4" horiz-adv-x="1103" 
d="M553 0q-27 0 -81 -1t-71 -1q-15 0 -16 8q-1 6 10 6q77 0 110 36t62 142l74 207q6 16 6.5 23t-4 10.5t-18.5 3.5h-562q-29 0 -28.5 18.5t28.5 45.5l885 893q28 26 41.5 35.5t26.5 9.5h125q11 0 14.5 -4t-0.5 -23l-250 -772q-9 -22 -5.5 -32.5t24.5 -10.5h151q19 0 23 -6
t-2 -23q-8 -26 -32 -78.5t-40 -52.5h-152q-21 0 -30.5 -6.5t-16.5 -30.5l-65 -215q-33 -95 -18 -132.5t75 -37.5q9 0 6 -7t-12 -7q-12 0 -50.5 1t-58.5 1h-149zM195 594h475q25 0 33.5 6t15.5 33l239 733q4 12 -1 11q-4 0 -15 -11l-749 -752q-20 -20 2 -20z" />
    <glyph glyph-name="five" unicode="5" horiz-adv-x="995" 
d="M-100 -16q-12 0 -12 5q0 7 16 7q94 0 191.5 16.5t204 57.5t196 102.5t165.5 159t115 219.5q28 97 19.5 173.5t-67.5 123.5t-159 47q-78 0 -147.5 -30.5t-151.5 -90.5q-32 -22 -45 -22q-16 0 4 41l308 604q13 23 25 30t34 7h408q72 0 111 7.5t75 24.5q20 10 20 -3
q0 -9 -16 -27q-34 -57 -62 -90t-61.5 -49t-64.5 -20.5t-86 -4.5h-402q-34 0 -49 -29l-225 -450q-7 -14 1 -13q5 1 13 8q86 71 184 115.5t226 44.5q188 0 267.5 -113.5t22.5 -293.5q-89 -270 -363 -413.5t-695 -143.5z" />
    <glyph glyph-name="six" unicode="6" horiz-adv-x="1071" 
d="M1190 1462q9 0 9 -5q0 -7 -11 -9q-146 -13 -287 -82t-251 -172.5t-194 -230.5t-128 -261q0 -2 -1 -5t-1 -5q79 99 196 161t238 62q177 0 243 -125.5t-2 -332.5q-42 -130 -131 -239.5t-213.5 -177t-257.5 -67.5q-119 0 -197.5 49.5t-110 136t-25 202t50.5 251.5
q54 167 145 308.5t199.5 240t233.5 167.5t250 101.5t245 32.5zM647 842q-83 0 -172.5 -46t-157.5 -128q-59 -192 -65 -342t40 -233.5t138 -86.5q254 0 361 332q45 145 44.5 257t-50.5 179.5t-138 67.5z" />
    <glyph glyph-name="seven" unicode="7" horiz-adv-x="978" 
d="M35 -12q-20 0 -22.5 2.5t5.5 19.5q112 168 259.5 347t262.5 302t282.5 299.5t254.5 272.5q9 10 8 16t-12 4l-637 -22q-41 -1 -70 -22.5t-65.5 -83t-95.5 -189.5q-11 -21 -17 -21q-2 0 -2.5 2t0.5 6t4 9q136 318 193 495q4 22 12 29.5t21 7.5q15 0 72.5 -14t95.5 -14h673
q9 0 13 -3t2.5 -8t-6 -11.5t-11.5 -14.5q-713 -792 -1091 -1385q-6 -13 -54 -18.5t-75 -5.5z" />
    <glyph glyph-name="eight" unicode="8" horiz-adv-x="1112" 
d="M412 -27q-100 0 -175.5 22t-120 61.5t-66.5 94t-19.5 119t26.5 136.5q47 145 178 252t283 126q6 0 8.5 3.5t1 7t-5.5 4.5q-60 19 -100.5 45t-67.5 66t-27.5 92.5t19.5 123.5q43 134 183 234t329 100q191 0 281.5 -93.5t40.5 -250.5q-37 -112 -136 -198t-247 -109
q-9 -2 -10 -7q2 -4 6 -5q162 -39 218.5 -143.5t6.5 -258.5q-39 -119 -137.5 -217t-223 -151.5t-245.5 -53.5zM680 817q125 0 196 60t115 204q44 157 4 251.5t-153 94.5q-121 0 -196 -61.5t-114 -198.5q-26 -103 -23 -181t46.5 -123.5t124.5 -45.5zM434 6q287 0 383 324
q42 149 29 248t-67.5 147.5t-145.5 48.5q-286 0 -381 -313q-56 -205 -7.5 -330t189.5 -125z" />
    <glyph glyph-name="nine" unicode="9" horiz-adv-x="1071" 
d="M836 1466q120 0 199 -49.5t110.5 -137t25 -203t-50.5 -251.5q-54 -167 -145 -308.5t-199.5 -240t-233.5 -167.5t-250 -101.5t-245 -32.5q-11 0 -10 6q1 7 12 9q146 13 287 82t251 172t193.5 230t126.5 261q1 2 2 6.5t2 6.5q-79 -100 -196 -163t-238 -63q-177 0 -243 126
t2 333q64 200 233 342.5t367 142.5zM918 768q60 192 66.5 342.5t-39.5 234.5t-138 87q-253 0 -363 -332q-44 -145 -43 -257t51 -179.5t138 -67.5q82 0 170.5 45.5t157.5 126.5z" />
    <glyph glyph-name="colon" unicode=":" horiz-adv-x="346" 
d="M240 723q-57 -3 -80 21.5t-4 62.5q18 36 66 61.5t108 26.5q56 1 78.5 -22.5t7.5 -59.5q-20 -37 -68.5 -63t-107.5 -27zM-2 -18q-56 -1 -78.5 23t-3.5 61q16 35 64 61t108 27q57 1 80.5 -22.5t5.5 -59.5q-18 -37 -66.5 -63t-109.5 -27z" />
    <glyph glyph-name="semicolon" unicode=";" horiz-adv-x="346" 
d="M240 723q-57 -3 -80 21.5t-4 62.5q18 36 66 61.5t108 26.5q56 1 78.5 -22.5t7.5 -59.5q-20 -37 -68.5 -63t-107.5 -27zM-156 -264q-12 -6 -11.5 0t13.5 12q156 76 195 195q8 24 -14.5 33t-53.5 10t-52 17.5t-9 53.5q11 34 61 65.5t105 31.5q68 3 88.5 -30.5t5.5 -82.5
q-31 -94 -134 -181t-194 -124z" />
    <glyph glyph-name="less" unicode="&#x3c;" horiz-adv-x="684" 
d="M791 915q13 0 0 -10l-5 -4l-626 -362q-12 -8 -14.5 -17.5t6.5 -17.5l385 -357q16 -14 -10 -29q-17 -10 -50 -22q-48 -12 -69.5 -13t-36.5 9l-340 316q-9 9 -4 30l10 29q5 16 33 35l698 405q11 8 23 8z" />
    <glyph glyph-name="equal" unicode="=" horiz-adv-x="706" 
d="M127 588q-19 0 -22 6q-1 3 6 5q8 3 22 3h535q21 0 20 -7t-24 -7h-537zM57 369q-19 0 -22 6q-1 3 6 5q8 3 22 3h535q21 0 20 -7t-24 -7h-537z" />
    <glyph glyph-name="greater" unicode="&#x3e;" horiz-adv-x="686" 
d="M680 600q11 -11 4 -31l-8 -26q-8 -18 -35 -37l-698 -406q-11 -8 -21 -8q-18 0 4 14l625 363q13 7 15.5 17.5t-5.5 17.5l-387 356q-16 14 9 29q16 9 50 22q51 12 71.5 13t35.5 -9z" />
    <glyph glyph-name="question" unicode="?" horiz-adv-x="974" 
d="M365 354q21 77 55 142t73 111t82.5 87.5t87.5 80.5t83 79.5t73 95t55 117.5q50 155 0 242.5t-176 87.5q-133 0 -248 -79t-190 -241q-9 -24 -20 -23q-10 3 -4 21q82 168 247 277.5t330 109.5q174 0 259 -105.5t28 -277.5q-26 -79 -73 -141.5t-104 -103.5t-121 -77.5
t-127.5 -73t-120.5 -78.5t-104 -106t-73 -145q-2 -8 -10 -6q-3 3 -2 6zM227 -18q-56 -1 -78.5 23t-3.5 61q16 35 64 61t108 27q57 1 80.5 -22.5t5.5 -59.5q-18 -37 -66.5 -63t-109.5 -27z" />
    <glyph glyph-name="at" unicode="@" horiz-adv-x="1705" 
d="M1251 1321q124 0 220.5 -35.5t155 -97t88.5 -142.5t28 -173.5t-33 -188.5q-53 -162 -169 -309.5t-248.5 -233.5t-239.5 -86q-96 0 -116.5 50.5t38.5 166.5l14 25q8 26 5 30t-23 -14q-274 -258 -543 -258q-71 0 -110 29.5t-42.5 80.5t17.5 120q54 167 189.5 315t321.5 239
t372 91q50 0 91.5 -12t72 -40t42 -69.5t-2 -104.5t-54.5 -141l-176 -321q-20 -39 -26.5 -63.5t5 -40t46.5 -15.5q78 0 169.5 69t177 197.5t136.5 286.5q28 87 31 171t-24.5 160t-82 133.5t-149 91.5t-218.5 34q-178 0 -348.5 -57t-318 -164t-264.5 -271.5t-183 -367.5
q-74 -227 -33.5 -378.5t166 -226.5t322.5 -75q277 0 518 151q14 10 14.5 4t-10.5 -14q-279 -197 -565 -197q-198 0 -328.5 80t-174.5 239t34 398q63 194 196.5 369.5t298.5 298t353 194.5t360 72zM563 131q103 0 212 60.5t187 140.5t134 168l67 123q33 61 49 107.5t14 84
t-32 57t-88 19.5q-113 0 -221.5 -55.5t-189.5 -143t-139.5 -184.5t-88.5 -191q-31 -91 -8 -138.5t104 -47.5z" />
    <glyph glyph-name="A" unicode="A" horiz-adv-x="1388" 
d="M1213 8q10 0 10 -8q0 -6 -5 -6q-60 6 -80 6h-326q-36 0 -129 -6q-8 0 -8 6q-1 8 14 8q41 3 72.5 12t60 29.5t42.5 59.5t11 94l-14 278q-8 18 -45 2q-135 -62 -291 -99.5t-297 -45.5q-41 -3 -63 -35l-4 -6l-2 -2l-80 -115q-25 -37 -29.5 -66t8 -47.5t37.5 -31.5t53.5 -19
t61.5 -8q15 0 14 -8q0 -6 -8 -6q-99 6 -133 6h-129q-26 0 -80 -6q-8 0 -6 8q2 6 8 6q44 4 79.5 39t102.5 131l736 1053q21 35 24 72l-4 96q3 19 -16 26q-6 3 3 7l9 2h192q23 0 23 -21l66 -1216q6 -100 38 -142t84 -47zM816 500q33 16 41 47l-35 702l-602 -866
q-7 -12 -3 -22.5t17 -10.5q142 9 295.5 48t286.5 102z" />
    <glyph glyph-name="B" unicode="B" horiz-adv-x="1228" 
d="M27 0q-13 0 -53 -2t-52 -2q-6 0 -7 5q3 5 11 7q66 5 112.5 46t78.5 141l340 1046q16 42 13.5 72.5t-12.5 51t-31 33t-43 18.5t-48 7q-11 2 -11 9q2 5 7 6q12 0 52 -2t52 -2q117 1 286.5 4.5t219.5 3.5q212 0 297.5 -89.5t40.5 -228.5q-45 -136 -152.5 -220t-250.5 -103
q179 -18 255.5 -112.5t20.5 -266.5q-65 -197 -242.5 -312.5t-437.5 -115.5q-79 0 -235.5 2.5t-210.5 3.5zM590 799l106 6q150 12 232 79t133 220q48 147 -4 228t-166 87l-119 6q-35 1 -51 -15.5t-31 -66.5l-399 -1230q-22 -54 -17.5 -79.5t45.5 -25.5h132q158 0 280 100.5
t180 282.5q65 187 11.5 288t-234.5 105l-100 2q-11 0 -6 8q2 4 8 5z" />
    <glyph glyph-name="C" unicode="C" horiz-adv-x="1271" 
d="M1147 719q-5 -9 -10.5 -7.5t0.5 11.5q73 119 101.5 238t14.5 213q-13 113 -79 174t-164 61q-217 0 -385.5 -176.5t-249.5 -472.5q-40 -171 -29 -296t65.5 -207.5t133 -123t174.5 -41.5q56 -1 121.5 10.5t161 56t174.5 117.5q17 14 16.5 6t-12.5 -18
q-161 -150 -318.5 -222.5t-326.5 -72.5q-167 0 -279.5 90.5t-142.5 251t37 381.5q52 163 155.5 307.5t231 245.5t274.5 159t287 58q77 0 145 -18t113 -48t75 -68t32 -79t-17 -80z" />
    <glyph glyph-name="D" unicode="D" horiz-adv-x="1359" 
d="M417 -10q-52 0 -111 1.5t-141.5 4.5t-138.5 4q-12 -1 -51.5 -3t-51.5 -3q-6 0 -7 5q-1 7 11 9q65 3 112 44t79 141l340 1046q15 54 12.5 88.5t-25.5 55t-49 29t-59 9.5q-11 2 -11 9q2 5 7 6q13 0 52 -2t50 -2q95 2 225.5 6t163.5 4q164 0 284 -35t189.5 -97.5t100 -153
t22.5 -198t-49 -235.5q-69 -210 -202 -373.5t-329 -261.5t-423 -98zM378 6q145 0 270.5 53t220.5 148t166 216.5t119 268.5q38 119 50.5 225.5t-5 200.5t-66.5 161.5t-140 106.5t-218 39q-34 0 -53 -22t-31 -60l-405 -1247q-20 -47 -2.5 -68.5t94.5 -21.5z" />
    <glyph glyph-name="E" unicode="E" horiz-adv-x="1167" 
d="M27 0q-30 0 -105 -6q-8 0 -7 7t11 7q66 5 112.5 46t78.5 141l340 1046q16 42 13.5 73t-12 51t-30.5 33t-42.5 19t-47.5 8q-12 0 -13 8q0 7 7 7q81 -6 104 -6h576q104 0 202 11t101 11q32 0 18 -47q-66 -233 -119 -494q-1 -14 -5.5 -13t-4.5 11q15 137 17 223t-5 122.5
t-22 64.5q-33 59 -129.5 77.5t-302.5 18.5q-48 0 -70 -67l-172 -533q-8 -17 -3.5 -34t24.5 -17q139 0 176 6q49 8 93.5 50t115.5 163q6 12 11 10q1 -4 -1 -10q-49 -103 -89 -238t-56 -241q-1 -8 -4 -10.5t-6 1t-3 11.5q6 126 -10 176.5t-59 61.5q-52 6 -172 6q-37 0 -56 -56
l-190 -587q-35 -97 24 -97q213 0 342.5 24t200.5 79q63 47 125.5 138.5t144.5 256.5q11 23 17 21q4 -1 -4 -17q-102 -215 -201 -493q-10 -28 -20.5 -37t-26.5 -9q-13 -1 -45 4.5t-103 12t-172 6.5h-546z" />
    <glyph glyph-name="F" unicode="F" horiz-adv-x="1054" 
d="M-38 0q-14 0 -48.5 -2t-45.5 -2q-7 0 -8 5q1 6 12 7q63 6 107.5 49.5t74.5 135.5l342 1048q27 95 11.5 136.5t-74.5 47.5q-8 0 -8 4q3 7 12 9q11 0 43.5 -2t46.5 -2h522q92 0 162.5 5.5t108 11t49.5 5.5q15 0 19.5 -8.5t-1.5 -36.5q-60 -202 -117 -465q-1 -12 -7.5 -12.5
t-4.5 10.5q16 171 2.5 283.5t-51.5 150.5q-23 24 -110 32.5t-287 8.5q-62 0 -97 -102l-176 -547q-8 -17 -4 -36t25 -19q116 0 192 8q55 8 95 45.5t110 157.5q10 19 15 13q2 -3 -1 -11q-86 -182 -141 -463q-1 -12 -6.5 -12t-5.5 12q6 129 -10 176t-66 53q-79 6 -186 6
q-41 0 -58 -53l-149 -461q-23 -63 -13.5 -101.5t38 -55.5t83.5 -21q12 0 12 -5q-1 -6 -16 -7q-14 0 -58.5 2t-62.5 2h-270z" />
    <glyph glyph-name="G" unicode="G" horiz-adv-x="1304" 
d="M535 -31q-168 0 -281 89t-144.5 249t37.5 381q54 166 158.5 311.5t232.5 245t272.5 156.5t279.5 57q69 0 129.5 -12t104 -33t77 -48.5t47.5 -58.5t16.5 -64t-16.5 -64l-281 -433q-7 -10 -13.5 -9.5t3.5 14.5q78 114 106.5 225t6.5 203q-17 110 -91 167.5t-182 57.5
q-440 0 -602 -502q-82 -264 -60 -458t115.5 -304t225.5 -110q58 0 106 7t98.5 25t92 55.5t69.5 92.5q21 62 64 319q-2 54 -61.5 84t-208.5 47q-14 2 -4 11q5 4 10 4q226 -18 454 6q27 3 35.5 -0.5t3.5 -15.5q-3 -9 -17.5 -30.5t-25.5 -55.5q-20 -54 -56 -160t-50 -146
q-10 -29 -35 -49q-281 -254 -616 -254z" />
    <glyph glyph-name="H" unicode="H" horiz-adv-x="1466" 
d="M1708 1440q9 0 7 -8q-2 -7 -11 -7q-66 -5 -112.5 -45.5t-78.5 -140.5l-339 -1046q-14 -53 -11.5 -87.5t25 -55.5t48 -30.5t58.5 -11.5q12 0 11 -8q-1 -6 -7 -6q-75 6 -104 6h-307q-27 0 -96 -6q-8 0 -7 7t11 7q60 5 103 46t75 141l192 593q0 19 -28 7
q-346 -145 -648 -160q-23 -3 -36 -29l-136 -413q-14 -53 -12.5 -87.5t22.5 -55.5t45 -30.5t56 -11.5q10 0 10 -8q-1 -6 -6 -6q-75 6 -98 6h-307q-30 0 -105 -6q-8 0 -7 7t11 7q66 5 112.5 46t78.5 141l340 1046q16 42 13.5 73t-12 51t-30.5 33t-42.5 19t-47.5 8q-12 0 -13 8
q0 7 7 7q81 -6 104 -6h309q22 0 97 6q9 0 7 -8q-2 -7 -11 -7q-60 -5 -104 -45.5t-77 -140.5l-184 -567q0 -12 5 -18t16 -5q301 16 647 162q31 13 43 35l129 395q14 53 12.5 87.5t-22.5 55.5t-44.5 29.5t-54.5 11.5q-11 0 -11 8q0 7 7 7q69 -6 96 -6h308q29 0 104 6z" />
    <glyph glyph-name="I" unicode="I" horiz-adv-x="610" 
d="M457 1241q16 42 13.5 73t-12 51t-30.5 33t-42.5 19t-47.5 8q-12 0 -13 8q0 7 7 7q81 -6 104 -6h314q23 0 104 6q7 0 7 -7q-1 -8 -13 -8q-66 -5 -112 -45t-79 -141l-338 -1046q-16 -42 -13.5 -73t12 -51.5t30.5 -33.5t42.5 -19t47.5 -8q11 0 11.5 -7t-7.5 -7q-75 6 -102 6
h-313q-30 0 -105 -6q-8 0 -7 7t11 7q66 5 112.5 46t78.5 141z" />
    <glyph glyph-name="J" unicode="J" horiz-adv-x="997" 
d="M276 -31q-87 0 -150 26.5t-92.5 71.5t-37 103.5t15.5 122.5q24 76 85.5 132.5t126 82.5t130.5 35q9 3 9 -3q-2 -6 -9 -10q-60 -24 -97 -64.5t-62 -115.5q-19 -59 -22 -117.5t10 -111t54 -84.5t105 -31q117 0 190.5 81t133.5 265q17 53 54 243.5t68 285.5l115 360
q15 42 12.5 73t-12.5 51t-31 33t-42.5 19t-47.5 8q-11 0 -11 8q0 7 7 7q75 -6 105 -6h311q29 0 104 6q9 0 7 -8q-2 -7 -11 -7q-66 -5 -112 -45.5t-78 -140.5l-240 -727q-87 -269 -242 -406t-346 -137z" />
    <glyph glyph-name="K" unicode="K" horiz-adv-x="1368" 
d="M1509 1440q9 0 9 -7q-1 -8 -13 -8q-29 -2 -52.5 -10t-57.5 -34t-53.5 -42.5t-75.5 -68.5l-572 -533q93 58 203 58q51 0 86 -15t61 -53.5t37.5 -108t10.5 -174.5q-2 -184 10 -252.5t65 -68.5q42 0 83 35.5t67 87.5q4 9 8.5 12t5.5 -1t-2 -15q-43 -114 -122 -190.5
t-165 -76.5q-87 0 -124.5 96t-28.5 310q4 105 -0.5 169.5t-21.5 97.5t-39.5 43.5t-61.5 10.5q-59 0 -95.5 -13.5t-82.5 -51.5l-178 -166l-91 -278q-16 -42 -13.5 -73t12 -51.5t30.5 -33.5t42.5 -19t47.5 -8q11 0 11.5 -7t-7.5 -7q-75 6 -102 6h-313q-30 0 -105 -6q-8 0 -7 7
t11 7q66 5 112.5 46t78.5 141l340 1046q16 42 13.5 73t-12 51t-30.5 33t-42.5 19t-47.5 8q-12 0 -13 8q0 7 7 7q81 -6 104 -6h314q23 0 104 6q7 0 7 -7q-1 -8 -13 -8q-66 -5 -112 -45t-79 -141l-241 -747l827 780q39 36 47 65.5t-11 47t-47 28t-61 12.5q-11 0 -11 8q0 7 7 7
q75 -6 105 -6h135q27 0 102 6z" />
    <glyph glyph-name="L" unicode="L" horiz-adv-x="1120" 
d="M27 0q-30 0 -105 -6q-8 0 -7 7t11 7q66 5 112.5 46t78.5 141l340 1046q16 42 13.5 73t-12 51t-30.5 33t-42.5 19t-47.5 8q-12 0 -13 8q0 7 7 7q81 -6 104 -6h320q31 0 118 6q9 0 8 -7q0 -8 -14 -8q-75 -5 -126.5 -45.5t-84.5 -142.5l-372 -1139q-15 -47 -10 -65.5
t32 -18.5q375 0 518 125q72 63 137 167t136 263q8 15 16 10q3 -2 0 -10q-152 -338 -217 -544q-8 -25 -17 -36.5t-24 -11.5q-4 0 -52 5.5t-142 11.5t-209 6h-426z" />
    <glyph glyph-name="M" unicode="M" horiz-adv-x="1689" 
d="M1378 197q-43 -176 127 -189q13 0 13 -8q0 -6 -7 -6q-81 6 -104 6h-328q-38 0 -125 -6q-9 0 -10 6q-1 5 7 7q3 1 7 1q82 5 138 47t80 144l254 1063q0 10 -7 10q-4 0 -12 -12l-797 -1184q-15 -20 -23 -22q-3 -1 -7 -1t-8.5 5t-4.5 14l-24 1167q0 14 -6 14t-13 -10
l-424 -1050q-19 -42 -16 -73t15 -51.5t37.5 -33.5t52 -19t57.5 -8q15 0 14 -8q0 -6 -8 -6q-93 6 -127 6h-143q-30 0 -105 -6q-8 0 -7 7t11 7q65 5 112.5 45.5t86.5 139.5l459 1110l-2 14q-7 103 -109 108q-11 2 -8 10q4 5 12 5q69 -6 103 -6h178q22 0 22 -19l6 -1079
q0 -10 5 -10q7 0 14 10l731 1083q11 15 23 15h186q33 0 108 6q9 0 7 -7t-11 -8q-68 -3 -114.5 -45t-69.5 -145z" />
    <glyph glyph-name="N" unicode="N" horiz-adv-x="1331" 
d="M1636 1440q7 0 7 -7q-1 -8 -13 -8q-66 -5 -111.5 -45t-78.5 -141l-406 -1241q-4 -14 -14 -14q-9 0 -14 14l-496 1307q-3 8 -10 8q-6 0 -13 -13l-356 -1107q-15 -53 -12.5 -88t24.5 -56t48 -30t59 -11q12 -2 11 -9q-1 -5 -7 -5q-29 0 -104 6h-132q-75 -6 -102 -6
q-8 0 -7.5 6.5t11.5 7.5q65 3 111.5 44.5t79.5 142.5l376 1146q-65 81 -149 84q-12 2 -13 9q2 5 7 6q29 0 104 -6h232q35 0 45 -25l383 -1106q3 -12 10 -12q8 0 12 16l301 934q15 42 12.5 73t-12.5 51t-31 33t-42.5 19t-47.5 8q-11 0 -11 8q0 7 7 7q75 -6 105 -6h133
q23 0 104 6z" />
    <glyph glyph-name="O" unicode="O" horiz-adv-x="1521" 
d="M553 -31q-138 0 -240 53.5t-154 149.5t-58.5 228t46.5 290q49 152 149 293t228 247t284 169t310 63q141 0 246 -54t158.5 -150t61.5 -227t-44 -286q-50 -154 -150 -295.5t-229 -248t-288.5 -169.5t-319.5 -63zM696 20q110 0 211.5 57.5t180 156.5t139 225.5t98.5 271.5
q22 113 24 214t-23.5 186.5t-70 147.5t-114.5 97t-158 35q-108 0 -207.5 -57t-176.5 -155t-136 -221.5t-96 -264.5q-25 -112 -27 -215t20 -190t65 -151.5t112.5 -100.5t158.5 -36z" />
    <glyph glyph-name="P" unicode="P" horiz-adv-x="1173" 
d="M637 604l-109 4q-8 2 -2 10q3 5 9 5l104 -2q163 -4 280 98.5t171 269.5q28 85 30 162t-20 136t-72 95t-121 39l-129 6q-34 0 -53.5 -18.5t-36.5 -69.5l-369 -1142q-56 -176 168 -189q15 0 15 -8q0 -6 -8 -6q-99 6 -136 6h-331q-30 0 -105 -6q-8 0 -7 7t11 7
q66 5 112.5 46t78.5 141l340 1046q16 42 13.5 72.5t-12.5 51t-31 33t-43 18.5t-48 7q-11 2 -11 9q2 5 7 6q12 0 52 -2t52 -2q114 1 278 4.5t234 3.5q240 0 334.5 -113.5t28.5 -316.5q-65 -202 -242.5 -315t-431.5 -93z" />
    <glyph glyph-name="Q" unicode="Q" horiz-adv-x="1521" 
d="M1610 -160q16 13 17 3q0 -5 -7 -11q-81 -71 -191 -122.5t-212 -51.5q-115 0 -238 78t-277 248q-74 -15 -149 -15q-138 0 -240 53.5t-154 149.5t-58.5 228t46.5 290q49 152 149 293t228 247t284 169t310 63q141 0 246 -54t158.5 -150t61.5 -227t-44 -286
q-75 -231 -253 -423.5t-404 -284.5l4 -4q167 -150 265.5 -212.5t195.5 -62.5q152 0 262 82zM367 713q-24 -110 -26.5 -212t18.5 -188t62.5 -150.5t108 -102t152.5 -40.5q-3 33 57.5 43t114.5 -12q108 45 202.5 148.5t160.5 238t108 293.5q22 113 24 214t-23.5 186.5
t-70 147.5t-114.5 97t-158 35q-108 0 -207.5 -57t-176.5 -155t-136 -221.5t-96 -264.5z" />
    <glyph glyph-name="R" unicode="R" horiz-adv-x="1304" 
d="M946 -25q-193 0 -131 385q12 66 8 113.5t-14 78t-32.5 49t-48.5 25.5t-62 7l-119 -2q-9 0 -5 9q3 6 9 7l117 6q164 30 283.5 128t170.5 255q56 171 -3.5 276t-221.5 109l-123 4q-30 2 -49.5 -14.5t-32.5 -58.5l-373 -1159q-16 -42 -13.5 -73t12 -51.5t30.5 -33.5
t42.5 -19t47.5 -8q11 0 11.5 -7t-7.5 -7q-75 6 -102 6h-313q-30 0 -105 -6q-8 0 -7 7t11 7q66 5 112.5 46t78.5 141l340 1046q16 42 13.5 72.5t-12.5 51t-31 33t-43 18.5t-48 7q-11 2 -11 9q2 5 7 6q12 0 52 -2t52 -2q114 1 276 4.5t232 3.5q256 0 356.5 -113t38.5 -301
q-56 -175 -192 -272.5t-338 -116.5q51 -3 85 -9.5t65.5 -22.5t48 -43t24 -71t2.5 -106q-18 -129 -9.5 -201.5t58.5 -72.5q87 0 144 125q4 8 8.5 9.5t6 -2.5t-0.5 -12q-43 -113 -123 -185.5t-172 -72.5z" />
    <glyph glyph-name="S" unicode="S" horiz-adv-x="1163" 
d="M66 268l182 314q5 9 9 12t3.5 -1.5t-4.5 -14.5q-114 -299 -66.5 -436.5t254.5 -137.5q39 0 76.5 5.5t84.5 23.5t85.5 46.5t75.5 80.5t59 121q16 49 18 94t-11 82.5t-32 69.5t-51 62.5t-61.5 53t-69.5 49.5q-47 34 -78.5 60t-66.5 59.5t-54.5 64.5t-34 68t-13.5 78t16 86
q22 64 76.5 126.5t132 113.5t181 82.5t212.5 31.5q95 0 175.5 -32t117.5 -89.5t-2 -138.5l-170 -307q-10 -16 -13 -7q-2 5 3 17q108 247 65.5 384.5t-233.5 137.5q-143 0 -218.5 -55t-111.5 -166q-12 -39 -12.5 -73t12 -64.5t29 -55.5t48.5 -53.5t59.5 -49.5t72.5 -52
q42 -28 67.5 -46.5t61.5 -49.5t56.5 -57t41.5 -63t27.5 -74t3.5 -84t-20 -99q-57 -175 -239.5 -295.5t-410.5 -120.5q-77 0 -143.5 17t-110 46.5t-71.5 68t-28 81t20 86.5z" />
    <glyph glyph-name="T" unicode="T" horiz-adv-x="1239" 
d="M1462 1456q36 0 21 -45q-78 -228 -123 -465q-3 -14 -9 -14.5t-3 12.5q21 213 11.5 316t-56.5 133q-24 28 -234 28q-34 0 -55 -53l-379 -1169q-56 -178 188 -191q17 0 16 -8q-1 -6 -10 -6q-105 6 -147 6h-369q-42 0 -147 -6q-9 0 -10 6q-1 8 16 8q98 5 163 46t99 145
l381 1173q10 49 -20 49q-213 0 -265 -32q-62 -33 -134.5 -131.5t-186.5 -309.5q-14 -25 -17 -16q-1 3 3 14q108 242 180 465q13 45 49 45q9 0 43.5 -5.5t127 -11t241.5 -5.5h198q149 0 245.5 5.5t135 11t47.5 5.5z" />
    <glyph glyph-name="U" unicode="U" horiz-adv-x="1351" 
d="M551 -31q-243 0 -333 164.5t1 439.5l213 668q15 53 14.5 87.5t-19.5 55.5t-41.5 29.5t-51.5 11.5q-11 0 -10 8q0 7 6 7q69 -6 90 -6h317q32 0 125 6q9 0 8 -7q0 -8 -14 -8q-80 -5 -135 -46t-88 -142l-221 -672q-76 -232 -12.5 -371t251.5 -139q181 0 339 144.5t233 378.5
l211 661q56 173 -152 186q-14 0 -14 8q-1 7 8 7q93 -6 125 -6h129q22 0 82 6q4 0 5.5 -4t-0.5 -7.5t-7 -3.5q-53 -5 -89.5 -44.5t-68.5 -139.5l-213 -653q-94 -287 -278 -453t-410 -166z" />
    <glyph glyph-name="V" unicode="V" horiz-adv-x="1323" 
d="M1616 1440q4 0 6 -4t0 -7.5t-8 -3.5q-46 -4 -85 -40.5t-102 -131.5l-772 -1142q-10 -17 -10 -35l4 -17q2 -18 -18 -28l-162 -54q-29 -10 -29 13l-34 1247q-5 177 -121 188q-5 0 -7 3.5t-0.5 7.5t5.5 4q54 -6 79 -6h326q36 0 129 6q9 0 8 -7q0 -8 -14 -8q-87 -5 -139 -47
t-51 -147l20 -1102q0 -10 4 -10l762 1134q30 45 30.5 79t-23.5 52.5t-55.5 28t-70.5 12.5q-12 0 -13 8q0 7 9 7q87 -6 121 -6h129q28 0 82 6z" />
    <glyph glyph-name="W" unicode="W" horiz-adv-x="1925" 
d="M2218 1440q7 0 5 -8q-3 -6 -9 -7q-46 -4 -84 -41t-98 -133l-711 -1136q-18 -25 -14 -39l4 -17q2 -19 -19 -28l-170 -54q-28 -8 -28 13l22 948l-512 -821q-17 -26 -12 -41l2 -17q2 -19 -19 -28l-169 -54q-27 -11 -27 13l29 1247q5 176 -121 188q-11 0 -10 10q3 4 6 5
q60 -6 84 -6h311q27 0 102 6q9 0 7 -8q-2 -7 -11 -7q-71 -5 -113 -46t-45 -144l-30 -1096q0 -5 2.5 -7t6.5 0t7 7l492 791q15 26 20 45l6 260q1 54 -10.5 91.5t-34 57.5t-47.5 29.5t-57 11.5q-12 0 -13 8q0 7 7 7q75 -6 104 -6h328q29 0 110 6q9 0 9 -7q-1 -8 -13 -8
q-76 -5 -121.5 -46.5t-48.5 -145.5l-32 -1092q0 -10 6 -10t12 8l2 2l688 1110q24 37 28 67t-7.5 48.5t-35 31.5t-49.5 19t-57 8q-12 0 -13 8q0 7 9 7q87 -6 121 -6h129q22 0 82 6z" />
    <glyph glyph-name="X" unicode="X" horiz-adv-x="1316" 
d="M1540 1440q9 0 7 -8q-2 -7 -11 -7q-56 -4 -101.5 -38t-125.5 -123l-461 -504l137 -563q24 -101 69.5 -142.5t112.5 -46.5q12 0 11 -8q-1 -6 -7 -6q-75 6 -104 6h-348q-32 0 -107 -6q-8 0 -7.5 7t11.5 7q27 2 49 8t44 19.5t33.5 34.5t16 52.5t-8.5 74.5l-121 495
l-471 -524q-36 -39 -41.5 -70.5t15 -49.5t50 -28t64.5 -12q12 0 12 -7q-1 -6 -8 -7q-81 6 -111 6h-137q-29 0 -104 -6q-8 0 -7 7t11 7q57 4 105.5 39t127.5 123l490 539l-127 528q-24 101 -70 142t-113 46q-12 0 -12 8q1 7 8 7q75 -6 103 -6h350q32 0 113 6q7 0 6 -7
q-1 -8 -13 -8q-181 -13 -139 -188l113 -461l442 490q35 39 40 70t-15.5 49t-50 28t-64.5 12q-12 0 -13 8q0 7 9 7q81 -6 111 -6h137q25 0 100 6z" />
    <glyph glyph-name="Y" unicode="Y" horiz-adv-x="1200" 
d="M326 0q-30 0 -105 -6q-8 0 -7 7t11 7q66 5 112.5 46t78.5 141l112 340q9 36 4 63l-104 639q-16 101 -52 143t-89 45q-11 2 -10 10q3 4 6 5q30 0 84 -6h329q87 6 125 6q9 0 8 -6q0 -7 -14 -9q-198 -8 -168 -190l92 -610q3 -27 27 0l508 635q34 42 36.5 74.5t-22 50.5
t-57 28t-72.5 12q-14 0 -14 8q-1 7 8 7q93 -6 125 -6h131q24 0 84 6q7 0 5 -8q-3 -6 -9 -7q-44 -4 -80.5 -36.5t-114.5 -128.5l-534 -660q-24 -30 -33 -65l-109 -342q-16 -42 -13.5 -73t12 -51.5t30.5 -33.5t42.5 -19t47.5 -8q11 0 13 -7q-2 -6 -9 -7q-75 6 -102 6h-313z
" />
    <glyph glyph-name="Z" unicode="Z" horiz-adv-x="1226" 
d="M915 -20q-12 0 -57 10t-104 10h-641q-45 0 -96 -3t-62 -3q-18 0 -25 7.5t-4 18.5q12 24 29 41l1245 1336q7 6 9 11.5t-0.5 9t-8.5 3.5l-498 -26q-55 -4 -94.5 -19t-87.5 -55t-99.5 -116.5t-115.5 -198.5q-8 -13 -12 -11q-4 1 0 11q85 184 162 405q15 43 47 43q9 0 65 -11
t133 -11l443 2q24 0 137 2t139 2q23 0 17 -19q-2 -6 -47 -59l-1233 -1323q-4 -5 -6 -9t-3 -8.5t2 -6.5t9 -1l553 27q102 8 208 117t230 360q5 8 10 8q6 0 0 -12q-118 -252 -196 -489q-14 -43 -48 -43z" />
    <glyph glyph-name="bracketleft" unicode="[" horiz-adv-x="546" 
d="M-168 -285l567 1749q11 39 41 39h428q10 0 12 -7q1 -5 -6 -6q-3 -1 -8 -1h-250q-20 0 -26.5 -10t-24.5 -62l-536 -1655q-20 -60 -15 -67q3 -4 19 -4h248q11 0 11 -7q-1 -7 -18 -8h-428q-31 0 -14 39z" />
    <glyph glyph-name="backslash" unicode="\" horiz-adv-x="368" 
d="M133 -197q0 -30 -18 -30q-15 0 -13 26q11 104 51 471t73 678.5t46 460.5q0 33 19 33q14 0 12 -31z" />
    <glyph glyph-name="bracketright" unicode="]" horiz-adv-x="546" 
d="M798 1464l-568 -1749q-11 -39 -41 -39h-428q-12 0 -12 8q-1 7 14 7h250q20 0 26.5 9.5t24.5 61.5l537 1655q20 60 15 68q-3 4 -19 4h-248q-12 0 -11.5 7t17.5 7h428q32 0 15 -39z" />
    <glyph glyph-name="asciicircum" unicode="^" horiz-adv-x="718" 
d="M803 983q5 -26 -1.5 -32.5t-37.5 -6.5q-61 0 -76 5.5t-18 27.5l-58 377q-2 9 -7 11.5t-11 -3.5l-336 -406q-12 -12 -25 -12q-5 0 5 12l399 480q21 24 39 24h8q13 0 17.5 -3t5.5 -15z" />
    <glyph glyph-name="underscore" unicode="_" horiz-adv-x="456" 
d="M343 -96h-479q-14 0 -15 6q2 7 21 8h477q14 0 14 -6q-1 -7 -18 -8z" />
    <glyph glyph-name="grave" unicode="`" horiz-adv-x="624" 
d="M547 1044q-24 3 -86.5 64.5t-113 138t-38.5 111.5q4 13 51.5 16t83.5 -4q20 -2 25 -27.5t3 -63.5t19 -99t68 -119q5 -6 1 -12t-13 -5z" />
    <glyph glyph-name="a" unicode="a" horiz-adv-x="1118" 
d="M989 600l-127 -385q-44 -137 12 -137q26 0 42.5 12t38.5 56t55 135q5 13 13 7q6 -5 3 -16q-42 -134 -111.5 -215.5t-164.5 -81.5q-52 0 -76.5 29t-23.5 74.5t22 107.5l2 9q5 31 -1 29l-3 -3q-86 -116 -190.5 -184t-215.5 -68q-80 0 -135.5 38.5t-79.5 103.5t-22 150
t32 177q45 137 142.5 256t220.5 189.5t240 70.5q47 0 88 -12.5t68.5 -31t50 -36.5t43 -30.5t38.5 -12.5q16 0 38.5 17.5t53.5 46t52 43.5q8 7 15 8.5t9.5 -3t-2.5 -15.5q-63 -139 -127 -328zM729 365l59 178q18 66 20.5 130t-10.5 120t-54.5 90.5t-106.5 34.5
q-263 0 -363 -316q-33 -100 -39.5 -196t11.5 -167.5t62 -115t106 -43.5q109 0 188.5 76.5t126.5 208.5z" />
    <glyph glyph-name="b" unicode="b" horiz-adv-x="1052" 
d="M789 954q154 0 212 -127t-9 -344q-32 -100 -94 -193t-140 -163.5t-173.5 -113t-188.5 -42.5q-54 0 -97 15t-69 36.5t-47 43t-41.5 36.5t-40.5 15q-13 0 -33.5 -18.5t-51.5 -53.5t-48 -51q-14 -19 -20 -12q-4 3 2 16q75 169 127 326l301 903q13 57 -5 77.5t-61 12.5
q-6 -1 -9 1.5t-2.5 6t1.5 4.5q207 56 340 144q3 0 4.5 -0.5t5.5 -3.5t-2 -11q-55 -120 -147 -391l-99 -303q-19 -69 -8 -72q82 112 184 187t209 75zM802 451q26 117 21.5 205.5t-51 140t-130.5 49.5q-85 -2 -171 -83.5t-140 -219.5l-56 -172q-17 -60 -25 -110.5t-4.5 -98.5
t22 -82t57 -54t96.5 -20q271 0 381 445z" />
    <glyph glyph-name="c" unicode="c" horiz-adv-x="905" 
d="M748 455q-7 -10 -13 -7t4 17q54 99 57 205t-45 175.5t-130 69.5q-253 0 -355 -319q-50 -161 -25 -278t99.5 -182.5t175.5 -65.5q146 0 254 106q11 9 11 1q0 -4 -5 -9q-206 -197 -442 -197q-115 0 -193 59t-100.5 164.5t22.5 251.5q45 141 146 258t229.5 183.5t255.5 66.5
q131 0 208 -59t40 -125z" />
    <glyph glyph-name="d" unicode="d" horiz-adv-x="1105" 
d="M1270 1473q3 0 4.5 -0.5t6 -3.5t-0.5 -11q-50 -104 -147 -391l-283 -852q-41 -137 12 -137q26 0 42 12.5t38 55.5t55 135q3 7 8 8t8 -4t1 -13q-42 -133 -111.5 -215t-165.5 -82q-145 0 -78 211l5 13q2 6 2 12q0 16 -15 0l-4 -4q-185 -238 -383 -238q-94 0 -156.5 58
t-77.5 162t29 249q45 137 144 257t219 189.5t227 69.5q159 0 221 -131l136 404q13 57 -5 77.5t-61 12.5q-6 -1 -8.5 1.5t-1.5 6t2 4.5q206 57 338 144zM412 80q199 0 313 305l35 100q21 77 27 151.5t-5 138.5t-48.5 103.5t-98.5 39.5q-257 0 -365 -326q-40 -135 -37.5 -249
t51.5 -188.5t128 -74.5z" />
    <glyph glyph-name="e" unicode="e" horiz-adv-x="917" 
d="M317 -29q-170 0 -246 131t-8 344q70 217 249.5 362.5t373.5 145.5q138 0 200 -72.5t23 -195.5q-25 -76 -79 -134.5t-119.5 -93.5t-149.5 -57.5t-161.5 -30.5t-163.5 -8l2 17q384 -4 462 235q41 132 9.5 213.5t-117.5 81.5q-118 0 -198.5 -73.5t-133.5 -237.5
q-49 -161 -24 -278.5t98 -183.5t168 -66q125 0 243 106q6 -6 -6 -18q-93 -91 -204.5 -139t-217.5 -48z" />
    <glyph glyph-name="f" unicode="f" horiz-adv-x="557" 
d="M-298 -244q262 14 391 449l197 647q9 29 4.5 44t-27.5 15h-80q-8 0 -6 6q1 6 8 7q79 11 120.5 48.5t74.5 145.5q22 73 61.5 134t86 101.5t99 67.5t101 35.5t91.5 0t71 -33.5q8 -16 -8 -32q-17 -16 -60 -47t-61 -46q-21 -15 -29 -2q-38 69 -94.5 84.5t-101.5 -28.5
q-76 -67 -43 -416q8 -12 34 -12h193q1 0 1 -3t-3.5 -6.5t-9.5 -3.5h-168q-28 0 -44.5 -11t-27.5 -48l-178 -590q-23 -79 -61.5 -149.5t-83 -121.5t-96.5 -93.5t-102 -70t-99 -47t-87 -28.5t-67 -10q-10 -1 -11 4q-1 7 13 10h2z" />
    <glyph glyph-name="g" unicode="g" horiz-adv-x="1054" 
d="M1083 938q11 14 17.5 11.5t-0.5 -19.5q-69 -152 -127 -330q-10 -31 -70.5 -216t-91.5 -284q-35 -108 -91.5 -198t-121.5 -150t-138.5 -102t-142.5 -61t-133 -19q-111 0 -160.5 54.5t-25.5 133.5q25 82 110.5 155.5t206.5 133.5q-28 -4 -45 -4q-79 0 -133 34.5t-76.5 93
t-20.5 134.5t30 160q46 141 139 254t207.5 174t226.5 61q47 0 87.5 -14.5t67.5 -35t50.5 -40.5t45.5 -34.5t42 -14.5q8 0 18 4t22 13t21.5 16.5t24 22.5t21 22.5t22 24t18.5 20.5zM272 612q-30 -91 -36 -173.5t11 -145t61 -100t110 -37.5q226 0 330 321l8 23l-2 -2
q25 76 29 152t-11.5 135t-53.5 96t-93 37q-141 0 -221 -73.5t-132 -232.5zM586 -18l67 206q33 107 27 106q-1 0 -4 -3q-126 -165 -277 -223q-113 -61 -164 -120t-83 -155q-26 -92 -3 -140t80 -48q121 0 208 90.5t149 286.5z" />
    <glyph glyph-name="h" unicode="h" horiz-adv-x="1091" 
d="M989 281q3 7 8.5 8t8.5 -4t0 -13q-42 -133 -111.5 -215t-165.5 -82q-145 0 -78 211l123 379q52 161 27 243.5t-125 82.5q-87 0 -175.5 -78.5t-148.5 -241.5l-127 -391q-4 -8 -13 -36t-19 -59.5t-13 -39.5q-11 -33 -42 -44t-87 -11h-49q-25 0 -16 24q12 36 24.5 75t20 62
t10.5 31l356 1073q13 57 -5.5 78t-61.5 13q-6 -1 -8.5 1.5t-1.5 6t2 4.5q207 57 337 143q11 0 12 -6q1 -3 -1 -8q-53 -111 -148 -391l-127 -394q66 114 165.5 186.5t207.5 72.5q149 0 199.5 -101.5t-13.5 -304.5l-112 -340q-41 -137 14 -137q25 0 41.5 12.5t38.5 56.5
t53 134z" />
    <glyph glyph-name="i" unicode="i" horiz-adv-x="526" 
d="M424 1194q-56 0 -77.5 27.5t-2.5 68.5q19 39 68.5 66.5t107.5 27.5q54 0 77 -27.5t5 -66.5q-21 -41 -70.5 -68.5t-107.5 -27.5zM276 215q-41 -137 15 -137q25 0 41 12t38.5 56.5t53.5 134.5q6 13 14 7q6 -5 2 -16q-42 -134 -111.5 -215.5t-164.5 -81.5q-145 0 -78 211
l172 525q43 135 -12 135q-26 0 -42 -12t-38 -56t-53 -135q-5 -10 -13 -7.5t-4 15.5q42 134 111 215.5t166 81.5q52 0 76 -29t22.5 -74.5t-22.5 -107.5z" />
    <glyph glyph-name="j" unicode="j" horiz-adv-x="491" 
d="M436 1194q-56 0 -77.5 27.5t-2.5 68.5q19 39 68.5 66.5t107.5 27.5q54 0 77 -27.5t5 -66.5q-21 -41 -70.5 -68.5t-107.5 -27.5zM88 190l160 496q19 52 24 89t-1 53.5t-19 17.5q-22 0 -51 -37.5t-51 -101.5q-6 -14 -14 -10q-3 3 -1 10q50 129 108.5 183t141.5 54
q65 0 83 -51.5t-11 -136.5q-18 -51 -39 -117l-123 -377q-35 -109 -98 -200t-131 -147.5t-143 -96.5t-132.5 -57t-99.5 -19q-10 -1 -9 6q1 10 15 10q38 3 71.5 12t78 37t83.5 72.5t81 124t77 186.5z" />
    <glyph glyph-name="k" unicode="k" horiz-adv-x="1009" 
d="M915 281q4 8 10 10t9 -2t0 -13q-40 -147 -113.5 -224t-158.5 -77q-78 0 -112.5 61.5t1.5 184.5q28 82 20.5 128t-61.5 50q-76 3 -156 -28q-4 -2 -12 -5.5t-12 -5.5q-7 -4 -8 3q-1 8 10 14q65 29 86 37q356 165 356 352q0 41 -22.5 64.5t-63.5 23.5q-108 0 -201.5 -100.5
t-187.5 -343.5l-74 -230q-4 -9 -23 -66t-24 -69q-10 -33 -40.5 -44t-86.5 -11h-51q-22 0 -16 24q27 76 55 168l348 1045q13 57 -5 77.5t-60 12.5q-12 -2 -11 8q1 3 2 4q206 57 338 144q3 0 5 -0.5t6.5 -3.5t-0.5 -11q-66 -137 -148 -391l-145 -444q106 157 219.5 244
t224.5 87q67 0 104 -35t37 -85q0 -54 -30.5 -106t-88.5 -99t-125 -87t-157 -83q58 14 88 14q163 0 100 -233q-46 -162 39 -162q39 0 66 40t69 163z" />
    <glyph glyph-name="l" unicode="l" horiz-adv-x="487" 
d="M387 1227q13 57 -5 77.5t-60 12.5q-12 -2 -11 8q1 3 2 4q206 57 338 141q1 1 5 1t6.5 -2.5t-0.5 -10.5q-66 -137 -148 -391l-283 -852q-41 -137 13 -137q26 0 42 12.5t38 55.5t55 135q5 13 13 7q6 -5 3 -16q-42 -134 -111.5 -215.5t-164.5 -81.5q-145 0 -78 211z" />
    <glyph glyph-name="m" unicode="m" horiz-adv-x="1615" 
d="M1511 281q3 7 8.5 8t8.5 -4t0 -13q-42 -134 -111 -215.5t-164 -81.5q-52 0 -76.5 29t-23 74.5t22.5 107.5l139 437q39 121 17 191.5t-95 70.5q-91 0 -171.5 -94t-135.5 -248l-117 -363q-4 -8 -13 -36t-19 -59.5t-13 -39.5q-10 -33 -41.5 -44t-85.5 -11h-51q-26 0 -17 24
q13 37 25.5 75t20 61.5t10.5 31.5l141 441q39 121 16.5 191.5t-96.5 70.5q-80 0 -158 -87t-135 -220l-127 -398q-4 -8 -13 -36t-19 -59.5t-13 -39.5q-11 -33 -42 -44t-87 -11h-49q-25 0 -16 24q11 35 23.5 75t19.5 62t10 31l174 529q43 135 -12 135q-26 0 -42 -12t-38 -56
t-53 -135q-5 -10 -13 -7.5t-4 15.5q42 134 111 215.5t166 81.5q52 0 76 -29t22.5 -74.5t-22.5 -107.5l-11 -30q60 108 152.5 177.5t202.5 69.5q64 0 112.5 -29.5t71 -88t-1.5 -146.5q63 117 156 190.5t204 73.5q123 0 167 -89t-7 -255l-129 -395q-44 -137 12 -137
q26 0 42.5 12.5t38 56t52.5 134.5z" />
    <glyph glyph-name="n" unicode="n" horiz-adv-x="1140" 
d="M1038 281q3 7 8.5 8t8.5 -4t0 -13q-42 -133 -111.5 -215t-165.5 -82q-145 0 -78 211l121 373q52 161 27 243.5t-125 82.5q-43 0 -88 -19.5t-91 -60t-88.5 -111.5t-72.5 -164q0 -1 -1 -3t-1 -3l-111 -344q-4 -8 -13 -36t-19 -59.5t-13 -39.5q-11 -33 -42 -44t-87 -11h-49
q-25 0 -16 24q24 70 53 168l174 529q43 135 -12 135q-26 0 -42 -12t-38 -56t-53 -135q-5 -10 -13 -7.5t-4 15.5q42 134 111 215.5t166 81.5q52 0 76 -29t22.5 -74.5t-22.5 -107.5l-15 -45q68 115 169.5 188.5t211.5 73.5q149 0 199.5 -101t-13.5 -304l-110 -334
q-41 -137 14 -137q25 0 41 12t38.5 56.5t53.5 134.5z" />
    <glyph glyph-name="o" unicode="o" horiz-adv-x="1069" 
d="M358 -31q-169 0 -254.5 114.5t-46.5 299.5q21 148 117.5 280t239.5 211.5t293 79.5q189 0 276.5 -132t24.5 -341q-40 -139 -140.5 -256.5t-236 -186.5t-273.5 -69zM449 16q132 0 230.5 109t143.5 319q23 134 9 236.5t-71 164.5t-145 62q-129 0 -223.5 -105t-140.5 -321
q-23 -130 -10 -233.5t68 -167.5t139 -64z" />
    <glyph glyph-name="p" unicode="p" horiz-adv-x="1105" 
d="M846 954q96 0 157 -58t74 -162.5t-33 -250.5q-43 -133 -135 -250.5t-211.5 -189.5t-234.5 -72q-55 0 -96.5 17t-59.5 37.5t-32.5 37.5t-22.5 17q-15 0 -23 -21l-94 -288q-28 -95 -15 -131.5t66 -38.5q12 -2 5 -10q-5 -4 -9 -5q-73 4 -200 3.5t-197 -3.5q1 0 0 2.5l-2 5
t0.5 5t5.5 2.5q55 0 92.5 39t69.5 133l307 938q40 135 -14 135q-26 0 -42 -12t-38 -56t-53 -135q-5 -10 -13 -7.5t-4 15.5q42 134 111 215.5t166 81.5q145 0 78 -211l-5 -10q-4 -43 9 -25q192 252 393 252zM836 332q49 148 49.5 266.5t-46 185t-134.5 64.5
q-91 -2 -174.5 -75.5t-135.5 -199.5l-63 -196q-27 -108 -22.5 -190t50 -131.5t127.5 -49.5q128 0 212 82t137 244z" />
    <glyph glyph-name="q" unicode="q" horiz-adv-x="1069" 
d="M59 438q45 137 141 256t216.5 189.5t232.5 70.5q60 0 109.5 -21.5t75.5 -47t54.5 -47t51.5 -21.5q9 0 19.5 4.5t23 13t23 17.5t24 22.5l22 22t21.5 22.5t17 19q16 20 20 11q1 -4 -4 -17q-82 -191 -127 -332l-268 -829q-28 -95 -15 -131.5t66 -38.5q12 -2 4 -10
q-5 -4 -10 -5q-72 4 -199 3.5t-197 -3.5q1 0 0 2.5t-1.5 5t1 5t5.5 2.5q55 0 92 39t69 133l113 350l25 86q2 12 -3 11q-3 -2 -12 -13q-86 -111 -188.5 -174.5t-206.5 -63.5q-97 0 -157 58.5t-71 162.5t33 248zM270 592q-32 -97 -39 -190.5t8.5 -165t56.5 -115t101 -43.5
q227 0 336 330l8 24q45 143 50 251t-36 171.5t-128 63.5q-137 0 -220.5 -83t-136.5 -243z" />
    <glyph glyph-name="r" unicode="r" horiz-adv-x="829" 
d="M745 954q79 0 125 -47t11 -110l-187 -320q-8 -12 -11.5 -7.5t3.5 17.5q42 86 55.5 151t0.5 102.5t-41 56t-70 18.5q-171 0 -287 -336l-96 -299q-4 -8 -13 -36t-19 -59.5t-13 -39.5q-10 -33 -41.5 -44t-85.5 -11h-51q-26 0 -17 24q18 49 35 105.5t20 62.5l162 504
q19 52 24 89t-1 53.5t-19 17.5q-21 0 -49.5 -37t-52.5 -102q-5 -13 -13 -10q-3 3 -1 10q50 129 108 183t141 54q65 0 83 -51.5t-11 -136.5q-10 -32 -20.5 -61.5t-12.5 -37.5q156 297 344 297z" />
    <glyph glyph-name="s" unicode="s" horiz-adv-x="860" 
d="M-10 135l116 232q5 11 11 7q3 -4 0 -14q-52 -177 -6.5 -267.5t176.5 -90.5q88 0 146.5 33t84.5 115q12 32 8 64t-13 57.5t-33.5 54.5t-53 54.5t-70.5 57.5q-27 21 -46 37t-40.5 36.5t-35 37.5t-26 38.5t-17 42t-3.5 44.5t9 49q33 92 149.5 161.5t267.5 69.5
q53 0 104.5 -8.5t95.5 -25.5t60.5 -44.5t-0.5 -64.5l-122 -227q-2 -4 -5 -5.5t-4 0.5t2 9q97 332 -165 332q-94 0 -140 -31t-63 -84q-6 -19 -5.5 -38t4.5 -35t15.5 -33.5t23.5 -32t32.5 -34t38.5 -34.5t46 -37q27 -21 45 -36t43 -38.5t41 -43.5t31.5 -46.5t22.5 -51t7 -54.5
t-9 -60q-35 -108 -163.5 -185t-293.5 -77q-135 0 -217 48.5t-49 117.5z" />
    <glyph glyph-name="t" unicode="t" horiz-adv-x="624" 
d="M209 -23q-95 0 -138.5 63.5t-0.5 190.5l204 625q11 25 6.5 40t-28.5 15h-74q-9 0 -5 5q4 4 11 6q103 9 201.5 78.5t177.5 199.5q10 18 16 18q5 0 -1 -14q-58 -180 -86 -248q-5 -16 3.5 -24t34.5 -8h175v-3q0 -3 -4.5 -6.5t-10.5 -3.5h-162q-31 0 -47 -11.5t-26 -43.5
l-201 -620q-25 -83 -7 -123.5t68 -40.5q57 0 104.5 44t90.5 152q6 12 15 9q6 -2 1 -13q-52 -134 -132 -210.5t-185 -76.5z" />
    <glyph glyph-name="u" unicode="u" horiz-adv-x="1132" 
d="M1020 659l-148 -444q-41 -137 15 -137q26 0 42 12t38 56t53 135q6 13 14 7q6 -5 2 -16q-42 -134 -110.5 -215.5t-165.5 -81.5q-145 0 -78 211l16 50q-64 -121 -166 -194t-225 -73q-136 0 -183.5 98.5t13.5 301.5l113 340q43 137 -12 137q-26 0 -42.5 -12t-38.5 -56
t-55 -135q-3 -6 -7.5 -7.5t-7.5 3t-1 12.5q42 134 111.5 215.5t164.5 81.5q145 0 78 -211l-121 -370q-52 -164 -27.5 -246t120.5 -82q92 0 177 78.5t142 216.5l117 360q9 32 17 57t16.5 49t13.5 38q10 32 31 53t50 31t57 14t63 4h7t7.5 -1t6.5 -2.5t1 -4.5
q-56 -141 -98 -273z" />
    <glyph glyph-name="v" unicode="v" horiz-adv-x="1095" 
d="M369 -29q-291 0 -156 512q44 180 57 222q14 65 5.5 103t-37.5 38q-26 0 -42.5 -12t-38.5 -56t-55 -135q-3 -6 -7.5 -7.5t-7.5 3t-1 12.5q42 134 111.5 215.5t164.5 81.5q144 0 95 -215q-10 -44 -30.5 -123.5t-25.5 -101.5q-36 -148 -47 -247.5t3 -150.5t41 -70.5
t71 -19.5q117 0 219.5 120.5t167.5 318.5q31 97 39.5 185.5t-12 148t-70.5 61.5q-25 3 -43.5 -9t-35 -32t-23.5 -25q-10 -6 -12.5 -3t3.5 12q95 157 222 157q106 0 140.5 -112t-20.5 -279q-50 -153 -161 -290t-250 -219.5t-264 -82.5z" />
    <glyph glyph-name="w" unicode="w" horiz-adv-x="1581" 
d="M1409 954q102 0 138.5 -108.5t-17.5 -280.5q-51 -159 -157 -297t-233 -217.5t-241 -79.5q-83 0 -124.5 45.5t-31.5 161.5q-94 -96 -198 -151.5t-199 -55.5q-65 0 -106 25t-61.5 82.5t-12 158.5t46.5 246q27 122 55 222q14 65 6.5 103t-36.5 38q-26 0 -42.5 -12t-38.5 -56
t-55 -135q-3 -6 -7.5 -7.5t-7.5 3t-1 12.5q42 134 111.5 215.5t164.5 81.5q144 0 95 -215q-48 -192 -56 -225q-37 -152 -51 -247.5t-4 -147t35.5 -70t73.5 -18.5q103 0 193.5 112.5t154.5 321.5q31 98 41 186t-8.5 147.5t-67.5 61.5q-24 3 -43 -9t-36 -32t-25 -25
q-18 -9 -9 9q40 71 98 114t124 43q97 0 129 -106.5t-17 -276.5q-49 -171 -71 -272t-22 -165t23 -86.5t72 -22.5q112 0 194 111.5t150 324.5q25 76 38 145t12.5 124t-20.5 88t-58 34q-37 2 -93 -31q-11 -7 -10 -2l6 12q88 123 199 123z" />
    <glyph glyph-name="x" unicode="x" horiz-adv-x="1030" 
d="M989 952q55 0 76 -40t0.5 -101.5t-78.5 -118.5q-8 -6 -11 -4.5t3 10.5q22 30 27.5 63t-11 57t-53.5 24q-31 1 -63 -10t-69 -39t-69.5 -71.5t-63.5 -115t-52 -162.5l16 -233q7 -139 94 -139q30 0 51 11.5t50 57t65 133.5q6 10 13.5 7.5t3.5 -15.5q-110 -297 -289 -297
q-78 0 -122 59.5t-50 155.5l-19 246q-162 -259 -250.5 -360t-173.5 -101q-56 0 -77.5 40.5t-1 102t78.5 117.5q12 9 12 3l-3 -7q-21 -30 -27 -63t9 -57t52 -25q31 -1 63 9t73 39.5t79.5 76.5t80.5 127.5t77 185.5l-14 195q-3 65 -25 103t-61 38q-31 0 -50 -13t-43.5 -56
t-64.5 -136q-6 -10 -14 -7.5t-2 15.5q48 134 120 215.5t166 81.5q78 0 118.5 -59t43.5 -156l14 -194q114 214 200 310.5t171 96.5z" />
    <glyph glyph-name="y" unicode="y" horiz-adv-x="1114" 
d="M942 954q33 0 61.5 -14t51 -49t30.5 -87.5t-4 -137.5t-47 -191q-75 -226 -197 -430.5t-273.5 -339.5t-287.5 -135q-106 0 -151 54t-21 134q23 81 115.5 162t216.5 143q-16 -4 -43 -4q-37 0 -69.5 6.5t-63.5 21.5t-52 42.5t-33.5 65t-10.5 93t20 124.5l80 295
q16 63 9.5 101t-35.5 38q-26 0 -42.5 -12t-38.5 -56t-55 -135q-3 -6 -7.5 -7.5t-7.5 3t-1 12.5q42 134 111.5 215.5t164.5 81.5q52 0 79 -29t26.5 -76.5t-14.5 -107.5l-78 -309q-82 -307 112 -307q58 0 112.5 22.5t107 69t97.5 129t75 192.5q15 57 21.5 111.5t3.5 103
t-22.5 78t-54.5 29.5q-19 0 -38 -8.5t-29 -17t-24 -23.5t-17 -17q-6 -6 -6 2q0 3 2 7q33 70 96.5 113.5t130.5 43.5zM305 -395q56 0 106.5 28t94.5 78t90.5 134.5t89 182.5t94.5 236q-99 -117 -233 -172q-82 -45 -138.5 -90.5t-88 -93t-46.5 -84t-28 -88.5
q-13 -58 3.5 -94.5t55.5 -36.5z" />
    <glyph glyph-name="z" unicode="z" horiz-adv-x="915" 
d="M508 -27q-33 0 -171.5 30t-209.5 30q-50 0 -93.5 -15t-69 -30t-32.5 -15q-12 0 -13.5 5.5t5.5 9.5q4 8 65.5 63.5t94.5 83.5l635 598q17 16 14 18.5t-23 -1.5q-6 -1 -9.5 -2t-9.5 -2t-11 -1.5t-12 -1t-13 -0.5q-78 -3 -173.5 17.5t-133.5 15.5q-70 -9 -101.5 -70
t-45.5 -198q0 -9 -7 -11q-5 1 -6 5q-10 181 13 258q19 90 90.5 141t185.5 51q48 0 180.5 -28.5t196.5 -28.5q34 0 67 19.5t40 19.5q11 0 8 -14q-4 -9 -15.5 -21t-24.5 -23.5t-37 -32t-42 -36.5l-680 -621q-9 -7 4 -7q5 0 22 2q38 3 62 3q89 0 205.5 -34.5t165.5 -34.5
q22 0 39.5 15t51.5 73t89 176q4 11 10 9q3 -1 0 -9q-78 -192 -168 -320q-28 -49 -61.5 -67.5t-81.5 -18.5z" />
    <glyph glyph-name="braceleft" unicode="{" horiz-adv-x="659" 
d="M340 -311q-196 0 -251 74.5t-7 218.5q18 55 59 160.5t60 164.5q13 42 20.5 72t13 65t1.5 59t-15 45t-36 31.5t-62 10.5q-11 0 -11 6q2 7 15 8q55 0 95 16.5t69 53.5t48.5 79t41.5 109q20 61 51 176t47 164q96 303 451 303q8 0 9 -5.5t-7 -7.5l-8 -1q-172 0 -258 -272
q-16 -46 -44 -151.5t-44 -154.5q-39 -117 -132.5 -196.5t-197.5 -104.5q-11 -4 -4 -8q51 -6 86.5 -22.5t51 -42.5t23 -53.5t2.5 -62t-11 -60t-17 -56.5q-22 -70 -63 -179t-54 -148q-42 -117 -23.5 -197t105.5 -80q10 0 11 -7t-15 -7z" />
    <glyph glyph-name="bar" unicode="|" horiz-adv-x="229" 
d="M-126 -242l559 1704q6 20 16 22q11 1 6 -20q-1 -1 -1 -2l-557 -1704q-6 -19 -17 -20t-7 16q0 2 1 4z" />
    <glyph glyph-name="braceright" unicode="}" horiz-adv-x="659" 
d="M420 1505q196 0 250 -74.5t6 -218.5q-18 -57 -58 -162.5t-59 -162.5q-21 -65 -29.5 -108.5t-6.5 -87.5t30.5 -66.5t83.5 -22.5q10 0 10 -5q-1 -6 -14 -7q-104 0 -157.5 -62t-96.5 -196q-20 -61 -51 -177t-47 -165q-100 -301 -451 -301q-10 0 -10 7t16 7q169 0 258 270
q13 41 41.5 147.5t46.5 160.5q39 117 132 196.5t198 104.5q6 0 7 3q1 2 -1 2q-2 1 -4 1q-51 6 -85.5 23t-50.5 43.5t-23 53.5t-2.5 62t10.5 59.5t16 55.5q22 68 63.5 176.5t55.5 152.5q42 117 22.5 197t-104.5 80q-10 0 -11 7t15 7z" />
    <glyph glyph-name="asciitilde" unicode="~" horiz-adv-x="655" 
d="M75 414q-12 -16 -18 -8q-3 4 3 10q122 193 269 92l55 -35q54 -34 100.5 -17t106.5 89q4 5 10 7.5t7.5 -1t-5.5 -14.5q-67 -97 -131 -117.5t-135 29.5l-49 32q-62 40 -108 25t-105 -92z" />
    <glyph glyph-name="uni00A0" unicode="&#xa0;" horiz-adv-x="448" 
 />
    <glyph glyph-name="exclamdown" unicode="&#xa1;" horiz-adv-x="446" 
d="M426 1038q57 1 80 -23t4 -61q-18 -35 -65.5 -61t-106.5 -27q-57 -1 -80.5 22.5t-5.5 59.5q18 37 66 63t108 27zM295 655q-47 -162 -89.5 -374t-74 -381t-55.5 -242q-29 -92 -144 -92t-84 92q26 80 191 434.5t240 560.5q4 13 13 10q4 -2 3 -8z" />
    <glyph glyph-name="cent" unicode="&#xa2;" horiz-adv-x="905" 
d="M748 455q-7 -10 -13 -7t4 17q49 90 56 186.5t-28.5 167.5t-102.5 90l-265 -813q57 -26 117 -26q146 0 254 106q11 9 11 1q0 -4 -5 -9q-193 -188 -418 -197l-118 -360q-6 -19 -17 -20t-7 16q0 2 1 4l119 360h-2q-115 0 -193 59t-100.5 164.5t22.5 251.5q66 203 237 347.5
t357 158.5l119 363q6 20 16 22q11 1 6 -20q-1 -1 -1 -2l-119 -361h16q131 0 208 -59t40 -125zM379 106l266 807q-8 2 -24 2q-253 0 -355 -319q-39 -119 -32 -217t44.5 -166.5t100.5 -106.5z" />
    <glyph glyph-name="sterling" unicode="&#xa3;" horiz-adv-x="1126" 
d="M1221 1184q2 -10 -9 -22t-49 -36q-128 -71 -133 -48v5q7 156 -64.5 245t-181.5 89q-72 0 -120 -14.5t-95 -50.5q-67 -51 -116 -199q-22 -63 -16 -128.5t23.5 -108t34 -108t13.5 -126.5h362q9 0 8 -6q-3 -7 -14 -8h-356q-3 -55 -27 -129q-33 -101 -138.5 -226.5
t-244.5 -222.5q303 79 482 43q91 -22 144 -25t107 18.5t107 76.5q17 15 17 5q0 -3 -5 -9q-39 -44 -73.5 -76.5t-86.5 -71.5t-112.5 -60.5t-124.5 -21.5q-74 0 -130.5 17t-90.5 37.5t-71.5 36.5t-94.5 14t-139 -29q-63 -36 -107 -55q-52 -24 -57 -7q-4 15 31 39q19 12 43 21
q115 35 122 37q175 123 246 330q42 132 2 258h-223q-9 0 -6 7t12 7h213q-5 17 -22 63t-23 70.5t-12.5 66t-1.5 83t20 88.5q31 97 95.5 175.5t144 127t165 74t165.5 24.5q70 -1 129.5 -13.5t116.5 -41t94 -83.5t47 -132z" />
    <glyph glyph-name="currency" unicode="&#xa4;" horiz-adv-x="714" 
d="M750 879l-95 -72q48 -74 9 -184q-28 -92 -111 -172l55 -86l-57 -43l-55 86q-94 -62 -193 -62q-86 0 -135 49l-92 -78l-15 25l93 70q-55 78 -15 192q28 95 117 174l-53 78l57 45l51 -80q96 60 189 60q94 0 143 -58l92 78zM553 569q21 71 18.5 134.5t-32 107t-76.5 43.5
q-73 0 -130 -56t-89 -149q-19 -70 -17 -132t33.5 -104t83.5 -42q70 0 125 54.5t84 143.5z" />
    <glyph glyph-name="yen" unicode="&#xa5;" horiz-adv-x="1200" 
d="M1492 1440q7 0 5 -8q-3 -6 -9 -7q-44 -4 -80.5 -36.5t-114.5 -128.5l-534 -660q-16 -21 -19 -29q147 -2 371 -2q12 0 6.5 -14t-18.5 -14q-221 0 -371 2q0 -2 -1 -4.5t-1 -3.5l-70 -222h361q13 0 7.5 -14t-17.5 -14q-216 0 -361 2l-29 -94q-16 -42 -13.5 -73t12 -51.5
t30.5 -33.5t42.5 -19t47.5 -8q11 0 13 -7q-2 -6 -9 -7q-75 6 -102 6h-313q-30 0 -105 -6q-8 0 -7 7t11 7q66 5 112.5 46t78.5 141l30 92q-174 2 -370 2q-14 0 -13 10q6 13 23 16h369l73 220l2 8q-168 2 -360 2q-14 0 -13 11q2 13 16 16l5 1q191 0 357 -2q0 15 -3 27
l-104 639q-16 101 -52 143t-89 45q-11 2 -10 10q3 4 6 5q30 0 84 -6h329q87 6 125 6q9 0 8 -6q0 -7 -14 -9q-198 -8 -168 -190l92 -610q3 -27 27 0l508 635q34 42 36.5 74.5t-22 50.5t-57 28t-72.5 12q-14 0 -14 8q-1 7 8 7q93 -6 125 -6h131q24 0 84 6z" />
    <glyph glyph-name="brokenbar" unicode="&#xa6;" horiz-adv-x="413" 
d="M291 760q104 326 215 653q6 20 18 20t6 -20l-215 -653q-7 -17 -19 -15q-10 2 -5 15zM221 473q-41 -127 -118.5 -361.5t-98.5 -297.5q-6 -20 -20 -19q-11 3 -7 19q22 67 99.5 300.5t118.5 358.5q7 19 20 17q9 -3 6 -17z" />
    <glyph glyph-name="section" unicode="&#xa7;" horiz-adv-x="1058" 
d="M186 -164q-78 0 -149 8q-8 1 -12 7t-3 20t4.5 31.5t11.5 47.5t16 60.5t20.5 78t23.5 93.5q2 10 10 9q6 0 3 -7q-12 -106 -2 -194t36 -107q30 -30 76 -30q65 0 127.5 52t93.5 144q27 79 -2 169.5t-123 266.5q-42 82 -64 135.5t-36.5 112.5t-11 113t23.5 115
q33 101 108 194t176 161t227.5 106.5t254.5 33.5q137 -5 148 -6t14 -13t-3.5 -43t-15.5 -63.5t-26 -97t-31 -121.5q-2 -11 -10 -9q-5 1 -4 7q15 107 7 196.5t-36 106.5q-17 18 -33.5 24.5t-46.5 6.5q-67 0 -130 -48.5t-87 -127.5q-27 -81 1 -171t120 -241q39 -67 56.5 -99
t40 -86t27.5 -92t1 -90t-22 -108q-45 -141 -168.5 -267t-288 -202t-322.5 -76zM438 -96q60 24 119.5 57t121 79.5t109.5 110t70 132.5q17 50 19 92t-13 97.5t-45 119t-86 164.5q-85 162 -120 274.5t-9 192.5q33 97 137 174q-142 -40 -257.5 -132.5t-153.5 -209.5
q-16 -47 -19.5 -93t1.5 -85.5t25 -94t40.5 -99.5t58.5 -120q95 -186 128 -288t7 -181q-41 -125 -133 -190z" />
    <glyph glyph-name="dieresis" unicode="&#xa8;" horiz-adv-x="706" 
d="M403 1102q-40 0 -60.5 24t-8.5 58q12 39 53.5 66.5t91.5 27.5q41 0 61.5 -24.5t8.5 -57.5q-14 -39 -55 -66.5t-91 -27.5zM700 1102q-41 0 -62 24t-9 58q14 39 55.5 66.5t91.5 27.5q41 0 61.5 -24.5t8.5 -57.5q-14 -39 -55 -66.5t-91 -27.5z" />
    <glyph glyph-name="copyright" unicode="&#xa9;" horiz-adv-x="1427" 
d="M510 -25q-170 0 -277 93t-128.5 252t42.5 370q47 144 141.5 281.5t216.5 244.5t272 172.5t296 65.5q129 0 224 -54t142 -148.5t51.5 -224t-46.5 -279.5q-48 -147 -142.5 -286.5t-217 -247.5t-273.5 -173.5t-301 -65.5zM557 27q285 0 509 194.5t337 538.5q47 137 39 254.5
t-56 204t-141.5 135.5t-218.5 49q-278 0 -499.5 -192t-329.5 -521q-35 -109 -41.5 -209.5t18 -182.5t74 -143t129 -94.5t180.5 -33.5zM653 244q-109 0 -183 56t-95 157.5t22 242.5q44 135 140.5 247.5t218.5 176.5t243 64q83 0 146 -28.5t82.5 -73t-10.5 -99.5l-154 -239
q-5 -9 -8.5 -6.5t0.5 12.5q71 184 35 284.5t-160 100.5q-249 0 -348 -308q-50 -155 -27 -264t92 -167t164 -58q151 0 258 98q10 6 10 1q-1 -4 -6 -9q-104 -98 -205.5 -143t-214.5 -45z" />
    <glyph glyph-name="ordfeminine" unicode="&#xaa;" horiz-adv-x="600" 
d="M768 1118q4 8 10 7q4 -1 2 -7q-30 -91 -78.5 -139.5t-87.5 -48.5q-37 0 -49 27.5t-6 84.5l6 41q-43 -70 -101.5 -111.5t-115.5 -41.5q-79 0 -104.5 51t-3.5 121q19 58 81.5 93.5t141.5 35.5q65 0 119 -12l14 104q12 107 -92 107q-61 0 -116 -41.5t-81 -120.5
q-4 -10 -11 -8q-5 1 -1 8q30 95 110 145.5t164 50.5q85 0 113 -36t18 -113l-32 -256q-13 -64 14 -64q19 0 42.5 29t43.5 94zM561 1114q7 10 10 23l9 57q-68 14 -99 14q-64 0 -93.5 -18.5t-49.5 -71.5q-10 -36 -9.5 -65t21.5 -47.5t60 -18.5q105 0 151 127zM653 879
q13 0 9 -12q-4 -11 -15 -11h-461q-13 0 -8 12q4 11 15 11h460z" />
    <glyph glyph-name="guillemotleft" unicode="&#xab;" horiz-adv-x="804" 
d="M174 561l188 -420q8 -20 0 -29t-53 -26q-55 -19 -76 -20.5t-24 10.5l-154 370q-7 14 -2 29l10 35q5 21 35 41l545 428q6 6 14 6q15 0 -2 -14l-479 -375l12 6q-22 -19 -14 -41zM963 985q15 0 -2 -14l-480 -375l13 6q-23 -20 -15 -41l189 -420q8 -21 -0.5 -29.5
t-53.5 -25.5q-55 -19 -76 -20.5t-24 10.5l-154 370q-7 14 -2 29l11 35q6 22 34 41l545 428q6 6 15 6z" />
    <glyph glyph-name="logicalnot" unicode="&#xac;" horiz-adv-x="917" 
d="M104 479q-21 0 -20 13q9 15 31 18h727q18 0 10 -23l-94 -292q-9 -26 -23 -28q-8 -1 -9 9q-1 8 3 19l92 284h-717z" />
    <glyph glyph-name="uni00AD" unicode="&#xad;" horiz-adv-x="522" 
d="M455 502h-361q-10 0 -10 6q-1 8 14 8h361q10 0 10 -6q1 -8 -14 -8z" />
    <glyph glyph-name="registered" unicode="&#xae;" horiz-adv-x="993" 
d="M471 479q-170 0 -237.5 133.5t-0.5 337.5q31 95 93.5 186t143 161.5t179 113.5t193.5 43q115 0 187 -62t86.5 -165t-25.5 -238q-31 -97 -94 -189t-144.5 -163.5t-181.5 -114.5t-199 -43zM504 518q187 0 334 127.5t219 349.5q57 179 -13 299.5t-235 120.5
q-179 0 -323.5 -125.5t-213.5 -339.5q-59 -182 5.5 -307t226.5 -125zM524 1257q-6 0 0 7l4 2q20 -2 41 -2q19 0 81 1t93 1q106 0 152.5 -43.5t24.5 -110.5q-47 -139 -213 -160q51 -4 75 -22.5t17 -71.5q-4 -52 -8 -78q-7 -69 53 -73q3 -3 2 -7l-39 2h-113q-4 0 -6 2t-2 4v3
q8 90 14 141q6 55 -7 74t-48 22q-9 0 -24 1t-23 1q-3 0 -2 2t4 2q93 5 142 40t77 118q21 63 -1 100.5t-85 40.5q-50 1 -64 -4.5t-20 -25.5l-143 -445q-22 -67 47 -71q7 -2 4 -6q0 -1 -2 -1l-41 2h-139l-41 -2q-6 0 -2 5l4 2q26 2 44.5 17.5t29.5 53.5l135 410
q13 35 8.5 51.5t-29.5 17.5z" />
    <glyph glyph-name="macron" unicode="&#xaf;" horiz-adv-x="1105" 
d="M1037 1149h-471q-13 0 -12 9q2 10 18 11h471q15 0 15 -9q-3 -10 -21 -11z" />
    <glyph glyph-name="degree" unicode="&#xb0;" horiz-adv-x="538" 
d="M473 1133q-70 0 -105 45t-12 116q23 69 95 122t151 52q71 -2 107.5 -45.5t15.5 -113.5q-24 -70 -98 -123t-154 -53zM530 1159q72 0 103 90q11 43 6.5 86t-28 76t-56.5 33q-73 0 -102 -90q-21 -63 2 -129t75 -66z" />
    <glyph glyph-name="plusminus" unicode="&#xb1;" horiz-adv-x="741" 
d="M289 231l88 269q5 16 -4 16h-246q-21 0 -20 13q8 15 30 18h244q12 0 18 22l86 269q9 26 23 28q8 1 10 -9q1 -8 -2 -19l-88 -269q-6 -22 2 -22h244q14 0 14 -12q0 -14 -17 -18q-4 -1 -9 -1h-242q-9 0 -14 -16l-89 -269q-9 -27 -22.5 -27t-5.5 27zM-35 49q-19 0 -22 5
q-1 2 5 4q7 3 23 3h535q21 0 20 -6t-24 -6h-537z" />
    <glyph glyph-name="acute" unicode="&#xb4;" horiz-adv-x="624" 
d="M216 1040q-10 0 -6 10q2 5 8 9q84 57 144 118t83 99t45 64t44 28q39 6 83.5 3t40.5 -15q-8 -28 -107.5 -105t-204 -142.5t-130.5 -68.5z" />
    <glyph glyph-name="paragraph" unicode="&#xb6;" horiz-adv-x="1046" 
d="M119 -315q62 -8 111 8t79 40.5t59 79t42 90.5t36 107l205 627h-112q-162 0 -230.5 115t-13.5 286q55 167 197.5 281.5t304.5 114.5h413l-395 -1217q-21 -65 -44.5 -120t-57.5 -113.5t-74.5 -104.5t-95.5 -88t-119 -69.5t-146.5 -43t-177.5 -14.5q-13 0 -5 10q10 13 24 11
zM559 51q-39 -125 -113 -224.5t-174 -135.5q78 15 140 47.5t103 71t75 95t54 106t42 118.5l422 1290h-102z" />
    <glyph glyph-name="periodcentered" unicode="&#xb7;" horiz-adv-x="344" 
d="M131 385q-57 -1 -80 23t-4 61q18 36 65.5 61.5t108.5 28.5q55 0 78 -23.5t8 -58.5q-19 -37 -67.5 -63t-108.5 -29z" />
    <glyph glyph-name="cedilla" unicode="&#xb8;" horiz-adv-x="684" 
d="M4 -422q-66 0 -111.5 22.5t-35.5 61.5q3 13 25 35t36 22q11 0 19.5 -17.5t16.5 -38.5t32.5 -38.5t62.5 -17.5q44 0 73.5 16t35.5 41q11 35 -33 73.5t-143 72.5l159 190h21q-49 -51 -96 -119q88 -27 123.5 -69t21.5 -91q-14 -58 -72 -100.5t-135 -42.5z" />
    <glyph glyph-name="ordmasculine" unicode="&#xba;" horiz-adv-x="567" 
d="M414 930q-103 0 -147.5 71.5t-6.5 186.5q38 120 138.5 198t213.5 78q104 0 151 -72.5t11 -185.5q-39 -122 -141.5 -199t-218.5 -77zM471 961q135 0 188 163q19 71 17 139.5t-34.5 119.5t-84.5 51q-131 0 -184 -166q-19 -69 -17.5 -137t33 -119t82.5 -51zM178 879h461
q13 0 9 -12q-4 -11 -15 -11h-463q-13 0 -8 12q5 11 16 11z" />
    <glyph glyph-name="guillemotright" unicode="&#xbb;" horiz-adv-x="776" 
d="M451 535q-7 -20 -35 -37l-531 -430q-5 -5 -12 -5q-18 0 0 15l467 377l-6 -4q26 20 12 38l-194 383q-3 8 -4 15.5t14 17.5t49 23q50 14 67 14.5t19 -10.5l162 -324q6 -21 4 -35zM731 608q6 -21 4 -35l-12 -38q-7 -20 -35 -37l-530 -430q-5 -5 -13 -5q-18 0 0 15l467 377
l-6 -4q26 20 12 38l-194 383q-3 8 -4 15.5t14 17.5t49 23q50 14 67 14.5t19 -10.5z" />
    <glyph glyph-name="questiondown" unicode="&#xbf;" horiz-adv-x="974" 
d="M778 1042q57 1 79.5 -22.5t4.5 -61.5q-18 -35 -66.5 -61t-107.5 -27q-57 -1 -80.5 22.5t-5.5 59.5q20 37 67.5 63t108.5 27zM641 670q-21 -77 -55 -142t-73 -111t-83 -87.5t-88 -80.5t-83 -79.5t-73 -95t-55 -117.5q-50 -154 0.5 -242t175.5 -88q133 0 248 79t190 241
q8 23 20 23q11 0 6 -17q0 -2 -1 -4q-82 -168 -247 -277.5t-330 -109.5q-174 0 -259 105.5t-28 277.5q26 79 73 141.5t104 103.5t121 77.5t127.5 73t120.5 78.5t104 106t73 145q4 8 10 6q4 -1 2 -6z" />
    <glyph glyph-name="Agrave" unicode="&#xc0;" horiz-adv-x="1388" 
d="M1070 1516q-25 0 -103.5 45.5t-146 102t-61.5 81.5q5 22 72.5 30t74.5 -1q9 -11 24.5 -49.5t51 -87t100.5 -103.5q6 -4 2 -10.5t-14 -7.5zM1213 8q10 0 10 -8q0 -6 -5 -6q-60 6 -80 6h-326q-36 0 -129 -6q-8 0 -8 6q-1 8 14 8q41 3 72.5 12t60 29.5t42.5 59.5t11 94
l-14 278q-8 18 -45 2q-135 -62 -291 -99.5t-297 -45.5q-41 -3 -63 -35l-4 -6l-2 -2l-80 -115q-25 -37 -29.5 -66t8 -47.5t37.5 -31.5t53.5 -19t61.5 -8q15 0 14 -8q0 -6 -8 -6q-99 6 -133 6h-129q-26 0 -80 -6q-8 0 -6 8q2 6 8 6q44 4 79.5 39t102.5 131l736 1053
q21 35 24 72l-4 96q3 19 -16 26q-6 3 3 7l9 2h192q23 0 23 -21l66 -1216q6 -100 38 -142t84 -47zM816 500q33 16 41 47l-35 702l-602 -866q-7 -12 -3 -22.5t17 -10.5q142 9 295.5 48t286.5 102z" />
    <glyph glyph-name="Aacute" unicode="&#xc1;" horiz-adv-x="1388" 
d="M906 1516q-10 1 -14 7.5t2 10.5q65 55 100.5 103.5t51 87t24.5 49.5q7 9 75 1t73 -30q6 -25 -62 -81.5t-146.5 -102t-103.5 -45.5zM1213 8q10 0 10 -8q0 -6 -5 -6q-60 6 -80 6h-326q-36 0 -129 -6q-8 0 -8 6q-1 8 14 8q41 3 72.5 12t60 29.5t42.5 59.5t11 94l-14 278
q-8 18 -45 2q-135 -62 -291 -99.5t-297 -45.5q-41 -3 -63 -35l-4 -6l-2 -2l-80 -115q-25 -37 -29.5 -66t8 -47.5t37.5 -31.5t53.5 -19t61.5 -8q15 0 14 -8q0 -6 -8 -6q-99 6 -133 6h-129q-26 0 -80 -6q-8 0 -6 8q2 6 8 6q44 4 79.5 39t102.5 131l736 1053q21 35 24 72l-4 96
q3 19 -16 26q-6 3 3 7l9 2h192q23 0 23 -21l66 -1216q6 -100 38 -142t84 -47zM816 500q33 16 41 47l-35 702l-602 -866q-7 -12 -3 -22.5t17 -10.5q142 9 295.5 48t286.5 102z" />
    <glyph glyph-name="Acircumflex" unicode="&#xc2;" horiz-adv-x="1388" 
d="M1299 1526q4 -2 4.5 -6t-3 -7t-9.5 -2q-46 5 -109.5 69t-80.5 126q-63 -63 -176 -127.5t-164 -67.5q-7 -1 -7 5q2 6 9 10q66 29 117 67t78.5 70t52 60.5t52.5 44.5t66 16t55 -15.5t20.5 -43.5t7 -59.5t24.5 -70.5t63 -69zM1213 8q10 0 10 -8q0 -6 -5 -6q-60 6 -80 6h-326
q-36 0 -129 -6q-8 0 -8 6q-1 8 14 8q41 3 72.5 12t60 29.5t42.5 59.5t11 94l-14 278q-8 18 -45 2q-135 -62 -291 -99.5t-297 -45.5q-41 -3 -63 -35l-4 -6l-2 -2l-80 -115q-25 -37 -29.5 -66t8 -47.5t37.5 -31.5t53.5 -19t61.5 -8q15 0 14 -8q0 -6 -8 -6q-99 6 -133 6h-129
q-26 0 -80 -6q-8 0 -6 8q2 6 8 6q44 4 79.5 39t102.5 131l736 1053q21 35 24 72l-4 96q3 19 -16 26q-6 3 3 7l9 2h192q23 0 23 -21l66 -1216q6 -100 38 -142t84 -47zM816 500q33 16 41 47l-35 702l-602 -866q-7 -12 -3 -22.5t17 -10.5q142 9 295.5 48t286.5 102z" />
    <glyph glyph-name="Atilde" unicode="&#xc3;" horiz-adv-x="1388" 
d="M1365 1726q11 13 16 10q4 -2 -4 -14q-82 -128 -165 -164.5t-183 13.5l-72 33q-74 45 -126.5 34t-102.5 -92q-10 -16 -16 -11q-3 2 4 13q57 91 116.5 135.5t116 43.5t117.5 -29l65 -33q134 -67 234 61zM1213 8q10 0 10 -8q0 -6 -5 -6q-60 6 -80 6h-326q-36 0 -129 -6
q-8 0 -8 6q-1 8 14 8q41 3 72.5 12t60 29.5t42.5 59.5t11 94l-14 278q-8 18 -45 2q-135 -62 -291 -99.5t-297 -45.5q-41 -3 -63 -35l-4 -6l-2 -2l-80 -115q-25 -37 -29.5 -66t8 -47.5t37.5 -31.5t53.5 -19t61.5 -8q15 0 14 -8q0 -6 -8 -6q-99 6 -133 6h-129q-26 0 -80 -6
q-8 0 -6 8q2 6 8 6q44 4 79.5 39t102.5 131l736 1053q21 35 24 72l-4 96q3 19 -16 26q-6 3 3 7l9 2h192q23 0 23 -21l66 -1216q6 -100 38 -142t84 -47zM816 500q33 16 41 47l-35 702l-602 -866q-7 -12 -3 -22.5t17 -10.5q142 9 295.5 48t286.5 102z" />
    <glyph glyph-name="Adieresis" unicode="&#xc4;" horiz-adv-x="1388" 
d="M878 1546q-41 0 -62.5 24t-9.5 58q14 39 55.5 66.5t91.5 27.5q41 0 61.5 -24.5t8.5 -57.5q-14 -39 -54.5 -66.5t-90.5 -27.5zM1248 1722q41 0 61.5 -24.5t8.5 -57.5q-12 -39 -53.5 -66.5t-92.5 -27.5q-40 0 -60.5 24t-8.5 58q14 39 54.5 66.5t90.5 27.5zM1213 8
q10 0 10 -8q0 -6 -5 -6q-60 6 -80 6h-326q-36 0 -129 -6q-8 0 -8 6q-1 8 14 8q41 3 72.5 12t60 29.5t42.5 59.5t11 94l-14 278q-8 18 -45 2q-135 -62 -291 -99.5t-297 -45.5q-41 -3 -63 -35l-4 -6l-2 -2l-80 -115q-25 -37 -29.5 -66t8 -47.5t37.5 -31.5t53.5 -19t61.5 -8
q15 0 14 -8q0 -6 -8 -6q-99 6 -133 6h-129q-26 0 -80 -6q-8 0 -6 8q2 6 8 6q44 4 79.5 39t102.5 131l736 1053q21 35 24 72l-4 96q3 19 -16 26q-6 3 3 7l9 2h192q23 0 23 -21l66 -1216q6 -100 38 -142t84 -47zM816 500q33 16 41 47l-35 702l-602 -866q-7 -12 -3 -22.5
t17 -10.5q142 9 295.5 48t286.5 102z" />
    <glyph glyph-name="Aring" unicode="&#xc5;" horiz-adv-x="1388" 
d="M1107 1782q70 -2 105 -41.5t14 -100.5q-22 -63 -94 -110t-150 -47q-68 0 -102 40.5t-11 104.5q23 61 93 108t145 46zM1136 1587q21 56 -2.5 114t-71.5 58q-71 0 -100 -80q-20 -56 2.5 -114t72.5 -58q70 0 99 80zM1213 8q10 0 10 -8q0 -6 -5 -6q-60 6 -80 6h-326
q-36 0 -129 -6q-8 0 -8 6q-1 8 14 8q41 3 72.5 12t60 29.5t42.5 59.5t11 94l-14 278q-8 18 -45 2q-135 -62 -291 -99.5t-297 -45.5q-41 -3 -63 -35l-4 -6l-2 -2l-80 -115q-25 -37 -29.5 -66t8 -47.5t37.5 -31.5t53.5 -19t61.5 -8q15 0 14 -8q0 -6 -8 -6q-99 6 -133 6h-129
q-26 0 -80 -6q-8 0 -6 8q2 6 8 6q44 4 79.5 39t102.5 131l736 1053q21 35 24 72l-4 96q3 19 -16 26q-6 3 3 7l9 2h192q23 0 23 -21l66 -1216q6 -100 38 -142t84 -47zM816 500q33 16 41 47l-35 702l-602 -866q-7 -12 -3 -22.5t17 -10.5q142 9 295.5 48t286.5 102z" />
    <glyph glyph-name="AE" unicode="&#xc6;" horiz-adv-x="1886" 
d="M2035 1456q32 0 18 -47q-66 -233 -119 -494q-1 -14 -5.5 -13t-4.5 11q15 137 17 223t-5 122.5t-22 64.5q-33 59 -130 77.5t-302 18.5q-48 0 -70 -67l-172 -533q-8 -17 -3.5 -34t24.5 -17q139 0 176 6q49 8 93.5 50t115.5 163q6 12 11 10q1 -4 -1 -10q-49 -104 -89.5 -239
t-56.5 -240q-1 -8 -4 -10.5t-5.5 1t-2.5 11.5q6 126 -10.5 176.5t-59.5 61.5q-53 6 -172 6q-36 0 -55 -56l-190 -587q-35 -97 26 -97q212 0 341 24t200 79q63 47 125.5 138.5t144.5 256.5q11 23 17 21q4 -1 -4 -17q-102 -215 -201 -493q-10 -28 -20.5 -37t-26.5 -9
q-13 -1 -45 4.5t-103 12t-172 6.5h-547q-29 0 -104 -6q-8 0 -7 7t11 7q66 5 112.5 46t78.5 141l110 337q-10 13 -51 -10q-248 -119 -496 -88q-25 4 -55 -20l-231 -246q-38 -39 -42 -70.5t19.5 -49.5t56.5 -28t72 -12q15 0 14 -8q0 -6 -8 -6q-93 6 -125 6h-135q-30 0 -90 -6
q-8 0 -7.5 7t9.5 7q34 3 67.5 24t58 45t87.5 91l1055 1116q27 32 41 62q-20 71 -129 79q-12 0 -13 8q0 7 7 7q81 -6 104 -6h576q104 0 202 11t101 11zM966 594l174 532q30 106 39 160q1 7 -3.5 8.5t-9.5 -4.5l-770 -821q-10 -20 13 -23q234 -28 487 89q51 26 70 59z" />
    <glyph glyph-name="Ccedilla" unicode="&#xc7;" horiz-adv-x="1271" 
d="M1147 719q-5 -9 -10.5 -7.5t0.5 11.5q73 119 101.5 238t14.5 213q-13 113 -79 174t-164 61q-217 0 -385.5 -176.5t-249.5 -472.5q-40 -171 -29 -296t65.5 -207.5t133 -123t174.5 -41.5q56 -1 121.5 10.5t161 56t174.5 117.5q17 14 16.5 6t-12.5 -18
q-161 -150 -318.5 -222.5t-326.5 -72.5q-29 0 -41 2q-42 -49 -70 -90q88 -27 123.5 -69t21.5 -91q-14 -58 -72 -100.5t-135 -42.5q-66 0 -111.5 22.5t-35.5 61.5q3 13 25 35t36 22q11 0 20 -17.5t16.5 -38.5t32.5 -38.5t63 -17.5q43 0 72.5 16t35.5 41q11 35 -33 73.5
t-143 72.5l137 161q-150 17 -247 110.5t-120.5 248.5t40.5 362q52 163 155.5 307.5t231 245.5t274.5 159t287 58q77 0 145 -18t113 -48t75 -68t32 -79t-17 -80z" />
    <glyph glyph-name="Egrave" unicode="&#xc8;" horiz-adv-x="1167" 
d="M971 1516q-25 0 -103.5 45.5t-146.5 102t-62 81.5q5 22 73 30t75 -1q9 -11 24.5 -49.5t51 -87t100.5 -103.5q6 -4 2 -10.5t-14 -7.5zM27 0q-30 0 -105 -6q-8 0 -7 7t11 7q66 5 112.5 46t78.5 141l340 1046q16 42 13.5 73t-12 51t-30.5 33t-42.5 19t-47.5 8q-12 0 -13 8
q0 7 7 7q81 -6 104 -6h576q104 0 202 11t101 11q32 0 18 -47q-66 -233 -119 -494q-1 -14 -5.5 -13t-4.5 11q15 137 17 223t-5 122.5t-22 64.5q-33 59 -129.5 77.5t-302.5 18.5q-48 0 -70 -67l-172 -533q-8 -17 -3.5 -34t24.5 -17q139 0 176 6q49 8 93.5 50t115.5 163
q6 12 11 10q1 -4 -1 -10q-49 -103 -89 -238t-56 -241q-1 -8 -4 -10.5t-6 1t-3 11.5q6 126 -10 176.5t-59 61.5q-52 6 -172 6q-37 0 -56 -56l-190 -587q-35 -97 24 -97q213 0 342.5 24t200.5 79q63 47 125.5 138.5t144.5 256.5q11 23 17 21q4 -1 -4 -17q-102 -215 -201 -493
q-10 -28 -20.5 -37t-26.5 -9q-13 -1 -45 4.5t-103 12t-172 6.5h-546z" />
    <glyph glyph-name="Eacute" unicode="&#xc9;" horiz-adv-x="1167" 
d="M805 1516q-10 1 -14 7.5t2 10.5q65 55 100.5 103.5t51 87t24.5 49.5q7 9 74.5 1t72.5 -30q6 -25 -61.5 -81.5t-146 -102t-103.5 -45.5zM27 0q-30 0 -105 -6q-8 0 -7 7t11 7q66 5 112.5 46t78.5 141l340 1046q16 42 13.5 73t-12 51t-30.5 33t-42.5 19t-47.5 8q-12 0 -13 8
q0 7 7 7q81 -6 104 -6h576q104 0 202 11t101 11q32 0 18 -47q-66 -233 -119 -494q-1 -14 -5.5 -13t-4.5 11q15 137 17 223t-5 122.5t-22 64.5q-33 59 -129.5 77.5t-302.5 18.5q-48 0 -70 -67l-172 -533q-8 -17 -3.5 -34t24.5 -17q139 0 176 6q49 8 93.5 50t115.5 163
q6 12 11 10q1 -4 -1 -10q-49 -103 -89 -238t-56 -241q-1 -8 -4 -10.5t-6 1t-3 11.5q6 126 -10 176.5t-59 61.5q-52 6 -172 6q-37 0 -56 -56l-190 -587q-35 -97 24 -97q213 0 342.5 24t200.5 79q63 47 125.5 138.5t144.5 256.5q11 23 17 21q4 -1 -4 -17q-102 -215 -201 -493
q-10 -28 -20.5 -37t-26.5 -9q-13 -1 -45 4.5t-103 12t-172 6.5h-546z" />
    <glyph glyph-name="Ecircumflex" unicode="&#xca;" horiz-adv-x="1167" 
d="M659 1511q-6 -1 -6 3q1 8 9 12q66 29 117 67t78.5 70t52 60.5t52.5 44.5t66 16t55 -15.5t20.5 -43.5t7 -59.5t24.5 -70.5t63 -69q4 -2 4.5 -6t-3 -7t-9.5 -2q-46 5 -110 69t-81 126q-63 -63 -176 -127.5t-164 -67.5zM1315 1456q32 0 18 -47q-66 -233 -119 -494
q-1 -14 -5.5 -13t-4.5 11q15 137 17 223t-5 122.5t-22 64.5q-33 59 -129.5 77.5t-302.5 18.5q-48 0 -70 -67l-172 -533q-8 -17 -3.5 -34t24.5 -17q139 0 176 6q49 8 93.5 50t115.5 163q6 12 11 10q1 -4 -1 -10q-49 -103 -89 -238t-56 -241q-1 -8 -4 -10.5t-6 1t-3 11.5
q6 126 -10 176.5t-59 61.5q-52 6 -172 6q-37 0 -56 -56l-190 -587q-35 -97 24 -97q213 0 342.5 24t200.5 79q63 47 125.5 138.5t144.5 256.5q11 23 17 21q4 -1 -4 -17q-102 -215 -201 -493q-10 -28 -20.5 -37t-26.5 -9q-13 -1 -45 4.5t-103 12t-172 6.5h-546q-30 0 -105 -6
q-8 0 -7 7t11 7q66 5 112.5 46t78.5 141l340 1046q16 42 13.5 73t-12 51t-30.5 33t-42.5 19t-47.5 8q-12 0 -13 8q0 7 7 7q81 -6 104 -6h576q104 0 202 11t101 11z" />
    <glyph glyph-name="Edieresis" unicode="&#xcb;" horiz-adv-x="1167" 
d="M776 1546q-41 0 -62 24t-9 58q14 39 55.5 66.5t91.5 27.5q41 0 61.5 -24.5t8.5 -57.5q-14 -39 -55 -66.5t-91 -27.5zM1071 1546q-40 0 -61 24t-9 58q14 39 55 66.5t91 27.5q41 0 61.5 -24.5t8.5 -57.5q-12 -39 -53.5 -66.5t-92.5 -27.5zM27 0q-30 0 -105 -6q-8 0 -7 7
t11 7q66 5 112.5 46t78.5 141l340 1046q16 42 13.5 73t-12 51t-30.5 33t-42.5 19t-47.5 8q-12 0 -13 8q0 7 7 7q81 -6 104 -6h576q104 0 202 11t101 11q32 0 18 -47q-66 -233 -119 -494q-1 -14 -5.5 -13t-4.5 11q15 137 17 223t-5 122.5t-22 64.5q-33 59 -129.5 77.5
t-302.5 18.5q-48 0 -70 -67l-172 -533q-8 -17 -3.5 -34t24.5 -17q139 0 176 6q49 8 93.5 50t115.5 163q6 12 11 10q1 -4 -1 -10q-49 -103 -89 -238t-56 -241q-1 -8 -4 -10.5t-6 1t-3 11.5q6 126 -10 176.5t-59 61.5q-52 6 -172 6q-37 0 -56 -56l-190 -587q-35 -97 24 -97
q213 0 342.5 24t200.5 79q63 47 125.5 138.5t144.5 256.5q11 23 17 21q4 -1 -4 -17q-102 -215 -201 -493q-10 -28 -20.5 -37t-26.5 -9q-13 -1 -45 4.5t-103 12t-172 6.5h-546z" />
    <glyph glyph-name="Igrave" unicode="&#xcc;" horiz-adv-x="610" 
d="M713 1516q-25 0 -103.5 45.5t-146.5 102t-62 81.5q5 22 73 30t75 -1q9 -11 24.5 -49.5t51 -87t100.5 -103.5q6 -4 2 -10.5t-14 -7.5zM457 1241q16 42 13.5 73t-12 51t-30.5 33t-42.5 19t-47.5 8q-12 0 -13 8q0 7 7 7q81 -6 104 -6h314q23 0 104 6q7 0 7 -7q-1 -8 -13 -8
q-66 -5 -112 -45t-79 -141l-338 -1046q-16 -42 -13.5 -73t12 -51.5t30.5 -33.5t42.5 -19t47.5 -8q11 0 11.5 -7t-7.5 -7q-75 6 -102 6h-313q-30 0 -105 -6q-8 0 -7 7t11 7q66 5 112.5 46t78.5 141z" />
    <glyph glyph-name="Iacute" unicode="&#xcd;" horiz-adv-x="610" 
d="M547 1516q-10 1 -14 7.5t2 10.5q65 55 100.5 103.5t51 87t24.5 49.5q7 9 74.5 1t72.5 -30q6 -25 -61.5 -81.5t-146 -102t-103.5 -45.5zM457 1241q16 42 13.5 73t-12 51t-30.5 33t-42.5 19t-47.5 8q-12 0 -13 8q0 7 7 7q81 -6 104 -6h314q23 0 104 6q7 0 7 -7
q-1 -8 -13 -8q-66 -5 -112 -45t-79 -141l-338 -1046q-16 -42 -13.5 -73t12 -51.5t30.5 -33.5t42.5 -19t47.5 -8q11 0 11.5 -7t-7.5 -7q-75 6 -102 6h-313q-30 0 -105 -6q-8 0 -7 7t11 7q66 5 112.5 46t78.5 141z" />
    <glyph glyph-name="Icircumflex" unicode="&#xce;" horiz-adv-x="610" 
d="M942 1526q4 -2 4.5 -6t-3 -7t-9.5 -2q-46 5 -110 69t-81 126q-63 -63 -176 -127.5t-164 -67.5q-6 -1 -6 3q1 8 9 12q66 29 117 67t78.5 70t52 60.5t52.5 44.5t66 16t55 -15.5t20.5 -43.5t7 -59.5t24.5 -70.5t63 -69zM854 1440q7 0 7 -7q-1 -8 -13 -8q-66 -5 -112 -45
t-79 -141l-338 -1046q-16 -42 -13.5 -73t12 -51.5t30.5 -33.5t42.5 -19t47.5 -8q11 0 11.5 -7t-7.5 -7q-75 6 -102 6h-313q-30 0 -105 -6q-8 0 -7 7t11 7q66 5 112.5 46t78.5 141l340 1046q16 42 13.5 73t-12 51t-30.5 33t-42.5 19t-47.5 8q-12 0 -13 8q0 7 7 7
q81 -6 104 -6h314q23 0 104 6z" />
    <glyph glyph-name="Idieresis" unicode="&#xcf;" horiz-adv-x="610" 
d="M520 1546q-41 0 -62 24t-9 58q14 39 55.5 66.5t91.5 27.5q41 0 61.5 -24.5t8.5 -57.5q-14 -39 -55 -66.5t-91 -27.5zM815 1546q-40 0 -61 24t-9 58q14 39 55 66.5t91 27.5q41 0 61.5 -24.5t8.5 -57.5q-12 -39 -53.5 -66.5t-92.5 -27.5zM457 1241q16 42 13.5 73t-12 51
t-30.5 33t-42.5 19t-47.5 8q-12 0 -13 8q0 7 7 7q81 -6 104 -6h314q23 0 104 6q7 0 7 -7q-1 -8 -13 -8q-66 -5 -112 -45t-79 -141l-338 -1046q-16 -42 -13.5 -73t12 -51.5t30.5 -33.5t42.5 -19t47.5 -8q11 0 11.5 -7t-7.5 -7q-75 6 -102 6h-313q-30 0 -105 -6q-8 0 -7 7
t11 7q66 5 112.5 46t78.5 141z" />
    <glyph glyph-name="Eth" unicode="&#xd0;" horiz-adv-x="1359" 
d="M824 1442q164 0 284 -35t189.5 -97.5t100 -153t22.5 -198t-49 -235.5q-69 -210 -202 -373.5t-329 -261.5t-423 -98q-52 0 -111 1.5t-141.5 4.5t-138.5 4q-12 -1 -51.5 -3t-51.5 -3q-6 0 -7 5q-1 7 11 9q65 3 112 44t79 141l168 516h-138q-11 0 -6 9q3 7 11 7h137l168 514
q15 54 12.5 88.5t-25.5 55t-49 29t-59 9.5q-11 2 -11 9q2 5 7 6q13 0 52 -2t50 -2q95 2 225.5 6t163.5 4zM1154 692q38 119 50.5 225.5t-5 200.5t-66.5 161.5t-140 106.5t-218 39q-34 0 -53 -22t-31 -60l-201 -618h353q9 0 5 -9q-3 -7 -9 -7h-355l-198 -613
q-20 -47 -2.5 -68.5t94.5 -21.5q145 0 270.5 53t220.5 148t166 216.5t119 268.5z" />
    <glyph glyph-name="Ntilde" unicode="&#xd1;" horiz-adv-x="1331" 
d="M772 1546q-10 -16 -16 -11q-3 2 4 13q57 91 116.5 135.5t116 43.5t117.5 -29l66 -33q133 -67 233 61q11 13 16 10q4 -2 -4 -14q-82 -128 -165 -164.5t-183 13.5l-72 33q-74 45 -126.5 34t-102.5 -92zM1636 1440q7 0 7 -7q-1 -8 -13 -8q-66 -5 -111.5 -45t-78.5 -141
l-406 -1241q-4 -14 -14 -14q-9 0 -14 14l-496 1307q-3 8 -10 8q-6 0 -13 -13l-356 -1107q-15 -53 -12.5 -88t24.5 -56t48 -30t59 -11q12 -2 11 -9q-1 -5 -7 -5q-29 0 -104 6h-132q-75 -6 -102 -6q-8 0 -7.5 6.5t11.5 7.5q65 3 111.5 44.5t79.5 142.5l376 1146
q-65 81 -149 84q-12 2 -13 9q2 5 7 6q29 0 104 -6h232q35 0 45 -25l383 -1106q3 -12 10 -12q8 0 12 16l301 934q15 42 12.5 73t-12.5 51t-31 33t-42.5 19t-47.5 8q-11 0 -11 8q0 7 7 7q75 -6 105 -6h133q23 0 104 6z" />
    <glyph glyph-name="Ograve" unicode="&#xd2;" horiz-adv-x="1521" 
d="M1165 1516q-25 0 -103.5 45.5t-146 102t-61.5 81.5q5 22 72.5 30t74.5 -1q8 -11 24.5 -49.5t52 -87t100.5 -103.5q6 -4 1.5 -10.5t-14.5 -7.5zM553 -31q-138 0 -240 53.5t-154 149.5t-58.5 228t46.5 290q49 152 149 293t228 247t284 169t310 63q141 0 246 -54t158.5 -150
t61.5 -227t-44 -286q-50 -154 -150 -295.5t-229 -248t-288.5 -169.5t-319.5 -63zM696 20q110 0 211.5 57.5t180 156.5t139 225.5t98.5 271.5q22 113 24 214t-23.5 186.5t-70 147.5t-114.5 97t-158 35q-108 0 -207.5 -57t-176.5 -155t-136 -221.5t-96 -264.5
q-25 -112 -27 -215t20 -190t65 -151.5t112.5 -100.5t158.5 -36z" />
    <glyph glyph-name="Oacute" unicode="&#xd3;" horiz-adv-x="1521" 
d="M999 1516q-10 1 -14 7.5t2 10.5q65 55 100.5 103.5t51 87t24.5 49.5q7 9 75 1t73 -30q6 -25 -62 -81.5t-146.5 -102t-103.5 -45.5zM553 -31q-138 0 -240 53.5t-154 149.5t-58.5 228t46.5 290q49 152 149 293t228 247t284 169t310 63q141 0 246 -54t158.5 -150t61.5 -227
t-44 -286q-50 -154 -150 -295.5t-229 -248t-288.5 -169.5t-319.5 -63zM696 20q110 0 211.5 57.5t180 156.5t139 225.5t98.5 271.5q22 113 24 214t-23.5 186.5t-70 147.5t-114.5 97t-158 35q-108 0 -207.5 -57t-176.5 -155t-136 -221.5t-96 -264.5q-25 -112 -27 -215t20 -190
t65 -151.5t112.5 -100.5t158.5 -36z" />
    <glyph glyph-name="Ocircumflex" unicode="&#xd4;" horiz-adv-x="1521" 
d="M856 1511q-7 -1 -7 5q2 6 9 10q66 29 117 67t78.5 70t52.5 60.5t53 44.5t66 16t55 -15.5t20.5 -43.5t7 -59.5t24.5 -70.5t63 -69q4 -2 4 -6t-3.5 -7t-9.5 -2q-46 5 -109.5 69t-80.5 126q-63 -63 -176 -127.5t-164 -67.5zM1118 1462q141 0 246 -54t158.5 -150t61.5 -227
t-44 -286q-50 -154 -150 -295.5t-229 -248t-288.5 -169.5t-319.5 -63q-138 0 -240 53.5t-154 149.5t-58.5 228t46.5 290q49 152 149 293t228 247t284 169t310 63zM1325 731q22 113 24 214t-23.5 186.5t-70 147.5t-114.5 97t-158 35q-108 0 -207.5 -57t-176.5 -155
t-136 -221.5t-96 -264.5q-25 -112 -27 -215t20 -190t65 -151.5t112.5 -100.5t158.5 -36q110 0 211.5 57.5t180 156.5t139 225.5t98.5 271.5z" />
    <glyph glyph-name="Otilde" unicode="&#xd5;" horiz-adv-x="1521" 
d="M821 1546q-10 -16 -16 -11q-3 2 4 13q57 91 116.5 135.5t116 43.5t117.5 -29l66 -33q133 -67 233 61q11 13 16 10q4 -2 -4 -14q-82 -128 -165 -164.5t-183 13.5l-71 33q-74 45 -127 34t-103 -92zM553 -31q-138 0 -240 53.5t-154 149.5t-58.5 228t46.5 290q49 152 149 293
t228 247t284 169t310 63q141 0 246 -54t158.5 -150t61.5 -227t-44 -286q-50 -154 -150 -295.5t-229 -248t-288.5 -169.5t-319.5 -63zM696 20q110 0 211.5 57.5t180 156.5t139 225.5t98.5 271.5q22 113 24 214t-23.5 186.5t-70 147.5t-114.5 97t-158 35q-108 0 -207.5 -57
t-176.5 -155t-136 -221.5t-96 -264.5q-25 -112 -27 -215t20 -190t65 -151.5t112.5 -100.5t158.5 -36z" />
    <glyph glyph-name="Odieresis" unicode="&#xd6;" horiz-adv-x="1521" 
d="M973 1546q-41 0 -62.5 24t-9.5 58q14 39 56 66.5t92 27.5q41 0 61 -24.5t8 -57.5q-14 -39 -54.5 -66.5t-90.5 -27.5zM1268 1546q-40 0 -61 24t-9 58q14 39 54.5 66.5t90.5 27.5q41 0 61.5 -24.5t8.5 -57.5q-12 -39 -53 -66.5t-92 -27.5zM553 -31q-138 0 -240 53.5
t-154 149.5t-58.5 228t46.5 290q49 152 149 293t228 247t284 169t310 63q141 0 246 -54t158.5 -150t61.5 -227t-44 -286q-50 -154 -150 -295.5t-229 -248t-288.5 -169.5t-319.5 -63zM696 20q110 0 211.5 57.5t180 156.5t139 225.5t98.5 271.5q22 113 24 214t-23.5 186.5
t-70 147.5t-114.5 97t-158 35q-108 0 -207.5 -57t-176.5 -155t-136 -221.5t-96 -264.5q-25 -112 -27 -215t20 -190t65 -151.5t112.5 -100.5t158.5 -36z" />
    <glyph glyph-name="multiply" unicode="&#xd7;" horiz-adv-x="577" 
d="M30 291l233 190q14 11 10 19l-112 194q-12 20 2 31.5t26 -8.5l111 -193q7 -9 25 6l233 191q18 17 26 6q8 -12 -14 -29l-233 -192q-17 -11 -14 -21l112 -190q8 -17 -7 -29q-13 -8 -21 4l-113 193q-2 7 -19 -4l-231 -189q-20 -18 -28 -8q-7 11 14 29z" />
    <glyph glyph-name="Oslash" unicode="&#xd8;" horiz-adv-x="1521" 
d="M1611 1563q10 12 13 4q2 -6 -7 -15l-178 -194q110 -93 137 -253t-37 -360q-50 -154 -150 -295.5t-229 -248t-288.5 -169.5t-319.5 -63q-184 0 -301 94l-182 -198q-8 -9 -13.5 -4.5t4.5 14.5l181 197q-109 92 -135 251.5t40 366.5q49 152 149 293t228 247t284 169t310 63
q191 0 314 -96zM366 713q-64 -292 20 -484l907 988q-95 194 -311 194q-108 0 -207.5 -57t-176.5 -155t-136 -221.5t-96 -264.5zM1324 731q60 279 -27 473l-907 -987q93 -197 305 -197q110 0 211.5 57.5t180 156.5t139 225.5t98.5 271.5z" />
    <glyph glyph-name="Ugrave" unicode="&#xd9;" horiz-adv-x="1351" 
d="M1141 1516q-25 0 -103.5 45.5t-146.5 102t-62 81.5q5 22 73 30t75 -1q9 -11 24.5 -49.5t51 -87t100.5 -103.5q6 -4 2 -10.5t-14 -7.5zM551 -31q-243 0 -333 164.5t1 439.5l213 668q15 53 14.5 87.5t-19.5 55.5t-41.5 29.5t-51.5 11.5q-11 0 -10 8q0 7 6 7q69 -6 90 -6
h317q32 0 125 6q9 0 8 -7q0 -8 -14 -8q-80 -5 -135 -46t-88 -142l-221 -672q-76 -232 -12.5 -371t251.5 -139q181 0 339 144.5t233 378.5l211 661q56 173 -152 186q-14 0 -14 8q-1 7 8 7q93 -6 125 -6h129q22 0 82 6q4 0 5.5 -4t-0.5 -7.5t-7 -3.5q-53 -5 -89.5 -44.5
t-68.5 -139.5l-213 -653q-94 -287 -278 -453t-410 -166z" />
    <glyph glyph-name="Uacute" unicode="&#xda;" horiz-adv-x="1351" 
d="M977 1516q-10 1 -14 7.5t2 10.5q65 55 100.5 103.5t51 87t24.5 49.5q7 9 74.5 1t72.5 -30q6 -25 -61.5 -81.5t-146 -102t-103.5 -45.5zM551 -31q-243 0 -333 164.5t1 439.5l213 668q15 53 14.5 87.5t-19.5 55.5t-41.5 29.5t-51.5 11.5q-11 0 -10 8q0 7 6 7q69 -6 90 -6
h317q32 0 125 6q9 0 8 -7q0 -8 -14 -8q-80 -5 -135 -46t-88 -142l-221 -672q-76 -232 -12.5 -371t251.5 -139q181 0 339 144.5t233 378.5l211 661q56 173 -152 186q-14 0 -14 8q-1 7 8 7q93 -6 125 -6h129q22 0 82 6q4 0 5.5 -4t-0.5 -7.5t-7 -3.5q-53 -5 -89.5 -44.5
t-68.5 -139.5l-213 -653q-94 -287 -278 -453t-410 -166z" />
    <glyph glyph-name="Ucircumflex" unicode="&#xdb;" horiz-adv-x="1351" 
d="M831 1511q-6 -1 -6 3q1 8 9 12q66 29 117 67t78.5 70t52 60.5t52.5 44.5t66 16t55 -15.5t20.5 -43.5t7 -59.5t24.5 -70.5t63 -69q4 -2 4.5 -6t-3 -7t-9.5 -2q-46 5 -110 69t-81 126q-63 -63 -176 -127.5t-164 -67.5zM1612 1440q4 0 5.5 -4t-0.5 -7.5t-7 -3.5
q-53 -5 -89.5 -44.5t-68.5 -139.5l-213 -653q-94 -287 -278 -453t-410 -166q-243 0 -333 164.5t1 439.5l213 668q15 53 14.5 87.5t-19.5 55.5t-41.5 29.5t-51.5 11.5q-11 0 -10 8q0 7 6 7q69 -6 90 -6h317q32 0 125 6q9 0 8 -7q0 -8 -14 -8q-80 -5 -135 -46t-88 -142
l-221 -672q-76 -232 -12.5 -371t251.5 -139q181 0 339 144.5t233 378.5l211 661q56 173 -152 186q-14 0 -14 8q-1 7 8 7q93 -6 125 -6h129q22 0 82 6z" />
    <glyph glyph-name="Udieresis" unicode="&#xdc;" horiz-adv-x="1351" 
d="M948 1546q-41 0 -62 24t-9 58q14 39 55.5 66.5t91.5 27.5q41 0 61.5 -24.5t8.5 -57.5q-14 -39 -55 -66.5t-91 -27.5zM1243 1546q-40 0 -60.5 24t-8.5 58q14 39 54.5 66.5t90.5 27.5q41 0 61.5 -24.5t8.5 -57.5q-12 -39 -53.5 -66.5t-92.5 -27.5zM551 -31
q-243 0 -333 164.5t1 439.5l213 668q15 53 14.5 87.5t-19.5 55.5t-41.5 29.5t-51.5 11.5q-11 0 -10 8q0 7 6 7q69 -6 90 -6h317q32 0 125 6q9 0 8 -7q0 -8 -14 -8q-80 -5 -135 -46t-88 -142l-221 -672q-76 -232 -12.5 -371t251.5 -139q181 0 339 144.5t233 378.5l211 661
q56 173 -152 186q-14 0 -14 8q-1 7 8 7q93 -6 125 -6h129q22 0 82 6q4 0 5.5 -4t-0.5 -7.5t-7 -3.5q-53 -5 -89.5 -44.5t-68.5 -139.5l-213 -653q-94 -287 -278 -453t-410 -166z" />
    <glyph glyph-name="Yacute" unicode="&#xdd;" horiz-adv-x="1200" 
d="M836 1516q-10 1 -14.5 7.5t1.5 10.5q65 55 100.5 103.5t51 87t24.5 49.5q7 9 75 1t73 -30q6 -25 -61.5 -81.5t-146 -102t-103.5 -45.5zM326 0q-30 0 -105 -6q-8 0 -7 7t11 7q66 5 112.5 46t78.5 141l112 340q9 36 4 63l-104 639q-16 101 -52 143t-89 45q-11 2 -10 10
q3 4 6 5q30 0 84 -6h329q87 6 125 6q9 0 8 -6q0 -7 -14 -9q-198 -8 -168 -190l92 -610q3 -27 27 0l508 635q34 42 36.5 74.5t-22 50.5t-57 28t-72.5 12q-14 0 -14 8q-1 7 8 7q93 -6 125 -6h131q24 0 84 6q7 0 5 -8q-3 -6 -9 -7q-44 -4 -80.5 -36.5t-114.5 -128.5l-534 -660
q-24 -30 -33 -65l-109 -342q-16 -42 -13.5 -73t12 -51.5t30.5 -33.5t42.5 -19t47.5 -8q11 0 13 -7q-2 -6 -9 -7q-75 6 -102 6h-313z" />
    <glyph glyph-name="Thorn" unicode="&#xde;" horiz-adv-x="1171" 
d="M850 1145q129 0 216.5 -31t128 -88t46 -136t-28.5 -175q-65 -200 -235.5 -309t-405.5 -97l-127 6q-7 0 -7 5q1 5 9 6l113 2q135 8 257 103.5t175 258.5q30 92 36.5 168t-12 136.5t-71 95t-135.5 36.5l-139 4q-38 3 -62 -43l-289 -894q-16 -42 -13.5 -73t12 -51.5
t30.5 -33.5t42.5 -19t47.5 -8q11 0 11.5 -7t-7.5 -7q-75 6 -102 6h-313q-30 0 -105 -6q-8 0 -7 7t11 7q66 5 112.5 46t78.5 141l340 1046q16 42 13.5 73t-12 51t-30.5 33t-42.5 19t-47.5 8q-12 0 -13 8q0 7 7 7q81 -6 104 -6h314q23 0 104 6q7 0 7 -7q-1 -8 -13 -8
q-66 -5 -112 -45t-79 -141l-18 -55q-3 -21 7.5 -30t33.5 -9h170z" />
    <glyph glyph-name="germandbls" unicode="&#xdf;" horiz-adv-x="1128" 
d="M204 0h-148q-20 0 -58 -1t-50 -1q-11 0 -12 8q-1 6 8 6q55 0 79.5 34t53.5 138l276 842q64 196 207.5 317t335.5 121q151 0 221.5 -86t26.5 -223q-34 -102 -125 -180t-211 -107q-14 -4 -13 -7t11 -3q73 -2 129.5 -27.5t90 -68t50 -98t13 -118.5t-24.5 -128
q-35 -107 -97.5 -194.5t-135 -141t-147.5 -82.5t-142 -29q-51 0 -89.5 14t-60 36.5t-32.5 52t-11 60.5t10 63q2 11 8 11q4 0 3 -9q-14 -73 32.5 -128t126.5 -55q210 0 308 297q55 171 44 287.5t-72 177t-161 60.5q-19 1 -18 6q0 5 22 8q71 9 127.5 36t94.5 68.5t63.5 88.5
t44.5 106q24 79 25 132.5t-22.5 86t-56.5 46.5t-77 14q-103 0 -167 -75t-114 -225l-346 -1067q-5 -13 -20 -63z" />
    <glyph glyph-name="agrave" unicode="&#xe0;" horiz-adv-x="1118" 
d="M891 1044q-24 3 -86.5 64.5t-113 138t-38.5 111.5q4 13 51.5 16t83.5 -4q20 -2 25 -27.5t3 -63.5t19 -99t68 -119q5 -6 1 -12t-13 -5zM989 600l-127 -385q-44 -137 12 -137q26 0 42.5 12t38.5 56t55 135q5 13 13 7q6 -5 3 -16q-42 -134 -111.5 -215.5t-164.5 -81.5
q-52 0 -76.5 29t-23.5 74.5t22 107.5l2 9q5 31 -1 29l-3 -3q-86 -116 -190.5 -184t-215.5 -68q-80 0 -135.5 38.5t-79.5 103.5t-22 150t32 177q45 137 142.5 256t220.5 189.5t240 70.5q47 0 88 -12.5t68.5 -31t50 -36.5t43 -30.5t38.5 -12.5q16 0 38.5 17.5t53.5 46t52 43.5
q8 7 15 8.5t9.5 -3t-2.5 -15.5q-63 -139 -127 -328zM729 365l59 178q18 66 20.5 130t-10.5 120t-54.5 90.5t-106.5 34.5q-263 0 -363 -316q-33 -100 -39.5 -196t11.5 -167.5t62 -115t106 -43.5q109 0 188.5 76.5t126.5 208.5z" />
    <glyph glyph-name="aacute" unicode="&#xe1;" horiz-adv-x="1118" 
d="M1055 1368q39 6 84 3t41 -15q-8 -28 -107.5 -105t-204.5 -142.5t-131 -68.5q-10 0 -6 10q2 5 8 9q84 57 144 118t83 99t45 64t44 28zM1094 938q8 7 15 8.5t9.5 -3t-2.5 -15.5q-63 -139 -127 -328l-127 -385q-44 -137 12 -137q26 0 42.5 12t38.5 56t55 135q5 13 13 7
q6 -5 3 -16q-42 -134 -111.5 -215.5t-164.5 -81.5q-52 0 -76.5 29t-23.5 74.5t22 107.5l2 9q5 31 -1 29l-3 -3q-86 -116 -190.5 -184t-215.5 -68q-80 0 -135.5 38.5t-79.5 103.5t-22 150t32 177q45 137 142.5 256t220.5 189.5t240 70.5q47 0 88 -12.5t68.5 -31t50 -36.5
t43 -30.5t38.5 -12.5q16 0 38.5 17.5t53.5 46t52 43.5zM729 365l59 178q18 66 20.5 130t-10.5 120t-54.5 90.5t-106.5 34.5q-263 0 -363 -316q-33 -100 -39.5 -196t11.5 -167.5t62 -115t106 -43.5q109 0 188.5 76.5t126.5 208.5z" />
    <glyph glyph-name="acircumflex" unicode="&#xe2;" horiz-adv-x="1118" 
d="M532 1047q-6 -1 -6 4q0 7 9 12q66 34 117 79t78.5 82.5t52 70.5t52.5 52t66 19t55 -18.5t20.5 -51t7 -69.5t24.5 -82.5t63 -81.5q6 -5 3.5 -11t-11.5 -5q-47 5 -111.5 81t-79.5 148q-62 -74 -175 -149t-165 -80zM989 600l-127 -385q-44 -137 12 -137q26 0 42.5 12
t38.5 56t55 135q5 13 13 7q6 -5 3 -16q-42 -134 -111.5 -215.5t-164.5 -81.5q-52 0 -76.5 29t-23.5 74.5t22 107.5l2 9q5 31 -1 29l-3 -3q-86 -116 -190.5 -184t-215.5 -68q-80 0 -135.5 38.5t-79.5 103.5t-22 150t32 177q45 137 142.5 256t220.5 189.5t240 70.5
q47 0 88 -12.5t68.5 -31t50 -36.5t43 -30.5t38.5 -12.5q16 0 38.5 17.5t53.5 46t52 43.5q8 7 15 8.5t9.5 -3t-2.5 -15.5q-63 -139 -127 -328zM729 365l59 178q18 66 20.5 130t-10.5 120t-54.5 90.5t-106.5 34.5q-263 0 -363 -316q-33 -100 -39.5 -196t11.5 -167.5t62 -115
t106 -43.5q109 0 188.5 76.5t126.5 208.5z" />
    <glyph glyph-name="atilde" unicode="&#xe3;" horiz-adv-x="1118" 
d="M1174 1311q11 13 16 10q3 -4 -4 -16q-82 -127 -165 -164t-183 12l-72 35q-74 43 -126.5 33t-102.5 -91q-9 -14 -16 -11q-5 2 3 14q57 91 117 135t116.5 42.5t116.5 -28.5l66 -33q133 -70 234 62zM1094 938q8 7 15 8.5t9.5 -3t-2.5 -15.5q-63 -139 -127 -328l-127 -385
q-44 -137 12 -137q26 0 42.5 12t38.5 56t55 135q5 13 13 7q6 -5 3 -16q-42 -134 -111.5 -215.5t-164.5 -81.5q-52 0 -76.5 29t-23.5 74.5t22 107.5l2 9q5 31 -1 29l-3 -3q-86 -116 -190.5 -184t-215.5 -68q-80 0 -135.5 38.5t-79.5 103.5t-22 150t32 177q45 137 142.5 256
t220.5 189.5t240 70.5q47 0 88 -12.5t68.5 -31t50 -36.5t43 -30.5t38.5 -12.5q16 0 38.5 17.5t53.5 46t52 43.5zM729 365l59 178q18 66 20.5 130t-10.5 120t-54.5 90.5t-106.5 34.5q-263 0 -363 -316q-33 -100 -39.5 -196t11.5 -167.5t62 -115t106 -43.5q109 0 188.5 76.5
t126.5 208.5z" />
    <glyph glyph-name="adieresis" unicode="&#xe4;" horiz-adv-x="1118" 
d="M676 1102q-40 0 -61 24t-9 58q12 39 54 66.5t92 27.5q41 0 61 -24.5t8 -57.5q-14 -39 -54.5 -66.5t-90.5 -27.5zM973 1102q-41 0 -62.5 24t-9.5 58q14 39 56 66.5t92 27.5q41 0 61 -24.5t8 -57.5q-14 -39 -54.5 -66.5t-90.5 -27.5zM1094 938q8 7 15 8.5t9.5 -3
t-2.5 -15.5q-63 -139 -127 -328l-127 -385q-44 -137 12 -137q26 0 42.5 12t38.5 56t55 135q5 13 13 7q6 -5 3 -16q-42 -134 -111.5 -215.5t-164.5 -81.5q-52 0 -76.5 29t-23.5 74.5t22 107.5l2 9q5 31 -1 29l-3 -3q-86 -116 -190.5 -184t-215.5 -68q-80 0 -135.5 38.5
t-79.5 103.5t-22 150t32 177q45 137 142.5 256t220.5 189.5t240 70.5q47 0 88 -12.5t68.5 -31t50 -36.5t43 -30.5t38.5 -12.5q16 0 38.5 17.5t53.5 46t52 43.5zM729 365l59 178q18 66 20.5 130t-10.5 120t-54.5 90.5t-106.5 34.5q-263 0 -363 -316q-33 -100 -39.5 -196
t11.5 -167.5t62 -115t106 -43.5q109 0 188.5 76.5t126.5 208.5z" />
    <glyph glyph-name="aring" unicode="&#xe5;" horiz-adv-x="1118" 
d="M782 1024q-70 0 -104 45.5t-10 118.5q21 68 93 121.5t152 52.5q71 -2 107.5 -46.5t13.5 -113.5q-24 -72 -97 -125t-155 -53zM762 1245q-21 -63 2.5 -127.5t75.5 -64.5q74 0 102 88q11 43 6.5 86t-28 75.5t-56.5 32.5q-73 0 -102 -90zM989 600l-127 -385q-44 -137 12 -137
q26 0 42.5 12t38.5 56t55 135q5 13 13 7q6 -5 3 -16q-42 -134 -111.5 -215.5t-164.5 -81.5q-52 0 -76.5 29t-23.5 74.5t22 107.5l2 9q5 31 -1 29l-3 -3q-86 -116 -190.5 -184t-215.5 -68q-80 0 -135.5 38.5t-79.5 103.5t-22 150t32 177q45 137 142.5 256t220.5 189.5
t240 70.5q47 0 88 -12.5t68.5 -31t50 -36.5t43 -30.5t38.5 -12.5q16 0 38.5 17.5t53.5 46t52 43.5q8 7 15 8.5t9.5 -3t-2.5 -15.5q-63 -139 -127 -328zM729 365l59 178q18 66 20.5 130t-10.5 120t-54.5 90.5t-106.5 34.5q-263 0 -363 -316q-33 -100 -39.5 -196t11.5 -167.5
t62 -115t106 -43.5q109 0 188.5 76.5t126.5 208.5z" />
    <glyph glyph-name="ae" unicode="&#xe6;" horiz-adv-x="1482" 
d="M1251 954q139 0 201 -72.5t23 -195.5q-25 -76 -79 -134.5t-120 -93.5t-150 -57.5t-161.5 -30.5t-163.5 -8l2 17q385 -4 463 235q41 132 9 213.5t-118 81.5q-118 0 -198.5 -73.5t-133.5 -237.5q-49 -161 -24 -278.5t98 -183.5t168 -66q126 0 244 106q6 -6 -6 -18
q-93 -91 -204.5 -139t-217.5 -48q-128 0 -206 77t-79 212q-77 -132 -187.5 -210.5t-213.5 -78.5q-62 0 -108 18t-72 48.5t-37.5 71t-8 85.5t20.5 93q43 130 161.5 216.5t278.5 86.5q103 0 191 -31l12 135q12 115 -33 157t-135 42q-141 0 -268 -100q-11 -9 -11.5 -5.5
t11.5 15.5q70 69 169.5 110t202.5 41q233 0 236 -211q96 99 212 155t232 56zM297 68q114 0 182.5 64t108.5 183q12 25 18 50l15 157q-90 33 -164 33q-116 0 -179 -55t-100 -170q-16 -49 -18 -94.5t10 -83.5t44.5 -61t82.5 -23z" />
    <glyph glyph-name="ccedilla" unicode="&#xe7;" horiz-adv-x="905" 
d="M748 455q-7 -10 -13 -7t4 17q54 99 57 205t-45 175.5t-130 69.5q-253 0 -355 -319q-50 -161 -25 -278t99.5 -182.5t175.5 -65.5q146 0 254 106q11 9 11 1q0 -4 -5 -9q-203 -194 -436 -197q-32 -35 -70 -90q88 -27 124 -69t22 -91q-14 -58 -72 -100.5t-135 -42.5
q-66 0 -112 22.5t-36 61.5q3 13 25.5 35t36.5 22q11 0 19.5 -17.5t16.5 -38.5t32.5 -38.5t62.5 -17.5q43 0 72.5 16t35.5 41q11 35 -33 73.5t-143 72.5l136 161q-171 5 -248.5 136t-10.5 339q45 141 146 258t229.5 183.5t255.5 66.5q131 0 208 -59t40 -125z" />
    <glyph glyph-name="egrave" unicode="&#xe8;" horiz-adv-x="917" 
d="M745 1044q-24 3 -86.5 64.5t-112.5 138t-38 111.5q4 13 51.5 16t83.5 -4q20 -2 25 -27.5t3 -63.5t19 -99t68 -119q5 -6 0.5 -12t-13.5 -5zM317 -29q-170 0 -246 131t-8 344q70 217 249.5 362.5t373.5 145.5q138 0 200 -72.5t23 -195.5q-25 -76 -79 -134.5t-119.5 -93.5
t-149.5 -57.5t-161.5 -30.5t-163.5 -8l2 17q384 -4 462 235q41 132 9.5 213.5t-117.5 81.5q-118 0 -198.5 -73.5t-133.5 -237.5q-49 -161 -24 -278.5t98 -183.5t168 -66q125 0 243 106q6 -6 -6 -18q-93 -91 -204.5 -139t-217.5 -48z" />
    <glyph glyph-name="eacute" unicode="&#xe9;" horiz-adv-x="917" 
d="M592 1040q-10 0 -6 10q2 5 8 9q69 47 121.5 96.5t78.5 84.5t46 65t35 45.5t34 17.5q39 6 84 3t41 -15q-8 -28 -107.5 -105t-204 -142.5t-130.5 -68.5zM317 -29q-170 0 -246 131t-8 344q70 217 249.5 362.5t373.5 145.5q138 0 200 -72.5t23 -195.5q-25 -76 -79 -134.5
t-119.5 -93.5t-149.5 -57.5t-161.5 -30.5t-163.5 -8l2 17q384 -4 462 235q41 132 9.5 213.5t-117.5 81.5q-118 0 -198.5 -73.5t-133.5 -237.5q-49 -161 -24 -278.5t98 -183.5t168 -66q125 0 243 106q6 -6 -6 -18q-93 -91 -204.5 -139t-217.5 -48z" />
    <glyph glyph-name="ecircumflex" unicode="&#xea;" horiz-adv-x="917" 
d="M926 1063q6 -5 3.5 -11t-11.5 -5q-47 5 -111.5 81t-79.5 148q-62 -74 -175 -149t-165 -80q-6 -1 -7 4q0 7 9 12q66 34 117 79t78.5 82.5t52.5 70.5t53 52t66 19t55 -18.5t20.5 -51t7 -69.5t24.5 -82.5t63 -81.5zM686 954q138 0 200 -72.5t23 -195.5q-25 -76 -79 -134.5
t-119.5 -93.5t-149.5 -57.5t-161.5 -30.5t-163.5 -8l2 17q384 -4 462 235q41 132 9.5 213.5t-117.5 81.5q-118 0 -198.5 -73.5t-133.5 -237.5q-49 -161 -24 -278.5t98 -183.5t168 -66q125 0 243 106q6 -6 -6 -18q-93 -91 -204.5 -139t-217.5 -48q-170 0 -246 131t-8 344
q70 217 249.5 362.5t373.5 145.5z" />
    <glyph glyph-name="edieresis" unicode="&#xeb;" horiz-adv-x="917" 
d="M530 1102q-40 0 -60.5 24t-8.5 58q12 39 53.5 66.5t91.5 27.5q41 0 61.5 -24.5t8.5 -57.5q-14 -39 -55 -66.5t-91 -27.5zM827 1102q-41 0 -62 24t-9 58q14 39 55.5 66.5t91.5 27.5q41 0 61.5 -24.5t8.5 -57.5q-14 -39 -55 -66.5t-91 -27.5zM317 -29q-170 0 -246 131
t-8 344q70 217 249.5 362.5t373.5 145.5q138 0 200 -72.5t23 -195.5q-25 -76 -79 -134.5t-119.5 -93.5t-149.5 -57.5t-161.5 -30.5t-163.5 -8l2 17q384 -4 462 235q41 132 9.5 213.5t-117.5 81.5q-118 0 -198.5 -73.5t-133.5 -237.5q-49 -161 -24 -278.5t98 -183.5t168 -66
q125 0 243 106q6 -6 -6 -18q-93 -91 -204.5 -139t-217.5 -48z" />
    <glyph glyph-name="igrave" unicode="&#xec;" horiz-adv-x="526" 
d="M494 1044q-24 3 -86.5 64.5t-113 138t-38.5 111.5q4 13 51.5 16t83.5 -4q20 -2 25 -27.5t3 -63.5t19 -99t68 -119q5 -6 1 -12t-13 -5zM276 215q-41 -137 15 -137q25 0 41 12t38.5 56.5t53.5 134.5q6 13 14 7q6 -5 2 -16q-42 -134 -111.5 -215.5t-164.5 -81.5
q-145 0 -78 211l172 525q43 135 -12 135q-26 0 -42 -12t-38 -56t-53 -135q-5 -10 -13 -7.5t-4 15.5q42 134 111 215.5t166 81.5q52 0 76 -29t22.5 -74.5t-22.5 -107.5z" />
    <glyph glyph-name="iacute" unicode="&#xed;" horiz-adv-x="526" 
d="M340 1040q-10 0 -6 10q3 5 8 9q69 47 121.5 96.5t78.5 84.5t46 65t35 45.5t34 17.5q39 6 84 3t41 -15q-8 -28 -107.5 -105t-204 -142.5t-130.5 -68.5zM276 215q-41 -137 15 -137q25 0 41 12t38.5 56.5t53.5 134.5q6 13 14 7q6 -5 2 -16q-42 -134 -111.5 -215.5
t-164.5 -81.5q-145 0 -78 211l172 525q43 135 -12 135q-26 0 -42 -12t-38 -56t-53 -135q-5 -10 -13 -7.5t-4 15.5q42 134 111 215.5t166 81.5q52 0 76 -29t22.5 -74.5t-22.5 -107.5z" />
    <glyph glyph-name="icircumflex" unicode="&#xee;" horiz-adv-x="526" 
d="M674 1063q6 -5 3.5 -11t-11.5 -5q-47 5 -111.5 81t-79.5 148q-62 -74 -175 -149t-165 -80q-6 -1 -7 4q0 7 9 12q66 34 117 79t78.5 82.5t52.5 70.5t53 52t66 19t55 -18.5t20.5 -51t7 -69.5t24.5 -82.5t63 -81.5zM373 948q52 0 76 -29t22.5 -74.5t-22.5 -107.5l-173 -522
q-41 -137 15 -137q25 0 41 12t38.5 56.5t53.5 134.5q6 13 14 7q6 -5 2 -16q-42 -134 -111.5 -215.5t-164.5 -81.5q-145 0 -78 211l172 525q43 135 -12 135q-26 0 -42 -12t-38 -56t-53 -135q-5 -10 -13 -7.5t-4 15.5q42 134 111 215.5t166 81.5z" />
    <glyph glyph-name="idieresis" unicode="&#xef;" horiz-adv-x="526" 
d="M279 1102q-40 0 -61 24t-9 58q12 39 53.5 66.5t91.5 27.5q41 0 61.5 -24.5t8.5 -57.5q-14 -39 -54.5 -66.5t-90.5 -27.5zM575 1102q-41 0 -62 24t-9 58q14 39 55.5 66.5t91.5 27.5q41 0 61.5 -24.5t8.5 -57.5q-14 -39 -55 -66.5t-91 -27.5zM276 215q-41 -137 15 -137
q25 0 41 12t38.5 56.5t53.5 134.5q6 13 14 7q6 -5 2 -16q-42 -134 -111.5 -215.5t-164.5 -81.5q-145 0 -78 211l172 525q43 135 -12 135q-26 0 -42 -12t-38 -56t-53 -135q-5 -10 -13 -7.5t-4 15.5q42 134 111 215.5t166 81.5q52 0 76 -29t22.5 -74.5t-22.5 -107.5z" />
    <glyph glyph-name="eth" unicode="&#xf0;" horiz-adv-x="1042" 
d="M1139 1348q12 7 12 -1q0 -7 -12 -14l-135 -65q75 -112 81.5 -276t-61.5 -378q-51 -160 -129 -285.5t-168.5 -202.5t-186 -117t-190.5 -40q-100 0 -172 37t-106 101.5t-39 151.5t28 187q42 132 134 249.5t207.5 188t222.5 70.5q96 1 160 -42.5t89 -127.5q70 262 19 430
l-256 -122q-13 -6 -14 -2q0 7 12 14l254 123q-31 95 -98 151t-166 70q-11 1 -12 4q0 3 5 6q7 3 17 2q242 -18 360 -182zM784 356q32 95 29 194.5t-27.5 181t-72.5 133.5t-105 53q-239 3 -344 -316q-32 -99 -32.5 -207t24.5 -191t69.5 -137t96.5 -53q250 3 362 342z" />
    <glyph glyph-name="ntilde" unicode="&#xf1;" horiz-adv-x="1140" 
d="M1139 1311q11 13 16 10q3 -4 -4 -16q-82 -127 -165 -164t-183 12l-72 35q-74 43 -126.5 33t-102.5 -91q-9 -14 -16 -11q-5 2 3 14q56 91 117 135t117 42.5t117 -28.5l65 -33q133 -70 234 62zM1038 281q3 7 8.5 8t8.5 -4t0 -13q-42 -133 -111.5 -215t-165.5 -82
q-145 0 -78 211l121 373q52 161 27 243.5t-125 82.5q-43 0 -88 -19.5t-91 -60t-88.5 -111.5t-72.5 -164q0 -1 -1 -3t-1 -3l-111 -344q-4 -8 -13 -36t-19 -59.5t-13 -39.5q-11 -33 -42 -44t-87 -11h-49q-25 0 -16 24q24 70 53 168l174 529q43 135 -12 135q-26 0 -42 -12
t-38 -56t-53 -135q-5 -10 -13 -7.5t-4 15.5q42 134 111 215.5t166 81.5q52 0 76 -29t22.5 -74.5t-22.5 -107.5l-15 -45q68 115 169.5 188.5t211.5 73.5q149 0 199.5 -101t-13.5 -304l-110 -334q-41 -137 14 -137q25 0 41 12t38.5 56.5t53.5 134.5z" />
    <glyph glyph-name="ograve" unicode="&#xf2;" horiz-adv-x="1069" 
d="M819 1044q-24 3 -86.5 64.5t-112.5 138t-38 111.5q4 13 51.5 16t83.5 -4q17 -2 22 -17.5t5 -45t3.5 -64.5t24 -85t59.5 -97q5 -6 1 -12t-13 -5zM358 -31q-169 0 -254.5 114.5t-46.5 299.5q21 148 117.5 280t239.5 211.5t293 79.5q189 0 276.5 -132t24.5 -341
q-40 -139 -140.5 -256.5t-236 -186.5t-273.5 -69zM449 16q132 0 230.5 109t143.5 319q23 134 9 236.5t-71 164.5t-145 62q-129 0 -223.5 -105t-140.5 -321q-23 -130 -10 -233.5t68 -167.5t139 -64z" />
    <glyph glyph-name="oacute" unicode="&#xf3;" horiz-adv-x="1069" 
d="M666 1040q-10 0 -6 10q2 5 8 9q69 47 121.5 96.5t78.5 84.5t46 65t35 45.5t34 17.5q39 6 84 3t41 -15q-8 -28 -107.5 -105t-204 -142.5t-130.5 -68.5zM358 -31q-169 0 -254.5 114.5t-46.5 299.5q21 148 117.5 280t239.5 211.5t293 79.5q189 0 276.5 -132t24.5 -341
q-40 -139 -140.5 -256.5t-236 -186.5t-273.5 -69zM449 16q132 0 230.5 109t143.5 319q23 134 9 236.5t-71 164.5t-145 62q-129 0 -223.5 -105t-140.5 -321q-23 -130 -10 -233.5t68 -167.5t139 -64z" />
    <glyph glyph-name="ocircumflex" unicode="&#xf4;" horiz-adv-x="1069" 
d="M461 1047q-6 -1 -7 4q0 7 9 12q66 34 117 79t78.5 82.5t52 70.5t52.5 52t66 19t55 -18.5t20.5 -51t7 -69.5t24.5 -82.5t63 -81.5q6 -5 3.5 -11t-11.5 -5q-47 5 -111 81t-79 148q-62 -74 -175 -149t-165 -80zM707 954q189 0 276.5 -132t24.5 -341q-40 -139 -140.5 -256.5
t-236 -186.5t-273.5 -69q-169 0 -254.5 114.5t-46.5 299.5q21 148 117.5 280t239.5 211.5t293 79.5zM823 444q23 134 9 236.5t-71 164.5t-145 62q-129 0 -223.5 -105t-140.5 -321q-23 -130 -10 -233.5t68 -167.5t139 -64q132 0 230.5 109t143.5 319z" />
    <glyph glyph-name="otilde" unicode="&#xf5;" horiz-adv-x="1069" 
d="M465 1130q-10 -16 -16 -11q-2 5 4 14q57 91 117 135t116.5 42.5t116.5 -28.5l65 -33q133 -70 234 62q11 13 16 10q3 -4 -4 -16q-82 -127 -165 -164t-183 12l-72 35q-74 43 -126.5 33t-102.5 -91zM358 -31q-169 0 -254.5 114.5t-46.5 299.5q21 148 117.5 280t239.5 211.5
t293 79.5q189 0 276.5 -132t24.5 -341q-40 -139 -140.5 -256.5t-236 -186.5t-273.5 -69zM449 16q132 0 230.5 109t143.5 319q23 134 9 236.5t-71 164.5t-145 62q-129 0 -223.5 -105t-140.5 -321q-23 -130 -10 -233.5t68 -167.5t139 -64z" />
    <glyph glyph-name="odieresis" unicode="&#xf6;" horiz-adv-x="1069" 
d="M604 1102q-40 0 -60.5 24t-8.5 58q12 39 53.5 66.5t91.5 27.5q41 0 61.5 -24.5t8.5 -57.5q-14 -39 -55 -66.5t-91 -27.5zM901 1102q-41 0 -62.5 24t-9.5 58q14 39 56 66.5t92 27.5q41 0 61.5 -24.5t8.5 -57.5q-14 -39 -55 -66.5t-91 -27.5zM358 -31q-169 0 -254.5 114.5
t-46.5 299.5q21 148 117.5 280t239.5 211.5t293 79.5q189 0 276.5 -132t24.5 -341q-40 -139 -140.5 -256.5t-236 -186.5t-273.5 -69zM449 16q132 0 230.5 109t143.5 319q23 134 9 236.5t-71 164.5t-145 62q-129 0 -223.5 -105t-140.5 -321q-23 -130 -10 -233.5t68 -167.5
t139 -64z" />
    <glyph glyph-name="divide" unicode="&#xf7;" horiz-adv-x="706" 
d="M421 705q-54 -3 -76 20t-4 59q16 33 61.5 58t102.5 26q54 0 75.5 -22t6.5 -55q-18 -35 -63.5 -60t-102.5 -26zM91 479q-21 0 -22 6q0 7 28 7h535q19 0 20 -6q1 -7 -24 -7h-537zM232 129q-54 -3 -75.5 20.5t-3.5 59.5q15 33 60.5 57t102.5 27q54 0 75.5 -22.5t6.5 -55.5
q-18 -35 -63.5 -60t-102.5 -26z" />
    <glyph glyph-name="oslash" unicode="&#xf8;" horiz-adv-x="1069" 
d="M948 864q63 -63 79.5 -160t-19.5 -223q-40 -139 -140.5 -256.5t-236 -186.5t-273.5 -69q-140 0 -223 80l-74 -74q-11 -11 -14 -3q-3 5 6 14l72 71q-54 55 -72 138t4 188q21 148 117.5 280t239.5 211.5t293 79.5q144 0 233 -80l72 72q10 10 14 5t-6 -15zM252 481
q-34 -166 2 -293l561 562q-25 75 -76 116t-123 41q-129 0 -223.5 -105t-140.5 -321zM823 444q34 168 -2 291l-561 -561q24 -74 72.5 -116t116.5 -42q132 0 230.5 109t143.5 319z" />
    <glyph glyph-name="ugrave" unicode="&#xf9;" horiz-adv-x="1132" 
d="M799 1044q-24 3 -86.5 64.5t-113 138t-38.5 111.5q4 13 51.5 16t83.5 -4q20 -2 25 -27.5t3 -63.5t19 -99t68 -119q5 -6 1 -12t-13 -5zM1020 659l-148 -444q-41 -137 15 -137q26 0 42 12t38 56t53 135q6 13 14 7q6 -5 2 -16q-42 -134 -110.5 -215.5t-165.5 -81.5
q-145 0 -78 211l16 50q-64 -121 -166 -194t-225 -73q-136 0 -183.5 98.5t13.5 301.5l113 340q43 137 -12 137q-26 0 -42.5 -12t-38.5 -56t-55 -135q-3 -6 -7.5 -7.5t-7.5 3t-1 12.5q42 134 111.5 215.5t164.5 81.5q145 0 78 -211l-121 -370q-52 -164 -27.5 -246t120.5 -82
q92 0 177 78.5t142 216.5l117 360q9 32 17 57t16.5 49t13.5 38q10 32 31 53t50 31t57 14t63 4h7t7.5 -1t6.5 -2.5t1 -4.5q-56 -141 -98 -273z" />
    <glyph glyph-name="uacute" unicode="&#xfa;" horiz-adv-x="1132" 
d="M645 1040q-10 0 -6 10q2 5 8 9q84 57 144 118t83 99t45 64t44 28q39 6 83.5 3t40.5 -15q-8 -28 -107.5 -105t-204 -142.5t-130.5 -68.5zM1020 659l-148 -444q-41 -137 15 -137q26 0 42 12t38 56t53 135q6 13 14 7q6 -5 2 -16q-42 -134 -110.5 -215.5t-165.5 -81.5
q-145 0 -78 211l16 50q-64 -121 -166 -194t-225 -73q-136 0 -183.5 98.5t13.5 301.5l113 340q43 137 -12 137q-26 0 -42.5 -12t-38.5 -56t-55 -135q-3 -6 -7.5 -7.5t-7.5 3t-1 12.5q42 134 111.5 215.5t164.5 81.5q145 0 78 -211l-121 -370q-52 -164 -27.5 -246t120.5 -82
q92 0 177 78.5t142 216.5l117 360q9 32 17 57t16.5 49t13.5 38q10 32 31 53t50 31t57 14t63 4h7t7.5 -1t6.5 -2.5t1 -4.5q-56 -141 -98 -273z" />
    <glyph glyph-name="ucircumflex" unicode="&#xfb;" horiz-adv-x="1132" 
d="M440 1047q-6 -1 -7 4q0 7 9 12q66 34 117 79t78.5 82.5t52.5 70.5t53 52t66 19t55 -18.5t20.5 -51t7 -69.5t24.5 -82.5t63 -81.5q6 -5 3.5 -11t-11.5 -5q-47 5 -111.5 81t-79.5 148q-62 -74 -175 -149t-165 -80zM1020 659l-148 -444q-41 -137 15 -137q26 0 42 12t38 56
t53 135q6 13 14 7q6 -5 2 -16q-42 -134 -110.5 -215.5t-165.5 -81.5q-145 0 -78 211l16 50q-64 -121 -166 -194t-225 -73q-136 0 -183.5 98.5t13.5 301.5l113 340q43 137 -12 137q-26 0 -42.5 -12t-38.5 -56t-55 -135q-3 -6 -7.5 -7.5t-7.5 3t-1 12.5q42 134 111.5 215.5
t164.5 81.5q145 0 78 -211l-121 -370q-52 -164 -27.5 -246t120.5 -82q92 0 177 78.5t142 216.5l117 360q9 32 17 57t16.5 49t13.5 38q10 32 31 53t50 31t57 14t63 4h7t7.5 -1t6.5 -2.5t1 -4.5q-56 -141 -98 -273z" />
    <glyph glyph-name="udieresis" unicode="&#xfc;" horiz-adv-x="1132" 
d="M584 1102q-40 0 -61 24t-9 58q12 39 53.5 66.5t91.5 27.5q41 0 61.5 -24.5t8.5 -57.5q-14 -39 -54.5 -66.5t-90.5 -27.5zM881 1102q-41 0 -62.5 24t-9.5 58q14 39 55.5 66.5t91.5 27.5q41 0 61.5 -24.5t8.5 -57.5q-14 -39 -54.5 -66.5t-90.5 -27.5zM1020 659l-148 -444
q-41 -137 15 -137q26 0 42 12t38 56t53 135q6 13 14 7q6 -5 2 -16q-42 -134 -110.5 -215.5t-165.5 -81.5q-145 0 -78 211l16 50q-64 -121 -166 -194t-225 -73q-136 0 -183.5 98.5t13.5 301.5l113 340q43 137 -12 137q-26 0 -42.5 -12t-38.5 -56t-55 -135q-3 -6 -7.5 -7.5
t-7.5 3t-1 12.5q42 134 111.5 215.5t164.5 81.5q145 0 78 -211l-121 -370q-52 -164 -27.5 -246t120.5 -82q92 0 177 78.5t142 216.5l117 360q9 32 17 57t16.5 49t13.5 38q10 32 31 53t50 31t57 14t63 4h7t7.5 -1t6.5 -2.5t1 -4.5q-56 -141 -98 -273z" />
    <glyph glyph-name="yacute" unicode="&#xfd;" horiz-adv-x="1114" 
d="M623 1040q-10 0 -6 10q2 5 8 9q69 47 121.5 96.5t78.5 84.5t46 65t35 45.5t34 17.5q39 6 84 3t41 -15q-8 -28 -107.5 -105t-204 -142.5t-130.5 -68.5zM942 954q33 0 61.5 -14t51 -49t30.5 -87.5t-4 -137.5t-47 -191q-75 -226 -197 -430.5t-273.5 -339.5t-287.5 -135
q-106 0 -151 54t-21 134q23 81 115.5 162t216.5 143q-16 -4 -43 -4q-37 0 -69.5 6.5t-63.5 21.5t-52 42.5t-33.5 65t-10.5 93t20 124.5l80 295q16 63 9.5 101t-35.5 38q-26 0 -42.5 -12t-38.5 -56t-55 -135q-3 -6 -7.5 -7.5t-7.5 3t-1 12.5q42 134 111.5 215.5t164.5 81.5
q52 0 79 -29t26.5 -76.5t-14.5 -107.5l-78 -309q-82 -307 112 -307q58 0 112.5 22.5t107 69t97.5 129t75 192.5q15 57 21.5 111.5t3.5 103t-22.5 78t-54.5 29.5q-19 0 -38 -8.5t-29 -17t-24 -23.5t-17 -17q-6 -6 -6 2q0 3 2 7q33 70 96.5 113.5t130.5 43.5zM305 -395
q56 0 106.5 28t94.5 78t90.5 134.5t89 182.5t94.5 236q-99 -117 -233 -172q-82 -45 -138.5 -90.5t-88 -93t-46.5 -84t-28 -88.5q-13 -58 3.5 -94.5t55.5 -36.5z" />
    <glyph glyph-name="thorn" unicode="&#xfe;" horiz-adv-x="1052" 
d="M788 954q95 0 157 -58t77 -162.5t-31 -250.5q-43 -133 -136.5 -250.5t-214 -189.5t-234.5 -72q-46 0 -82.5 11.5t-57.5 28t-36 33.5t-25.5 28.5t-18.5 11.5q-12 0 -22 -21l-94 -292q-28 -95 -15 -131.5t66 -38.5q12 -2 4 -10q-5 -4 -10 -5q-72 4 -199 3.5t-199 -3.5
q1 0 0.5 7.5t6.5 7.5q55 0 92 39t69 133l461 1421q11 32 17 58.5t7.5 45t-1 31.5t-8 19t-13.5 6q-21 0 -49.5 -37.5t-50.5 -102.5q-6 -12 -14 -8q-4 3 -1 11q49 128 108 182.5t142 54.5q64 0 82 -51.5t-12 -136.5q-35 -111 -37 -117l-131 -401q-11 -56 -4 -58
q202 264 407 264zM782 332q33 100 39.5 194.5t-11 165t-61 113t-106.5 41.5q-91 -2 -177.5 -79t-137.5 -204l-60 -180q-48 -155 -8 -266t154 -111q141 0 227.5 80.5t140.5 245.5zM-283 -414z" />
    <glyph glyph-name="ydieresis" unicode="&#xff;" horiz-adv-x="1114" 
d="M561 1102q-40 0 -60.5 24t-8.5 58q12 39 53.5 66.5t91.5 27.5q41 0 61.5 -24.5t8.5 -57.5q-14 -39 -55 -66.5t-91 -27.5zM858 1102q-41 0 -62.5 24t-9.5 58q14 39 56 66.5t92 27.5q41 0 61.5 -24.5t8.5 -57.5q-14 -39 -55 -66.5t-91 -27.5zM942 954q33 0 61.5 -14t51 -49
t30.5 -87.5t-4 -137.5t-47 -191q-75 -226 -197 -430.5t-273.5 -339.5t-287.5 -135q-106 0 -151 54t-21 134q23 81 115.5 162t216.5 143q-16 -4 -43 -4q-37 0 -69.5 6.5t-63.5 21.5t-52 42.5t-33.5 65t-10.5 93t20 124.5l80 295q16 63 9.5 101t-35.5 38q-26 0 -42.5 -12
t-38.5 -56t-55 -135q-3 -6 -7.5 -7.5t-7.5 3t-1 12.5q42 134 111.5 215.5t164.5 81.5q52 0 79 -29t26.5 -76.5t-14.5 -107.5l-78 -309q-82 -307 112 -307q58 0 112.5 22.5t107 69t97.5 129t75 192.5q15 57 21.5 111.5t3.5 103t-22.5 78t-54.5 29.5q-19 0 -38 -8.5t-29 -17
t-24 -23.5t-17 -17q-6 -6 -6 2q0 3 2 7q33 70 96.5 113.5t130.5 43.5zM305 -395q56 0 106.5 28t94.5 78t90.5 134.5t89 182.5t94.5 236q-99 -117 -233 -172q-82 -45 -138.5 -90.5t-88 -93t-46.5 -84t-28 -88.5q-13 -58 3.5 -94.5t55.5 -36.5z" />
    <glyph glyph-name="Amacron" unicode="&#x100;" horiz-adv-x="1388" 
d="M1265 1581q15 0 14 -8q-1 -10 -21 -10h-469q-15 0 -14 8q1 10 21 10h469zM1213 8q10 0 10 -8q0 -6 -5 -6q-60 6 -80 6h-326q-36 0 -129 -6q-8 0 -8 6q-1 8 14 8q41 3 72.5 12t60 29.5t42.5 59.5t11 94l-14 278q-8 18 -45 2q-135 -62 -291 -99.5t-297 -45.5
q-41 -3 -63 -35l-4 -6l-2 -2l-80 -115q-25 -37 -29.5 -66t8 -47.5t37.5 -31.5t53.5 -19t61.5 -8q15 0 14 -8q0 -6 -8 -6q-99 6 -133 6h-129q-26 0 -80 -6q-8 0 -6 8q2 6 8 6q44 4 79.5 39t102.5 131l736 1053q21 35 24 72l-4 96q3 19 -16 26q-6 3 3 7l9 2h192q23 0 23 -21
l66 -1216q6 -100 38 -142t84 -47zM816 500q33 16 41 47l-35 702l-602 -866q-7 -12 -3 -22.5t17 -10.5q142 9 295.5 48t286.5 102z" />
    <glyph glyph-name="amacron" unicode="&#x101;" horiz-adv-x="1118" 
d="M596 1149q-13 0 -12 9q2 10 18 11h471q15 0 15 -9q-3 -10 -21 -11h-471zM989 600l-127 -385q-44 -137 12 -137q26 0 42.5 12t38.5 56t55 135q5 13 13 7q6 -5 3 -16q-42 -134 -111.5 -215.5t-164.5 -81.5q-52 0 -76.5 29t-23.5 74.5t22 107.5l2 9q5 31 -1 29l-3 -3
q-86 -116 -190.5 -184t-215.5 -68q-80 0 -135.5 38.5t-79.5 103.5t-22 150t32 177q45 137 142.5 256t220.5 189.5t240 70.5q47 0 88 -12.5t68.5 -31t50 -36.5t43 -30.5t38.5 -12.5q16 0 38.5 17.5t53.5 46t52 43.5q8 7 15 8.5t9.5 -3t-2.5 -15.5q-63 -139 -127 -328z
M729 365l59 178q18 66 20.5 130t-10.5 120t-54.5 90.5t-106.5 34.5q-263 0 -363 -316q-33 -100 -39.5 -196t11.5 -167.5t62 -115t106 -43.5q109 0 188.5 76.5t126.5 208.5z" />
    <glyph glyph-name="Abreve" unicode="&#x102;" horiz-adv-x="1388" 
d="M1308 1780q8 0 4 -11q-14 -41 -39 -83t-62.5 -83t-93 -66.5t-117.5 -25.5q-50 0 -84.5 18.5t-51 47t-22 64t-2 68t12.5 60.5q6 21 63 21q30 0 46.5 -3t20.5 -7t3 -11q-11 -32 -14 -66.5t2.5 -68.5t30 -56t65.5 -22q46 0 87 24t69 60.5t45 68t26 58.5q3 13 11 13zM1213 8
q10 0 10 -8q0 -6 -5 -6q-60 6 -80 6h-326q-36 0 -129 -6q-8 0 -8 6q-1 8 14 8q41 3 72.5 12t60 29.5t42.5 59.5t11 94l-14 278q-8 18 -45 2q-135 -62 -291 -99.5t-297 -45.5q-41 -3 -63 -35l-4 -6l-2 -2l-80 -115q-25 -37 -29.5 -66t8 -47.5t37.5 -31.5t53.5 -19t61.5 -8
q15 0 14 -8q0 -6 -8 -6q-99 6 -133 6h-129q-26 0 -80 -6q-8 0 -6 8q2 6 8 6q44 4 79.5 39t102.5 131l736 1053q21 35 24 72l-4 96q3 19 -16 26q-6 3 3 7l9 2h192q23 0 23 -21l66 -1216q6 -100 38 -142t84 -47zM816 500q33 16 41 47l-35 702l-602 -866q-7 -12 -3 -22.5
t17 -10.5q142 9 295.5 48t286.5 102z" />
    <glyph glyph-name="abreve" unicode="&#x103;" horiz-adv-x="1118" 
d="M797 1057q-61 0 -99 27.5t-50 70t-11 84t12 78.5q6 20 66 20q30 0 46 -3t19.5 -7t1.5 -12q-11 -31 -14 -65.5t2.5 -68t30 -55.5t65.5 -22q38 0 73 16.5t59.5 40t45 54t32 55t18.5 45.5q3 12 10 12q9 0 6 -10q-14 -41 -39 -83.5t-63 -83.5t-93.5 -67t-117.5 -26zM989 600
l-127 -385q-44 -137 12 -137q26 0 42.5 12t38.5 56t55 135q5 13 13 7q6 -5 3 -16q-42 -134 -111.5 -215.5t-164.5 -81.5q-52 0 -76.5 29t-23.5 74.5t22 107.5l2 9q5 31 -1 29l-3 -3q-86 -116 -190.5 -184t-215.5 -68q-80 0 -135.5 38.5t-79.5 103.5t-22 150t32 177
q45 137 142.5 256t220.5 189.5t240 70.5q47 0 88 -12.5t68.5 -31t50 -36.5t43 -30.5t38.5 -12.5q16 0 38.5 17.5t53.5 46t52 43.5q8 7 15 8.5t9.5 -3t-2.5 -15.5q-63 -139 -127 -328zM729 365l59 178q18 66 20.5 130t-10.5 120t-54.5 90.5t-106.5 34.5q-263 0 -363 -316
q-33 -100 -39.5 -196t11.5 -167.5t62 -115t106 -43.5q109 0 188.5 76.5t126.5 208.5z" />
    <glyph glyph-name="Aogonek" unicode="&#x104;" horiz-adv-x="1388" 
d="M1213 8q10 0 10 -8q0 -6 -5 -6q-60 6 -80 6h-60q-76 -57 -112 -100.5t-50 -89.5q-17 -52 -2.5 -78.5t54.5 -26.5q102 0 141 119q4 13 11 10q5 -1 3 -10q-29 -88 -95.5 -139.5t-152.5 -51.5q-63 0 -89.5 32.5t-6.5 90.5q42 130 279 244h-246q-36 0 -129 -6q-8 0 -8 6
q-1 8 14 8q41 3 72.5 12t60 29.5t42.5 59.5t11 94l-14 278q-8 18 -45 2q-135 -62 -291 -99.5t-297 -45.5q-41 -3 -63 -35l-4 -6l-2 -2l-80 -115q-25 -37 -29.5 -66t8 -47.5t37.5 -31.5t53.5 -19t61.5 -8q15 0 14 -8q0 -6 -8 -6q-99 6 -133 6h-129q-26 0 -80 -6q-8 0 -6 8
q2 6 8 6q44 4 79.5 39t102.5 131l736 1053q21 35 24 72l-4 96q3 19 -16 26q-6 3 3 7l9 2h192q23 0 23 -21l66 -1216q6 -100 38 -142t84 -47zM816 500q33 16 41 47l-35 702l-602 -866q-7 -12 -3 -22.5t17 -10.5q142 9 295.5 48t286.5 102z" />
    <glyph glyph-name="aogonek" unicode="&#x105;" horiz-adv-x="1118" 
d="M989 600l-127 -385q-44 -137 12 -137q26 0 42.5 12t38.5 56t55 135q5 13 13 7q6 -5 3 -16q-63 -199 -172 -266q-71 -55 -105 -98t-47 -86q-17 -52 -2.5 -78.5t54.5 -26.5q102 0 141 119q4 13 11 10q5 -1 3 -10q-29 -88 -95 -139t-152 -51q-63 0 -90 33t-7 90
q35 109 211 208q-8 -2 -26 -2q-52 0 -76.5 29t-23.5 74.5t22 107.5l2 9q5 31 -1 29l-3 -3q-86 -116 -190.5 -184t-215.5 -68q-80 0 -135.5 38.5t-79.5 103.5t-22 150t32 177q45 137 142.5 256t220.5 189.5t240 70.5q47 0 88 -12.5t68.5 -31t50 -36.5t43 -30.5t38.5 -12.5
q16 0 38.5 17.5t53.5 46t52 43.5q8 7 15 8.5t9.5 -3t-2.5 -15.5q-63 -139 -127 -328zM729 365l59 178q18 66 20.5 130t-10.5 120t-54.5 90.5t-106.5 34.5q-263 0 -363 -316q-33 -100 -39.5 -196t11.5 -167.5t62 -115t106 -43.5q109 0 188.5 76.5t126.5 208.5z" />
    <glyph glyph-name="Cacute" unicode="&#x106;" horiz-adv-x="1271" 
d="M889 1516q-10 1 -14 7.5t2 10.5q65 55 100.5 103.5t51 87t24.5 49.5q7 9 74.5 1t72.5 -30q6 -25 -61.5 -81.5t-146 -102t-103.5 -45.5zM1147 719q-5 -9 -10.5 -7.5t0.5 11.5q73 119 101.5 238t14.5 213q-13 113 -79 174t-164 61q-217 0 -385.5 -176.5t-249.5 -472.5
q-40 -171 -29 -296t65.5 -207.5t133 -123t174.5 -41.5q56 -1 121.5 10.5t161 56t174.5 117.5q17 14 16.5 6t-12.5 -18q-161 -150 -318.5 -222.5t-326.5 -72.5q-167 0 -279.5 90.5t-142.5 251t37 381.5q52 163 155.5 307.5t231 245.5t274.5 159t287 58q77 0 145 -18t113 -48
t75 -68t32 -79t-17 -80z" />
    <glyph glyph-name="cacute" unicode="&#x107;" horiz-adv-x="905" 
d="M637 1038q-10 0 -6 10q2 5 8 9q69 47 121.5 96.5t78.5 84.5t46 65t35 45.5t34 17.5q39 6 84 3t41 -15q-8 -28 -107.5 -105t-204 -142.5t-130.5 -68.5zM748 455q-7 -10 -13 -7t4 17q54 99 57 205t-45 175.5t-130 69.5q-253 0 -355 -319q-50 -161 -25 -278t99.5 -182.5
t175.5 -65.5q146 0 254 106q11 9 11 1q0 -4 -5 -9q-206 -197 -442 -197q-115 0 -193 59t-100.5 164.5t22.5 251.5q45 141 146 258t229.5 183.5t255.5 66.5q131 0 208 -59t40 -125z" />
    <glyph glyph-name="Ccircumflex" unicode="&#x108;" horiz-adv-x="1271" 
d="M743 1511q-7 -1 -7 5q2 6 9 10q66 29 117 67t78.5 70t52.5 60.5t53 44.5t66 16t55 -15.5t20.5 -43.5t7 -59.5t24.5 -70.5t63 -69q4 -2 4.5 -6t-3 -7t-9.5 -2q-46 5 -110 69t-81 126q-63 -63 -176 -127.5t-164 -67.5zM1147 719q-5 -9 -10.5 -7.5t0.5 11.5
q73 119 101.5 238t14.5 213q-13 113 -79 174t-164 61q-217 0 -385.5 -176.5t-249.5 -472.5q-40 -171 -29 -296t65.5 -207.5t133 -123t174.5 -41.5q56 -1 121.5 10.5t161 56t174.5 117.5q17 14 16.5 6t-12.5 -18q-161 -150 -318.5 -222.5t-326.5 -72.5q-167 0 -279.5 90.5
t-142.5 251t37 381.5q52 163 155.5 307.5t231 245.5t274.5 159t287 58q77 0 145 -18t113 -48t75 -68t32 -79t-17 -80z" />
    <glyph glyph-name="ccircumflex" unicode="&#x109;" horiz-adv-x="905" 
d="M969 1061q6 -5 3.5 -11.5t-11.5 -5.5q-47 5 -111.5 81.5t-79.5 148.5q-62 -74 -175 -149.5t-165 -80.5q-7 -1 -7 5q1 7 9 12q66 34 117 79t78.5 82.5t52.5 70.5t53 52t66 19t55 -18.5t20.5 -51t7 -69.5t24.5 -82.5t63 -81.5zM694 954q131 0 208 -59t40 -125l-194 -315
q-7 -10 -13 -7t4 17q54 99 57 205t-45 175.5t-130 69.5q-253 0 -355 -319q-50 -161 -25 -278t99.5 -182.5t175.5 -65.5q146 0 254 106q11 9 11 1q0 -4 -5 -9q-206 -197 -442 -197q-115 0 -193 59t-100.5 164.5t22.5 251.5q45 141 146 258t229.5 183.5t255.5 66.5z" />
    <glyph glyph-name="Cdotaccent" unicode="&#x10a;" horiz-adv-x="1271" 
d="M1038 1688q-56 0 -77 27t0 67q18 40 66.5 67t107.5 27q55 0 77.5 -27t4.5 -67q-19 -40 -69.5 -67t-109.5 -27zM1147 719q-5 -9 -10.5 -7.5t0.5 11.5q73 119 101.5 238t14.5 213q-13 113 -79 174t-164 61q-217 0 -385.5 -176.5t-249.5 -472.5q-40 -171 -29 -296
t65.5 -207.5t133 -123t174.5 -41.5q56 -1 121.5 10.5t161 56t174.5 117.5q17 14 16.5 6t-12.5 -18q-161 -150 -318.5 -222.5t-326.5 -72.5q-167 0 -279.5 90.5t-142.5 251t37 381.5q52 163 155.5 307.5t231 245.5t274.5 159t287 58q77 0 145 -18t113 -48t75 -68t32 -79
t-17 -80z" />
    <glyph glyph-name="cdotaccent" unicode="&#x10b;" horiz-adv-x="905" 
d="M717 1094q-41 0 -62.5 25t-9.5 59q14 39 56 66.5t92 27.5q41 0 61 -25t8 -59q-12 -39 -53.5 -66.5t-91.5 -27.5zM748 455q-7 -10 -13 -7t4 17q54 99 57 205t-45 175.5t-130 69.5q-253 0 -355 -319q-50 -161 -25 -278t99.5 -182.5t175.5 -65.5q146 0 254 106q11 9 11 1
q0 -4 -5 -9q-206 -197 -442 -197q-115 0 -193 59t-100.5 164.5t22.5 251.5q45 141 146 258t229.5 183.5t255.5 66.5q131 0 208 -59t40 -125z" />
    <glyph glyph-name="Ccaron" unicode="&#x10c;" horiz-adv-x="1271" 
d="M817 1772q-6 5 -3.5 10t11.5 4q46 -5 110 -69t81 -126q64 64 176 128t164 67q6 1 7 -3q0 -6 -9 -11q-66 -29 -117 -67t-78.5 -70t-52.5 -60.5t-53 -45t-66 -16.5t-55 16t-20.5 44t-7 59.5t-24.5 70.5t-63 69zM1147 719q-5 -9 -10.5 -7.5t0.5 11.5q73 119 101.5 238
t14.5 213q-13 113 -79 174t-164 61q-217 0 -385.5 -176.5t-249.5 -472.5q-40 -171 -29 -296t65.5 -207.5t133 -123t174.5 -41.5q56 -1 121.5 10.5t161 56t174.5 117.5q17 14 16.5 6t-12.5 -18q-161 -150 -318.5 -222.5t-326.5 -72.5q-167 0 -279.5 90.5t-142.5 251t37 381.5
q52 163 155.5 307.5t231 245.5t274.5 159t287 58q77 0 145 -18t113 -48t75 -68t32 -79t-17 -80z" />
    <glyph glyph-name="ccaron" unicode="&#x10d;" horiz-adv-x="905" 
d="M1063 1360q4 0 5.5 -3.5t-0.5 -8t-7 -7.5q-66 -34 -117 -78t-78.5 -81.5t-52.5 -70.5t-53 -52t-66 -19t-55 18.5t-20.5 51t-7.5 69.5t-25 82t-64 80q-6 5 -3 12t11 7q47 -6 111.5 -82t81.5 -148q62 74 175 149.5t165 80.5zM694 954q131 0 208 -59t40 -125l-194 -315
q-7 -10 -13 -7t4 17q54 99 57 205t-45 175.5t-130 69.5q-253 0 -355 -319q-50 -161 -25 -278t99.5 -182.5t175.5 -65.5q146 0 254 106q11 9 11 1q0 -4 -5 -9q-206 -197 -442 -197q-115 0 -193 59t-100.5 164.5t22.5 251.5q45 141 146 258t229.5 183.5t255.5 66.5z" />
    <glyph glyph-name="Dcaron" unicode="&#x10e;" horiz-adv-x="1359" 
d="M779 1772q-6 5 -3.5 10t11.5 4q46 -5 110 -69t81 -126q64 64 176 128t164 67q6 1 7 -3q0 -6 -9 -11q-66 -29 -117 -67t-78.5 -70t-52.5 -60.5t-53 -45t-66 -16.5t-55 16t-20.5 44t-7 59.5t-24.5 70.5t-63 69zM824 1442q164 0 284 -35t189.5 -97.5t100 -153t22.5 -198
t-49 -235.5q-69 -210 -202 -373.5t-329 -261.5t-423 -98q-52 0 -111 1.5t-141.5 4.5t-138.5 4q-12 -1 -51.5 -3t-51.5 -3q-6 0 -7 5q-1 7 11 9q65 3 112 44t79 141l340 1046q15 54 12.5 88.5t-25.5 55t-49 29t-59 9.5q-11 2 -11 9q2 5 7 6q13 0 52 -2t50 -2q95 2 225.5 6
t163.5 4zM1154 692q38 119 50.5 225.5t-5 200.5t-66.5 161.5t-140 106.5t-218 39q-34 0 -53 -22t-31 -60l-405 -1247q-20 -47 -2.5 -68.5t94.5 -21.5q145 0 270.5 53t220.5 148t166 216.5t119 268.5z" />
    <glyph glyph-name="dcaron" unicode="&#x10f;" horiz-adv-x="1105" 
d="M1270 1473q3 0 4.5 -0.5t6 -3.5t-0.5 -11q-50 -104 -147 -391l-283 -852q-41 -137 12 -137q26 0 42 12.5t38 55.5t55 135q3 7 8 8t8 -4t1 -13q-42 -133 -111.5 -215t-165.5 -82q-145 0 -78 211l5 13q2 6 2 12q0 16 -15 0l-4 -4q-185 -238 -383 -238q-94 0 -156.5 58
t-77.5 162t29 249q45 137 144 257t219 189.5t227 69.5q159 0 221 -131l136 404q13 57 -5 77.5t-61 12.5q-6 -1 -8.5 1.5t-1.5 6t2 4.5q206 57 338 144zM1421 1456q42 0 52 -13.5t-3 -47.5q-7 -25 -33 -62.5t-65 -106.5t-74 -165q-4 -11 -10 -9q-4 2 -2 9q27 96 35.5 170
t4.5 97t7 67q12 37 28.5 49t59.5 12zM412 80q199 0 313 305l35 100q21 77 27 151.5t-5 138.5t-48.5 103.5t-98.5 39.5q-257 0 -365 -326q-40 -135 -37.5 -249t51.5 -188.5t128 -74.5z" />
    <glyph glyph-name="Dcroat" unicode="&#x110;" horiz-adv-x="1359" 
d="M824 1442q164 0 284 -35t189.5 -97.5t100 -153t22.5 -198t-49 -235.5q-69 -210 -202 -373.5t-329 -261.5t-423 -98q-52 0 -111 1.5t-141.5 4.5t-138.5 4q-12 -1 -51.5 -3t-51.5 -3q-6 0 -7 5q-1 7 11 9q65 3 112 44t79 141l168 516h-138q-11 0 -6 9q3 7 11 7h137l168 514
q15 54 12.5 88.5t-25.5 55t-49 29t-59 9.5q-11 2 -11 9q2 5 7 6q13 0 52 -2t50 -2q95 2 225.5 6t163.5 4zM1154 692q38 119 50.5 225.5t-5 200.5t-66.5 161.5t-140 106.5t-218 39q-34 0 -53 -22t-31 -60l-201 -618h353q9 0 5 -9q-3 -7 -9 -7h-355l-198 -613
q-20 -47 -2.5 -68.5t94.5 -21.5q145 0 270.5 53t220.5 148t166 216.5t119 268.5z" />
    <glyph glyph-name="dcroat" unicode="&#x111;" horiz-adv-x="1105" 
d="M1286 1167q16 0 16 -9q-2 -10 -22 -11h-121q-4 -13 -13 -40t-13 -40l-283 -852q-41 -137 12 -137q26 0 42 12.5t38 55.5t55 135q3 7 8 8t8 -4t1 -13q-42 -133 -111.5 -215t-165.5 -82q-145 0 -78 211l5 13q2 6 2 12q0 16 -15 0l-4 -4q-185 -238 -383 -238
q-94 0 -156.5 58t-77.5 162t29 249q45 137 144 257t219 189.5t227 69.5q159 0 221 -131l109 324h-201q-16 0 -16 9q2 10 22 11h201l21 60q13 57 -5 77.5t-61 12.5q-6 -1 -8.5 1.5t-1.5 6t2 4.5q206 57 338 144q3 0 4.5 -0.5t6 -3.5t-0.5 -11q-43 -91 -113 -291h119zM412 80
q199 0 313 305l35 100q21 77 27 151.5t-5 138.5t-48.5 103.5t-98.5 39.5q-257 0 -365 -326q-40 -135 -37.5 -249t51.5 -188.5t128 -74.5z" />
    <glyph glyph-name="Emacron" unicode="&#x112;" horiz-adv-x="1167" 
d="M1157 1563h-469q-15 0 -15 8q3 9 21 10h469q15 0 15 -8q-3 -9 -21 -10zM27 0q-30 0 -105 -6q-8 0 -7 7t11 7q66 5 112.5 46t78.5 141l340 1046q16 42 13.5 73t-12 51t-30.5 33t-42.5 19t-47.5 8q-12 0 -13 8q0 7 7 7q81 -6 104 -6h576q104 0 202 11t101 11q32 0 18 -47
q-66 -233 -119 -494q-1 -14 -5.5 -13t-4.5 11q15 137 17 223t-5 122.5t-22 64.5q-33 59 -129.5 77.5t-302.5 18.5q-48 0 -70 -67l-172 -533q-8 -17 -3.5 -34t24.5 -17q139 0 176 6q49 8 93.5 50t115.5 163q6 12 11 10q1 -4 -1 -10q-49 -103 -89 -238t-56 -241
q-1 -8 -4 -10.5t-6 1t-3 11.5q6 126 -10 176.5t-59 61.5q-52 6 -172 6q-37 0 -56 -56l-190 -587q-35 -97 24 -97q213 0 342.5 24t200.5 79q63 47 125.5 138.5t144.5 256.5q11 23 17 21q4 -1 -4 -17q-102 -215 -201 -493q-10 -28 -20.5 -37t-26.5 -9q-13 -1 -45 4.5t-103 12
t-172 6.5h-546z" />
    <glyph glyph-name="emacron" unicode="&#x113;" horiz-adv-x="917" 
d="M924 1149h-471q-13 0 -12 9q2 10 18 11h471q15 0 15 -9q-3 -10 -21 -11zM317 -29q-170 0 -246 131t-8 344q70 217 249.5 362.5t373.5 145.5q138 0 200 -72.5t23 -195.5q-25 -76 -79 -134.5t-119.5 -93.5t-149.5 -57.5t-161.5 -30.5t-163.5 -8l2 17q384 -4 462 235
q41 132 9.5 213.5t-117.5 81.5q-118 0 -198.5 -73.5t-133.5 -237.5q-49 -161 -24 -278.5t98 -183.5t168 -66q125 0 243 106q6 -6 -6 -18q-93 -91 -204.5 -139t-217.5 -48z" />
    <glyph glyph-name="Ebreve" unicode="&#x114;" horiz-adv-x="1167" 
d="M815 1790q30 0 46.5 -3t20.5 -7t3 -11q-11 -32 -14 -66.5t2.5 -68.5t30 -56t65.5 -22q46 0 87 24t69 60.5t45 68t26 58.5q3 13 10 13q8 0 4 -11q-14 -42 -38.5 -83.5t-62.5 -82.5t-93 -66.5t-117 -25.5q-50 0 -84.5 18.5t-51 47t-22 64t-2 68t12.5 60.5q6 21 63 21zM27 0
q-30 0 -105 -6q-8 0 -7 7t11 7q66 5 112.5 46t78.5 141l340 1046q16 42 13.5 73t-12 51t-30.5 33t-42.5 19t-47.5 8q-12 0 -13 8q0 7 7 7q81 -6 104 -6h576q104 0 202 11t101 11q32 0 18 -47q-66 -233 -119 -494q-1 -14 -5.5 -13t-4.5 11q15 137 17 223t-5 122.5t-22 64.5
q-33 59 -129.5 77.5t-302.5 18.5q-48 0 -70 -67l-172 -533q-8 -17 -3.5 -34t24.5 -17q139 0 176 6q49 8 93.5 50t115.5 163q6 12 11 10q1 -4 -1 -10q-49 -103 -89 -238t-56 -241q-1 -8 -4 -10.5t-6 1t-3 11.5q6 126 -10 176.5t-59 61.5q-52 6 -172 6q-37 0 -56 -56
l-190 -587q-35 -97 24 -97q213 0 342.5 24t200.5 79q63 47 125.5 138.5t144.5 256.5q11 23 17 21q4 -1 -4 -17q-102 -215 -201 -493q-10 -28 -20.5 -37t-26.5 -9q-13 -1 -45 4.5t-103 12t-172 6.5h-546z" />
    <glyph glyph-name="ebreve" unicode="&#x115;" horiz-adv-x="917" 
d="M569 1337q31 0 46.5 -2.5t19.5 -7t2 -12.5q-11 -31 -14 -65.5t2.5 -68t30 -55.5t65.5 -22q47 0 88 23.5t68.5 60t44.5 68t26 59.5q3 12 10 12q10 0 7 -10q-14 -41 -39 -83.5t-63.5 -83.5t-94 -67t-117.5 -26q-61 0 -99 27.5t-49.5 70t-10.5 84t12 78.5q6 20 65 20z
M317 -29q-170 0 -246 131t-8 344q70 217 249.5 362.5t373.5 145.5q138 0 200 -72.5t23 -195.5q-25 -76 -79 -134.5t-119.5 -93.5t-149.5 -57.5t-161.5 -30.5t-163.5 -8l2 17q384 -4 462 235q41 132 9.5 213.5t-117.5 81.5q-118 0 -198.5 -73.5t-133.5 -237.5
q-49 -161 -24 -278.5t98 -183.5t168 -66q125 0 243 106q6 -6 -6 -18q-93 -91 -204.5 -139t-217.5 -48z" />
    <glyph glyph-name="Edotaccent" unicode="&#x116;" horiz-adv-x="1167" 
d="M954 1688q-56 0 -77 27t0 67q18 40 66.5 67t107.5 27q55 0 77.5 -27t4.5 -67q-19 -40 -69.5 -67t-109.5 -27zM27 0q-30 0 -105 -6q-8 0 -7 7t11 7q66 5 112.5 46t78.5 141l340 1046q16 42 13.5 73t-12 51t-30.5 33t-42.5 19t-47.5 8q-12 0 -13 8q0 7 7 7q81 -6 104 -6
h576q104 0 202 11t101 11q32 0 18 -47q-66 -233 -119 -494q-1 -14 -5.5 -13t-4.5 11q15 137 17 223t-5 122.5t-22 64.5q-33 59 -129.5 77.5t-302.5 18.5q-48 0 -70 -67l-172 -533q-8 -17 -3.5 -34t24.5 -17q139 0 176 6q49 8 93.5 50t115.5 163q6 12 11 10q1 -4 -1 -10
q-49 -103 -89 -238t-56 -241q-1 -8 -4 -10.5t-6 1t-3 11.5q6 126 -10 176.5t-59 61.5q-52 6 -172 6q-37 0 -56 -56l-190 -587q-35 -97 24 -97q213 0 342.5 24t200.5 79q63 47 125.5 138.5t144.5 256.5q11 23 17 21q4 -1 -4 -17q-102 -215 -201 -493q-10 -28 -20.5 -37
t-26.5 -9q-13 -1 -45 4.5t-103 12t-172 6.5h-546z" />
    <glyph glyph-name="edotaccent" unicode="&#x117;" horiz-adv-x="917" 
d="M674 1096q-41 0 -62.5 25t-9.5 59q14 39 56 66.5t92 27.5q41 0 61 -25t8 -59q-12 -39 -53.5 -66.5t-91.5 -27.5zM317 -29q-170 0 -246 131t-8 344q70 217 249.5 362.5t373.5 145.5q138 0 200 -72.5t23 -195.5q-25 -76 -79 -134.5t-119.5 -93.5t-149.5 -57.5t-161.5 -30.5
t-163.5 -8l2 17q384 -4 462 235q41 132 9.5 213.5t-117.5 81.5q-118 0 -198.5 -73.5t-133.5 -237.5q-49 -161 -24 -278.5t98 -183.5t168 -66q125 0 243 106q6 -6 -6 -18q-93 -91 -204.5 -139t-217.5 -48z" />
    <glyph glyph-name="Eogonek" unicode="&#x118;" horiz-adv-x="1167" 
d="M1315 1456q32 0 18 -47q-66 -233 -119 -494q-1 -14 -5.5 -13t-4.5 11q15 137 17 223t-5 122.5t-22 64.5q-33 59 -129.5 77.5t-302.5 18.5q-48 0 -70 -67l-172 -533q-8 -17 -3.5 -34t24.5 -17q139 0 176 6q49 8 93.5 50t115.5 163q6 12 11 10q1 -4 -1 -10
q-49 -103 -89 -238t-56 -241q-1 -8 -4 -10.5t-6 1t-3 11.5q6 126 -10 176.5t-59 61.5q-52 6 -172 6q-37 0 -56 -56l-190 -587q-35 -97 24 -97q213 0 342.5 24t200.5 79q63 47 125.5 138.5t144.5 256.5q11 23 17 21q4 -1 -4 -17q-102 -215 -201 -493q-10 -28 -20.5 -37
t-26.5 -9q-11 0 -62 7q-107 -84 -133 -168q-17 -52 -2.5 -78.5t54.5 -26.5q102 0 141 119q4 13 11 10q5 -1 3 -10q-29 -88 -95.5 -139t-152.5 -51q-63 0 -89.5 32.5t-6.5 89.5q40 119 242 226q-90 12 -230 12h-546q-30 0 -105 -6q-8 0 -7 7t11 7q66 5 112.5 46t78.5 141
l340 1046q16 42 13.5 73t-12 51t-30.5 33t-42.5 19t-47.5 8q-12 0 -13 8q0 7 7 7q81 -6 104 -6h576q104 0 202 11t101 11z" />
    <glyph glyph-name="eogonek" unicode="&#x119;" horiz-adv-x="917" 
d="M686 954q138 0 200 -72.5t23 -195.5q-25 -76 -79 -134.5t-119.5 -93.5t-149.5 -57.5t-161.5 -30.5t-163.5 -8l2 17q384 -4 462 235q41 132 9.5 213.5t-117.5 81.5q-118 0 -198.5 -73.5t-133.5 -237.5q-49 -161 -24 -278.5t98 -183.5t168 -66q125 0 243 106q6 -6 -6 -18
q-93 -90 -209 -142q-80 -58 -116.5 -102t-51.5 -92q-17 -52 -2.5 -78.5t54.5 -26.5q102 0 141 119q4 13 11 10q5 -1 3 -10q-29 -88 -95 -139t-152 -51q-63 0 -90 33t-7 90q40 122 244 225q-84 -23 -152 -23q-170 0 -246 131t-8 344q70 217 249.5 362.5t373.5 145.5z" />
    <glyph glyph-name="Ecaron" unicode="&#x11a;" horiz-adv-x="1167" 
d="M733 1772q-6 5 -3.5 10t11.5 4q46 -5 110 -69t81 -126q64 64 176 128t164 67q6 1 7 -3q0 -6 -9 -11q-66 -29 -117 -67t-78.5 -70t-52.5 -60.5t-53 -45t-66 -16.5t-55 16t-20.5 44t-7 59.5t-24.5 70.5t-63 69zM1315 1456q32 0 18 -47q-66 -233 -119 -494q-1 -14 -5.5 -13
t-4.5 11q15 137 17 223t-5 122.5t-22 64.5q-33 59 -129.5 77.5t-302.5 18.5q-48 0 -70 -67l-172 -533q-8 -17 -3.5 -34t24.5 -17q139 0 176 6q49 8 93.5 50t115.5 163q6 12 11 10q1 -4 -1 -10q-49 -103 -89 -238t-56 -241q-1 -8 -4 -10.5t-6 1t-3 11.5q6 126 -10 176.5
t-59 61.5q-52 6 -172 6q-37 0 -56 -56l-190 -587q-35 -97 24 -97q213 0 342.5 24t200.5 79q63 47 125.5 138.5t144.5 256.5q11 23 17 21q4 -1 -4 -17q-102 -215 -201 -493q-10 -28 -20.5 -37t-26.5 -9q-13 -1 -45 4.5t-103 12t-172 6.5h-546q-30 0 -105 -6q-8 0 -7 7t11 7
q66 5 112.5 46t78.5 141l340 1046q16 42 13.5 73t-12 51t-30.5 33t-42.5 19t-47.5 8q-12 0 -13 8q0 7 7 7q81 -6 104 -6h576q104 0 202 11t101 11z" />
    <glyph glyph-name="ecaron" unicode="&#x11b;" horiz-adv-x="917" 
d="M1020 1362q4 0 5.5 -3.5t-0.5 -8t-7 -7.5q-66 -34 -117 -78t-78.5 -81.5t-52.5 -70.5t-53 -52t-66 -19t-55 18.5t-20.5 51t-7.5 69.5t-25 82t-64 80q-6 5 -3 12t11 7q47 -6 111.5 -81.5t81.5 -147.5q62 74 175 149t165 80zM686 954q138 0 200 -72.5t23 -195.5
q-25 -76 -79 -134.5t-119.5 -93.5t-149.5 -57.5t-161.5 -30.5t-163.5 -8l2 17q384 -4 462 235q41 132 9.5 213.5t-117.5 81.5q-118 0 -198.5 -73.5t-133.5 -237.5q-49 -161 -24 -278.5t98 -183.5t168 -66q125 0 243 106q6 -6 -6 -18q-93 -91 -204.5 -139t-217.5 -48
q-170 0 -246 131t-8 344q70 217 249.5 362.5t373.5 145.5z" />
    <glyph glyph-name="Gcircumflex" unicode="&#x11c;" horiz-adv-x="1304" 
d="M799 1511q-7 -1 -7 5q2 6 9 10q66 29 117 67t78.5 70t52 60.5t52.5 44.5t66 16t55 -15.5t20.5 -43.5t7 -59.5t24.5 -70.5t63 -69q4 -2 4.5 -6t-3 -7t-9.5 -2q-46 5 -109.5 69t-80.5 126q-63 -63 -176 -127.5t-164 -67.5zM1167 745q-7 -10 -13.5 -9.5t3.5 14.5
q78 114 106.5 225t6.5 203q-17 110 -91 167.5t-182 57.5q-440 0 -602 -502q-82 -264 -60 -458t115.5 -304t225.5 -110q58 0 106 7t98.5 25t92 55.5t69.5 92.5q21 62 64 319q-2 54 -61.5 84t-208.5 47q-14 2 -4 11q5 4 10 4q226 -18 454 6q27 3 35.5 -0.5t3.5 -15.5
q-3 -9 -17.5 -30.5t-25.5 -55.5q-20 -54 -56 -160t-50 -146q-10 -29 -35 -49q-281 -254 -616 -254q-168 0 -281 89t-144.5 249t37.5 381q54 166 158.5 311.5t232.5 245t272.5 156.5t279.5 57q69 0 129.5 -12t104 -33t77 -48.5t47.5 -58.5t16.5 -64t-16.5 -64z" />
    <glyph glyph-name="gcircumflex" unicode="&#x11d;" horiz-adv-x="1054" 
d="M446 1047q-6 -1 -6 4q0 7 9 12q66 34 117 79t78.5 82.5t52 70.5t52.5 52t66 19t55 -18.5t20.5 -51t7 -69.5t24.5 -82.5t63 -81.5q6 -5 3.5 -11t-11.5 -5q-47 5 -111.5 81t-79.5 148q-62 -74 -175 -149t-165 -80zM1083 938q11 14 17.5 11.5t-0.5 -19.5q-69 -152 -127 -330
q-10 -31 -70.5 -216t-91.5 -284q-35 -108 -91.5 -198t-121.5 -150t-138.5 -102t-142.5 -61t-133 -19q-111 0 -160.5 54.5t-25.5 133.5q25 82 110.5 155.5t206.5 133.5q-28 -4 -45 -4q-79 0 -133 34.5t-76.5 93t-20.5 134.5t30 160q46 141 139 254t207.5 174t226.5 61
q47 0 87.5 -14.5t67.5 -35t50.5 -40.5t45.5 -34.5t42 -14.5q8 0 18 4t22 13t21.5 16.5t24 22.5t21 22.5t22 24t18.5 20.5zM272 612q-30 -91 -36 -173.5t11 -145t61 -100t110 -37.5q226 0 330 321l8 23l-2 -2q25 76 29 152t-11.5 135t-53.5 96t-93 37q-141 0 -221 -73.5
t-132 -232.5zM586 -18l67 206q33 107 27 106q-1 0 -4 -3q-126 -165 -277 -223q-113 -61 -164 -120t-83 -155q-26 -92 -3 -140t80 -48q121 0 208 90.5t149 286.5z" />
    <glyph glyph-name="Gbreve" unicode="&#x11e;" horiz-adv-x="1304" 
d="M952 1790q30 0 46.5 -3t20.5 -7t3 -11q-11 -32 -14 -66.5t2.5 -68.5t30 -56t65.5 -22q46 0 87 24t69 60.5t45 68t26 58.5q3 13 10 13q9 0 5 -11q-14 -41 -39 -83t-62.5 -83t-93 -66.5t-117.5 -25.5q-50 0 -84.5 18.5t-51 47t-22 64t-2 68t12.5 60.5q6 21 63 21zM535 -31
q-168 0 -281 89t-144.5 249t37.5 381q54 166 158.5 311.5t232.5 245t272.5 156.5t279.5 57q69 0 129.5 -12t104 -33t77 -48.5t47.5 -58.5t16.5 -64t-16.5 -64l-281 -433q-7 -10 -13.5 -9.5t3.5 14.5q78 114 106.5 225t6.5 203q-17 110 -91 167.5t-182 57.5q-440 0 -602 -502
q-82 -264 -60 -458t115.5 -304t225.5 -110q58 0 106 7t98.5 25t92 55.5t69.5 92.5q21 62 64 319q-2 54 -61.5 84t-208.5 47q-14 2 -4 11q5 4 10 4q226 -18 454 6q27 3 35.5 -0.5t3.5 -15.5q-3 -9 -17.5 -30.5t-25.5 -55.5q-20 -54 -56 -160t-50 -146q-10 -29 -35 -49
q-281 -254 -616 -254z" />
    <glyph glyph-name="gbreve" unicode="&#x11f;" horiz-adv-x="1054" 
d="M711 1057q-61 0 -99 27.5t-50 70t-11 84t12 78.5q6 20 66 20q30 0 46 -3t19.5 -7t1.5 -12q-11 -31 -14 -65.5t2.5 -68t30 -55.5t65.5 -22q38 0 73 16.5t59.5 40t45 54t32 55t18.5 45.5q3 12 10 12q9 0 6 -10q-14 -41 -39 -83.5t-63 -83.5t-93.5 -67t-117.5 -26zM1083 938
q11 14 17.5 11.5t-0.5 -19.5q-69 -152 -127 -330q-10 -31 -70.5 -216t-91.5 -284q-35 -108 -91.5 -198t-121.5 -150t-138.5 -102t-142.5 -61t-133 -19q-111 0 -160.5 54.5t-25.5 133.5q25 82 110.5 155.5t206.5 133.5q-28 -4 -45 -4q-79 0 -133 34.5t-76.5 93t-20.5 134.5
t30 160q46 141 139 254t207.5 174t226.5 61q47 0 87.5 -14.5t67.5 -35t50.5 -40.5t45.5 -34.5t42 -14.5q8 0 18 4t22 13t21.5 16.5t24 22.5t21 22.5t22 24t18.5 20.5zM272 612q-30 -91 -36 -173.5t11 -145t61 -100t110 -37.5q226 0 330 321l8 23l-2 -2q25 76 29 152
t-11.5 135t-53.5 96t-93 37q-141 0 -221 -73.5t-132 -232.5zM586 -18l67 206q33 107 27 106q-1 0 -4 -3q-126 -165 -277 -223q-113 -61 -164 -120t-83 -155q-26 -92 -3 -140t80 -48q121 0 208 90.5t149 286.5z" />
    <glyph glyph-name="Gdotaccent" unicode="&#x120;" horiz-adv-x="1304" 
d="M1092 1688q-56 0 -77.5 27t-0.5 67q18 40 66.5 67t107.5 27q55 0 77.5 -27t4.5 -67q-19 -40 -69 -67t-109 -27zM535 -31q-168 0 -281 89t-144.5 249t37.5 381q54 166 158.5 311.5t232.5 245t272.5 156.5t279.5 57q69 0 129.5 -12t104 -33t77 -48.5t47.5 -58.5t16.5 -64
t-16.5 -64l-281 -433q-7 -10 -13.5 -9.5t3.5 14.5q78 114 106.5 225t6.5 203q-17 110 -91 167.5t-182 57.5q-440 0 -602 -502q-82 -264 -60 -458t115.5 -304t225.5 -110q58 0 106 7t98.5 25t92 55.5t69.5 92.5q21 62 64 319q-2 54 -61.5 84t-208.5 47q-14 2 -4 11q5 4 10 4
q226 -18 454 6q27 3 35.5 -0.5t3.5 -15.5q-3 -9 -17.5 -30.5t-25.5 -55.5q-20 -54 -56 -160t-50 -146q-10 -29 -35 -49q-281 -254 -616 -254z" />
    <glyph glyph-name="gdotaccent" unicode="&#x121;" horiz-adv-x="1054" 
d="M733 1096q-41 0 -62 25t-9 59q14 39 55.5 66.5t91.5 27.5q41 0 61.5 -25t8.5 -59q-12 -39 -54 -66.5t-92 -27.5zM1083 938q11 14 17.5 11.5t-0.5 -19.5q-69 -152 -127 -330q-10 -31 -70.5 -216t-91.5 -284q-35 -108 -91.5 -198t-121.5 -150t-138.5 -102t-142.5 -61
t-133 -19q-111 0 -160.5 54.5t-25.5 133.5q25 82 110.5 155.5t206.5 133.5q-28 -4 -45 -4q-79 0 -133 34.5t-76.5 93t-20.5 134.5t30 160q46 141 139 254t207.5 174t226.5 61q47 0 87.5 -14.5t67.5 -35t50.5 -40.5t45.5 -34.5t42 -14.5q8 0 18 4t22 13t21.5 16.5t24 22.5
t21 22.5t22 24t18.5 20.5zM272 612q-30 -91 -36 -173.5t11 -145t61 -100t110 -37.5q226 0 330 321l8 23l-2 -2q25 76 29 152t-11.5 135t-53.5 96t-93 37q-141 0 -221 -73.5t-132 -232.5zM586 -18l67 206q33 107 27 106q-1 0 -4 -3q-126 -165 -277 -223q-113 -61 -164 -120
t-83 -155q-26 -92 -3 -140t80 -48q121 0 208 90.5t149 286.5z" />
    <glyph glyph-name="uni0122" unicode="&#x122;" horiz-adv-x="1304" 
d="M535 -31q-168 0 -281 89t-144.5 249t37.5 381q54 166 158.5 311.5t232.5 245t272.5 156.5t279.5 57q69 0 129.5 -12t104 -33t77 -48.5t47.5 -58.5t16.5 -64t-16.5 -64l-281 -433q-7 -10 -13.5 -9.5t3.5 14.5q78 114 106.5 225t6.5 203q-17 110 -91 167.5t-182 57.5
q-440 0 -602 -502q-82 -264 -60 -458t115.5 -304t225.5 -110q58 0 106 7t98.5 25t92 55.5t69.5 92.5q21 62 64 319q-2 54 -61.5 84t-208.5 47q-14 2 -4 11q5 4 10 4q226 -18 454 6q27 3 35.5 -0.5t3.5 -15.5q-3 -9 -17.5 -30.5t-25.5 -55.5q-20 -54 -56 -160t-50 -146
q-10 -29 -35 -49q-281 -254 -616 -254zM315 -487q-11 -6 -10.5 -1t12.5 11q144 70 179 178q8 22 -13 30.5t-49.5 9.5t-47.5 16t-9 48q10 30 55 59t96 30q62 1 81 -29t5 -74q-28 -86 -122 -165.5t-177 -112.5z" />
    <glyph glyph-name="uni0123" unicode="&#x123;" horiz-adv-x="1054" 
d="M721 1094q-62 -1 -81 28.5t-5 73.5q28 85 122 165.5t177 113.5q9 5 10 1q2 -5 -10 -12q-144 -69 -180 -178q-8 -22 13 -30.5t49.5 -9.5t47.5 -16t8 -48q-10 -30 -55 -58.5t-96 -29.5zM1083 938q11 14 17.5 11.5t-0.5 -19.5q-69 -152 -127 -330q-10 -31 -70.5 -216
t-91.5 -284q-35 -108 -91.5 -198t-121.5 -150t-138.5 -102t-142.5 -61t-133 -19q-111 0 -160.5 54.5t-25.5 133.5q25 82 110.5 155.5t206.5 133.5q-28 -4 -45 -4q-79 0 -133 34.5t-76.5 93t-20.5 134.5t30 160q46 141 139 254t207.5 174t226.5 61q47 0 87.5 -14.5t67.5 -35
t50.5 -40.5t45.5 -34.5t42 -14.5q8 0 18 4t22 13t21.5 16.5t24 22.5t21 22.5t22 24t18.5 20.5zM272 612q-30 -91 -36 -173.5t11 -145t61 -100t110 -37.5q226 0 330 321l8 23l-2 -2q25 76 29 152t-11.5 135t-53.5 96t-93 37q-141 0 -221 -73.5t-132 -232.5zM586 -18l67 206
q33 107 27 106q-1 0 -4 -3q-126 -165 -277 -223q-113 -61 -164 -120t-83 -155q-26 -92 -3 -140t80 -48q121 0 208 90.5t149 286.5z" />
    <glyph glyph-name="Hcircumflex" unicode="&#x124;" horiz-adv-x="1466" 
d="M827 1511q-7 -1 -7 5q2 6 9 10q66 29 117 67t78.5 70t52.5 60.5t53 44.5t66 16t55 -15.5t20.5 -43.5t7 -59.5t24.5 -70.5t63 -69q4 -2 4.5 -6t-3 -7t-9.5 -2q-46 5 -110 69t-81 126q-63 -63 -176 -127.5t-164 -67.5zM1708 1440q9 0 7 -8q-2 -7 -11 -7
q-66 -5 -112.5 -45.5t-78.5 -140.5l-339 -1046q-14 -53 -11.5 -87.5t25 -55.5t48 -30.5t58.5 -11.5q12 0 11 -8q-1 -6 -7 -6q-75 6 -104 6h-307q-27 0 -96 -6q-8 0 -7 7t11 7q60 5 103 46t75 141l192 593q0 19 -28 7q-346 -145 -648 -160q-23 -3 -36 -29l-136 -413
q-14 -53 -12.5 -87.5t22.5 -55.5t45 -30.5t56 -11.5q10 0 10 -8q-1 -6 -6 -6q-75 6 -98 6h-307q-30 0 -105 -6q-8 0 -7 7t11 7q66 5 112.5 46t78.5 141l340 1046q16 42 13.5 73t-12 51t-30.5 33t-42.5 19t-47.5 8q-12 0 -13 8q0 7 7 7q81 -6 104 -6h309q22 0 97 6q9 0 7 -8
q-2 -7 -11 -7q-60 -5 -104 -45.5t-77 -140.5l-184 -567q0 -12 5 -18t16 -5q301 16 647 162q31 13 43 35l129 395q14 53 12.5 87.5t-22.5 55.5t-44.5 29.5t-54.5 11.5q-11 0 -11 8q0 7 7 7q69 -6 96 -6h308q29 0 104 6z" />
    <glyph glyph-name="hcircumflex" unicode="&#x125;" horiz-adv-x="1091" 
d="M1139 1528q4 -2 4 -6t-3.5 -7t-9.5 -2q-46 5 -109.5 69t-80.5 126q-63 -63 -176 -127.5t-164 -67.5q-7 -1 -7 5q2 6 9 10q66 29 117 67t78.5 70t52.5 60.5t53 44.5t66 16t55 -15.5t20.5 -43.5t7 -59.5t24.5 -70.5t63 -69zM989 281q3 7 8.5 8t8.5 -4t0 -13
q-42 -133 -111.5 -215t-165.5 -82q-145 0 -78 211l123 379q52 161 27 243.5t-125 82.5q-87 0 -175.5 -78.5t-148.5 -241.5l-127 -391q-4 -8 -13 -36t-19 -59.5t-13 -39.5q-11 -33 -42 -44t-87 -11h-49q-25 0 -16 24q12 36 24.5 75t20 62t10.5 31l356 1073q13 57 -5.5 78
t-61.5 13q-6 -1 -8.5 1.5t-1.5 6t2 4.5q207 57 337 143q11 0 12 -6q1 -3 -1 -8q-53 -111 -148 -391l-127 -394q66 114 165.5 186.5t207.5 72.5q149 0 199.5 -101.5t-13.5 -304.5l-112 -340q-41 -137 14 -137q25 0 41.5 12.5t38.5 56.5t53 134z" />
    <glyph glyph-name="Hbar" unicode="&#x126;" horiz-adv-x="1466" 
d="M1708 1440q9 0 7 -8q-2 -7 -11 -7q-66 -5 -112.5 -45.5t-78.5 -140.5l-59 -180h86q8 0 9 -5q-3 -8 -13 -10h-86l-276 -851q-14 -53 -11.5 -87.5t25 -55.5t48 -30.5t58.5 -11.5q12 0 11 -8q-1 -6 -7 -6q-75 6 -104 6h-307q-27 0 -96 -6q-8 0 -7 7t11 7q60 5 103 46t75 141
l192 593q0 19 -28 7q-346 -145 -648 -160q-23 -3 -36 -29l-136 -413q-14 -53 -12.5 -87.5t22.5 -55.5t45 -30.5t56 -11.5q10 0 10 -8q-1 -6 -6 -6q-75 6 -98 6h-307q-30 0 -105 -6q-8 0 -7 7t11 7q66 5 112.5 46t78.5 141l276 849h-92q-10 0 -7 8q4 6 11 7h92l60 182
q16 42 13.5 73t-12 51t-30.5 33t-42.5 19t-47.5 8q-12 0 -13 8q0 7 7 7q81 -6 104 -6h309q22 0 97 6q9 0 7 -8q-2 -7 -11 -7q-60 -5 -104 -45.5t-77 -140.5l-59 -180h655l60 182q14 53 12.5 87.5t-22.5 55.5t-44.5 29.5t-54.5 11.5q-11 0 -11 8q0 7 7 7q69 -6 96 -6h308
q29 0 104 6zM1184 846l65 198h-655l-121 -372q0 -12 5 -18t16 -5q301 16 647 162q31 13 43 35z" />
    <glyph glyph-name="hbar" unicode="&#x127;" horiz-adv-x="1091" 
d="M989 281q3 7 8.5 8t8.5 -4t0 -13q-42 -133 -111.5 -215t-165.5 -82q-145 0 -78 211l123 379q52 161 27 243.5t-125 82.5q-87 0 -175.5 -78.5t-148.5 -241.5l-127 -391q-4 -8 -13 -36t-19 -59.5t-13 -39.5q-11 -33 -42 -44t-87 -11h-49q-25 0 -16 24q12 36 24.5 75t20 62
t10.5 31l319 965h-135q-16 0 -16 9q2 10 22 11h138l28 88q13 57 -5.5 78t-61.5 13q-6 -1 -8.5 1.5t-1.5 6t2 4.5q207 57 337 143q11 0 12 -6q1 -3 -1 -8q-47 -97 -123 -320h186q16 0 16 -9q-2 -10 -22 -11h-188q-4 -17 -17 -51l-127 -394q66 114 165.5 186.5t207.5 72.5
q149 0 199.5 -101.5t-13.5 -304.5l-112 -340q-41 -137 14 -137q25 0 41.5 12.5t38.5 56.5t53 134z" />
    <glyph glyph-name="Itilde" unicode="&#x128;" horiz-adv-x="610" 
d="M369 1546q-9 -14 -16 -12q-5 2 3 14q57 91 116.5 135.5t116.5 43.5t118 -29l65 -33q134 -67 234 61q11 13 16 10q4 -2 -4 -14q-82 -128 -165 -164.5t-183 13.5l-72 33q-74 45 -126.5 34t-102.5 -92zM457 1241q16 42 13.5 73t-12 51t-30.5 33t-42.5 19t-47.5 8
q-12 0 -13 8q0 7 7 7q81 -6 104 -6h314q23 0 104 6q7 0 7 -7q-1 -8 -13 -8q-66 -5 -112 -45t-79 -141l-338 -1046q-16 -42 -13.5 -73t12 -51.5t30.5 -33.5t42.5 -19t47.5 -8q11 0 11.5 -7t-7.5 -7q-75 6 -102 6h-313q-30 0 -105 -6q-8 0 -7 7t11 7q66 5 112.5 46t78.5 141z
" />
    <glyph glyph-name="itilde" unicode="&#x129;" horiz-adv-x="526" 
d="M139 1130q-10 -16 -16 -11q-2 5 4 14q57 91 117 135t116.5 42.5t116.5 -28.5l66 -33q132 -69 233 62q11 13 16 10q3 -4 -4 -16q-82 -127 -165 -164t-183 12l-71 35q-55 28 -90.5 34t-70.5 -15t-69 -77zM276 215q-41 -137 15 -137q25 0 41 12t38.5 56.5t53.5 134.5
q6 13 14 7q6 -5 2 -16q-42 -134 -111.5 -215.5t-164.5 -81.5q-145 0 -78 211l172 525q43 135 -12 135q-26 0 -42 -12t-38 -56t-53 -135q-5 -10 -13 -7.5t-4 15.5q42 134 111 215.5t166 81.5q52 0 76 -29t22.5 -74.5t-22.5 -107.5z" />
    <glyph glyph-name="Imacron" unicode="&#x12a;" horiz-adv-x="610" 
d="M901 1563h-469q-15 0 -15 8q3 9 21 10h469q15 0 15 -8q-3 -9 -21 -10zM457 1241q16 42 13.5 73t-12 51t-30.5 33t-42.5 19t-47.5 8q-12 0 -13 8q0 7 7 7q81 -6 104 -6h314q23 0 104 6q7 0 7 -7q-1 -8 -13 -8q-66 -5 -112 -45t-79 -141l-338 -1046q-16 -42 -13.5 -73
t12 -51.5t30.5 -33.5t42.5 -19t47.5 -8q11 0 11.5 -7t-7.5 -7q-75 6 -102 6h-313q-30 0 -105 -6q-8 0 -7 7t11 7q66 5 112.5 46t78.5 141z" />
    <glyph glyph-name="imacron" unicode="&#x12b;" horiz-adv-x="526" 
d="M672 1149h-471q-13 0 -12 9q2 10 18 11h471q15 0 15 -9q-3 -10 -21 -11zM276 215q-41 -137 15 -137q25 0 41 12t38.5 56.5t53.5 134.5q6 13 14 7q6 -5 2 -16q-42 -134 -111.5 -215.5t-164.5 -81.5q-145 0 -78 211l172 525q43 135 -12 135q-26 0 -42 -12t-38 -56t-53 -135
q-5 -10 -13 -7.5t-4 15.5q42 134 111 215.5t166 81.5q52 0 76 -29t22.5 -74.5t-22.5 -107.5z" />
    <glyph glyph-name="Ibreve" unicode="&#x12c;" horiz-adv-x="610" 
d="M557 1790q30 0 46.5 -3t20.5 -7t3 -11q-11 -32 -14 -66.5t2.5 -68.5t30 -56t65.5 -22q46 0 87 24t69 60.5t45 68t26 58.5q3 13 10 13q8 0 4 -11q-14 -42 -38.5 -83.5t-62.5 -82.5t-93 -66.5t-117 -25.5q-50 0 -84.5 18.5t-51 47t-22 64t-2 68t12.5 60.5q6 21 63 21z
M457 1241q16 42 13.5 73t-12 51t-30.5 33t-42.5 19t-47.5 8q-12 0 -13 8q0 7 7 7q81 -6 104 -6h314q23 0 104 6q7 0 7 -7q-1 -8 -13 -8q-66 -5 -112 -45t-79 -141l-338 -1046q-16 -42 -13.5 -73t12 -51.5t30.5 -33.5t42.5 -19t47.5 -8q11 0 11.5 -7t-7.5 -7q-75 6 -102 6
h-313q-30 0 -105 -6q-8 0 -7 7t11 7q66 5 112.5 46t78.5 141z" />
    <glyph glyph-name="ibreve" unicode="&#x12d;" horiz-adv-x="526" 
d="M317 1337q31 0 46.5 -2.5t19.5 -7t2 -12.5q-11 -31 -14 -65.5t2.5 -68t30 -55.5t65.5 -22q47 0 88 23.5t68.5 60t44.5 68t26 59.5q3 12 11 12q9 0 6 -10q-14 -41 -39 -83.5t-63.5 -83.5t-94 -67t-117.5 -26q-61 0 -99 27.5t-49.5 70t-10.5 84t12 78.5q6 20 65 20z
M276 215q-41 -137 15 -137q25 0 41 12t38.5 56.5t53.5 134.5q6 13 14 7q6 -5 2 -16q-42 -134 -111.5 -215.5t-164.5 -81.5q-145 0 -78 211l172 525q43 135 -12 135q-26 0 -42 -12t-38 -56t-53 -135q-5 -10 -13 -7.5t-4 15.5q42 134 111 215.5t166 81.5q52 0 76 -29
t22.5 -74.5t-22.5 -107.5z" />
    <glyph glyph-name="Iogonek" unicode="&#x12e;" horiz-adv-x="610" 
d="M854 1440q7 0 7 -7q-1 -8 -13 -8q-66 -5 -112 -45t-79 -141l-338 -1046q-16 -42 -13.5 -73t12 -51.5t30.5 -33.5t42.5 -19t47.5 -8q11 0 11.5 -7t-7.5 -7q-75 6 -102 6h-143q-82 -60 -119.5 -105.5t-52.5 -93.5q-17 -53 -3 -78.5t54 -25.5q102 0 141 119q4 13 11 10
q5 -1 3 -10q-29 -88 -95 -139.5t-152 -51.5q-63 0 -90 32.5t-9 90.5q46 131 297 252h-155q-30 0 -105 -6q-8 0 -7 7t11 7q66 5 112.5 46t78.5 141l340 1046q16 42 13.5 73t-12 51t-30.5 33t-42.5 19t-47.5 8q-12 0 -13 8q0 7 7 7q81 -6 104 -6h314q23 0 104 6z" />
    <glyph glyph-name="iogonek" unicode="&#x12f;" horiz-adv-x="526" 
d="M520 1384q54 0 77 -27.5t5 -66.5q-21 -41 -70.5 -68.5t-107.5 -27.5q-56 0 -77.5 27.5t-2.5 68.5q19 39 68.5 66.5t107.5 27.5zM373 948q52 0 76 -29t22.5 -74.5t-22.5 -107.5l-173 -522q-41 -137 15 -137q25 0 41 12t38.5 56.5t53.5 134.5q6 13 14 7q6 -5 2 -16
q-80 -253 -229 -290q-83 -75 -105 -146q-17 -52 -2.5 -78t54.5 -26q102 0 141 118q4 13 11 10q5 -1 3 -10q-29 -88 -95 -139t-152 -51q-63 0 -90 32.5t-9 90.5q36 101 187 192q-131 8 -68 211l172 525q43 135 -12 135q-26 0 -42 -12t-38 -56t-53 -135q-5 -10 -13 -7.5
t-4 15.5q42 134 111 215.5t166 81.5z" />
    <glyph glyph-name="Idotaccent" unicode="&#x130;" horiz-adv-x="610" 
d="M696 1688q-56 0 -77.5 27t-0.5 67q17 40 66.5 67t108.5 27q55 0 77 -27t4 -67q-19 -40 -69 -67t-109 -27zM457 1241q16 42 13.5 73t-12 51t-30.5 33t-42.5 19t-47.5 8q-12 0 -13 8q0 7 7 7q81 -6 104 -6h314q23 0 104 6q7 0 7 -7q-1 -8 -13 -8q-66 -5 -112 -45t-79 -141
l-338 -1046q-16 -42 -13.5 -73t12 -51.5t30.5 -33.5t42.5 -19t47.5 -8q11 0 11.5 -7t-7.5 -7q-75 6 -102 6h-313q-30 0 -105 -6q-8 0 -7 7t11 7q66 5 112.5 46t78.5 141z" />
    <glyph glyph-name="dotlessi" unicode="&#x131;" horiz-adv-x="526" 
d="M276 215q-41 -137 15 -137q25 0 41 12t38.5 56.5t53.5 134.5q6 13 14 7q6 -5 2 -16q-42 -134 -111.5 -215.5t-164.5 -81.5q-145 0 -78 211l172 525q43 135 -12 135q-26 0 -42 -12t-38 -56t-53 -135q-5 -10 -13 -7.5t-4 15.5q42 134 111 215.5t166 81.5q52 0 76 -29
t22.5 -74.5t-22.5 -107.5z" />
    <glyph glyph-name="IJ" unicode="&#x132;" horiz-adv-x="1607" 
d="M457 1241q16 42 13.5 73t-12 51t-30.5 33t-42.5 19t-47.5 8q-12 0 -13 8q0 7 7 7q81 -6 104 -6h314q23 0 104 6q7 0 7 -7q-1 -8 -13 -8q-66 -5 -112 -45t-79 -141l-338 -1046q-16 -42 -13.5 -73t12 -51.5t30.5 -33.5t42.5 -19t47.5 -8q11 0 11.5 -7t-7.5 -7q-75 6 -102 6
h-313q-30 0 -105 -6q-8 0 -7 7t11 7q66 5 112.5 46t78.5 141zM887 -31q-87 0 -150 26.5t-92.5 71.5t-37 103.5t15.5 122.5q19 58 58.5 104.5t88.5 75.5t98 46.5t97 23.5q9 3 9 -3q-2 -6 -9 -10q-60 -24 -97.5 -64.5t-62.5 -115.5q-19 -59 -22 -117.5t10 -111t54 -84.5
t105 -31q117 0 190.5 81t133.5 265q17 53 54.5 243.5t68.5 285.5l114 360q15 42 12.5 73t-12 51t-30.5 33t-42.5 19t-47.5 8q-11 0 -11 8q0 7 7 7q75 -6 104 -6h311q30 0 105 6q9 0 7 -8q-2 -7 -11 -7q-66 -5 -112.5 -45.5t-78.5 -140.5l-239 -727q-87 -269 -242 -406
t-346 -137z" />
    <glyph glyph-name="ij" unicode="&#x133;" horiz-adv-x="1017" 
d="M424 1194q-56 0 -77.5 27.5t-2.5 68.5q19 39 68.5 66.5t107.5 27.5q54 0 77 -27.5t5 -66.5q-21 -41 -70.5 -68.5t-107.5 -27.5zM963 1194q-56 0 -77.5 27.5t-2.5 68.5q19 39 68.5 66.5t107.5 27.5q54 0 77 -27.5t5 -66.5q-21 -41 -70.5 -68.5t-107.5 -27.5zM276 215
q-41 -137 15 -137q25 0 41 12t38.5 56.5t53.5 134.5q6 13 14 7q6 -5 2 -16q-42 -134 -111.5 -215.5t-164.5 -81.5q-145 0 -78 211l172 525q43 135 -12 135q-26 0 -42 -12t-38 -56t-53 -135q-5 -10 -13 -7.5t-4 15.5q42 134 111 215.5t166 81.5q52 0 76 -29t22.5 -74.5
t-22.5 -107.5zM614 190l160 496q19 52 24 89t-1 53.5t-19 17.5q-22 0 -51 -37.5t-51 -101.5q-5 -13 -13 -10q-3 3 -1 10q50 129 108 183t141 54q65 0 83 -51.5t-11 -136.5q-18 -51 -39 -117l-121 -377q-36 -109 -99 -200t-131.5 -147.5t-143.5 -96.5t-132.5 -57t-99.5 -19
q-10 -1 -9 6q1 10 15 10q38 3 71.5 12t78 37t83.5 72.5t81 124t77 186.5z" />
    <glyph glyph-name="Jcircumflex" unicode="&#x134;" horiz-adv-x="997" 
d="M621 1511q-7 -1 -7 5q2 6 9 10q66 29 117 67t78.5 70t52 60.5t52.5 44.5t66 16t55 -15.5t20.5 -43.5t7 -59.5t24.5 -70.5t63 -69q4 -2 4.5 -6t-3 -7t-9.5 -2q-46 5 -109.5 69t-80.5 126q-63 -63 -176 -127.5t-164 -67.5zM1298 1440q9 0 7 -8q-2 -7 -11 -7
q-66 -5 -112 -45.5t-78 -140.5l-240 -727q-87 -269 -242 -406t-346 -137q-87 0 -150 26.5t-92.5 71.5t-37 103.5t15.5 122.5q24 76 85.5 132.5t126 82.5t130.5 35q9 3 9 -3q-2 -6 -9 -10q-60 -24 -97 -64.5t-62 -115.5q-19 -59 -22 -117.5t10 -111t54 -84.5t105 -31
q117 0 190.5 81t133.5 265q17 53 54 243.5t68 285.5l115 360q15 42 12.5 73t-12.5 51t-31 33t-42.5 19t-47.5 8q-11 0 -11 8q0 7 7 7q75 -6 105 -6h311q29 0 104 6z" />
    <glyph glyph-name="jcircumflex" unicode="&#x135;" horiz-adv-x="491" 
d="M686 1063q6 -5 3.5 -11t-11.5 -5q-47 5 -111.5 81t-79.5 148q-62 -74 -175 -149t-165 -80q-6 -1 -6 4q0 7 9 12q66 34 117 79t78.5 82.5t52 70.5t52.5 52t66 19t55 -18.5t20.5 -51t7 -69.5t24.5 -82.5t63 -81.5zM385 944q65 0 83 -51.5t-11 -136.5q-18 -51 -39 -117
l-123 -377q-35 -109 -98 -200t-131 -147.5t-143 -96.5t-132.5 -57t-99.5 -19q-10 -1 -9 6q1 10 15 10q38 3 71.5 12t78 37t83.5 72.5t81 124t77 186.5l160 496q19 52 24 89t-1 53.5t-19 17.5q-22 0 -51 -37.5t-51 -101.5q-6 -14 -14 -10q-3 3 -1 10q50 129 108.5 183
t141.5 54z" />
    <glyph glyph-name="uni0136" unicode="&#x136;" horiz-adv-x="1368" 
d="M1509 1440q9 0 9 -7q-1 -8 -13 -8q-29 -2 -52.5 -10t-57.5 -34t-53.5 -42.5t-75.5 -68.5l-572 -533q93 58 203 58q51 0 86 -15t61 -53.5t37.5 -108t10.5 -174.5q-2 -184 10 -252.5t65 -68.5q42 0 83 35.5t67 87.5q4 9 8.5 12t5.5 -1t-2 -15q-43 -114 -122 -190.5
t-165 -76.5q-87 0 -124.5 96t-28.5 310q4 105 -0.5 169.5t-21.5 97.5t-39.5 43.5t-61.5 10.5q-59 0 -95.5 -13.5t-82.5 -51.5l-178 -166l-91 -278q-16 -42 -13.5 -73t12 -51.5t30.5 -33.5t42.5 -19t47.5 -8q11 0 11.5 -7t-7.5 -7q-75 6 -102 6h-313q-30 0 -105 -6q-8 0 -7 7
t11 7q66 5 112.5 46t78.5 141l340 1046q16 42 13.5 73t-12 51t-30.5 33t-42.5 19t-47.5 8q-12 0 -13 8q0 7 7 7q81 -6 104 -6h314q23 0 104 6q7 0 7 -7q-1 -8 -13 -8q-66 -5 -112 -45t-79 -141l-241 -747l827 780q39 36 47 65.5t-11 47t-47 28t-61 12.5q-11 0 -11 8q0 7 7 7
q75 -6 105 -6h135q27 0 102 6zM514 -106q62 1 81 -29t5 -74q-28 -86 -122 -165.5t-177 -112.5q-11 -6 -10.5 -1t12.5 11q142 70 178 178q8 22 -13 30.5t-49.5 9.5t-47.5 16t-9 48q10 30 55.5 59t96.5 30z" />
    <glyph glyph-name="uni0137" unicode="&#x137;" horiz-adv-x="1009" 
d="M915 281q4 8 10 10t9 -2t0 -13q-40 -147 -113.5 -224t-158.5 -77q-78 0 -112.5 61.5t1.5 184.5q28 82 20.5 128t-61.5 50q-76 3 -156 -28q-4 -2 -12 -5.5t-12 -5.5q-7 -4 -8 3q-1 8 10 14q65 29 86 37q356 165 356 352q0 41 -22.5 64.5t-63.5 23.5q-108 0 -201.5 -100.5
t-187.5 -343.5l-74 -230q-4 -9 -23 -66t-24 -69q-10 -33 -40.5 -44t-86.5 -11h-51q-22 0 -16 24q27 76 55 168l348 1045q13 57 -5 77.5t-60 12.5q-12 -2 -11 8q1 3 2 4q206 57 338 144q3 0 5 -0.5t6.5 -3.5t-0.5 -11q-66 -137 -148 -391l-145 -444q106 157 219.5 244
t224.5 87q67 0 104 -35t37 -85q0 -54 -30.5 -106t-88.5 -99t-125 -87t-157 -83q58 14 88 14q163 0 100 -233q-46 -162 39 -162q39 0 66 40t69 163zM369 -106q62 1 81 -29t5 -74q-28 -86 -122 -165.5t-177 -112.5q-11 -6 -10.5 -1t12.5 11q142 70 178 178q8 22 -13 30.5
t-49.5 9.5t-47.5 16t-9 48q10 30 55.5 59t96.5 30z" />
    <glyph glyph-name="kgreenlandic" unicode="&#x138;" horiz-adv-x="1030" 
d="M938 281q3 8 8.5 10t9 -2.5t0.5 -12.5q-40 -147 -113.5 -224t-160.5 -77q-49 0 -81.5 25t-43.5 80t16 141q27 82 19.5 128t-60.5 50q-67 3 -151 -26l-29 -13q-10 -5 -10 4q2 8 10 13l80 35q363 165 363 354q0 42 -21.5 65t-62.5 23q-108 0 -204 -103t-188 -350l-71 -221
q-4 -8 -13 -36t-19 -59.5t-13 -39.5q-10 -33 -41.5 -44t-85.5 -11h-51q-26 0 -17 24q18 49 35 105.5t20 62.5l162 504q19 52 24 89t-1 53.5t-19 17.5q-21 0 -49.5 -37t-52.5 -102q-5 -13 -13 -10q-3 3 -1 10q50 129 108 183t141 54q65 0 83 -51.5t-11 -136.5
q-18 -51 -39 -117l-6 -18q106 158 220 245.5t225 87.5q68 0 104.5 -34.5t36.5 -85.5q0 -54 -30.5 -106t-88 -99t-124.5 -87t-157 -83q58 14 89 14q161 0 98 -233q-22 -86 -11 -124t50 -38q40 0 68.5 41t68.5 162z" />
    <glyph glyph-name="Lacute" unicode="&#x139;" horiz-adv-x="1120" 
d="M786 1516q-10 1 -14 7.5t2 10.5q65 55 100.5 103.5t51 87t24.5 49.5q7 9 75 1t73 -30q6 -25 -62 -81.5t-146.5 -102t-103.5 -45.5zM27 0q-30 0 -105 -6q-8 0 -7 7t11 7q66 5 112.5 46t78.5 141l340 1046q16 42 13.5 73t-12 51t-30.5 33t-42.5 19t-47.5 8q-12 0 -13 8
q0 7 7 7q81 -6 104 -6h320q31 0 118 6q9 0 8 -7q0 -8 -14 -8q-75 -5 -126.5 -45.5t-84.5 -142.5l-372 -1139q-15 -47 -10 -65.5t32 -18.5q375 0 518 125q72 63 137 167t136 263q8 15 16 10q3 -2 0 -10q-152 -338 -217 -544q-8 -25 -17 -36.5t-24 -11.5q-4 0 -52 5.5
t-142 11.5t-209 6h-426z" />
    <glyph glyph-name="lacute" unicode="&#x13a;" horiz-adv-x="487" 
d="M471 1516q-10 1 -14 7.5t2 10.5q65 55 100.5 103.5t51 87t24.5 49.5q7 9 74.5 1t72.5 -30q6 -25 -61.5 -81.5t-146 -102t-103.5 -45.5zM387 1227q13 57 -5 77.5t-60 12.5q-12 -2 -11 8q1 3 2 4q206 57 338 141q1 1 5 1t6.5 -2.5t-0.5 -10.5q-66 -137 -148 -391l-283 -852
q-41 -137 13 -137q26 0 42 12.5t38 55.5t55 135q5 13 13 7q6 -5 3 -16q-42 -134 -111.5 -215.5t-164.5 -81.5q-145 0 -78 211z" />
    <glyph glyph-name="uni013B" unicode="&#x13b;" horiz-adv-x="1120" 
d="M27 0q-30 0 -105 -6q-8 0 -7 7t11 7q66 5 112.5 46t78.5 141l340 1046q16 42 13.5 73t-12 51t-30.5 33t-42.5 19t-47.5 8q-12 0 -13 8q0 7 7 7q81 -6 104 -6h320q31 0 118 6q9 0 8 -7q0 -8 -14 -8q-75 -5 -126.5 -45.5t-84.5 -142.5l-372 -1139q-15 -47 -10 -65.5
t32 -18.5q375 0 518 125q72 63 137 167t136 263q8 15 16 10q3 -2 0 -10q-152 -338 -217 -544q-8 -25 -17 -36.5t-24 -11.5q-4 0 -52 5.5t-142 11.5t-209 6h-426zM158 -487q-11 -6 -10.5 -1t12.5 11q142 70 178 178q8 22 -13 30.5t-49.5 9.5t-47.5 16t-9 48q10 30 55.5 59
t96.5 30q62 1 81 -29t5 -74q-28 -86 -122 -165.5t-177 -112.5z" />
    <glyph glyph-name="uni013C" unicode="&#x13c;" horiz-adv-x="487" 
d="M388 1227q13 57 -5 77.5t-60 12.5q-12 -2 -11 8q1 3 2 4q206 57 338 141q1 1 5 1t6.5 -2.5t-0.5 -10.5q-66 -137 -148 -391l-283 -852q-41 -137 13 -137q26 0 42 12.5t38 55.5t55 135q5 13 13 7q6 -5 3 -16q-42 -134 -111.5 -215.5t-164.5 -81.5q-145 0 -78 211z
M-157 -487q-11 -6 -10.5 -1t12.5 11q144 70 179 178q8 22 -13 30.5t-49.5 9.5t-47.5 16t-9 48q10 30 55 59t96 30q62 1 81 -29t5 -74q-28 -86 -122 -165.5t-177 -112.5z" />
    <glyph glyph-name="Lcaron" unicode="&#x13d;" horiz-adv-x="1120" 
d="M27 0q-30 0 -105 -6q-8 0 -7 7t11 7q66 5 112.5 46t78.5 141l340 1046q16 42 13.5 73t-12 51t-30.5 33t-42.5 19t-47.5 8q-12 0 -13 8q0 7 7 7q81 -6 104 -6h320q31 0 118 6q9 0 8 -7q0 -8 -14 -8q-75 -5 -126.5 -45.5t-84.5 -142.5l-372 -1139q-15 -47 -10 -65.5
t32 -18.5q375 0 518 125q72 63 137 167t136 263q8 15 16 10q3 -2 0 -10q-152 -338 -217 -544q-8 -25 -17 -36.5t-24 -11.5q-4 0 -52 5.5t-142 11.5t-209 6h-426zM1212 1038q-4 -11 -10 -9q-4 2 -2 9q27 96 35.5 170t4.5 97t7 67q13 37 29 49.5t59 12.5q42 0 52 -14t-3 -48
q-7 -25 -33 -62.5t-65 -106.5t-74 -165z" />
    <glyph glyph-name="lcaron" unicode="&#x13e;" horiz-adv-x="487" 
d="M387 1227q13 57 -5 77.5t-60 12.5q-12 -2 -11 8q1 3 2 4q206 57 338 141q1 1 5 1t6.5 -2.5t-0.5 -10.5q-66 -137 -148 -391l-283 -852q-41 -137 13 -137q26 0 42 12.5t38 55.5t55 135q5 13 13 7q6 -5 3 -16q-42 -134 -111.5 -215.5t-164.5 -81.5q-145 0 -78 211z
M713 1051q-3 -10 -10 -9q-6 1 -3 9q21 75 31 135.5t9.5 90t0.5 58t7 49.5q13 37 29 49.5t59 12.5q42 0 52 -14t-3 -48q-7 -25 -33 -62.5t-65 -106t-74 -164.5z" />
    <glyph glyph-name="Ldot" unicode="&#x13f;" horiz-adv-x="1181" 
d="M27 0q-30 0 -105 -6q-8 0 -7 7t11 7q66 5 112.5 46t78.5 141l340 1046q16 42 13.5 73t-12 51t-30.5 33t-42.5 19t-47.5 8q-12 0 -13 8q0 7 7 7q81 -6 104 -6h320q31 0 118 6q9 0 8 -7q0 -8 -14 -8q-75 -5 -126.5 -45.5t-84.5 -142.5l-372 -1139q-15 -47 -10 -65.5
t32 -18.5q375 0 518 125q72 63 137 167t136 263q8 15 16 10q3 -2 0 -10q-152 -338 -217 -544q-8 -25 -17 -36.5t-24 -11.5q-4 0 -52 5.5t-142 11.5t-209 6h-426zM977 727q-57 -1 -79.5 22.5t-4.5 61.5q18 35 66.5 61t107.5 27q56 1 80 -22.5t6 -59.5q-20 -37 -67.5 -63
t-108.5 -27z" />
    <glyph glyph-name="ldot" unicode="&#x140;" horiz-adv-x="495" 
d="M387 1227q13 57 -5 77.5t-60 12.5q-12 -2 -11 8q1 3 2 4q206 57 338 141q1 1 5 1t6.5 -2.5t-0.5 -10.5q-66 -137 -148 -391l-283 -852q-41 -137 13 -137q26 0 42 12.5t38 55.5t55 135q5 13 13 7q6 -5 3 -16q-42 -134 -111.5 -215.5t-164.5 -81.5q-145 0 -78 211zM543 606
q-47 -1 -65 19t-3 53q13 29 52.5 51t90.5 23q46 1 65 -18.5t5 -51.5q-14 -30 -54 -52.5t-91 -23.5z" />
    <glyph glyph-name="Lslash" unicode="&#x141;" horiz-adv-x="1120" 
d="M1098 569q8 15 16 10q3 -2 0 -10q-152 -338 -217 -544q-8 -25 -17 -36.5t-24 -11.5q-4 0 -52 5.5t-142 11.5t-209 6h-426q-30 0 -105 -6q-8 0 -7 7t11 7q66 5 112.5 46t78.5 141l145 444l-180 -98q-9 -3 -13.5 -1.5t-3 6.5t8.5 9l194 107l189 579q16 42 13.5 73t-12 51
t-30.5 33t-42.5 19t-47.5 8q-12 0 -13 8q0 7 7 7q81 -6 104 -6h320q31 0 118 6q9 0 8 -7q0 -8 -14 -8q-75 -5 -126.5 -45.5t-84.5 -142.5l-143 -440l170 94q14 8 17.5 0.5t-11.5 -14.5l-184 -103l-221 -676q-15 -47 -10 -65.5t32 -18.5q375 0 518 125q72 63 137 167t136 263
z" />
    <glyph glyph-name="lslash" unicode="&#x142;" horiz-adv-x="487" 
d="M662 1458q-66 -137 -148 -391l-106 -317l163 84q9 4 10 -4q-1 -7 -8 -11l-172 -88l-170 -516q-41 -137 13 -137q26 0 42 12.5t38 55.5t55 135q5 13 13 7q6 -5 3 -16q-42 -134 -111.5 -215.5t-164.5 -81.5q-145 0 -78 211l143 430l-174 -90q-8 -5 -8 5q1 7 6 10l182 94
l197 592q13 57 -5 77.5t-60 12.5q-12 -2 -11 8q1 3 2 4q206 57 338 141q1 1 5 1t6.5 -2.5t-0.5 -10.5z" />
    <glyph glyph-name="Nacute" unicode="&#x143;" horiz-adv-x="1331" 
d="M950 1516q-10 1 -14 7.5t2 10.5q65 55 100.5 103.5t51 87t24.5 49.5q7 9 75 1t73 -30q6 -25 -62 -81.5t-146.5 -102t-103.5 -45.5zM1636 1440q7 0 7 -7q-1 -8 -13 -8q-66 -5 -111.5 -45t-78.5 -141l-406 -1241q-4 -14 -14 -14q-9 0 -14 14l-496 1307q-3 8 -10 8
q-6 0 -13 -13l-356 -1107q-15 -53 -12.5 -88t24.5 -56t48 -30t59 -11q12 -2 11 -9q-1 -5 -7 -5q-29 0 -104 6h-132q-75 -6 -102 -6q-8 0 -7.5 6.5t11.5 7.5q65 3 111.5 44.5t79.5 142.5l376 1146q-65 81 -149 84q-12 2 -13 9q2 5 7 6q29 0 104 -6h232q35 0 45 -25l383 -1106
q3 -12 10 -12q8 0 12 16l301 934q15 42 12.5 73t-12.5 51t-31 33t-42.5 19t-47.5 8q-11 0 -11 8q0 7 7 7q75 -6 105 -6h133q23 0 104 6z" />
    <glyph glyph-name="nacute" unicode="&#x144;" horiz-adv-x="1140" 
d="M1020 1368q39 6 84 3t41 -15q-8 -28 -107.5 -105t-204.5 -142.5t-131 -68.5q-10 0 -6 10q3 5 9 9q69 47 121.5 96.5t78.5 84.5t46 65t35 45.5t34 17.5zM1038 281q3 7 8.5 8t8.5 -4t0 -13q-42 -133 -111.5 -215t-165.5 -82q-145 0 -78 211l121 373q52 161 27 243.5
t-125 82.5q-43 0 -88 -19.5t-91 -60t-88.5 -111.5t-72.5 -164q0 -1 -1 -3t-1 -3l-111 -344q-4 -8 -13 -36t-19 -59.5t-13 -39.5q-11 -33 -42 -44t-87 -11h-49q-25 0 -16 24q24 70 53 168l174 529q43 135 -12 135q-26 0 -42 -12t-38 -56t-53 -135q-5 -10 -13 -7.5t-4 15.5
q42 134 111 215.5t166 81.5q52 0 76 -29t22.5 -74.5t-22.5 -107.5l-15 -45q68 115 169.5 188.5t211.5 73.5q149 0 199.5 -101t-13.5 -304l-110 -334q-41 -137 14 -137q25 0 41 12t38.5 56.5t53.5 134.5z" />
    <glyph glyph-name="uni0145" unicode="&#x145;" horiz-adv-x="1331" 
d="M1636 1440q7 0 7 -7q-1 -8 -13 -8q-66 -5 -111.5 -45t-78.5 -141l-406 -1241q-4 -14 -14 -14q-9 0 -14 14l-496 1307q-3 8 -10 8q-6 0 -13 -13l-356 -1107q-15 -53 -12.5 -88t24.5 -56t48 -30t59 -11q12 -2 11 -9q-1 -5 -7 -5q-29 0 -104 6h-132q-75 -6 -102 -6
q-8 0 -7.5 6.5t11.5 7.5q65 3 111.5 44.5t79.5 142.5l376 1146q-65 81 -149 84q-12 2 -13 9q2 5 7 6q29 0 104 -6h232q35 0 45 -25l383 -1106q3 -12 10 -12q8 0 12 16l301 934q15 42 12.5 73t-12.5 51t-31 33t-42.5 19t-47.5 8q-11 0 -11 8q0 7 7 7q75 -6 105 -6h133
q23 0 104 6zM504 -106q62 1 81 -29t5 -74q-28 -86 -122 -165.5t-177 -112.5q-11 -6 -10.5 -1t12.5 11q142 70 178 178q8 22 -13 30.5t-49.5 9.5t-47.5 16t-9 48q10 30 55.5 59t96.5 30z" />
    <glyph glyph-name="uni0146" unicode="&#x146;" horiz-adv-x="1140" 
d="M1038 281q3 7 8.5 8t8.5 -4t0 -13q-42 -133 -111.5 -215t-165.5 -82q-145 0 -78 211l121 373q52 161 27 243.5t-125 82.5q-43 0 -88 -19.5t-91 -60t-88.5 -111.5t-72.5 -164q0 -1 -1 -3t-1 -3l-111 -344q-4 -8 -13 -36t-19 -59.5t-13 -39.5q-11 -33 -42 -44t-87 -11h-49
q-25 0 -16 24q24 70 53 168l174 529q43 135 -12 135q-26 0 -42 -12t-38 -56t-53 -135q-5 -10 -13 -7.5t-4 15.5q42 134 111 215.5t166 81.5q52 0 76 -29t22.5 -74.5t-22.5 -107.5l-15 -45q68 115 169.5 188.5t211.5 73.5q149 0 199.5 -101t-13.5 -304l-110 -334
q-41 -137 14 -137q25 0 41 12t38.5 56.5t53.5 134.5zM397 -106q62 1 81 -29t5 -74q-28 -86 -122 -165.5t-177 -112.5q-11 -6 -10.5 -1t12.5 11q144 70 179 178q8 22 -13 30.5t-49.5 9.5t-47.5 16t-9 48q10 30 55 59t96 30z" />
    <glyph glyph-name="Ncaron" unicode="&#x147;" horiz-adv-x="1331" 
d="M879 1772q-6 5 -3.5 10t11.5 4q46 -5 109.5 -69t80.5 -126q64 64 176 128t164 67q6 1 7 -3q0 -6 -9 -11q-66 -29 -117 -67t-78.5 -70t-52 -60.5t-52.5 -45t-66 -16.5t-55 16t-20.5 44t-7 59.5t-24.5 70.5t-63 69zM1636 1440q7 0 7 -7q-1 -8 -13 -8q-66 -5 -111.5 -45
t-78.5 -141l-406 -1241q-4 -14 -14 -14q-9 0 -14 14l-496 1307q-3 8 -10 8q-6 0 -13 -13l-356 -1107q-15 -53 -12.5 -88t24.5 -56t48 -30t59 -11q12 -2 11 -9q-1 -5 -7 -5q-29 0 -104 6h-132q-75 -6 -102 -6q-8 0 -7.5 6.5t11.5 7.5q65 3 111.5 44.5t79.5 142.5l376 1146
q-65 81 -149 84q-12 2 -13 9q2 5 7 6q29 0 104 -6h232q35 0 45 -25l383 -1106q3 -12 10 -12q8 0 12 16l301 934q15 42 12.5 73t-12.5 51t-31 33t-42.5 19t-47.5 8q-11 0 -11 8q0 7 7 7q75 -6 105 -6h133q23 0 104 6z" />
    <glyph glyph-name="ncaron" unicode="&#x148;" horiz-adv-x="1140" 
d="M1130 1362q4 0 5.5 -3.5t-0.5 -8t-7 -7.5q-66 -34 -117 -78t-78.5 -81.5t-52 -70.5t-52.5 -52t-66 -19t-55 18.5t-20.5 51t-7.5 69.5t-25 82t-64 80q-6 5 -3 12t11 7q47 -6 111.5 -81.5t81.5 -147.5q62 74 174.5 149t164.5 80zM1038 281q3 7 8.5 8t8.5 -4t0 -13
q-42 -133 -111.5 -215t-165.5 -82q-145 0 -78 211l121 373q52 161 27 243.5t-125 82.5q-43 0 -88 -19.5t-91 -60t-88.5 -111.5t-72.5 -164q0 -1 -1 -3t-1 -3l-111 -344q-4 -8 -13 -36t-19 -59.5t-13 -39.5q-11 -33 -42 -44t-87 -11h-49q-25 0 -16 24q24 70 53 168l174 529
q43 135 -12 135q-26 0 -42 -12t-38 -56t-53 -135q-5 -10 -13 -7.5t-4 15.5q42 134 111 215.5t166 81.5q52 0 76 -29t22.5 -74.5t-22.5 -107.5l-15 -45q68 115 169.5 188.5t211.5 73.5q149 0 199.5 -101t-13.5 -304l-110 -334q-41 -137 14 -137q25 0 41 12t38.5 56.5
t53.5 134.5z" />
    <glyph glyph-name="Eng" unicode="&#x14a;" horiz-adv-x="1374" 
d="M1639 1440q7 0 8 -7q-2 -7 -12 -8q-66 -5 -111.5 -45t-78.5 -141l-301 -920h2l-107 -321q-71 -222 -159 -330t-220 -108q-101 0 -163 43q-12 7 20 40.5t71 60.5t44 17q40 -81 114 -81q95 0 155.5 86t121.5 272l27 84l-531 1214l-10 15q0 2 -4 2q-9 0 -12 -13l-359 -1107
q-14 -53 -11.5 -88t25 -56t48.5 -30t59 -11q12 -2 11 -9q-1 -5 -7 -5q-29 0 -104 6h-131q-75 -6 -105 -6q-6 0 -7 5q-1 7 11 9q65 3 112.5 44.5t80.5 142.5l374 1144q-64 83 -151 86q-11 2 -11 9q2 5 7 6q33 0 102 -6h234q33 0 47 -25l407 -1024q5 -12 13 -12q9 0 12 14
l272 854q16 42 13.5 73t-12 51t-30 33t-42 19t-47.5 8q-11 0 -12 8q0 7 7 7q75 -6 103 -6h135q27 0 102 6z" />
    <glyph glyph-name="eng" unicode="&#x14b;" horiz-adv-x="1134" 
d="M805 961q149 0 199.5 -101.5t-13.5 -304.5l-94 -293q-36 -108 -99 -199t-131 -147.5t-142.5 -97t-132 -57.5t-99.5 -19q-10 -1 -10 4q-1 8 11 11q2 1 5 1q38 3 67.5 10t76 33t84.5 69t82.5 125.5t80.5 194.5l121 375q52 161 27 243.5t-125 82.5q-94 0 -185 -86t-151 -268
q0 -2 -2 -2l-113 -355q-4 -8 -13 -36t-19 -59.5t-13 -39.5q-10 -33 -41.5 -44t-85.5 -11h-51q-25 0 -16 24q18 49 35 105.5t20 62.5l162 504q19 52 24 89t-1 53.5t-19 17.5q-21 0 -50 -37.5t-53 -101.5q-5 -13 -13 -10q-3 3 -1 10q50 129 108.5 183t141.5 54q65 0 83 -51.5
t-11 -136.5q-16 -50 -23 -66q66 120 167 195.5t212 75.5z" />
    <glyph glyph-name="Omacron" unicode="&#x14c;" horiz-adv-x="1521" 
d="M1354 1563h-469q-15 0 -15 8q3 9 21 10h469q15 0 15 -8q-3 -9 -21 -10zM553 -31q-138 0 -240 53.5t-154 149.5t-58.5 228t46.5 290q49 152 149 293t228 247t284 169t310 63q141 0 246 -54t158.5 -150t61.5 -227t-44 -286q-50 -154 -150 -295.5t-229 -248t-288.5 -169.5
t-319.5 -63zM696 20q110 0 211.5 57.5t180 156.5t139 225.5t98.5 271.5q22 113 24 214t-23.5 186.5t-70 147.5t-114.5 97t-158 35q-108 0 -207.5 -57t-176.5 -155t-136 -221.5t-96 -264.5q-25 -112 -27 -215t20 -190t65 -151.5t112.5 -100.5t158.5 -36z" />
    <glyph glyph-name="omacron" unicode="&#x14d;" horiz-adv-x="1069" 
d="M995 1149h-471q-13 0 -12 9q2 10 18 11h471q15 0 15 -9q-3 -10 -21 -11zM358 -31q-169 0 -254.5 114.5t-46.5 299.5q21 148 117.5 280t239.5 211.5t293 79.5q189 0 276.5 -132t24.5 -341q-40 -139 -140.5 -256.5t-236 -186.5t-273.5 -69zM449 16q132 0 230.5 109
t143.5 319q23 134 9 236.5t-71 164.5t-145 62q-129 0 -223.5 -105t-140.5 -321q-23 -130 -10 -233.5t68 -167.5t139 -64z" />
    <glyph glyph-name="Obreve" unicode="&#x14e;" horiz-adv-x="1521" 
d="M1010 1790q30 0 46 -3t20 -7t3 -11q-11 -32 -14 -66.5t2.5 -68.5t30 -56t65.5 -22q46 0 87.5 24t69 60.5t45 68t26.5 58.5q3 13 10 13q8 0 4 -11q-14 -42 -38.5 -83.5t-62.5 -82.5t-93 -66.5t-117 -25.5q-61 0 -100 27.5t-50.5 69t-10.5 83.5t13 78q6 21 64 21zM553 -31
q-138 0 -240 53.5t-154 149.5t-58.5 228t46.5 290q49 152 149 293t228 247t284 169t310 63q141 0 246 -54t158.5 -150t61.5 -227t-44 -286q-50 -154 -150 -295.5t-229 -248t-288.5 -169.5t-319.5 -63zM696 20q110 0 211.5 57.5t180 156.5t139 225.5t98.5 271.5
q22 113 24 214t-23.5 186.5t-70 147.5t-114.5 97t-158 35q-108 0 -207.5 -57t-176.5 -155t-136 -221.5t-96 -264.5q-25 -112 -27 -215t20 -190t65 -151.5t112.5 -100.5t158.5 -36z" />
    <glyph glyph-name="obreve" unicode="&#x14f;" horiz-adv-x="1069" 
d="M643 1337q31 0 46.5 -2.5t19.5 -7t2 -12.5q-11 -31 -14 -65.5t2.5 -68t30 -55.5t65.5 -22q47 0 88 23.5t68.5 60t44.5 68t26 59.5q3 12 10 12q9 0 6 -10q-14 -41 -39 -83.5t-63 -83.5t-93.5 -67t-117.5 -26q-61 0 -99 27.5t-49.5 70t-10.5 84t12 78.5q6 20 65 20z
M358 -31q-169 0 -254.5 114.5t-46.5 299.5q21 148 117.5 280t239.5 211.5t293 79.5q189 0 276.5 -132t24.5 -341q-40 -139 -140.5 -256.5t-236 -186.5t-273.5 -69zM449 16q132 0 230.5 109t143.5 319q23 134 9 236.5t-71 164.5t-145 62q-129 0 -223.5 -105t-140.5 -321
q-23 -130 -10 -233.5t68 -167.5t139 -64z" />
    <glyph glyph-name="Ohungarumlaut" unicode="&#x150;" horiz-adv-x="1521" 
d="M799 1507q-8 -2 -7 5q0 6 7 12q68 48 120.5 98t78.5 85t45.5 64t35.5 44.5t35 17.5q42 7 86.5 4t40.5 -16q-14 -43 -206 -175t-236 -139zM1085 1507q-6 -1 -6 4q0 7 8 13q68 48 120.5 98t78.5 85t46 64t36 44.5t35 17.5q40 7 85.5 4t41.5 -16q-14 -43 -207.5 -175
t-237.5 -139zM553 -31q-138 0 -240 53.5t-154 149.5t-58.5 228t46.5 290q49 152 149 293t228 247t284 169t310 63q141 0 246 -54t158.5 -150t61.5 -227t-44 -286q-50 -154 -150 -295.5t-229 -248t-288.5 -169.5t-319.5 -63zM696 20q110 0 211.5 57.5t180 156.5t139 225.5
t98.5 271.5q22 113 24 214t-23.5 186.5t-70 147.5t-114.5 97t-158 35q-108 0 -207.5 -57t-176.5 -155t-136 -221.5t-96 -264.5q-25 -112 -27 -215t20 -190t65 -151.5t112.5 -100.5t158.5 -36z" />
    <glyph glyph-name="ohungarumlaut" unicode="&#x151;" horiz-adv-x="1069" 
d="M524 1059q-9 -1 -9 4.5t9 11.5q68 48 120.5 98t78.5 85t46 64t36 44.5t35 17.5q42 7 86.5 4t40.5 -16q-9 -27 -108.5 -103t-204 -141t-130.5 -69zM811 1059q-7 -2 -7 4t9 12q83 58 142.5 119.5t82 99t44.5 63t46 27.5q40 7 85.5 4t41.5 -16q-14 -41 -207 -173.5
t-237 -139.5zM358 -31q-169 0 -254.5 114.5t-46.5 299.5q21 148 117.5 280t239.5 211.5t293 79.5q189 0 276.5 -132t24.5 -341q-40 -139 -140.5 -256.5t-236 -186.5t-273.5 -69zM449 16q132 0 230.5 109t143.5 319q23 134 9 236.5t-71 164.5t-145 62q-129 0 -223.5 -105
t-140.5 -321q-23 -130 -10 -233.5t68 -167.5t139 -64z" />
    <glyph glyph-name="OE" unicode="&#x152;" horiz-adv-x="1945" 
d="M2093 1456q32 0 18 -47q-62 -220 -118 -494q-1 -13 -6 -13q-5 -1 -5 11q15 137 17 223t-5 122.5t-22 64.5q-33 59 -129.5 77.5t-302.5 18.5q-48 0 -70 -67l-172 -533q-8 -17 -3.5 -34t24.5 -17q139 0 176 6q49 8 93.5 50t115.5 163q6 12 11 10q1 -4 -1 -10
q-49 -103 -89 -238t-56 -241q-1 -8 -4 -10.5t-6 1t-3 11.5q6 126 -10 176.5t-59 61.5q-52 6 -172 6q-36 0 -55 -56l-191 -587q-35 -97 27 -97q212 0 340.5 24t199.5 79q63 47 126 139t145 256q10 21 15.5 21.5t-3.5 -17.5q-102 -215 -201 -493q-10 -28 -20.5 -37t-26.5 -9
q-13 -1 -45 4.5t-102.5 12t-171.5 6.5h-510q-16 -1 -86 -8.5t-122 -11t-106 -3.5q-171 0 -282.5 92.5t-137 251t38.5 369.5q52 159 152 301t227 246t281.5 164.5t310.5 60.5q49 0 147 -14t148 -14h377q104 0 202 11t101 11zM381 852q-44 -139 -52 -288.5t18.5 -272.5
t96 -203t170.5 -80q92 0 131.5 11.5t71.5 46.5q30 33 62 108t102 283l111 340q67 219 90.5 340.5t5.5 183.5q-28 98 -162 98q-225 0 -389.5 -142.5t-255.5 -424.5z" />
    <glyph glyph-name="oe" unicode="&#x153;" horiz-adv-x="1683" 
d="M1452 954q139 0 200.5 -72.5t22.5 -195.5q-25 -76 -79 -134.5t-120 -93.5t-150 -57.5t-161.5 -30.5t-163.5 -8l3 17q384 -4 462 235q41 132 9.5 213.5t-117.5 81.5q-115 0 -194 -68.5t-132 -222.5q-3 -63 -24 -137l-13 -39q-12 -165 70 -268.5t203 -103.5q125 0 243 106
q6 -6 -6 -18q-93 -91 -204.5 -139t-217.5 -48q-103 0 -174.5 51.5t-97.5 143.5q-96 -91 -215 -144t-238 -53q-169 0 -254.5 114.5t-46.5 299.5q21 148 117.5 280t239.5 211.5t293 79.5q117 0 197.5 -53t111.5 -149q93 95 207.5 148.5t228.5 53.5zM449 16q132 0 230.5 109
t143.5 319q23 134 9 236.5t-71 164.5t-145 62q-129 0 -223.5 -105t-140.5 -321q-23 -130 -10 -233.5t68 -167.5t139 -64z" />
    <glyph glyph-name="Racute" unicode="&#x154;" horiz-adv-x="1304" 
d="M850 1516q-10 1 -14 7.5t2 10.5q65 55 100.5 103.5t51 87t24.5 49.5q7 9 74.5 1t72.5 -30q6 -25 -61.5 -81.5t-146 -102t-103.5 -45.5zM946 -25q-193 0 -131 385q12 66 8 113.5t-14 78t-32.5 49t-48.5 25.5t-62 7l-119 -2q-9 0 -5 9q3 6 9 7l117 6q164 30 283.5 128
t170.5 255q56 171 -3.5 276t-221.5 109l-123 4q-30 2 -49.5 -14.5t-32.5 -58.5l-373 -1159q-16 -42 -13.5 -73t12 -51.5t30.5 -33.5t42.5 -19t47.5 -8q11 0 11.5 -7t-7.5 -7q-75 6 -102 6h-313q-30 0 -105 -6q-8 0 -7 7t11 7q66 5 112.5 46t78.5 141l340 1046
q16 42 13.5 72.5t-12.5 51t-31 33t-43 18.5t-48 7q-11 2 -11 9q2 5 7 6q12 0 52 -2t52 -2q114 1 276 4.5t232 3.5q256 0 356.5 -113t38.5 -301q-56 -175 -192 -272.5t-338 -116.5q51 -3 85 -9.5t65.5 -22.5t48 -43t24 -71t2.5 -106q-18 -129 -9.5 -201.5t58.5 -72.5
q87 0 144 125q4 8 8.5 9.5t6 -2.5t-0.5 -12q-43 -113 -123 -185.5t-172 -72.5z" />
    <glyph glyph-name="racute" unicode="&#x155;" horiz-adv-x="829" 
d="M860 1368q39 6 84 3t41 -15q-8 -28 -107.5 -105t-204 -142.5t-130.5 -68.5q-10 0 -6 10q2 5 8 9q69 47 121.5 96.5t78.5 84.5t46 65t35 45.5t34 17.5zM745 954q79 0 125 -47t11 -110l-187 -320q-8 -12 -11.5 -7.5t3.5 17.5q42 86 55.5 151t0.5 102.5t-41 56t-70 18.5
q-171 0 -287 -336l-96 -299q-4 -8 -13 -36t-19 -59.5t-13 -39.5q-10 -33 -41.5 -44t-85.5 -11h-51q-26 0 -17 24q18 49 35 105.5t20 62.5l162 504q19 52 24 89t-1 53.5t-19 17.5q-21 0 -49.5 -37t-52.5 -102q-5 -13 -13 -10q-3 3 -1 10q50 129 108 183t141 54q65 0 83 -51.5
t-11 -136.5q-10 -32 -20.5 -61.5t-12.5 -37.5q156 297 344 297z" />
    <glyph glyph-name="uni0156" unicode="&#x156;" horiz-adv-x="1304" 
d="M946 -25q-193 0 -131 385q12 66 8 113.5t-14 78t-32.5 49t-48.5 25.5t-62 7l-119 -2q-9 0 -5 9q3 6 9 7l117 6q164 30 283.5 128t170.5 255q56 171 -3.5 276t-221.5 109l-123 4q-30 2 -49.5 -14.5t-32.5 -58.5l-373 -1159q-16 -42 -13.5 -73t12 -51.5t30.5 -33.5
t42.5 -19t47.5 -8q11 0 11.5 -7t-7.5 -7q-75 6 -102 6h-313q-30 0 -105 -6q-8 0 -7 7t11 7q66 5 112.5 46t78.5 141l340 1046q16 42 13.5 72.5t-12.5 51t-31 33t-43 18.5t-48 7q-11 2 -11 9q2 5 7 6q12 0 52 -2t52 -2q114 1 276 4.5t232 3.5q256 0 356.5 -113t38.5 -301
q-56 -175 -192 -272.5t-338 -116.5q51 -3 85 -9.5t65.5 -22.5t48 -43t24 -71t2.5 -106q-18 -129 -9.5 -201.5t58.5 -72.5q87 0 144 125q4 8 8.5 9.5t6 -2.5t-0.5 -12q-43 -113 -123 -185.5t-172 -72.5zM223 -487q-11 -6 -10.5 -1t12.5 11q142 70 178 178q8 22 -13 30.5
t-49 9.5t-47 16t-9 48q10 30 55 59t96 30q62 1 81 -29t5 -74q-28 -86 -122 -165.5t-177 -112.5z" />
    <glyph glyph-name="uni0157" unicode="&#x157;" horiz-adv-x="829" 
d="M746 954q79 0 125 -47t11 -110l-187 -320q-8 -12 -11.5 -7.5t3.5 17.5q42 86 55.5 151t0.5 102.5t-41 56t-70 18.5q-171 0 -287 -336l-96 -299q-4 -8 -13 -36t-19 -59.5t-13 -39.5q-10 -33 -41.5 -44t-85.5 -11h-51q-26 0 -17 24q18 49 35 105.5t20 62.5l162 504
q19 52 24 89t-1 53.5t-19 17.5q-21 0 -49.5 -37t-52.5 -102q-5 -13 -13 -10q-3 3 -1 10q50 129 108 183t141 54q65 0 83 -51.5t-11 -136.5q-10 -32 -20.5 -61.5t-12.5 -37.5q156 297 344 297zM181 -106q62 1 81 -29t5 -74q-28 -86 -122 -165.5t-177 -112.5q-11 -6 -10.5 -1
t12.5 11q142 70 178 178q8 22 -13 30.5t-49 9.5t-47 16t-9 48q10 30 55 59t96 30z" />
    <glyph glyph-name="Rcaron" unicode="&#x158;" horiz-adv-x="1304" 
d="M780 1772q-6 5 -3.5 10t11.5 4q46 -5 110 -69t81 -126q64 64 176 128t164 67q6 1 7 -3q0 -6 -9 -11q-66 -29 -117 -67t-78.5 -70t-52.5 -60.5t-53 -45t-66 -16.5t-55 16t-20.5 44t-7 59.5t-24.5 70.5t-63 69zM1339 1028q-56 -175 -192 -272.5t-338 -116.5q51 -3 85 -9.5
t65.5 -22.5t48 -43t24 -71t2.5 -106q-18 -129 -9.5 -201.5t58.5 -72.5q87 0 144 125q4 8 8.5 9.5t6 -2.5t-0.5 -12q-43 -113 -123 -185.5t-172 -72.5q-193 0 -131 385q12 66 8 113.5t-14 78t-32.5 49t-48.5 25.5t-62 7l-119 -2q-9 0 -5 9q3 6 9 7l117 6q164 30 283.5 128
t170.5 255q56 171 -3.5 276t-221.5 109l-123 4q-30 2 -49.5 -14.5t-32.5 -58.5l-373 -1159q-16 -42 -13.5 -73t12 -51.5t30.5 -33.5t42.5 -19t47.5 -8q11 0 11.5 -7t-7.5 -7q-75 6 -102 6h-313q-30 0 -105 -6q-8 0 -7 7t11 7q66 5 112.5 46t78.5 141l340 1046
q16 42 13.5 72.5t-12.5 51t-31 33t-43 18.5t-48 7q-11 2 -11 9q2 5 7 6q12 0 52 -2t52 -2q114 1 276 4.5t232 3.5q256 0 356.5 -113t38.5 -301z" />
    <glyph glyph-name="rcaron" unicode="&#x159;" horiz-adv-x="829" 
d="M971 1362q4 0 5.5 -3.5t-0.5 -8t-7 -7.5q-66 -34 -117 -78t-78.5 -81.5t-52.5 -70.5t-53 -52t-66 -19t-55 18.5t-20.5 51t-7.5 69.5t-25 82t-64 80q-6 5 -3 12t11 7q47 -6 111.5 -81.5t81.5 -147.5q62 74 175 149t165 80zM745 954q79 0 125 -47t11 -110l-187 -320
q-8 -12 -11.5 -7.5t3.5 17.5q42 86 55.5 151t0.5 102.5t-41 56t-70 18.5q-171 0 -287 -336l-96 -299q-4 -8 -13 -36t-19 -59.5t-13 -39.5q-10 -33 -41.5 -44t-85.5 -11h-51q-26 0 -17 24q18 49 35 105.5t20 62.5l162 504q19 52 24 89t-1 53.5t-19 17.5q-21 0 -49.5 -37
t-52.5 -102q-5 -13 -13 -10q-3 3 -1 10q50 129 108 183t141 54q65 0 83 -51.5t-11 -136.5q-10 -32 -20.5 -61.5t-12.5 -37.5q156 297 344 297z" />
    <glyph glyph-name="Sacute" unicode="&#x15a;" horiz-adv-x="1163" 
d="M844 1516q-10 1 -14.5 7.5t1.5 10.5q65 55 100.5 103.5t52 87t24.5 49.5q7 9 74.5 1t72.5 -30q6 -25 -61.5 -81.5t-146 -102t-103.5 -45.5zM66 268l182 314q5 9 9 12t3.5 -1.5t-4.5 -14.5q-114 -299 -66.5 -436.5t254.5 -137.5q39 0 76.5 5.5t84.5 23.5t85.5 46.5
t75.5 80.5t59 121q16 49 18 94t-11 82.5t-32 69.5t-51 62.5t-61.5 53t-69.5 49.5q-47 34 -78.5 60t-66.5 59.5t-54.5 64.5t-34 68t-13.5 78t16 86q22 64 76.5 126.5t132 113.5t181 82.5t212.5 31.5q95 0 175.5 -32t117.5 -89.5t-2 -138.5l-170 -307q-10 -16 -13 -7
q-2 5 3 17q108 247 65.5 384.5t-233.5 137.5q-143 0 -218.5 -55t-111.5 -166q-12 -39 -12.5 -73t12 -64.5t29 -55.5t48.5 -53.5t59.5 -49.5t72.5 -52q42 -28 67.5 -46.5t61.5 -49.5t56.5 -57t41.5 -63t27.5 -74t3.5 -84t-20 -99q-57 -175 -239.5 -295.5t-410.5 -120.5
q-77 0 -143.5 17t-110 46.5t-71.5 68t-28 81t20 86.5z" />
    <glyph glyph-name="sacute" unicode="&#x15b;" horiz-adv-x="860" 
d="M549 1040q-10 0 -6 10q2 5 8 9q69 47 121.5 96.5t78.5 84.5t46 65t35 45.5t34 17.5q39 6 84 3t41 -15q-8 -28 -107.5 -105t-204 -142.5t-130.5 -68.5zM-10 135l116 232q5 11 11 7q3 -4 0 -14q-52 -177 -6.5 -267.5t176.5 -90.5q88 0 146.5 33t84.5 115q12 32 8 64
t-13 57.5t-33.5 54.5t-53 54.5t-70.5 57.5q-27 21 -46 37t-40.5 36.5t-35 37.5t-26 38.5t-17 42t-3.5 44.5t9 49q33 92 149.5 161.5t267.5 69.5q53 0 104.5 -8.5t95.5 -25.5t60.5 -44.5t-0.5 -64.5l-122 -227q-2 -4 -5 -5.5t-4 0.5t2 9q97 332 -165 332q-94 0 -140 -31
t-63 -84q-6 -19 -5.5 -38t4.5 -35t15.5 -33.5t23.5 -32t32.5 -34t38.5 -34.5t46 -37q27 -21 45 -36t43 -38.5t41 -43.5t31.5 -46.5t22.5 -51t7 -54.5t-9 -60q-35 -108 -163.5 -185t-293.5 -77q-135 0 -217 48.5t-49 117.5z" />
    <glyph glyph-name="Scircumflex" unicode="&#x15c;" horiz-adv-x="1163" 
d="M700 1511q-7 -1 -7 5q2 6 9 10q66 29 117 67t78.5 70t52.5 60.5t53 44.5t66 16t55 -15.5t20.5 -43.5t7 -59.5t24.5 -70.5t63 -69q4 -2 4.5 -6t-3 -7t-9.5 -2q-46 5 -110 69t-81 126q-63 -63 -176 -127.5t-164 -67.5zM989 1462q95 0 175.5 -32t117.5 -89.5t-2 -138.5
l-170 -307q-10 -16 -13 -7q-2 5 3 17q108 247 65.5 384.5t-233.5 137.5q-143 0 -218.5 -55t-111.5 -166q-12 -39 -12.5 -73t12 -64.5t29 -55.5t48.5 -53.5t59.5 -49.5t72.5 -52q42 -28 67.5 -46.5t61.5 -49.5t56.5 -57t41.5 -63t27.5 -74t3.5 -84t-20 -99
q-57 -175 -239.5 -295.5t-410.5 -120.5q-77 0 -143.5 17t-110 46.5t-71.5 68t-28 81t20 86.5l182 314q5 9 9 12t3.5 -1.5t-4.5 -14.5q-114 -299 -66.5 -436.5t254.5 -137.5q39 0 76.5 5.5t84.5 23.5t85.5 46.5t75.5 80.5t59 121q16 49 18 94t-11 82.5t-32 69.5t-51 62.5
t-61.5 53t-69.5 49.5q-47 34 -78.5 60t-66.5 59.5t-54.5 64.5t-34 68t-13.5 78t16 86q22 64 76.5 126.5t132 113.5t181 82.5t212.5 31.5z" />
    <glyph glyph-name="scircumflex" unicode="&#x15d;" horiz-adv-x="860" 
d="M883 1063q6 -5 3 -11t-12 -5q-47 5 -111 81t-79 148q-62 -74 -175 -149t-165 -80q-6 -1 -7 4q0 7 9 12q66 34 117 79t78.5 82.5t52.5 70.5t53 52t66 19t55 -18.5t20.5 -51t7 -69.5t24.5 -82.5t63 -81.5zM614 954q53 0 104.5 -8.5t95.5 -25.5t60.5 -44.5t-0.5 -64.5
l-122 -227q-2 -4 -5 -5.5t-4 0.5t2 9q97 332 -165 332q-94 0 -140 -31t-63 -84q-6 -19 -5.5 -38t4.5 -35t15.5 -33.5t23.5 -32t32.5 -34t38.5 -34.5t46 -37q27 -21 45 -36t43 -38.5t41 -43.5t31.5 -46.5t22.5 -51t7 -54.5t-9 -60q-35 -108 -163.5 -185t-293.5 -77
q-135 0 -217 48.5t-49 117.5l116 232q5 11 11 7q3 -4 0 -14q-52 -177 -6.5 -267.5t176.5 -90.5q88 0 146.5 33t84.5 115q12 32 8 64t-13 57.5t-33.5 54.5t-53 54.5t-70.5 57.5q-27 21 -46 37t-40.5 36.5t-35 37.5t-26 38.5t-17 42t-3.5 44.5t9 49q33 92 149.5 161.5
t267.5 69.5z" />
    <glyph glyph-name="Scedilla" unicode="&#x15e;" horiz-adv-x="1163" 
d="M989 1462q95 0 175.5 -32t117.5 -89.5t-2 -138.5l-170 -307q-10 -16 -13 -7q-2 5 3 17q108 247 65.5 384.5t-233.5 137.5q-143 0 -218.5 -55t-111.5 -166q-12 -39 -12.5 -73t12 -64.5t29 -55.5t48.5 -53.5t59.5 -49.5t72.5 -52q42 -28 67.5 -46.5t61.5 -49.5t56.5 -57
t41.5 -63t27.5 -74t3.5 -84t-20 -99q-55 -168 -226 -287t-389 -129q-28 -28 -78 -98q88 -27 124 -69t22 -91q-14 -58 -72 -100.5t-135 -42.5q-66 0 -112 22.5t-36 61.5q3 13 25.5 35t36.5 22q11 0 19.5 -17.5t16.5 -38.5t32.5 -38.5t62.5 -17.5q44 0 73.5 16t35.5 41
q11 35 -33.5 73t-143.5 72l144 170h-17q-77 0 -143.5 17t-110 46.5t-71.5 68t-28 81t20 86.5l182 314q5 9 9 12t3.5 -1.5t-4.5 -14.5q-114 -299 -66.5 -436.5t254.5 -137.5q39 0 76.5 5.5t84.5 23.5t85.5 46.5t75.5 80.5t59 121q16 49 18 94t-11 82.5t-32 69.5t-51 62.5
t-61.5 53t-69.5 49.5q-47 34 -78.5 60t-66.5 59.5t-54.5 64.5t-34 68t-13.5 78t16 86q22 64 76.5 126.5t132 113.5t181 82.5t212.5 31.5z" />
    <glyph glyph-name="scedilla" unicode="&#x15f;" horiz-adv-x="860" 
d="M614 954q53 0 104.5 -8.5t95.5 -25.5t60.5 -44.5t-0.5 -64.5l-122 -227q-2 -4 -5 -5.5t-4 0.5t2 9q97 332 -165 332q-94 0 -140 -31t-63 -84q-6 -19 -5.5 -38t4.5 -35t15.5 -33.5t23.5 -32t32.5 -34t38.5 -34.5t46 -37q27 -21 45 -36t43 -38.5t41 -43.5t31.5 -46.5
t22.5 -51t7 -54.5t-9 -60q-35 -108 -163.5 -185t-293.5 -77q-21 -23 -68 -88q88 -27 124 -69t22 -91q-14 -58 -72 -100.5t-135 -42.5q-66 0 -111.5 22.5t-35.5 61.5q3 13 25 35t36 22q11 0 19.5 -17.5t16.5 -38.5t32.5 -38.5t62.5 -17.5q44 0 73.5 16t35.5 41
q11 35 -33.5 73.5t-143.5 72.5l136 159q-129 3 -205.5 51.5t-44.5 114.5l116 232q5 11 11 7q3 -4 0 -14q-52 -177 -6.5 -267.5t176.5 -90.5q88 0 146.5 33t84.5 115q12 32 8 64t-13 57.5t-33.5 54.5t-53 54.5t-70.5 57.5q-27 21 -46 37t-40.5 36.5t-35 37.5t-26 38.5t-17 42
t-3.5 44.5t9 49q33 92 149.5 161.5t267.5 69.5z" />
    <glyph glyph-name="Scaron" unicode="&#x160;" horiz-adv-x="1163" 
d="M1313 1786q6 1 7 -3q0 -6 -9 -11q-66 -29 -117 -67t-78.5 -70t-52.5 -60.5t-53 -45t-66 -16.5t-55 16t-20.5 44t-7 59.5t-24.5 70.5t-63 69q-6 5 -3.5 10t11.5 4q46 -5 110 -69t81 -126q64 64 176 128t164 67zM989 1462q95 0 175.5 -32t117.5 -89.5t-2 -138.5l-170 -307
q-10 -16 -13 -7q-2 5 3 17q108 247 65.5 384.5t-233.5 137.5q-143 0 -218.5 -55t-111.5 -166q-12 -39 -12.5 -73t12 -64.5t29 -55.5t48.5 -53.5t59.5 -49.5t72.5 -52q42 -28 67.5 -46.5t61.5 -49.5t56.5 -57t41.5 -63t27.5 -74t3.5 -84t-20 -99q-57 -175 -239.5 -295.5
t-410.5 -120.5q-77 0 -143.5 17t-110 46.5t-71.5 68t-28 81t20 86.5l182 314q5 9 9 12t3.5 -1.5t-4.5 -14.5q-114 -299 -66.5 -436.5t254.5 -137.5q39 0 76.5 5.5t84.5 23.5t85.5 46.5t75.5 80.5t59 121q16 49 18 94t-11 82.5t-32 69.5t-51 62.5t-61.5 53t-69.5 49.5
q-47 34 -78.5 60t-66.5 59.5t-54.5 64.5t-34 68t-13.5 78t16 86q22 64 76.5 126.5t132 113.5t181 82.5t212.5 31.5z" />
    <glyph glyph-name="scaron" unicode="&#x161;" horiz-adv-x="860" 
d="M977 1362q4 0 5.5 -3.5t-0.5 -8t-7 -7.5q-66 -34 -117 -78t-78.5 -81.5t-52.5 -70.5t-53 -52t-66 -19t-55 18.5t-20.5 51t-7.5 69.5t-25 82t-64 80q-6 5 -3 12t11 7q47 -6 111.5 -81.5t81.5 -147.5q62 74 175 149t165 80zM614 954q53 0 104.5 -8.5t95.5 -25.5t60.5 -44.5
t-0.5 -64.5l-122 -227q-2 -4 -5 -5.5t-4 0.5t2 9q97 332 -165 332q-94 0 -140 -31t-63 -84q-6 -19 -5.5 -38t4.5 -35t15.5 -33.5t23.5 -32t32.5 -34t38.5 -34.5t46 -37q27 -21 45 -36t43 -38.5t41 -43.5t31.5 -46.5t22.5 -51t7 -54.5t-9 -60q-35 -108 -163.5 -185
t-293.5 -77q-135 0 -217 48.5t-49 117.5l116 232q5 11 11 7q3 -4 0 -14q-52 -177 -6.5 -267.5t176.5 -90.5q88 0 146.5 33t84.5 115q12 32 8 64t-13 57.5t-33.5 54.5t-53 54.5t-70.5 57.5q-27 21 -46 37t-40.5 36.5t-35 37.5t-26 38.5t-17 42t-3.5 44.5t9 49
q33 92 149.5 161.5t267.5 69.5z" />
    <glyph glyph-name="uni0162" unicode="&#x162;" horiz-adv-x="1239" 
d="M1462 1456q36 0 21 -45q-78 -228 -123 -465q-3 -14 -9 -14.5t-3 12.5q21 213 11.5 316t-56.5 133q-24 28 -234 28q-34 0 -55 -53l-379 -1169q-56 -178 188 -191q17 0 16 -8q-1 -6 -10 -6q-105 6 -147 6h-205q-49 -51 -96 -119q88 -27 123.5 -69t21.5 -91
q-14 -58 -72 -100.5t-135 -42.5q-66 0 -111.5 22.5t-35.5 61.5q3 13 25 35t36 22q11 0 20 -17.5t16.5 -38.5t32.5 -38.5t63 -17.5q43 0 72.5 16t35.5 41q11 35 -33 73.5t-143 72.5l160 190h-144q-42 0 -147 -6q-9 0 -10 6q-1 8 16 8q98 5 163 46t99 145l381 1173
q10 49 -20 49q-213 0 -265 -32q-62 -33 -134.5 -131.5t-186.5 -309.5q-14 -25 -17 -16q-1 3 3 14q108 242 180 465q13 45 49 45q9 0 43.5 -5.5t127 -11t241.5 -5.5h198q149 0 245.5 5.5t135 11t47.5 5.5z" />
    <glyph glyph-name="uni0163" unicode="&#x163;" horiz-adv-x="624" 
d="M705 924v-3q0 -3 -4.5 -6.5t-10.5 -3.5h-162q-31 0 -47 -11.5t-26 -43.5l-201 -620q-25 -83 -7 -123.5t68 -40.5q57 0 104.5 44t90.5 152q6 12 15 9q6 -2 1 -13q-52 -134 -132 -210.5t-185 -76.5q-23 0 -55 7q-43 -48 -80 -103q88 -27 123.5 -69t21.5 -91
q-14 -58 -72 -100.5t-135 -42.5q-66 0 -111.5 22.5t-35.5 61.5q3 13 25 35t36 22q11 0 19.5 -17.5t16.5 -38.5t32.5 -38.5t62.5 -17.5q44 0 73.5 16t35.5 41q11 35 -33 73.5t-143 72.5l149 178q-40 14 -62.5 43.5t-27 79.5t20.5 120l204 625q11 25 6.5 40t-28.5 15h-74
q-9 0 -5 5q4 4 11 6q103 9 201.5 78.5t177.5 199.5q10 18 16 18q5 0 -1 -14q-58 -180 -86 -248q-5 -16 3.5 -24t34.5 -8h175z" />
    <glyph glyph-name="Tcaron" unicode="&#x164;" horiz-adv-x="1239" 
d="M788 1772q-6 5 -3 10t12 4q46 -5 109.5 -69t80.5 -126q64 64 176 128t164 67q6 1 7 -3q0 -6 -9 -11q-66 -29 -117 -67t-78.5 -70t-52.5 -60.5t-53 -45t-66 -16.5t-55 16t-20.5 44t-7 59.5t-24.5 70.5t-63 69zM1462 1456q36 0 21 -45q-78 -228 -123 -465q-3 -14 -9 -14.5
t-3 12.5q21 213 11.5 316t-56.5 133q-24 28 -234 28q-34 0 -55 -53l-379 -1169q-56 -178 188 -191q17 0 16 -8q-1 -6 -10 -6q-105 6 -147 6h-369q-42 0 -147 -6q-9 0 -10 6q-1 8 16 8q98 5 163 46t99 145l381 1173q10 49 -20 49q-213 0 -265 -32q-62 -33 -134.5 -131.5
t-186.5 -309.5q-14 -25 -17 -16q-1 3 3 14q108 242 180 465q13 45 49 45q9 0 43.5 -5.5t127 -11t241.5 -5.5h198q149 0 245.5 5.5t135 11t47.5 5.5z" />
    <glyph glyph-name="tcaron" unicode="&#x165;" horiz-adv-x="624" 
d="M786 971q-4 -11 -10 -9q-4 2 -2 9q27 96 35.5 170t4.5 97t7 67q12 37 28.5 49t59.5 12q42 0 52 -13.5t-3 -47.5q-7 -25 -33 -62.5t-65 -106.5t-74 -165zM209 -23q-95 0 -138.5 63.5t-0.5 190.5l204 625q11 25 6.5 40t-28.5 15h-74q-9 0 -5 5q4 4 11 6q103 9 201.5 78.5
t177.5 199.5q10 18 16 18q5 0 -1 -14q-58 -180 -86 -248q-5 -16 3.5 -24t34.5 -8h175v-3q0 -3 -4.5 -6.5t-10.5 -3.5h-162q-31 0 -47 -11.5t-26 -43.5l-201 -620q-25 -83 -7 -123.5t68 -40.5q57 0 104.5 44t90.5 152q6 12 15 9q6 -2 1 -13q-52 -134 -132 -210.5t-185 -76.5z
" />
    <glyph glyph-name="Tbar" unicode="&#x166;" horiz-adv-x="1239" 
d="M1462 1456q36 0 21 -45q-78 -228 -123 -465q-3 -14 -9 -14.5t-3 12.5q21 213 11.5 316t-56.5 133q-24 28 -234 28q-34 0 -55 -53l-209 -643h246q9 0 5 -9q-3 -7 -9 -7h-246l-166 -510q-56 -178 188 -191q17 0 16 -8q-1 -6 -10 -6q-105 6 -147 6h-369q-42 0 -147 -6
q-9 0 -10 6q-1 8 16 8q98 5 163 46t99 145l166 510h-244q-11 0 -6 9q2 7 10 7h246l209 647q10 49 -20 49q-213 0 -265 -32q-62 -33 -134.5 -131.5t-186.5 -309.5q-14 -25 -17 -16q-1 3 3 14q108 242 180 465q13 45 49 45q9 0 43.5 -5.5t127 -11t241.5 -5.5h198
q149 0 245.5 5.5t135 11t47.5 5.5z" />
    <glyph glyph-name="tbar" unicode="&#x167;" horiz-adv-x="624" 
d="M705 924v-3q0 -3 -4.5 -6.5t-10.5 -3.5h-162q-31 0 -47 -11.5t-26 -43.5l-113 -348h227q15 0 16 -8q-5 -11 -22 -13h-227l-82 -251q-25 -83 -7 -123.5t68 -40.5q57 0 104.5 44t90.5 152q6 12 15 9q6 -2 1 -13q-52 -134 -132 -210.5t-185 -76.5q-95 0 -138.5 63.5
t-0.5 190.5l84 256h-93q-15 0 -16 8q6 11 23 13h92l114 348q11 25 6.5 40t-28.5 15h-74q-9 0 -5 5q4 4 11 6q103 9 201.5 78.5t177.5 199.5q10 18 16 18q5 0 -1 -14q-58 -180 -86 -248q-5 -16 3.5 -24t34.5 -8h175z" />
    <glyph glyph-name="Utilde" unicode="&#x168;" horiz-adv-x="1351" 
d="M799 1546q-9 -14 -16 -12q-5 2 3 14q57 91 116.5 135.5t116.5 43.5t118 -29l65 -33q134 -67 234 61q11 13 16 10q4 -2 -4 -14q-82 -128 -165 -164.5t-183 13.5l-72 33q-74 45 -126.5 34t-102.5 -92zM551 -31q-243 0 -333 164.5t1 439.5l213 668q15 53 14.5 87.5
t-19.5 55.5t-41.5 29.5t-51.5 11.5q-11 0 -10 8q0 7 6 7q69 -6 90 -6h317q32 0 125 6q9 0 8 -7q0 -8 -14 -8q-80 -5 -135 -46t-88 -142l-221 -672q-76 -232 -12.5 -371t251.5 -139q181 0 339 144.5t233 378.5l211 661q56 173 -152 186q-14 0 -14 8q-1 7 8 7q93 -6 125 -6
h129q22 0 82 6q4 0 5.5 -4t-0.5 -7.5t-7 -3.5q-53 -5 -89.5 -44.5t-68.5 -139.5l-213 -653q-94 -287 -278 -453t-410 -166z" />
    <glyph glyph-name="utilde" unicode="&#x169;" horiz-adv-x="1132" 
d="M444 1130q-10 -16 -16 -11q-2 5 4 14q57 91 117 135t116.5 42.5t116.5 -28.5l66 -33q132 -69 233 62q10 12 16 10q6 -1 -3 -16q-82 -127 -165.5 -164t-183.5 12l-71 35q-55 28 -90.5 34t-70.5 -15t-69 -77zM1020 659l-148 -444q-41 -137 15 -137q26 0 42 12t38 56t53 135
q6 13 14 7q6 -5 2 -16q-42 -134 -110.5 -215.5t-165.5 -81.5q-145 0 -78 211l16 50q-64 -121 -166 -194t-225 -73q-136 0 -183.5 98.5t13.5 301.5l113 340q43 137 -12 137q-26 0 -42.5 -12t-38.5 -56t-55 -135q-3 -6 -7.5 -7.5t-7.5 3t-1 12.5q42 134 111.5 215.5
t164.5 81.5q145 0 78 -211l-121 -370q-52 -164 -27.5 -246t120.5 -82q92 0 177 78.5t142 216.5l117 360q9 32 17 57t16.5 49t13.5 38q10 32 31 53t50 31t57 14t63 4h7t7.5 -1t6.5 -2.5t1 -4.5q-56 -141 -98 -273z" />
    <glyph glyph-name="Umacron" unicode="&#x16a;" horiz-adv-x="1351" 
d="M1329 1563h-469q-15 0 -15 8q3 9 21 10h469q15 0 15 -8q-3 -9 -21 -10zM551 -31q-243 0 -333 164.5t1 439.5l213 668q15 53 14.5 87.5t-19.5 55.5t-41.5 29.5t-51.5 11.5q-11 0 -10 8q0 7 6 7q69 -6 90 -6h317q32 0 125 6q9 0 8 -7q0 -8 -14 -8q-80 -5 -135 -46t-88 -142
l-221 -672q-76 -232 -12.5 -371t251.5 -139q181 0 339 144.5t233 378.5l211 661q56 173 -152 186q-14 0 -14 8q-1 7 8 7q93 -6 125 -6h129q22 0 82 6q4 0 5.5 -4t-0.5 -7.5t-7 -3.5q-53 -5 -89.5 -44.5t-68.5 -139.5l-213 -653q-94 -287 -278 -453t-410 -166z" />
    <glyph glyph-name="umacron" unicode="&#x16b;" horiz-adv-x="1132" 
d="M504 1149q-13 0 -12 9q2 10 18 11h471q15 0 15 -9q-3 -10 -21 -11h-471zM1020 659l-148 -444q-41 -137 15 -137q26 0 42 12t38 56t53 135q6 13 14 7q6 -5 2 -16q-42 -134 -110.5 -215.5t-165.5 -81.5q-145 0 -78 211l16 50q-64 -121 -166 -194t-225 -73
q-136 0 -183.5 98.5t13.5 301.5l113 340q43 137 -12 137q-26 0 -42.5 -12t-38.5 -56t-55 -135q-3 -6 -7.5 -7.5t-7.5 3t-1 12.5q42 134 111.5 215.5t164.5 81.5q145 0 78 -211l-121 -370q-52 -164 -27.5 -246t120.5 -82q92 0 177 78.5t142 216.5l117 360q9 32 17 57t16.5 49
t13.5 38q10 32 31 53t50 31t57 14t63 4h7t7.5 -1t6.5 -2.5t1 -4.5q-56 -141 -98 -273z" />
    <glyph glyph-name="Ubreve" unicode="&#x16c;" horiz-adv-x="1351" 
d="M987 1790q30 0 46.5 -3t20.5 -7t3 -11q-11 -32 -14 -66.5t2.5 -68.5t30 -56t65.5 -22q46 0 87 24t69 60.5t45 68t26 58.5q3 13 10 13q8 0 4 -11q-14 -42 -38.5 -83.5t-62.5 -82.5t-93 -66.5t-117 -25.5q-50 0 -84.5 18.5t-51 47t-22 64t-2 68t12.5 60.5q6 21 63 21z
M551 -31q-243 0 -333 164.5t1 439.5l213 668q15 53 14.5 87.5t-19.5 55.5t-41.5 29.5t-51.5 11.5q-11 0 -10 8q0 7 6 7q69 -6 90 -6h317q32 0 125 6q9 0 8 -7q0 -8 -14 -8q-80 -5 -135 -46t-88 -142l-221 -672q-76 -232 -12.5 -371t251.5 -139q181 0 339 144.5t233 378.5
l211 661q56 173 -152 186q-14 0 -14 8q-1 7 8 7q93 -6 125 -6h129q22 0 82 6q4 0 5.5 -4t-0.5 -7.5t-7 -3.5q-53 -5 -89.5 -44.5t-68.5 -139.5l-213 -653q-94 -287 -278 -453t-410 -166z" />
    <glyph glyph-name="ubreve" unicode="&#x16d;" horiz-adv-x="1132" 
d="M705 1057q-61 0 -99 27.5t-50 70t-11 84t12 78.5q6 20 66 20q30 0 46 -3t19.5 -7t1.5 -12q-11 -31 -14 -65.5t2.5 -68t30 -55.5t65.5 -22q47 0 88 23.5t68.5 60t44.5 68t26 59.5q3 12 11 12q9 0 6 -10q-14 -41 -39 -83.5t-63 -83.5t-93.5 -67t-117.5 -26zM1020 659
l-148 -444q-41 -137 15 -137q26 0 42 12t38 56t53 135q6 13 14 7q6 -5 2 -16q-42 -134 -110.5 -215.5t-165.5 -81.5q-145 0 -78 211l16 50q-64 -121 -166 -194t-225 -73q-136 0 -183.5 98.5t13.5 301.5l113 340q43 137 -12 137q-26 0 -42.5 -12t-38.5 -56t-55 -135
q-3 -6 -7.5 -7.5t-7.5 3t-1 12.5q42 134 111.5 215.5t164.5 81.5q145 0 78 -211l-121 -370q-52 -164 -27.5 -246t120.5 -82q92 0 177 78.5t142 216.5l117 360q9 32 17 57t16.5 49t13.5 38q10 32 31 53t50 31t57 14t63 4h7t7.5 -1t6.5 -2.5t1 -4.5q-56 -141 -98 -273z" />
    <glyph glyph-name="Uring" unicode="&#x16e;" horiz-adv-x="1351" 
d="M1053 1483q-68 0 -102 40.5t-11 104.5q23 61 93 108t145 46q69 -2 104 -41.5t14 -100.5q-22 -63 -93.5 -110t-149.5 -47zM1108 1507q69 0 98 80q21 56 -2 114t-71 58q-72 0 -101 -80q-20 -55 3 -113.5t73 -58.5zM551 -31q-243 0 -333 164.5t1 439.5l213 668
q15 53 14.5 87.5t-19.5 55.5t-41.5 29.5t-51.5 11.5q-11 0 -10 8q0 7 6 7q69 -6 90 -6h317q32 0 125 6q9 0 8 -7q0 -8 -14 -8q-80 -5 -135 -46t-88 -142l-221 -672q-76 -232 -12.5 -371t251.5 -139q181 0 339 144.5t233 378.5l211 661q56 173 -152 186q-14 0 -14 8q-1 7 8 7
q93 -6 125 -6h129q22 0 82 6q4 0 5.5 -4t-0.5 -7.5t-7 -3.5q-53 -5 -89.5 -44.5t-68.5 -139.5l-213 -653q-94 -287 -278 -453t-410 -166z" />
    <glyph glyph-name="uring" unicode="&#x16f;" horiz-adv-x="1132" 
d="M690 1024q-70 0 -104.5 45.5t-10.5 118.5q21 68 93.5 121.5t152.5 52.5q71 -2 107.5 -46.5t13.5 -113.5q-24 -72 -97 -125t-155 -53zM670 1245q-21 -63 2.5 -127.5t75.5 -64.5q74 0 102 88q11 43 6.5 86t-28 75.5t-56.5 32.5q-73 0 -102 -90zM1020 659l-148 -444
q-41 -137 15 -137q26 0 42 12t38 56t53 135q6 13 14 7q6 -5 2 -16q-42 -134 -110.5 -215.5t-165.5 -81.5q-145 0 -78 211l16 50q-64 -121 -166 -194t-225 -73q-136 0 -183.5 98.5t13.5 301.5l113 340q43 137 -12 137q-26 0 -42.5 -12t-38.5 -56t-55 -135q-3 -6 -7.5 -7.5
t-7.5 3t-1 12.5q42 134 111.5 215.5t164.5 81.5q145 0 78 -211l-121 -370q-52 -164 -27.5 -246t120.5 -82q92 0 177 78.5t142 216.5l117 360q9 32 17 57t16.5 49t13.5 38q10 32 31 53t50 31t57 14t63 4h7t7.5 -1t6.5 -2.5t1 -4.5q-56 -141 -98 -273z" />
    <glyph glyph-name="Uhungarumlaut" unicode="&#x170;" horiz-adv-x="1351" 
d="M774 1507q-8 -2 -7 5q0 6 7 12q68 48 120.5 98t78.5 85t46 64t36 44.5t35 17.5q42 7 86.5 4t40.5 -16q-14 -43 -206.5 -175t-236.5 -139zM1061 1507q-6 -1 -6 4q0 7 8 13q68 48 120.5 98t78.5 85t45.5 64t35.5 44.5t35 17.5q40 7 85.5 4t41.5 -16q-14 -43 -207 -175
t-237 -139zM551 -31q-243 0 -333 164.5t1 439.5l213 668q15 53 14.5 87.5t-19.5 55.5t-41.5 29.5t-51.5 11.5q-11 0 -10 8q0 7 6 7q69 -6 90 -6h317q32 0 125 6q9 0 8 -7q0 -8 -14 -8q-80 -5 -135 -46t-88 -142l-221 -672q-76 -232 -12.5 -371t251.5 -139q181 0 339 144.5
t233 378.5l211 661q56 173 -152 186q-14 0 -14 8q-1 7 8 7q93 -6 125 -6h129q22 0 82 6q4 0 5.5 -4t-0.5 -7.5t-7 -3.5q-53 -5 -89.5 -44.5t-68.5 -139.5l-213 -653q-94 -287 -278 -453t-410 -166z" />
    <glyph glyph-name="uhungarumlaut" unicode="&#x171;" horiz-adv-x="1132" 
d="M504 1059q-9 -1 -9 4.5t9 11.5q68 48 120.5 98t78.5 85t45.5 64t35.5 44.5t35 17.5q42 7 86.5 4t40.5 -16q-9 -27 -108 -103t-203.5 -141t-130.5 -69zM1108 1384q40 7 85.5 4t41.5 -16q-14 -41 -207 -173.5t-237 -139.5q-7 -2 -7 4t9 12q83 58 142.5 119.5t82 99t44.5 63
t46 27.5zM1096 940h7t7.5 -1t6.5 -2.5t1 -4.5q-56 -141 -98 -273l-148 -444q-41 -137 15 -137q26 0 42 12t38 56t53 135q6 13 14 7q6 -5 2 -16q-42 -134 -110.5 -215.5t-165.5 -81.5q-145 0 -78 211l16 50q-64 -121 -166 -194t-225 -73q-136 0 -183.5 98.5t13.5 301.5
l113 340q43 137 -12 137q-26 0 -42.5 -12t-38.5 -56t-55 -135q-3 -6 -7.5 -7.5t-7.5 3t-1 12.5q42 134 111.5 215.5t164.5 81.5q145 0 78 -211l-121 -370q-52 -164 -27.5 -246t120.5 -82q92 0 177 78.5t142 216.5l117 360q9 32 17 57t16.5 49t13.5 38q10 32 31 53t50 31
t57 14t63 4z" />
    <glyph glyph-name="Uogonek" unicode="&#x172;" horiz-adv-x="1351" 
d="M1612 1440q4 0 5.5 -4t-0.5 -7.5t-7 -3.5q-53 -5 -89.5 -44.5t-68.5 -139.5l-213 -653q-67 -206 -182.5 -351.5t-263.5 -213.5q-113 -90 -138 -173q-17 -52 -2.5 -78t54.5 -26q102 0 141 119q4 13 11 10q5 -1 3 -10q-29 -88 -95.5 -139.5t-152.5 -51.5q-63 0 -89.5 32.5
t-6.5 90.5q34 102 184 193q-74 -21 -151 -21q-243 0 -333 164.5t1 439.5l213 668q15 53 14.5 87.5t-19.5 55.5t-41.5 29.5t-51.5 11.5q-11 0 -10 8q0 7 6 7q69 -6 90 -6h317q32 0 125 6q9 0 8 -7q0 -8 -14 -8q-80 -5 -135 -46t-88 -142l-221 -672q-76 -232 -12.5 -371
t251.5 -139q181 0 339 144.5t233 378.5l211 661q56 173 -152 186q-14 0 -14 8q-1 7 8 7q93 -6 125 -6h129q22 0 82 6z" />
    <glyph glyph-name="uogonek" unicode="&#x173;" horiz-adv-x="1132" 
d="M1020 659l-148 -444q-41 -137 15 -137q26 0 42 12t38 56t53 135q6 13 14 7q6 -5 2 -16q-63 -203 -174 -268q-70 -54 -103 -96t-46 -86q-17 -52 -3 -78.5t54 -26.5q102 0 141 119q3 11 11 10q7 0 4 -10q-29 -88 -95.5 -139t-152.5 -51q-63 0 -90 33t-7 90q35 109 211 208
q-8 -2 -26 -2q-145 0 -78 211l16 50q-64 -121 -166 -194t-225 -73q-136 0 -183.5 98.5t13.5 301.5l113 340q43 137 -12 137q-26 0 -42.5 -12t-38.5 -56t-55 -135q-3 -6 -7.5 -7.5t-7.5 3t-1 12.5q42 134 111.5 215.5t164.5 81.5q145 0 78 -211l-121 -370
q-52 -164 -27.5 -246t120.5 -82q92 0 177 78.5t142 216.5l117 360q9 32 17 57t16.5 49t13.5 38q10 32 31 53t50 31t57 14t63 4h7t7.5 -1t6.5 -2.5t1 -4.5q-56 -141 -98 -273z" />
    <glyph glyph-name="Wcircumflex" unicode="&#x174;" horiz-adv-x="1925" 
d="M1059 1511q-7 -1 -7 5q2 6 9 10q66 29 117 67t78.5 70t52 60.5t52.5 44.5t66 16t55 -15.5t20.5 -43.5t7 -59.5t24.5 -70.5t63 -69q4 -2 4.5 -6t-3 -7t-9.5 -2q-46 5 -109.5 69t-80.5 126q-63 -63 -176 -127.5t-164 -67.5zM2218 1440q7 0 5 -8q-3 -6 -9 -7q-46 -4 -84 -41
t-98 -133l-711 -1136q-18 -25 -14 -39l4 -17q2 -19 -19 -28l-170 -54q-28 -8 -28 13l22 948l-512 -821q-17 -26 -12 -41l2 -17q2 -19 -19 -28l-169 -54q-27 -11 -27 13l29 1247q5 176 -121 188q-11 0 -10 10q3 4 6 5q60 -6 84 -6h311q27 0 102 6q9 0 7 -8q-2 -7 -11 -7
q-71 -5 -113 -46t-45 -144l-30 -1096q0 -5 2.5 -7t6.5 0t7 7l492 791q15 26 20 45l6 260q1 54 -10.5 91.5t-34 57.5t-47.5 29.5t-57 11.5q-12 0 -13 8q0 7 7 7q75 -6 104 -6h328q29 0 110 6q9 0 9 -7q-1 -8 -13 -8q-76 -5 -121.5 -46.5t-48.5 -145.5l-32 -1092q0 -10 6 -10
t12 8l2 2l688 1110q24 37 28 67t-7.5 48.5t-35 31.5t-49.5 19t-57 8q-12 0 -13 8q0 7 9 7q87 -6 121 -6h129q22 0 82 6z" />
    <glyph glyph-name="wcircumflex" unicode="&#x175;" horiz-adv-x="1581" 
d="M682 1047q-6 -1 -7 4q0 7 9 12q66 34 117 79t78.5 82.5t52.5 70.5t53 52t66 19t55 -18.5t20.5 -51t7 -69.5t24.5 -82.5t63 -81.5q6 -5 3 -11t-12 -5q-47 5 -111 81t-79 148q-62 -74 -175 -149t-165 -80zM1409 954q102 0 138.5 -108.5t-17.5 -280.5q-51 -159 -157 -297
t-233 -217.5t-241 -79.5q-83 0 -124.5 45.5t-31.5 161.5q-94 -96 -198 -151.5t-199 -55.5q-65 0 -106 25t-61.5 82.5t-12 158.5t46.5 246q27 122 55 222q14 65 6.5 103t-36.5 38q-26 0 -42.5 -12t-38.5 -56t-55 -135q-3 -6 -7.5 -7.5t-7.5 3t-1 12.5q42 134 111.5 215.5
t164.5 81.5q144 0 95 -215q-48 -192 -56 -225q-37 -152 -51 -247.5t-4 -147t35.5 -70t73.5 -18.5q103 0 193.5 112.5t154.5 321.5q31 98 41 186t-8.5 147.5t-67.5 61.5q-24 3 -43 -9t-36 -32t-25 -25q-18 -9 -9 9q40 71 98 114t124 43q97 0 129 -106.5t-17 -276.5
q-49 -171 -71 -272t-22 -165t23 -86.5t72 -22.5q112 0 194 111.5t150 324.5q25 76 38 145t12.5 124t-20.5 88t-58 34q-37 2 -93 -31q-11 -7 -10 -2l6 12q88 123 199 123z" />
    <glyph glyph-name="Ycircumflex" unicode="&#x176;" horiz-adv-x="1200" 
d="M690 1511q-7 -1 -7 5q2 6 9 10q66 29 117 67t78.5 70t52.5 60.5t53 44.5t66 16t55 -15.5t20.5 -43.5t7 -59.5t24.5 -70.5t63 -69q4 -2 4.5 -6t-3 -7t-9.5 -2q-46 5 -110 69t-81 126q-63 -63 -176 -127.5t-164 -67.5zM1493 1440q7 0 5 -8q-3 -6 -9 -7q-44 -4 -80.5 -36.5
t-114.5 -128.5l-534 -660q-24 -30 -33 -65l-109 -342q-16 -42 -13.5 -73t12 -51.5t30.5 -33.5t42.5 -19t47.5 -8q11 0 13 -7q-2 -6 -9 -7q-75 6 -102 6h-313q-30 0 -105 -6q-8 0 -7 7t11 7q66 5 112.5 46t78.5 141l112 340q9 36 4 63l-104 639q-16 101 -52 143t-89 45
q-11 2 -10 10q3 4 6 5q30 0 84 -6h329q87 6 125 6q9 0 8 -6q0 -7 -14 -9q-198 -8 -168 -190l92 -610q3 -27 27 0l508 635q34 42 36.5 74.5t-22 50.5t-57 28t-72.5 12q-14 0 -14 8q-1 7 8 7q93 -6 125 -6h131q24 0 84 6z" />
    <glyph glyph-name="ycircumflex" unicode="&#x177;" horiz-adv-x="1114" 
d="M418 1047q-6 -1 -7 4q0 7 9 12q66 34 117 79t78.5 82.5t52 70.5t52.5 52t66 19t55 -18.5t20.5 -51t7 -69.5t24.5 -82.5t63 -81.5q6 -5 3.5 -11t-11.5 -5q-47 5 -111 81t-79 148q-62 -74 -175 -149t-165 -80zM942 954q33 0 61.5 -14t51 -49t30.5 -87.5t-4 -137.5t-47 -191
q-75 -226 -197 -430.5t-273.5 -339.5t-287.5 -135q-106 0 -151 54t-21 134q23 81 115.5 162t216.5 143q-16 -4 -43 -4q-37 0 -69.5 6.5t-63.5 21.5t-52 42.5t-33.5 65t-10.5 93t20 124.5l80 295q16 63 9.5 101t-35.5 38q-26 0 -42.5 -12t-38.5 -56t-55 -135q-3 -6 -7.5 -7.5
t-7.5 3t-1 12.5q42 134 111.5 215.5t164.5 81.5q52 0 79 -29t26.5 -76.5t-14.5 -107.5l-78 -309q-82 -307 112 -307q58 0 112.5 22.5t107 69t97.5 129t75 192.5q15 57 21.5 111.5t3.5 103t-22.5 78t-54.5 29.5q-19 0 -38 -8.5t-29 -17t-24 -23.5t-17 -17q-6 -6 -6 2q0 3 2 7
q33 70 96.5 113.5t130.5 43.5zM305 -395q56 0 106.5 28t94.5 78t90.5 134.5t89 182.5t94.5 236q-99 -117 -233 -172q-82 -45 -138.5 -90.5t-88 -93t-46.5 -84t-28 -88.5q-13 -58 3.5 -94.5t55.5 -36.5z" />
    <glyph glyph-name="Ydieresis" unicode="&#x178;" horiz-adv-x="1200" 
d="M807 1546q-41 0 -62.5 24t-9.5 58q14 39 56 66.5t92 27.5q41 0 61 -24.5t8 -57.5q-14 -39 -54.5 -66.5t-90.5 -27.5zM1102 1546q-40 0 -61 24t-9 58q14 39 55 66.5t91 27.5q41 0 61 -24.5t8 -57.5q-12 -39 -53 -66.5t-92 -27.5zM326 0q-30 0 -105 -6q-8 0 -7 7t11 7
q66 5 112.5 46t78.5 141l112 340q9 36 4 63l-104 639q-16 101 -52 143t-89 45q-11 2 -10 10q3 4 6 5q30 0 84 -6h329q87 6 125 6q9 0 8 -6q0 -7 -14 -9q-198 -8 -168 -190l92 -610q3 -27 27 0l508 635q34 42 36.5 74.5t-22 50.5t-57 28t-72.5 12q-14 0 -14 8q-1 7 8 7
q93 -6 125 -6h131q24 0 84 6q7 0 5 -8q-3 -6 -9 -7q-44 -4 -80.5 -36.5t-114.5 -128.5l-534 -660q-24 -30 -33 -65l-109 -342q-16 -42 -13.5 -73t12 -51.5t30.5 -33.5t42.5 -19t47.5 -8q11 0 13 -7q-2 -6 -9 -7q-75 6 -102 6h-313z" />
    <glyph glyph-name="Zacute" unicode="&#x179;" horiz-adv-x="1226" 
d="M842 1516q-10 1 -14.5 7.5t1.5 10.5q65 55 100.5 103.5t52 87t24.5 49.5q7 9 74.5 1t72.5 -30q6 -25 -61.5 -81.5t-146 -102t-103.5 -45.5zM915 -20q-12 0 -57 10t-104 10h-641q-45 0 -96 -3t-62 -3q-18 0 -25 7.5t-4 18.5q12 24 29 41l1245 1336q7 6 9 11.5t-0.5 9
t-8.5 3.5l-498 -26q-55 -4 -94.5 -19t-87.5 -55t-99.5 -116.5t-115.5 -198.5q-8 -13 -12 -11q-4 1 0 11q85 184 162 405q15 43 47 43q9 0 65 -11t133 -11l443 2q24 0 137 2t139 2q23 0 17 -19q-2 -6 -47 -59l-1233 -1323q-4 -5 -6 -9t-3 -8.5t2 -6.5t9 -1l553 27
q102 8 208 117t230 360q5 8 10 8q6 0 0 -12q-118 -252 -196 -489q-14 -43 -48 -43z" />
    <glyph glyph-name="zacute" unicode="&#x17a;" horiz-adv-x="915" 
d="M604 1040q-10 0 -6 10q2 5 8 9q84 57 144 118t83 99t45 64t44 28q39 6 84 3t41 -15q-8 -28 -107.5 -105t-204.5 -142.5t-131 -68.5zM508 -27q-33 0 -171.5 30t-209.5 30q-50 0 -93.5 -15t-69 -30t-32.5 -15q-12 0 -13.5 5.5t5.5 9.5q4 8 65.5 63.5t94.5 83.5l635 598
q17 16 14 18.5t-23 -1.5q-6 -1 -9.5 -2t-9.5 -2t-11 -1.5t-12 -1t-13 -0.5q-78 -3 -173.5 17.5t-133.5 15.5q-70 -9 -101.5 -70t-45.5 -198q0 -9 -7 -11q-5 1 -6 5q-10 181 13 258q19 90 90.5 141t185.5 51q48 0 180.5 -28.5t196.5 -28.5q34 0 67 19.5t40 19.5q11 0 8 -14
q-4 -9 -15.5 -21t-24.5 -23.5t-37 -32t-42 -36.5l-680 -621q-9 -7 4 -7q5 0 22 2q38 3 62 3q89 0 205.5 -34.5t165.5 -34.5q22 0 39.5 15t51.5 73t89 176q4 11 10 9q3 -1 0 -9q-78 -192 -168 -320q-28 -49 -61.5 -67.5t-81.5 -18.5z" />
    <glyph glyph-name="Zdotaccent" unicode="&#x17b;" horiz-adv-x="1226" 
d="M991 1688q-56 0 -77.5 27t-0.5 67q18 40 66.5 67t107.5 27q55 0 77.5 -27t4.5 -67q-19 -40 -69 -67t-109 -27zM915 -20q-12 0 -57 10t-104 10h-641q-45 0 -96 -3t-62 -3q-18 0 -25 7.5t-4 18.5q12 24 29 41l1245 1336q7 6 9 11.5t-0.5 9t-8.5 3.5l-498 -26
q-55 -4 -94.5 -19t-87.5 -55t-99.5 -116.5t-115.5 -198.5q-8 -13 -12 -11q-4 1 0 11q85 184 162 405q15 43 47 43q9 0 65 -11t133 -11l443 2q24 0 137 2t139 2q23 0 17 -19q-2 -6 -47 -59l-1233 -1323q-4 -5 -6 -9t-3 -8.5t2 -6.5t9 -1l553 27q102 8 208 117t230 360
q5 8 10 8q6 0 0 -12q-118 -252 -196 -489q-14 -43 -48 -43z" />
    <glyph glyph-name="zdotaccent" unicode="&#x17c;" horiz-adv-x="915" 
d="M686 1096q-41 0 -62.5 25t-9.5 59q14 39 56 66.5t92 27.5q41 0 61 -25t8 -59q-12 -39 -53.5 -66.5t-91.5 -27.5zM508 -27q-33 0 -171.5 30t-209.5 30q-50 0 -93.5 -15t-69 -30t-32.5 -15q-12 0 -13.5 5.5t5.5 9.5q4 8 65.5 63.5t94.5 83.5l635 598q17 16 14 18.5
t-23 -1.5q-6 -1 -9.5 -2t-9.5 -2t-11 -1.5t-12 -1t-13 -0.5q-78 -3 -173.5 17.5t-133.5 15.5q-70 -9 -101.5 -70t-45.5 -198q0 -9 -7 -11q-5 1 -6 5q-10 181 13 258q19 90 90.5 141t185.5 51q48 0 180.5 -28.5t196.5 -28.5q34 0 67 19.5t40 19.5q11 0 8 -14q-4 -9 -15.5 -21
t-24.5 -23.5t-37 -32t-42 -36.5l-680 -621q-9 -7 4 -7q5 0 22 2q38 3 62 3q89 0 205.5 -34.5t165.5 -34.5q22 0 39.5 15t51.5 73t89 176q4 11 10 9q3 -1 0 -9q-78 -192 -168 -320q-28 -49 -61.5 -67.5t-81.5 -18.5z" />
    <glyph glyph-name="Zcaron" unicode="&#x17d;" horiz-adv-x="1226" 
d="M770 1772q-6 5 -3.5 10t11.5 4q46 -5 110 -69t81 -126q64 64 176 128t164 67q6 1 7 -3q0 -6 -9 -11q-66 -29 -117 -67t-78.5 -70t-52.5 -60.5t-53 -45t-66 -16.5t-55 16t-20.5 44t-7 59.5t-24.5 70.5t-63 69zM1419 1438q23 0 17 -19q-2 -6 -47 -59l-1233 -1323
q-4 -5 -6 -9t-3 -8.5t2 -6.5t9 -1l553 27q102 8 208 117t230 360q5 8 10 8q6 0 0 -12q-118 -252 -196 -489q-14 -43 -48 -43q-12 0 -57 10t-104 10h-641q-45 0 -96 -3t-62 -3q-18 0 -25 7.5t-4 18.5q12 24 29 41l1245 1336q7 6 9 11.5t-0.5 9t-8.5 3.5l-498 -26
q-55 -4 -94.5 -19t-87.5 -55t-99.5 -116.5t-115.5 -198.5q-8 -13 -12 -11q-4 1 0 11q85 184 162 405q15 43 47 43q9 0 65 -11t133 -11l443 2q24 0 137 2t139 2z" />
    <glyph glyph-name="zcaron" unicode="&#x17e;" horiz-adv-x="915" 
d="M1032 1362q4 0 5.5 -3.5t-0.5 -8t-7 -7.5q-66 -34 -117 -78t-78.5 -81.5t-52 -70.5t-52.5 -52t-66 -19t-55 18.5t-20.5 51t-7.5 69.5t-25 82t-64 80q-6 5 -3 12t11 7q47 -6 111 -81.5t81 -147.5q62 74 175 149t165 80zM961 934q11 0 8 -14q-4 -9 -15.5 -21t-24.5 -23.5
t-37 -32t-42 -36.5l-680 -621q-9 -7 4 -7q5 0 22 2q38 3 62 3q89 0 205.5 -34.5t165.5 -34.5q22 0 39.5 15t51.5 73t89 176q4 11 10 9q3 -1 0 -9q-78 -192 -168 -320q-28 -49 -61.5 -67.5t-81.5 -18.5q-33 0 -171.5 30t-209.5 30q-50 0 -93.5 -15t-69 -30t-32.5 -15
q-12 0 -13.5 5.5t5.5 9.5q4 8 65.5 63.5t94.5 83.5l635 598q17 16 14 18.5t-23 -1.5q-6 -1 -9.5 -2t-9.5 -2t-11 -1.5t-12 -1t-13 -0.5q-78 -3 -173.5 17.5t-133.5 15.5q-70 -9 -101.5 -70t-45.5 -198q0 -9 -7 -11q-5 1 -6 5q-10 181 13 258q19 90 90.5 141t185.5 51
q48 0 180.5 -28.5t196.5 -28.5q34 0 67 19.5t40 19.5z" />
    <glyph glyph-name="uni018F" unicode="&#x18f;" horiz-adv-x="1392" 
d="M1028 1462q172 0 283.5 -92.5t137.5 -252t-38 -372.5q-49 -151 -148.5 -292.5t-227 -248t-282 -171t-304.5 -64.5q-106 -1 -185 25t-126.5 73t-69.5 112.5t-17 143.5t33 166q42 127 104 234l1018 -10q29 172 -4 313.5t-126 227t-232 85.5q-125 0 -234.5 -39t-230.5 -147
q-12 -11 -15.5 -7.5t7.5 15.5q328 301 657 301zM578 23q196 0 351 140t238 394q22 63 35 139l-819 -20q-46 -87 -72 -164q-46 -151 -26 -259.5t97.5 -169t195.5 -60.5z" />
    <glyph glyph-name="florin" unicode="&#x192;" horiz-adv-x="1261" 
d="M336 51q14 7 26.5 16t23.5 23.5t19.5 26t17.5 33t14 33t13 39t11 38t11.5 42.5t10.5 40q31 124 78 240q15 31 55 131q33 73 -10 73h-94q-19 0 -13 13q7 14 27 16q54 5 93 30.5t86 93.5t112 200q116 205 297 297q139 70 252 48q90 -18 111 -87q3 -11 4 -23q0 -34 -35 -53
q-38 -24 -81 -39.5t-46 0.5q-20 92 -85.5 127t-133.5 0q-50 -24 -83.5 -96t-72.5 -201q-7 -22 -46 -115.5t-44 -109.5q-14 -72 29 -72h176q12 0 6 -12q-10 -16 -31 -17h-151q-30 0 -48.5 -15.5t-33.5 -55.5l-119 -291q-44 -104 -107 -188q-128 -170 -305 -235
q-137 -50 -232 -14q-78 29 -81 103q-8 23 35 51q36 23 79 38t46 1q25 -91 87 -127t132 -2z" />
    <glyph glyph-name="uni019D" unicode="&#x19d;" horiz-adv-x="1372" 
d="M1636 1440q7 0 8 -7q-2 -7 -12 -8q-66 -5 -111.5 -45t-78.5 -141l-404 -1239q-8 -16 -14 -16q-10 0 -14 14l-498 1307q-3 8 -8 8q-9 0 -12 -13l-320 -981h2l-82 -247l-6 -19l-18 -55q-72 -226 -159.5 -332t-219.5 -106q-99 0 -164 43q-11 7 21 41t71 60.5t45 16.5
q40 -81 115 -81q93 0 152.5 83t123.5 275l105 321l331 1020q-64 83 -151 86q-11 2 -11 9q2 5 7 6q33 0 102 -6h234q36 0 45 -25l383 -1106q3 -12 12 -12q6 0 12 16l299 934q16 42 13.5 73t-12 51t-30 33t-42 19t-47.5 8q-11 0 -12 8q0 7 7 7q75 -6 103 -6h133q27 0 102 6z
" />
    <glyph glyph-name="uni01CD" unicode="&#x1cd;" horiz-adv-x="1388" 
d="M1373 1786q6 1 7 -3q0 -6 -9 -11q-66 -29 -117 -67t-78.5 -70t-52 -60.5t-52.5 -45t-66 -16.5t-55 16t-20.5 44t-7 59.5t-24.5 70.5t-63 69q-6 5 -3.5 10t11.5 4q46 -5 109.5 -69t80.5 -126q64 64 176 128t164 67zM1213 8q10 0 10 -8q0 -6 -5 -6q-60 6 -80 6h-326
q-36 0 -129 -6q-8 0 -8 6q-1 8 14 8q41 3 72.5 12t60 29.5t42.5 59.5t11 94l-14 278q-8 18 -45 2q-135 -62 -291 -99.5t-297 -45.5q-41 -3 -63 -35l-4 -6l-2 -2l-80 -115q-25 -37 -29.5 -66t8 -47.5t37.5 -31.5t53.5 -19t61.5 -8q15 0 14 -8q0 -6 -8 -6q-99 6 -133 6h-129
q-26 0 -80 -6q-8 0 -6 8q2 6 8 6q44 4 79.5 39t102.5 131l736 1053q21 35 24 72l-4 96q3 19 -16 26q-6 3 3 7l9 2h192q23 0 23 -21l66 -1216q6 -100 38 -142t84 -47zM816 500q33 16 41 47l-35 702l-602 -866q-7 -12 -3 -22.5t17 -10.5q142 9 295.5 48t286.5 102z" />
    <glyph glyph-name="uni01CE" unicode="&#x1ce;" horiz-adv-x="1118" 
d="M1165 1362q4 0 5.5 -3.5t-0.5 -8t-7 -7.5q-66 -34 -117 -78t-78.5 -81.5t-52 -70.5t-52.5 -52t-66 -19t-55 18.5t-20.5 51t-7.5 69.5t-25 82t-64 80q-6 5 -3 12t11 7q47 -6 111 -81.5t81 -147.5q62 74 175 149t165 80zM1094 938q8 7 15 8.5t9.5 -3t-2.5 -15.5
q-63 -139 -127 -328l-127 -385q-44 -137 12 -137q26 0 42.5 12t38.5 56t55 135q5 13 13 7q6 -5 3 -16q-42 -134 -111.5 -215.5t-164.5 -81.5q-52 0 -76.5 29t-23.5 74.5t22 107.5l2 9q5 31 -1 29l-3 -3q-86 -116 -190.5 -184t-215.5 -68q-80 0 -135.5 38.5t-79.5 103.5
t-22 150t32 177q45 137 142.5 256t220.5 189.5t240 70.5q47 0 88 -12.5t68.5 -31t50 -36.5t43 -30.5t38.5 -12.5q16 0 38.5 17.5t53.5 46t52 43.5zM729 365l59 178q18 66 20.5 130t-10.5 120t-54.5 90.5t-106.5 34.5q-263 0 -363 -316q-33 -100 -39.5 -196t11.5 -167.5
t62 -115t106 -43.5q109 0 188.5 76.5t126.5 208.5z" />
    <glyph glyph-name="uni01CF" unicode="&#x1cf;" horiz-adv-x="610" 
d="M1014 1786q6 1 7 -3q0 -6 -9 -11q-66 -29 -117 -67t-78.5 -70t-52.5 -60.5t-53 -45t-66 -16.5t-55 16t-20.5 44t-7 59.5t-24.5 70.5t-63 69q-6 5 -3.5 10t11.5 4q46 -5 110 -69t81 -126q64 64 176 128t164 67zM854 1440q7 0 7 -7q-1 -8 -13 -8q-66 -5 -112 -45t-79 -141
l-338 -1046q-16 -42 -13.5 -73t12 -51.5t30.5 -33.5t42.5 -19t47.5 -8q11 0 11.5 -7t-7.5 -7q-75 6 -102 6h-313q-30 0 -105 -6q-8 0 -7 7t11 7q66 5 112.5 46t78.5 141l340 1046q16 42 13.5 73t-12 51t-30.5 33t-42.5 19t-47.5 8q-12 0 -13 8q0 7 7 7q81 -6 104 -6h314
q23 0 104 6z" />
    <glyph glyph-name="uni01D0" unicode="&#x1d0;" horiz-adv-x="526" 
d="M768 1362q4 0 5.5 -3.5t-0.5 -8t-7 -7.5q-66 -34 -117 -78t-78.5 -81.5t-52.5 -70.5t-53 -52t-66 -19t-55 18.5t-20.5 51t-7.5 69.5t-25 82t-64 80q-6 5 -2.5 12t11.5 7q47 -6 111 -81.5t81 -147.5q62 74 175 149t165 80zM373 948q52 0 76 -29t22.5 -74.5t-22.5 -107.5
l-173 -522q-41 -137 15 -137q25 0 41 12t38.5 56.5t53.5 134.5q6 13 14 7q6 -5 2 -16q-42 -134 -111.5 -215.5t-164.5 -81.5q-145 0 -78 211l172 525q43 135 -12 135q-26 0 -42 -12t-38 -56t-53 -135q-5 -10 -13 -7.5t-4 15.5q42 134 111 215.5t166 81.5z" />
    <glyph glyph-name="uni01D1" unicode="&#x1d1;" horiz-adv-x="1521" 
d="M928 1772q-6 5 -3.5 10t11.5 4q46 -5 109.5 -69t80.5 -126q64 64 176 128t164 67q6 1 7 -3q0 -6 -9 -11q-66 -29 -117 -67t-78.5 -70t-52 -60.5t-52.5 -45t-66 -16.5t-55 16t-20.5 44t-7 59.5t-24.5 70.5t-63 69zM1118 1462q141 0 246 -54t158.5 -150t61.5 -227t-44 -286
q-50 -154 -150 -295.5t-229 -248t-288.5 -169.5t-319.5 -63q-138 0 -240 53.5t-154 149.5t-58.5 228t46.5 290q49 152 149 293t228 247t284 169t310 63zM1325 731q22 113 24 214t-23.5 186.5t-70 147.5t-114.5 97t-158 35q-108 0 -207.5 -57t-176.5 -155t-136 -221.5
t-96 -264.5q-25 -112 -27 -215t20 -190t65 -151.5t112.5 -100.5t158.5 -36q110 0 211.5 57.5t180 156.5t139 225.5t98.5 271.5z" />
    </font>
</defs>
</svg>
