<?xml version="1.0" standalone="no"?>
<!DOCTYPE svg PUBLIC "-//W3C//DTD SVG 1.1//EN" "http://www.w3.org/Graphics/SVG/1.1/DTD/svg11.dtd" >
<svg xmlns="http://www.w3.org/2000/svg" xmlns:xlink="http://www.w3.org/1999/xlink" version="1.1">
<metadata>
Created by FontForge 20201107 at Mon Apr 10 20:36:50 2000
 By 
Copyright (c) Typographer Mediengestaltung, 2000. All rights reserved.
</metadata>
<defs>
<font id="CaslonAntique-Italic" horiz-adv-x="500" >
  <font-face 
    font-family="Caslon Antique"
    font-weight="400"
    font-style="italic"
    font-stretch="normal"
    units-per-em="1000"
    panose-1="2 0 5 3 0 0 0 0 0 0"
    ascent="800"
    descent="-200"
    x-height="357"
    cap-height="672"
    bbox="-186.5 -311 956.182 887"
    underline-thickness="42"
    underline-position="-151"
    slope="-11"
    unicode-range="U+0020-FB02"
  />
<missing-glyph 
d="M63 0v701h375v-701h-375zM125 63h250v576h-250v-576z" />
    <glyph glyph-name=".notdef" 
d="M63 0v701h375v-701h-375zM125 63h250v576h-250v-576z" />
    <glyph glyph-name=".null" horiz-adv-x="0" 
 />
    <glyph glyph-name="nonmarkingreturn" horiz-adv-x="333" 
 />
    <glyph glyph-name="space" unicode=" " horiz-adv-x="325" 
 />
    <glyph glyph-name="exclam" unicode="!" horiz-adv-x="214" 
d="M132 200l5 24q2 5 3 32q2 19 6 50q0 1 11 81q2 8 -3 37q-1 7 10 83q11 64 14 94l1 8q15 67 57 73q23 4 30 4q31 0 31 -44q0 -18 -6 -47q-11 -54 -43 -135l-8 -35l-20 -60q-2 -6 -8.5 -23t-10.5 -28q-3 -3 -7 -21l-19 -74l-1 -5q-2 -4 -4.5 -10.5t-4.5 -14.5
q-3 -34 -20 -34q-18 0 -19 13q-2 2 6 32zM114 92q4 0 26 -11q22 -10 23 -13q8 -8 3 -28q-10 -46 -66 -46q-11 0 -29 19q-8 10 -4 32q11 47 47 47z" />
    <glyph glyph-name="quotedbl" unicode="&#x22;" horiz-adv-x="336" 
d="M235 683q18 0 30 -24q12 -23 6 -34l-18 -40l-5 -15q-16 -25 -19 -35q-5 -15 -12 -45q-11 -33 -24 -33q-19 0 -19 33q0 21 7 50q1 4 -2 16q-7 26 -2 51q3 14 10 25q4 14 10 22q23 29 38 29zM409 690q19 0 29 -33q1 -1 -1 -18q1 -9 0 -16q-5 -27 -24 -60q-10 -15 -17 -36
q-25 -64 -38 -64q-7 0 -17 10q-7 4 -5 13q1 3 3 12t4 15q0 3 0.5 8.5t1.5 15.5t2 18q2 36 1 62q-2 8 18 44l10 17q10 12 33 12z" />
    <glyph glyph-name="numbersign" unicode="#" horiz-adv-x="520" 
d="M505 275q27 0 24 -15q-7 -39 -19 -42q-19 -3 -60 -4q-43 -2 -56 -11q-15 -16 -18 -35l-4 -23l-13 -26q-6 -13 -15 -46q-9 -30 -28 -30q-5 2 -16 3l-12 -1q-10 0 -9 11l3 9q13 39 21 55l7 19q5 14 10 26q8 19 12 29q1 6 -7 10t-15 4l-33 -1h-25q-16 -1 -22 -11
q-4 -4 -12 -24l-16 -30q0 -5 -4 -17l-5 -13q-2 -6 -12 -38q-13 -31 -33 -31q-22 0 -30 6q-3 5 0 15q2 12 12 39q4 12 6 16q7 14 23 57q4 14 2 26q-2 9 -11 7h-9q-15 0 -52 -4h-5q-29 0 -27 14l2 13q6 27 21 31q12 0 17 1l25 3l26 -1q33 -1 47 11q11 11 21 52q3 15 13 33
q4 10 5 15q4 19 -11 19h-5l-45 -2q-3 0 -6 -0.5t-5 -0.5t-4 -1h-2q-32 0 -29 12q8 35 16 42q5 4 27 5l25 2q5 0 12.5 0.5t19.5 1t21 0.5q30 5 37 42l5 25q0 1 1.5 4t4 9t5.5 13q8 19 16 46q9 30 28 30q3 0 16 -3l13 1q6 0 8 -2q2 -3 0 -9l-3 -9q-4 -12 -20 -56
q-1 -3 -11 -29l-6 -15q-5 -11 -12 -29q-2 -6 5.5 -10.5t14.5 -4.5l34 2q3 0 9 0.5t14 1t15 0.5q3 0 11 8q1 2 2.5 5.5t4 9t4.5 9.5t14 30q1 2 6 17l5 14q0 1 1.5 5.5t4 13.5t5.5 19q14 30 33 30q17 0 25 -5t6 -15q0 -4 -13 -39q-13 -27 -30 -73q-7 -33 10 -33q9 0 24 1
q5 1 18 1.5t19 0.5q2 1 6 1q24 0 29 -6t-3 -27q-7 -20 -23 -25l-17 -2l-25 -2q-5 0 -51 -2q-20 -3 -28 -15q-1 -1 -6 -16l-2 -6q-7 -25 -20 -56l-5 -15q-1 -10 0 -15q4 -5 11 -4h9q11 0 41 2zM380 395l-30 -2q-21 0 -38 -1q-12 -2 -23 -33q-10 -25 -14 -31q-3 -14 -13 -39
q-3 -15 6 -16l13 -2l30 2q5 1 18.5 1.5t19.5 0.5q5 1 10 8l1 3q2 2 3.5 5l4 8t4.5 10q11 22 13 28q9 18 13 41q3 14 -6 15q-2 1 -6 1.5t-6 0.5z" />
    <glyph glyph-name="dollar" unicode="$" horiz-adv-x="469" 
d="M113 246l8 -2v-1q0 -1 0.5 -2.5t1 -4t0.5 -4.5l3 -11l2 -30l3 -16l4 -23l11 -22q3 -21 12 -39q2 -5 20 -20q16 -13 24 -13t18 19q4 7 9 18l6 29l10 30q0 2 1.5 13.5t3.5 21.5q0 3 12 44q9 46 2 65q0 2 -21 17l-11 12l-29 10q-15 15 -35 43q-10 34 -14 49q-1 2 -1 27
q0 27 1 30q2 11 17 48q1 5 15 25q49 72 137 91l14 3q21 4 25 8l7 55q1 9 24 9q19 0 15 -12l-3 -11l-5 -18l-8 -20q-2 -10 21 -12q5 0 15 -2l48 -20l39 -10q3 -3 5 -7q2 -6 -7 -49l-1 -14l-6 -31l-2 -12q-4 -16 -8 -44q2 -23 -19 -23q-9 0 -10 18q0 2 -2.5 15.5t-3.5 20.5
l-12 31q-5 34 -7 39q-4 4 -23 18l-25 19q-4 0 -7.5 -5t-8 -15.5t-6.5 -14.5l-6 -25l-4 -12l-6 -35q-3 -15 -9 -39l-10 -34q-4 -17 7 -32q8 -10 34 -28l38 -14q4 -1 6 -5q2 -1 21 -40l13 -26l3 -18q3 -17 3 -28q4 -34 0 -50q-4 -22 -29 -55q-26 -35 -31 -41q-2 -2 -7 -8
t-8 -11l-16 -10q-28 -17 -40 -21q-28 -12 -49 -15q-36 -5 -41 -26q-2 -13 -1 -26l-1 -3q0 -1 -1 -3t-2 -5.5t-2 -7.5l-3 -9l-6 -35q-2 -11 -18 -11q-10 0 -17 10q-2 4 2 21v17q0 1 1.5 4t4 10t5.5 14q1 4 1.5 11.5t0.5 11.5q3 16 -4 26q-8 3 -26 5q-7 1 -27 12q-8 5 -67 24
q-25 7 -22 23q2 4 6 19l2 9q1 5 2.5 18.5t2.5 21.5q1 5 12 35l4 26l4 12q6 15 7 17q6 6 14 6zM325 621q-5 -3 -47 -24q-6 -4 -23 -30q-15 -24 -19 -38q-4 -21 7 -51q1 -1 4 -14q2 -7 6 -14l24 -18q8 -6 13 -9q16 0 27 47q0 2 0.5 5.5t1 9t0.5 10.5l3 10l3 19l20 65q2 8 2 11
q0 21 -22 21zM319 273q-14 0 -19 -23q0 -12 -3 -24q0 -1 -1 -3.5l-2 -5t-2.5 -6.5t-2.5 -7l-12 -56q-5 -16 -11 -44l-7 -42q0 -15 7 -12l21 9q9 5 33 15q21 15 44 51q16 26 16 60q0 22 -20 51q-21 30 -41 37z" />
    <glyph glyph-name="percent" unicode="%" horiz-adv-x="574" 
d="M288 679q27 0 40 -8q46 -31 42 -86q-2 -20 0 -32l-1 -17q-1 -2 -2.5 -16.5t-1.5 -16.5q-2 -8 -7 -20l-4 -11l-14 -44q-11 -32 -28 -50q-51 -58 -104 -58q-42 0 -76 42q-8 10 -10 36l-2 22l8 30q2 4 3 27q1 1 6 18q0 2 10 35l4 13l9 19q10 27 34 59q28 36 42 43
q28 15 52 15zM204 534l-2 -7q-2 -12 -2 -13l-1 -5l-11 -37l-2 -15l-5 -20q-3 -21 -2 -25q1 -29 10.5 -41t34.5 -12q38 0 52 53q4 14 12 38l11 33q1 6 3 20l5 19l2 15l9 46q0 2 -0.5 5.5t-1 9t-0.5 9.5q-1 34 -36 34q-32 0 -47 -19q-7 -10 -15 -39l-4 -9l-3 -13zM622 684
q11 0 16 -4t4 -12q-2 -8 -6 -12l-88 -111q-13 -19 -53 -69q-15 -17 -71 -90q-2 -2 -6 -8t-7 -9l-17 -17q-3 -5 -7.5 -11t-11 -15t-10.5 -15q-45 -61 -60 -87q-10 -17 -22 -26l-37 -33l-8 -14q-1 -1 -3.5 -4.5t-7 -10t-9.5 -12.5q-10 -10 -32 -41q-15 -15 -40 -42
q-4 -5 -13 -17t-13 -17q-20 -23 -33 -23q-14 0 -20 4t-4 12q1 2 8 9q10 14 17 23q2 2 31 40q2 2 6.5 7t13 14t16.5 17l20 27l40 51l9 12l14 18q20 23 31 33q17 14 49 66q8 13 27 32l17 25l34 38l23 32q21 24 45 54q22 33 49 71q0 1 15 17q1 2 6 8.5t13.5 17.5t17.5 23
q23 31 36 41q8 8 21 8zM505 347q26 0 39 -8q46 -28 43 -86q-2 -28 -1 -32l-1 -17l-4 -32q-1 -1 -7 -21l-3 -10l-16 -45q-15 -46 -49 -75q-37 -31 -82 -31q-40 0 -75 41q-8 9 -11.5 27.5t-0.5 30.5l6 30q0 1 6.5 27t13.5 52l4 13l10 19q9 27 31 57q25 37 45 46q30 14 52 14z
M420 203l-4 -21q1 -1 0 -5l-11 -36l-8 -36q-4 -18 -2 -24q1 -28 10 -40q11 -14 36 -14q37 0 51 53q2 5 5 14q6 18 8 25l10 33q2 5 3 19l6 20l1 15l9 45q0 2 -0.5 5.5t-1 9t-0.5 10.5q-2 33 -35 33t-48 -19q-9 -11 -16 -39l-4 -9l-1 -13z" />
    <glyph glyph-name="ampersand" unicode="&#x26;" horiz-adv-x="567" 
d="M450 602q-2 2 0 12q1 13 -5.5 19t-20.5 6q-20 0 -37 -16q-28 -26 -32 -50q-1 -2 -1.5 -6t-0.5 -6l-7 -28q-1 -6 12 -37q10 -25 20 -33q9 -6 38 -17q1 -1 1 -4q-2 -5 -9 -5q-1 0 -7.5 0.5t-17.5 1t-22 0.5h-9q-24 0 -62 -30q-46 -25 -72 -114q-18 -34 -17 -45q-1 -5 2 -24
q2 -11 0 -19q-5 -17 -9 -29q-3 -14 -3 -53q-2 -52 11 -66q18 -24 29 -29q1 0 5 -1t13 -3l18 -4q25 -6 28 -6q11 0 47 10q10 4 26 8q8 5 21 19q2 2 12 10q25 20 33 31q30 37 33 59l1 13q6 44 6 51q0 29 -13 42q-5 5 -9 6q-8 0 -24 -16q-10 -10 -21 -10q-15 0 -19 18
q-3 14 0 29q6 29 29 49q2 1 6 4t10 7t11 8q27 18 40 24q10 4 48 9l41 12l28 6q6 2 22 10l6 2h2q4 0 5.5 -1.5t0.5 -3.5q-1 -4 -32 -23l-22 -19l-25 -16q-18 -15 -25 -18l-30 -10q-5 -2 -7 -10t4 -15q33 -43 33 -64q0 -20 -4 -37q-1 -25 -3 -34q-5 -28 -11 -45
q-7 -17 -33 -42q-4 -3 -19 -23q-34 -45 -68 -52l-19 -4q-64 -18 -121 -18q-22 0 -36 2q-1 2 -12 6q-40 15 -75 59q-3 6 -25 24q-10 3 -20 30q-3 15 -10 69q-1 1 4 31l6 32q2 1 5 2t4 2q7 19 21 59q17 44 25 57q22 34 47 51l32 21q12 7 40 16q14 5 15 13q2 9 -5.5 30t-7.5 24
q-2 25 2 39q9 45 50 89q19 18 61 38q20 10 46 10q81 0 81 -60q0 -12 -3 -25q-11 -47 -39 -47q-11 0 -15 13q-3 13 0 22l2 8z" />
    <glyph glyph-name="quotesingle" unicode="'" horiz-adv-x="168" 
d="M235 689q9 0 18.5 -13.5t8.5 -23.5l-2 -14q2 -11 1 -13l-1 -6q-6 -24 -24 -56q-9 -17 -17 -36q-24 -64 -39 -64q-5 0 -12 6.5t-6 10.5l17 66q0 1 -2 9q-6 15 -4 22l1 14v41q2 10 15 29q19 28 46 28z" />
    <glyph glyph-name="parenleft" unicode="(" horiz-adv-x="293" 
d="M303 627l12 12l8 7q12 12 31 34q14 17 24 17q7 0 5 -8q-8 -11 -26 -34.5t-26 -33.5l-16 -28l-9 -13l-13 -25q-17 -33 -20 -48l-6 -27q-5 -18 -15 -40l-6 -14q-5 -11 -19 -55l-6 -20q-1 -6 -3 -22l-3 -17q0 -4 -0.5 -11t-1.5 -11q-2 -7 -9 -26q-4 -13 -8 -55
q-22 -105 -13 -153q2 -28 7 -56l9 -21q1 -1 10 -25q7 -19 6 -23q-1 -9 -10 -9q-17 0 -44 77q-32 35 -32 89q0 11 -9 59l-1 27q-3 16 -5 54q0 14 5 41q3 7 9 24q20 75 31 111q13 28 37 76l16 32q18 23 49 71q12 19 18 20t24 24z" />
    <glyph glyph-name="parenright" unicode=")" horiz-adv-x="298" 
d="M230 697q11 0 20 -32q4 -13 16 -32l11 -26q1 -2 3 -6.5t5 -11.5t6 -13q2 -3 3 -19l5 -34q6 -12 12 -33q2 -10 1 -18l-2 -29l2 -63l-6 -34l-1 -23q-1 -1 -3 -10q-1 0 -4 -9l-15 -47q-3 -7 -13 -42q-6 -17 -19 -41q-9 -20 -24 -42l-7 -11l-10 -15q-10 -18 -33 -51
q-30 -39 -46 -53q-9 -7 -34 -34l-16 -15q-29 -28 -39 -28q-3 0 -3 1q1 5 21 25q9 8 49 72q13 19 30 46q11 20 14 34q4 4 24 63l5 14l6 22l3 11l7 28q1 4 13 40l1 5q0 6 1.5 18.5t2.5 26.5q1 7 8 25l11 35q0 5 3 35l1 13q3 26 3 43q3 12 7 24q1 2 -1 40q0 5 -1.5 24t-2.5 32
q-4 30 -5 36q-1 7 -13 27q-11 19 -10 23q2 9 14 9z" />
    <glyph glyph-name="asterisk" unicode="*" horiz-adv-x="368" 
d="M206 618q5 0 19 -8l8 -4l7 -7l16 -5q19 -11 22 -11q6 0 7 6q2 5 0 14q8 24 8 25q2 2 0 28q-3 25 24 35q9 4 18 4q7 0 12 -12q0 -8 0.5 -15t0.5 -9v-2l-5 -15l-9 -40q-5 -20 14 -20q17 0 48 22q6 2 20 2l6 2t5 1.5t3.5 1t2.5 0.5h1q16 0 7 -41q-3 -13 -17 -19
q-7 -1 -22 -2l-27 -7l-15 1q-16 1 -21 -20q-1 -4 7 -17l11 -20l4 -12q9 -11 10 -14q3 -9 0 -21q-1 -10 -11 -18q-17 -13 -26 -13q-12 0 -24 37l-5 13v12l-5 24q-1 7 -7 7q-5 0 -24 -19q-1 -1 -4 -4.5t-6 -6.5l-3 -6t-6.5 -12t-7.5 -14t-15.5 -11.5t-21.5 -5.5t-17 10.5
t-6 19.5q2 8 16 22l11 13l11 9l13 12q19 14 20 24q2 5 -7 8q-22 4 -53 17l-10 3q-13 4 -10 12l5 14l3.5 10.5t3.5 11.5q7 10 21 10z" />
    <glyph glyph-name="plus" unicode="+" horiz-adv-x="461" 
d="M147 363l40 -2l40 3q3 0 4 -1q18 -5 23 -5q22 0 23 15l6 28q9 25 9 29q0 1 0.5 3.5t1 7t0.5 7.5l3 14l4 37q7 31 29 31q32 0 34 -14q1 -8 -7 -45q0 -1 -0.5 -6.5t-2 -12.5t-1.5 -9t-4 -14.5t-5 -16.5q-5 -22 -1 -39q3 -8 14 -8q10 0 23 1q3 1 11 1q2 0 12 -1t12 -1
q4 0 21 2t19 2q19 0 27.5 -6t6.5 -18q-6 -31 -20 -34q-7 0 -16 -1q-29 -3 -37 -3q-2 1 -3 1h-17h-15q-61 0 -67 -32q0 -1 -2 -31q0 -7 -1 -13q-4 -10 -9 -29q0 -1 -1 -5.5t-2 -13.5t-2 -17l-2 -13q-5 -17 -20 -17q-3 0 -16 3l-13 -1q-7 -1 -10 5q-2 4 0 15q0 3 1.5 14
t2.5 19q1 3 11 32q1 4 3 20q0 9 3 14q1 2 3 10.5t4 14.5q3 12 -12 17q-11 3 -15 2l-30 -2h-33l-21 -4q-1 0 -3 0.5t-5 1t-5 0.5l-11 2q-18 3 -14 15l3 15l1 20q3 13 28 13z" />
    <glyph glyph-name="comma" unicode="," horiz-adv-x="198" 
d="M127 92q18 -2 24 -21q0 -1 0.5 -4t1.5 -8.5t2 -9.5l5 -22q0 -7 -4 -24l-8 -20q-13 -34 -45 -55q-5 -4 -21 -13q-27 -8 -54 -8q-6 0 -5 7q1 6 9 15q28 19 35 23q12 8 16 29q4 19 -14 33q-12 8 -14 11.5t0 12.5q6 27 28 40q5 3 44 14z" />
    <glyph glyph-name="hyphen" unicode="-" horiz-adv-x="198" 
d="M63 226l20 -1h17l16 -2q4 0 14.5 2.5t12.5 2.5q4 0 22.5 -1.5t20.5 -1.5t18 2t19 2q14 0 20 -12q3 -5 2 -8l-8 -16q-7 -26 -9 -28q-6 -8 -12 -8q-2 0 -15.5 2.5t-17.5 2.5q-13 0 -27 -3q0 -1 -3 -1t-4 -1l-27 4l-19 -3l-16 2l-21 -3l-12 -1q-1 -1 -8 -1q-12 0 -11 12
l18 53q1 4 10 6z" />
    <glyph glyph-name="period" unicode="." horiz-adv-x="200" 
d="M106 92q5 0 26 -10q23 -11 24 -14q6 -8 2 -28q-10 -46 -65 -46q-10 0 -29 19q-10 10 -6 31q10 48 48 48z" />
    <glyph glyph-name="slash" unicode="/" horiz-adv-x="428" 
d="M540 698q10 0 14.5 -3.5t2.5 -10.5q-2 -10 -5 -13l-23 -32q-3 -4 -12.5 -17.5t-15.5 -22.5q-4 -6 -14.5 -20t-16.5 -23l-15 -31q-3 -3 -8.5 -10.5t-16.5 -22t-21 -26.5q-9 -13 -85 -117q-10 -13 -23 -34q-26 -42 -29 -43q-1 -2 -4.5 -6.5t-8 -10t-9.5 -11.5l-11 -23
q-5 -11 -17 -25l-17 -20l-16 -14q-3 -3 -21 -38q-10 -15 -29 -34l-13 -24q-39 -42 -45 -51l-19 -30q-11 -14 -30 -14q-13 0 -18 8q-1 1 -1 4l4 5q4 5 12 16.5t18 24.5l13 17l14 24q23 25 32 38l18 29l40 54q14 24 38 58q9 13 23 28q22 25 23 28l16 27q6 8 28 39.5t39 55.5
q21 28 42 52l10 18l30 43q21 43 24 46q5 5 21 25l25 38q7 7 12 15q22 34 45 34z" />
    <glyph glyph-name="zero" unicode="0" horiz-adv-x="461" 
d="M369 689l40 -2q31 -1 60 -43l5 -8q25 -37 31 -81q2 -18 -2 -51q-1 -7 -2 -29t-2 -37l-3 -33q-5 -43 -9 -64q-1 -7 -13 -41l-6 -21l-11 -36l-7 -23l-11 -30q-12 -60 -65 -122q0 -2 -7 -9q-53 -61 -98 -71q-34 -8 -49 -8q-39 0 -74 35q-44 47 -51 82q-6 28 -5 43v10
q0 42 3 58l1 6q3 8 6 23q0 1 1.5 9.5t3 21t3.5 21.5l2 7q6 22 9 35q13 49 19 68l8 25l16 37q10 33 33 75q4 7 31 49q40 60 66 76q43 27 77 28zM375 650q-21 0 -46 -14q-2 -1 -4 -2.5t-5.5 -4t-5.5 -3.5q-32 -15 -49 -77l-8 -28l-8 -33l-9 -26l-3 -21q-7 -19 -15 -50
q-2 -6 -5 -31l-2 -11q-1 -8 -18 -58l-6 -32q0 -1 -6 -21l-1 -4q-8 -35 -9 -70l-1 -24v-26q-3 -38 13 -69q2 -6 11 -16q6 -6 34 -7l15 -1q43 0 77 72q5 9 15 52l10 27l9 32l29 104l6 34l9 33l5 34l20 104v43q0 25 -7 63q-12 31 -45 31z" />
    <glyph glyph-name="one" unicode="1" horiz-adv-x="274" 
d="M315 692q20 0 20 -16q0 -6 -1 -10l-4 -13l-7 -33l-6 -24l-21 -96l-22 -82l-28 -109l-11 -48l-4 -15l-9 -45l-3 -23l-8 -37l-3 -22q0 -2 -1.5 -12.5t-3.5 -19.5q2 -12 10 -31q9 -23 8 -29q-1 -11 -12 -18q-13 -9 -18 -9l-43 2q-34 -2 -57 -2q-14 0 -20.5 5t-4.5 15
q1 10 11 24q0 1 3.5 5t11.5 14l16 20q7 8 8 18l20 87l10 32q5 19 12 47l4 18q0 2 1.5 12.5t3.5 19.5q0 3 2 11q1 8 10 39q8 26 23 93l5 26q10 84 8 93q-1 9 -6 17q-3 2 -13 9.5l-18 13.5q-5 3 -4 13q5 17 47 30q2 1 15 5.5t24 8.5q41 16 55 16z" />
    <glyph glyph-name="two" unicode="2" horiz-adv-x="421" 
d="M330 607q-1 0 -31 -8q-49 -6 -89 -34q-1 -1 -6 -1q-12 0 -10 12q3 13 43 56q49 52 109 52q48 0 65 -4q7 -1 26 -13q4 -4 13 -9q30 -18 38 -29q16 -23 16 -55q0 -19 -4 -35l-8 -30l-4 -24q-5 -25 -33 -74q-19 -33 -69 -76q-3 -3 -67 -59q-2 -2 -62 -57q-47 -47 -84 -85
q-4 -6 -14 -20q-1 -5 4 -8t16 -4l11 -2l33 2q19 2 30 0q9 0 28 -3q4 -1 11 -1q34 0 56 19l20 21q2 3 9 3q19 0 14 -18q-2 -3 -17 -42l-7 -20q0 -1 -9 -25q-13 -37 -36 -37q-13 0 -28 1t-28 1q-16 0 -23 -1h-17q-2 0 -23.5 -1t-31.5 -1h-25q-7 0 -45 2l-55 -2q-22 -2 -18 21
q3 14 29 50q16 22 22 28q17 17 36 35q7 8 70 73l88 89q27 27 35 37q75 93 90 164q3 12 1 44q1 9 -2 25q-2 5 -10 12q-37 31 -57 31z" />
    <glyph glyph-name="three" unicode="3" horiz-adv-x="435" 
d="M100 183q21 0 33 -24q13 -21 8 -44q0 -1 -2 -7q-1 -2 -3.5 -11.5t-4.5 -15.5q-1 -6 1 -11l6 -8q29 -35 48 -35q35 0 73 23q17 12 21 16q6 6 13 15l1 1q2 3 11 13t16 18q18 29 32 79l4 14q2 8 0 19q-1 3 -14 31q-9 29 -15 40q-19 31 -68 45q-18 5 -15 21q3 15 60 34
q23 5 56 51q30 44 36 70q3 17 2 32q-3 10 -7 28q-14 48 -73 48q-49 0 -74 -16q-13 -9 -20 -9q-12 0 -9 15q6 31 57 55q37 18 62 18q18 0 38 -10q52 -25 66 -35q25 -21 29 -28q9 -13 16 -35l6 -18q2 -12 -1 -26q0 -1 -1 -4t-2.5 -8.5t-2.5 -9.5q-12 -62 -90 -118
q-28 -20 -29 -30q-2 -8 12 -21q34 -31 47 -64l7 -18q0 -1 2 -6t3 -8q3 -23 -8 -77q0 -2 -2 -8t-3 -10q-4 -19 -23 -63q-23 -39 -50 -55q-24 -13 -52 -24l-15 -8l-30 -7q-22 -12 -57 -13l-34 -2q-31 -2 -65 38q-14 18 -41 59q-8 21 -1 53q10 51 46 51z" />
    <glyph glyph-name="four" unicode="4" horiz-adv-x="421" 
d="M477 658l-2 -10q-1 -5 -10 -39l-39 -184q-1 -5 -1 -12l-1 -5q-10 -36 -11 -41q-3 -15 -1 -20l13 -14q1 -3 0.5 -10.5t-6 -20t-15.5 -21.5q-5 -5 -17 -16l-4 -25l-9 -36l-5 -21l-4 -24l-16 -73q-2 -15 -6 -34q-11 -50 -40 -50q-15 0 -39 10l-2 1l-20 10q21 53 27 81
q2 11 1 36l3 13q4 20 19 76l5 20q0 2 5 18q2 11 -6.5 16.5t-27.5 5.5h-121q-12 0 -21 1h-17q-48 -2 -42 25q2 12 20 29l38 31q5 7 37 39l13 12q16 16 71 61l21 20l15 14l24 24q33 30 46 43q8 9 24 21l29 29l21 22q15 15 24 23q12 5 13 5q20 0 14 -30zM244 354l56 -7
q16 0 23 12q1 3 4.5 13t9.5 28t12 37l9 45q0 1 1 6t3 16l4 22q3 16 -2 16q-1 -1 -5 -3q-16 -9 -38 -28l-37 -32q-11 -9 -22 -21l-18 -20q-18 -23 -31 -37l-31 -34q-2 -1 -6 -5l-2 -2q-1 -1 2.5 -3t11.5 -4q13 -4 21 -4l4 1q4 0 12.5 1.5t18.5 2.5z" />
    <glyph glyph-name="five" unicode="5" horiz-adv-x="421" 
d="M107 174q30 0 30 -34q0 -9 -8 -33q-7 -21 -7 -34q0 -32 32 -46q10 -4 38 -9l7 -1q21 -3 65 25q13 8 17 12q2 0 18 19l14 16l11 16q16 23 24 60l2 7q0 1 0.5 4t1.5 4l3 18q4 20 4 42q0 42 -22 78t-58 51q-11 2 -32 6t-32 6q-22 5 -32 11.5t-8 16.5q1 11 24 69q8 42 32 105
q0 1 9 40q10 46 26 54q8 3 23 3h14q19 -1 67 2h7h8q5 -1 9 -1h4q5 0 23 1.5t29 2.5l28 2q26 0 23 -15q-1 -9 -22 -26l-18 -18q-18 -19 -47 -27q-11 -3 -53 -10q-32 -10 -59 -9q-14 0 -20 -10q-3 -4 -9 -26q-8 -15 -15 -35q-3 -11 1 -12l15 -7q10 -6 26 -10q8 -2 39 -19
q25 -13 60 -51q13 -22 15 -27l9 -32l9 -20l5 -24v-17q1 -26 0 -27q-12 -81 -26 -109q-19 -36 -67 -96q-30 -38 -79 -63q-28 -16 -72 -16q-4 0 -8 1h-11q-13 0 -31 5q-29 11 -34 14q-31 20 -38 35q-16 31 -16 62q0 41 23 64q14 12 29 12z" />
    <glyph glyph-name="six" unicode="6" horiz-adv-x="467" 
d="M498 702q9 0 13 -3t3 -9q-2 -5 -6 -8q-8 -7 -52 -27q-19 -10 -71 -54q-42 -36 -68 -72q-7 -11 -26 -35q-2 -3 -10 -13.5t-14 -18.5q-40 -49 -40 -71q0 -7 7 -7q2 0 6 1t15.5 2.5t29.5 3.5q65 5 67 5q33 0 42 -4q10 -3 33 -21q24 -17 25 -23q6 -13 16 -35q8 -34 19 -76
q-3 -23 -4 -31q-5 -25 -23 -79q-44 -80 -110 -115q-54 -26 -107 -26q-65 0 -78 7q-14 7 -47 46q-24 29 -27 39q-19 51 -19 73q0 4 5 44l8 50q3 20 24 86q11 29 21 51q28 56 42 72l21 25q20 29 38 47q95 99 195 145q2 1 37 17q28 14 35 14zM289 359q-85 0 -112 -118
q-2 -8 -6.5 -28t-6.5 -30q-4 -21 18 -88q13 -36 32 -48.5t59 -12.5q21 0 49 16q46 26 62 106q11 55 11 57q5 20 0 56q-2 8 -6 20q-14 39 -35 53q-26 17 -65 17z" />
    <glyph glyph-name="seven" unicode="7" horiz-adv-x="395" 
d="M341 574h-23l-24 1q-2 0 -60 -2q-30 -1 -66 -39q-8 -8 -19 -8q-13 0 -11 12q3 10 38 88q2 2 9 25q17 48 38 48h3.5t2.5 -0.5l2 -1t2 -1.5l2 -2t2.5 -3t2 -4t2.5 -5l4 -6q2 -6 82 -8l33 -1q15 0 23 1q8 0 46 -3l20 2q13 -1 36 -1q16 0 22.5 -4t4.5 -12q-1 -8 -9 -18
l-50 -69l-20 -33l-10 -18q-8 -13 -70 -117q-10 -23 -51 -90l-13 -20l-9 -15l-19 -29l-44 -75l-41 -74q-8 -11 -30 -52q-15 -34 -25 -38q-4 -2 -25 -2q-25 -6 -43 -6q-35 0 -32 14q3 9 29 43l35 47q39 49 106 151l21 28t32 43l12 17q3 4 10.5 15t16.5 24.5t19 27.5
q30 48 70 108l23 39q1 1 3 5q2 11 -12 13l-14 2q-19 3 -32 3z" />
    <glyph glyph-name="eight" unicode="8" horiz-adv-x="462" 
d="M415 691q13 0 19 -3l15 -7q26 -13 31 -18q27 -33 31 -69q3 -18 3 -37q-3 -28 -7 -43q-1 -8 -13 -39q-16 -43 -39 -57q-12 -6 -25 -13q-26 -19 -27 -24q-1 -4 17 -21q12 -12 22 -25q1 -6 12 -34l4 -12l3 -14q5 -25 5 -30l-6 -34l-5 -27q-17 -83 -94 -154q-23 -21 -43 -28
q-58 -20 -86 -20h-22q-55 0 -89 31q-27 25 -38 62q-8 30 -7 41q8 92 40 141q11 17 50 48q20 15 25 18q19 11 20 20q3 13 -23 67q-13 26 -5 83q3 25 17 73q11 18 38 45l20 20q23 23 59 35q60 25 98 25zM264 311q-31 -7 -32 -7q-16 -5 -28 -17l-18 -17q-16 -16 -31 -34
q-13 -30 -21 -50q-1 0 -4 -8q-9 -17 -11 -29q-4 -22 6 -52q12 -29 29 -45q29 -25 60 -25q42 0 54 3q21 5 34 18q58 52 70 105q2 12 3 29q1 27 -1 34q-3 9 -20 35q-8 15 -22 30q-27 15 -37 20q-19 9 -31 10zM393 640q-45 0 -82 -27q-42 -29 -49 -69q-4 -16 -4 -30
q0 -10 18 -43q4 -8 31 -35q2 -2 5 -5.5t7.5 -8t7.5 -8.5q7 -3 19 -3q15 0 22 4q2 2 5 3l12 8q2 1 5 4t5 4q61 44 75 108q7 32 -16 62q-18 23 -23 27q-13 9 -38 9z" />
    <glyph glyph-name="nine" unicode="9" horiz-adv-x="461" 
d="M356 687l20 -1l33 2q4 0 31 -13l7 -3l24 -20q41 -35 55 -70q3 -8 5 -61q0 -27 -5 -57q-4 -17 -8 -55q1 -25 -33 -110l-35 -62l-11 -17q-7 -11 -25 -37l-40 -40q-45 -47 -87 -77q-21 -16 -42 -30q-1 -1 -21 -10q-59 -26 -94 -41q-21 -7 -28 -7q-14 0 -11 13q2 10 24 20
q19 7 41 22l36 24l14 11q55 41 107 107l28 35l6 9q18 29 22 47q3 16 -6 16q-4 -1 -14 -8q-17 -11 -54 -11h-10l-25 1q-16 1 -50 3q-25 10 -51 49q-32 48 -36 112q-1 10 9 57q21 100 122 168q27 18 66 27q29 7 36 7zM346 634q-20 0 -52 -20q-51 -31 -72 -130q-10 -44 -10 -80
t12 -55q26 -38 67 -38q35 0 49 2q34 7 61 33q14 13 20 39l7 36q0 2 5 18q3 9 5 17l3 9q8 41 -22 126q-22 43 -73 43z" />
    <glyph glyph-name="colon" unicode=":" horiz-adv-x="200" 
d="M158 335q6 0 26 -10q23 -11 24 -13q7 -7 2 -29q-4 -22 -17 -33q-18 -15 -49 -15q-12 0 -27 22q-11 11 -6 31q11 47 47 47zM107 92q4 0 26 -11q22 -10 23 -13q8 -8 3 -28q-10 -46 -66 -46q-10 0 -28 19q-11 11 -6 31q11 48 48 48z" />
    <glyph glyph-name="semicolon" unicode=";" horiz-adv-x="198" 
d="M161 342q5 0 26 -10q23 -11 24 -13q7 -8 2 -28q-10 -49 -67 -49q-9 0 -27 22q-10 11 -5 31q11 47 47 47zM127 92q18 -2 24 -21q0 -1 0.5 -4t1.5 -8.5t2 -9.5l5 -22q0 -7 -4 -24l-8 -20q-13 -34 -45 -55q-5 -4 -21 -13q-27 -8 -54 -8q-6 0 -5 7q1 6 9 15q28 19 35 23
q12 8 16 29q4 19 -14 33q-12 8 -14 11.5t0 12.5q6 27 28 40q5 3 44 14z" />
    <glyph glyph-name="less" unicode="&#x3c;" 
d="M587 612l-8 -37l-356 -204l268 -209l-21 -99l-355 277l2 6z" />
    <glyph glyph-name="equal" unicode="=" horiz-adv-x="461" 
d="M161 420q-7 0 27 -3l50 3q21 -3 33 -3q8 0 50 2q9 0 21 0.5t18.5 1t10.5 0.5q8 0 38 3h7l35 -2h2h18q17 0 19 -1q12 -3 8 -16l-3 -14l-1 -15q-3 -13 -25 -13q-28 0 -38 1q-3 1 -12 1q-11 0 -30 -4h-12q-9 0 -34 -1t-31 -1q-19 0 -24 1q-31 -4 -42 -4q-15 2 -28 2h-12h-3
q-3 -1 -10 -1.5t-14 -0.5l-42 2q-13 1 -10 11l5 17l2 20q3 14 27 14zM137 307q15 0 20 -1l7 -1l50 2q21 -3 32 -3q4 0 50 2t51 2q7 0 38 3h7q13 0 27 -1q15 -1 28 -1q17 0 19 -1q12 -3 8 -16l-3 -15l-1 -14q-3 -13 -25 -13q-27 0 -38 1q-2 1 -14 1q-9 0 -28 -4h-12
q-9 0 -34 -1t-30 -1q-16 0 -18 1h-7q-31 -4 -43 -4q-15 2 -27 2h-12l-3 -1q-3 0 -10 -0.5t-14 -0.5l-42 3q-7 1 -9.5 3t-0.5 6l5 18l2 20q3 14 27 14z" />
    <glyph glyph-name="greater" unicode="&#x3e;" 
d="M56 63l8 38l357 204l-269 209l21 98l355 -276l-1 -6z" />
    <glyph glyph-name="question" unicode="?" horiz-adv-x="367" 
d="M315 691q3 0 23 -3q2 0 6 -1t11.5 -2t14.5 -2q12 -1 27 -21q25 -34 37 -57q13 -28 -5 -111q-3 -16 -21 -44l-14 -22l-31 -33q-12 -18 -38 -46q-4 -5 -23 -22q-2 -3 -8.5 -11t-15 -18.5t-16.5 -21.5l-14 -18q-7 -11 -34 -58q-4 -10 -12 -36q-5 -5 -13 -5q-13 0 -10 16
q1 7 20 65q2 6 17 35l4.5 9l7.5 15l8 16q8 13 22.5 38t17.5 30l26 44l10 14l11 21q9 16 27 50l3 22q3 27 2 36q0 8 -1 15q-2 71 -60 71q-66 0 -77 -54q-1 -8 0 -15q0 -2 13 -24q3 -6 0 -20q-4 -27 -22 -38q-10 -5 -20 -5q-20 0 -30 22q-1 3 -4 9q-7 13 -5 25q9 42 39 75
q8 8 21 19q18 15 34 24q13 7 38 12q27 5 34 5zM177 91q13 0 50 -19q7 -10 2 -34q-4 -21 -16 -29q-8 -6 -33 -13q-9 -3 -14 -3q-18 0 -29 20q-9 19 -5 37q8 41 45 41z" />
    <glyph glyph-name="at" unicode="@" horiz-adv-x="695" 
d="M489 499q22 0 33 -20l5 -10l15 10l30 -2l24 -2q5 -2 2 -16q-3 -9 -33 -89l-28 -72q-15 -41 -23 -57q-6 -29 13 -29q25 0 61 30q75 60 81 99l5 26q7 38 7 47q-2 42 -7 93q0 24 -41 77q-9 14 -21 30q-6 6 -43 16q-10 3 -44 5l-35 5l-9 -1q-22 -5 -42 -13q-33 -13 -61 -25
q-44 -29 -73 -53q-30 -25 -74 -81q-2 -6 -15 -29l-10 -18l-29 -75l-8 -62q-5 -29 -3 -35q1 -4 4 -52l2 -35q1 -3 1 -8q2 -4 27 -35q10 -21 15 -28l26 -19q12 -7 30 -22q18 -9 34 -12l29 -2q9 0 17 -0.5t11.5 -1t4.5 -0.5q35 0 60 5q6 2 106 46l26 18q66 46 78 48q16 4 24 7
l6 3q6 0 5 -7q-6 -25 -72 -75q-58 -42 -122 -67q-35 -12 -63 -17q-1 -2 -42 -3q-55 -3 -57 -3q-42 0 -74 12q-19 6 -45 31q-3 5 -25 21q-6 8 -19 23q-10 11 -27 41l-11 30q-10 25 -18 44q0 10 -1 28q-1 10 -3 28l-1 11q0 2 1.5 10.5t2.5 14.5l6 42q9 42 30 101q11 28 40 70
l23 33l18 18l12 13l18 16q23 23 67 57q91 54 190 54q113 0 167 -54q42 -42 48 -52q13 -26 19 -44q19 -66 19 -69q5 -20 -6 -67q-7 -36 -25 -73q-37 -72 -108 -109q-53 -28 -108 -44q-1 0 -4.5 -1t-6 -2t-4.5 -1l-28 1q-5 -1 -16 -1q-19 0 -20 6l-3 14q-2 2 -3 2
q-2 0 -29 -11q-8 -4 -40 -10l-21 -4q-9 0 -26.5 7t-22.5 14q-13 17 -19 46.5t-1 50.5q7 38 35 88q40 69 94 98q21 10 65 21q28 7 33 7zM477 431q-67 0 -111 -48q-14 -16 -20 -29l-25 -66q-17 -75 43 -75q45 0 75 37q14 17 25 38q7 14 20 46q0 3 4 8l9 21l6 23l7 21
q4 24 -33 24z" />
    <glyph glyph-name="A" unicode="A" horiz-adv-x="535" 
d="M402 4q-2 0 -4 -1q-21 -6 -38 -6q-8 0 -11.5 2t-2.5 7q2 8 18 18q35 24 42 55q3 17 0 45q-2 9 -9 45q-2 6 -3 61q-6 37 -41 37q-18 3 -31 8q-16 6 -36 6q-35 0 -53 -9q-15 -4 -33 -41q-13 -27 -21 -37q-19 -24 -27 -41q-3 -6 -9 -21q-14 -39 -14 -41q-4 -19 -1 -28
q4 -7 27 -36q8 -11 8 -15q-3 -12 -27 -12h-10h-22h-36h-44q-13 0 -18 3t-3 11q1 7 8 12l22 15q6 3 28 37l3 3q2 3 7.5 8.5t11.5 12.5q3 4 23 44q8 10 38 62l106 183q1 3 48 79q7 13 23 39t23 38q25 45 45 103q13 37 32 37q5 0 10 -17q2 -7 13 -94q3 -12 10 -36q-1 -12 0 -28
q0 -1 0.5 -6.5t1 -16t0.5 -21.5q3 -10 9 -39l12 -70l2 -35l5 -55q1 -10 8 -78q4 -47 7 -74q7 -47 21 -67l2 -2q3 -2 7.5 -6t9.5 -9t3 -14q-3 -14 -23 -17q-3 0 -10 -0.5t-20.5 -1t-26.5 -0.5l-25 -1zM361 478q-2 0 -6 -2l-13 -17q-3 -4 -12.5 -15.5t-15.5 -19.5
q-34 -59 -29 -81q3 -13 35 -21q8 -1 17 -4q10 -3 19 -3q13 0 16 14q11 57 7 96q-5 53 -18 53z" />
    <glyph glyph-name="B" unicode="B" horiz-adv-x="521" 
d="M280 674l11 -1l16 -1q7 0 32 -3q26 -2 32 -2h68l14 -1q20 -2 71 -39q29 -15 38 -28q19 -28 19 -71q0 -65 -28 -99q-12 -15 -43 -41q-35 -32 -41 -38q-1 -1 -3 -7q-2 -12 11 -20q7 -4 27 -35l9 -25q14 -41 7 -69l-3 -13q-1 -5 -3 -11.5t-2 -9.5q-12 -63 -80 -116
q-75 -47 -112 -46q-11 -1 -39 -1h-47l-73 1q-12 0 -25 1t-26 1h-14q-26 -2 -31 -2q-18 0 -15 13q2 8 6 11l37 33q22 33 32 70q15 56 23 95l48 220l2 12q1 11 3 21l13 40q2 5 6 39q3 16 1 40l-2 19q-3 8 -19 28q-8 7 -6 15q2 11 11 13q1 1 40 3q7 0 25 3q4 1 10 1zM321 333
h-40q-17 -2 -29 -34q-6 -10 -9 -28l-10 -47l-7 -17q-1 -3 -1.5 -10t-0.5 -11l-14 -61q-1 -4 -6 -19.5t-8 -23.5q-5 -26 29 -42q16 -8 20 -7l20 2q10 1 37 3q17 7 41 25q37 26 56 61q3 7 10 33q0 1 0.5 3t1.5 5l2 6l11 49q6 29 0 40q-34 73 -103 73zM373 628q-17 0 -45 -25
q-4 -5 -12 -21q-1 -2 -2.5 -6.5t-3.5 -11.5t-4 -13l-9 -27v-7q0 -22 -7 -53q-2 -4 -6 -21l-2 -9q-8 -38 14 -55q10 -9 23 -9q33 0 53 13l29 17q4 3 17 10t19 10q36 33 46 84q2 9 4 44q1 17 -14 31q-10 9 -12 14q-11 17 -19 26l-31 2z" />
    <glyph glyph-name="C" unicode="C" horiz-adv-x="635" 
d="M517 687q93 0 169 -52q1 0 5 -2t12.5 -6t17.5 -8q11 -5 9 -18q-2 -18 -11 -64q-6 -20 -8 -30l-6 -28q-3 -11 -13 -11q-8 0 -11 12q-1 8 -6 24q-10 34 -14 41q-5 12 -14 18l-26 21q-3 2 -18 14.5t-28 22.5q-6 2 -46 10q-32 5 -36 5q-15 0 -33 -9q-38 -11 -74 -38
q-27 -14 -34 -19q-86 -79 -97 -130l-10 -44q0 -1 -0.5 -2.5l-1.5 -4.5t-2 -5q-18 -36 -19 -41q-2 -3 0 -6q-2 -23 -6 -39l-1 -6l-7 -26l-2 -5l-1 -15l-7 -34q-3 -18 10 -59q10 -31 22 -47q50 -68 123 -66l50 1q3 0 9 0.5t17 1t20 0.5q7 0 12 1q21 1 34 7q19 10 53 41
q17 23 40 49q7 7 16 23q8 23 23 23q14 0 9 -23q0 -1 -6 -22t-8 -32l-6 -28q-6 -29 -13 -39q-4 -5 -10 -8l-11 -5q-4 -2 -11 -5q-39 -22 -43 -21l-31 -8q-50 -14 -60 -14q-47 0 -64 1q-12 0 -19 1q-16 0 -26 -1q-34 1 -67 21q-24 14 -30 20l-20 18q-39 35 -55 56
q-19 27 -41 93q-10 26 -13 64q-1 16 14 88q11 50 26 89q23 53 58 87q20 18 32 30l35 43q17 22 99 55q60 25 76 29q42 11 75 11z" />
    <glyph glyph-name="D" unicode="D" horiz-adv-x="627" 
d="M227 666q19 0 41 -5l9 -2q4 0 46 9l56 3q15 -4 63 -4q43 -1 67 -1q12 -2 62 -34l6 -4l11 -12q31 -21 51 -53q15 -17 31 -53q8 -50 7 -64q-3 -38 -8 -63l-21 -100q-6 -27 -35 -84q-8 -18 -16 -28q-19 -26 -68 -82q-25 -23 -72 -45q-15 -7 -66 -23q-46 -21 -80 -22
q-22 0 -37 -1q-5 -1 -15 -1.5t-15 -0.5q-2 0 -7.5 -0.5t-7.5 -1.5q-1 0 -10.5 1.5t-17.5 3.5q-3 1 -37 1h-30h-29h-35h-17q-15 2 -11 19q1 9 10 16q14 7 29 15q31 21 39 66q7 20 21 67q3 16 8 46v7q2 6 6.5 24.5t7.5 28.5q0 2 2 12.5t3 19.5l10 50q13 77 14 79
q2 14 9.5 35.5t8.5 23.5q1 9 2 26l3 26q0 25 -1 30q-1 13 -11 27q-2 1 -8 6t-11 9q-6 4 -3 16q5 17 46 17zM426 622q-87 0 -104 -62q-3 -13 -19 -52q-1 0 -1 -1t-1 -2v-37l-2 -11q-4 -13 -19 -68q-1 -3 -5.5 -23t-8.5 -36q-3 -9 -5 -13l-4 -46q-2 -5 -5.5 -17.5t-5.5 -18.5
l-6 -24l-8 -26q-2 -28 -4 -42q-2 -10 -9 -35q-4 -4 -4 -18q0 -21 13 -36.5t33 -15.5q5 0 38 9l31 5l24 5q19 5 34 12q5 2 25 21l29 27q9 9 17 16q2 2 25 29q13 11 36 47q3 12 15 45l15 39q2 9 9 32q2 7 4.5 14t4 11t1.5 6l2 27l5 27q4 20 8 45q0 7 -14 41q-11 33 -22 55
q-10 13 -37 31q-15 11 -19 14q-33 26 -66 26z" />
    <glyph glyph-name="E" unicode="E" horiz-adv-x="496" 
d="M213 670l22 -1q-1 0 4 0.5t18 1t30 0.5q3 0 23 1t27 1q22 0 49 -7q1 -1 5 -1q3 0 23 3q1 1 13 1q6 0 25.5 1t25.5 1q18 0 45 -5q1 0 4 -1t4 -1q2 1 24 4h7q10 0 15 -4.5t4 -12.5q0 -5 -6 -51q-5 -16 -9 -57q0 -4 -2 -22q-4 -16 -13 -16l-18 14q-3 3 -11 39l-7 15
q-4 8 -9 19q-7 10 -26 16q-9 2 -30 3q-1 1 -13 4q-30 10 -47 10q-48 0 -54 -25q0 -1 -2.5 -8.5l-4.5 -13.5l-5 -15l-2 -8q-9 -24 -17 -52q-1 -13 -9 -45q-6 -26 -9 -41q-3 -11 -3 -20q0 -28 26 -28q16 0 31 9q41 24 59 42q11 11 18 11t9 -11q-1 -4 -3 -24l-2 -19
q-1 -17 -14 -55l-5 -18q0 -2 -3 -21v-3q-1 -2 -1.5 -6t-0.5 -9q-2 -8 -13 -25q-3 -5 -8 -5q-6 0 -14 14l-8 14l-3 22l-14 17q-4 10 -8 12q-6 6 -30 6q-16 0 -24 -9q-1 -1 -12 -49q-13 -28 -27 -73q0 -1 -0.5 -4t-1.5 -8.5t-2 -9.5l-6 -26q-3 -13 -12 -45l-5 -17
q-4 -16 9.5 -25t42.5 -10q1 0 4 -0.5t8 -1t9 -0.5t8 -0.5t7 -1t5 -0.5h3q4 0 38 8q17 5 24 10l23 18q24 14 30 20q16 23 34 54q8 14 20 14q13 0 8 -21q-13 -68 -23 -92l-11 -39q-9 -19 -28 -19q-4 0 -53 10q-22 -3 -33 -3l-50 1l-74 -2q-3 0 -17 0.5t-17 0.5h-7h-71l-44 -2
q-9 0 -12.5 2t-2.5 7q3 12 17 20q3 2 24 10q23 21 27 30l12 33l9 29q1 5 3.5 18.5t4.5 21.5l8 36q2 14 3 20l3 10l2 8q5 23 15 62q2 5 4.5 13.5t3.5 11.5l13 72l6 28l12 43q6 24 17 53l-1 31q0 35 -4 42q-9 19 -37 40q-4 2 -2 10q4 23 33 21z" />
    <glyph glyph-name="F" unicode="F" horiz-adv-x="469" 
d="M194 666l20 -1q19 4 36 4q11 0 50 -7q28 0 62 7q43 3 73 3q5 0 49 -3l10 1q5 0 12 1h19h19q6 1 19 1t17.5 -4.5t2.5 -12.5l-6 -24q0 -2 -1.5 -10t-2.5 -14l-16 -77q-4 -19 -15 -19q-17 0 -30 37q0 3 -1.5 9l-4 16t-4.5 19q-5 18 -26 29l-12 5q-2 2 -8 5l-42 -5q-2 0 -4 1
q-9 4 -26 4q-36 0 -57 -25q-5 -5 -9.5 -14.5t-9.5 -23.5t-8 -21l-5 -26q0 -1 -1 -4.5t-3 -9.5t-4 -13l-1 -7q-3 -12 -6 -47l-2 -8q-6 -16 -10 -33q-5 -20 8 -26q7 -3 31 -3q22 0 34 5q12 7 40 41q24 27 44 27q6 0 6 -14t-8 -52q0 -1 -1 -3t-1 -3q-9 -21 -18 -65
q-1 -58 -17 -58q-10 0 -11 7l-12 37q-6 16 -29 30q-20 11 -39 11q-37 0 -50 -57q-6 -24 -14 -46l-9 -41l-2 -17l-20 -91v-24q1 -6 3 -20q1 -5 18 -15q12 -7 10 -17q-1 -7 -15 -7q-1 0 -43 2q-1 1 -4 1q-2 0 -5 -1h-14l-36 3l-66 -3q-9 0 -9 7q2 8 29 28q46 50 56 100l18 87
l3 16l5 27l5 25l17 82l4 24l12 33l6 33l8 27q0 5 4.5 25.5t4.5 27.5q1 1 -1 34v21q0 1 -13 21q-4 8 -9 10l-17 10q-5 2 -3 12q5 17 26 16z" />
    <glyph glyph-name="G" unicode="G" horiz-adv-x="672" 
d="M508 685q40 0 108 -5q17 -1 30 -7l34 -17q17 -5 41 -18q21 -19 15 -47q-15 -65 -23 -92q-11 -41 -18 -41q-15 0 -24 63q-5 24 -9 30q-2 1 -18 15q-5 13 -21 32q-5 5 -11 10q-38 32 -98 32q-56 0 -117 -32q-35 -18 -51 -33q-29 -26 -55 -72q-45 -80 -53 -116q2 -12 -3 -29
l-3 -15q0 -2 -2.5 -11t-4.5 -16l-10 -45l-10 -30q0 -19 1 -50q0 -3 1.5 -9t4.5 -18.5t5 -23.5q13 -65 81 -97q39 -17 69 -17q18 0 58 10q7 2 27 3q36 1 59 34q23 32 23 68q0 38 -32 40q-13 1 -20 1q-11 3 -8 14q2 8 10 12q9 0 33 4q8 1 18.5 2.5t16.5 2.5t9 1q7 0 61 -6h11
q2 0 12.5 1.5t12.5 1.5q15 0 13 -17l-1 -3q-2 -10 -5 -12l-21 -19q-6 -6 -14 -43l-5 -24l-10 -39q-10 -42 -20 -49q-7 -5 -16 -5q-4 0 -23 1.5t-22 1.5q-8 0 -42 -9l-34 -3l-43 -5q-49 -6 -57 -6q-62 0 -77 5q-96 36 -132 113q-24 49 -32 109q-4 33 -5 38q-7 40 -1 73
q1 3 3.5 14t4.5 16l8 31q25 100 136 208q26 26 58 41q6 3 13 8q30 20 74 34q24 8 34 9q50 2 66 2z" />
    <glyph glyph-name="H" unicode="H" horiz-adv-x="713" 
d="M218 670h9q5 -1 15 -1h11h19q9 -1 22 -1h29l45 1q11 0 16 -3t3 -10q-1 -7 -7 -11l-23 -16q-30 -20 -44 -82q-1 -5 -1 -15q-1 -15 -6 -32l-3 -16q-3 -16 -12 -43l-12 -36q-6 -31 36 -41q13 -3 62 -3h36q45 0 60 4l54 -7q18 -2 54 14q19 7 22 24q0 1 0.5 4t1 7.5t0.5 7.5
q1 3 1 8l3 9l9 43l13 47q2 25 7 42q2 6 3 10q6 30 -4 49q-1 4 -13 9q-16 6 -14 17q3 13 23 13h22q7 0 14 1h14l15 -2q1 -1 5 -1q2 0 5 0.5t9 1t11 0.5q20 3 25 3q45 0 43 -11q-2 -3 -39 -33q-21 -18 -34 -78q0 -3 -1.5 -12t-2.5 -16q-1 -10 -6 -25q-1 -5 -10 -67l-6 -20
q-5 -25 -19 -73q-1 -2 -3 -8q0 -14 -6 -43l-2 -12l-9 -36l-26 -118q-12 -54 4 -76l6 -5l8.5 -8.5t6.5 -8.5t2 -8q-1 -9 -16 -9q-6 0 -28 2h-96q-6 0 -19.5 -0.5t-14.5 -0.5q-7 0 -10 2t-2 6q2 4 4 5l34 27q14 10 25 43q1 3 6.5 23.5t10.5 38.5l3 12q-2 20 0 21l10 46
q2 4 4.5 13t3.5 12q8 41 3 52q-7 13 -56 15q-10 0 -17 1h-9q-7 0 -19 -0.5t-20.5 -1t-9.5 -0.5t-10.5 1t-14.5 1h-9h-2q-1 0 -4 -0.5t-6.5 -1t-7.5 -0.5h-8h-3q-10 0 -33 4q-18 2 -24 2q-55 0 -70 -37l-7 -34l-6 -25q0 -3 -1.5 -10.5l-4 -20t-4.5 -23.5l-2 -11q0 -1 -1.5 -4
t-4 -11t-4.5 -15q-3 -24 -3 -25q2 -13 4.5 -29.5t2.5 -20.5l3 -3q2 -3 6.5 -8.5t10.5 -12.5q17 -21 15 -23q-1 -7 -11 -7h-90q-4 0 -20 2q-1 1 -11 1q-2 0 -5.5 -0.5t-10 -1t-11.5 -0.5q-14 -1 -27 -1q-22 0 -32 4.5t-8 12.5q2 12 26 17q37 7 51 29q7 9 16 39q10 45 14 65
q5 23 7 40q1 7 4 24q0 1 2.5 9t7 25.5t10.5 37.5q11 67 27 107q2 3 3.5 11.5t4 24t5.5 28.5q0 2 4 14l7 33l5 29l5 22q2 14 2 21q0 34 -32 45q-15 4 -13 18q3 14 30 14z" />
    <glyph glyph-name="I" unicode="I" horiz-adv-x="278" 
d="M217 671l59 -3q32 4 49 4q22 0 31.5 -6t7.5 -19q-2 -6 -15 -15q-21 -13 -27 -26q-18 -33 -40 -142q-5 -32 -15 -83l-6 -27q-10 -51 -21 -85q-3 -6 -6 -29q-3 -22 -5 -30q-1 -1 -4 -13l-2 -10q-1 -7 -3 -31l-10 -52l-3 -17q5 -13 11 -39l12 -15q6 -10 4 -17
q-3 -16 -13 -16h-31q-13 -1 -25 -1h-1q-2 0 -8 0.5t-13 0.5h-44q-16 0 -33 5q-8 5 -6 15q1 5 5 9l31 22q11 13 17 32l3 9t5 15.5t6 18.5q3 13 4 26q1 14 3 18q3 16 12 44q9 30 12 45l8 59l9 32q1 4 3 20l21 102q2 10 2 12q1 16 6 51l10 54q5 23 -15 42q-14 14 -12 22
q3 17 27 18z" />
    <glyph glyph-name="J" unicode="J" horiz-adv-x="287" 
d="M236 670q25 -4 36 -4h7q47 6 50 6q24 0 20 -22q-2 -4 -18 -17q-3 -2 -8 -17l-3 -9l-4 -14q-1 -3 -26 -118l-2 -7q-7 -18 -13 -47l-1 -8l-11 -59q-1 -2 -5 -20.5t-7 -34.5l-14 -67l-10 -41l-13 -69q-4 -15 -9 -38q-2 -14 -7 -42l-7 -42l-3 -11q-8 -39 -21 -74
q-7 -18 -19 -35l-4 -7l-8 -12q-16 -30 -25 -42q-19 -25 -22 -25l-39 -31l-36 -30l-8 -2q-11 0 -10 13q1 7 17 27q1 1 4 6.5t7.5 12t8.5 14.5q7 8 16 25q1 4 6 19q8 18 17 58l9 42l6 25l11 27l1 5l5 19q1 3 26 87q4 28 11 80q1 3 5.5 26.5t8.5 41.5q1 11 8 47l10 42l3 19
l6 22l8 30v16q2 24 16 91l2 12q1 5 4 11v33q0 24 -1 25q-4 7 -20 18q-14 12 -11 24q1 10 5 12q3 3 51 9z" />
    <glyph glyph-name="K" unicode="K" horiz-adv-x="604" 
d="M212 667q7 0 17 -0.5t17 -1t8 -0.5q4 0 18.5 1t15.5 1h13l9 1h7h4q4 -1 12.5 -1.5t18.5 -0.5q18 -1 28 -6t7 -14q-2 -8 -8 -14q-1 -1 -40 -18q-17 -8 -35 -61q-6 -17 -6 -19l-6 -39q-4 -11 -12 -34l-3 -12q-1 -4 1 -27q-2 -15 0 -30q3 -4 11 -4q12 0 29 11q1 1 4.5 3.5
t10 7t12.5 9.5l12 9t15.5 12.5t15.5 13.5q45 29 116 87q47 41 53 66q3 12 -1 15l-15 16q-7 6 -5 17q3 15 20 15q1 0 79 -8q6 -1 14 -1q4 0 18.5 1t16.5 1q38 0 35 -15q-3 -11 -63 -46l-40 -31q-59 -37 -69 -44q-1 -1 -8.5 -7t-13.5 -12q-19 -16 -55 -41l-41 -29
q-25 -17 -68 -53q-7 -7 -9 -17q-3 -13 15 -37q8 -11 54 -86q10 -16 23 -30q32 -37 62 -77l34 -45q2 -2 14.5 -19t22.5 -30q16 -18 14 -30q-2 -11 -18 -11q-21 0 -53 4h-5q-10 -1 -53 -3l-22 -1q-26 0 -23 15q1 5 6 10l25 19l-4 9l-17 32q-24 31 -41 60l-18 16q-22 28 -51 63
q-1 1 -4.5 5.5t-7.5 9.5l-8 10l-12 6l-3 2l-4 4q-12 12 -16 12q-13 0 -18 -20l-7 -41q-6 -11 -17 -53q-1 -5 -1 -27l-5 -35l-1 -21q-1 -19 0 -24q1 -7 15 -18q1 -1 19 -17q4 -2 2 -9q-1 -10 -13 -10q-9 0 -14 1h-25q-5 1 -12 1l-20 -1h-9q-23 0 -69 -2h-23q-13 0 -11 11
q1 10 27 19q30 10 42 70q2 9 9 51q2 7 13 46l5 30l14 73l14 70q3 23 4 27l16 64l4 20q5 26 11 97q5 25 5 27q-2 6 -30 31q-7 7 -5 18q3 13 23 13h7z" />
    <glyph glyph-name="L" unicode="L" horiz-adv-x="454" 
d="M217 666l67 -2q18 1 55 3l28 1q12 0 17 -3.5t3 -11.5q-1 -7 -8 -10l-14 -7l-16 -17q-12 -11 -15 -15q-40 -68 -61 -214l-10 -44l-21 -95q-1 -6 -13 -43q-4 -25 -6 -56q-2 -17 -3 -26q0 -2 -10 -27l-2 -8q-1 -5 -1 -15q0 -32 38 -32q13 0 36 4q34 0 41 1l11 1h26
q9 0 35 24q31 28 39 41q28 40 38 40q11 0 6 -14l-12 -43l-5 -35l-2 -12l-3 -17q-3 -25 -22 -32q-14 -2 -38 -2h-25l-67 2l-22 -2h-1h-9q-11 -1 -25 -1q-23 0 -55 3q-20 2 -22 2l-58 -2q-2 0 -7.5 -1t-15.5 -2.5t-20 -3.5q-2 -1 -8 -1q-13 0 -18.5 3t-4.5 9q3 10 14 21
q8 5 22 16q31 24 43 64q12 33 23 86l9 44l11 55q5 26 18 60q1 1 3 11q3 30 9 55l22 105l3 25q1 4 7 38q-1 2 -4 9t-5 13l-7 17l-1 1q-2 1 -4.5 2.5t-4.5 2.5q-11 5 -15 7q-6 5 -5 13q3 12 19 13q2 0 5 0.5t8.5 1t9.5 0.5z" />
    <glyph glyph-name="M" unicode="M" horiz-adv-x="773" 
d="M185 181l-9 -46q-5 -20 0 -62q2 -13 34 -44q16 -16 15 -25q-1 -10 -27 -10q-8 0 -16 1q-10 1 -25 1q-21 0 -43 1q-64 1 -75 5q-9 3 -6 15q1 4 1 5t3 4t8.5 5.5t17.5 8.5q44 21 65 94q6 39 34 144l5 18l25 95q6 23 7 69q1 5 3.5 18.5t7 37.5t9.5 47q5 27 -1 40
q-1 5 -36 28q-15 11 -12 24q3 15 15 16q8 0 18 1h25h1q1 0 4 -0.5t7 -0.5t10.5 -0.5t13.5 -0.5q5 -1 12 -1q26 0 55 4q5 1 13 1q16 0 18 -14q0 -2 -0.5 -6t-1 -11t-0.5 -12q-7 -40 -6 -76q2 -60 31 -165q1 -15 8 -64q2 -10 5 -34q1 -1 18 -47q8 -22 8 -30q1 -13 8 -13
q10 0 34 27q3 3 9 10q11 13 57 86l9 14l14 24l28 45l40 72l26 49l24 38q1 3 47 83q7 13 17 16q18 5 59 5q7 0 25 -2h3l31 1q8 2 17 -12q5 -6 3 -11q-2 -10 -9 -11l-20 -8q-19 -8 -38 -37q-7 -8 -14 -38q-22 -78 -34 -143l-6 -40q-13 -55 -20 -88l-10 -45l-15 -79
q-5 -14 -9 -36q-2 -14 -1 -35q3 -39 9 -43l22 -15q4 -5 3 -15q-4 -16 -17 -15l-21 1h-52h-14h-63h-22h-21q-19 0 -18 9q2 8 30 26q31 21 38 27q18 15 26 36q1 14 21 84l8 32q5 15 8 27q6 19 7 35l6 36q1 21 9 65q2 9 9 30q9 31 12 45q3 13 -5 13q-6 0 -14 -12l-6 -11
q-11 -21 -32 -50l-16 -17q-6 -6 -30 -50q-24 -35 -36 -54q-17 -34 -42 -83l-3 -4q-3 -4 -9 -13t-13 -18q-12 -15 -36 -62l-24 -36q-1 -2 -5 -7.5t-10.5 -16.5t-13.5 -21q-6 -6 -10 -6q-7 0 -11 13q-3 8 -6 50q0 3 -15 75q-1 5 -15 71q-6 22 -19 65q-12 37 -13 71
q-1 31 -22 96q-1 2 -2 4.5t-2 3.5q-4 22 -9 22q-10 0 -12 -12l-8 -48l-14 -44l-9 -38q-3 -23 -27 -108z" />
    <glyph glyph-name="N" unicode="N" horiz-adv-x="671" 
d="M205 478l5 25q6 29 6 48q0 36 -6 45t-38 27q-14 8 -11 22q5 19 18 18l26 -1q4 1 26 3q3 0 9.5 0.5t19 1t23.5 0.5l64 3q14 1 20 -4.5t4 -15.5q-2 -6 -3 -8q-5 -14 -8 -27q-5 -18 36 -116l7 -16q11 -33 60 -129q15 -24 43 -63q7 -10 10 -16q8 -17 18 -23l23 -13
q11 0 21 21q8 16 21 61l15 52l11 53q5 20 8 29q1 1 1 2q1 2 1 3l3 27l1 14q1 21 7 74q-2 30 -41 58q-10 7 -8 16q1 3 6.5 10t8.5 7l57 -6l7 2q7 2 15.5 4t11.5 2h30q26 0 34 -2q11 -5 8 -15q-1 -7 -9 -12l-22 -11q-32 -17 -39 -43q-1 -4 -16 -65q-3 -9 -9 -33
q-7 -47 -15 -81l-5 -24q-4 -14 -15 -51l-16 -75q-14 -39 -18 -85l-12 -56q-1 -6 -4 -20.5t-4 -22.5q-3 -14 -3 -18q-1 -9 -3 -26q-7 -31 -30 -31q-10 0 -10 3l-16 40q-2 2 -10 17q-22 26 -28 38q-5 13 -15 35q-2 3 -5.5 8.5t-9.5 15.5t-11 18l-8 9l-12 23l-14 25l-14 25
l-15 26q-11 18 -24 40q-10 16 -25 48l-16 36q-10 18 -29 56l-25 50q-11 0 -17 -18l-13 -58l-11 -47q-17 -75 -31 -128q-2 -6 -4 -13.5t-4.5 -17.5t-4.5 -16q0 -3 -1 -8.5l-2 -11t-1 -11.5q-4 -30 -5 -36l-2 -13q-3 -16 -6 -42q-3 -48 49 -58q15 -3 11 -21q-2 -11 -46 -11
h-10t-26 0.5t-43 0.5q-19 0 -25 -1h-7q-23 0 -34 5t-9 15q2 7 11 12q28 12 37 19q18 13 28 32q13 23 28 93q6 23 12 47q2 13 6 31l2 10q2 12 14 45q2 8 3 11l3 18l4 20q2 23 14 55q2 3 6 25q1 4 4.5 17.5t6.5 22.5z" />
    <glyph glyph-name="O" unicode="O" horiz-adv-x="741" 
d="M547 686q47 0 76 -12q19 -7 48 -34q4 -4 25 -21q5 -6 21.5 -24.5t19.5 -22.5q4 -6 8 -17l12 -30q2 -5 9 -22t9 -22q1 -1 1 -28q3 -17 6 -39q0 -4 -1.5 -12t-2.5 -13l-6 -40q0 -5 -10 -36l-8 -45q-2 -15 -12 -36q-7 -15 -36 -56l-22 -32l-51 -48q-18 -18 -69 -56
q-94 -52 -200 -52q-64 0 -94 10q-104 31 -139 144q-16 54 -21 95q-3 27 -1 54l9 54q1 1 3 20q8 37 34 85q13 24 52 72q1 1 6 7t18 21t25 29q57 49 126 77q49 21 66 23q2 1 43 4q40 3 56 3zM481 640q-19 -1 -41 -14l-43 -25q-24 -19 -59 -54q-4 -4 -34 -43l-19 -25l-13 -21
q-4 -6 -19 -31q-6 -12 -12 -43q0 -2 -1 -6t-2 -9.5t-2 -11.5l-6 -30l-16 -64q-5 -22 4 -109q0 -5 22 -36q8 -21 12 -27l24 -20q25 -22 37 -28q16 -5 45 -8q7 0 14 -0.5t10.5 -1t4.5 -0.5q43 0 76 21l52 30q11 8 30 30l1 2l3 3l4 4q24 26 68 85q9 16 16 40l4 15l15 69
q2 5 6 35q4 23 8 47q0 4 -1 11t-1 10q-2 40 -16 82q-9 23 -38 66q-6 11 -20 30q-3 4 -31 13q-17 8 -51 9z" />
    <glyph glyph-name="P" unicode="P" horiz-adv-x="499" 
d="M179 666l9 -2q8 -1 10 -1q4 0 17.5 2t17.5 2l49 -5q3 -1 7 -1q8 0 24 4q22 5 23 5l14 -1l9 1l27 -1q6 0 14.5 -0.5t13.5 -1t8 -0.5q1 -1 23 -6q77 -6 108 -117q6 -24 6 -40q0 -26 -4 -35l-3 -14q-13 -64 -73 -105q-47 -41 -72 -47l-21 -5q-21 -6 -38 -8h-21l-34 -3l-25 1
q-14 2 -21 -15q-4 -4 -9 -25l-17 -59q-3 -34 -5 -49l-2 -9l-9 -33q-2 -12 -2 -18q0 -36 30 -59q13 -8 11 -16q-1 -7 -17 -7q-14 0 -25 1q-13 1 -26 1l-35 1l-40 -3l-15 -1l-11 -1q-20 -2 -30 2t-7 14q2 8 10 12l22 13q18 10 38 56q6 14 12 29t7 18q9 32 20 81q1 2 7 46
q0 5 4 16l6 18l15 81q7 33 11 67q4 19 12 51q1 5 7 47q6 49 -42 78q-15 9 -12 24q5 17 24 17zM403 621h-24l-18 1q-19 1 -43 -29q-14 -17 -17 -32q0 -3 -3 -23l-2 -9q-1 -5 -4.5 -18.5t-5.5 -22.5l-6 -28l-7 -24q-5 -9 -9 -36v-16q-2 -35 7 -48q7 -9 18 -6l34 5q28 2 35 3
q29 11 64 50q10 8 15 23l13 32q7 18 15 31v25q0 6 5 41q2 13 -8 28q-30 36 -41 47q-9 5 -18 6z" />
    <glyph glyph-name="Q" unicode="Q" horiz-adv-x="746" 
d="M493 687q3 0 48 -5q34 0 49 -1q54 -19 76 -26q3 -1 13 -11q4 -4 7.5 -8.5t5.5 -7l4 -5t3 -3.5q3 -3 22 -30l10 -15q9 -11 24 -34q12 -20 17 -42l5 -27q13 -62 5 -102q-16 -75 -30 -108l-8 -19q0 -8 -26 -43l-10 -13q-8 -12 -19 -27l-9 -12l-15 -18l-8 -10l-9 -7l-10 -9
l-8 -4q-47 -38 -47 -41q-1 -9 12 -9q11 0 52 26q10 7 26 7h14h15l7 -1h5q4 1 12 1q21 0 15 -28q-1 -3 -3 -8.5t-3 -7.5q-10 -29 -10 -31q-14 -17 -53 -15q-4 -1 -27 1l-4 1q-3 0 -18 -1.5t-17 -1.5h-12q-7 1 -13 1q-5 0 -25 -2.5t-26 -2.5q-15 0 -36 7q-1 1 -5 1
q-9 -2 -26 -7q-1 -1 -4 -1t-5 -1l-39 5l-27 -5l-25 -2l-38 -4q-23 0 -82 33q-10 5 -17 9q-25 16 -41 33q-36 37 -44 61q-27 70 -33 91t-4 48l4 38l2.5 17.5t3 18.5t2.5 15q3 17 28 86q0 3 21 34q23 47 29 55q28 40 87 86q19 16 30 21l27 13q17 11 64 36q46 11 91 11z
M523 634h-29q-27 0 -31 -1q-15 2 -74 -38q-28 -20 -40 -29t-58 -63q-6 -11 -21 -36q-21 -41 -47 -111l-20 -77q-9 -38 4 -83q0 -1 2 -7.5t4 -11.5q11 -44 48 -83q21 -15 48 -31q2 -1 21 -10l30 -10l22 -7l10 -1h18q5 0 17 4q3 0 19 3q23 5 33 11q84 49 100 85q45 66 59 106
q16 46 32 122q4 19 4 60q1 5 1 17q0 40 -22 85q-19 42 -51 77q-10 10 -21 14l-16 4q-7 2 -20 7q-9 4 -22 4z" />
    <glyph glyph-name="R" unicode="R" horiz-adv-x="503" 
d="M214 666h29q8 0 42 2q7 0 26 -3q5 0 11 -0.5t9.5 -1t5.5 -0.5q6 0 8 1q23 3 36 3q14 0 52 -5q1 0 2 -0.5t3.5 -1t4.5 -0.5q33 -7 48 -11q43 -37 54 -65q7 -18 8 -40l4 -17q12 -47 -35 -117q-9 -14 -33 -39l-5 -3q-5 -3 -15 -8t-21 -11q-25 -13 -28 -28q4 -4 22 -29
q2 -6 4 -39q1 -29 5 -45q3 -13 3 -31l-1 -26q-5 -37 3 -60q3 -8 12 -11q2 0 6 -0.5t6 -1t5.5 -1t5.5 -1.5t5 -2t4.5 -2t3.5 -3t2 -4t1.5 -4.5t-0.5 -5.5q-3 -12 -12 -19q-5 -5 -35 -18q-57 -24 -72 -24q-10 0 -18 11l-9 78q1 5 1 32v38l2 50l-1 24q-1 33 -6 47q-9 19 -32 34
q-13 10 -40 10q-12 0 -24.5 -10t-14.5 -21l-7 -37q0 -1 -1 -3t-1 -3q-1 -4 -6.5 -22.5t-10.5 -34.5l-10 -33q-6 -36 -6 -90q3 -13 15 -19q34 -18 31 -31q-2 -12 -15 -13q-13 -2 -32 -1h-32h-20q-10 1 -18.5 2.5t-12.5 1.5l-4 1q-2 0 -25 -5h-31q-20 0 -15 18q1 8 19 21
q22 17 26 20q19 20 25 30.5t10 29.5l20 87q7 29 15 61q8 52 15 80l9 40q2 11 5.5 29t4.5 24l10 48l1 9q3 15 6 41q2 12 2 39q0 16 -1 32q-1 6 -14.5 18.5t-12.5 18.5q5 20 29 20zM301 354h33q14 0 36 12q63 35 80 80l11 28q3 17 3 38q-3 16 -6 30q-8 33 -18 43
q-14 26 -19 30q-15 12 -34 12q-1 0 -19 -2q-26 -4 -32 -7q-9 -6 -26 -39q-2 -4 -14 -30l-4 -31l-9 -38q1 -6 -3 -22l-3 -14q-4 -23 -8 -33q-1 -1 -1 -2q-1 -2 -1 -3q0 -2 -0.5 -6t-1 -9.5t-0.5 -9.5q-1 -20 3.5 -23.5t32.5 -3.5z" />
    <glyph glyph-name="S" unicode="S" horiz-adv-x="523" 
d="M103 211q8 0 9 -7l8 -57l4 -12q0 -4 9 -31l21 -21l14 -17q10 -13 29 -24q12 -12 18 -14q10 -4 19 -7l31 4q36 2 51 7q9 3 31 22q30 26 31 28q8 9 26 31q22 32 22 68q0 68 -75 95l-30 15l-65 19l-16 10q-28 18 -42 28q-14 19 -22 31q-26 38 -28 66l3 19q2 10 3.5 21
t2.5 16t1 7q4 21 24 50q31 47 96 87l23 14l16 7q45 20 84 20q56 0 65 -1q24 -1 69 -20q10 -1 25 -15q8 -13 10 -49q1 -61 -1 -63l-2 -9l-1 -21q-1 -10 -12 -10t-17 8q-4 4 -9 34q-3 10 -16 26l-21 17l-10 10l-8 8q-12 15 -27 33q-10 9 -29 9q-7 0 -30 -3q-34 -5 -41 -8
q-13 -4 -30 -20l-36 -34q-14 -18 -20 -30q-5 -12 -7 -23q-13 -63 45 -100q12 -8 37 -13l10 -2q30 -8 39 -10q4 -2 30 -18q20 -9 28 -14q14 -9 24 -20q36 -39 40 -55q2 -6 8 -26t11 -34q-2 -32 -8 -64l-4 -23q-6 -37 -53 -81q-19 -17 -51 -40q-37 -28 -79 -39q-27 -6 -41 -5
l-57 3h-26l-16 1l-32 8q-5 1 -25.5 4.5t-36.5 6.5q-38 12 -36 38l1 26q1 23 5 47q0 1 2 11.5t4 19.5l2 14q10 51 29 51z" />
    <glyph glyph-name="T" unicode="T" horiz-adv-x="517" 
d="M332 156l-12 -57q-2 -14 -2 -21q0 -39 38 -50q2 -1 5.5 -9.5t2.5 -11.5q-2 -11 -23 -11h-16q-30 0 -62 4h-2q-3 0 -26 -3q-14 -2 -21 -2q-6 0 -36 3q-1 1 -5 1q-3 0 -14.5 -2t-13.5 -2q-5 0 -7.5 2t-1.5 6q1 9 16 19q29 13 35 17q19 10 28 27q17 30 26 72l10 47l16 81
l11 49l5 21q5 17 15 61l2 11q0 13 9 52l4 18l13 57q1 5 1 23l-1 12q-1 19 -7 20h-17q-9 0 -21 4q-7 4 -15 4q-47 0 -75 -37q-2 -3 -22 -40q-11 -17 -28 -17q-10 0 -7 14l19 82q0 3 -1 4l6 62q2 5 14 5q1 -1 3 -1q3 -1 4 -1q46 -12 74 -12q2 0 6.5 1t12.5 2l16 2q16 0 47 3
q28 4 46 4q-1 0 18 -3l60 -9q22 -3 34 -2l47 5q4 0 19.5 1.5t26.5 2.5l28 7q20 5 26 5q8 0 11.5 -3t2.5 -10q-5 -10 -13 -23l-6 -10q-21 -48 -53 -108q-9 -11 -20 -11q-13 0 -10 22q4 30 -9 46q-8 7 -35 8q-1 0 -11 2.5t-20 4.5q-2 1 -8 1q-9 0 -22 -6q-4 -1 -19 -22
q-17 -17 -17 -26l-5 -29l-2 -24l-3 -12l-3 -20q-3 -10 -8.5 -31t-7.5 -32l-19 -89l-6 -33q-1 -1 -2 -5l-1 -3q-9 -25 -16 -54z" />
    <glyph glyph-name="U" unicode="U" horiz-adv-x="699" 
d="M621 626l-18 15q-14 11 -12 16q1 10 28 10q18 0 42 -4q18 -2 28 -2q1 0 14 1t17 1h44l27 1q9 0 13 -3t2 -10q-1 -11 -31 -34l-13 -7q-4 -1 -12 -5q-10 -6 -28 -34q-9 -15 -21 -81l-18 -94l-7 -22l-4 -20l-7 -26l-16 -67q-3 -24 -5 -39q0 -2 -0.5 -6.5t-1.5 -6.5
q-3 -19 -15 -44q-8 -18 -8 -21q-1 -1 -4 -8t-6 -13q-2 -3 -5.5 -9.5t-5.5 -11.5q-16 -30 -37 -48q-59 -54 -96 -60q-18 -4 -27 -5q-8 0 -45 -3q-8 -1 -24.5 -2.5t-18.5 -1.5q-36 0 -65 9q-66 19 -85 29q-16 9 -36 41l-1 2q-1 2 -3 5l-4 6q-16 25 -17 38q-5 36 4 76l1 7l7 28
l6 34v22q0 2 2.5 14t4.5 22q1 5 7 36q12 56 26 86l3 6l4 58l7 21l3 14q5 28 5 43q0 40 -22 50q-15 7 -19 13q-2 2 -1 7q3 12 27 14l24 1h11q3 -1 9 -1q4 0 11 1h18h30q18 0 31 1q16 1 31 1l38 1q14 0 20.5 -4.5t4.5 -14.5q-1 -7 -10 -16q-2 -2 -28 -10q-41 -14 -60 -41
q-9 -14 -17 -46q-5 -20 -12 -55l-3 -22q0 -2 -1.5 -12t-2.5 -18q-5 -18 -9 -31l-2 -12q-1 -5 -4 -14.5t-5 -16.5l-3 -8q-1 -3 -2 -10.5t-1 -11.5q-1 -22 -8 -50l-6 -31l-5 -18q-19 -68 -11 -92q16 -46 19 -53q5 -8 26 -20q3 -1 23 -18q7 -7 15 -7q11 0 42 6q1 1 5 1l49 -2
q17 2 53 15q38 19 48 30q11 11 31 38q27 37 28 39q0 1 2 7t5 17t6 23l16 55l24 92l3 25l12 60l6 23q0 2 -1 3q2 16 3 25q0 6 -4 26q-1 4 3 49q0 11 -4 18l-17 16q-3 3 -14 25z" />
    <glyph glyph-name="V" unicode="V" horiz-adv-x="594" 
d="M173 673l28 -3q36 -4 71 -4q13 0 44 4l18 -2q17 3 22 3q18 0 25.5 -4t5.5 -12q-1 -6 -22 -19q-51 -32 -52 -48l-2 -13q-2 -12 -4 -29l-3 -21q1 -11 4 -33l5 -45l8 -31l3 -27q10 -46 12 -61q0 -2 -0.5 -6.5t-1 -13t-0.5 -17.5q0 -11 4 -28l7 -34l5 -25q8 -29 11 -29
q7 0 26 33q1 2 9.5 16.5t15.5 25.5q13 29 30 61l25 46q4 8 28 39l14 25l23 33l16 29l15 24l8 22l11 22q1 3 7.5 17t10.5 23q2 9 -20 31t-19 37q2 11 17 11q8 0 35 -3.5t35 -3.5q6 0 9 1q45 5 54 5q20 0 15 -20q-2 -10 -9 -17q-4 -4 -22 -10q-14 -5 -29 -24q-5 -11 -35 -56
l-34 -50l-30 -53q-15 -22 -43 -73q-15 -27 -36 -62l-17 -27q-6 -9 -14.5 -23t-22.5 -37t-25 -41l-27 -46l-26 -46q-32 -57 -50 -84q-12 -14 -22 -14q-7 0 -10 6q-1 13 -2 38q-2 31 -11 67l-2 22l-2 26l-7 85q0 10 -2 44q0 6 -22 104l-2 28q-4 56 -18 117q-8 36 -30 87l-3 3
q-3 3 -8.5 9t-12.5 13q-8 9 -7 19q5 18 28 19z" />
    <glyph glyph-name="W" unicode="W" horiz-adv-x="819" 
d="M496 668h57q19 0 14 -23q-3 -17 -7 -18l-24 -14q-6 -4 -7 -12q-4 -16 6 -64q5 -20 22 -20q6 0 15 6q2 2 7 11l1 4q10 17 25 58q2 12 -4 22q-1 4 -18 9q-6 1 -4 11q6 32 28 32h13q6 -1 13 -1h25q17 0 28 1h24q14 0 19.5 -5.5t3.5 -15.5q-2 -9 -10.5 -17t-30.5 -21
q-19 -12 -54 -56q-1 -1 -19 -25q-6 -9 -25 -51q-4 -7 -20 -30q-6 -11 -6 -30q3 -14 11 -128q1 -4 11 -62l-1 -16q-1 -46 9 -46q8 0 24 30q23 39 39 73l20 40q3 6 12 24.5t16 32.5q7 13 25 36q8 11 28 52l13 27l12 26l19 45q2 11 -12 45q-1 7 -8 29l-13 10q-2 4 -1 14
q2 7 9.5 14t13.5 6q52 -6 64 -6q41 0 44 1h24q29 0 24 -21q-1 -7 -8 -12l-29 -16q-19 -11 -42 -47q-4 -6 -10 -15.5t-15.5 -24.5t-17.5 -27q-11 -24 -74 -143q-14 -24 -79 -144q-28 -51 -69 -135q-11 -25 -24 -56q-13 -40 -33 -40q-9 0 -12 5.5t-8 36.5l-5 34l-4 36l-9 29
l-2 19l-8 21l-2 33l-16 88q-7 0 -22 -22q-1 -3 -4 -8t-8.5 -14t-9.5 -16l-20 -33l-39 -81q-53 -86 -57 -97q-10 -27 -23 -27q-5 0 -12.5 11t-6.5 17l-3 26l-5 25l-7 60l-12 62l-3 34l-5 18l-5 50l-8 42l-8 61l-7 45l-3 32q-2 20 -6 54l-4 12q-6 23 -22 68q-3 3 -27 21
q-15 11 -12 28q5 18 25 18q32 0 68 -3q9 -1 19 -1q12 0 17 1l15 2q62 0 67 -4q13 -6 8 -29q-2 -11 -6 -14l-21 -19q-21 -19 -28 -65q-6 -39 -2 -72q3 -36 21 -104l4 -51l8 -57l1 -39l6 -42q3 -9 10 -9q13 0 35 45q8 12 43 71q22 41 35 67q7 27 -16 103q-6 19 -9 61
q0 7 -7 46q-4 28 -14 56q-1 3 -22 16q-6 3 -3 19q5 23 30 21z" />
    <glyph glyph-name="X" unicode="X" horiz-adv-x="569" 
d="M160 0h-15q-11 0 -38 5q-8 2 -10 2l-4 -1q-4 0 -16 -1t-26 -2l-13 -1q-5 -1 -16 -1q-20 0 -15 18q1 6 10 15q4 4 33 14q11 4 46 39q5 6 8 9l27 26q7 6 29 30q5 7 27 35q2 3 33 37q4 5 11.5 16t10.5 15q2 2 6.5 7t12 14t14.5 16q13 15 18 38q2 12 -1 21q-2 5 -12 21
q-2 3 -4 13l-6 39q-1 13 -13 33l-13 42q-8 19 -21 66q-3 12 -9 24q-9 6 -18 13q-10 13 -30 38q-2 8 -1 11q5 15 31 14q9 0 16 1q13 1 46 1q11 0 21 -1l23 -2l16 -2q20 -3 63 -5q9 0 3 -26q-2 -8 -8 -16l-27 -22q-12 -12 -17 -31q-2 -11 0 -25q0 -1 2 -8l6 -21t9 -29l2 -17
q9 -28 15.5 -35.5t19.5 -7.5q10 0 26 15q5 5 24 24.5t34 34.5l13 13q8 10 23 26q22 22 26 27q11 14 16 33q5 17 -6 28q-5 3 -25 6q-11 2 -8 16q5 17 21 17l41 -1q1 0 8 2q20 4 41 4l16 -2q30 0 41 -1q14 -1 20 -6t4 -14q-1 -9 -14 -15q-1 -1 -23 -9q-46 -10 -132 -113
q-31 -36 -60 -68q-6 -6 -18.5 -17.5t-19.5 -16.5q-27 -25 -28 -37q-1 -10 0 -20l13 -47q6 -14 13 -68q0 -1 12 -28l17 -41l7 -19q9 -37 31 -59q14 -14 28 -33q22 -27 20 -34q-3 -17 -17 -15l-21 1l-14 -1h-51l-29 2q-4 0 -7 -1h-9q-9 0 -41 6q-3 1 -9 1.5t-9 0.5
q-13 1 -18 5t-3 11q1 6 9 14q12 8 33 21q11 10 13 38q2 19 -6 36l-13 30l-4 16q-1 20 -11 41l-17 37q-1 5 -6 6q-8 0 -35 -27l-12 -11l-16 -18l-7 -8q-38 -48 -58 -68q-19 -19 -23 -38q-5 -28 14 -55q15 -22 13 -31q-1 -7 -10 -9h-23z" />
    <glyph glyph-name="Y" unicode="Y" horiz-adv-x="567" 
d="M298 0h-6q-8 0 -15.5 -0.5t-11.5 -1.5h-4q-7 0 -10 1q-10 1 -19 1l-13 -1h-23q-22 0 -21 9t9 12l24 10q15 8 35 34q25 26 27 36l1 5q3 15 3 17l15 59q4 18 13 45q1 2 3 8l7 54q4 24 5 38q-1 9 -15 42q-6 14 -21 59q-11 19 -16 27q-12 21 -19 41q0 3 -13 33q-17 42 -20 45
l-16 19l-14 20l-12 13q-22 17 -24.5 20t-1.5 9q1 3 6 8q13 1 40 3l34 3q8 0 28 -4q3 0 19 1.5t19 1.5l22 -2q1 -1 23 -1q29 0 26 -16q-2 -6 -10 -13l-19 -17q-12 -12 -13 -21q-3 -14 19 -63q9 -25 31 -55q3 -8 10 -25l10 -22q7 -28 13 -28q29 0 92 92q14 20 19 25
q14 14 30 31q15 15 18 28q3 15 -4 31q0 1 -3 5t-5 8q-7 7 -15 14q-4 2 -2 10q3 16 32 16h10q7 0 19 -1l11 -1q3 0 16.5 2t18.5 2q15 0 39 -4q27 -4 24 -18q-2 -9 -8 -14q-5 -4 -37 -19q-13 -6 -43 -33q-3 -2 -27 -24q-8 -7 -33 -43l-20 -22l-15 -17l-15 -17l-48 -54
q-22 -19 -31 -36q-10 -18 -17 -54l-14 -65q-7 -24 -9 -28q0 -12 -3 -33l-19 -77q-6 -24 -1 -44q5 -17 22 -36q14 -14 12 -23q-1 -7 -9 -6l-22 1q-11 -2 -21 -1z" />
    <glyph glyph-name="Z" unicode="Z" 
d="M339 622q-46 0 -95 -23q-21 -11 -43 -51q-10 -16 -20 -16q-5 0 -8.5 4.5t-1.5 8.5l7 19l4 25l1 3q1 2 3 8l4 12q7 18 5 20q1 3 2 10t1.5 11t2.5 9t5 7.5t8 2.5q2 0 5.5 -1t10.5 -2.5t12 -2.5q10 -2 11 -2q2 0 7 1t14.5 2t18.5 2q1 1 9 1q4 0 31 -5q17 -4 36 -4q12 0 41 4
l65 2q4 0 7 -1q10 0 18 -0.5t12 -1.5h4q21 2 38 2h18q32 0 27 -21q-3 -16 -46 -67q-35 -43 -43 -56q-2 -3 -85 -127q-3 -5 -41 -56l-20 -25l-19 -31q-4 -7 -31 -45q-10 -12 -34 -36l-11 -15l-9 -13l-39 -62l-8 -9q-9 -14 -11 -25q-4 -18 1 -25q11 -11 99 -11q38 0 76 12
q15 4 22 11q4 6 13 15q5 6 19 17l3.5 3.5t3 3.5t2.5 3t2.5 3t2 3t1.5 4t1.5 4t1.5 5t2 6q6 16 20 16q16 0 12 -22q-1 -6 -6 -22l-4 -21l-7 -20q-7 -24 -15 -53q-3 -6 -7 -10l-26 2q-1 1 -16 -1q-9 -1 -14 -1q-17 0 -19 -1q-13 0 -20 -1q-9 -1 -42 1q-21 1 -43 1
q-13 0 -51 -3h-17l-11 -1q-5 2 -20 3l-19 3q-9 4 -49 4q-1 0 -38 -5q-1 -1 -7 -1q-21 0 -16 17q3 19 39 65q8 11 24.5 31t25.5 31q9 9 36 44l9 12l14 17l7 10q3 3 31 39q2 4 11 15q11 12 25 32q18 23 63 99l25 37l26 29l22 26q50 58 57 86q5 21 -9 26l-25 2l-36 2h-24
q-3 1 -9.5 1.5t-9.5 0.5z" />
    <glyph glyph-name="bracketleft" unicode="[" horiz-adv-x="296" 
d="M272 688l27 -2l17 1q14 -3 17 -3q8 0 25 4l22 1q4 0 12 1t9 1q20 0 19 -19q-2 -17 -13 -17l-28 1q-2 0 -3 -1q-30 0 -45.5 -11t-29.5 -42q-17 -38 -23 -65l-7 -49l-16 -56l-10 -52l-8 -35q-5 -23 -7 -30q-3 -18 -5 -35l-12 -39q-1 -9 -6 -48l-1 -7q-8 -18 -15 -45
q0 -1 -1.5 -14.5t-3.5 -24.5l-6 -27q0 -21 -3 -43q-6 -47 10 -60q11 -8 16 -8h22q35 0 30 -21q-3 -14 -17 -12l-23 2l-23 -4q-2 0 -4 1q-12 4 -26 4q-8 0 -32 -1.5t-31 -1.5q-25 0 -31 12q-4 10 0 35q5 20 15 50q10 28 16 51q1 21 6 44l1 2q2 8 4.5 15.5l4 12t1.5 5.5
q1 7 3.5 25.5t3.5 29.5q5 21 13 44q3 9 3 12l15 78q0 5 1.5 20t2.5 24q4 15 13 40q5 16 14 69l5 28q2 8 3 23l3 13q6 25 26 72q2 4 9 31q5 21 41 21z" />
    <glyph glyph-name="backslash" unicode="\" horiz-adv-x="428" 
d="M186 698q12 0 19 -6q5 -5 11 -28q5 -13 11 -39q1 -5 12 -33q3 -13 7 -52l12 -43l2 -18q9 -20 20 -52q10 -27 18 -65q4 -20 9 -30l4 -27q3 -8 23 -60q1 -7 13 -54l16 -54l5 -29q9 -26 17 -38l4 -24l5 -17q4 -14 10 -32q5 -9 4 -14q-2 -12 -23 -12q-5 0 -8.5 1.5t-6 2.5
t-5 4.5t-4 5.5t-3 7.5t-1.5 7t-1.5 8t-1.5 7.5q0 3 -24 51l-2 24q-6 10 -9.5 20t-4.5 13.5t-3 18.5t-3 20l-10 14l-7 20q-9 24 -8 48q-2 4 -11 28q-5 16 -14 63q-11 30 -24 77q-11 41 -31 95q-5 15 -8 49q-6 21 -13 43q-20 83 -20 84q3 15 24 15z" />
    <glyph glyph-name="bracketright" unicode="]" horiz-adv-x="296" 
d="M32 -34q2 0 8 -1l5 -1l17 2q17 2 25 4q19 7 32 31q20 39 26 66q1 3 1 7q2 17 7 40q6 25 14 46q6 17 9 49q1 6 5.5 22.5t8.5 34t8 35.5q1 8 11 72l9 47q16 44 18 54q0 3 2.5 15t4.5 22l7 38l-1 22l8 31q1 4 -2 31q-3 9 -19 18q-5 4 -13 4h-16q-37 0 -33 21q3 14 15 13
l23 -2q15 4 22 4q2 -1 10 -2t13 -2q3 -1 13 -1h7q26 3 28 3q35 0 45 -2q17 -8 10 -44q-7 -32 -10 -43q-24 -85 -31 -116l-5 -25q0 -2 -2 -16.5t-3 -25.5q0 -5 -4 -21q-3 -18 -6 -22l-11 -42q-2 -9 -6 -37l-5 -36q-16 -59 -19 -70q-1 -5 -4 -15.5t-4 -15.5l-4 -13l-3 -22
l-4 -15l-5 -35l-12 -53q-13 -31 -20 -45q-5 -27 -9 -31q-7 -8 -25 -11q-1 0 -2.5 -0.5t-3 -0.5t-4 -0.5t-4.5 -0.5q-6 0 -30 3q-30 2 -31 2l-25 -5l-45 -2q-20 0 -16 17q5 20 25 20z" />
    <glyph glyph-name="asciicircum" unicode="^" 
d="M585 286h-37l-138 313l-275 -313h-97l363 414h6z" />
    <glyph glyph-name="underscore" unicode="_" 
d="M-17 -86h499l-9 -42h-499z" />
    <glyph glyph-name="grave" unicode="`" 
d="M292 519q8 0 18 -7l4 -4q3 -5 11 -16l16 -22l21 -21q13 -13 11 -26q-1 -10 -12 -10q-6 0 -32 13l-51 16q-14 4 -20.5 7t-11 9.5t-2.5 16.5q3 16 18.5 30t29.5 14z" />
    <glyph glyph-name="a" unicode="a" horiz-adv-x="334" 
d="M156 340q10 7 35 14l14 6q21 8 28 8q35 0 52 -6q23 -9 39 -45q8 -17 2 -42q0 -1 -0.5 -3.5t-1.5 -7t-2 -7.5l-29 -129q-4 -21 -5 -28q0 -12 7 -26t15 -16l14 -6q2 -2 1 -5q-1 -5 -22 -26q-29 -27 -52 -27q-6 0 -19 5q-19 18 -26 18q17 0 -7 -7q-7 -2 -18 -5
q-49 -11 -64 -11q-45 0 -70 31q-6 8 -5 23v10q0 10 1 14v3l1 3l4 12t6 21q29 103 33 115q35 98 69 114zM185 302l-32 -65q-8 -17 -19 -76q-2 -12 -6 -34t-6 -34q-5 -21 11 -34.5t41 -13.5q32 0 47 51q1 6 17 52l2 8l3 20l15 89q2 12 -8 35q-8 18 -19 20h-13q-15 -2 -33 -18z
" />
    <glyph glyph-name="b" unicode="b" horiz-adv-x="422" 
d="M104 146q1 11 21 85q4 10 5 17q3 12 10 61q1 5 2.5 14t1.5 11q2 9 9 35q8 32 9 35q8 38 13 101q1 10 3 37q-1 25 -8 23q0 1 -12 7q-15 8 -12 22q3 10 32 21q44 15 77 39q10 7 23 7q17 0 13 -19q0 -4 -4 -11q-20 -42 -25 -66l-9 -47q-5 -13 -19 -101q-1 -6 -2.5 -14
t-1.5 -10q-10 -41 -8 -49q1 -4 4 -4q10 0 29 11q20 12 26 13l12 1h32q30 0 62 -32q50 -50 50 -101q0 -10 -1 -15l-10 -68q-11 -63 -80 -119q-49 -38 -122 -38q-14 0 -36 13q-20 12 -18 14q-3 -1 -25 -15q-5 -4 -10 -4l-35 1q-11 0 -17 -1h-18q-13 0 -18.5 3t-3.5 9t10 13
q27 22 31 29q5 11 9 31zM248 301q-17 0 -30.5 -14t-17.5 -34l-5 -24q-1 -5 -8 -30q-1 -3 -2.5 -8t-1.5 -6q-3 -17 -9 -49q-4 -22 -3 -36q4 -31 28 -61q11 -8 13 -8l14 -1l23 -2q40 0 70 43q23 35 33 80q6 30 6 54q0 65 -35 79q-8 5 -32 12l-23 2q-19 2 -20 3z" />
    <glyph glyph-name="c" unicode="c" horiz-adv-x="339" 
d="M261 366q51 2 65 -1q38 -6 51 -33q7 -16 4 -33q-3 -12 -13.5 -21.5t-21.5 -9.5q-27 0 -51 39q-2 4 -4 6.5t-3.5 4.5t-4 3.5t-4 3t-5.5 2t-5.5 1t-7 0.5t-7.5 0.5t-9.5 0.5h-10.5q-21 -2 -49 -33q-20 -22 -34 -82q0 -3 -2 -17l-6 -26q0 -1 1 -4.5t2.5 -9.5t3.5 -12
q5 -23 7 -30q11 -49 38 -69q17 -12 26 -11h13q30 0 63 14q16 8 19 8q6 0 4 -5t-15 -14q-68 -44 -80 -44q-62 0 -89 12q-15 8 -32 24q-26 26 -38 70q0 17 1 39q0 12 2 54q13 62 66 112q30 28 48 38q38 22 78 23z" />
    <glyph glyph-name="d" unicode="d" horiz-adv-x="405" 
d="M268 363q28 0 42 -21q8 -11 9 -11q7 0 10 13q3 9 3 25l9 28l6 22q1 4 6 21t8 29q0 2 1.5 10.5t3 18t1.5 12.5l7 31q3 11 -5 25q0 2 -21 15q-4 2 -2 13q2 10 15 18q8 4 17 9q18 5 53 23q20 14 36 14q21 0 16 -18q-3 -10 -5 -15q-1 -3 -17 -48q-4 -9 -16 -47q-2 -2 -10 -45
q-5 -29 -6 -36q-5 -20 -9 -35l-10 -41l-62 -286q-2 -15 -1 -20l6 -14l4 -18q7 -16 6 -23q-5 -14 -28 -14q-1 0 -3.5 0.5t-7.5 1t-11 0.5h-7h-10h-9q-20 0 -24 4l-6 17q0 1 -3 1t-27 -11q-20 -10 -27 -10l-18 -1l-23 -3q-12 0 -32 7q-22 8 -28 14q-14 14 -21 32
q-12 27 -17 45q-7 24 -1 57q26 116 83 164q30 25 89 39zM266 288q-74 0 -111 -54q-15 -21 -31 -94q-6 -28 11 -67q12 -28 51 -28q35 0 64 27t36 64l9 47l2 6l6 19l2 29q3 33 3 34q-12 17 -42 17z" />
    <glyph glyph-name="e" unicode="e" horiz-adv-x="328" 
d="M256 367q58 0 95 -54q17 -24 12 -47q-8 -35 -39 -35q-2 0 -13 1t-12 1q-7 0 -28.5 -1.5t-27.5 -1.5h-15q-6 0 -27.5 2t-27.5 2q-20 0 -37 -13q-8 -6 -11 -20q-2 -5 -3 -17q-4 -37 -2 -44q4 -16 30 -42q19 -19 31 -24q16 -6 32 -6q19 0 61 9q17 4 28 10q6 2 7 2q7 0 5 -8
q-2 -7 -7 -13l-3 -8q-9 -19 -24 -31q-5 -5 -16 -11q-40 -25 -96 -25q-12 0 -36 8q-21 9 -23 11q-17 13 -47 88q-5 45 -1 61q3 7 15 39q24 65 48 88q9 11 43 45q46 34 89 34zM233 331q-27 0 -51 -21q-16 -13 -19 -29q-1 -10 6 -13q17 -6 91 -6q26 0 29 15q5 23 -12.5 38.5
t-43.5 15.5z" />
    <glyph glyph-name="f" unicode="f" horiz-adv-x="229" 
d="M138 292q7 31 7 44v2q-5 8 -13 11l-31 -1q-7 0 -7 8q0 12 28 21q29 9 31 20l10 50q2 4 26 60q38 93 96 133q29 20 55 20q44 0 44 -35q0 -46 -34 -46q-24 0 -30 16q-4 16 -16 16q-14 0 -25 -18q0 -2 -13 -31q-20 -50 -30 -109q-5 -35 -5 -52q0 -7 27 -17q27 -9 27 -21
t-19 -15q-1 0 -11 -0.5t-12.5 -1t-9 -2t-10 -5.5t-5.5 -10q-2 -8 -9.5 -31.5t-12.5 -39.5q-2 -13 -6 -32.5t-5 -26.5q0 -1 -21 -81l-70 -269q-2 -7 -11 -41q-7 -18 -31 -50q-22 -32 -39 -42q-34 -25 -78 -25t-44 35q0 46 34 46q24 0 30 -16q4 -16 16 -16q18 0 28 25
q2 7 17 40q1 4 4.5 18.5t6.5 24.5l72 283q7 24 22 93q1 8 3 21q2 12 13 45q8 29 8 46v2q-5 8 -13 11l-31 -1q-7 0 -7 8q0 12 28 21q29 9 31 20l10 50z" />
    <glyph glyph-name="g" unicode="g" horiz-adv-x="387" 
d="M295 366q7 0 21 -2q16 -8 35 -19q1 -1 9 -1l15 10q15 11 23 11q13 0 21 -10.5t5 -23.5q-1 -9 -9 -20l-4 -4t-8.5 -7.5t-9.5 -8.5q-6 -4 -9 -37l-3 -27l-6 -30q-6 -26 -12 -40q-15 -35 -61 -63q-1 -1 -15 -9t-24 -13q-3 -1 -26 -4q-11 -2 -24.5 -3.5t-14.5 -1.5h-9
q-7 0 -14.5 0.5t-14 0.5t-12 0.5t-8.5 1.5h-2q-20 0 -23 -15q-2 -11 6 -17.5t27 -8.5l53 -7l52 1q4 -1 21 -13q55 -20 68 -72q2 -17 -8 -52l-5 -16l-2 -12l-5 -17q-10 -36 -21 -54q-22 -33 -61 -52q-11 -5 -15 -8q-58 -34 -103 -34q-88 0 -120 54q-20 37 -13 71q11 46 18 65
q13 32 43 51q26 17 27 23q-11 39 -11 50q0 17 5 45q1 10 6 16l24 28q-12 16 -15 33q-12 38 3 94q17 56 45 86q27 27 49 38q14 7 36 11q7 2 23 9q7 3 53 3zM205 -74q-1 0 -12 -1.5t-14 -1.5q-1 0 -5 1t-12 2t-15 2q-8 -2 -36 -23q-3 -1 -11 -8q-35 -26 -45 -70
q-19 -91 78 -91q77 0 133 51q14 14 20 42q11 44 -47 83l-9 6q-11 8 -25 8zM246 311q-23 0 -50 -18l-2 -3l-6 -6l-9 -9q-27 -30 -32 -47q-7 -36 -4 -49q-2 -3 6 -23q16 -52 42 -52q62 0 87 28q3 3 15 20q17 24 20 37q9 39 3 78q-2 16 -15 26l-8 3q-8 3 -15 5q-27 10 -32 10z
" />
    <glyph glyph-name="h" unicode="h" horiz-adv-x="408" 
d="M279 663q6 0 13.5 -6t6.5 -11q-25 -70 -27 -81l-9 -45q-1 -4 -2.5 -10.5t-3 -16t-3.5 -16.5l-3 -17l-5 -28q0 -1 -1.5 -4t-3 -7t-2.5 -8q-7 -19 -15 -47q-3 -13 6 -13q3 0 23 12q11 6 35 6q38 0 66 -19q22 -15 30 -30q4 -9 6 -41q0 -23 -5 -65l-4 -34q0 -7 -3 -13
q-5 -16 -5 -18l-6 -32l-7 -32q-5 -27 -6 -41q-1 -10 9 -20q14 -16 13 -22q-1 -7 -21 -7q-8 0 -49 7q-2 1 -13 1q-6 0 -8 -1l-30 -4q-9 0 -8 9q1 8 11 19q14 16 25 37q6 18 11 42q4 14 7 21q6 19 10 39q2 8 3 39.5t3 41.5q1 3 2.5 11t2.5 11q4 20 -7 41t-28 21q-24 0 -43 -10
q-31 -16 -37 -52l-7 -49l-8 -41q-10 -26 -11 -32q-1 -12 -3 -42q0 -2 -1 -5q-9 -29 -9 -32q-3 -9 -1 -26q0 -5 11 -19q12 -12 11 -20q-1 -6 -17 -6q-12 0 -40 3q-22 0 -35 1l-13 1q-26 -3 -35 -3q-10 0 -14.5 2t-3.5 6q1 5 3.5 7t25.5 15q10 4 16 15q2 5 5 14q17 32 17 53
q2 6 6 33l10 46l4 10l9 40l10 31l2 10q5 24 9 72l4 11q0 1 11 50l8 31l2 11l4 25q2 8 9 29q-2 24 -8 44l-20 8q-9 1 -8 13q3 9 36 26q18 8 40 26q47 35 53 35z" />
    <glyph glyph-name="i" unicode="i" horiz-adv-x="212" 
d="M209 364q15 0 10 -21q0 -2 -1.5 -6.5t-4 -12.5t-4.5 -15l-1 -9l-3 -12q0 -1 -11 -42t-11 -42l-2 -26l-16 -76l-2 -15q-2 -35 5 -47q9 -20 7 -29q-3 -13 -33 -13q-4 0 -22 1t-24 1h-7l-34 -2q-11 2 -8 15q1 5 25 28q11 11 9 13l7 30l10 29l16 70q0 6 4 34l1 2l1 6
q2 6 4 11l4 11q1 5 6 20q2 6 -3 14q-9 9 -19 18q-6 19 21 30q14 5 29 14q38 21 47 21zM205 492q21 0 34 -13t9 -31q-3 -15 -22 -32q-18 -18 -31 -18q-12 0 -32 14q-11 4 -9 18q0 4 1 11t1 10q3 17 17.5 29t31.5 12z" />
    <glyph glyph-name="j" unicode="j" horiz-adv-x="220" 
d="M91 76l14 63q0 4 4 29q2 7 6 34q0 14 1 37v25q0 5 -13 21q-3 3 0 14q3 14 14 19q1 0 4 1.5t8 3t11 3.5l27 15q4 1 32 17q26 16 28 16q14 0 11 -18q-6 -25 -31 -56l-2 -4l-4 -39q-11 -25 -20 -92q0 -5 -1 -9l-1 -2q-1 -3 -1 -5q-13 -44 -25 -102q-1 -2 -2.5 -13t-1.5 -13
l-37 -121q-2 -5 -13 -34q-12 -24 -64 -76q-22 -19 -33 -19q-9 0 -7 11t20 35q8 11 15 31l6 11q7 22 17 44l2 20l7 23q2 22 2 23q2 4 9 28l10 45zM200 488q27 0 39 -18q7 -10 4 -25q-4 -20 -31 -39q-16 -11 -24 -11q-12 0 -31 13q-7 5 -8 12q1 3 1 15l1 16q1 4 10 16t13 15
q9 6 26 6z" />
    <glyph glyph-name="k" unicode="k" horiz-adv-x="412" 
d="M243 458l-4 -19q0 -1 -16 -71q-1 -7 -3 -23.5t-5.5 -32t-10.5 -31.5q-12 -27 -12 -41q0 -11 9 -11q7 0 15 6l19 14l5 2q16 9 21 12q14 12 21 19q32 19 59 46q5 13 19 33q8 8 13 8l26 -1q3 0 15 1t14 1q39 0 36 -12q-2 -8 -24 -18l-48 -28l-34 -17q-30 -16 -40 -23
q-33 -21 -36 -35q-1 -7 22 -40q4 -6 14 -40q4 -11 22 -41q15 -37 20 -48q5 -8 24 -26q14 -11 9 -28q-3 -15 -18 -14h-24h-7q-6 0 -23.5 -0.5t-21.5 -0.5l-30 -1q-11 1 -15.5 3.5t-3.5 7.5q2 6 13.5 17.5t11.5 13.5q0 1 -2 7q-6 14 -8 44q0 5 -10 18q0 1 -5 16q-1 6 -17 20
q-5 4 -10 12q-15 37 -27 37q-9 0 -14 -26q-6 -22 -13 -37l-6 -43q0 -2 -5 -18q-4 -22 13 -47q8 -13 7 -17q-1 -7 -16 -7q-5 0 -19.5 3t-18.5 3q-1 0 -11 -1.5t-18 -2.5h-14q-8 -1 -23 -1h-22q-11 0 -11 7q2 6 6 9t27 18q11 8 17 24l15 40l8 21q8 19 15 57l3 19l5 19
q0 1 1.5 9t2.5 13l3 14q2 10 9 39l7 26q0 3 2.5 15.5l4.5 22.5l12 56l6 24q5 17 10 50q7 41 4 62q-1 9 -6 15q-21 10 -19 19q2 7 29 14q4 1 11.5 4l20 8t24.5 10q21 10 40 26q10 9 17 9q9 0 6 -13q-1 -11 -16 -32q-15 -22 -18 -32q-13 -32 -20 -69q0 -4 -9 -46z" />
    <glyph glyph-name="l" unicode="l" horiz-adv-x="213" 
d="M278 647q10 0 7 -13q-4 -12 -8 -20l-5 -31q0 -1 -1.5 -5.5t-3.5 -8.5l-8 -27q0 -1 -2.5 -11.5t-4.5 -19.5l-1 -4l-9 -52l-3 -10l-24 -93q-2 -16 -15 -88l-14 -75q-8 -24 -9 -28v-25q-4 -54 -6 -59q0 -3 2.5 -13.5t4.5 -18.5l3 -7l11 -12q1 -4 0 -13q-3 -11 -17 -13h-25
h-29h-25h-7h-22q-15 -1 -25 -1q-7 0 -10.5 2t-2.5 6q1 6 7 12l22 20l12 13q12 15 16 24t8 29l16 51l6 42l7 33q2 14 2 15l2 7q2 12 16 54l2 8q1 11 1 20l8 38q0 1 1 5t3 11.5t4 15.5q4 16 10 42q4 17 4 22l-3 27q2 15 0 26q-5 12 -8 14l-20 12q-2 1 -1 14q4 14 42 31
q10 5 27 18l26 14q35 18 39 22z" />
    <glyph glyph-name="m" unicode="m" horiz-adv-x="644" 
d="M510 330q-21 0 -43.5 -13t-33.5 -31q-3 -7 -14 -36q-1 -2 -2 -5q-2 -3 -3 -6q-10 -21 -15 -40q0 -5 -1 -11q-3 -14 -3 -20q-11 -58 -11 -68q0 -16 -3 -35q-4 -15 35 -50q3 -2 2 -6q-2 -9 -38 -9l-22 2q-4 0 -7.5 0.5t-5.5 1t-4 0.5h-3q-5 0 -24.5 -2t-25.5 -2
q-26 0 -23 12q1 7 22 49q20 40 26 65q0 2 1 9.5t2.5 18t3.5 22.5q0 1 1.5 4.5t4 11.5t4.5 16q3 9 6 21q7 36 -3 64q-13 33 -49 33q-47 0 -77 -51q-8 -18 -8 -25q-1 -5 -2.5 -13.5t-1.5 -10.5q-3 -15 -12 -42l-3 -9l-3 -11l-4 -25l-9 -36q-1 -24 -1 -38q0 -3 7 -27
q18 -26 17 -28q-2 -8 -19 -8q-4 0 -27 3h-7q-12 0 -19 -1h-6q-8 0 -12 1h-8q-2 0 -19.5 -1.5t-21.5 -1.5q-11 0 -8 10q2 9 5 11l25 21q10 7 18 23l6 29q1 4 8 24q4 14 6 30l2 11l10 57q0 2 1.5 5t3 9t3.5 11q2 6 4 11.5t3 9t1 4.5q4 22 -7 32q-16 13 -14 18q2 7 4 8l33 17
q1 1 49 29q7 3 11 3q10 0 10 -10q-1 -22 2 -22q2 1 29 13q6 3 46 9q24 4 42 4q45 0 64 -43q6 -9 10 -9q2 0 24 17q12 11 51 28q24 10 27 12q3 1 27 1q60 0 94 -73q1 -19 -3 -44q-2 -10 -8 -30q-2 -5 -10 -53q-1 -5 -3.5 -19.5t-3.5 -22.5q-1 -7 -12 -49q-5 -24 11 -48
q4 -7 19 -21q4 -3 3 -7q-1 -9 -33 -9q-27 0 -49 2l-10 2l-64 -3q-5 0 -6 4q-2 3 0 11q1 5 14 20q23 23 31 44q3 10 10 31l11 32l4 19q1 10 5 32l4 18q4 20 9 37q16 82 -47 82z" />
    <glyph glyph-name="n" unicode="n" horiz-adv-x="399" 
d="M212 369q4 0 6 -3l-2 -22q2 -2 4 -2q10 5 29 14q30 14 53 14q11 0 44 -9q32 -5 41 -28q3 -30 2 -57l-1 -13l-4 -19l-5 -30q-6 -22 -8 -30l-7 -42q-4 -23 -4 -54q0 -3 2 -25q1 -10 13 -30q2 -4 4.5 -7.5t4.5 -7.5t3 -5q-3 -13 -25 -13h-13q-6 0 -26 2h-3q-4 -1 -11.5 -1.5
t-16.5 -0.5h-9q-24 0 -37 1q-10 1 -8 12q1 6 19 22q4 3 15 23l12 20l8 47q0 1 3 8q7 17 12 39q20 97 16 115q-8 42 -43 42q-27 0 -49 -17q-2 -4 -12 -19l-14 -22l-7 -29l-4 -11l-2 -11q-2 -2 -3 -8l-3 -12q-4 -17 -11 -32q-3 -29 -5 -41q-7 -21 -7 -28q0 -1 -0.5 -4t-1 -8.5
t-0.5 -10.5l-2 -18q0 -2 1.5 -9.5t2.5 -13.5q7 -11 20 -21q3 -2 2 -6q-2 -8 -19 -8q-2 0 -19 2t-25 3l-27 2q-7 1 -36 -6q-2 -1 -10 -1q-11 0 -16.5 3.5t-3.5 10.5q1 8 25 22q8 5 28 34q7 10 14 38q11 36 17 67l7 30l7 28q6 25 -3 37q-10 6 -32 22q-2 6 0 8q2 8 17 15
q25 12 57 27q40 27 46 27z" />
    <glyph glyph-name="o" unicode="o" horiz-adv-x="422" 
d="M268 0q-27 -6 -46 -6q-56 0 -97 30q-28 20 -36 32q-30 38 -30 78q0 12 3 25q4 15 12 53q6 29 15 41q46 67 116 93q30 11 43 14q30 6 49 6q35 0 45 -3q4 -1 33 -15q21 -10 31 -28l10 -18q17 -31 17 -66q0 -68 -60 -157q-22 -30 -64 -56q-40 -23 -41 -23zM253 325
q-17 0 -33 -8q-32 -22 -53 -51q-16 -20 -25 -63q-7 -35 -9 -47l1 -8q1 -7 3 -25t4 -38q7 -13 16 -19l23 -13q23 -17 28 -17q25 0 58 16q30 14 54 57q21 39 28 76q4 16 1 24l-5 28q-1 9 -10 47q-18 41 -81 41z" />
    <glyph glyph-name="p" unicode="p" horiz-adv-x="401" 
d="M222 335q9 2 21 11q29 21 57 21q31 0 62 -11q34 -13 45 -36.5t13 -73.5q2 -12 0 -20q0 -2 -2.5 -12.5t-5 -24t-5.5 -28.5l-4 -26q-6 -31 -48 -76q-24 -26 -63 -49q-11 -5 -29 -12q-7 -4 -32 -6l-20 -2l-55 11q-8 -2 -20 -42l-4 -13l-4 -35l-22 -97q-8 -32 17 -49
q1 0 10 -4.5l17 -8.5q5 -2 3 -10q-3 -12 -18 -12h-15q-7 1 -13 1q-11 0 -42 -3q-2 -1 -5 -1q-4 0 -21 1.5t-21 1.5q-5 0 -12 -1h-11q-11 0 -16 3.5t-3 10.5q1 4 10 10q21 15 26 23q1 2 14 25q8 36 17 66l11 41v4q0 2 2 13t5 26.5t5 26.5l2 11l10 39l3 18q5 11 9 28l3 26
l5 25q0 2 1.5 12.5t2.5 18.5l6 25l12 48l8 26q3 14 -7 24q-1 1 -8 4t-10.5 7.5t-2.5 9.5q3 14 57 39q31 28 32 29q20 17 39 17q15 0 11 -16q-1 -6 -5.5 -13t-8 -12.5t-3.5 -6.5v-2zM263 303q-38 0 -54 -25l-20 -60l-4 -25l-5 -17l-11 -56l-3 -20l-4 -20l5 -31q9 -17 49 -18
l3 -1q3 0 8.5 -0.5t12.5 -0.5q19 -1 44 22q62 59 62 160q0 92 -83 92z" />
    <glyph glyph-name="q" unicode="q" horiz-adv-x="409" 
d="M243 368l22 -3q21 -4 24 -5q19 -12 24 -12q8 0 8 6l1 32q0 5 10 10.5t17 5.5q12 0 22 -10q5 -6 19 -25l19 -17q32 -27 29 -38q-2 -8 -8 -15q-2 -3 -26 -14q-6 -3 -18 -60q0 -5 -1 -12q-3 -27 -7 -40q-2 -9 -10 -28v-3v-3q-1 -3 -1.5 -10t-0.5 -15l-3 -13q-9 -25 -15 -51
l-9 -38q-9 -23 -11 -43q0 -1 -2 -11l-5.5 -27.5l-7.5 -37.5q-2 -6 -10 -35l-3 -44q0 -2 -0.5 -5t-1 -8.5t-0.5 -9.5q0 -5 15 -25q7 -8 5 -16q-3 -17 -24 -17h-51q-4 0 -11 -1h-21h-31q-14 0 -20.5 4t-4.5 11q2 6 3 7l13 9l13 12l15 9q4 1 15 25q10 21 11 28q1 4 0 8
q0 1 1.5 8.5l2.5 12.5l2 8l2 9q2 7 11 25q2 2 3 6l1 30l3 18q0 16 3 34q2 9 -5 9q-20 -5 -29 -8t-16 -3q-44 0 -66 8q-25 10 -47 46q-26 44 -26 79q0 7 2 19q1 1 4 12l2 8q0 1 0.5 21t2.5 26q9 43 44 81q64 70 123 76zM280 299q-8 0 -33 -6t-30 -9q-17 -8 -39 -36
q-38 -46 -39 -57l-3 -21l-4 -22v-9l-4 -20l-3 -15l-1 -4q1 -6 8 -14q3 -2 6 -11q8 -22 35 -38q11 -6 28 -6q41 0 62 24q15 15 29 62q3 10 7 30q4 16 5 25l7 24l2 21q3 18 6 37q2 29 -24 38q-7 5 -15 7z" />
    <glyph glyph-name="r" unicode="r" horiz-adv-x="263" 
d="M183 217l-10 -46q-1 -13 -6 -25q-4 -10 -8 -39q-1 -21 -3 -27q-6 -29 17 -44q24 -15 21 -27t-25 -12q-13 0 -53 3h-7l-34 -1q-36 0 -33 14q2 8 5 10l24 19q9 7 13 17q8 32 22 82l6 33q1 3 11 65q5 36 -5 46l-8 5l-8 4q-9 4 -7 15q2 8 13 15l4 2q4 3 11 6.5l15 7.5
q18 9 44 25q5 3 20 8l6 -26q27 12 33 17l18 6q23 6 30 6q45 0 45 -47q0 -33 -24 -52q-11 -8 -20 -8q-14 0 -24 12q-4 4 -19 35q-2 2 -3 2q-20 0 -39 -42q-15 -29 -22 -59z" />
    <glyph glyph-name="s" unicode="s" horiz-adv-x="307" 
d="M69 127q3 0 8 -11q7 -25 34 -50q20 -18 37 -18h26q27 5 44.5 24t17.5 46q0 28 -31 44l-23 13q-4 6 -35 28q-17 12 -30 24q-17 26 -11 55q15 71 92 91l4 1q5 0 14.5 0.5t20.5 0.5l23 1q8 0 26 -7l39 8q3 1 4.5 -1t2.5 -7q0 -11 -6 -33q0 -1 -5 -23l-4 -12q-7 -27 -15 -27
q-12 0 -25 43q-12 37 -39 37q-26 0 -42 -22q-13 -16 -14 -27q-3 -17 9 -36q5 -8 32 -19l7 -2l17 -11q13 -6 20 -11q24 -24 31 -41q9 -21 2 -55q-6 -29 -33 -65q-31 -42 -88 -58q-21 -7 -36 -7q-11 0 -26 5l-18 12q-1 1 -5 1q-6 0 -11 -5l-12 -13q-6 -2 -16 -2q-20 0 -16 16
l7 32q0 1 0.5 2.5t1 4.5t0.5 6q-1 3 6 34l3 17q5 17 12 17z" />
    <glyph glyph-name="t" unicode="t" horiz-adv-x="247" 
d="M107 363l3 -1q2 0 7 -0.5t11 -0.5q2 -1 8 -1q14 0 21 18l11 44q3 12 37 28q30 14 32 14q16 0 12 -16q0 -1 -1 -3t-1 -3q-8 -13 -11 -21q-2 -37 -1 -55l24 2l7 -1q29 -5 25 -25q-5 -16 -15 -21q-2 0 -7 -1t-13.5 -2t-17.5 -2q-22 -3 -27 -23q-3 -23 -4 -27q0 -1 -1.5 -5
t-4 -10.5t-4.5 -13.5q-6 -26 -10 -42t-10 -42q-8 -37 -8 -58q0 -30 12 -30l42 6q2 0 3.5 -8t0.5 -12q-3 -15 -15 -25q-6 -4 -22 -12q-16 -13 -20 -14q-14 -6 -31 -6q-37 0 -51 24q-7 11 -5 18l12 53q1 23 3 33q0 1 1.5 5t5 12.5t7.5 18.5q2 3 6 36l6 30q0 2 0.5 5t1 7.5
t0.5 7.5v11l5 13q7 20 9 30q4 19 -17 22q-33 4 -36 12q-3 9 -2 13q5 17 22 18z" />
    <glyph glyph-name="u" unicode="u" horiz-adv-x="383" 
d="M114 361q6 0 8 -1l25 -5q35 5 36 5q19 0 26.5 -7t4.5 -21q0 -1 -15 -43l-35 -173l-7 -21q-1 -1 -2 -4.5t-1 -5.5q-5 -24 8 -40q6 -9 16 -9q8 0 30 8t29 15q9 8 22 26q13 19 15 29l6 43q10 26 11 36q1 13 6 42q1 11 15 54q9 15 3 28l-15 39q10 6 13 6q2 0 11 -2t11 -2
l45 1q8 0 9 -7q2 -9 -1 -23l-13 -60l-9 -36l-11 -56q-3 -17 -4 -24q-1 -3 -1 -7l-14 -51q-3 -7 6 -21q10 -18 13 -26q0 -3 -10 -9l-29 -18q-50 -36 -74 -36q-9 0 -9 8l1 22q2 3 -3 3q-17 -7 -39 -20q-4 -4 -24 -4q-52 0 -76 63q-6 16 5 69q4 20 12 52q3 10 6 20.5t5 19.5
t3 12q0 2 1 7t2 13.5t2 17.5q3 23 1 32q-2 14 -14 25q-20 19 -19 26q1 10 18 10z" />
    <glyph glyph-name="v" unicode="v" horiz-adv-x="328" 
d="M82 333q-6 11 -5 17q2 8 5.5 12t7.5 3l41 -3q6 1 12.5 2.5t9.5 1.5l3 1q24 0 34.5 -4.5t8.5 -14.5q-1 -3 -6 -13q-13 -22 -13 -25l7 -43l4 -48q8 -37 13 -52l9 -22q4 0 27 35q31 45 42 77q1 1 4 9q10 19 11 26q5 23 2 29q-3 21 -3 23q2 10 15 12l17 3l25 4l26 1
q12 0 16.5 -4t2.5 -12q-2 -7 -12 -20q-7 -7 -31 -27l-7 -8q-9 -11 -30 -44l-6 -15l-8 -13l-11 -22q-12 -20 -34 -62q-11 -21 -42 -75q-16 -24 -20 -32q-8 -18 -14 -26.5t-8.5 -9.5t-7.5 -1q-12 0 -16 10q-5 11 -9 56q-5 49 -11 64q0 4 -7 45q-7 38 -16 65q-2 5 -3 16
q-6 43 -6 44q-5 24 -17 40z" />
    <glyph glyph-name="w" unicode="w" horiz-adv-x="484" 
d="M400 362q35 0 32 -13q-3 -6 -20 -23q-41 -52 -44 -68l-8 -44l-3 -14q-4 -7 5 -36q11 -27 13 -27q5 5 15 21q3 8 38 51q30 38 40 87q3 16 -7 38q-5 9 -3 14q5 17 35 17q41 0 52.5 -3.5t8.5 -17.5q-3 -12 -32 -45q-3 -2 -20 -31l-45 -80l-28 -42l-17 -29q-5 -10 -16 -30.5
t-17 -31.5q-20 -36 -41 -55q-9 -10 -18 -10q-10 0 -12 11q-2 17 -5 51q-3 32 -9 53q0 6 -1 13q-1 19 -8 19q-3 -2 -17 -21q-37 -48 -59 -78q-3 -3 -8 -15q-12 -27 -24 -27t-15 23q0 1 -1.5 9t-3.5 15q-1 4 -3.5 19t-6 33.5t-7.5 38.5l-13 66l-6 39q-1 3 -3.5 13t-3.5 16
q-3 6 -9 17q-4 6 -5 10q-4 11 -6 18l-16 18q-2 4 -1 14q4 19 33 19q6 0 14 -1q28 -2 35 -2h60q9 -2 13 -5t3 -8q-1 -6 -33 -32q-9 -4 -6 -24l6 -36q1 -3 0 -31q-1 -12 7 -45q2 -7 8 -23q2 -6 2 -10q1 -18 8 -18q9 0 22 18q31 40 36 58q1 6 -8 65q-5 38 -12 44l-10 8
q-9 8 -6 22q5 18 24 18q1 0 11 -1t12 -1q8 0 10 1l21 2q4 0 9 -3.5t4 -6.5l-6 -14l5 -20q4 -22 11 -22q10 0 14 19q2 11 -4 18q-10 9 -9 12q2 9 11 11l11 2q17 3 27 3z" />
    <glyph glyph-name="x" unicode="x" horiz-adv-x="338" 
d="M99 359l10 -1l15 1l16 -2l23 1l17 -1l27 1q19 0 15 -15q-1 -5 -15 -25q-2 -1 -4 -7q-1 -5 7 -20q9 -15 11 -22q1 -18 6 -18q4 0 8 2l19 17l19 13l11 13q1 1 7 8.5l10 12.5q0 8 -2 28q3 14 21 13l25 -2l32 1q12 0 17.5 -3t3.5 -10q-1 -8 -8 -10l-21 -7q-10 -5 -23 -15
l-50 -50q-4 -3 -10 -9t-14.5 -14t-15.5 -15q-8 -10 -9 -12l6 -36l6 -16l2 -13q13 -23 15 -30t18 -33l13 -22q28 -27 30 -32q2 -6 1 -12q-3 -13 -13 -17q-12 0 -18 -1h-31l-27 2q-3 0 -6 -1h-17q-38 0 -35 13q2 3 19 25q9 9 10 16q2 13 -12 48t-24 35q-3 0 -20 -14l-15 -13
q-36 -24 -42 -55q-2 -8 7 -34q2 -6 0 -12q-1 -10 -19 -10q-7 0 -26 3t-26 3q-5 0 -6 -1h-16q-8 0 -11.5 3t-1.5 9q2 7 11 16q2 1 5.5 3.5t11 7.5t14.5 9q7 5 27 22q1 1 58 56q29 29 32 43q1 10 0 14l-14 27l-13 40q-2 6 -15 28l-16 34q-1 5 -18 15q-11 8 -9 15q1 10 17 12z
" />
    <glyph glyph-name="y" unicode="y" horiz-adv-x="343" 
d="M129 359l16 -2l37 -4q23 -2 37 -3q7 -4 5 -12q-1 -7 -21 -28q-3 -3 -4 -8v-53q-1 -5 -3 -33q-2 -14 6 -32q9 -56 18 -56q12 0 24 24q1 2 3 5t5 9t6 10l21 37q10 14 30 49q8 16 13 33q2 8 -10 45v8q3 12 20 12q10 0 12 -1q7 -1 19 -1l28 1q14 0 20 -4t4 -12q-1 -7 -27 -30
l-8 -13q-22 -28 -35 -59q-12 -26 -38 -63q-1 -1 -6.5 -10.5t-10.5 -18.5l-2 -3l-17 -27l-14 -27l-13 -27l-17 -25q-16 -39 -64 -102l-23 -30q-18 -25 -32 -51q-30 -46 -37 -54q-55 -67 -83 -71q-3 -1 -19 -1q-25 0 -21 22q3 12 14 20q7 7 38 15q22 6 74 91l34 54l11 22
q16 31 23 62q1 4 1 25v19l-2 20q0 25 -1 46q-3 3 -13 54q-3 23 -8 69q-1 20 -23 59q-4 7 -7 12.5t-5.5 9.5t-4 6.5t-2.5 3.5l-1 1q2 12 20 14q26 3 33 3z" />
    <glyph glyph-name="z" unicode="z" horiz-adv-x="320" 
d="M206 321q-31 0 -36 -1q-9 -1 -35 -13q-8 -5 -25 -23q-3 -3 -7 -3q-6 0 -6 14q0 62 24 62l51 -1l26 1q8 1 30 -3q4 0 22 -2h13l88 1q17 0 13 -17q-1 -8 -18 -25q-22 -20 -23 -24l-32 -46l-18 -20l-19 -25q-1 -2 -13.5 -18t-23.5 -30l-3 -4q-3 -4 -12 -14t-17 -20
q-9 -9 -28 -39q-14 -15 -16 -22q-2 -11 26 -11q3 0 26 3h31q27 0 58 30q22 20 25 20q10 0 6 -22q0 -1 -1 -4.5t-3 -9.5t-4 -13l-3 -14q-4 -18 -9 -22.5t-22 -4.5q-11 0 -14 1q-9 1 -24 1q-6 0 -26 -1.5t-26 -1.5q-17 1 -50 3h-1l-2.5 -0.5t-5.5 -0.5t-7.5 -0.5t-9.5 -0.5
q-3 0 -6 -1q-7 2 -27 3q-39 0 -40 1q-8 4 -7 13q5 19 27 45q2 2 20 24q2 4 36 32l17 17q1 2 3.5 6t6 9.5t6.5 9.5l3 4l2 2q2 3 6 7l9 9q2 3 9 15t13 21q24 22 52 64q2 3 13 20q1 4 -2.5 7t-11.5 4q-22 8 -28 8z" />
    <glyph glyph-name="braceleft" unicode="{" horiz-adv-x="296" 
d="M401 691q22 0 18 -22q-3 -14 -12 -14l-28 1q-1 0 -3 -1q-30 0 -44.5 -11t-29.5 -42q-20 -41 -24 -65q-4 -19 -7 -46l-14 -53q-6 -26 -10 -42q-11 -29 -41 -62q-17 -17 -26 -21q-32 -10 -34 -17q-1 -4 6 -7t22 -7q22 -4 27 -33q7 -37 5 -49l-4 -14l-4 -23l-8 -28
q-1 -2 -1 -6q-1 -11 -3 -27q-6 -26 -6 -45q-1 -8 -3 -25q-9 -68 27 -68h21q35 0 30 -21q-3 -14 -17 -12l-23 2l-21 -4h-6q-28 0 -50 8q-25 10 -41 32q-21 30 -15 51l16 56q4 19 13 49q2 6 4 15.5t3 12.5q14 72 1 106q-1 6 -17 23q-6 4 -4 15q3 11 23 24q34 22 49 79l12 49
q1 22 5 51q3 17 10 68q10 50 47 82.5t87 34.5q14 0 27 4h22z" />
    <glyph glyph-name="bar" unicode="|" 
d="M366 667h52l-177 -832h-52z" />
    <glyph glyph-name="braceright" unicode="}" horiz-adv-x="296" 
d="M30 -35h18q4 0 13 1t15 1q19 1 29 17q34 40 31 48l6 23q1 4 3 13t4 14l4 15l5 33l12 51q15 64 53 104q17 17 25 20q33 11 34 18q1 4 -6 7t-22 6q-22 4 -28 33q-8 38 -3 49l8 38l7 27v6q0 2 1 7t1.5 10.5t1.5 10.5q6 29 5 44q-2 2 3 25q7 49 -9 62q-11 8 -18 8l-33 1
l-10 -2q-12 0 -9 14q3 16 21 17l21 2l21 3l6 -1q20 -2 50 -7q26 -11 43 -35q19 -25 12 -49l-16 -57l-3 -20q0 -1 -1.5 -5t-3.5 -10t-4 -13q-13 -39 -16 -89q-1 -21 8 -45q3 -8 18 -23q5 -5 2 -16q-1 -8 -8 -14q-3 -1 -15 -9q-33 -20 -49 -80q-18 -65 -23 -150q1 -1 -2 -16
q-11 -51 -47.5 -82.5t-87.5 -33.5q-13 0 -28 -4l-22 -1q-4 0 -8.5 -0.5t-8.5 -0.5l-3 -1q-11 0 -16 4t-4 11q5 18 23 21z" />
    <glyph glyph-name="asciitilde" unicode="~" horiz-adv-x="667" 
d="M686 733l12 -8q-30 -39 -69 -64q-47 -32 -87 -32q-20 0 -60 14q-77 28 -110 28q-36 0 -74 -30q-16 -13 -31 -28l-12 9q82 97 158 97q27 0 81 -20t81 -20q54 0 111 54z" />
    <glyph glyph-name="exclamdown" unicode="&#xa1;" horiz-adv-x="214" 
d="M159 159l-9 -81q-3 -19 -11 -79q0 -1 0.5 -5.5t1 -13.5t0.5 -19q0 -34 -9 -88q-4 -24 -7.5 -47t-4.5 -32l-2 -9q1 -16 -21 -56q-17 -29 -67 -29q-30 0 -30 44q0 16 5 46q12 57 43 136l7 35l22 58q7 25 19 50l5 22l20 74q0 2 1.5 5.5t4 10.5t4.5 13v4t0.5 5t1 5t1 5
t1.5 4.5t2.5 4.5t3.5 3.5t5 2t6 0.5q16 0 18 -14zM197 397q17 0 34 -30q3 -8 -1 -23q-11 -47 -47 -47q-1 0 -26 11q-11 4 -24 12q-6 11 -2 29q11 48 66 48z" />
    <glyph glyph-name="cent" unicode="&#xa2;" horiz-adv-x="339" 
d="M333 605q10 0 14.5 -3t2.5 -8l-3 -12l-5 -19l-7 -18q-1 -1 5 -15q3 -7 14 -9q61 -16 61 -55q0 -16 -10.5 -30t-25.5 -14q-35 0 -42 24q-4 10 -8 10q-14 0 -17 -13l-13 -72q-4 -9 -9 -28l-13 -66q-7 -13 -21 -45q-5 -26 5 -38q5 -5 10 -5q33 0 59 15q13 7 19 7t4 -5
q-2 -4 -15 -14q-33 -24 -77 -44l-11 -2l-10 -3l-3 -36l-1 -5q0 -1 -2.5 -7.5t-4.5 -11.5l-5 -32q-1 -4 -10.5 -9.5t-14.5 -5.5q-9 0 -11 9q-1 3 2 24v17q0 1 1.5 4t3.5 8t5 11l1 13q1 23 -1 26.5t-22 8.5q-44 20 -64 62q-1 2 -3.5 8t-5.5 12.5t-6 14.5q-1 8 0 39q2 26 3 55
q14 63 66 111q48 45 74 51l45 10q12 3 18 32q2 9 5 36v6q3 11 23 11zM272 484q-20 0 -44 -24q-24 -26 -31 -46q-8 -22 -12 -43q-4 -12 -4 -24l-4 -18q-1 -3 2 -16q7 -18 10 -44q15 -53 24 -53q12 0 17 23l4 19l10 41l22 93q7 14 10 33l5 24q5 23 3 28q-1 7 -12 7z" />
    <glyph glyph-name="sterling" unicode="&#xa3;" horiz-adv-x="490" 
d="M184 351q20 5 21 15q2 9 -14 41q-2 4 -17 51l-5 20q-3 10 0 24q9 44 25 68q4 8 20 25q9 9 28 24l1 1q1 2 2.5 3.5t3.5 2.5q26 24 34 27q2 2 17 7l15 7q18 9 48 9q28 0 37 -4l51 -20q61 -17 65 -21q2 -5 3 -30l-9 -55v-27l-6 -26q0 -1 -0.5 -9t-2.5 -16q-3 -16 -17 -16
q-12 0 -13 10q-1 1 1 17q-1 6 -5 25q-1 12 -4 35q-1 5 -12 21q-12 20 -16.5 26t-13.5 14.5t-23 15.5q-7 2 -29 15q-10 6 -19 6q-32 0 -66 -23q-32 -22 -40 -54q-5 -22 1 -38q0 -1 1.5 -3.5t3 -6t3.5 -7.5q24 -56 52 -84q7 -5 11 -25l7 -13q11 -17 15 -22q10 -10 38 -10l2 1
q2 0 6 0.5t9 0.5l24 -1l15 1q8 1 11 -4t1 -15q-2 -11 -7 -17t-12 -5l-11 1l-27 -1h-21q-20 -6 -19 -46q0 -4 -1 -6l-10 -24l-8 -35l-7 -18l-3 -11l-6 -10q-16 -33 -21 -56q-3 -12 6 -18q12 -3 36 -8q17 -6 26 -6q24 0 38 13q10 7 38 40q2 2 15 28l13 26q1 1 8 26q9 35 26 35
q11 0 13 -11q5 -12 -10 -49q-4 -8 -10.5 -24.5t-9.5 -22.5l-4 -10l-6 -14q-28 -67 -80 -94q-27 -19 -36 -22q-16 -9 -44 -9q-9 2 -32 9q-19 4 -23 5q-9 4 -26 17q-10 7 -23 7q-7 0 -13 -3l-18 -14q-19 -15 -63 -15q-11 2 -24 7q-3 1 -23 4q-3 1 -10 8q-13 13 -18 37
q-11 50 39 98q32 30 65 30q3 0 16 -1.5t15 -1.5q24 -5 41 -26q9 -10 28 -10q21 0 33 26q9 21 9 45q0 42 -31 88q-14 20 -17 20q-13 -1 -25 -2.5t-18 -1.5l-5 -1q-5 0 -20 3t-20 3q-1 -1 -3 -1q-2 -1 -3 -1q-12 -3 -20 -3q-13 0 -9 18q4 25 34 25q15 0 38 -4zM126 131
q-13 0 -21 -7q-3 -3 -15 -23q-14 -22 -15 -25q-2 -12 2 -18q17 -29 59 -29q41 0 47 29q4 18 -10 42q-11 17 -17 21q-13 10 -30 10z" />
    <glyph glyph-name="currency" unicode="&#xa4;" horiz-adv-x="461" 
d="M354 208q-4 0 -32 -15q-22 -12 -39 -12q-48 0 -83 21q-8 5 -12 5q-8 0 -24 -16q-28 -25 -39 -25q-7 0 -5 9l3 11q1 8 0 9l-5 7q-2 2 2 21q2 3 11 10q18 14 20 25q2 6 -6 20q-11 24 -1 69q3 16 22 45q8 12 9 19t-7 23q-8 18 -7 22q1 6 6 11l12 10q18 19 24 19q10 0 18 -14
q11 -18 20 -18q7 0 15 4q50 21 98 21q9 0 45 -11q8 -2 9 -2q5 0 15 5l34 23q1 1 4 1q11 0 17 -11t4 -21q-3 -12 -21 -31q-1 -1 -7 -9q-1 -4 5 -23q7 -22 0 -57q-12 -57 -37 -89q-3 -4 -5 -12q-2 -5 4 -12q12 -13 10 -24q-2 -10 -17.5 -22t-25.5 -12q-4 0 -17 16
q-7 10 -17 10zM327 432q-20 0 -47 -13q-15 -7 -20 -12q-40 -41 -43 -51q-10 -16 -11 -25q-3 -15 5 -47q13 -45 69 -45q8 0 50 20q15 7 26 16l15 17q19 18 24 36q-2 10 5 48q-3 25 -28 44q-15 12 -45 12z" />
    <glyph glyph-name="yen" unicode="&#xa5;" horiz-adv-x="506" 
d="M262 382h-22h-2q-3 -1 -7 -1.5t-9 -0.5l-25 1l-16 -1q-9 -1 -12 4t-1 15q5 26 20 24l13 -1l26 1l23 -1q10 3 12 12q4 16 -21 76q-21 51 -43 82l-15 20l-12 13q-15 11 -23 19q-5 5 -3 10q2 4 7 8l39 3l34 3q9 0 29 -4q17 3 29 3h8q2 0 14 -1.5t14 -1.5h10q29 0 26 -16
q-1 -7 -9 -13l-20 -17q-9 -8 -12 -21q-4 -18 18 -63q5 -11 11 -32q8 -25 14 -37q13 -36 15 -36q4 3 34 33l37 49l16 14l19 27q16 22 18 27q4 16 -5 32q-3 6 -7 13q-2 4 -15 14q-4 4 -3 10q3 16 33 16h9q6 0 13.5 -0.5t12.5 -1.5h5q3 0 16 2t18 2q15 0 39 -4q28 -4 25 -18
q-1 -6 -7 -12q-4 -4 -39 -21q-19 -10 -43 -33l-26 -24q-6 -5 -34 -43l-19 -22l-10 -15q-35 -44 -36 -45q0 -3 3 -6l24 1q2 -1 6 -2q15 -5 22 -5q5 0 8 1q20 5 21 5q14 0 10 -19q-6 -28 -37 -28l-17 2l-8 1q-5 0 -21 1.5t-20 1.5q-22 0 -30 -14q-10 -24 -12 -35
q-2 -8 5.5 -12t24.5 -4q8 0 34 2l25 -1l15 1q7 1 10 -3.5t1 -13.5q-1 -7 -7 -14q-2 -5 -4.5 -8t-3.5 -2l-27 2l-14 -2h-9q-10 0 -13 1q-8 0 -15.5 0.5t-11.5 1t-5 0.5q-16 0 -22 -27q0 -3 -1 -9.5t-1.5 -13t-1.5 -13.5l-8 -29l-19 -81q-6 -24 -1 -44q5 -18 23 -36
q12 -12 11 -23q-2 -8 -8 -6l-29 1q-1 -1 -36 -1l-4 1h-8.5h-10.5h-2q-22 -2 -31 -2q-7 0 -10 1q-10 1 -19 1l-12 -1h-23q-22 0 -21 9q1 8 7 12l25 10q11 7 36 34q25 23 26 36q1 3 0 4l3 18l12 45q0 2 2.5 11.5t4.5 16.5q3 10 9 31.5t9 32.5q0 1 1 3t2 4.5t1 4.5q2 11 -11 11
q-2 -1 -32 -4h-6q-13 0 -19 1l-21 -2l-8 6l-22 -5q-12 0 -7 18q5 26 35 26q6 0 34 -2q25 -3 34 -3q28 -1 33 20q3 15 -1 30q-1 8 -3 10q-8 5 -25 5z" />
    <glyph glyph-name="brokenbar" unicode="&#xa6;" 
d="M366 667h52l-71 -334h-52zM257 153h52l-68 -318h-52z" />
    <glyph glyph-name="section" unicode="&#xa7;" 
d="M125 111q25 0 39 -36q6 -15 4 -30q-2 -7 -23 -36q-9 -12 -10 -21q-2 -12 6.5 -20.5t28.5 -12.5l57 -6l26 -3q14 0 45 17q15 9 21 15q1 2 18 22q19 18 21 24l5 26l7 23q1 3 1 8q0 24 -47 36q-11 3 -37 18l-76 26l-16 7l-13 7q-19 8 -22 10q-6 4 -18 16q-12 9 -22 28
q-4 14 4 63l4 22q4 21 15 35q1 1 4 3.5t8 7.5t10 9q53 47 55 55t-10 21q-33 35 -33 60t39 82q15 23 41 46q17 10 36 22l30 19q39 20 58 16l30 -3q14 -1 46 -10q36 -7 46 -14q16 -10 34 -50q8 -18 4 -35q-7 -31 -12 -37q-7 -7 -25 -26q-14 -13 -34 -13q-13 0 -25 18.5
t-12 34.5q0 7 2 21q2 5 23 32q2 3 4 7q1 6 -13 17t-19 11h-12l-29 1q-66 -6 -90 -33q-27 -30 -35 -67q-11 -51 43 -61q21 -5 37 -9q16 -12 56 -31l33 -11q28 -4 33 -8q28 -17 32 -27q22 -40 22 -69q0 -34 -28 -81q-10 -16 -18 -22q-10 -10 -45 -38q-3 -2 -5 -10q-1 -3 0 -7
l17 -28q5 -10 8 -32q1 -24 0 -36q-13 -64 -69 -114l-21 -16q-20 -17 -37 -25q-8 -5 -47 -16q-10 -3 -35 -5q-18 -6 -22 -6q-18 0 -72 16q-3 0 -24 7q-6 5 -33 21q-17 11 -23 19t-13 27q-11 34 12 81q23 48 60 48zM276 397q-8 0 -39 -25q-4 -2 -19 -27q-13 -20 -16 -28
q-2 -14 -2 -20q0 -49 57 -60q4 0 25 -8q33 -14 35 -14q10 -2 26 -9q5 -3 14 -3q23 0 40 15q9 9 22 32q21 32 22 38q6 29 -18 52q-5 6 -32 12q-10 5 -23 13q-5 3 -26 8q-8 1 -42 19z" />
    <glyph glyph-name="dieresis" unicode="&#xa8;" 
d="M292 497q8 0 21 -11q3 -3 3 -15q1 -21 0 -22q-3 -17 -18 -29q-7 -7 -17 -7q-39 0 -40 28q-1 7 -1 17q4 19 13 26q16 13 39 13zM403 496q18 0 30 -13t8 -30q-3 -14 -29 -34q-16 -11 -21 -11q-19 0 -34 17q-4 4 -2 21v14q3 14 20 28q10 8 28 8z" />
    <glyph glyph-name="copyright" unicode="&#xa9;" horiz-adv-x="754" 
d="M528 686q168 0 227 -117q8 -18 25 -65q13 -37 17 -82q1 -20 0 -45q0 -3 -3 -19.5t-5 -30.5q0 -2 -1.5 -9t-2.5 -11q-8 -38 -34 -85q-12 -22 -24 -37q-51 -62 -81 -93q-63 -50 -132 -77q-46 -16 -68 -21q-19 0 -53 -3q-35 -3 -51 -3q-46 0 -80 12q-24 8 -50 31
q-3 3 -28 21q-3 3 -17.5 19t-25.5 28l-9 17l-12 30q-10 22 -21 44q1 5 -2 28q-5 38 -4 39q0 2 4 25l4 40q0 1 1.5 5.5t4 13t5.5 17.5l8 46q4 30 34 71l29 40q7 9 18 20l12 11l13 13l19 16q19 19 35 31q22 17 38 26q98 54 210 54zM485 640q-15 0 -30 -5q-7 -3 -35.5 -13.5
t-41.5 -15.5q-11 -6 -75 -52q-15 -12 -44 -42q-29 -31 -40 -46q-7 -10 -17 -28l-9 -18l-12 -43q-15 -23 -16 -29q-1 -2 -10 -84q-1 -16 3 -54q1 -9 4 -27.5t4 -28.5q1 -4 32 -36q14 -24 18 -27q1 -1 5 -3.5t11.5 -7t14.5 -9.5q18 -10 35 -22q27 -11 40 -12l72 -4q37 0 60 5
q16 4 38 16q24 10 68 30q14 6 36 30q3 3 6 5l5 4q28 24 64 63q20 21 27 34q6 10 11 28l3 7q2 8 11 34q7 15 7 43q0 20 2 30q6 27 6 40q1 10 -1 33q-3 35 -21 72q-1 3 -5 10t-6 11q-2 5 -29 37q-2 2 -32 35l-13 13q-3 4 -53 16zM489 545q60 0 108 -30q11 -7 20 -10
q11 -4 4 -46q-1 -3 -4.5 -18.5t-7 -23.5t-9.5 -8q-8 0 -13 24q-2 4 -4.5 10t-3.5 9t-2 5l-1 1q-3 4 -24 21q-7 7 -29 21q-13 9 -50 9q-4 0 -19 -5q-20 -5 -46 -22q-2 -1 -8.5 -4.5t-11.5 -6.5q-14 -11 -34 -34q-23 -30 -26 -40l-5 -28l-14 -28l-2 -28l-7 -19v-12l-5 -19
q-2 -8 9 -41q19 -58 87 -58h32q1 0 5.5 0.5t13 1t17.5 0.5q5 1 19 3q34 19 45 39q4 5 17 18q3 3 5 8q7 16 17 16q12 0 8 -18l-6 -31l-5 -16q-6 -25 -19 -32q-31 -14 -38 -17l-20 -6q-29 -8 -38 -8h-41l-10 1l-20 -1q-26 -1 -74 37q-23 18 -35 33q-26 34 -34 79q-4 20 5 65
l3 13l3 10q20 62 48 86q2 2 8 7.5t10 9.5l22 26q13 16 97 46q31 11 63 11z" />
    <glyph glyph-name="ordfeminine" unicode="&#xaa;" horiz-adv-x="300" 
d="M236 456q-7 0 -8 -1l-13 -11q-23 -14 -27 -14q-16 0 -11 17q5 25 42 35l9 4q8 4 27 4q26 0 43 -15.5t12 -38.5q-6 -21 -11 -44l-13 -61q-5 -15 26 -32q-7 -11 -23 -24q-19 -14 -29 -14q-5 0 -10 2.5t-10.5 7t-8.5 6.5q-1 -1 -15 -7q-15 -9 -40 -9q-50 0 -50 43q0 5 2 15
q4 23 12 34q15 18 53 35q17 3 54 22q12 10 13 16q0 6 -7 21q-5 9 -17 9zM248 387q-4 5 -44 -29q-19 -16 -23 -32q-3 -14 12 -21q12 -5 20 -5q19 0 26 27q3 12 11 38q4 19 -2 22z" />
    <glyph glyph-name="guillemotleft" unicode="&#xab;" horiz-adv-x="333" 
d="M363 335q10 0 9 -10q-13 -17 -24 -35l-4 -4q-5 -5 -14 -15t-20 -21l-18 -19q-34 -28 -37 -43q-1 -7 6 -26q5 -19 17.5 -42t14.5 -31q0 -1 1.5 -5t3.5 -8q8 -24 7 -31q-3 -14 -17 -14q-11 0 -17 19q-4 4 -27 35q-10 17 -45 65q-13 16 -9 40q1 4 19 25q5 7 18 21l32 24
q8 8 17 17.5t13 13t5 4.5t23 14l18 15q15 12 28 11zM264 354q10 0 9 -10q0 -1 -1.5 -2.5t-4 -4.5t-4.5 -6l-8 -20q-2 -5 -29 -29q-10 -13 -20 -25l-8 -9l-15 -16l-17 -15q-18 -16 -19 -25q-1 -6 11 -23q6 -7 11 -30l4 -13l4 -16q3 -3 11 -15q20 -29 16 -50q-4 -15 -19 -15
q-3 0 -18 12l-14 11q-5 5 -14 30q-1 1 -3 4.5t-5.5 9.5t-7.5 12l-12 21q-11 8 -26 29q-13 9 -16 15t0 14q3 13 32 34q18 18 50 43t48 41l18 13q18 13 38 30q8 5 9 5z" />
    <glyph glyph-name="logicalnot" unicode="&#xac;" 
d="M372 0l48 227h-336l9 40h428l-57 -267h-92z" />
    <glyph glyph-name="sfthyphen" unicode="&#xad;" horiz-adv-x="198" 
d="M63 226l20 -1h17l16 -2q4 0 14.5 2.5t12.5 2.5q4 0 22.5 -1.5t20.5 -1.5t18 2t19 2q14 0 20 -12q3 -5 2 -8l-8 -16q-7 -26 -9 -28q-6 -8 -12 -8q-2 0 -15.5 2.5t-17.5 2.5q-13 0 -27 -3q0 -1 -3 -1t-4 -1l-27 4l-19 -3l-16 2l-21 -3l-12 -1q-1 -1 -8 -1q-12 0 -11 12
l18 53q1 4 10 6z" />
    <glyph glyph-name="registered" unicode="&#xae;" horiz-adv-x="766" 
d="M509 684q40 0 115 -25q58 -19 103 -59q4 -7 26 -32q33 -36 43 -75q8 -27 9 -88q0 -4 0.5 -10.5t1 -17t0.5 -18.5q0 -9 -3 -23q-13 -64 -51 -127q-27 -45 -46 -69q-3 -2 -37 -34q-92 -86 -148 -102q-8 -2 -45 -6q-4 0 -9.5 -1.5t-14.5 -3l-15 -2.5q-14 -3 -35 -3l-27 -3
l-30 4l-32 8q-1 0 -6.5 1t-18.5 3t-25 4q-2 2 -23 15q-14 6 -34 19q-3 5 -13 16q-3 3 -8.5 8t-9.5 9.5t-8 8.5q-4 3 -18 27q-20 21 -33 39q-13 23 -19 78l-4 34l4 24l2 17l12 72q4 29 43 89q58 91 172 169q79 54 182 54zM402 35l29 -3q17 0 94 24q16 4 43 22q39 28 64 49
q41 34 49 45q2 3 22.5 40.5t32.5 59.5q7 12 8 20q0 1 2 23l2 11q4 20 9 81q1 28 -1.5 37t-12.5 24l-2 7q-3 5 -16 29q-7 14 -26 25q-8 4 -23 23q-18 22 -29 30q-9 6 -18 11q-30 17 -72 25q-2 0 -5 0.5l-9 1.5t-10 2q-2 1 -11 1q-34 0 -70 -3l-26 -2q-17 0 -19 -1
q-7 -1 -58 -28q-1 -1 -9 -6.5t-18.5 -13t-21.5 -15.5q-29 -20 -47 -34q-5 -5 -27 -37q-30 -48 -31 -50q-6 -13 -18 -51q-11 -36 -12 -41q-3 -20 -4 -49q-1 -39 0 -48q0 -2 1.5 -5.5t3.5 -10.5t3 -12l4 -17l22 -32q5 -24 9 -28q11 -15 52 -53q16 -14 55 -34q41 -21 45 -21z
M516 326q14 -13 16 -42q0 -4 5 -26v-31q-2 -19 1 -32q1 -6 9 -8l12 -2q16 -1 13 -17q-1 -9 -17 -17q-1 -1 -6 -3t-9 -4q-36 -16 -47 -16q-9 0 -13 10q0 2 -3 18q-5 26 -3 48l-1 22l1 29v15q1 19 -6 28q-15 23 -41 23q-13 0 -20 -15q-1 -1 -6 -22l-6 -20l-5 -18l-6 -19
q-1 -9 -3 -28q-2 -22 2 -28q7 -4 20 -11q10 -5 8 -15q-1 -9 -13 -11l-21 -2l-20 1h-13q-20 3 -21 3t-14 -2t-16 -2q-11 0 -16 3.5t-3 10.5q1 5 7 11l18 11q18 20 20 23l1 7q2 7 6.5 24.5t9.5 35.5l6 24q1 5 3 11q1 4 2.5 12.5t3 17.5t2.5 18l7 24q4 17 5 31q1 3 4 23l2 9
q5 25 5 49q1 13 0 16q0 3 -10 11t-8 14q2 9 8 11.5t31 3.5q10 0 19 1h9q3 0 17 -1.5t16 -1.5q4 0 7 1q4 0 8 0.5t6 1.5h2q10 0 66 -8q12 -1 35 -28q7 -7 15 -41q7 -15 2 -36q-14 -63 -83 -95zM438 349h22q24 0 46.5 22.5t27.5 48.5l2 16q-2 13 -1 15q1 11 -3 15q-4 1 -12 14
q-16 22 -27 24q-6 0 -26 -4q-12 -2 -13 -6q-17 -22 -19 -34l-2 -18l-4 -13l-2 -10q0 -5 -1 -11q0 -4 -1 -7l-7 -27q0 -8 -1 -14q-1 -5 4.5 -8t16.5 -3z" />
    <glyph glyph-name="macron" unicode="&#xaf;" 
d="M277 482h8q4 -1 7 -1h11q1 0 9 -1t9 -1q6 0 8 1q13 3 17 3q3 0 16.5 -2.5t17.5 -2.5t14 2t18 4l9 2q11 0 19 -11q2 -5 1 -8t-15 -39q-4 -6 -10 -6q-4 0 -14.5 2t-13.5 2q-18 0 -28 -3q-1 -1 -4 -1l-29 3l-5 -1q-2 0 -5 -1q-1 -1 -2 -1t-9 1t-10 1l-18 -2l-20 -2
q-11 0 -8 11q0 4 7 22l3 15q3 14 17 14z" />
    <glyph glyph-name="degree" unicode="&#xb0;" horiz-adv-x="461" 
d="M425 458q-25 -22 -62 -33q-21 -6 -30 -6q-77 0 -100 35q-3 7 -9.5 26t-10.5 31q-5 11 -2 24q7 36 18 51q9 16 27 34q58 61 124 61q15 0 34 -11q22 -7 31 -18q23 -32 24 -71q2 -36 -2 -49q-5 -22 -26 -52q-5 -7 -16 -22zM355 626q-15 0 -42 -13q-41 -20 -51 -65
q-2 -6 9 -38q4 -13 9 -19l11 -9q11 -10 15 -12q2 0 5 -0.5t4.5 -1t2.5 -0.5l23 3q23 1 27 5q45 29 53 67q8 32 -9 52q-1 0 -14 11q-26 20 -43 20z" />
    <glyph glyph-name="plusminus" unicode="&#xb1;" horiz-adv-x="461" 
d="M255 302l-28 -1q-25 3 -27 3q-10 0 -20 -1l-13 -1l-37 -3q-16 -1 -23 4.5t-5 16.5q7 32 21 37q7 2 47 4q8 0 17 1h10q7 0 11 -1q18 -2 22 -2q46 0 51 23q0 4 3 23l2 10q0 2 4 13.5t4 13.5t1 19.5t2 19.5q5 23 15 32q8 6 18 6q31 0 32 -13q-2 -3 -3 -16l-4 -34
q-5 -15 -9 -39q-9 -41 0 -52q4 -7 18 -7q6 0 23 3.5t23 3.5q2 0 13.5 -1.5t14.5 -1.5q5 0 38 3h13q16 0 12 -16q0 -1 -1.5 -6.5t-3.5 -10.5l-3 -13q-2 -12 -23 -13q-16 -3 -33 -3q-1 0 -3.5 0.5t-7.5 1t-11 0.5q-3 1 -10 1h-8q-6 -1 -20 -1h-6l-24 2q-22 0 -26 -31l-5 -30
l-6 -33l-1 -20l-8 -25q-6 -19 -20 -17l-14 1l-21 -3q-11 0 -7 25l1 6l10 36l5 38l8 18l3 9q3 16 -11 21zM123 101q2 0 14.5 -1t13.5 -1q16 0 26 1q3 1 13 1q13 0 42 -4q6 1 26 1q6 0 30 -1t32 -1h12q17 -4 29 -4h13q7 0 21.5 1t16.5 1q12 0 16.5 -3t2.5 -10l-5 -15
q-4 -20 -11 -26t-28 -5q-1 0 -8 -0.5t-17.5 -1t-17.5 -0.5h-11q-18 2 -31 2q-32 0 -91 4q-8 1 -19 1q-12 0 -35 -3h-3l-47 2q-6 0 -12.5 -0.5t-10 -1t-4.5 -0.5q-13 0 -18 3t-3 10l6 20l3 18q3 8 17 10q1 1 38 3z" />
    <glyph glyph-name="twosuperior" unicode="&#xb2;" horiz-adv-x="300" 
d="M237 333l24 -2q14 -1 29 10q21 16 24 17q4 0 6.5 -6.5t1.5 -10.5q-2 -9 -7 -21l-1 -3q-2 -3 -4.5 -10t-5.5 -14q-10 -28 -28 -28q-2 0 -17 1t-17 1q-10 0 -15 -1h-10q-26 0 -35 -1q-3 -1 -17 -1q-7 0 -27 3l-35 -3q-9 -1 -12.5 3.5t-1.5 13.5q3 17 55 69q18 18 44 43
l11 11q3 3 47 45l22 22q42 53 51 93q2 8 0 32q-1 7 -7 11q-26 20 -32 18l-21 -5q-30 -3 -55 -19q-4 -2 -7 -2q-9 0 -8 10q3 11 28 36q32 32 71 32q19 0 41 -2q9 -3 18 -8l8 -5q33 -19 35 -51q2 -54 -31 -103l-17 -18l-25 -25l-10 -8q-4 -3 -31 -26l-45 -39l-20 -19l-17 -17
q-2 -3 -4 -7q-3 -17 13 -17q8 0 12 1h22z" />
    <glyph glyph-name="threesuperior" unicode="&#xb3;" horiz-adv-x="300" 
d="M132 381q12 0 26 -18q8 -11 5 -21l-8 -27q-4 -6 12 -16t23 -10l32 8l9 8l8 7l20 20l6 10q11 11 17 18q9 31 8 52q-1 4 -13 20q-16 20 -25 29q-1 0 -8 1.5t-13 3.5q-15 4 -13 16q3 11 16 17q12 3 25 7q9 4 14 10q9 9 17 18q19 27 22 42q6 28 -12 45q-16 14 -37 14
q-28 0 -43 -9q-12 -5 -15 -5q-10 0 -7 12q5 21 38 35q27 11 40 11q16 0 45 -15q30 -14 40 -27q23 -26 17 -48l-4 -16q-8 -39 -61 -75q-12 -8 -12 -11q-1 -3 7 -11q38 -35 38 -74q0 -6 -2 -18q-8 -38 -14 -51q-17 -34 -42 -47q-9 -4 -30 -12l-9 -4l-19 -7l-10 -4
q-46 -6 -50 -6q-20 1 -51 36q-21 23 -21 46q0 46 34 46z" />
    <glyph glyph-name="acute" unicode="&#xb4;" 
d="M437 510q25 0 25 -20q0 -26 -27 -42q-16 -10 -29 -11l-18 -2q-12 -3 -25 -7q-2 -1 -6 -2t-8 -2.5t-13.5 -5.5t-21.5 -9q-1 -1 -2 -1q-10 0 -8 9q2 6 27 21q4 2 55 43q37 29 51 29z" />
    <glyph glyph-name="paragraph" unicode="&#xb6;" horiz-adv-x="520" 
d="M200 -132q-1 0 -4.5 -0.5t-9.5 -1t-12 -0.5l-16 -2q-7 0 -10.5 2t-2.5 7q2 8 17 16q52 30 67 102q4 22 21 107l7 32q3 19 10 39l7 20l9 59v19q1 5 1 10q-2 12 -15 11l-25 -1l-32 3h-7q-26 9 -52 27q-4 4 -7 7.5t-5 5.5l-2 2l-7 18q-14 23 -14 58q0 22 6 47l3 14
q8 33 19 52l12 19l7 58q0 8 91 42q1 0 5 2l12 6t17 8q47 14 88 14l62 -2l49 3l55 -3q32 4 49 4q22 0 31.5 -6t7.5 -19q-1 -7 -14 -15q-20 -13 -28 -26q-15 -27 -40 -142q-5 -32 -15 -83l-6 -27q-10 -51 -21 -85q-2 -6 -6 -29q-1 -5 -3 -15.5t-6.5 -31.5t-7.5 -38
q-11 -46 -20 -91l-2 -9q-3 -11 -3 -33l-10 -49l-2 -17l6 -21q1 -5 14 -32q8 -9 7 -19q-2 -9 -5.5 -13t-7.5 -3l-28 1q-1 -1 -4 -1q-14 -3 -26 -3q-4 0 -8 1h-2q-3 1 -7.5 1.5t-9.5 0.5q-25 3 -30 11q-8 17 0 55q1 6 5.5 22.5t7.5 28.5q0 3 21 75q3 6 9 46q5 30 6 35
q7 30 26 102l4 16l8 59l9 32q0 4 3 20l21 102q2 10 2 12q1 10 6 51q1 4 4 23t6 35q-1 18 -7 18q-25 0 -40 -64q-2 -6 -6 -21.5t-7 -25.5q0 -1 -1.5 -10t-3.5 -16q-3 -19 -5 -25q-11 -41 -17 -67l-19 -81l-2 -18l-1 -11l-1 -6q-12 -46 -26 -110q-4 -30 -44 -169l-3 -8
l-11 -60q-5 -23 -20.5 -37t-36.5 -14h-34z" />
    <glyph glyph-name="periodcentered" unicode="&#xb7;" horiz-adv-x="200" 
d="M134 238h2q1 -1 7 -3l12 -4q1 0 9 -1.5t15 -3.5q15 -9 8 -42q-4 -19 -16 -28q-6 -6 -30 -15q-7 -3 -15 -3q-14 0 -31 20q-11 13 -4 44q3 14 15.5 25t27.5 11z" />
    <glyph glyph-name="cedilla" unicode="&#xb8;" horiz-adv-x="499" 
d="M207 -65q2 0 10 -11q7 -14 9 -15q15 -5 22 -5q15 0 20 17q3 16 -2 19l-24 15q-5 2 -3 7l5 20q5 19 6 20q8 9 18 9t14.5 -3t2.5 -8l-4 -19l15 -8q10 -5 14 -21q2 -6 2 -8l-9 -21l-3 -14q0 -9 -12 -18q-32 -23 -48 -23q-26 0 -35 4.5t-19 21.5q-7 9 -4 21q1 7 9.5 13.5
t15.5 6.5z" />
    <glyph glyph-name="onesuperior" unicode="&#xb9;" horiz-adv-x="300" 
d="M263 389q0 -4 -7 -35l-1 -14q-1 -9 -3 -23q1 -1 7 -15q5 -12 4 -16q-2 -7 -9.5 -13t-12.5 -6l-35 1q-2 0 -12 -1t-12 -1q-26 0 -23 16q1 10 27 39q1 4 16 59l6 19q6 21 10 42q0 1 0.5 3.5t1 6t0.5 6.5l2 7q1 5 18 78l4 14q2 23 5 40q1 13 -2 20q-7 4 -23 17q-3 1 -2 10
q2 11 32 20q4 1 24 8q26 10 39 10q16 0 12 -19q0 -2 -2.5 -11t-4.5 -16l-15 -71l-31 -112z" />
    <glyph glyph-name="ordmasculine" unicode="&#xba;" horiz-adv-x="300" 
d="M245 267q-23 -5 -31 -5q-44 0 -76 28q-38 32 -29 72l3 14q7 35 13 45q24 30 38 38q48 30 96 30q54 0 73 -31q3 -4 16 -26q17 -44 -36 -118q-15 -19 -67 -47zM230 458q-11 0 -18 -4q-22 -13 -33 -29q-7 -10 -12 -29l-7 -33q0 -7 3 -23q1 -8 6 -22q6 -6 21 -14q17 -8 17 -9
l9 1q36 4 58 43q10 16 15 40q1 7 -2 30q-5 30 -16 39.5t-41 9.5z" />
    <glyph glyph-name="guillemotright" unicode="&#xbb;" horiz-adv-x="333" 
d="M125 353q13 0 17 -19q1 -3 27 -35q2 -3 46 -70q11 -17 7 -35q-2 -6 -18 -25q-8 -10 -19 -21q-4 -4 -32 -24q-24 -24 -34 -35q-7 -5 -23 -14q-22 -19 -27 -21q-15 -5 -21 -5q-10 0 -7 11q14 21 24 34q8 10 38 41l18 18q33 28 37 43q2 11 -8 35q-9 23 -17 34q-10 15 -13 30
q-1 1 -6 13q-7 19 -5 30q3 15 16 15zM227 354q4 0 19 -12l13 -11q5 -5 15 -30q6 -8 15 -26l13 -22q12 -9 26 -28q14 -11 15 -15q3 -4 0 -15q-2 -9 -8 -15q-5 -3 -24 -18q-14 -15 -32 -28q-32 -23 -65 -56l-17 -13q-13 -11 -39 -30q-7 -5 -10 -5q-11 0 -8 10q6 8 9 13l9 20
q4 11 18 21q2 2 12 8l19 24l9 10l13 16l17 15q19 15 20 24l-11 24q-8 19 -11 30l-9 28l-11 16q-20 30 -15 50q3 15 18 15z" />
    <glyph glyph-name="onequarter" unicode="&#xbc;" horiz-adv-x="675" 
d="M263 389q0 -4 -7 -35l-1 -14q-1 -9 -3 -23q1 -1 7 -15q5 -12 4 -16q-2 -7 -9.5 -13t-12.5 -6l-35 1q-2 0 -12 -1t-12 -1q-26 0 -23 16q1 10 27 39q1 4 16 59l6 19q6 21 10 42q0 1 0.5 3.5t1 6t0.5 6.5l2 7q1 5 18 78l4 14q2 23 5 40q1 13 -2 20q-7 4 -23 17q-3 1 -2 10
q2 11 32 20q4 1 24 8q26 10 39 10q16 0 12 -19q0 -2 -2.5 -11t-4.5 -16l-15 -71l-31 -112zM672 684q11 0 16 -4t4 -11q-2 -9 -7 -13l-88 -111q-22 -34 -52 -69q-3 -3 -12 -14.5t-25.5 -32.5t-33.5 -43q-2 -2 -6 -8t-7 -9l-18 -17q-4 -4 -15 -22q-8 -13 -13 -19
q-47 -63 -61 -87q-9 -14 -21 -26l-37 -33l-9 -14q-8 -12 -19 -27q-13 -12 -32 -41q-15 -15 -40 -42q-30 -36 -47 -54q-5 -3 -12 -3q-14 0 -20 4t-4 12q1 2 8 9q0 1 6 8t11 15q6 11 31 40q10 12 36 38l19 27l41 51l9 12l14 18q21 21 80 99q8 13 27 32l17 25l34 38l22 32
q26 30 46 54q22 33 48 71q5 6 16 17q7 12 36 49q37 49 58 49zM553 171h-2q-5 -1 -19 -1h-46l-28 1q-31 1 -28 18q2 10 60 61q7 7 65 55l10 8l15 15q12 10 27 25l16 13q8 8 17 16l12 11l7 7q10 13 22 13q16 0 11 -17l-1 -7q-1 -3 -7 -27l-2 -14l-5 -24l-16 -70q1 -9 -6 -30
l-3 -6q-2 -4 1 -7l9 -10q2 -2 0 -10q0 -1 -1 -4t-1 -3.5t-1 -3t-2 -3.5t-2.5 -3t-3.5 -3.5t-5 -4t-7 -4.5q-1 -1 -1 -3q-1 -2 -1 -3l-26 -122q-7 -33 -28 -33q-10 -2 -17 -0.5t-10.5 1.5t-6.5 2.5t-3.5 3.5t-1.5 4t-2 4q4 9 16 50q0 18 2 28q2 11 12 45l1 7q1 3 4 10
q1 15 -24 15zM504 216q2 -1 7 -1q11 -3 14 -3q9 0 16 4l36 -5q11 0 12 4q1 1 16 46l9 40q2 11 3 18q-15 -11 -51 -39q-5 -4 -21 -20q-29 -33 -41 -44z" />
    <glyph glyph-name="onehalf" unicode="&#xbd;" horiz-adv-x="675" 
d="M263 389q0 -4 -7 -35l-1 -14q-1 -9 -3 -23q1 -1 7 -15q5 -12 4 -16q-2 -7 -9.5 -13t-12.5 -6l-35 1q-2 0 -12 -1t-12 -1q-26 0 -23 16q1 10 27 39q1 4 16 59l6 19q6 21 10 42q0 1 0.5 3.5t1 6t0.5 6.5l2 7q1 5 18 78l4 14q2 23 5 40q1 13 -2 20q-7 4 -23 17q-3 1 -2 10
q2 11 32 20q4 1 24 8q26 10 39 10q16 0 12 -19q0 -2 -2.5 -11t-4.5 -16l-15 -71l-31 -112zM672 684q11 0 16 -4t4 -11q-2 -9 -7 -13l-88 -111q-22 -34 -52 -69q-3 -3 -12 -14.5t-25.5 -32.5t-33.5 -43q-2 -2 -6 -8t-7 -9l-18 -17q-4 -4 -15 -22q-8 -13 -13 -19
q-47 -63 -61 -87q-9 -14 -21 -26l-37 -33l-9 -14q-8 -12 -19 -27q-13 -12 -32 -41q-15 -15 -40 -42q-30 -36 -47 -54q-5 -3 -12 -3q-14 0 -20 4t-4 12q1 2 8 9q0 1 6 8t11 15q6 11 31 40q10 12 36 38l19 27l41 51l9 12l14 18q21 21 80 99q8 13 27 32l17 25l34 38l22 32
q26 30 46 54q22 33 48 71q5 6 16 17q7 12 36 49q37 49 58 49zM495 68q3 -1 8 -1l11 -1l40 1l26 -3q15 0 29 11q21 15 24 17q3 0 6 -7t2 -11q-4 -12 -8 -20q-1 -1 -10 -27q-11 -27 -28 -27h-18h-17h-25h-16h-18h-17h-28h-35q-18 0 -14 14q5 18 56 69l43 43l11 11q29 27 48 45
q12 11 21 22q43 52 51 94q1 2 -1 31q-1 10 -25 25q-12 5 -13 4l-21 -4q-36 -8 -55 -20q-1 -1 -6 -1q-9 0 -8 10q1 9 27 35q32 32 71 32q18 0 42 -2q6 -2 17 -8q1 0 8 -5q33 -19 35 -50q2 -21 -9 -57q-10 -40 -50 -78q-39 -32 -55 -46l-44 -39q-3 -3 -16 -14.5t-22 -20.5
q-10 -10 -17 -22z" />
    <glyph glyph-name="threequarters" unicode="&#xbe;" horiz-adv-x="675" 
d="M132 381q12 0 26 -18q8 -11 5 -21l-8 -27q-4 -6 12 -16t23 -10l32 8l9 8l8 7l20 20l6 10q11 11 17 18q9 31 8 52q-1 4 -13 20q-16 20 -25 29q-1 0 -8 1.5t-13 3.5q-15 4 -13 16q3 11 16 17q12 3 25 7q9 4 14 10q9 9 17 18q19 27 22 42q6 28 -12 45q-16 14 -37 14
q-28 0 -43 -9q-12 -5 -15 -5q-10 0 -7 12q5 21 38 35q27 11 40 11q16 0 45 -15q30 -14 40 -27q23 -26 17 -48l-4 -16q-8 -39 -61 -75q-12 -8 -12 -11q-1 -3 7 -11q38 -35 38 -74q0 -6 -2 -18q-8 -38 -14 -51q-17 -34 -42 -47q-9 -4 -30 -12l-9 -4l-19 -7l-10 -4
q-46 -6 -50 -6q-20 1 -51 36q-21 23 -21 46q0 46 34 46zM672 684q11 0 16 -4t4 -11q-2 -9 -7 -13l-88 -111q-4 -5 -11 -16t-11 -17q-9 -11 -29 -35q-12 -14 -72 -91q-2 -2 -6 -8t-7 -9l-18 -17q-4 -4 -15 -22q-8 -13 -13 -19q-53 -73 -61 -87q-9 -14 -21 -26l-37 -33l-9 -14
q-1 -2 -4 -6t-7 -10t-8 -11q-8 -10 -18 -20q-5 -5 -14 -21l-4 -5l-15 -15t-21 -22q-30 -36 -47 -54q-5 -3 -12 -3q-14 0 -20 4t-4 12q1 2 8 9q0 1 6 8t11 15q6 11 31 40q10 12 36 38l19 27l41 51l9 12l14 18q21 21 80 99q8 13 27 32l17 25l34 38l22 32q26 30 46 54
q22 33 48 71q5 6 16 17q7 12 36 49q37 49 58 49zM553 171h-2q-5 -1 -19 -1h-46l-28 1q-31 1 -28 18q3 11 20 25q4 4 17.5 16l22.5 20l10 10q5 4 23.5 19t31.5 26l10 8l15 15q7 5 27 25q6 5 16 13l3 2l6 6l8 8l12 11l7 7q10 13 22 13q16 0 11 -17q0 -1 -1.5 -8t-3.5 -13
l-3 -13l-2 -14l-5 -24l-16 -70q1 -9 -6 -30l-3 -6q-2 -4 1 -7l9 -10q2 -2 0 -10q0 -1 -1 -4t-1 -3.5t-1 -3t-2 -3.5t-2.5 -3t-3.5 -3.5t-5 -4t-7 -4.5q-1 -1 -1 -3q-1 -2 -1 -3l-26 -122q-7 -33 -28 -33q-10 -2 -17 -0.5t-10.5 1.5t-6.5 2.5t-3.5 3.5t-1.5 4t-2 4q3 8 16 50
q0 18 2 28q4 14 12 45l2 12l3 5q1 15 -24 15zM504 216q2 -1 7 -1q11 -3 14 -3q9 0 16 4l36 -5q11 0 12 4q1 1 16 46l9 40q2 11 3 18q-15 -11 -51 -39q-5 -4 -21 -20q-29 -33 -41 -44z" />
    <glyph glyph-name="questiondown" unicode="&#xbf;" horiz-adv-x="367" 
d="M263 224q14 0 10 -16q-3 -14 -19 -64q-4 -10 -18 -36q-5 -11 -20 -40l-14 -24q-15 -24 -26 -44l-25 -41l-10 -15l-12 -21q-8 -15 -26 -49q-4 -24 -6 -59v-15q0 -34 18 -56q12 -15 42 -15q35 0 56.5 18.5t22.5 50.5q-5 8 -14 24q-3 5 0 20q9 43 42 43q21 0 31 -22
q1 -1 4 -9q7 -14 4 -25q-7 -39 -39 -75q-8 -8 -21 -19q-28 -25 -72 -35q-26 -6 -34 -6q-11 0 -22 4q-32 4 -33 4q-11 4 -26 22q-28 37 -37 56q-13 28 5 112q1 11 21 43l14 23l30 33q14 16 38 44q11 9 23 22q10 10 41 50l14 18q28 49 34 59q1 3 6 21q4 19 18 19zM286 394
q8 0 27 -18q13 -12 7 -42q-9 -41 -45 -41q-4 0 -23 8q-26 9 -27 12q-4 5 -4 16q0 5 2 17q5 22 17 30q8 7 32 15q7 3 14 3z" />
    <glyph glyph-name="Agrave" unicode="&#xc0;" horiz-adv-x="535" 
d="M402 4q-2 0 -4 -1q-21 -6 -38 -6q-8 0 -11.5 2t-2.5 7q2 8 18 18q35 24 42 55q3 17 0 45q-2 9 -9 45q-2 6 -3 61q-6 37 -41 37q-18 3 -31 8q-16 6 -36 6q-35 0 -53 -9q-15 -4 -33 -41q-13 -27 -21 -37q-19 -24 -27 -41q-3 -6 -9 -21q-14 -39 -14 -41q-4 -19 -1 -28
q4 -7 27 -36q8 -11 8 -15q-3 -12 -27 -12h-10h-22h-36h-44q-13 0 -18 3t-3 11q1 7 8 12l22 15q6 3 28 37l3 3q2 3 7.5 8.5t11.5 12.5q3 4 23 44q8 10 38 62l106 183q1 3 48 79q7 13 23 39t23 38q25 45 45 103q13 37 32 37q5 0 10 -17q2 -7 13 -94q3 -12 10 -36q-1 -12 0 -28
q0 -1 0.5 -6.5t1 -16t0.5 -21.5q3 -10 9 -39l12 -70l2 -35l5 -55q1 -10 8 -78q4 -47 7 -74q7 -47 21 -67l2 -2q3 -2 7.5 -6t9.5 -9t3 -14q-3 -14 -23 -17q-3 0 -10 -0.5t-20.5 -1t-26.5 -0.5l-25 -1zM361 478q-2 0 -6 -2l-13 -17q-3 -4 -12.5 -15.5t-15.5 -19.5
q-34 -59 -29 -81q3 -13 35 -21q8 -1 17 -4q10 -3 19 -3q13 0 16 14q11 57 7 96q-5 53 -18 53zM383 833q6 0 17 -8q14 -21 31 -44q14 -16 21 -23q13 -16 10 -27q-1 -10 -13 -10l-3 1q-4 2 -12 5.5t-16 7.5l-38 12l-12 5q-15 5 -26 10q-11 9 -8 25q4 16 19 31t30 15z" />
    <glyph glyph-name="Aacute" unicode="&#xc1;" horiz-adv-x="535" 
d="M402 4q-2 0 -4 -1q-21 -6 -38 -6q-8 0 -11.5 2t-2.5 7q2 8 18 18q35 24 42 55q3 17 0 45q-2 9 -9 45q-2 6 -3 61q-6 37 -41 37q-18 3 -31 8q-16 6 -36 6q-35 0 -53 -9q-15 -4 -33 -41q-13 -27 -21 -37q-19 -24 -27 -41q-3 -6 -9 -21q-14 -39 -14 -41q-4 -19 -1 -28
q4 -7 27 -36q8 -11 8 -15q-3 -12 -27 -12h-10h-22h-36h-44q-13 0 -18 3t-3 11q1 7 8 12l22 15q6 3 28 37l3 3q2 3 7.5 8.5t11.5 12.5q3 4 23 44q8 10 38 62l106 183q1 3 48 79q7 13 23 39t23 38q25 45 45 103q13 37 32 37q5 0 10 -17q2 -7 13 -94q3 -12 10 -36q-1 -12 0 -28
q0 -1 0.5 -6.5t1 -16t0.5 -21.5q3 -10 9 -39l12 -70l2 -35l5 -55q1 -10 8 -78q4 -47 7 -74q7 -47 21 -67l2 -2q3 -2 7.5 -6t9.5 -9t3 -14q-3 -14 -23 -17q-3 0 -10 -0.5t-20.5 -1t-26.5 -0.5l-25 -1zM361 478q-2 0 -6 -2l-13 -17q-3 -4 -12.5 -15.5t-15.5 -19.5
q-34 -59 -29 -81q3 -13 35 -21q8 -1 17 -4q10 -3 19 -3q13 0 16 14q11 57 7 96q-5 53 -18 53zM529 830q25 0 25 -20q0 -21 -17.5 -38t-39.5 -19l-17 -2q-1 0 -15.5 -4.5t-24.5 -8.5q-6 -1 -12 -4q-25 -11 -27 -11q-8 0 -6 8q61 49 90 74q24 25 44 25z" />
    <glyph glyph-name="Acircumflex" unicode="&#xc2;" horiz-adv-x="535" 
d="M402 4q-2 0 -4 -1q-21 -6 -38 -6q-8 0 -11.5 2t-2.5 7q2 8 18 18q35 24 42 55q3 17 0 45q-2 9 -9 45q-2 6 -3 61q-6 37 -41 37q-18 3 -31 8q-16 6 -36 6q-35 0 -53 -9q-15 -4 -33 -41q-13 -27 -21 -37q-19 -24 -27 -41q-3 -6 -9 -21q-14 -39 -14 -41q-4 -19 -1 -28
q4 -7 27 -36q8 -11 8 -15q-3 -12 -27 -12h-10h-22h-36h-44q-13 0 -18 3t-3 11q1 7 8 12l22 15q6 3 28 37l3 3q2 3 7.5 8.5t11.5 12.5q3 4 23 44q8 10 38 62l106 183q1 3 48 79q7 13 23 39t23 38q25 45 45 103q13 37 32 37q5 0 10 -17q2 -7 13 -94q3 -12 10 -36q-1 -12 0 -28
q0 -1 0.5 -6.5t1 -16t0.5 -21.5q3 -10 9 -39l12 -70l2 -35l5 -55q1 -10 8 -78q4 -47 7 -74q7 -47 21 -67l2 -2q3 -2 7.5 -6t9.5 -9t3 -14q-3 -14 -23 -17q-3 0 -10 -0.5t-20.5 -1t-26.5 -0.5l-25 -1zM361 478q-2 0 -6 -2l-13 -17q-3 -4 -12.5 -15.5t-15.5 -19.5
q-34 -59 -29 -81q3 -13 35 -21q8 -1 17 -4q10 -3 19 -3q13 0 16 14q11 57 7 96q-5 53 -18 53zM459 842q7 0 11.5 -4t10.5 -18l12 -25l7 -14q4 -9 15 -49q2 -6 1 -10q-2 -8 -10 -8t-43 34q-15 36 -20 36q-12 0 -29 -23q-10 -15 -21 -21q-24 -16 -30 -21q-11 -8 -17 -8t-5 10
q6 6 19 23l17 21l17 19l9 13l20 19q6 9 15 21q7 5 21 5z" />
    <glyph glyph-name="Atilde" unicode="&#xc3;" horiz-adv-x="535" 
d="M402 4q-2 0 -4 -1q-21 -6 -38 -6q-8 0 -11.5 2t-2.5 7q2 8 18 18q35 24 42 55q3 17 0 45q-2 9 -9 45q-2 6 -3 61q-6 37 -41 37q-18 3 -31 8q-16 6 -36 6q-35 0 -53 -9q-15 -4 -33 -41q-13 -27 -21 -37q-19 -24 -27 -41q-3 -6 -9 -21q-14 -39 -14 -41q-4 -19 -1 -28
q4 -7 27 -36q8 -11 8 -15q-3 -12 -27 -12h-10h-22h-36h-44q-13 0 -18 3t-3 11q1 7 8 12l22 15q6 3 28 37l3 3q2 3 7.5 8.5t11.5 12.5q3 4 23 44q8 10 38 62l106 183q1 3 48 79q7 13 23 39t23 38q25 45 45 103q13 37 32 37q5 0 10 -17q2 -7 13 -94q3 -12 10 -36q-1 -12 0 -28
q0 -1 0.5 -6.5t1 -16t0.5 -21.5q3 -10 9 -39l12 -70l2 -35l5 -55q1 -10 8 -78q4 -47 7 -74q7 -47 21 -67l2 -2q3 -2 7.5 -6t9.5 -9t3 -14q-3 -14 -23 -17q-3 0 -10 -0.5t-20.5 -1t-26.5 -0.5l-25 -1zM361 478q-2 0 -6 -2l-13 -17q-3 -4 -12.5 -15.5t-15.5 -19.5
q-34 -59 -29 -81q3 -13 35 -21q8 -1 17 -4q10 -3 19 -3q13 0 16 14q11 57 7 96q-5 53 -18 53zM412 821q8 0 10 -1q3 -2 11 -5.5t12 -5.5l15 -6q31 -19 41 -19q16 0 51 23q6 0 4 -8q-1 -6 -10 -13q-9 -9 -17 -18q-31 -36 -56 -36q-15 0 -26 4q-1 0 -4.5 2t-9.5 5l-12 6l-19 6
q-25 13 -39 13q-10 0 -22 -13q-10 -13 -12 -13q-10 0 -8 8l3 3q2 3 6.5 8.5t10.5 12.5l14 13q16 16 28 25q17 9 29 9z" />
    <glyph glyph-name="Adieresis" unicode="&#xc4;" horiz-adv-x="535" 
d="M402 4q-2 0 -4 -1q-21 -6 -38 -6q-8 0 -11.5 2t-2.5 7q2 8 18 18q35 24 42 55q3 17 0 45q-2 9 -9 45q-2 6 -3 61q-6 37 -41 37q-18 3 -31 8q-16 6 -36 6q-35 0 -53 -9q-15 -4 -33 -41q-13 -27 -21 -37q-19 -24 -27 -41q-3 -6 -9 -21q-14 -39 -14 -41q-4 -19 -1 -28
q4 -7 27 -36q8 -11 8 -15q-3 -12 -27 -12h-10h-22h-36h-44q-13 0 -18 3t-3 11q1 7 8 12l22 15q6 3 28 37l3 3q2 3 7.5 8.5t11.5 12.5q3 4 23 44q8 10 38 62l106 183q1 3 48 79q7 13 23 39t23 38q25 45 45 103q13 37 32 37q5 0 10 -17q2 -7 13 -94q3 -12 10 -36q-1 -12 0 -28
q0 -1 0.5 -6.5t1 -16t0.5 -21.5q3 -10 9 -39l12 -70l2 -35l5 -55q1 -10 8 -78q4 -47 7 -74q7 -47 21 -67l2 -2q3 -2 7.5 -6t9.5 -9t3 -14q-3 -14 -23 -17q-3 0 -10 -0.5t-20.5 -1t-26.5 -0.5l-25 -1zM361 478q-2 0 -6 -2l-13 -17q-3 -4 -12.5 -15.5t-15.5 -19.5
q-34 -59 -29 -81q3 -13 35 -21q8 -1 17 -4q10 -3 19 -3q13 0 16 14q11 57 7 96q-5 53 -18 53zM358 821q10 0 27 -15q9 -8 9 -14q0 -2 -1 -7t-1 -8v-16q-2 -5 -9 -15q-17 -26 -46 -26q-17 0 -29.5 15t-8.5 32q3 17 19 30q29 24 40 24zM533 813q53 5 42 -48q-3 -12 -9 -24
q-3 -7 -21 -15q-15 -7 -25 -7q-29 0 -29 32q-3 16 9.5 39t32.5 23z" />
    <glyph glyph-name="Aring" unicode="&#xc5;" horiz-adv-x="535" 
d="M402 4q-2 0 -4 -1q-21 -6 -38 -6q-8 0 -11.5 2t-2.5 7q2 8 18 18q35 24 42 55q3 17 0 45q-2 9 -9 45q-2 6 -3 61q-6 37 -41 37q-18 3 -31 8q-16 6 -36 6q-35 0 -53 -9q-15 -4 -33 -41q-13 -27 -21 -37q-19 -24 -27 -41q-3 -6 -9 -21q-14 -39 -14 -41q-4 -19 -1 -28
q4 -7 27 -36q8 -11 8 -15q-3 -12 -27 -12h-10h-22h-36h-44q-13 0 -18 3t-3 11q1 7 8 12l22 15q6 3 28 37l3 3q2 3 7.5 8.5t11.5 12.5q3 4 23 44q8 10 38 62l106 183q1 3 48 79q7 13 23 39t23 38q25 45 45 103q13 37 32 37q5 0 10 -17q2 -7 13 -94q3 -12 10 -36q-1 -12 0 -28
q0 -1 0.5 -6.5t1 -16t0.5 -21.5q3 -10 9 -39l12 -70l2 -35l5 -55q1 -10 8 -78q4 -47 7 -74q7 -47 21 -67l2 -2q3 -2 7.5 -6t9.5 -9t3 -14q-3 -14 -23 -17q-3 0 -10 -0.5t-20.5 -1t-26.5 -0.5l-25 -1zM361 478q-2 0 -6 -2l-13 -17q-3 -4 -12.5 -15.5t-15.5 -19.5
q-34 -59 -29 -81q3 -13 35 -21q8 -1 17 -4q10 -3 19 -3q13 0 16 14q11 57 7 96q-5 53 -18 53zM452 847q7 0 23 -8.5t19 -13.5q8 -11 8 -24v-13q-3 -18 -16 -34q-25 -34 -65 -34q-43 0 -43 44q0 12 3 27q5 23 46 46q18 9 25 10zM442 814q-9 0 -18.5 -9.5t-11.5 -19.5
q-2 -7 2.5 -17.5t9.5 -12.5h14q25 3 31 30q3 13 -11 24q-8 5 -16 5z" />
    <glyph glyph-name="AE" unicode="&#xc6;" horiz-adv-x="805" 
d="M677 3q-23 -3 -33 -3l-50 1l-73 -2q-4 0 -18.5 0.5t-16.5 0.5h-7h-71l-45 -2q-8 0 -11.5 2t-2.5 7q3 12 17 20q3 2 24 10q22 21 27 30q5 11 12 33l9 28l3 20q2 7 7 40l1 8q1 5 1 11q7 52 -14 52h-45q-6 0 -25 10q-20 11 -35 11q-29 0 -39 -12l-7 -7l-7 -9l-13 -18
q-18 -21 -74 -100q-17 -23 -30 -44q0 -2 -1.5 -6.5t-3 -12t-3.5 -14.5q-3 -16 15 -26q19 -10 16 -24q-2 -9 -14 -9q-2 0 -10 1.5t-9 1.5l-14 -1h-8q-7 0 -10 -1q-9 0 -24 1h-70q-25 0 -23 9q2 7 9 15q5 3 29 18q7 3 33 29q15 15 27 28q6 7 45 62q6 9 32 33q1 1 31 35l19 25
l13 15q12 17 55 68q24 24 38 39l37 52q8 12 31 35q13 13 35 43l34 39l18 24q21 29 24 43q2 10 -11 20q-13 11 -11 17q4 21 28 21q11 0 17 -1h10l51 2q3 0 23 1t27 1q22 0 49 -7q1 -1 5 -1q1 0 10.5 1t24.5 2.5t27 1.5q8 1 26 1q19 0 44 -5l4 -1l4 -1q1 0 15 2t17 2
q10 0 14.5 -4.5t3.5 -12.5q0 -7 -6 -50q0 -3 -2 -9.5t-4 -18.5t-3 -30q-2 -38 -15 -38l-18 14q-3 3 -11 39l-7 15q-4 8 -9 19q-7 10 -26 16l-14 2l-16 1q-1 0 -5.5 1.5l-7.5 2.5q-26 10 -47 10q-45 0 -54 -25q0 -1 -2.5 -8.5l-4.5 -13.5l-5 -15l-2 -8q-10 -27 -17 -53
q-4 -17 -9 -44q0 -1 -2.5 -11t-4.5 -20l-2 -10q-3 -11 -3 -19q0 -29 27 -29q15 0 30 9q41 24 59 42q11 11 18 11q8 0 10 -11q0 -4 -3 -24l-3 -19q-5 -30 -14 -55l-5 -18q-1 -6 -3 -19.5t-2 -14.5q2 -2 0 -5q-2 -8 -13 -25q-3 -5 -8 -5l-8 2l-6 12l-8 14l-3 22l-14 17
q-5 10 -9 12q-6 6 -29 6q-19 0 -24 -9l-1 -5q-2 -5 -4.5 -18.5t-5.5 -25.5q-10 -19 -28 -71q-1 -1 -4 -25l-6 -25q-3 -13 -12 -45l-5 -17q-4 -17 9.5 -25.5t43.5 -9.5q28 -4 43 -4q4 0 38 8q17 5 24 10l23 18q27 14 31 20q5 6 33 54q8 14 21 14q9 0 9 -11q0 -2 -2 -10
q-13 -68 -23 -92l-11 -39q-9 -19 -28 -19q-4 0 -53 10zM526 538q-8 0 -40 -29q-25 -25 -34 -38q-11 -17 -42 -62q-10 -12 -31 -33q-16 -16 -19 -27q-2 -8 4 -11q1 -1 31 -7q30 0 32 -1l32 -8q22 0 28 25l2 12q7 37 27 114q1 8 6 19q0 3 5 18l5 15q1 13 -6 13z" />
    <glyph glyph-name="Ccedilla" unicode="&#xc7;" horiz-adv-x="635" 
d="M388 -17q-24 1 -27 -14q-1 -7 4 -9l18 -9q3 -1 8.5 -12.5t4.5 -14.5l-9 -21l-1 -8l-1 -6q-1 -10 -14 -18q-29 -23 -48 -23q-25 0 -34.5 5t-18.5 21q-7 8 -5 21q2 6 10.5 13t14.5 7t13 -22q3 -9 29 -9q16 0 21 17q3 16 -2 19l-25 14q-5 3 -3 11q1 3 7 25q2 6 1 9
q-28 7 -65 22q-74 44 -110 96q-18 25 -42 93q-9 27 -12 65q-1 15 13 86q26 122 85 178l32 30l35 43q17 22 99 55q51 22 76 29q42 11 75 11q93 0 169 -52q1 0 5 -2t12.5 -6t17.5 -8q11 -5 9 -18q-2 -18 -11 -66q-7 -21 -8 -26l-6 -31q-3 -10 -13 -10q-8 0 -11 12q-1 8 -6 24
q-10 34 -14 41q-5 12 -14 18l-26 21q-3 2 -18 14.5t-28 22.5q-6 2 -46 10q-32 5 -36 5q-15 0 -33 -9q-38 -11 -74 -38q-27 -14 -34 -19q-43 -38 -61 -66q-33 -50 -36 -63l-10 -46q0 -2 -4 -11q-18 -34 -19 -41q-2 -3 0 -6q-2 -19 -6 -39l-1 -6q-1 -4 -3.5 -12.5t-3.5 -13.5
l-2 -5v-14l-8 -37q-3 -16 10 -57q10 -31 22 -47q50 -68 123 -66l50 1q27 0 46 1q2 1 6 1.5t6 0.5q21 1 34 7q25 13 53 41q17 23 40 49q7 7 16 23q8 23 23 23q14 0 9 -23q0 -1 -6 -22t-8 -32l-6 -28q-6 -29 -13 -39q-4 -5 -10 -8l-11 -5l-4 -2q-4 -1 -7 -3q-41 -21 -43 -21
l-31 -8q-51 -14 -63 -14z" />
    <glyph glyph-name="Egrave" unicode="&#xc8;" horiz-adv-x="496" 
d="M213 670l22 -1q-1 0 4 0.5t18 1t30 0.5q3 0 23 1t27 1q22 0 49 -7q1 -1 5 -1q3 0 23 3q1 1 13 1q6 0 25.5 1t25.5 1q18 0 45 -5q1 0 4 -1t4 -1q2 1 24 4h7q10 0 15 -4.5t4 -12.5q0 -5 -6 -51q-5 -16 -9 -57q0 -4 -2 -22q-4 -16 -13 -16l-18 14q-3 3 -11 39l-7 15
q-4 8 -9 19q-7 10 -26 16q-9 2 -30 3q-1 1 -13 4q-30 10 -47 10q-48 0 -54 -25q0 -1 -2.5 -8.5l-4.5 -13.5l-5 -15l-2 -8q-9 -24 -17 -52q-1 -13 -9 -45q-6 -26 -9 -41q-3 -11 -3 -20q0 -28 26 -28q16 0 31 9q41 24 59 42q11 11 18 11t9 -11q-1 -4 -3 -24l-2 -19
q-1 -17 -14 -55l-5 -18q0 -2 -3 -21v-3q-1 -2 -1.5 -6t-0.5 -9q-2 -8 -13 -25q-3 -5 -8 -5q-6 0 -14 14l-8 14l-3 22l-14 17q-4 10 -8 12q-6 6 -30 6q-16 0 -24 -9q-1 -1 -12 -49q-13 -28 -27 -73q0 -1 -0.5 -4t-1.5 -8.5t-2 -9.5l-6 -26q-3 -13 -12 -45l-5 -17
q-4 -16 9.5 -25t42.5 -10q1 0 4 -0.5t8 -1t9 -0.5t8 -0.5t7 -1t5 -0.5h3q4 0 38 8q17 5 24 10l23 18q24 14 30 20q16 23 34 54q8 14 20 14q13 0 8 -21q-13 -68 -23 -92l-11 -39q-9 -19 -28 -19q-4 0 -53 10q-22 -3 -33 -3l-50 1l-74 -2q-3 0 -17 0.5t-17 0.5h-7h-71l-44 -2
q-9 0 -12.5 2t-2.5 7q3 12 17 20q3 2 24 10q23 21 27 30l12 33l9 29q1 5 3.5 18.5t4.5 21.5l8 36q2 14 3 20l3 10l2 8q5 23 15 62q2 5 4.5 13.5t3.5 11.5l13 72l6 28l12 43q6 24 17 53l-1 31q0 35 -4 42q-9 19 -37 40q-4 2 -2 10q4 23 33 21zM370 833q6 0 17 -8
q14 -21 31 -44q14 -16 21 -23q13 -16 10 -27q-1 -10 -13 -10l-4 1q-3 2 -11 5.5t-16 7.5l-38 12l-12 5q-15 5 -26 10q-11 9 -8 25q4 16 19 31t30 15z" />
    <glyph glyph-name="Eacute" unicode="&#xc9;" horiz-adv-x="496" 
d="M213 670l22 -1q-1 0 4 0.5t18 1t30 0.5q3 0 23 1t27 1q22 0 49 -7q1 -1 5 -1q3 0 23 3q1 1 13 1q6 0 25.5 1t25.5 1q18 0 45 -5q1 0 4 -1t4 -1q2 1 24 4h7q10 0 15 -4.5t4 -12.5q0 -5 -6 -51q-5 -16 -9 -57q0 -4 -2 -22q-4 -16 -13 -16l-18 14q-3 3 -11 39l-7 15
q-4 8 -9 19q-7 10 -26 16q-9 2 -30 3q-1 1 -13 4q-30 10 -47 10q-48 0 -54 -25q0 -1 -2.5 -8.5l-4.5 -13.5l-5 -15l-2 -8q-9 -24 -17 -52q-1 -13 -9 -45q-6 -26 -9 -41q-3 -11 -3 -20q0 -28 26 -28q16 0 31 9q41 24 59 42q11 11 18 11t9 -11q-1 -4 -3 -24l-2 -19
q-1 -17 -14 -55l-5 -18q0 -2 -3 -21v-3q-1 -2 -1.5 -6t-0.5 -9q-2 -8 -13 -25q-3 -5 -8 -5q-6 0 -14 14l-8 14l-3 22l-14 17q-4 10 -8 12q-6 6 -30 6q-16 0 -24 -9q-1 -1 -12 -49q-13 -28 -27 -73q0 -1 -0.5 -4t-1.5 -8.5t-2 -9.5l-6 -26q-3 -13 -12 -45l-5 -17
q-4 -16 9.5 -25t42.5 -10q1 0 4 -0.5t8 -1t9 -0.5t8 -0.5t7 -1t5 -0.5h3q4 0 38 8q17 5 24 10l23 18q24 14 30 20q16 23 34 54q8 14 20 14q13 0 8 -21q-13 -68 -23 -92l-11 -39q-9 -19 -28 -19q-4 0 -53 10q-22 -3 -33 -3l-50 1l-74 -2q-3 0 -17 0.5t-17 0.5h-7h-71l-44 -2
q-9 0 -12.5 2t-2.5 7q3 12 17 20q3 2 24 10q23 21 27 30l12 33l9 29q1 5 3.5 18.5t4.5 21.5l8 36q2 14 3 20l3 10l2 8q5 23 15 62q2 5 4.5 13.5t3.5 11.5l13 72l6 28l12 43q6 24 17 53l-1 31q0 35 -4 42q-9 19 -37 40q-4 2 -2 10q4 23 33 21zM516 830q25 0 25 -20
q0 -21 -17.5 -38t-39.5 -19l-17 -2q-1 0 -15.5 -4.5t-24.5 -8.5q-6 -1 -12 -4q-25 -11 -27 -11q-8 0 -6 8q61 49 90 74q24 25 44 25z" />
    <glyph glyph-name="Ecircumflex" unicode="&#xca;" horiz-adv-x="496" 
d="M213 670l22 -1q-1 0 4 0.5t18 1t30 0.5q3 0 23 1t27 1q22 0 49 -7q1 -1 5 -1q3 0 23 3q1 1 13 1q6 0 25.5 1t25.5 1q18 0 45 -5q1 0 4 -1t4 -1q2 1 24 4h7q10 0 15 -4.5t4 -12.5q0 -5 -6 -51q-5 -16 -9 -57q0 -4 -2 -22q-4 -16 -13 -16l-18 14q-3 3 -11 39l-7 15
q-4 8 -9 19q-7 10 -26 16q-9 2 -30 3q-1 1 -13 4q-30 10 -47 10q-48 0 -54 -25q0 -1 -2.5 -8.5l-4.5 -13.5l-5 -15l-2 -8q-9 -24 -17 -52q-1 -13 -9 -45q-6 -26 -9 -41q-3 -11 -3 -20q0 -28 26 -28q16 0 31 9q41 24 59 42q11 11 18 11t9 -11q-1 -4 -3 -24l-2 -19
q-1 -17 -14 -55l-5 -18q0 -2 -3 -21v-3q-1 -2 -1.5 -6t-0.5 -9q-2 -8 -13 -25q-3 -5 -8 -5q-6 0 -14 14l-8 14l-3 22l-14 17q-4 10 -8 12q-6 6 -30 6q-16 0 -24 -9q-1 -1 -12 -49q-13 -28 -27 -73q0 -1 -0.5 -4t-1.5 -8.5t-2 -9.5l-6 -26q-3 -13 -12 -45l-5 -17
q-4 -16 9.5 -25t42.5 -10q1 0 4 -0.5t8 -1t9 -0.5t8 -0.5t7 -1t5 -0.5h3q4 0 38 8q17 5 24 10l23 18q24 14 30 20q16 23 34 54q8 14 20 14q13 0 8 -21q-13 -68 -23 -92l-11 -39q-9 -19 -28 -19q-4 0 -53 10q-22 -3 -33 -3l-50 1l-74 -2q-3 0 -17 0.5t-17 0.5h-7h-71l-44 -2
q-9 0 -12.5 2t-2.5 7q3 12 17 20q3 2 24 10q23 21 27 30l12 33l9 29q1 5 3.5 18.5t4.5 21.5l8 36q2 14 3 20l3 10l2 8q5 23 15 62q2 5 4.5 13.5t3.5 11.5l13 72l6 28l12 43q6 24 17 53l-1 31q0 35 -4 42q-9 19 -37 40q-4 2 -2 10q4 23 33 21zM445 842q7 0 11.5 -4t10.5 -18
l12 -25l7 -14q4 -9 15 -49q2 -6 1 -10q-2 -8 -10 -8t-43 34q-15 36 -20 36q-12 0 -29 -23q-10 -15 -21 -21q-24 -16 -30 -21q-11 -8 -17 -8t-5 10q6 6 19 23l17 21l17 19l9 13l20 19q6 9 15 21q7 5 21 5z" />
    <glyph glyph-name="Edieresis" unicode="&#xcb;" horiz-adv-x="496" 
d="M213 670l22 -1q-1 0 4 0.5t18 1t30 0.5q3 0 23 1t27 1q22 0 49 -7q1 -1 5 -1q3 0 23 3q1 1 13 1q6 0 25.5 1t25.5 1q18 0 45 -5q1 0 4 -1t4 -1q2 1 24 4h7q10 0 15 -4.5t4 -12.5q0 -5 -6 -51q-5 -16 -9 -57q0 -4 -2 -22q-4 -16 -13 -16l-18 14q-3 3 -11 39l-7 15
q-4 8 -9 19q-7 10 -26 16q-9 2 -30 3q-1 1 -13 4q-30 10 -47 10q-48 0 -54 -25q0 -1 -2.5 -8.5l-4.5 -13.5l-5 -15l-2 -8q-9 -24 -17 -52q-1 -13 -9 -45q-6 -26 -9 -41q-3 -11 -3 -20q0 -28 26 -28q16 0 31 9q41 24 59 42q11 11 18 11t9 -11q-1 -4 -3 -24l-2 -19
q-1 -17 -14 -55l-5 -18q0 -2 -3 -21v-3q-1 -2 -1.5 -6t-0.5 -9q-2 -8 -13 -25q-3 -5 -8 -5q-6 0 -14 14l-8 14l-3 22l-14 17q-4 10 -8 12q-6 6 -30 6q-16 0 -24 -9q-1 -1 -12 -49q-13 -28 -27 -73q0 -1 -0.5 -4t-1.5 -8.5t-2 -9.5l-6 -26q-3 -13 -12 -45l-5 -17
q-4 -16 9.5 -25t42.5 -10q1 0 4 -0.5t8 -1t9 -0.5t8 -0.5t7 -1t5 -0.5h3q4 0 38 8q17 5 24 10l23 18q24 14 30 20q16 23 34 54q8 14 20 14q13 0 8 -21q-13 -68 -23 -92l-11 -39q-9 -19 -28 -19q-4 0 -53 10q-22 -3 -33 -3l-50 1l-74 -2q-3 0 -17 0.5t-17 0.5h-7h-71l-44 -2
q-9 0 -12.5 2t-2.5 7q3 12 17 20q3 2 24 10q23 21 27 30l12 33l9 29q1 5 3.5 18.5t4.5 21.5l8 36q2 14 3 20l3 10l2 8q5 23 15 62q2 5 4.5 13.5t3.5 11.5l13 72l6 28l12 43q6 24 17 53l-1 31q0 35 -4 42q-9 19 -37 40q-4 2 -2 10q4 23 33 21zM345 821q11 0 27 -15
q9 -8 9 -14q-1 -2 -1 -7t-1 -8v-16q-1 -5 -9 -15q-17 -26 -46 -26q-17 0 -29.5 15t-8.5 32q3 17 19 30q29 24 40 24zM520 813q52 5 42 -48q-3 -12 -9 -24q-3 -7 -21 -15q-15 -7 -25 -7q-29 0 -29 32q-3 16 9.5 39t32.5 23z" />
    <glyph glyph-name="Igrave" unicode="&#xcc;" horiz-adv-x="278" 
d="M217 671l59 -3q32 4 49 4q22 0 31.5 -6t7.5 -19q-2 -6 -15 -15q-21 -13 -27 -26q-18 -33 -40 -142q-5 -32 -15 -83l-6 -27q-10 -51 -21 -85q-3 -6 -6 -29q-3 -22 -5 -30q-1 -1 -4 -13l-2 -10q-1 -7 -3 -31l-10 -52l-3 -17q5 -13 11 -39l12 -15q6 -10 4 -17
q-3 -16 -13 -16h-31q-13 -1 -25 -1h-1q-2 0 -8 0.5t-13 0.5h-44q-16 0 -33 5q-8 5 -6 15q1 5 5 9l31 22q11 13 17 32l3 9t5 15.5t6 18.5q3 13 4 26q1 14 3 18q3 16 12 44q9 30 12 45l8 59l9 32q1 4 3 20l21 102q2 10 2 12q1 16 6 51l10 54q5 23 -15 42q-14 14 -12 22
q3 17 27 18zM248 833q6 0 17 -8q14 -21 31 -44q14 -16 21 -23q13 -16 10 -27q-1 -10 -13 -10l-4 1q-3 2 -11 5.5t-16 7.5l-38 12l-12 5q-15 5 -26 10q-11 9 -8 25q4 16 19 31t30 15z" />
    <glyph glyph-name="Iacute" unicode="&#xcd;" horiz-adv-x="278" 
d="M217 671l59 -3q32 4 49 4q22 0 31.5 -6t7.5 -19q-2 -6 -15 -15q-21 -13 -27 -26q-18 -33 -40 -142q-5 -32 -15 -83l-6 -27q-10 -51 -21 -85q-3 -6 -6 -29q-3 -22 -5 -30q-1 -1 -4 -13l-2 -10q-1 -7 -3 -31l-10 -52l-3 -17q5 -13 11 -39l12 -15q6 -10 4 -17
q-3 -16 -13 -16h-31q-13 -1 -25 -1h-1q-2 0 -8 0.5t-13 0.5h-44q-16 0 -33 5q-8 5 -6 15q1 5 5 9l31 22q11 13 17 32l3 9t5 15.5t6 18.5q3 13 4 26q1 14 3 18q3 16 12 44q9 30 12 45l8 59l9 32q1 4 3 20l21 102q2 10 2 12q1 16 6 51l10 54q5 23 -15 42q-14 14 -12 22
q3 17 27 18zM394 830q25 0 25 -20q0 -21 -17.5 -38t-39.5 -19l-17 -2q-1 0 -15.5 -4.5t-24.5 -8.5q-6 -1 -12 -4q-25 -11 -27 -11q-8 0 -6 8q61 49 90 74q24 25 44 25z" />
    <glyph glyph-name="Icircumflex" unicode="&#xce;" horiz-adv-x="278" 
d="M217 671l59 -3q32 4 49 4q22 0 31.5 -6t7.5 -19q-2 -6 -15 -15q-21 -13 -27 -26q-18 -33 -40 -142q-5 -32 -15 -83l-6 -27q-10 -51 -21 -85q-3 -6 -6 -29q-3 -22 -5 -30q-1 -1 -4 -13l-2 -10q-1 -7 -3 -31l-10 -52l-3 -17q5 -13 11 -39l12 -15q6 -10 4 -17
q-3 -16 -13 -16h-31q-13 -1 -25 -1h-1q-2 0 -8 0.5t-13 0.5h-44q-16 0 -33 5q-8 5 -6 15q1 5 5 9l31 22q11 13 17 32l3 9t5 15.5t6 18.5q3 13 4 26q1 14 3 18q3 16 12 44q9 30 12 45l8 59l9 32q1 4 3 20l21 102q2 10 2 12q1 16 6 51l10 54q5 23 -15 42q-14 14 -12 22
q3 17 27 18zM324 842q7 0 11.5 -4t10.5 -18l12 -25l7 -14q3 -9 15 -49q2 -6 1 -10q-2 -8 -10 -8t-43 34q-15 36 -20 36q-12 0 -29 -23q-11 -15 -21 -21q-24 -16 -30 -21q-11 -8 -17 -8t-5 10q6 6 19 23l17 21l17 19l9 13l20 19q6 9 15 21q7 5 21 5z" />
    <glyph glyph-name="Idieresis" unicode="&#xcf;" horiz-adv-x="278" 
d="M217 671l59 -3q32 4 49 4q22 0 31.5 -6t7.5 -19q-2 -6 -15 -15q-21 -13 -27 -26q-18 -33 -40 -142q-5 -32 -15 -83l-6 -27q-10 -51 -21 -85q-3 -6 -6 -29q-3 -22 -5 -30q-1 -1 -4 -13l-2 -10q-1 -7 -3 -31l-10 -52l-3 -17q5 -13 11 -39l12 -15q6 -10 4 -17
q-3 -16 -13 -16h-31q-13 -1 -25 -1h-1q-2 0 -8 0.5t-13 0.5h-44q-16 0 -33 5q-8 5 -6 15q1 5 5 9l31 22q11 13 17 32l3 9t5 15.5t6 18.5q3 13 4 26q1 14 3 18q3 16 12 44q9 30 12 45l8 59l9 32q1 4 3 20l21 102q2 10 2 12q1 16 6 51l10 54q5 23 -15 42q-14 14 -12 22
q3 17 27 18zM250 821q10 0 27 -15q9 -8 9 -14l-3 -15v-16l-1 -2q-1 -2 -3 -5.5t-4 -7.5q-17 -26 -46 -26q-17 0 -29.5 15t-8.5 32q3 17 19 30q28 24 40 24zM372 813q52 5 42 -48q-3 -12 -9 -24q-3 -6 -19 -13q-21 -9 -27 -9q-30 0 -30 32q-4 14 9.5 37.5t33.5 24.5z" />
    <glyph glyph-name="Eth" unicode="&#xd0;" horiz-adv-x="627" 
d="M156 306l-13 -2q-18 -2 -21 -2q-16 0 -8 36q1 7 10.5 18.5t14.5 10.5h9l12 -1l9 -2q11 2 12 19q2 12 3.5 24.5t3 20.5t1.5 11q8 34 12 44q8 24 9 28q2 6 3 24q0 5 0.5 9.5t0.5 7.5t0.5 5.5l0.5 2.5v1q0 25 -1 30q-1 13 -11 27q-2 1 -8 6t-11 9q-4 5 -3 15q5 18 45 18
q20 0 42 -5l9 -2q4 0 46 9l56 3q15 -4 63 -4q43 -1 67 -1q12 -2 62 -34l6 -4l11 -12q31 -21 51 -53q15 -17 31 -53q8 -50 7 -64q-3 -38 -8 -63l-21 -100q-6 -27 -35 -84q-8 -18 -16 -28q-19 -26 -68 -82q-25 -23 -72 -45q-15 -7 -66 -23q-46 -21 -80 -22q-22 0 -37 -1
q-5 -1 -15 -1.5t-15 -0.5q-2 0 -7.5 -0.5t-7.5 -1.5q-1 0 -10.5 1.5t-17.5 3.5q-3 1 -37 1h-30h-29h-35h-10h-7q-15 2 -11 19q1 9 10 16q14 7 29 15q31 21 39 66q7 20 21 67l8 46v7q1 6 3 9q2 6 11 49q3 11 -7 12zM426 622q-87 0 -104 -62q-3 -13 -19 -52q-1 0 -1 -1t-1 -2
v-37l-2 -13q-1 -1 -4.5 -11t-8 -26t-6.5 -29l-2 -8q-4 -19 10 -19q3 0 25 5l22 5q7 0 18 -12q2 -2 2 -11l1 -12l-14 -20q-7 -13 -14 -13q-2 0 -16 2.5t-17 2.5q-9 0 -22 -4.5t-14 -9.5l-4 -31l-5 -17l-4 -12l-6 -24l-7 -25q-1 -8 -5 -43q-1 -3 -9 -35l-1 -3q-8 -33 14 -53
q16 -14 29 -14q5 0 38 9l31 5l24 5q19 5 34 12q5 2 25 21l29 27q10 10 17 15q12 15 25 30q13 11 36 47q3 12 15 45l15 39q2 9 9 32q2 7 4.5 14t4 11t1.5 6l2 27l5 27q4 20 8 45q0 7 -14 41q-11 33 -22 55q-10 13 -37 31q-15 11 -19 14q-33 26 -66 26z" />
    <glyph glyph-name="Ntilde" unicode="&#xd1;" horiz-adv-x="671" 
d="M205 478l5 25q6 29 6 48q0 36 -6 45t-38 27q-14 8 -11 22q5 19 18 18l26 -1q4 1 26 3q3 0 9.5 0.5t19 1t23.5 0.5l64 3q14 1 20 -4.5t4 -15.5q-2 -6 -3 -8q-5 -14 -8 -27q-5 -18 36 -116l7 -16q11 -33 60 -129q15 -24 43 -63q7 -10 10 -16q8 -17 18 -23l23 -13
q11 0 21 21q8 16 21 61l15 52l11 53q5 20 8 29q1 1 1 2q1 2 1 3l3 27l1 14q1 21 7 74q-2 30 -41 58q-10 7 -8 16q1 3 6.5 10t8.5 7l57 -6l7 2q7 2 15.5 4t11.5 2h30q26 0 34 -2q11 -5 8 -15q-1 -7 -9 -12l-22 -11q-32 -17 -39 -43q-1 -4 -16 -65q-3 -9 -9 -33
q-7 -47 -15 -81l-5 -24q-4 -14 -15 -51l-16 -75q-14 -39 -18 -85l-12 -56q-1 -6 -4 -20.5t-4 -22.5q-3 -14 -3 -18q-1 -9 -3 -26q-7 -31 -30 -31q-10 0 -10 3l-16 40q-2 2 -10 17q-22 26 -28 38q-5 13 -15 35q-2 3 -5.5 8.5t-9.5 15.5t-11 18l-8 9l-12 23l-14 25l-14 25
l-15 26q-11 18 -24 40q-10 16 -25 48l-16 36q-10 18 -29 56l-25 50q-11 0 -17 -18l-13 -58l-11 -47q-17 -75 -31 -128q-2 -6 -4 -13.5t-4.5 -17.5t-4.5 -16q0 -3 -1 -8.5l-2 -11t-1 -11.5q-4 -30 -5 -36l-2 -13q-3 -16 -6 -42q-3 -48 49 -58q15 -3 11 -21q-2 -11 -46 -11
h-10t-26 0.5t-43 0.5q-19 0 -25 -1h-7q-23 0 -34 5t-9 15q2 7 11 12q28 12 37 19q18 13 28 32q13 23 28 93q6 23 12 47q2 13 6 31l2 10q2 12 14 45q2 8 3 11l3 18l4 20q2 23 14 55q2 3 6 25q1 4 4.5 17.5t6.5 22.5zM473 821q8 0 10 -1l11 -5.5t12 -5.5l15 -6q31 -19 41 -19
q16 0 51 23q6 0 4 -8q-1 -6 -10 -13q-9 -9 -17 -18q-32 -36 -56 -36q-15 0 -26 4q-1 0 -4.5 2t-9.5 5l-12 6l-19 6q-25 13 -39 13q-10 0 -22 -13q-10 -13 -12 -13q-10 0 -8 8l2 3q3 3 7.5 8.5t10.5 12.5l14 13q16 16 28 25q16 9 29 9z" />
    <glyph glyph-name="Ograve" unicode="&#xd2;" horiz-adv-x="741" 
d="M547 686q47 0 76 -12q19 -7 48 -34q4 -4 25 -21q5 -6 21.5 -24.5t19.5 -22.5q4 -6 8 -17l12 -30q2 -5 9 -22t9 -22q1 -1 1 -28q3 -17 6 -39q0 -4 -1.5 -12t-2.5 -13l-6 -40q0 -5 -10 -36l-8 -45q-2 -15 -12 -36q-7 -15 -36 -56l-22 -32l-51 -48q-18 -18 -69 -56
q-94 -52 -200 -52q-64 0 -94 10q-104 31 -139 144q-16 54 -21 95q-3 27 -1 54l9 54q1 1 3 20q8 37 34 85q13 24 52 72q1 1 6 7t18 21t25 29q57 49 126 77q49 21 66 23q2 1 43 4q40 3 56 3zM481 640q-19 -1 -41 -14l-43 -25q-24 -19 -59 -54q-4 -4 -34 -43l-19 -25l-13 -21
q-4 -6 -19 -31q-6 -12 -12 -43q0 -2 -1 -6t-2 -9.5t-2 -11.5l-6 -30l-16 -64q-5 -22 4 -109q0 -5 22 -36q8 -21 12 -27l24 -20q25 -22 37 -28q16 -5 45 -8q7 0 14 -0.5t10.5 -1t4.5 -0.5q43 0 76 21l52 30q11 8 30 30l1 2l3 3l4 4q24 26 68 85q9 16 16 40l4 15l15 69
q2 5 6 35q4 23 8 47q0 4 -1 11t-1 10q-2 40 -16 82q-9 23 -38 66q-6 11 -20 30q-3 4 -31 13q-17 8 -51 9zM480 833q6 0 17 -8q14 -21 31 -44q14 -16 21 -23q13 -16 10 -27q-1 -10 -13 -10l-4 1q-3 2 -11 5.5t-16 7.5l-38 12l-12 5q-15 5 -26 10q-11 9 -8 25q4 16 19 31
t30 15z" />
    <glyph glyph-name="Oacute" unicode="&#xd3;" horiz-adv-x="741" 
d="M547 686q47 0 76 -12q19 -7 48 -34q4 -4 25 -21q5 -6 21.5 -24.5t19.5 -22.5q4 -6 8 -17l12 -30q2 -5 9 -22t9 -22q1 -1 1 -28q3 -17 6 -39q0 -4 -1.5 -12t-2.5 -13l-6 -40q0 -5 -10 -36l-8 -45q-2 -15 -12 -36q-7 -15 -36 -56l-22 -32l-51 -48q-18 -18 -69 -56
q-94 -52 -200 -52q-64 0 -94 10q-104 31 -139 144q-16 54 -21 95q-3 27 -1 54l9 54q1 1 3 20q8 37 34 85q13 24 52 72q1 1 6 7t18 21t25 29q57 49 126 77q49 21 66 23q2 1 43 4q40 3 56 3zM481 640q-19 -1 -41 -14l-43 -25q-24 -19 -59 -54q-4 -4 -34 -43l-19 -25l-13 -21
q-4 -6 -19 -31q-6 -12 -12 -43q0 -2 -1 -6t-2 -9.5t-2 -11.5l-6 -30l-16 -64q-5 -22 4 -109q0 -5 22 -36q8 -21 12 -27l24 -20q25 -22 37 -28q16 -5 45 -8q7 0 14 -0.5t10.5 -1t4.5 -0.5q43 0 76 21l52 30q11 8 30 30l1 2l3 3l4 4q24 26 68 85q9 16 16 40l4 15l15 69
q2 5 6 35q4 23 8 47q0 4 -1 11t-1 10q-2 40 -16 82q-9 23 -38 66q-6 11 -20 30q-3 4 -31 13q-17 8 -51 9zM626 830q25 0 25 -20q0 -21 -17.5 -38t-39.5 -19l-17 -2q-1 0 -15.5 -4.5t-24.5 -8.5q-6 -1 -12 -4q-25 -11 -27 -11q-8 0 -6 8q61 49 90 74q24 25 44 25z" />
    <glyph glyph-name="Ocircumflex" unicode="&#xd4;" horiz-adv-x="741" 
d="M547 686q47 0 76 -12q19 -7 48 -34q4 -4 25 -21q5 -6 21.5 -24.5t19.5 -22.5q4 -6 8 -17l12 -30q2 -5 9 -22t9 -22q1 -1 1 -28q3 -17 6 -39q0 -4 -1.5 -12t-2.5 -13l-6 -40q0 -5 -10 -36l-8 -45q-2 -15 -12 -36q-7 -15 -36 -56l-22 -32l-51 -48q-18 -18 -69 -56
q-94 -52 -200 -52q-64 0 -94 10q-104 31 -139 144q-16 54 -21 95q-3 27 -1 54l9 54q1 1 3 20q8 37 34 85q13 24 52 72q1 1 6 7t18 21t25 29q57 49 126 77q49 21 66 23q2 1 43 4q40 3 56 3zM481 640q-19 -1 -41 -14l-43 -25q-24 -19 -59 -54q-4 -4 -34 -43l-19 -25l-13 -21
q-4 -6 -19 -31q-6 -12 -12 -43q0 -2 -1 -6t-2 -9.5t-2 -11.5l-6 -30l-16 -64q-5 -22 4 -109q0 -5 22 -36q8 -21 12 -27l24 -20q25 -22 37 -28q16 -5 45 -8q7 0 14 -0.5t10.5 -1t4.5 -0.5q43 0 76 21l52 30q11 8 30 30l1 2l3 3l4 4q24 26 68 85q9 16 16 40l4 15l15 69
q2 5 6 35q4 23 8 47q0 4 -1 11t-1 10q-2 40 -16 82q-9 23 -38 66q-6 11 -20 30q-3 4 -31 13q-17 8 -51 9zM555 842q7 0 11.5 -4t10.5 -18l12 -25l7 -14q4 -9 15 -49q2 -6 1 -10q-2 -8 -10 -8t-43 34q-15 36 -20 36q-12 0 -29 -23q-10 -15 -21 -21q-24 -16 -30 -21
q-11 -8 -17 -8t-5 10q6 6 19 23l17 21l17 19l9 13l20 19q6 9 15 21q7 5 21 5z" />
    <glyph glyph-name="Otilde" unicode="&#xd5;" horiz-adv-x="741" 
d="M547 686q47 0 76 -12q19 -7 48 -34q4 -4 25 -21q5 -6 21.5 -24.5t19.5 -22.5q4 -6 8 -17l12 -30q2 -5 9 -22t9 -22q1 -1 1 -28q3 -17 6 -39q0 -4 -1.5 -12t-2.5 -13l-6 -40q0 -5 -10 -36l-8 -45q-2 -15 -12 -36q-7 -15 -36 -56l-22 -32l-51 -48q-18 -18 -69 -56
q-94 -52 -200 -52q-64 0 -94 10q-104 31 -139 144q-16 54 -21 95q-3 27 -1 54l9 54q1 1 3 20q8 37 34 85q13 24 52 72q1 1 6 7t18 21t25 29q57 49 126 77q49 21 66 23q2 1 43 4q40 3 56 3zM481 640q-19 -1 -41 -14l-43 -25q-24 -19 -59 -54q-4 -4 -34 -43l-19 -25l-13 -21
q-4 -6 -19 -31q-6 -12 -12 -43q0 -2 -1 -6t-2 -9.5t-2 -11.5l-6 -30l-16 -64q-5 -22 4 -109q0 -5 22 -36q8 -21 12 -27l24 -20q25 -22 37 -28q16 -5 45 -8q7 0 14 -0.5t10.5 -1t4.5 -0.5q43 0 76 21l52 30q11 8 30 30l1 2l3 3l4 4q24 26 68 85q9 16 16 40l4 15l15 69
q2 5 6 35q4 23 8 47q0 4 -1 11t-1 10q-2 40 -16 82q-9 23 -38 66q-6 11 -20 30q-3 4 -31 13q-17 8 -51 9zM508 821q8 0 10 -1l11 -5.5t12 -5.5l15 -6q31 -19 41 -19q16 0 51 23q6 0 4 -8q-1 -6 -10 -13q-9 -9 -17 -18q-31 -36 -56 -36q-15 0 -26 4q-1 0 -4.5 2t-9.5 5l-12 6
l-19 6q-25 13 -39 13q-10 0 -22 -13q-10 -13 -12 -13q-10 0 -8 8l3 3q2 3 6.5 8.5t10.5 12.5l14 13q16 16 28 25q16 9 29 9z" />
    <glyph glyph-name="Odieresis" unicode="&#xd6;" horiz-adv-x="741" 
d="M547 686q47 0 76 -12q19 -7 48 -34q4 -4 25 -21q5 -6 21.5 -24.5t19.5 -22.5q4 -6 8 -17l12 -30q2 -5 9 -22t9 -22q1 -1 1 -28q3 -17 6 -39q0 -4 -1.5 -12t-2.5 -13l-6 -40q0 -5 -10 -36l-8 -45q-2 -15 -12 -36q-7 -15 -36 -56l-22 -32l-51 -48q-18 -18 -69 -56
q-94 -52 -200 -52q-64 0 -94 10q-104 31 -139 144q-16 54 -21 95q-3 27 -1 54l9 54q1 1 3 20q8 37 34 85q13 24 52 72q1 1 6 7t18 21t25 29q57 49 126 77q49 21 66 23q2 1 43 4q40 3 56 3zM481 640q-19 -1 -41 -14l-43 -25q-24 -19 -59 -54q-4 -4 -34 -43l-19 -25l-13 -21
q-4 -6 -19 -31q-6 -12 -12 -43q0 -2 -1 -6t-2 -9.5t-2 -11.5l-6 -30l-16 -64q-5 -22 4 -109q0 -5 22 -36q8 -21 12 -27l24 -20q25 -22 37 -28q16 -5 45 -8q7 0 14 -0.5t10.5 -1t4.5 -0.5q43 0 76 21l52 30q11 8 30 30l1 2l3 3l4 4q24 26 68 85q9 16 16 40l4 15l15 69
q2 5 6 35q4 23 8 47q0 4 -1 11t-1 10q-2 40 -16 82q-9 23 -38 66q-6 11 -20 30q-3 4 -31 13q-17 8 -51 9zM455 821q11 0 27 -15q9 -8 9 -14q-1 -2 -1 -7t-1 -8v-16q-1 -5 -9 -15q-17 -26 -46 -26q-17 0 -29.5 15t-8.5 32q3 17 19 30q29 24 40 24zM630 813q52 5 42 -48
q-3 -12 -9 -24q-3 -7 -21 -15q-15 -7 -25 -7q-29 0 -29 32q-3 16 9.5 39t32.5 23z" />
    <glyph glyph-name="multiply" unicode="&#xd7;" horiz-adv-x="461" 
d="M200 491q18 0 49 -40l9 -12q8 -8 12 -16q20 -39 44 -39q6 0 32 23q10 10 18 16q15 14 47 42q35 30 47 30q9 0 18 -13t7 -23q-1 -5 -6 -9l-27 -23q-35 -31 -47 -41q-51 -40 -54 -55q-2 -11 17 -33q19 -19 28 -29q2 -2 32 -36q21 -24 19 -32t-12 -8h-11q-6 0 -8 -2l-9 -7
q-1 -1 -21 -1q-6 0 -40 46q-3 7 -10 13q-12 14 -15 18q-13 24 -22 24q-10 0 -26 -13q-2 -1 -5 -4t-9 -8t-11 -10l-28 -24l-33 -31q-32 -20 -37 -20q-8 0 -9 4l-8 10q-17 14 -16 20q1 8 38 37l37 29q25 23 26 24q6 3 11 6t8 5t4 2q13 9 14 19q1 5 -1 9l-16 19q-1 2 -6 10.5
t-8 13.5q-5 5 -10 11l-9 9l-20 20q-23 36 -21 42q2 8 9 15q13 12 29 12z" />
    <glyph glyph-name="Oslash" unicode="&#xd8;" horiz-adv-x="741" 
d="M547 686q73 0 104 -24q8 -7 13 -7q7 0 17 16q3 6 8 13l26 31q10 15 17.5 20.5t21.5 5.5q11 0 16.5 -3.5t3.5 -10.5q-3 -13 -51 -66l-7 -12q-9 -16 -10 -17q-4 -18 26 -51l13 -26l12 -30q2 -5 9 -22t9 -22q1 -1 1 -28q3 -18 6 -39q0 -4 -1.5 -12t-2.5 -13l-6 -40
q0 -5 -10 -36l-8 -46q-8 -36 -48 -91l-22 -32l-19 -19l-14 -12l-18 -17q-38 -38 -69 -56q-94 -52 -200 -52q-63 0 -94 10q-9 1 -38 13q-4 2 -6 2q-7 0 -13 -6t-26 -31q-8 -9 -12 -15q-23 -30 -40 -30q-29 0 -26 13q0 3 28 34l18 24q26 29 27 37q2 8 -4 15l-12 15
q-32 51 -46 113q-12 56 -12 87q0 4 2 30l8 46q1 3 3 20q8 38 34 85q13 25 22 36l30 36q39 48 49 57q57 49 126 77q49 21 66 23q2 1 43 4q40 3 56 3zM481 640q-19 -1 -41 -14l-43 -25q-24 -19 -59 -54q-4 -4 -34 -43l-19 -25l-13 -21q-4 -6 -19 -31q-5 -10 -13 -44
q0 -2 -0.5 -5.5t-1.5 -9.5t-2 -11l-6 -30l-17 -67q-2 -15 2 -64l2 -31q0 -10 1 -11q1 -8 10 -19.5t15 -11.5q9 0 30 26l20 25l20 22l16 26l32 35q52 70 64 84q10 10 17 18l39 55l25 27l17 25q4 5 49 63q2 2 8 10t9 13q0 1 1.5 2.5l3 3t2.5 3.5q9 9 11 18q1 7 -6 24l-7 11
q-5 3 -40 15q-14 5 -42 6zM638 537q-9 0 -27 -24l-8 -11l-61 -79q-17 -22 -53 -64l-33 -46q-1 -1 -7 -8.5t-20.5 -25.5t-28.5 -35q-1 -2 -4 -6t-8 -13t-10 -16q-1 -4 -21 -25l-7 -10l-24 -25q-7 -7 -17 -23q-3 -3 -21 -27q-7 -10 -9 -16q-4 -21 28 -37q15 -8 25 -9
q2 0 5.5 -0.5t10 -1t11.5 -0.5q6 0 12.5 -0.5t10 -1t5.5 -0.5q43 0 76 21q16 10 52 30q11 6 30 30l1 2l3 3l4 4q24 26 68 85q9 16 16 40l4 15l5 26q2 13 6 24l4 19q2 5 6 35q4 23 8 47q-1 3 -1.5 10t-0.5 11q0 23 -17 80l-2 8q-5 14 -11 14z" />
    <glyph glyph-name="Ugrave" unicode="&#xd9;" horiz-adv-x="699" 
d="M621 626l-18 15q-14 11 -12 16q1 10 28 10q18 0 42 -4q18 -2 28 -2q1 0 14 1t17 1h44l27 1q9 0 13 -3t2 -10q-1 -11 -31 -34l-13 -7q-4 -1 -12 -5q-10 -6 -28 -34q-9 -15 -21 -81l-18 -94l-7 -22l-4 -20l-7 -26l-16 -67q-3 -24 -5 -39q0 -2 -0.5 -6.5t-1.5 -6.5
q-3 -19 -15 -44q-8 -18 -8 -21q-1 -1 -4 -8t-6 -13q-2 -3 -5.5 -9.5t-5.5 -11.5q-16 -30 -37 -48q-59 -54 -96 -60q-18 -4 -27 -5q-8 0 -45 -3q-8 -1 -24.5 -2.5t-18.5 -1.5q-36 0 -65 9q-66 19 -85 29q-16 9 -36 41l-1 2q-1 2 -3 5l-4 6q-16 25 -17 38q-5 36 4 76l1 7l7 28
l6 34v22q0 2 2.5 14t4.5 22q1 5 7 36q12 56 26 86l3 6l4 58l7 21l3 14q5 28 5 43q0 40 -22 50q-15 7 -19 13q-2 2 -1 7q3 12 27 14l24 1h11q3 -1 9 -1q4 0 11 1h18h30q18 0 31 1q16 1 31 1l38 1q14 0 20.5 -4.5t4.5 -14.5q-1 -7 -10 -16q-2 -2 -28 -10q-41 -14 -60 -41
q-9 -14 -17 -46q-5 -20 -12 -55l-3 -22q0 -2 -1.5 -12t-2.5 -18q-5 -18 -9 -31l-2 -12q-1 -5 -4 -14.5t-5 -16.5l-3 -8q-1 -3 -2 -10.5t-1 -11.5q-1 -22 -8 -50l-6 -31l-5 -18q-19 -68 -11 -92q16 -46 19 -53q5 -8 26 -20q3 -1 23 -18q7 -7 15 -7q11 0 42 6q1 1 5 1l49 -2
q17 2 53 15q38 19 48 30q11 11 31 38q27 37 28 39q0 1 2 7t5 17t6 23l16 55l24 92l3 25l12 60l6 23q0 2 -1 3q2 16 3 25q0 6 -4 26q-1 4 3 49q0 11 -4 18l-17 16q-3 3 -14 25zM478 833q6 0 17 -8q14 -21 31 -44q14 -16 21 -23q13 -16 10 -27q-1 -10 -13 -10l-4 1
q-3 2 -11 5.5t-16 7.5l-38 12l-12 5q-15 5 -26 10q-11 9 -8 25q4 16 19 31t30 15z" />
    <glyph glyph-name="Uacute" unicode="&#xda;" horiz-adv-x="699" 
d="M621 626l-18 15q-14 11 -12 16q1 10 28 10q18 0 42 -4q18 -2 28 -2q1 0 14 1t17 1h44l27 1q9 0 13 -3t2 -10q-1 -11 -31 -34l-13 -7q-4 -1 -12 -5q-10 -6 -28 -34q-9 -15 -21 -81l-18 -94l-7 -22l-4 -20l-7 -26l-16 -67q-3 -24 -5 -39q0 -2 -0.5 -6.5t-1.5 -6.5
q-3 -19 -15 -44q-8 -18 -8 -21q-1 -1 -4 -8t-6 -13q-2 -3 -5.5 -9.5t-5.5 -11.5q-16 -30 -37 -48q-59 -54 -96 -60q-18 -4 -27 -5q-8 0 -45 -3q-8 -1 -24.5 -2.5t-18.5 -1.5q-36 0 -65 9q-66 19 -85 29q-16 9 -36 41l-1 2q-1 2 -3 5l-4 6q-16 25 -17 38q-5 36 4 76l1 7l7 28
l6 34v22q0 2 2.5 14t4.5 22q1 5 7 36q12 56 26 86l3 6l4 58l7 21l3 14q5 28 5 43q0 40 -22 50q-15 7 -19 13q-2 2 -1 7q3 12 27 14l24 1h11q3 -1 9 -1q4 0 11 1h18h30q18 0 31 1q16 1 31 1l38 1q14 0 20.5 -4.5t4.5 -14.5q-1 -7 -10 -16q-2 -2 -28 -10q-41 -14 -60 -41
q-9 -14 -17 -46q-5 -20 -12 -55l-3 -22q0 -2 -1.5 -12t-2.5 -18q-5 -18 -9 -31l-2 -12q-1 -5 -4 -14.5t-5 -16.5l-3 -8q-1 -3 -2 -10.5t-1 -11.5q-1 -22 -8 -50l-6 -31l-5 -18q-19 -68 -11 -92q16 -46 19 -53q5 -8 26 -20q3 -1 23 -18q7 -7 15 -7q11 0 42 6q1 1 5 1l49 -2
q17 2 53 15q38 19 48 30q11 11 31 38q27 37 28 39q0 1 2 7t5 17t6 23l16 55l24 92l3 25l12 60l6 23q0 2 -1 3q2 16 3 25q0 6 -4 26q-1 4 3 49q0 11 -4 18l-17 16q-3 3 -14 25zM624 830q25 0 25 -20q0 -21 -17.5 -38t-39.5 -19l-17 -2q-1 0 -15.5 -4.5t-24.5 -8.5
q-6 -1 -12 -4q-25 -11 -27 -11q-8 0 -6 8q61 49 90 74q24 25 44 25z" />
    <glyph glyph-name="Ucircumflex" unicode="&#xdb;" horiz-adv-x="699" 
d="M621 626l-18 15q-14 11 -12 16q1 10 28 10q18 0 42 -4q18 -2 28 -2q1 0 14 1t17 1h44l27 1q9 0 13 -3t2 -10q-1 -11 -31 -34l-13 -7q-4 -1 -12 -5q-10 -6 -28 -34q-9 -15 -21 -81l-18 -94l-7 -22l-4 -20l-7 -26l-16 -67q-3 -24 -5 -39q0 -2 -0.5 -6.5t-1.5 -6.5
q-3 -19 -15 -44q-8 -18 -8 -21q-1 -1 -4 -8t-6 -13q-2 -3 -5.5 -9.5t-5.5 -11.5q-16 -30 -37 -48q-59 -54 -96 -60q-18 -4 -27 -5q-8 0 -45 -3q-8 -1 -24.5 -2.5t-18.5 -1.5q-36 0 -65 9q-66 19 -85 29q-16 9 -36 41l-1 2q-1 2 -3 5l-4 6q-16 25 -17 38q-5 36 4 76l1 7l7 28
l6 34v22q0 2 2.5 14t4.5 22q1 5 7 36q12 56 26 86l3 6l4 58l7 21l3 14q5 28 5 43q0 40 -22 50q-15 7 -19 13q-2 2 -1 7q3 12 27 14l24 1h11q3 -1 9 -1q4 0 11 1h18h30q18 0 31 1q16 1 31 1l38 1q14 0 20.5 -4.5t4.5 -14.5q-1 -7 -10 -16q-2 -2 -28 -10q-41 -14 -60 -41
q-9 -14 -17 -46q-5 -20 -12 -55l-3 -22q0 -2 -1.5 -12t-2.5 -18q-5 -18 -9 -31l-2 -12q-1 -5 -4 -14.5t-5 -16.5l-3 -8q-1 -3 -2 -10.5t-1 -11.5q-1 -22 -8 -50l-6 -31l-5 -18q-19 -68 -11 -92q16 -46 19 -53q5 -8 26 -20q3 -1 23 -18q7 -7 15 -7q11 0 42 6q1 1 5 1l49 -2
q17 2 53 15q38 19 48 30q11 11 31 38q27 37 28 39q0 1 2 7t5 17t6 23l16 55l24 92l3 25l12 60l6 23q0 2 -1 3q2 16 3 25q0 6 -4 26q-1 4 3 49q0 11 -4 18l-17 16q-3 3 -14 25zM554 842q7 0 11.5 -4t10.5 -18l12 -25l7 -14q3 -9 15 -49q2 -6 1 -10q-2 -8 -10 -8t-43 34
q-15 36 -20 36q-12 0 -29 -23q-11 -15 -21 -21q-24 -16 -30 -21q-11 -8 -17 -8t-5 10q6 6 19 23l17 21l17 19l9 13l20 19q6 9 15 21q7 5 21 5z" />
    <glyph glyph-name="Udieresis" unicode="&#xdc;" horiz-adv-x="699" 
d="M621 626l-18 15q-14 11 -12 16q1 10 28 10q18 0 42 -4q18 -2 28 -2q1 0 14 1t17 1h44l27 1q9 0 13 -3t2 -10q-1 -11 -31 -34l-13 -7q-4 -1 -12 -5q-10 -6 -28 -34q-9 -15 -21 -81l-18 -94l-7 -22l-4 -20l-7 -26l-16 -67q-3 -24 -5 -39q0 -2 -0.5 -6.5t-1.5 -6.5
q-3 -19 -15 -44q-8 -18 -8 -21q-1 -1 -4 -8t-6 -13q-2 -3 -5.5 -9.5t-5.5 -11.5q-16 -30 -37 -48q-59 -54 -96 -60q-18 -4 -27 -5q-8 0 -45 -3q-8 -1 -24.5 -2.5t-18.5 -1.5q-36 0 -65 9q-66 19 -85 29q-16 9 -36 41l-1 2q-1 2 -3 5l-4 6q-16 25 -17 38q-5 36 4 76l1 7l7 28
l6 34v22q0 2 2.5 14t4.5 22q1 5 7 36q12 56 26 86l3 6l4 58l7 21l3 14q5 28 5 43q0 40 -22 50q-15 7 -19 13q-2 2 -1 7q3 12 27 14l24 1h11q3 -1 9 -1q4 0 11 1h18h30q18 0 31 1q16 1 31 1l38 1q14 0 20.5 -4.5t4.5 -14.5q-1 -7 -10 -16q-2 -2 -28 -10q-41 -14 -60 -41
q-9 -14 -17 -46q-5 -20 -12 -55l-3 -22q0 -2 -1.5 -12t-2.5 -18q-5 -18 -9 -31l-2 -12q-1 -5 -4 -14.5t-5 -16.5l-3 -8q-1 -3 -2 -10.5t-1 -11.5q-1 -22 -8 -50l-6 -31l-5 -18q-19 -68 -11 -92q16 -46 19 -53q5 -8 26 -20q3 -1 23 -18q7 -7 15 -7q11 0 42 6q1 1 5 1l49 -2
q17 2 53 15q38 19 48 30q11 11 31 38q27 37 28 39q0 1 2 7t5 17t6 23l16 55l24 92l3 25l12 60l6 23q0 2 -1 3q2 16 3 25q0 6 -4 26q-1 4 3 49q0 11 -4 18l-17 16q-3 3 -14 25zM458 821q10 0 27 -15q9 -8 9 -14q0 -2 -1 -7t-1 -8v-16q-2 -5 -9 -15q-17 -26 -46 -26
q-17 0 -29.5 15t-8.5 32q3 17 19 30q28 24 40 24zM633 813q53 5 42 -48q-3 -12 -9 -24q-3 -7 -21 -15q-15 -7 -25 -7q-29 0 -29 32q-3 16 9.5 39t32.5 23z" />
    <glyph glyph-name="Yacute" unicode="&#xdd;" horiz-adv-x="567" 
d="M298 0h-6q-8 0 -15.5 -0.5t-11.5 -1.5h-4q-7 0 -10 1q-10 1 -19 1l-13 -1h-23q-22 0 -21 9t9 12l24 10q15 8 35 34q25 26 27 36l1 5q3 15 3 17l15 59q4 18 13 45q1 2 3 8l7 54q4 24 5 38q-1 9 -15 42q-6 14 -21 59q-11 19 -16 27q-12 21 -19 41q0 3 -13 33q-17 42 -20 45
l-16 19l-14 20l-12 13q-22 17 -24.5 20t-1.5 9q1 3 6 8q13 1 40 3l34 3q8 0 28 -4q3 0 19 1.5t19 1.5l22 -2q1 -1 23 -1q29 0 26 -16q-2 -6 -10 -13l-19 -17q-12 -12 -13 -21q-3 -14 19 -63q9 -25 31 -55q3 -8 10 -25l10 -22q7 -28 13 -28q29 0 92 92q14 20 19 25
q14 14 30 31q15 15 18 28q3 15 -4 31q0 1 -3 5t-5 8q-7 7 -15 14q-4 2 -2 10q3 16 32 16h10q7 0 19 -1l11 -1q3 0 16.5 2t18.5 2q15 0 39 -4q27 -4 24 -18q-2 -9 -8 -14q-5 -4 -37 -19q-13 -6 -43 -33q-3 -2 -27 -24q-8 -7 -33 -43l-20 -22l-15 -17l-15 -17l-48 -54
q-22 -19 -31 -36q-10 -18 -17 -54l-14 -65q-7 -24 -9 -28q0 -12 -3 -33l-19 -77q-6 -24 -1 -44q5 -17 22 -36q14 -14 12 -23q-1 -7 -9 -6l-22 1q-11 -2 -21 -1zM558 830q25 0 25 -20q0 -21 -17.5 -38t-39.5 -19l-17 -2q-1 0 -15.5 -4.5t-24.5 -8.5q-6 -1 -12 -4
q-25 -11 -27 -11q-8 0 -6 8q61 49 90 74q24 25 44 25z" />
    <glyph glyph-name="Thorn" unicode="&#xde;" horiz-adv-x="499" 
d="M217 671l59 -3q32 4 49 4q22 0 31.5 -6t7.5 -19q-2 -6 -15 -15q-18 -12 -26 -23q-17 -31 -22 -56q-2 -12 -2 -13q2 -5 5 -4l12 1l10 -1l5 1l27 -1q6 0 14.5 -0.5t13.5 -1t8 -0.5l8 -2q8 -3 15 -5q75 -6 107 -116q8 -28 7 -40q-2 -24 -5 -36q-17 -76 -75 -119
q-44 -38 -72 -46l-20 -5q-37 -9 -40 -9l-21 1l-32 -4l-26 2q-20 1 -27 -33q-3 -16 -4 -27q-1 -6 -1 -12l6 -17q3 -15 12 -29.5t8 -20.5q-3 -16 -13 -16h-31q-13 -1 -25 -1h-1q-2 0 -8 0.5t-13 0.5h-44q-16 0 -33 5q-8 5 -6 15q1 5 5 9l31 22q8 8 17 32l15 43l1 7q1 2 3 18.5
t2 18.5q3 16 12 44q9 30 12 45l8 59l9 32q1 4 3 20l21 102q2 10 2 12q1 16 6 51l10 54q5 23 -15 42q-14 14 -12 22q3 17 27 18zM375 488l-23 -1l-19 1q-20 2 -43 -28q-14 -17 -17 -33q-1 -2 -3 -15.5t-2 -15.5q-2 -5 -5.5 -19.5t-5.5 -21.5l-5 -28l-8 -24q-8 -23 -8 -36
q0 -9 -1 -16q-1 -20 2 -35q6 -22 24 -20l34 6q28 2 35 3q22 8 45 31q1 2 3.5 4t9 9t16.5 19l18 42q12 29 13 30q2 4 2 26q0 4 5 41q1 12 -8.5 26t-41.5 49q-7 4 -17 6z" />
    <glyph glyph-name="germandbls" unicode="&#xdf;" horiz-adv-x="481" 
d="M164 409q10 47 45 105q1 3 30 35q29 31 34 37q35 33 118 33q38 0 62.5 -23t24.5 -60q0 -34 -3 -62q-2 -13 -26 -40q-19 -22 -33 -34q-5 -4 -16.5 -11.5t-17.5 -10.5q-21 -15 -21 -31q0 -6 5 -11q2 -2 32 -22q31 -19 57 -50q30 -38 30 -69q0 -3 -1 -12t-1 -12
q0 -32 -30 -89q-20 -39 -65 -61q-4 -3 -37 -20q-11 -3 -50 -4q-2 0 -10.5 -1t-11.5 -1q-28 0 -53 14q-28 16 -28 45q0 21 17 46q16 25 38 25q33 0 33 -20q0 -3 -20 -63q-1 -3 6 -7t16 -6.5t14 -2.5q45 0 69 82q11 38 11 45q0 9 -1 16v17q0 4 1.5 14.5t1.5 12.5q0 27 -41 80
q-14 10 -27 23q-5 8 -5 18q0 22 15 39q19 22 24 32q45 47 45 94q0 70 -46 70q-29 0 -67 -44q-9 -13 -25 -83q0 -2 -2 -24q-4 -24 -21 -82q-1 -2 -8 -39q-22 -87 -80 -301q-21 -74 -28 -95q-16 -51 -35 -93q-28 -63 -70 -92q-34 -25 -78 -25t-44 35q0 46 34 46q24 0 30 -16
q4 -16 16 -16q18 0 28 25l17 40q1 4 4.5 18.5t6.5 24.5l72 283q7 24 22 93q1 8 3 21q4 15 13 45q8 29 8 46v2q-5 8 -13 11l-31 -1q-7 0 -7 8q0 12 29 21q18 5 41 32z" />
    <glyph glyph-name="agrave" unicode="&#xe0;" horiz-adv-x="334" 
d="M156 340q10 7 35 14l14 6q21 8 28 8q35 0 52 -6q23 -9 39 -45q8 -17 2 -42q0 -1 -0.5 -3.5t-1.5 -7t-2 -7.5l-29 -129q-4 -21 -5 -28q0 -12 7 -26t15 -16l14 -6q2 -2 1 -5q-1 -5 -22 -26q-29 -27 -52 -27q-6 0 -19 5q-19 18 -26 18q17 0 -7 -7q-7 -2 -18 -5
q-49 -11 -64 -11q-45 0 -70 31q-6 8 -5 23v10q0 10 1 14v3l1 3l4 12t6 21q29 103 33 115q35 98 69 114zM185 302l-32 -65q-8 -17 -19 -76q-2 -12 -6 -34t-6 -34q-5 -21 11 -34.5t41 -13.5q32 0 47 51q1 6 17 52l2 8l3 20l15 89q2 12 -8 35q-8 18 -19 20h-13q-15 -2 -33 -18z
M209 519q8 0 18 -7q2 -2 5.5 -7t11 -15.5t14.5 -19.5l21 -21q13 -13 11 -26q-1 -10 -12 -10q-7 0 -32 13l-51 16q-19 6 -27.5 14.5t-6.5 18.5q3 16 18.5 30t29.5 14z" />
    <glyph glyph-name="aacute" unicode="&#xe1;" horiz-adv-x="334" 
d="M156 340q10 7 35 14l14 6q21 8 28 8q35 0 52 -6q23 -9 39 -45q8 -17 2 -42q0 -1 -0.5 -3.5t-1.5 -7t-2 -7.5l-29 -129q-4 -21 -5 -28q0 -12 7 -26t15 -16l14 -6q2 -2 1 -5q-1 -5 -22 -26q-29 -27 -52 -27q-6 0 -19 5q-19 18 -26 18q17 0 -7 -7q-7 -2 -18 -5
q-49 -11 -64 -11q-45 0 -70 31q-6 8 -5 23v10q0 10 1 14v3l1 3l4 12t6 21q29 103 33 115q35 98 69 114zM185 302l-32 -65q-8 -17 -19 -76q-2 -12 -6 -34t-6 -34q-5 -21 11 -34.5t41 -13.5q32 0 47 51q1 6 17 52l2 8l3 20l15 89q2 12 -8 35q-8 18 -19 20h-13q-15 -2 -33 -18z
M354 510q25 0 25 -20q0 -26 -27 -42q-15 -9 -29 -11l-18 -2q-16 -4 -25 -7q-21 -7 -49 -19q-1 -1 -2 -1q-9 0 -8 9q1 6 27 21q1 0 55 43q37 29 51 29z" />
    <glyph glyph-name="acircumflex" unicode="&#xe2;" horiz-adv-x="334" 
d="M156 340q10 7 35 14l14 6q21 8 28 8q35 0 52 -6q23 -9 39 -45q8 -17 2 -42q0 -1 -0.5 -3.5t-1.5 -7t-2 -7.5l-29 -129q-4 -21 -5 -28q0 -12 7 -26t15 -16l14 -6q2 -2 1 -5q-1 -5 -22 -26q-29 -27 -52 -27q-6 0 -19 5q-19 18 -26 18q17 0 -7 -7q-7 -2 -18 -5
q-49 -11 -64 -11q-45 0 -70 31q-6 8 -5 23v10q0 10 1 14v3l1 3l4 12t6 21q29 103 33 115q35 98 69 114zM185 302l-32 -65q-8 -17 -19 -76q-2 -12 -6 -34t-6 -34q-5 -21 11 -34.5t41 -13.5q32 0 47 51q1 6 17 52l2 8l3 20l15 89q2 12 -8 35q-8 18 -19 20h-13q-15 -2 -33 -18z
M285 528q7 0 13 -3q0 -3 9 -19l19 -36q8 -20 11 -29l4 -18q3 -5 2 -9q-2 -8 -11 -8q-4 0 -42 32q-18 34 -21 34q-13 0 -29 -22q-11 -14 -27 -23q-6 -2 -22 -15q-13 -9 -17 -9q-6 0 -5 10q1 3 18 21l16 21l17 18l9 12l20 18q12 18 17.5 21.5t18.5 3.5z" />
    <glyph glyph-name="atilde" unicode="&#xe3;" horiz-adv-x="334" 
d="M156 340q10 7 35 14l14 6q21 8 28 8q35 0 52 -6q23 -9 39 -45q8 -17 2 -42q0 -1 -0.5 -3.5t-1.5 -7t-2 -7.5l-29 -129q-4 -21 -5 -28q0 -12 7 -26t15 -16l14 -6q2 -2 1 -5q-1 -5 -22 -26q-29 -27 -52 -27q-6 0 -19 5q-19 18 -26 18q17 0 -7 -7q-7 -2 -18 -5
q-49 -11 -64 -11q-45 0 -70 31q-6 8 -5 23v10q0 10 1 14v3l1 3l4 12t6 21q29 103 33 115q35 98 69 114zM185 302l-32 -65q-8 -17 -19 -76q-2 -12 -6 -34t-6 -34q-5 -21 11 -34.5t41 -13.5q32 0 47 51q1 6 17 52l2 8l3 20l15 89q2 12 -8 35q-8 18 -19 20h-13q-15 -2 -33 -18z
M233 496q13 0 35 -13l16 -5q35 -20 39 -20q17 0 51 21q7 0 4 -7l-3 -4q-3 -3 -9 -10t-14 -15q-8 -9 -26 -25q-18 -8 -29 -8q-5 0 -27 5q-5 1 -25 12q-35 19 -57 19q-9 0 -36 -24q-8 0 -7 9q1 7 15 18l19 15q32 32 54 32z" />
    <glyph glyph-name="adieresis" unicode="&#xe4;" horiz-adv-x="334" 
d="M156 340q10 7 35 14l14 6q21 8 28 8q35 0 52 -6q23 -9 39 -45q8 -17 2 -42q0 -1 -0.5 -3.5t-1.5 -7t-2 -7.5l-29 -129q-4 -21 -5 -28q0 -12 7 -26t15 -16l14 -6q2 -2 1 -5q-1 -5 -22 -26q-29 -27 -52 -27q-6 0 -19 5q-19 18 -26 18q17 0 -7 -7q-7 -2 -18 -5
q-49 -11 -64 -11q-45 0 -70 31q-6 8 -5 23v10q0 10 1 14v3l1 3l4 12t6 21q29 103 33 115q35 98 69 114zM185 302l-32 -65q-8 -17 -19 -76q-2 -12 -6 -34t-6 -34q-5 -21 11 -34.5t41 -13.5q32 0 47 51q1 6 17 52l2 8l3 20l15 89q2 12 -8 35q-8 18 -19 20h-13q-15 -2 -33 -18z
M210 497q8 0 21 -11q1 -2 3 -15q1 -21 0 -22q-3 -17 -18 -29q-7 -7 -17 -7q-39 0 -40 28q-1 5 -1 17q4 19 13 26q16 13 39 13zM321 496q18 0 30 -13t8 -30q-3 -14 -29 -34q-16 -11 -21 -11q-17 0 -34 17q-4 4 -2 21v14q5 19 23 30q9 6 25 6z" />
    <glyph glyph-name="aring" unicode="&#xe5;" horiz-adv-x="334" 
d="M156 340q10 7 35 14l14 6q21 8 28 8q35 0 52 -6q23 -9 39 -45q8 -17 2 -42q0 -1 -0.5 -3.5t-1.5 -7t-2 -7.5l-29 -129q-4 -21 -5 -28q0 -12 7 -26t15 -16l14 -6q2 -2 1 -5q-1 -5 -22 -26q-29 -27 -52 -27q-6 0 -19 5q-19 18 -26 18q17 0 -7 -7q-7 -2 -18 -5
q-49 -11 -64 -11q-45 0 -70 31q-6 8 -5 23v10q0 10 1 14v3l1 3l4 12t6 21q29 103 33 115q35 98 69 114zM185 302l-32 -65q-8 -17 -19 -76q-2 -12 -6 -34t-6 -34q-5 -21 11 -34.5t41 -13.5q32 0 47 51q1 6 17 52l2 8l3 20l15 89q2 12 -8 35q-8 18 -19 20h-13q-15 -2 -33 -18z
M284 525q6 1 22 -6.5t21 -14.5q5 -5 7 -22l1 -13q-6 -26 -29.5 -44.5t-51.5 -18.5q-43 0 -43 42q0 44 48 69q18 8 25 8zM274 495q-9 0 -18.5 -9t-11.5 -19q-4 -18 13 -29l15 1q13 2 23 15q6 11 7 13q3 10 -6.5 19t-21.5 9z" />
    <glyph glyph-name="ae" unicode="&#xe6;" horiz-adv-x="515" 
d="M230 320h-22q-7 -2 -23 -18q-29 -25 -44 -25q-18 0 -13 23q4 22 28 40q10 7 35 14l14 6q18 8 28 8q39 0 53 -6q18 -7 30 -29q7 -13 13 -13q7 0 20 10q49 37 93 37q51 0 85 -39q24 -28 24 -52q0 -45 -40 -45q-1 0 -12 1t-13 1q-7 0 -28.5 -1.5t-27.5 -1.5h-15
q-6 0 -27.5 2t-27.5 2q-20 0 -37 -13q-8 -6 -11 -20q0 -1 -2 -17q-4 -40 -3 -44q3 -15 30 -42q29 -30 63 -30q52 0 89 19q6 2 7 2q7 0 5 -8q-2 -7 -7 -13q0 -2 -3 -8q-10 -20 -24 -31q-2 -1 -7.5 -5t-8.5 -6q-40 -25 -96 -25q-10 0 -36 8q-9 3 -23 11q-6 5 -17 23
q-8 14 -16 14q-13 0 -66 -34q-35 -22 -80 -22q-44 0 -70 32q-4 9 -5 41l1 5q9 43 19 59q15 25 74 58q12 7 50 21q30 11 48 23q21 16 24 33q2 10 -8 35q-8 19 -20 20zM420 331q-23 0 -44.5 -15t-25.5 -35q-1 -10 6 -13q16 -6 91 -6q26 0 29 15q4 18 -8 33.5t-30 18.5
q-10 2 -18 2zM245 204q-11 0 -35 -18q-3 -2 -10 -7l-17 -11q-17 -10 -21 -14q-34 -31 -40 -61q-5 -21 8 -31q20 -17 45 -17q15 0 29 10q39 25 42 40q0 7 -1 16q-3 21 4 65q3 16 3 20q0 8 -7 8z" />
    <glyph glyph-name="ccedilla" unicode="&#xe7;" horiz-adv-x="339" 
d="M314 57q4 0 5.5 -1.5t0.5 -3.5q-1 -3 -15 -14l-22 -16l-34 -21q-2 0 -17.5 -3.5t-24 -7t-9.5 -8.5q-2 -8 1 -9l19 -9q3 -1 8 -12.5t4 -14.5l-8 -20l-2 -14q-2 -9 -14 -19q-31 -23 -48 -23q-26 0 -34.5 5t-18.5 21q-7 9 -5 21q2 6 10 13t14 7q7 0 14 -22q3 -8 29 -8
q22 0 22 27q0 7 -3 8l-25 14q-5 3 -3 12q1 2 4 16q2 4 5 17q2 8 -8 8q-31 4 -64 39l-6 9l-1 2q-2 3 -4.5 8.5t-5.5 10.5q-8 15 -12 30q0 16 1 40q0 12 2 54q14 62 66 113q51 51 116 59q2 1 45 1q33 0 42 -3q52 -16 43 -64q-3 -12 -13.5 -21.5t-21.5 -9.5q-27 0 -51 39
q-2 4 -4 6.5t-3.5 4.5t-4 3.5t-4 3t-5.5 2t-5.5 1t-7 0.5t-7.5 0.5t-9.5 0.5h-10.5q-21 -2 -49 -33q-20 -22 -34 -82q0 -3 -2 -17l-6 -26q1 3 3 -4q4 -12 11 -52q11 -49 38 -69q17 -12 26 -11h13q17 0 47 8q5 2 17 7t16 7z" />
    <glyph glyph-name="egrave" unicode="&#xe8;" horiz-adv-x="328" 
d="M256 367q58 0 95 -54q17 -24 12 -47q-8 -35 -39 -35q-2 0 -13 1t-12 1q-7 0 -28.5 -1.5t-27.5 -1.5h-15q-6 0 -27.5 2t-27.5 2q-20 0 -37 -13q-8 -6 -11 -20q-2 -5 -3 -17q-4 -37 -2 -44q4 -16 30 -42q19 -19 31 -24q16 -6 32 -6q19 0 61 9q17 4 28 10q6 2 7 2q7 0 5 -8
q-2 -7 -7 -13l-3 -8q-9 -19 -24 -31q-5 -5 -16 -11q-40 -25 -96 -25q-12 0 -36 8q-21 9 -23 11q-17 13 -47 88q-5 45 -1 61q3 7 15 39q24 65 48 88q9 11 43 45q46 34 89 34zM233 331q-27 0 -51 -21q-16 -13 -19 -29q-1 -10 6 -13q17 -6 91 -6q26 0 29 15q5 23 -12.5 38.5
t-43.5 15.5zM239 519q8 0 18 -7l4 -4q3 -5 11 -16l16 -22l21 -21q13 -13 11 -26q-1 -10 -12 -10q-6 0 -32 13l-51 16q-14 4 -20.5 7t-11 9.5t-2.5 16.5q3 16 18.5 30t29.5 14z" />
    <glyph glyph-name="eacute" unicode="&#xe9;" horiz-adv-x="328" 
d="M256 367q58 0 95 -54q17 -24 12 -47q-8 -35 -39 -35q-2 0 -13 1t-12 1q-7 0 -28.5 -1.5t-27.5 -1.5h-15q-6 0 -27.5 2t-27.5 2q-20 0 -37 -13q-8 -6 -11 -20q-2 -5 -3 -17q-4 -37 -2 -44q4 -16 30 -42q19 -19 31 -24q16 -6 32 -6q19 0 61 9q17 4 28 10q6 2 7 2q7 0 5 -8
q-2 -7 -7 -13l-3 -8q-9 -19 -24 -31q-5 -5 -16 -11q-40 -25 -96 -25q-12 0 -36 8q-21 9 -23 11q-17 13 -47 88q-5 45 -1 61q3 7 15 39q24 65 48 88q9 11 43 45q46 34 89 34zM233 331q-27 0 -51 -21q-16 -13 -19 -29q-1 -10 6 -13q17 -6 91 -6q26 0 29 15q5 23 -12.5 38.5
t-43.5 15.5zM377 510q25 0 25 -20q0 -26 -27 -42q-16 -10 -29 -11l-18 -2q-12 -3 -25 -7q-2 -1 -6 -2t-8 -2.5t-13.5 -5.5t-21.5 -9q-1 -1 -2 -1q-10 0 -8 9q2 6 27 21q4 2 55 43q37 29 51 29z" />
    <glyph glyph-name="ecircumflex" unicode="&#xea;" horiz-adv-x="328" 
d="M256 367q58 0 95 -54q17 -24 12 -47q-8 -35 -39 -35q-2 0 -13 1t-12 1q-7 0 -28.5 -1.5t-27.5 -1.5h-15q-6 0 -27.5 2t-27.5 2q-20 0 -37 -13q-8 -6 -11 -20q-2 -5 -3 -17q-4 -37 -2 -44q4 -16 30 -42q19 -19 31 -24q16 -6 32 -6q19 0 61 9q17 4 28 10q6 2 7 2q7 0 5 -8
q-2 -7 -7 -13l-3 -8q-9 -19 -24 -31q-5 -5 -16 -11q-40 -25 -96 -25q-12 0 -36 8q-21 9 -23 11q-17 13 -47 88q-5 45 -1 61q3 7 15 39q24 65 48 88q9 11 43 45q46 34 89 34zM233 331q-27 0 -51 -21q-16 -13 -19 -29q-1 -10 6 -13q17 -6 91 -6q26 0 29 15q5 23 -12.5 38.5
t-43.5 15.5zM288 528q7 0 13 -3q0 -3 9 -19l12 -23l7 -13q6 -15 11 -29q3 -13 4 -18q3 -5 2 -9q-2 -8 -11 -8q-5 0 -42 32q-18 34 -21 34q-13 0 -29 -22q-9 -11 -12 -14t-15 -9q-5 -3 -14 -9t-15.5 -10.5t-9.5 -4.5q-6 0 -5 10q1 3 18 21l16 21l17 18l9 12l20 18
q12 18 17.5 21.5t18.5 3.5z" />
    <glyph glyph-name="edieresis" unicode="&#xeb;" horiz-adv-x="328" 
d="M256 367q58 0 95 -54q17 -24 12 -47q-8 -35 -39 -35q-2 0 -13 1t-12 1q-7 0 -28.5 -1.5t-27.5 -1.5h-15q-6 0 -27.5 2t-27.5 2q-20 0 -37 -13q-8 -6 -11 -20q-2 -5 -3 -17q-4 -37 -2 -44q4 -16 30 -42q19 -19 31 -24q16 -6 32 -6q19 0 61 9q17 4 28 10q6 2 7 2q7 0 5 -8
q-2 -7 -7 -13l-3 -8q-9 -19 -24 -31q-5 -5 -16 -11q-40 -25 -96 -25q-12 0 -36 8q-21 9 -23 11q-17 13 -47 88q-5 45 -1 61q3 7 15 39q24 65 48 88q9 11 43 45q46 34 89 34zM233 331q-27 0 -51 -21q-16 -13 -19 -29q-1 -10 6 -13q17 -6 91 -6q26 0 29 15q5 23 -12.5 38.5
t-43.5 15.5zM232 497q8 0 21 -11q3 -3 3 -15q1 -21 0 -22q-3 -17 -18 -29q-7 -7 -17 -7q-39 0 -40 28q-1 7 -1 17q4 19 13 26q16 13 39 13zM343 496q18 0 30 -13t8 -30q-3 -14 -29 -34q-16 -11 -21 -11q-19 0 -34 17q-4 4 -2 21v14q3 14 20 28q10 8 28 8z" />
    <glyph glyph-name="igrave" unicode="&#xec;" horiz-adv-x="217" 
d="M105 138l5 21q4 25 9 54q0 3 6 22l3 10l8 24q3 13 -7 20q-17 15 -15 21q2 9 9 13l17 8l33 15q4 1 9 3t11.5 5t10.5 5q12 5 14 5q8 0 7 -12q-1 -10 -9 -28q-3 -7 -7 -33q-4 -20 -4 -21q-5 -21 -15 -57q-2 -8 -5 -29q-1 -14 -3 -19l-1 -7q-4 -11 -4 -13q-15 -71 -8 -103
q10 -28 9 -32q-2 -11 -26 -11l-6 1h-12.5h-13.5h-16h-24q-12 -1 -22 -1q-7 0 -10.5 3t-2.5 8q2 7 22 24q14 12 17 26q1 4 0 8l2 6q11 34 13 40q3 8 6 24zM150 519q8 0 18 -7l4 -4q3 -5 11 -16l16 -22l21 -21q13 -13 11 -26q-1 -10 -12 -10q-6 0 -32 13l-51 16q-14 4 -20.5 7
t-11 9.5t-2.5 16.5q3 16 18.5 30t29.5 14z" />
    <glyph glyph-name="iacute" unicode="&#xed;" horiz-adv-x="217" 
d="M105 138l5 21q4 25 9 54q0 3 6 22l3 10l8 24q3 13 -7 20q-17 15 -15 21q2 9 9 13l17 8l33 15q4 1 9 3t11.5 5t10.5 5q12 5 14 5q8 0 7 -12q-1 -10 -9 -28q-3 -7 -7 -33q-4 -20 -4 -21q-5 -21 -15 -57q-2 -8 -5 -29q-1 -14 -3 -19l-1 -7q-4 -11 -4 -13q-15 -71 -8 -103
q10 -28 9 -32q-2 -11 -26 -11l-6 1h-12.5h-13.5h-16h-24q-12 -1 -22 -1q-7 0 -10.5 3t-2.5 8q2 7 22 24q14 12 17 26q1 4 0 8l2 6q11 34 13 40q3 8 6 24zM295 510q25 0 25 -20q0 -26 -27 -42q-16 -10 -29 -11l-18 -2q-12 -3 -25 -7q-2 -1 -6 -2t-8 -2.5t-13.5 -5.5t-21.5 -9
q-1 -1 -2 -1q-10 0 -8 9q2 6 27 21q4 2 55 43q37 29 51 29z" />
    <glyph glyph-name="icircumflex" unicode="&#xee;" horiz-adv-x="217" 
d="M105 138l5 21q4 25 9 54q0 3 6 22l3 10l8 24q3 13 -7 20q-17 15 -15 21q2 9 9 13l17 8l33 15q4 1 9 3t11.5 5t10.5 5q12 5 14 5q8 0 7 -12q-1 -10 -9 -28q-3 -7 -7 -33q-4 -20 -4 -21q-5 -21 -15 -57q-2 -8 -5 -29q-1 -14 -3 -19l-1 -7q-4 -11 -4 -13q-15 -71 -8 -103
q10 -28 9 -32q-2 -11 -26 -11l-6 1h-12.5h-13.5h-16h-24q-12 -1 -22 -1q-7 0 -10.5 3t-2.5 8q2 7 22 24q14 12 17 26q1 4 0 8l2 6q11 34 13 40q3 8 6 24zM226 528q7 0 13 -3q0 -3 9 -19l12 -23l7 -13q6 -15 11 -29q3 -13 4 -18q3 -5 2 -9q-2 -8 -11 -8q-5 0 -42 32
q-18 34 -21 34q-13 0 -29 -22q-9 -11 -12 -14t-15 -9q-5 -3 -14 -9t-15.5 -10.5t-9.5 -4.5q-6 0 -5 10q1 3 18 21l16 21l17 18l9 12l20 18q12 18 17.5 21.5t18.5 3.5z" />
    <glyph glyph-name="idieresis" unicode="&#xef;" horiz-adv-x="217" 
d="M105 138l5 21q4 25 9 54q0 3 6 22l3 10l8 24q3 13 -7 20q-17 15 -15 21q2 9 9 13l17 8l33 15q4 1 9 3t11.5 5t10.5 5q12 5 14 5q8 0 7 -12q-1 -10 -9 -28q-3 -7 -7 -33q-4 -20 -4 -21q-5 -21 -15 -57q-2 -8 -5 -29q-1 -14 -3 -19l-1 -7q-4 -11 -4 -13q-15 -71 -8 -103
q10 -28 9 -32q-2 -11 -26 -11l-6 1h-12.5h-13.5h-16h-24q-12 -1 -22 -1q-7 0 -10.5 3t-2.5 8q2 7 22 24q14 12 17 26q1 4 0 8l2 6q11 34 13 40q3 8 6 24zM170 497q8 0 21 -11q3 -3 3 -15q1 -21 0 -22q-3 -17 -18 -29q-7 -7 -17 -7q-39 0 -40 28q-1 7 -1 17q4 19 13 26
q16 13 39 13zM267 498q15 0 22 -15q5 -15 1 -29q-1 -10 -15 -28q-13 -18 -21 -18q-18 0 -32 17q-4 5 -2 21v15q2 12 20 29q8 8 27 8z" />
    <glyph glyph-name="eth" unicode="&#xf0;" horiz-adv-x="422" 
d="M304 367q10 0 27 -4l20 -3q7 0 9 11q1 6 -2 37l-9 21q-3 12 -18 67q-10 46 -25 46q-1 0 -23 -14q-20 -13 -24 -13q-6 0 -10 10q-20 20 -19 27q1 5 14 16q7 7 12 8q22 8 23 17q1 3 -24 28l-21 17q-17 14 -16 20q1 10 13 10q15 0 31 -13q2 -1 5.5 -3t10 -6t12.5 -8
q36 -22 37 -24q12 0 23.5 5.5t20.5 12.5t10 8q24 8 28 8q7 0 15 -14t6 -22q-1 -6 -12 -11l-19 -10q-35 -14 -36 -23q-1 -3 22 -34q4 -6 12 -21.5t19.5 -49t16.5 -67.5q9 -54 4 -99v-42q-2 -27 -7 -58q-9 -42 -49 -106q-18 -29 -41 -47q-67 -50 -118 -50t-92.5 27.5
t-63.5 75.5q-10 23 -3 63q0 2 1.5 7t3 12.5t3.5 15.5l8 35q5 26 54 75q39 41 123 57q28 5 48 5zM254 325q-19 0 -33 -8q-31 -19 -54 -51q-15 -20 -24 -63q-7 -35 -9 -47q0 -13 4 -40q0 -3 1 -7t1.5 -11t1.5 -13q9 -16 15 -19l12 -6l11 -7l10 -6t8 -5t5.5 -3.5t4.5 -2.5h1
q26 0 58 16q28 13 59 70q30 56 24 87l-5 28q-1 9 -10 47q-20 41 -81 41z" />
    <glyph glyph-name="ntilde" unicode="&#xf1;" horiz-adv-x="399" 
d="M212 369q4 0 6 -3l-2 -22q2 -2 4 -2q10 5 29 14q30 14 53 14q11 0 44 -9q32 -5 41 -28q3 -30 2 -57l-1 -13l-4 -19l-5 -30q-6 -22 -8 -30l-7 -42q-4 -23 -4 -54q0 -3 2 -25q1 -10 13 -30q2 -4 4.5 -7.5t4.5 -7.5t3 -5q-3 -13 -25 -13h-13q-6 0 -26 2h-3q-4 -1 -11.5 -1.5
t-16.5 -0.5h-9q-24 0 -37 1q-10 1 -8 12q1 6 19 22q4 3 15 23l12 20l8 47q0 1 3 8q7 17 12 39q20 97 16 115q-8 42 -43 42q-27 0 -49 -17q-2 -4 -12 -19l-14 -22l-7 -29l-4 -11l-2 -11q-2 -2 -3 -8l-3 -12q-4 -17 -11 -32q-3 -29 -5 -41q-7 -21 -7 -28q0 -1 -0.5 -4t-1 -8.5
t-0.5 -10.5l-2 -18q0 -2 1.5 -9.5t2.5 -13.5q7 -11 20 -21q3 -2 2 -6q-2 -8 -19 -8q-2 0 -19 2t-25 3l-27 2q-7 1 -36 -6q-2 -1 -10 -1q-11 0 -16.5 3.5t-3.5 10.5q1 8 25 22q8 5 28 34q7 10 14 38q11 36 17 67l7 30l7 28q6 25 -3 37q-10 6 -32 22q-2 6 0 8q2 8 17 15
q25 12 57 27q40 27 46 27zM286 496q12 0 35 -13l16 -5q35 -20 39 -20q16 0 51 21q7 0 4 -7q-2 -3 -26 -29q-11 -12 -26 -25q-16 -8 -29 -8q-7 0 -27 5q-3 0 -25 12q-2 1 -28 11q-24 8 -29 8q-6 0 -14.5 -6t-14.5 -12l-7 -6q-9 0 -7 9q2 6 15 18l19 15q32 32 54 32z" />
    <glyph glyph-name="ograve" unicode="&#xf2;" horiz-adv-x="422" 
d="M268 0q-27 -6 -46 -6q-56 0 -97 30q-28 20 -36 32q-30 38 -30 78q0 12 3 25q4 15 12 53q6 29 15 41q46 67 116 93q30 11 43 14q30 6 49 6q35 0 45 -3q4 -1 33 -15q21 -10 31 -28l10 -18q17 -31 17 -66q0 -68 -60 -157q-22 -30 -64 -56q-40 -23 -41 -23zM253 325
q-17 0 -33 -8q-32 -22 -53 -51q-16 -20 -25 -63q-7 -35 -9 -47l1 -8q1 -7 3 -25t4 -38q7 -13 16 -19l23 -13q23 -17 28 -17q25 0 58 16q30 14 54 57q21 39 28 76q4 16 1 24l-5 28q-1 9 -10 47q-18 41 -81 41zM253 519q8 0 18 -7l4 -4q3 -5 11 -16l16 -22l21 -21
q13 -13 11 -26q-1 -10 -12 -10q-6 0 -32 13l-51 16q-14 4 -20.5 7t-11 9.5t-2.5 16.5q3 16 18.5 30t29.5 14z" />
    <glyph glyph-name="oacute" unicode="&#xf3;" horiz-adv-x="422" 
d="M268 0q-27 -6 -46 -6q-56 0 -97 30q-28 20 -36 32q-30 38 -30 78q0 12 3 25q4 15 12 53q6 29 15 41q46 67 116 93q30 11 43 14q30 6 49 6q35 0 45 -3q4 -1 33 -15q21 -10 31 -28l10 -18q17 -31 17 -66q0 -68 -60 -157q-22 -30 -64 -56q-40 -23 -41 -23zM253 325
q-17 0 -33 -8q-32 -22 -53 -51q-16 -20 -25 -63q-7 -35 -9 -47l1 -8q1 -7 3 -25t4 -38q7 -13 16 -19l23 -13q23 -17 28 -17q25 0 58 16q30 14 54 57q21 39 28 76q4 16 1 24l-5 28q-1 9 -10 47q-18 41 -81 41zM398 510q25 0 25 -20q0 -26 -27 -42q-16 -10 -29 -11l-18 -2
q-12 -3 -25 -7q-2 -1 -6 -2t-8 -2.5t-13.5 -5.5t-21.5 -9q-1 -1 -2 -1q-10 0 -8 9q2 6 27 21q4 2 55 43q37 29 51 29z" />
    <glyph glyph-name="ocircumflex" unicode="&#xf4;" horiz-adv-x="422" 
d="M268 0q-27 -6 -46 -6q-56 0 -97 30q-28 20 -36 32q-30 38 -30 78q0 12 3 25q4 15 12 53q6 29 15 41q46 67 116 93q30 11 43 14q30 6 49 6q35 0 45 -3q4 -1 33 -15q21 -10 31 -28l10 -18q17 -31 17 -66q0 -68 -60 -157q-22 -30 -64 -56q-40 -23 -41 -23zM253 325
q-17 0 -33 -8q-32 -22 -53 -51q-16 -20 -25 -63q-7 -35 -9 -47l1 -8q1 -7 3 -25t4 -38q7 -13 16 -19l23 -13q23 -17 28 -17q25 0 58 16q30 14 54 57q21 39 28 76q4 16 1 24l-5 28q-1 9 -10 47q-18 41 -81 41zM329 528q7 0 13 -3q0 -3 9 -19l12 -23l7 -13q6 -15 11 -29
q3 -13 4 -18q3 -5 2 -9q-2 -8 -11 -8q-5 0 -42 32q-18 34 -21 34q-13 0 -29 -22q-9 -11 -12 -14t-15 -9q-5 -3 -14 -9t-15.5 -10.5t-9.5 -4.5q-6 0 -5 10q1 3 18 21l16 21l17 18l9 12l20 18q12 18 17.5 21.5t18.5 3.5z" />
    <glyph glyph-name="otilde" unicode="&#xf5;" horiz-adv-x="422" 
d="M268 0q-27 -6 -46 -6q-56 0 -97 30q-28 20 -36 32q-30 38 -30 78q0 12 3 25q4 15 12 53q6 29 15 41q46 67 116 93q30 11 43 14q30 6 49 6q35 0 45 -3q4 -1 33 -15q21 -10 31 -28l10 -18q17 -31 17 -66q0 -68 -60 -157q-22 -30 -64 -56q-40 -23 -41 -23zM253 325
q-17 0 -33 -8q-32 -22 -53 -51q-16 -20 -25 -63q-7 -35 -9 -47l1 -8q1 -7 3 -25t4 -38q7 -13 16 -19l23 -13q23 -17 28 -17q25 0 58 16q30 14 54 57q21 39 28 76q4 16 1 24l-5 28q-1 9 -10 47q-18 41 -81 41zM277 496q12 0 35 -13l16 -5q35 -20 39 -20q16 0 51 21q7 0 4 -7
q-2 -3 -26 -29q-11 -12 -26 -25q-16 -8 -29 -8q-7 0 -27 5q-3 0 -25 12q-2 1 -28 11q-24 8 -29 8q-6 0 -14.5 -6t-14.5 -12l-7 -6q-9 0 -7 9q2 6 15 18l19 15q32 32 54 32z" />
    <glyph glyph-name="odieresis" unicode="&#xf6;" horiz-adv-x="422" 
d="M268 0q-27 -6 -46 -6q-56 0 -97 30q-28 20 -36 32q-30 38 -30 78q0 12 3 25q4 15 12 53q6 29 15 41q46 67 116 93q30 11 43 14q30 6 49 6q35 0 45 -3q4 -1 33 -15q21 -10 31 -28l10 -18q17 -31 17 -66q0 -68 -60 -157q-22 -30 -64 -56q-40 -23 -41 -23zM253 325
q-17 0 -33 -8q-32 -22 -53 -51q-16 -20 -25 -63q-7 -35 -9 -47l1 -8q1 -7 3 -25t4 -38q7 -13 16 -19l23 -13q23 -17 28 -17q25 0 58 16q30 14 54 57q21 39 28 76q4 16 1 24l-5 28q-1 9 -10 47q-18 41 -81 41zM253 497q8 0 21 -11q3 -3 3 -15q1 -21 0 -22q-3 -17 -18 -29
q-7 -7 -17 -7q-39 0 -40 28q-1 7 -1 17q4 19 13 26q16 13 39 13zM364 496q18 0 30 -13t8 -30q-3 -14 -29 -34q-16 -11 -21 -11q-19 0 -34 17q-4 4 -2 21v14q3 14 20 28q10 8 28 8z" />
    <glyph glyph-name="divide" unicode="&#xf7;" horiz-adv-x="461" 
d="M427 306l-47 -3q-2 0 -2 1q-26 3 -36 3q-16 0 -49 -3q-42 -2 -49 -2q-10 0 -37 -3h-7q-20 2 -37 2h-18q-18 0 -26 5q-3 4 2 27l1 14q3 14 25 14q1 0 5.5 -0.5t13 -1t17.5 -0.5q3 -1 15 -1q9 0 29 4l12 1q8 1 63 1q20 0 25 -1q31 4 43 4q18 0 28 -1q3 -1 11 -1l3 1
q3 0 10 0.5t14 0.5l42 -2q14 -2 10 -11l-5 -17l-2 -20q-3 -14 -28 -14q-4 1 -26 3zM324 516q-6 0 45 -12q15 -8 8 -42q-4 -19 -15 -28q-4 -4 -31 -15q-7 -3 -15 -3q-13 0 -31 21q-11 11 -4 43q3 14 16 25t27 11zM289 250q11 0 29 -21q9 -11 5 -32q-11 -47 -47 -47
q-1 0 -26 11q-15 6 -25 12q-5 9 -1 29q4 23 17 34q4 4 23 9q20 5 25 5z" />
    <glyph glyph-name="oslash" unicode="&#xf8;" horiz-adv-x="422" 
d="M307 366q15 0 25 -1.5t15 -3t6 -1.5q7 0 17 12q1 1 5.5 7t8.5 12q13 16 16 18q9 6 21 6q23 0 21 -12q-5 -19 -38 -49q-8 -8 -9 -14t13 -22l8 -17q18 -26 18 -62q0 -65 -53 -148q-17 -26 -42 -47q-65 -50 -115 -50q-36 0 -75 14q-7 3 -10 3q-9 0 -35 -26q-26 -27 -38 -27
q-13 0 -19.5 3t-5.5 9l26 30l19 24q8 8 11 14q1 3 -14 29l-17 30q-13 21 -4 62v3q1 2 2.5 7.5t2.5 10.5q1 7 4 17t3 13q6 31 15 43q45 64 116 93q28 12 43 14q28 6 59 6zM335 255h-3.5t-2.5 -0.5t-2.5 -1.5t-2.5 -2l-3 -3t-3.5 -4t-4 -5.5t-4.5 -6.5t-5.5 -8.5t-6.5 -10.5
q-7 -7 -20 -24l-7 -9l-24 -23q-22 -30 -63 -78q-7 -9 -9 -15q-1 -6 2 -7l11 -9q15 -12 21 -12q72 0 113 75q20 38 27 74q4 17 -2 46q-2 8 -2 9q-2 15 -9 15zM254 325q-20 0 -34 -8q-29 -19 -53 -51q-17 -21 -24 -60q-12 -56 -9 -77q2 -5 3 -14t2 -14.5t4 -5.5q5 0 19 20
l11 12l13 17l11 13l38 43l17 24q5 6 19 22.5t23 26.5q15 18 16 26q3 15 -17 20q-29 6 -39 6z" />
    <glyph glyph-name="ugrave" unicode="&#xf9;" horiz-adv-x="383" 
d="M114 361q6 0 8 -1l25 -5q35 5 36 5q19 0 26.5 -7t4.5 -21q0 -1 -15 -43l-35 -173l-7 -21q-1 -1 -2 -4.5t-1 -5.5q-5 -24 8 -40q6 -9 16 -9q8 0 30 8t29 15q9 8 22 26q13 19 15 29l6 43q10 26 11 36q1 13 6 42q1 11 15 54q9 15 3 28l-15 39q10 6 13 6q2 0 11 -2t11 -2
l45 1q8 0 9 -7q2 -9 -1 -23l-13 -60l-9 -36l-11 -56q-3 -17 -4 -24q-1 -3 -1 -7l-14 -51q-3 -7 6 -21q10 -18 13 -26q0 -3 -10 -9l-29 -18q-50 -36 -74 -36q-9 0 -9 8l1 22q2 3 -3 3q-17 -7 -39 -20q-4 -4 -24 -4q-52 0 -76 63q-6 16 5 69q4 20 12 52q3 10 6 20.5t5 19.5
t3 12q0 2 1 7t2 13.5t2 17.5q3 23 1 32q-2 14 -14 25q-20 19 -19 26q1 10 18 10zM233 519q8 0 18 -7l4 -4q3 -5 11 -16l16 -22l21 -21q13 -13 11 -26q-1 -10 -12 -10q-6 0 -32 13l-51 16q-14 4 -20.5 7t-11 9.5t-2.5 16.5q3 16 18.5 30t29.5 14z" />
    <glyph glyph-name="uacute" unicode="&#xfa;" horiz-adv-x="383" 
d="M114 361q6 0 8 -1l25 -5q35 5 36 5q19 0 26.5 -7t4.5 -21q0 -1 -15 -43l-35 -173l-7 -21q-1 -1 -2 -4.5t-1 -5.5q-5 -24 8 -40q6 -9 16 -9q8 0 30 8t29 15q9 8 22 26q13 19 15 29l6 43q10 26 11 36q1 13 6 42q1 11 15 54q9 15 3 28l-15 39q10 6 13 6q2 0 11 -2t11 -2
l45 1q8 0 9 -7q2 -9 -1 -23l-13 -60l-9 -36l-11 -56q-3 -17 -4 -24q-1 -3 -1 -7l-14 -51q-3 -7 6 -21q10 -18 13 -26q0 -3 -10 -9l-29 -18q-50 -36 -74 -36q-9 0 -9 8l1 22q2 3 -3 3q-17 -7 -39 -20q-4 -4 -24 -4q-52 0 -76 63q-6 16 5 69q4 20 12 52q3 10 6 20.5t5 19.5
t3 12q0 2 1 7t2 13.5t2 17.5q3 23 1 32q-2 14 -14 25q-20 19 -19 26q1 10 18 10zM378 510q25 0 25 -20q0 -26 -27 -42q-16 -10 -29 -11l-18 -2q-12 -3 -25 -7q-2 -1 -6 -2t-8 -2.5t-13.5 -5.5t-21.5 -9q-1 -1 -2 -1q-10 0 -8 9q2 6 27 21q4 2 55 43q37 29 51 29z" />
    <glyph glyph-name="ucircumflex" unicode="&#xfb;" horiz-adv-x="383" 
d="M114 361q6 0 8 -1l25 -5q35 5 36 5q19 0 26.5 -7t4.5 -21q0 -1 -15 -43l-35 -173l-7 -21q-1 -1 -2 -4.5t-1 -5.5q-5 -24 8 -40q6 -9 16 -9q8 0 30 8t29 15q9 8 22 26q13 19 15 29l6 43q10 26 11 36q1 13 6 42q1 11 15 54q9 15 3 28l-15 39q10 6 13 6q2 0 11 -2t11 -2
l45 1q8 0 9 -7q2 -9 -1 -23l-13 -60l-9 -36l-11 -56q-3 -17 -4 -24q-1 -3 -1 -7l-14 -51q-3 -7 6 -21q10 -18 13 -26q0 -3 -10 -9l-29 -18q-50 -36 -74 -36q-9 0 -9 8l1 22q2 3 -3 3q-17 -7 -39 -20q-4 -4 -24 -4q-52 0 -76 63q-6 16 5 69q4 20 12 52q3 10 6 20.5t5 19.5
t3 12q0 2 1 7t2 13.5t2 17.5q3 23 1 32q-2 14 -14 25q-20 19 -19 26q1 10 18 10zM309 528q7 0 13 -3q0 -3 9 -19l12 -23l7 -13q6 -15 11 -29q3 -13 4 -18q3 -5 2 -9q-2 -8 -11 -8q-5 0 -42 32q-18 34 -21 34q-13 0 -29 -22q-9 -11 -12 -14t-15 -9q-5 -3 -14 -9t-15.5 -10.5
t-9.5 -4.5q-6 0 -5 10q1 3 18 21l16 21l17 18l9 12l20 18q12 18 17.5 21.5t18.5 3.5z" />
    <glyph glyph-name="udieresis" unicode="&#xfc;" horiz-adv-x="383" 
d="M114 361q6 0 8 -1l25 -5q35 5 36 5q19 0 26.5 -7t4.5 -21q0 -1 -15 -43l-35 -173l-7 -21q-1 -1 -2 -4.5t-1 -5.5q-5 -24 8 -40q6 -9 16 -9q8 0 30 8t29 15q9 8 22 26q13 19 15 29l6 43q10 26 11 36q1 13 6 42q1 11 15 54q9 15 3 28l-15 39q10 6 13 6q2 0 11 -2t11 -2
l45 1q8 0 9 -7q2 -9 -1 -23l-13 -60l-9 -36l-11 -56q-3 -17 -4 -24q-1 -3 -1 -7l-14 -51q-3 -7 6 -21q10 -18 13 -26q0 -3 -10 -9l-29 -18q-50 -36 -74 -36q-9 0 -9 8l1 22q2 3 -3 3q-17 -7 -39 -20q-4 -4 -24 -4q-52 0 -76 63q-6 16 5 69q4 20 12 52q3 10 6 20.5t5 19.5
t3 12q0 2 1 7t2 13.5t2 17.5q3 23 1 32q-2 14 -14 25q-20 19 -19 26q1 10 18 10zM233 497q8 0 21 -11q3 -3 3 -15q1 -21 0 -22q-3 -17 -18 -29q-7 -7 -17 -7q-39 0 -40 28q-1 7 -1 17q4 19 13 26q16 13 39 13zM344 496q18 0 30 -13t8 -30q-3 -14 -29 -34q-16 -11 -21 -11
q-19 0 -34 17q-4 4 -2 21v14q3 14 20 28q10 8 28 8z" />
    <glyph glyph-name="yacute" unicode="&#xfd;" horiz-adv-x="343" 
d="M129 359l16 -2l37 -4q23 -2 37 -3q7 -4 5 -12q-1 -7 -21 -28q-3 -3 -4 -8v-53q-1 -5 -3 -33q-2 -14 6 -32q9 -56 18 -56q12 0 24 24q1 2 3 5t5 9t6 10l21 37q10 14 30 49q8 16 13 33q2 8 -10 45v8q3 12 20 12q10 0 12 -1q7 -1 19 -1l28 1q14 0 20 -4t4 -12q-1 -7 -27 -30
l-8 -13q-22 -28 -35 -59q-12 -26 -38 -63q-1 -1 -6.5 -10.5t-10.5 -18.5l-2 -3l-17 -27l-14 -27l-13 -27l-17 -25q-16 -39 -64 -102l-23 -30q-18 -25 -32 -51q-30 -46 -37 -54q-55 -67 -83 -71q-3 -1 -19 -1q-25 0 -21 22q3 12 14 20q7 7 38 15q22 6 74 91l34 54l11 22
q16 31 23 62q1 4 1 25v19l-2 20q0 25 -1 46q-3 3 -13 54q-3 23 -8 69q-1 20 -23 59q-4 7 -7 12.5t-5.5 9.5t-4 6.5t-2.5 3.5l-1 1q2 12 20 14q26 3 33 3zM378 510q25 0 25 -20q0 -26 -27 -42q-16 -10 -29 -11l-18 -2q-12 -3 -25 -7q-2 -1 -6 -2t-8 -2.5t-13.5 -5.5t-21.5 -9
q-1 -1 -2 -1q-10 0 -8 9q2 6 27 21q4 2 55 43q37 29 51 29z" />
    <glyph glyph-name="thorn" unicode="&#xfe;" horiz-adv-x="401" 
d="M278 647q10 0 7 -13q-4 -12 -8 -20l-5 -31q0 -1 -1.5 -5.5t-3.5 -8.5q-6 -21 -15 -58l-2 -7l-9 -50q-10 -26 -11 -35q0 -5 -1.5 -13t-3 -20t-2.5 -21l-3.5 -10.5t-3.5 -11.5q-2 -11 4 -11q2 1 4 2.5t3 1.5q37 31 71 31q30 0 63 -11q40 -14 47 -39q0 -1 2 -6.5t3.5 -12.5
t3.5 -21t3 -31q2 -11 0 -20q0 -2 -2.5 -12.5t-5 -24t-5.5 -28.5l-4 -26q-6 -31 -44 -71q-30 -32 -67 -54q-26 -14 -36 -15l-43 -5l-57 11l-16 -28l-7 -27l-5 -35l-14 -63l-8 -33q-2 -10 -2 -15q0 -22 19 -35q9 -4 27 -13q5 -2 3 -10q-3 -12 -18 -12h-14q-7 1 -13 1
q-15 0 -43 -4h-5q-4 0 -21 1.5t-21 1.5q-5 0 -11 -1h-11q-11 0 -16.5 3.5t-3.5 10.5q2 6 10 10q21 15 26 23q4 7 8.5 15t5.5 10q13 50 17 66l11 41l6 30q1 4 2 10l2.5 15l2.5 15l1 11l10 39l3 17q1 2 4 12t6 17l3 26l5 25q0 5 3 20q0 4 2 14q15 68 23 96q12 40 16 52l2 8
q1 11 1 20l8 38l7 23l14 66l-1 4q0 4 -0.5 12t-0.5 18q2 15 0 26q-5 12 -8 14l-20 12q-2 1 -1 14q4 14 42 31q10 5 27 18l26 14q35 18 39 22zM264 303q-31 0 -48 -17q-6 -5 -10 -14l-7 -24l-10 -30l-4 -25l-16 -73l-3 -20l-4 -20q4 -26 6 -31q8 -17 48 -18l3 -1
q3 0 8.5 -0.5t12.5 -0.5q20 -2 45 22q60 59 60 159q0 93 -81 93z" />
    <glyph glyph-name="ydieresis" unicode="&#xff;" horiz-adv-x="343" 
d="M129 359l16 -2l37 -4q23 -2 37 -3q7 -4 5 -12q-1 -7 -21 -28q-3 -3 -4 -8v-53q-1 -5 -3 -33q-2 -14 6 -32q9 -56 18 -56q12 0 24 24q1 2 3 5t5 9t6 10l21 37q10 14 30 49q8 16 13 33q2 8 -10 45v8q3 12 20 12q10 0 12 -1q7 -1 19 -1l28 1q14 0 20 -4t4 -12q-1 -7 -27 -30
l-8 -13q-22 -28 -35 -59q-12 -26 -38 -63q-1 -1 -6.5 -10.5t-10.5 -18.5l-2 -3l-17 -27l-14 -27l-13 -27l-17 -25q-16 -39 -64 -102l-23 -30q-18 -25 -32 -51q-30 -46 -37 -54q-55 -67 -83 -71q-3 -1 -19 -1q-25 0 -21 22q3 12 14 20q7 7 38 15q22 6 74 91l34 54l11 22
q16 31 23 62q1 4 1 25v19l-2 20q0 25 -1 46q-3 3 -13 54q-3 23 -8 69q-1 20 -23 59q-4 7 -7 12.5t-5.5 9.5t-4 6.5t-2.5 3.5l-1 1q2 12 20 14q26 3 33 3zM233 497q8 0 21 -11q3 -3 3 -15q1 -21 0 -22q-3 -17 -18 -29q-7 -7 -17 -7q-39 0 -40 28q-1 7 -1 17q4 19 13 26
q16 13 39 13zM344 496q18 0 30 -13t8 -30q-3 -14 -29 -34q-16 -11 -21 -11q-19 0 -34 17q-4 4 -2 21v14q3 14 20 28q10 8 28 8z" />
    <glyph glyph-name="Cacute" unicode="&#x106;" horiz-adv-x="635" 
d="M626 830q25 0 25 -20q0 -21 -17.5 -38t-39.5 -19l-17 -2q-1 0 -15.5 -4.5t-24.5 -8.5q-6 -1 -12 -4q-25 -11 -27 -11q-8 0 -6 8q61 49 90 74q24 25 44 25zM517 687q93 0 169 -52q1 0 5 -2t12.5 -6t17.5 -8q11 -5 9 -18q-2 -18 -11 -64q-6 -20 -8 -30l-6 -28
q-3 -11 -13 -11q-8 0 -11 12q-1 8 -6 24q-10 34 -14 41q-5 12 -14 18l-26 21q-3 2 -18 14.5t-28 22.5q-6 2 -46 10q-32 5 -36 5q-15 0 -33 -9q-38 -11 -74 -38q-27 -14 -34 -19q-86 -79 -97 -130l-10 -44q0 -1 -0.5 -2.5l-1.5 -4.5t-2 -5q-18 -36 -19 -41q-2 -3 0 -6
q-2 -23 -6 -39l-1 -6l-7 -26l-2 -5l-1 -15l-7 -34q-3 -18 10 -59q10 -31 22 -47q50 -68 123 -66l50 1q3 0 9 0.5t17 1t20 0.5q7 0 12 1q21 1 34 7q19 10 53 41q17 23 40 49q7 7 16 23q8 23 23 23q14 0 9 -23q0 -1 -6 -22t-8 -32l-6 -28q-6 -29 -13 -39q-4 -5 -10 -8l-11 -5
q-4 -2 -11 -5q-39 -22 -43 -21l-31 -8q-50 -14 -60 -14q-47 0 -64 1q-12 0 -19 1q-16 0 -26 -1q-34 1 -67 21q-24 14 -30 20l-20 18q-39 35 -55 56q-19 27 -41 93q-10 26 -13 64q-1 16 14 88q11 50 26 89q23 53 58 87q20 18 32 30l35 43q17 22 99 55q60 25 76 29
q42 11 75 11z" />
    <glyph glyph-name="cacute" unicode="&#x107;" horiz-adv-x="339" 
d="M437 510q25 0 25 -20q0 -26 -27 -42q-16 -10 -29 -11l-18 -2q-12 -3 -25 -7q-2 -1 -6 -2t-8 -2.5t-13.5 -5.5t-21.5 -9q-1 -1 -2 -1q-10 0 -8 9q2 6 27 21q4 2 55 43q37 29 51 29zM261 366q51 2 65 -1q38 -6 51 -33q7 -16 4 -33q-3 -12 -13.5 -21.5t-21.5 -9.5
q-27 0 -51 39q-2 4 -4 6.5t-3.5 4.5t-4 3.5t-4 3t-5.5 2t-5.5 1t-7 0.5t-7.5 0.5t-9.5 0.5h-10.5q-21 -2 -49 -33q-20 -22 -34 -82q0 -3 -2 -17l-6 -26q0 -1 1 -4.5t2.5 -9.5t3.5 -12q5 -23 7 -30q11 -49 38 -69q17 -12 26 -11h13q30 0 63 14q16 8 19 8q6 0 4 -5t-15 -14
q-68 -44 -80 -44q-62 0 -89 12q-15 8 -32 24q-26 26 -38 70q0 17 1 39q0 12 2 54q13 62 66 112q30 28 48 38q38 22 78 23z" />
    <glyph glyph-name="Ccaron" unicode="&#x10c;" horiz-adv-x="635" 
d="M471 839q6 0 42 -33q17 -36 21 -36q10 0 23 16q20 22 20 23l3 2q3 2 10 7l14 10q20 14 26 14t5 -9q-3 -5 -19 -23l-17 -22l-26 -32l-20 -19q-10 -17 -14 -20q-7 -6 -22 -6q-5 0 -12 3q0 2 -9 19l-13 25l-6 14q-6 15 -11 30q0 6 -3 19q-3 8 -2 11q1 7 10 7zM517 687
q93 0 169 -52q1 0 5 -2t12.5 -6t17.5 -8q11 -5 9 -18q-2 -18 -11 -64q-6 -20 -8 -30l-6 -28q-3 -11 -13 -11q-8 0 -11 12q-1 8 -6 24q-10 34 -14 41q-5 12 -14 18l-26 21q-3 2 -18 14.5t-28 22.5q-6 2 -46 10q-32 5 -36 5q-15 0 -33 -9q-38 -11 -74 -38q-27 -14 -34 -19
q-86 -79 -97 -130l-10 -44q0 -1 -0.5 -2.5l-1.5 -4.5t-2 -5q-18 -36 -19 -41q-2 -3 0 -6q-2 -23 -6 -39l-1 -6l-7 -26l-2 -5l-1 -15l-7 -34q-3 -18 10 -59q10 -31 22 -47q50 -68 123 -66l50 1q3 0 9 0.5t17 1t20 0.5q7 0 12 1q21 1 34 7q19 10 53 41q17 23 40 49q7 7 16 23
q8 23 23 23q14 0 9 -23q0 -1 -6 -22t-8 -32l-6 -28q-6 -29 -13 -39q-4 -5 -10 -8l-11 -5q-4 -2 -11 -5q-39 -22 -43 -21l-31 -8q-50 -14 -60 -14q-47 0 -64 1q-12 0 -19 1q-16 0 -26 -1q-34 1 -67 21q-24 14 -30 20l-20 18q-39 35 -55 56q-19 27 -41 93q-10 26 -13 64
q-1 16 14 88q11 50 26 89q23 53 58 87q20 18 32 30l35 43q17 22 99 55q60 25 76 29q42 11 75 11z" />
    <glyph glyph-name="ccaron" unicode="&#x10d;" horiz-adv-x="339" 
d="M282 525q5 0 42 -32q17 -35 20 -35q13 0 29 22q12 14 14 16q13 8 37 24q11 8 16 8q8 0 6 -8q-1 -1 -3.5 -4t-7 -8.5t-8.5 -10.5l-17 -20l-26 -31l-20 -19q-9 -14 -14 -19q-8 -5 -22 -5q-4 0 -12 3q0 2 -9 18l-13 23l-6 14q-3 10 -15 46q-3 8 -2 10q2 8 11 8zM261 366
q51 2 65 -1q38 -6 51 -33q7 -16 4 -33q-3 -12 -13.5 -21.5t-21.5 -9.5q-27 0 -51 39q-2 4 -4 6.5t-3.5 4.5t-4 3.5t-4 3t-5.5 2t-5.5 1t-7 0.5t-7.5 0.5t-9.5 0.5h-10.5q-21 -2 -49 -33q-20 -22 -34 -82q0 -3 -2 -17l-6 -26q0 -1 1 -4.5t2.5 -9.5t3.5 -12q5 -23 7 -30
q11 -49 38 -69q17 -12 26 -11h13q30 0 63 14q16 8 19 8q6 0 4 -5t-15 -14q-68 -44 -80 -44q-62 0 -89 12q-15 8 -32 24q-26 26 -38 70q0 17 1 39q0 12 2 54q13 62 66 112q30 28 48 38q38 22 78 23z" />
    <glyph glyph-name="dslash" unicode="&#x111;" horiz-adv-x="405" 
d="M330 444l-15 -2l-20 -3q-12 0 -9 13q4 13 8 21l2 6v3q0 4 1 6q3 14 17 14l6 -1q7 -1 9 -1h4q3 1 11 1q3 -1 10 -2q14 0 18 24q5 24 -2 39q0 6 -22 19q-4 2 -2 13q2 10 15 18q8 4 17 9q18 5 53 23q20 14 36 14q21 0 16 -18q0 -3 -2 -7.5t-7.5 -19.5t-12.5 -36
q-4 -9 -16 -47l-2 -8q-1 -2 -3 -8q-1 -10 4 -10l6 2q1 1 5 1q9 0 17 -6t7 -14q-1 -3 -7 -13q-10 -33 -16 -33l-23 4q-4 0 -7 -8l-2 -8l-4 -15l-10 -41l-62 -287q-3 -12 -1 -19l6 -14l4 -18q7 -16 6 -23q-5 -14 -27 -14q-1 0 -4 0.5t-8.5 1t-10.5 0.5h-7h-10h-9q-20 0 -24 4
l-6 17q0 1 -3 1t-27 -11q-20 -10 -27 -10l-18 -1l-24 -3q-10 0 -31.5 7.5t-27.5 13.5q-14 14 -21 32q-12 27 -17 45q-7 24 -1 57q26 116 83 164q30 25 89 39l33 8q31 0 45 -21q8 -11 9 -11q12 0 12 26l1 11l9 29l6 22q1 3 2.5 9t2.5 8q1 4 -5 6t-17 2zM266 288
q-74 0 -111 -54q-15 -21 -31 -94q-6 -28 11 -67q12 -28 51 -28q35 0 64 27t36 64l9 47l2 6l6 19l2 29q3 33 3 34q-12 17 -42 17z" />
    <glyph glyph-name="Gbreve" unicode="&#x11e;" horiz-adv-x="672" 
d="M633 823q7 0 4 -13q-4 -22 -26 -42l-36 -30q-36 -15 -37 -14l-9 1q-6 1 -16.5 2.5t-12.5 1.5q-24 13 -37 46l-2 44l11 -1q7 -5 11 -21q6 -17 13 -20q20 -7 37 -7zM508 685q40 0 108 -5q17 -1 30 -7l34 -17q17 -5 41 -18q21 -19 15 -47q-15 -65 -23 -92q-11 -41 -18 -41
q-15 0 -24 63q-5 24 -9 30q-2 1 -18 15q-5 13 -21 32q-5 5 -11 10q-38 32 -98 32q-56 0 -117 -32q-35 -18 -51 -33q-29 -26 -55 -72q-45 -80 -53 -116q2 -12 -3 -29l-3 -15q0 -2 -2.5 -11t-4.5 -16l-10 -45l-10 -30q0 -19 1 -50q0 -3 1.5 -9t4.5 -18.5t5 -23.5
q13 -65 81 -97q39 -17 69 -17q18 0 58 10q7 2 27 3q36 1 59 34q23 32 23 68q0 38 -32 40q-13 1 -20 1q-11 3 -8 14q2 8 10 12q9 0 33 4q8 1 18.5 2.5t16.5 2.5t9 1q7 0 61 -6h11q2 0 12.5 1.5t12.5 1.5q15 0 13 -17l-1 -3q-2 -10 -5 -12l-21 -19q-6 -6 -14 -43l-5 -24
l-10 -39q-10 -42 -20 -49q-7 -5 -16 -5q-4 0 -23 1.5t-22 1.5q-8 0 -42 -9l-34 -3l-43 -5q-49 -6 -57 -6q-62 0 -77 5q-96 36 -132 113q-24 49 -32 109q-4 33 -5 38q-7 40 -1 73q1 3 3.5 14t4.5 16l8 31q25 100 136 208q26 26 58 41q6 3 13 8q30 20 74 34q24 8 34 9
q50 2 66 2z" />
    <glyph glyph-name="gbreve" unicode="&#x11f;" horiz-adv-x="387" 
d="M441 516q7 0 4 -13q-5 -20 -25 -42q-6 -3 -37 -30l-36 -14l-9 1q-2 0 -29 4q-19 10 -30 33l-7 13l-1 45l11 -2q6 -2 10 -19q4 -18 13 -21q26 -8 36 -8zM295 366q7 0 21 -2q16 -8 35 -19q1 -1 9 -1l15 10q15 11 23 11q13 0 21 -10.5t5 -23.5q-1 -9 -9 -20l-4 -4t-8.5 -7.5
t-9.5 -8.5q-6 -4 -9 -37l-3 -27l-6 -30q-6 -26 -12 -40q-15 -35 -61 -63q-1 -1 -15 -9t-24 -13q-3 -1 -26 -4q-11 -2 -24.5 -3.5t-14.5 -1.5h-9q-7 0 -14.5 0.5t-14 0.5t-12 0.5t-8.5 1.5h-2q-20 0 -23 -15q-2 -11 6 -17.5t27 -8.5l53 -7l52 1q4 -1 21 -13q55 -20 68 -72
q2 -17 -8 -52l-5 -16l-2 -12l-5 -17q-10 -36 -21 -54q-22 -33 -61 -52q-11 -5 -15 -8q-58 -34 -103 -34q-88 0 -120 54q-20 37 -13 71q11 46 18 65q13 32 43 51q26 17 27 23q-11 39 -11 50q0 17 5 45q1 10 6 16l24 28q-12 16 -15 33q-12 38 3 94q17 56 45 86q27 27 49 38
q14 7 36 11q7 2 23 9q7 3 53 3zM205 -74q-1 0 -12 -1.5t-14 -1.5q-1 0 -5 1t-12 2t-15 2q-8 -2 -36 -23q-3 -1 -11 -8q-35 -26 -45 -70q-19 -91 78 -91q77 0 133 51q14 14 20 42q11 44 -47 83l-9 6q-11 8 -25 8zM246 311q-23 0 -50 -18l-2 -3l-6 -6l-9 -9q-27 -30 -32 -47
q-7 -36 -4 -49q-2 -3 6 -23q16 -52 42 -52q62 0 87 28q3 3 15 20q17 24 20 37q9 39 3 78q-2 16 -15 26l-8 3q-8 3 -15 5q-27 10 -32 10z" />
    <glyph glyph-name="Idot" unicode="&#x130;" horiz-adv-x="278" 
d="M314 821q10 0 23 -9q19 -13 14 -37q-3 -15 -21 -30q-27 -24 -38 -24q-10 0 -29 15q-8 6 -8 14q1 2 2 15t1 16q2 5 9 14q10 17 18 21.5t29 4.5zM276 668q32 4 49 4q22 0 31.5 -6t7.5 -19q-2 -6 -15 -15q-21 -13 -27 -26q-18 -33 -40 -142q-5 -32 -15 -83l-6 -27
q-10 -51 -21 -85q-3 -6 -6 -29q-3 -22 -5 -30q-1 -1 -4 -13l-2 -10q-1 -7 -3 -31l-10 -52l-3 -17q5 -13 11 -39l12 -15q6 -10 4 -17q-3 -16 -13 -16h-31q-13 -1 -25 -1h-1q-2 0 -8 0.5t-13 0.5h-44q-16 0 -33 5q-8 5 -6 15q1 5 5 9l31 22q11 13 17 32l3 9t5 15.5t6 18.5
q3 13 4 26q1 14 3 18q3 16 12 44q9 30 12 45l8 59l9 32q1 4 3 20l21 102q2 10 2 12q1 16 6 51l10 54q5 23 -15 42q-14 14 -12 22q3 17 27 18z" />
    <glyph glyph-name="dotlessi" unicode="&#x131;" horiz-adv-x="217" 
d="M105 138l5 21q4 25 9 54q0 3 6 22l3 10l8 24q3 13 -7 20q-17 15 -15 21q2 9 9 13l17 8l33 15q4 1 9 3t11.5 5t10.5 5q12 5 14 5q8 0 7 -12q-1 -10 -9 -28q-3 -7 -7 -33q-4 -20 -4 -21q-5 -21 -15 -57q-2 -8 -5 -29q-1 -14 -3 -19l-1 -7q-4 -11 -4 -13q-15 -71 -8 -103
q10 -28 9 -32q-2 -11 -26 -11l-6 1h-12.5h-13.5h-16h-24q-12 -1 -22 -1q-7 0 -10.5 3t-2.5 8q2 7 22 24q14 12 17 26q1 4 0 8l2 6q11 34 13 40q3 8 6 24z" />
    <glyph glyph-name="Lslash" unicode="&#x141;" horiz-adv-x="454" 
d="M332 50h26q10 0 35 24q11 10 40 41q28 40 37 40q11 0 6 -14l-12 -43l-5 -35q-3 -19 -5 -29q-5 -25 -21 -32q-16 -2 -38 -2h-26l-67 2l-22 -2h-1h-9q-9 -1 -24 -1q-23 0 -55 3q-20 2 -23 2l-58 -2q-2 0 -7.5 -1t-15 -2.5t-19.5 -3.5q-2 -1 -8 -1q-26 0 -24 12q3 10 15 21
q6 4 22 16q32 24 42 64q12 28 20 67l4 19q1 4 3 15.5t6 28.5l2 7q3 17 -8 17q-6 0 -14 -6q-20 -16 -29 -16q-7 0 -8 3l-4 10q-9 16 -7 24q1 10 7 12l19 5q1 0 2.5 1t3.5 2l4 2l41 24q14 9 22 42q1 11 9 53l23 106l2 25q5 23 7 38q-1 2 -4 9t-5 13l-6 17q-1 2 -26 13
q-5 5 -4 13q4 13 41 15l67 -2q11 2 56 3l28 1q12 0 17 -3.5t3 -11.5q-1 -7 -8 -10l-14 -7l-16 -17q-12 -11 -15 -15q-28 -51 -45 -122l-7 -42l-8 -36q-5 -23 5 -23q13 7 43 22q8 5 25 16q14 8 18 8q12 0 12 -9v-12q5 -17 5 -19q-1 -9 -17 -14q-4 -1 -29 -14q-8 -3 -37 -20
q-17 -7 -39 -24q-8 -15 -11 -30l-7 -34q-9 -27 -13 -43q-1 -7 -3.5 -27t-3.5 -29q-1 -28 -12 -54q-4 -5 -4 -22q0 -32 39 -32q12 0 35 4q34 0 41 1z" />
    <glyph glyph-name="lslash" unicode="&#x142;" horiz-adv-x="213" 
d="M262 397q5 0 10 -17q2 -10 3 -17q0 -3 -3 -5l-10 -4l-19 -10l-18 -8q-15 -7 -19 -26q-2 -8 -4 -25l-2 -21l-12 -67q-4 -12 -9 -26q-1 -6 -3 -9q0 -2 -0.5 -7t-1 -14.5t-0.5 -19.5q-3 -30 -4 -44q1 -5 8 -32q2 -6 5 -10l8 -9q2 -4 1 -14q-3 -10 -18 -12h-24h-29h-10h-15
h-7h-22h-10h-11l-5 -1q-7 0 -10 2t-2 6q1 6 7 12l22 20l11 13q19 22 21 31l3 22l10 29l6 22l7 42q1 7 4.5 23.5t5.5 26.5l1 8q0 1 3.5 10.5t3.5 11.5q2 9 -6 9q-6 0 -13 -6q-16 -13 -23 -13q-6 0 -10 12q-1 0 -3 11l-2 9l19 11l18 12q22 7 27 14t13 36q22 87 22 96l-3 27
q4 35 -8 40l-20 12q-2 1 -1 14q3 15 42 31q10 5 27 18l65 36q10 0 7 -13q-5 -9 -9 -21l-4 -31q0 -1 -1.5 -5t-3.5 -8q-4 -8 -8 -27q-2 -10 -4.5 -20t-2.5 -11l-2 -7l-9 -50q-7 -20 -12 -39q-7 -34 4 -34q1 0 9 5q14 11 20 11z" />
    <glyph glyph-name="OE" unicode="&#x152;" horiz-adv-x="871" 
d="M548 686q45 0 75 -12q9 -4 16 -4l45 2h2h18q6 1 8 1q25 0 49 -7q2 -1 5 -1q4 0 23 3q1 1 13 1q6 0 25.5 1t25.5 1q20 0 45 -5l4 -1l4 -1q1 0 15 2t17 2q10 0 14.5 -4.5t3.5 -12.5q0 -3 -6 -50l-4 -11l-1 -6q-3 -21 -4 -41q-2 -38 -15 -38l-18 14q-3 3 -11 39l-7 15
q-4 8 -9 19q-7 10 -26 16q-13 2 -30 3q-1 1 -13 4q-30 10 -48 10q-44 0 -53 -25q0 -1 -2.5 -8.5l-4.5 -13.5l-5 -15l-2 -8q-9 -24 -17 -52q-2 -13 -9 -45q-6 -26 -9 -41q-3 -10 -3 -20q0 -28 26 -28q16 0 31 9q41 24 59 42q11 11 18 11q8 0 10 -11q0 -2 -0.5 -5l-1.5 -9
t-2 -10l-2 -19l-14 -55l-5 -18q-2 -9 -3 -21q0 -7 -1 -12q0 -4 -1 -6q-2 -8 -13 -25q-3 -5 -8 -5l-8 2l-6 12l-8 14l-3 22l-14 17q-4 10 -8 12q-6 6 -30 6q-17 0 -24 -9q-1 -1 -12 -49q-13 -28 -27 -73l-4 -22l-6 -26q-3 -13 -12 -45l-5 -17q-4 -16 9.5 -25t42.5 -10
q1 0 4 -0.5t8 -1t9 -0.5t8 -0.5t7 -1t5 -0.5h3q4 0 38 8q17 5 24 10l23 18q24 14 30 20q16 23 34 54q8 14 20 14t8 -21q-14 -68 -23 -92q-4 -13 -12 -41q-9 -16 -36 -16q-9 0 -46 9q-2 0 -5 -1q-16 -2 -24 -2q-13 1 -44 1h-10q-8 0 -36 -1t-36 -1q-2 0 -17 0.5t-17 0.5h-25
h-24q-42 0 -55 -4q-32 -8 -84 -8q-64 0 -94 10q-105 32 -139 144q-16 52 -21 95q-3 27 -1 54l9 54q1 1 3 20q8 37 34 85q13 24 52 72q1 1 6 7t18 21t25 29q57 49 126 77q49 21 66 23q2 1 43 4t57 3zM480 640q-19 -2 -40 -14q-40 -23 -43 -25q-21 -15 -59 -53q-7 -7 -34 -43
l-19 -26l-13 -21q-1 -2 -19 -30q-5 -12 -13 -46q-7 -37 -10 -52l-16 -66q-6 -16 4 -110q0 -5 22 -36q9 -24 15 -30q6 -4 20 -17q25 -22 38 -28q16 -5 45 -8q7 0 14 -0.5t10.5 -1t4.5 -0.5q35 0 53 8q33 18 41 26q5 5 14 34q4 15 9 28q0 3 2 11.5t4 18t2 10.5l8 37q1 7 3 19
l3 10l2 8q8 34 14 56q6 20 9 31q4 29 13 72l7 29l11 43q6 26 17 55q0 15 -1 28q4 37 -15 62l-1 1q-2 0 -4.5 1t-6 2t-8.5 3l-10 4q-13 4 -42 5z" />
    <glyph glyph-name="oe" unicode="&#x153;" horiz-adv-x="582" 
d="M304 365q24 0 31 -4l11 -7q20 -13 28 -25q12 -18 19 -18q2 0 31 20q27 20 39 25q31 11 47 11q50 0 84 -39q25 -28 25 -52q0 -45 -40 -45q-2 0 -13 1t-13 1q-7 0 -28 -1.5t-27 -1.5h-15q-7 0 -28.5 2t-27.5 2q-20 0 -37 -13q-8 -6 -11 -20q-1 -6 -2 -17q-4 -37 -2 -44
q5 -16 30 -42q19 -20 30 -24q18 -6 33 -6q20 0 61 9q17 4 28 10q1 0 3 1t3 1q8 0 6 -8q-2 -7 -7 -13l-3 -8q-9 -19 -24 -31q-5 -5 -16 -11q-40 -25 -96 -25q-26 0 -60 19q-10 10 -19 23q-6 10 -13 10q-9 0 -55 -34q-26 -18 -66 -18q-94 0 -137 88q-16 33 -14 54q2 24 8 47
q1 4 3.5 15t3.5 16l5 22q4 20 48 64q29 29 82 48q49 18 95 18zM248 325q-16 0 -39 -17q-53 -43 -64 -93q-4 -11 -7 -38l-5 -20q-2 -13 4 -43q2 -20 3 -26q5 -15 14 -20l25 -15q1 -1 5 -3.5t6 -3.5q14 -10 19 -10q46 0 77 58q39 70 33 120l-2 22q-1 2 -7 52q-13 37 -62 37z
M487 331q-22 0 -44 -15t-26 -35q-1 -10 6 -13q16 -6 91 -6q27 0 30 15q5 24 -12.5 39t-44.5 15z" />
    <glyph glyph-name="Scedilla" unicode="&#x15e;" horiz-adv-x="523" 
d="M104 211q7 0 8 -7l8 -57l4 -12q0 -4 9 -31l21 -21l14 -17q10 -13 29 -24q10 -12 18 -14q14 -7 19 -7l31 4q36 2 51 7q9 3 31 22q30 26 31 28q8 9 26 31q22 32 22 68q0 68 -75 95l-30 15l-65 19l-16 10q-28 18 -42 28q-14 19 -22 31q-26 38 -28 66l3 19q2 10 3.5 21
t2.5 16t1 7q4 21 24 50q31 47 96 87l23 14l16 7q45 20 84 20q56 0 65 -1q24 -1 69 -20q10 -1 25 -15q8 -13 10 -49q1 -61 -1 -63l-2 -9l-1 -21q-1 -10 -12 -10t-17 8q-4 4 -9 34q-3 10 -16 26l-21 17l-10 10l-8 8q-12 15 -27 33q-10 9 -29 9q-7 0 -30 -3q-34 -5 -41 -8
q-13 -4 -30 -20l-36 -34q-14 -18 -20 -30q-5 -12 -7 -23q-14 -62 45 -100q12 -8 37 -13l10 -2q30 -8 39 -10l30 -17q13 -5 35 -18l17 -17q34 -35 40 -54q21 -53 19 -67q-8 -70 -14 -88q-14 -40 -51 -74q-34 -29 -50 -41q-4 -3 -40 -22q-38 -18 -65 -20q-21 -2 -31 -4
q-5 -3 -7 -9q-1 -7 1 -9l19 -9q3 -1 8 -12.5t4 -14.5l-8 -21l-2 -13q-2 -12 -14 -19q-29 -23 -48 -23q-26 0 -34.5 5t-18.5 21q-7 8 -5 21q2 6 10 13t14 7q7 0 14 -22q3 -9 29 -9q15 0 20 17q3 16 -1 19l-25 14q-5 3 -3 11q0 2 3.5 12.5t3.5 12.5q3 12 -3 14h-25l-16 1
l-32 8q-5 1 -25.5 4.5t-36.5 6.5q-38 12 -36 38l1 26q1 27 6 48q0 1 1.5 11t3.5 19l2 14q10 51 30 51z" />
    <glyph glyph-name="scedilla" unicode="&#x15f;" horiz-adv-x="307" 
d="M237 354q-25 0 -41 -22q-13 -16 -14 -27q-3 -17 9 -36q5 -8 32 -19l7 -2l17 -12q5 -2 9.5 -4.5t7.5 -3.5l3 -2q24 -24 31 -41q9 -21 2 -55t-36 -70q-28 -34 -60 -45q-33 -11 -34 -12t-3 -8q-3 -13 -1 -17q1 -2 16 -10q3 -3 8 -14t4 -14l-7 -20q-5 -21 -8 -24
q-4 -6 -21 -19q-17 -12 -36 -12q-38 0 -54 25q-6 10 -4 21q1 6 9.5 13t14.5 7q8 0 15 -21q3 -9 28 -9q17 0 21 18q1 4 1 10q0 7 -4 8l-25 14q-3 1 -3 4l6 23l2 7l2 7l2 4q0 2 -16 9q-19 12 -23 12q-8 0 -11 -4l-12 -13q-6 -2 -16 -2q-20 0 -16 16l7 31l2 14q0 2 1 6.5
t2.5 13t2.5 14.5l4 20q2 14 11 14q3 0 8 -11q7 -25 34 -50q20 -18 37 -18h26q27 5 44.5 24t17.5 46q0 28 -31 44l-23 13q-4 6 -35 28q-17 12 -30 24q-17 26 -11 55q15 71 92 91l4 1q5 0 14.5 0.5t20.5 0.5l23 1q8 0 26 -7l39 8q3 1 4.5 -1t2.5 -7q0 -11 -6 -33q0 -1 -5 -23
l-4 -12q-7 -27 -15 -27q-12 0 -25 43q-12 37 -40 37z" />
    <glyph glyph-name="Scaron" unicode="&#x160;" horiz-adv-x="523" 
d="M103 211q8 0 9 -7l8 -57l4 -12q0 -4 9 -31l21 -21l14 -17q10 -13 29 -24q12 -12 18 -14q10 -4 19 -7l31 4q36 2 51 7q9 3 31 22q30 26 31 28q8 9 26 31q22 32 22 68q0 68 -75 95l-30 15l-65 19l-16 10q-28 18 -42 28q-14 19 -22 31q-26 38 -28 66l3 19q2 10 3.5 21
t2.5 16t1 7q4 21 24 50q31 47 96 87l23 14l16 7q45 20 84 20q56 0 65 -1q24 -1 69 -20q10 -1 25 -15q8 -13 10 -49q1 -61 -1 -63l-2 -9l-1 -21q-1 -10 -12 -10t-17 8q-4 4 -9 34q-3 10 -16 26l-21 17l-10 10l-8 8q-12 15 -27 33q-10 9 -29 9q-7 0 -30 -3q-34 -5 -41 -8
q-13 -4 -30 -20l-36 -34q-14 -18 -20 -30q-5 -12 -7 -23q-13 -63 45 -100q12 -8 37 -13l10 -2q30 -8 39 -10q4 -2 30 -18q20 -9 28 -14q14 -9 24 -20q36 -39 40 -55q2 -6 8 -26t11 -34q-2 -32 -8 -64l-4 -23q-6 -37 -53 -81q-19 -17 -51 -40q-37 -28 -79 -39q-27 -6 -41 -5
l-57 3h-26l-16 1l-32 8q-5 1 -25.5 4.5t-36.5 6.5q-38 12 -36 38l1 26q1 23 5 47q0 1 2 11.5t4 19.5l2 14q10 51 29 51zM361 839q6 0 42 -33q17 -36 21 -36q10 0 23 16q19 22 20 23l3 2q3 2 10 7l14 10q20 14 26 14t5 -9q-3 -5 -19 -23l-17 -22l-26 -32l-20 -19
q-11 -17 -14 -20q-7 -6 -22 -6q-5 0 -12 3q0 2 -9 19l-13 25l-6 14q-6 15 -11 30q0 6 -3 19q-3 8 -2 11q1 7 10 7z" />
    <glyph glyph-name="scaron" unicode="&#x161;" horiz-adv-x="307" 
d="M69 127q3 0 8 -11q7 -25 34 -50q20 -18 37 -18h26q27 5 44.5 24t17.5 46q0 28 -31 44l-23 13q-4 6 -35 28q-17 12 -30 24q-17 26 -11 55q15 71 92 91l4 1q5 0 14.5 0.5t20.5 0.5l23 1q8 0 26 -7l39 8q3 1 4.5 -1t2.5 -7q0 -11 -6 -33q0 -1 -5 -23l-4 -12q-7 -27 -15 -27
q-12 0 -25 43q-12 37 -39 37q-26 0 -42 -22q-13 -16 -14 -27q-3 -17 9 -36q5 -8 32 -19l7 -2l17 -11q13 -6 20 -11q24 -24 31 -41q9 -21 2 -55q-6 -29 -33 -65q-31 -42 -88 -58q-21 -7 -36 -7q-11 0 -26 5l-18 12q-1 1 -5 1q-6 0 -11 -5l-12 -13q-6 -2 -16 -2q-20 0 -16 16
l7 32q0 1 0.5 2.5t1 4.5t0.5 6q-1 3 6 34l3 17q5 17 12 17zM193 525q5 0 42 -32q17 -35 20 -35q13 0 29 22q12 14 14 16q13 8 37 24q11 8 16 8q8 0 6 -8q-1 -1 -3.5 -4t-7 -8.5t-8.5 -10.5l-17 -20l-26 -31l-20 -19q-9 -14 -14 -19q-8 -5 -22 -5q-4 0 -12 3q0 2 -9 18
l-13 23l-6 14q-3 10 -15 46q-3 8 -2 10q2 8 11 8z" />
    <glyph glyph-name="Ydieresis" unicode="&#x178;" horiz-adv-x="567" 
d="M298 0h-6q-8 0 -15.5 -0.5t-11.5 -1.5h-4q-7 0 -10 1q-10 1 -19 1l-13 -1h-23q-22 0 -21 9t9 12l24 10q15 8 35 34q25 26 27 36l1 5q3 15 3 17l15 59q4 18 13 45q1 2 3 8l7 54q4 24 5 38q-1 9 -15 42q-6 14 -21 59q-11 19 -16 27q-12 21 -19 41q0 3 -13 33q-17 42 -20 45
l-16 19l-14 20l-12 13q-22 17 -24.5 20t-1.5 9q1 3 6 8q13 1 40 3l34 3q8 0 28 -4q3 0 19 1.5t19 1.5l22 -2q1 -1 23 -1q29 0 26 -16q-2 -6 -10 -13l-19 -17q-12 -12 -13 -21q-3 -14 19 -63q9 -25 31 -55q3 -8 10 -25l10 -22q7 -28 13 -28q29 0 92 92q14 20 19 25
q14 14 30 31q15 15 18 28q3 15 -4 31q0 1 -3 5t-5 8q-7 7 -15 14q-4 2 -2 10q3 16 32 16h10q7 0 19 -1l11 -1q3 0 16.5 2t18.5 2q15 0 39 -4q27 -4 24 -18q-2 -9 -8 -14q-5 -4 -37 -19q-13 -6 -43 -33q-3 -2 -27 -24q-8 -7 -33 -43l-20 -22l-15 -17l-15 -17l-48 -54
q-22 -19 -31 -36q-10 -18 -17 -54l-14 -65q-7 -24 -9 -28q0 -12 -3 -33l-19 -77q-6 -24 -1 -44q5 -17 22 -36q14 -14 12 -23q-1 -7 -9 -6l-22 1q-11 -2 -21 -1zM387 821q11 0 27 -15q9 -8 9 -14q-1 -2 -1 -7t-1 -8v-16q-1 -5 -9 -15q-17 -26 -46 -26q-17 0 -29.5 15t-8.5 32
q3 17 19 30q29 24 40 24zM562 813q52 5 42 -48q-3 -12 -9 -24q-3 -7 -21 -15q-15 -7 -25 -7q-29 0 -29 32q-3 16 9.5 39t32.5 23z" />
    <glyph glyph-name="Zcaron" unicode="&#x17d;" 
d="M339 622q-46 0 -95 -23q-21 -11 -43 -51q-10 -16 -20 -16q-5 0 -8.5 4.5t-1.5 8.5l7 19l4 25l1 3q1 2 3 8l4 12q7 18 5 20q1 3 2 10t1.5 11t2.5 9t5 7.5t8 2.5q2 0 5.5 -1t10.5 -2.5t12 -2.5q10 -2 11 -2q2 0 7 1t14.5 2t18.5 2q1 1 9 1q4 0 31 -5q17 -4 36 -4q12 0 41 4
l65 2q4 0 7 -1q10 0 18 -0.5t12 -1.5h4q21 2 38 2h18q32 0 27 -21q-3 -16 -46 -67q-35 -43 -43 -56q-2 -3 -85 -127q-3 -5 -41 -56l-20 -25l-19 -31q-4 -7 -31 -45q-10 -12 -34 -36l-11 -15l-9 -13l-39 -62l-8 -9q-9 -14 -11 -25q-4 -18 1 -25q11 -11 99 -11q38 0 76 12
q15 4 22 11q4 6 13 15q5 6 19 17l3.5 3.5t3 3.5t2.5 3t2.5 3t2 3t1.5 4t1.5 4t1.5 5t2 6q6 16 20 16q16 0 12 -22q-1 -6 -6 -22l-4 -21l-7 -20q-7 -24 -15 -53q-3 -6 -7 -10l-26 2q-1 1 -16 -1q-9 -1 -14 -1q-17 0 -19 -1q-13 0 -20 -1q-9 -1 -42 1q-21 1 -43 1
q-13 0 -51 -3h-17l-11 -1q-5 2 -20 3l-19 3q-9 4 -49 4q-1 0 -38 -5q-1 -1 -7 -1q-21 0 -16 17q3 19 39 65q8 11 24.5 31t25.5 31q9 9 36 44l9 12l14 17l7 10q3 3 31 39q2 4 11 15q11 12 25 32q18 23 63 99l25 37l26 29l22 26q50 58 57 86q5 21 -9 26l-25 2l-36 2h-24
q-3 1 -9.5 1.5t-9.5 0.5zM362 839q6 0 42 -33q16 -36 21 -36q10 0 23 16q20 22 20 23l3 2q3 2 10 7l14 10q20 14 26 14q7 0 5 -9q-3 -5 -19 -23l-17 -22l-26 -32l-20 -19q-10 -17 -14 -20q-8 -6 -22 -6q-4 0 -12 3q0 2 -9 19l-13 25l-6 14q-6 15 -11 30q0 6 -3 19
q-3 8 -2 11q1 7 10 7z" />
    <glyph glyph-name="zcaron" unicode="&#x17e;" horiz-adv-x="320" 
d="M206 321q-31 0 -36 -1q-9 -1 -35 -13q-8 -5 -25 -23q-3 -3 -7 -3q-6 0 -6 14q0 62 24 62l51 -1l26 1q8 1 30 -3q4 0 22 -2h13l88 1q17 0 13 -17q-1 -8 -18 -25q-22 -20 -23 -24l-32 -46l-18 -20l-19 -25q-1 -2 -13.5 -18t-23.5 -30l-3 -4q-3 -4 -12 -14t-17 -20
q-9 -9 -28 -39q-14 -15 -16 -22q-2 -11 26 -11q3 0 26 3h31q27 0 58 30q22 20 25 20q10 0 6 -22q0 -1 -1 -4.5t-3 -9.5t-4 -13l-3 -14q-4 -18 -9 -22.5t-22 -4.5q-11 0 -14 1q-9 1 -24 1q-6 0 -26 -1.5t-26 -1.5q-17 1 -50 3h-1l-2.5 -0.5t-5.5 -0.5t-7.5 -0.5t-9.5 -0.5
q-3 0 -6 -1q-7 2 -27 3q-39 0 -40 1q-8 4 -7 13q5 19 27 45q2 2 20 24q2 4 36 32l17 17q1 2 3.5 6t6 9.5t6.5 9.5l3 4l2 2q2 3 6 7l9 9q2 3 9 15t13 21q24 22 52 64q2 3 13 20q1 4 -2.5 7t-11.5 4q-22 8 -28 8zM199 525q5 0 42 -32q17 -35 20 -35q13 0 29 22q12 14 14 16
q13 8 37 24q11 8 16 8q8 0 6 -8q-1 -1 -3.5 -4t-7 -8.5t-8.5 -10.5l-17 -20l-26 -31l-20 -19q-9 -14 -14 -19q-8 -5 -22 -5q-4 0 -12 3q0 2 -9 18l-13 23l-6 14q-3 10 -15 46q-3 8 -2 10q2 8 11 8z" />
    <glyph glyph-name="longs" unicode="&#x17f;" horiz-adv-x="229" 
d="M121 224q1 8 3 21q1 7 14 47q9 39 7 46q-5 8 -13 11l-31 -1q-8 2 -7 11q2 9 29 18q28 9 30 20l10 50q1 7 8 19q2 4 18 41l4 10q2 8 33 65q14 27 59 58q29 20 55 20q44 0 44 -35q0 -5 -2 -15q-7 -31 -32 -31q-10 0 -14.5 1t-9 6t-8.5 16q-3 9 -14 9q-18 0 -28 -25l-10 -24
q-16 -40 -21 -57l-9 -52l-3 -23q-7 -28 -18 -93q-5 -15 -15 -65l-5 -26l-5 -22l-5 -25q-70 -270 -102 -391q-36 -68 -70 -92q-34 -25 -78 -25t-44 35q0 5 2 15q7 31 32 31q14 0 21 -4q5 -2 11 -19q3 -9 14 -9q18 0 28 25l17 40q49 188 105 419z" />
    <glyph glyph-name="florin" unicode="&#x192;" horiz-adv-x="309" 
d="M135 349l-32 -1q-5 1 -4 10q5 20 34 24q19 1 26 7q5 1 9 15l25 66q1 2 11.5 20.5t19.5 34.5l8 16l6 10q10 18 44 64q19 26 69 58q33 21 59 21q16 0 32 -13q10 -7 7 -22q-11 -47 -43 -47q-12 0 -20 4q-4 2 -5 9l-3 10q-3 10 -12 10q-19 0 -32 -25l-14 -24q-2 -4 -10.5 -19
t-15.5 -26q0 -1 -2 -6.5t-6 -15.5t-8 -21l-36 -104q-2 -11 6.5 -16.5t28.5 -6.5q11 -2 11 -3q1 -3 1 -18q-3 -11 -13 -12l-37 -2q-15 -1 -31 -31q-10 -25 -19 -43l-10 -26q-5 -13 -49 -125q-1 -3 -14 -43q-9 -16 -25 -46.5t-18 -33.5q-25 -44 -59 -69q-7 -5 -49 -31
q-43 -25 -47 -25q-13 0 -8 14q3 10 9 11l16 4q7 6 25 16q20 9 29 27l18 35q0 1 2.5 7t8.5 19t11 26q11 30 13 35q12 34 30 76l10 24q22 64 28 83q1 1 7.5 15t12.5 27q8 18 15 39q3 14 -10 18z" />
    <glyph glyph-name="circumflex" unicode="&#x2c6;" horiz-adv-x="498" 
d="M367 528q7 0 13 -3q0 -3 9 -19l12 -23l7 -13q6 -15 11 -29q3 -13 4 -18q3 -5 2 -9q-2 -8 -11 -8q-5 0 -42 32q-18 34 -21 34q-13 0 -29 -22q-9 -11 -12 -14t-15 -9q-5 -3 -14 -9t-15.5 -10.5t-9.5 -4.5q-6 0 -5 10q1 3 18 21l16 21l17 18l9 12l20 18q12 18 17.5 21.5
t18.5 3.5z" />
    <glyph glyph-name="caron" unicode="&#x2c7;" horiz-adv-x="498" 
d="M282 525q5 0 42 -32q17 -35 20 -35q13 0 29 22q12 14 14 16q13 8 37 24q11 8 16 8q8 0 6 -8q-1 -1 -3.5 -4t-7 -8.5t-8.5 -10.5l-17 -20l-26 -31l-20 -19q-9 -14 -14 -19q-8 -5 -22 -5q-4 0 -12 3q0 2 -9 18l-13 23l-6 14q-3 10 -15 46q-3 8 -2 10q2 8 11 8z" />
    <glyph glyph-name="breve" unicode="&#x2d8;" horiz-adv-x="499" 
d="M441 516q7 0 4 -13q-5 -20 -25 -42q-6 -3 -37 -30l-36 -14l-9 1q-2 0 -29 4q-19 10 -30 33l-7 13l-1 45l11 -2q6 -2 10 -19q4 -18 13 -21q26 -8 36 -8z" />
    <glyph glyph-name="dotaccent" unicode="&#x2d9;" 
d="M355 496q15 0 32 -17q4 -4 2 -21l-1 -15q0 -3 -8 -14.5t-11 -12.5q-10 -8 -26 -8q-20 0 -32 12t-8 31q3 13 29 33q16 12 23 12z" />
    <glyph glyph-name="ring" unicode="&#x2da;" 
d="M366 525q6 1 22 -6.5t22 -14.5q6 -8 6 -22l1 -13q-6 -26 -29.5 -44.5t-51.5 -18.5q-43 0 -43 42q0 10 3 24q4 24 45 45q16 8 25 8zM356 495q-9 0 -18.5 -9t-11.5 -19q-4 -19 13 -29l15 1q12 1 23 15q5 6 7 13q3 11 -11 22q-7 6 -17 6z" />
    <glyph glyph-name="ogonek" unicode="&#x2db;" 
d="M351 -98q2 -2 0 -5q-7 -31 -68 -31q-21 0 -33.5 19t-8.5 42q5 21 34 46q50 40 93 40q6 0 4 -6q-2 -5 -22 -8l-32 -20q-10 -6 -13 -8l-9 -17q-2 -3 -5 -10t-5 -11q-3 -12 13 -31l7 -7z" />
    <glyph glyph-name="tilde" unicode="&#x2dc;" 
d="M316 496q12 0 35 -13l16 -5q35 -20 39 -20q16 0 51 21q7 0 4 -7q-2 -3 -26 -29q-11 -12 -26 -25q-16 -8 -29 -8q-7 0 -27 5q-3 0 -25 12q-2 1 -28 11q-24 8 -29 8q-6 0 -14.5 -6t-14.5 -12l-7 -6q-9 0 -7 9q2 6 15 18l19 15q32 32 54 32z" />
    <glyph glyph-name="hungarumlaut" unicode="&#x2dd;" 
d="M382 517q24 0 24 -20q0 -18 -14.5 -33.5t-34.5 -21.5l-17 -5q-3 -1 -8 -3.5t-14.5 -7t-17.5 -8.5q-16 -8 -32 -19q-1 -1 -4 -1q-10 0 -8 9q1 7 23 23q5 3 51 52q32 35 52 35zM488 517q24 0 24 -20q0 -21 -23 -41q-10 -9 -26 -14l-17 -5q-1 -1 -14 -7t-25 -12
q-38 -19 -36 -20q-9 0 -8 9q29 28 77 79q22 31 48 31z" />
    <glyph glyph-name="Omega" unicode="&#x3a9;" horiz-adv-x="667" 
d="M713 119l-64 -119h-275l9 44q47 23 65 33q79 44 132.5 118.5t72.5 163.5q10 41 10 83q0 68 -28 118q-48 89 -162 89q-134 0 -229 -122q-88 -112 -88 -252q0 -147 146 -231l-9 -44h-277l-11 119h19q3 -46 35 -61q21 -10 75 -12l107 -3l1 6q-175 73 -175 237q0 35 7 69
q31 142 152 236q110 86 251 86q150 0 223 -91q54 -67 54 -155q0 -122 -85 -228q-77 -98 -225 -154l-1 -6l115 3q57 2 81 14q30 14 55 59h19z" />
    <glyph glyph-name="mu" unicode="&#x3bc;" horiz-adv-x="383" 
d="M231 18q-3 -1 -39 -20q-4 -4 -13 -4q-3 0 -4 1l-44 5q-13 -2 -8 -37q3 -26 1 -37q-6 -23 -24.5 -42t-39.5 -19q-9 0 -17 13.5t-7 23.5l2 15q-3 11 -2 13l1 6q3 15 24 54q22 40 26 62q0 1 0.5 3.5t1 5.5t0.5 6q7 60 12 85q1 6 9 33q2 7 6.5 22.5t6.5 22.5q0 2 1 7t2 13.5
t2 17.5q3 23 1 32q-2 14 -14 25q-22 19 -20 26q1 10 18 10q4 0 35 -6q33 5 34 5q19 0 27 -7t5 -21q0 -1 -15 -43l-35 -173l-7 -21q-1 -1 -2 -4.5t-1 -5.5q-5 -24 8 -40q6 -9 16 -9q8 0 30 8t30 15t21 27t15 27l6 44q10 26 11 36q1 13 6 42q3 13 15 54q9 15 3 28l-15 39
q10 6 13 6q2 0 11 -2t11 -2l45 1q8 0 9 -7q2 -9 -1 -23q-4 -14 -11.5 -47t-11.5 -51l-4 -25l-11 -49q-1 -3 -1 -13l-13 -48q-1 -10 6 -22q14 -24 13 -26q0 -3 -10 -9l-29 -18q-58 -36 -74 -36z" />
    <glyph glyph-name="pi" unicode="&#x3c0;" 
d="M653 467l-11 -52h-152q-51 -81 -62 -131l-33 -155q-9 -47 -9 -63q2 -29 28 -29q22 0 53 12l-3 -17l-114 -39q-7 -4 -12 -4q-24 0 -28 40q-3 30 3 59l32 153q17 75 104 174h-172q0 -1 -2.5 -11.5t-8 -36.5t-11.5 -52q-28 -132 -74 -265q-23 -66 -62 -66q-28 0 -28 23
q0 3 2 11q5 17 36 74q54 96 111 323q-39 -2 -58 -6q-51 -11 -120 -81l-10 13l88 89q37 37 99 37h414z" />
    <glyph glyph-name="endash" unicode="&#x2013;" horiz-adv-x="461" 
d="M107 226q3 0 4 -1l24 -5l16 3q12 2 20 2q6 0 29 -5l30 1l24 -2q2 0 30 6l27 1q28 1 49 -6q2 0 8 1t8 1q1 0 13.5 -1.5t15.5 -1.5q6 0 22.5 2.5t20.5 2.5q10 0 14 -3.5t2 -10.5l-8 -21q-6 -18 -10 -28q-7 -5 -12 -5q-2 0 -18 1.5t-19 1.5q-5 0 -7 -1q-4 -1 -14 -1l-6 2
q-6 2 -8 2q-9 0 -24 -4q-3 -1 -53 -1q-33 5 -45 5q-5 0 -18 -2.5t-17 -2.5t-9 1q-4 0 -9.5 0.5t-8 1t-5.5 0.5h-5h-11q-5 1 -16 2q-2 1 -9 1t-9 -1q-17 -4 -29 -4q-11 0 -14 10q1 -1 3 17l3 23q1 6 8 12.5t13 6.5z" />
    <glyph glyph-name="emdash" unicode="&#x2014;" horiz-adv-x="594" 
d="M476 161l-29 -1l-22 2l-10 -1l-29 1q-7 0 -12 -1l-71 6l-89 -12q-2 0 -15.5 3t-16.5 3l-7 -1q-7 -1 -8 -1q-3 0 -15 1.5t-14 1.5q-6 0 -22.5 -2.5t-20.5 -2.5q-22 0 -17 14l9 21q5 22 9.5 27.5t11.5 5.5q2 0 18 -1.5t19 -1.5h3q2 1 7 1.5t11 0.5l6 -2q7 -2 9 -2
q3 0 16 2.5t17 2.5l18 -1l159 1q33 -5 44 -5q4 0 17.5 2.5t17.5 2.5q5 0 10 -1q5 0 11.5 -0.5t10 -1t5.5 -0.5h12h2q2 -1 6 -1.5t8 -0.5q3 -1 9 -1t8 1q16 4 24 4q10 0 23 -11q5 -5 3 -9q0 -5 -10 -22l-7 -18h-4q-1 0 -33 -4q-8 2 -13 0l-41 -4z" />
    <glyph glyph-name="quoteleft" unicode="&#x2018;" horiz-adv-x="195" 
d="M294 685q7 0 6 -7q-2 -8 -9 -15q-1 -1 -36 -24q-12 -8 -16 -30q-4 -19 14 -33q8 -7 13 -12q2 -4 0 -12q-6 -27 -26 -41q-22 -7 -44 -13q-17 1 -25 21q0 7 -4 22l-5 21q0 1 1 4t2 9t2 11q2 9 7 22q15 37 45 55q7 6 22 14q26 8 53 8z" />
    <glyph glyph-name="quoteright" unicode="&#x2019;" horiz-adv-x="195" 
d="M251 686q19 -1 25 -21q2 -7 5 -22l3 -22q0 -7 -3 -24q0 -1 -9 -22q-13 -34 -43 -55q-16 -11 -22 -14q-21 -7 -54 -7q-7 0 -6 6q1 5 9 16q0 1 36 23q2 1 8 13t7 16q5 20 -14 34q-7 6 -10 9.5t-3.5 7t0.5 7.5q6 27 27 41q4 3 44 14z" />
    <glyph glyph-name="quotesinglbase" unicode="&#x201a;" horiz-adv-x="195" 
d="M126 92q18 -2 24 -21q12 -34 7 -59q-4 -16 -10 -29q-13 -35 -45 -55q-19 -14 -49 -19q-19 -3 -27 -3q-5 0 -3 8q3 8 5 10q7 7 39 28q10 9 15 29q4 18 -14 32q-7 6 -13 13q-2 8 -1 12q6 28 28 40q9 5 44 14z" />
    <glyph glyph-name="quotedblleft" unicode="&#x201c;" horiz-adv-x="336" 
d="M294 685q7 0 6 -7q-2 -8 -9 -15q-1 -1 -36 -24q-12 -8 -16 -30q-4 -19 14 -33q8 -7 13 -12q2 -4 0 -12q-6 -27 -26 -41q-22 -7 -44 -13q-17 1 -25 21q0 7 -4 22l-5 21q0 1 1 4t2 9t2 11q2 9 7 22q15 37 45 55q7 6 22 14q26 8 53 8zM435 685q6 0 5 -7q-2 -8 -8 -15
q-2 -1 -36 -24q-13 -8 -17 -30q-4 -19 14 -33q8 -6 14 -12q3 -4 1 -12q-4 -27 -28 -41q-3 -2 -44 -13q-17 1 -25 21q0 1 -0.5 4t-1.5 8.5t-2 9.5l-4 21q0 9 4 24q0 3 8 22q17 38 44 55q7 6 22 14q26 8 54 8z" />
    <glyph glyph-name="quotedblright" unicode="&#x201d;" horiz-adv-x="336" 
d="M251 686q19 -1 25 -21q2 -7 5 -22l3 -22q0 -7 -3 -24q0 -1 -9 -22q-13 -34 -43 -55q-16 -11 -22 -14q-21 -7 -54 -7q-7 0 -6 6q1 5 9 16q0 1 36 23q2 1 8 13t7 16q5 20 -14 34q-7 6 -10 9.5t-3.5 7t0.5 7.5q6 27 27 41q4 3 44 14zM393 686q18 -2 24 -21q5 -15 8 -44
q1 -7 -3 -24q-1 -4 -8 -22q-13 -33 -44 -55q-16 -11 -22 -14q-21 -7 -54 -7q-8 0 -6 6q1 5 10 16q28 19 35 23q2 1 8.5 13t7.5 16q4 17 -13 33q-16 16 -15 25q6 28 28 41q5 3 44 14z" />
    <glyph glyph-name="quotedblbase" unicode="&#x201e;" horiz-adv-x="336" 
d="M125 92q19 -1 25 -21q0 -1 0.5 -4t1.5 -8.5t2 -9.5l4 -22q0 -7 -3 -24q0 -1 -1.5 -3.5t-3.5 -7t-4 -9.5q-17 -38 -44 -55q-5 -4 -21 -13q-29 -8 -54 -8q-6 0 -5 7q2 7 8 15q0 1 36 23q10 9 15 29q4 19 -14 33q-11 7 -13 11q-2 5 0 13q6 26 27 40q4 3 44 14zM267 92
q17 -2 24 -21q5 -15 8 -44q0 -7 -3 -24q0 -1 -1.5 -4t-3.5 -7.5t-3 -8.5q-13 -34 -45 -55q-5 -4 -21 -13q-27 -8 -54 -8q-6 0 -5 7q1 6 9 15q28 19 35 23q12 10 16 29q4 17 -13 33q-16 15 -15 24q6 27 28 40q5 3 44 14z" />
    <glyph glyph-name="dagger" unicode="&#x2020;" horiz-adv-x="394" 
d="M195 529q21 0 52 -15q12 -5 16 -5q19 0 23 24q3 12 -2 44l1 15l-2 38q11 32 41 50q14 9 23 9q8 0 16.5 -13.5t8.5 -23.5l-1 -14v-8q-1 -30 -10 -42l-18 -25q-9 -12 -14 -33q-5 -18 24 -18q6 0 20 2q1 1 8 5t13 8q8 7 25 7q2 0 19 -5t18 -7q16 -16 11 -32q-3 -12 -15 -26
q-8 -6 -13 -10l-13 -2l-18 -4l-24 6l-18 1q-3 1 -12.5 4.5t-15.5 5.5q-8 0 -19 -15q-15 -27 -11 -46l6 -30q1 -2 -1 -22q6 -25 5 -27q-16 -36 -20 -46l-11 -19l-5 -13l-5 -13l-7 -31q-12 -34 -18 -62l-8 -39l-35 -148q-1 -18 -4 -36q-5 -26 -27 -26q-12 0 -14 11l4 19
q1 4 1 10l1 2q0 3 1 11.5t2 18.5l4 30l10 28v5q0 7 1 11l4 18l4 26l3 9q2 16 5 33l2 18q4 16 6 25l3 17l5 28l1 28q0 4 1 9l1 10q0 1 -2.5 11t-4.5 19q-5 18 9 44l23 46l8 28l11 31q4 25 -19 25q-10 0 -38 -15q-4 0 -27 -4q-5 -1 -16 -2q-2 -1 -10 -1q-13 0 -20.5 10
t-4.5 23q10 55 63 55z" />
    <glyph glyph-name="daggerdbl" unicode="&#x2021;" horiz-adv-x="394" 
d="M218 329q-8 0 -36 -15l-27 -3q-27 -3 -21 -3q-14 0 -21.5 13t-4.5 29q10 46 58 46q6 0 24 -6l11 -2q25 -13 35 -13q19 0 22 14q0 11 1 18l9 33q2 9 -5 16t-16 7q-10 0 -37 -15q-9 -1 -27 -4l-17 -2q-2 -1 -10 -1q-12 0 -19.5 9.5t-5.5 20.5q1 6 13 26q10 18 17 22
q14 10 33 10q1 0 23 -5q21 -5 29 -10q10 -5 17 -5q15 0 21 17q6 14 3 29l-4 22l2 15q-5 27 -3 33q1 7 16 34q15 25 21 25l28 1l8 2q10 -3 15 -26q2 -9 0 -23v-8q2 -32 -9 -42l-18 -25q-12 -15 -15 -33q-4 -18 24 -18q6 0 20 2q6 3 21 13q15 8 20 7l13 -1l15 2q4 -3 17 -16
q9 -23 8 -29q-1 -7 -12 -22q-11 -14 -16 -14l-13 -3l-17 -4l-25 7q-39 11 -47 11q-9 0 -25 -27l-3 -34l-5 -12q-1 -7 4.5 -10.5t15.5 -3.5q11 0 21 3q1 0 21 13l22 4q7 3 11 3q1 0 13 -5l11 -2l8 -9l11 -10l-3 -11v-13q-2 -7 -15 -20q-8 -10 -12 -11l-14 -2l-17 -4l-25 7
h-19q-18 8 -27 11q-6 0 -13 -6.5t-9 -13.5q-2 -12 5 -34q8 -26 4 -45q-5 -18 -16 -40q-14 -27 -18 -40l-6 -17l-10 -43q0 -2 -2 -7.5t-6.5 -17.5t-8.5 -24q-1 -4 -5 -14l-15 -76q-1 -12 -6 -37q-4 -25 -20 -25q-22 0 -16 30q1 4 1 10q3 13 5 32l2 29l7 28q2 6 2 10t2 15
t3 19q1 12 11 79q0 2 1 6t1.5 10t1.5 11q0 11 -4 42q-1 12 2 27q1 8 5 14l18 20l3 13l11 22q1 6 -5.5 13t-15.5 7z" />
    <glyph glyph-name="bullet" unicode="&#x2022;" horiz-adv-x="667" 
d="M438 478q48 0 79.5 -30.5t31.5 -77.5q0 -76 -66 -130q-47 -40 -106 -40q-49 0 -81 29.5t-32 77.5q0 76 66 130q50 41 108 41z" />
    <glyph glyph-name="ellipsis" unicode="&#x2026;" horiz-adv-x="600" 
d="M127 97q20 0 27 -19v-4q-1 -3 -1.5 -10.5t-0.5 -15.5q-1 -26 -10 -37q-25 -20 -50 -20q-10 0 -26 19q-10 12 -8 21q6 29 19 42q23 24 50 24zM319 91q25 0 35.5 -10t6.5 -30q-3 -8 -5 -12l-18 -20l-22 -22q-5 -4 -19 -4q-22 0 -35 10q-10 11 -2 46q3 13 18 24q27 18 41 18
zM507 92q1 0 25 -11q3 -1 24 -13q8 -8 3 -28q-6 -25 -18 -34q-17 -12 -48 -12q-11 0 -29 19q-9 11 -5 31q11 48 48 48z" />
    <glyph glyph-name="perthousand" unicode="&#x2030;" horiz-adv-x="841" 
d="M292 678q74 0 81 -78q4 -38 -4 -79q-2 -7 -7.5 -24t-8.5 -29l-4 -12l-9 -19q-10 -29 -31 -58q-25 -35 -45 -45q-30 -14 -50 -14q-28 0 -41 8q-44 28 -43 85l1 50l4 32q1 5 8 21l3 10l6 18l4 12l5 14q16 47 52 77.5t79 30.5zM293 466l2 7q0 2 0.5 5t1 5.5t0.5 3.5l1 5
l10 36l3 16l5 19q0 5 0.5 11t1 9t0.5 5q-2 30 -11.5 41.5t-34.5 11.5q-18 0 -33 -16q-7 -7 -18 -37q-3 -10 -5 -14q-4 -8 -8 -25l-10 -32q-1 -5 -3 -19l-5 -20l-3 -15l-8 -45q2 -8 3 -25q2 -33 35 -33q32 0 48 19q8 10 14 38l4 10l3 13zM622 684q11 0 16 -4t4 -12
q-2 -8 -6 -12l-88 -111q-13 -19 -53 -69q-15 -17 -71 -90q-2 -2 -6 -8t-7 -9l-17 -17q-3 -5 -7.5 -11t-11 -15t-10.5 -15q-45 -61 -60 -87q-10 -17 -22 -26l-37 -33l-8 -14q-1 -1 -3.5 -4.5t-7 -10t-9.5 -12.5q-10 -10 -32 -41q-15 -15 -40 -42q-4 -5 -13 -17t-13 -17
q-20 -23 -33 -23q-14 0 -20 4t-4 12q1 2 8 9q10 14 17 23q2 2 31 40q2 2 6.5 7t13 14t16.5 17l20 27l40 51l9 12l14 18q20 23 31 33q17 14 49 66q8 13 27 32l17 25l34 38l23 32q21 24 45 54q22 33 49 71q0 1 15 17q1 2 6 8.5t13.5 17.5t17.5 23q23 31 36 41q8 8 21 8z
M505 347q22 0 45 -14q11 -8 26 -49q9 -21 7 -54l1 -19l-1 -13q0 -1 -1 -5t-2 -12.5t-2 -16.5q-2 -15 -3 -18q0 -2 -2.5 -11t-4.5 -16l-6 -30q-3 -12 -14.5 -31.5t-20.5 -26.5q-55 -41 -94 -41q-43 0 -66.5 30t-20.5 76l4 45l2 10q0 11 2 21q4 12 9 32l3 6l3 11q7 10 14 32
q20 56 79 86q18 8 43 8zM522 196l1 7q4 16 4 25l3 14v9q6 29 2 39q-4 7 -17 13t-22 6q-20 0 -34 -11q-9 -10 -20 -29l-10 -18l-9 -45l-4 -15l-9 -39l-1 -4q0 -3 -1.5 -11.5t-2.5 -17.5q-1 -4 -1.5 -12.5t-0.5 -12.5q0 -2 -0.5 -5t-1 -9t-0.5 -10q-4 -16 5.5 -29.5
t24.5 -12.5q27 2 31 4q23 13 37 49q4 5 9 24l4 20l3 16l5 37zM771 347q25 0 39 -8q44 -28 43 -86q-1 -19 0 -32l-1 -11l-1 -6q-1 -11 -3 -32q-1 -5 -8 -21l-3 -10l-15 -45q-13 -43 -49 -74q-38 -32 -82 -32q-41 0 -76 41q-6 7 -10 28t-2 30l7 30q1 2 4 27q2 2 6 18
q1 10 9 34l5 13l9 19q8 24 33 58q26 36 43 45q30 14 52 14zM687 203l-4 -21q1 -1 0 -5l-11 -36l-3 -16l-6 -20q-2 -22 -1 -24q-2 -42 23 -51q9 -3 22 -3q38 0 52 53q2 5 5 14q6 18 8 25l10 33q2 5 3 19l6 20l1 15l9 45q0 2 -0.5 5.5t-1 9t-0.5 10.5q-3 33 -35 33t-48 -19
q-10 -10 -16 -39l-4 -9l-1 -13z" />
    <glyph glyph-name="guilsinglleft" unicode="&#x2039;" horiz-adv-x="229" 
d="M265 354q10 0 9 -10q0 -1 -1.5 -2.5t-4 -4.5t-4.5 -6l-8 -20q-2 -5 -29 -29q-2 -3 -9 -12t-10 -13l-9 -9l-15 -16l-16 -15q-18 -18 -19 -25q-1 -6 11 -23q6 -10 10 -30l4 -13l5 -16l10 -15q20 -29 16 -50q-5 -15 -18 -15q-5 0 -19 12l-13 11q-6 5 -15 30q-6 11 -15 26
l-13 21q-7 5 -25 29q-16 10 -16 14q-4 16 7 31l3 2q3 2 9.5 6.5t12.5 9.5q14 17 32 28q26 16 65 56l18 13q22 17 38 30q7 5 9 5z" />
    <glyph glyph-name="guilsinglright" unicode="&#x203a;" horiz-adv-x="229" 
d="M124 354q6 0 19 -12l12 -11q5 -4 16 -30q1 -4 14 -26l14 -22q10 -7 25 -28q14 -10 16 -15q5 -17 -8 -30l-3 -2q-3 -2 -9.5 -6.5t-12.5 -9.5q-9 -12 -32 -28q-19 -14 -64 -56l-18 -13q-12 -9 -39 -30q-7 -5 -9 -5q-11 0 -8 10q6 8 9 13l9 20q2 5 29 29l19 24l9 10l14 16
l16 15q19 17 20 24q-2 3 -9 24q-12 23 -12 30l-9 28q-7 10 -23 42q-5 18 -3 24q3 15 18 15z" />
    <glyph glyph-name="fraction" unicode="&#x2044;" horiz-adv-x="75" 
d="M372 684q11 0 16 -4t4 -11q-2 -9 -7 -13l-88 -111q-22 -34 -52 -69q-5 -4 -72 -90q-9 -16 -12 -17l-18 -17q-4 -4 -15 -22q-5 -6 -14 -19q-44 -59 -60 -87q-9 -13 -20 -26l-36 -33l-9 -14q-8 -12 -19 -27q-9 -9 -33 -41q-3 -7 -40 -42q-30 -36 -46 -54q-5 -3 -13 -3
q-14 0 -20 4t-4 12q1 1 3.5 4t8.5 10.5l14 17.5q6 11 31 40q14 17 36 38l19 27l41 51l9 12l13 18q9 10 30 33q17 14 49 66q9 13 27 32l17 25l34 38l22 32l46 54l6 8q6 9 17.5 26t24.5 37q6 7 52 66l25 32q17 17 33 17z" />
    <glyph glyph-name="franc" unicode="&#x20a3;" horiz-adv-x="632" 
d="M194 666l20 -1q19 4 36 4q11 0 50 -7q28 0 62 7q43 3 73 3q5 0 49 -3l10 1q5 0 12 1h19h19q6 1 19 1t17.5 -4.5t2.5 -12.5l-6 -24q0 -2 -1.5 -10t-2.5 -14l-16 -77q-4 -19 -15 -19q-17 0 -30 37q0 3 -1.5 9l-4 16t-4.5 19q-5 18 -26 29l-12 5q-2 2 -8 5l-42 -5q-2 0 -4 1
q-9 4 -26 4q-36 0 -57 -25q-5 -5 -9.5 -14.5t-9.5 -23.5t-8 -21l-5 -26q0 -1 -1 -4.5t-3 -9.5t-4 -13l-1 -7q-3 -12 -6 -47l-2 -8q-6 -16 -10 -33q-5 -20 8 -26q7 -3 31 -3q22 0 34 5q12 7 40 41q24 27 44 27q6 0 6 -14t-8 -52q0 -1 -1 -3t-1 -3q-9 -21 -18 -65
q-1 -58 -17 -58q-10 0 -11 7l-12 37q-6 16 -29 30q-20 11 -39 11q-37 0 -50 -57q-6 -24 -14 -46l-9 -41l-2 -17l-20 -91v-24q1 -6 3 -20q1 -5 18 -15q12 -7 10 -17q-1 -7 -15 -7q-1 0 -43 2q-1 1 -4 1q-2 0 -5 -1h-14l-36 3l-66 -3q-9 0 -9 7q2 8 29 28q46 50 56 100l18 87
l3 16l5 27l5 25l17 82l4 24l12 33l6 33l8 27q0 5 4.5 25.5t4.5 27.5q1 1 -1 34v21q0 1 -13 21q-4 8 -9 10l-17 10q-5 2 -3 12q5 17 26 16zM552 217l-10 -46q-1 -13 -6 -25q0 -2 -1.5 -6t-2.5 -6q0 -5 -4 -29l-3 -25q-6 -29 17 -44q24 -15 21 -27t-24 -12q-13 0 -54 3h-6
l-35 -1q-36 0 -33 14q1 5 6 10l23 19q8 6 13 17l22 82l6 33q1 3 11 65q5 36 -5 46q-2 1 -10.5 6t-11 9t-1.5 9q2 8 13 15q15 7 74 41q5 3 20 8l6 -26q18 8 33 17l18 6q22 6 31 6q45 0 45 -47q0 -33 -24 -52q-11 -8 -20 -8q-14 0 -25 12q-4 4 -19 35q-2 2 -3 2q-19 0 -39 -42
q-15 -29 -22 -59z" />
    <glyph glyph-name="trademark" unicode="&#x2122;" horiz-adv-x="812" 
d="M268 362l-7 -34q-4 -31 24 -40q7 -3 4 -16q-2 -11 -13 -9h-13l-26 1l-17 3q-1 0 -14 -2.5t-16 -2.5q-6 0 -7 1q-2 1 -7 1.5t-8 0.5l-26 -3q-4 0 -3 10q2 8 15 14q18 7 28 17q15 15 23 51l6 25l8 48l10 41q6 21 9 36l2 7q1 10 6 41l8 33q1 9 -1 30l-18 -1q-12 6 -15 6
q-20 0 -36 -12q-5 -4 -24 -35q-8 -9 -18 -9t-8 8l11 53l2 32q1 12 13 12l2 -1q1 0 5.5 -0.5t10 -1.5t14 -2.5t18.5 -2.5l23 3q19 0 48 3q5 0 9 1l14 -2l18 -2l19 -3l13 -1h8l30 3q6 0 30 4.5t32 4.5q15 0 12 -12q-1 -1 -4.5 -7t-5.5 -10q-16 -30 -23 -45q-15 -30 -26 -30
q-9 0 -10 6v10q1 19 -4.5 24t-24.5 6q-1 0 -10.5 2t-11.5 2q-13 0 -24 -17q-8 -11 -8 -14l-1 -7l-1 -7q-2 -24 -5 -34q-3 -9 -10 -37q-1 -1 -1 -7l-3 -13l-9 -39l-2 -14q-10 -30 -10 -35zM496 669h8l24 1h2q2 -1 5.5 -1.5t7.5 -0.5h7l34 2q3 1 10 1q17 0 10 -40
q-1 -5 -1 -17q0 -38 21 -113q0 -2 1.5 -8.5t3 -16.5t3.5 -21l2 -14q12 -23 14 -33q4 -16 7 -16q8 0 35 37q10 13 21 34l6 8l8 14l18 27l25 42l16 29l14 22q3 7 18 32q11 18 24 29q10 3 39 3h6l10 -1l21 1q8 0 12 -9q3 -5 2 -9q-1 -6 -4 -7l-19 -7q-18 -15 -22 -24
q-15 -36 -24 -98q-1 -8 -3 -22q-8 -32 -13 -57l-6 -26q-2 -14 -9 -49q-1 -6 -3 -8l-2 -9q-1 -3 1 -31q0 -13 4 -14l15 -11q3 -1 2 -10q-3 -14 -15 -13l-13 1l-27 1l-23 -2l-32 1q-7 0 -11 -1h-14q-9 0 -13 2.5t-3 7.5q2 6 21 18q25 16 33 25q1 4 6.5 23.5t10.5 35.5l3 11
l2 9l7 22l2 14l3 21l4 29q3 27 -7 27q-2 0 -4 -2l-4 -9q-8 -5 -14 -14q-7 -17 -37 -56l-2 -3l-3 -6t-5 -9.5t-7 -13.5t-8 -17q-11 -15 -17 -22l-2 -4q-2 -3 -7.5 -12.5t-10.5 -18.5q-1 -2 -4.5 -7t-9.5 -13.5t-12 -17.5q-12 -16 -17 -16t-10 9q-1 1 -3 31q-1 6 -3 13
t-4.5 16.5t-3.5 14.5q-14 37 -32 122q-1 42 -20 42q-11 0 -17 -30l-9 -38q0 -1 -12 -46l-2 -24q-1 -4 -8 -49q0 -18 3 -20q1 -4 20 -21q12 -11 11 -18q-1 -9 -21 -9h-2q-2 0 -9 0.5t-15 0.5q-14 0 -28 1h-35q-11 1 -16 5t-3 11q0 2 24 18q26 16 36 51q0 1 1 4.5t3 11t4 15.5
q8 28 12 54l3 11q1 6 3.5 14t6 21t6.5 22q0 2 0.5 6.5t1 13t0.5 16.5q1 14 12 64q5 20 0 21q-2 4 -21 16q-13 8 -11 17q3 13 17 13z" />
    <glyph glyph-name="partialdiff" unicode="&#x2202;" 
d="M288 669l13 18q192 -94 221 -290q14 -96 -9 -182q-26 -96 -89 -156q-77 -71 -178 -71q-78 0 -126.5 46t-48.5 123q0 29 7 58q15 75 64 134t118 83q44 15 83 15q90 0 126 -76q-19 203 -181 298zM339 424q-54 0 -95 -37q-70 -62 -92 -171q-8 -43 -8 -73q0 -134 108 -134
q53 0 96 37q68 61 92 171q9 41 9 73q0 134 -110 134z" />
    <glyph glyph-name="increment" unicode="&#x2206;" horiz-adv-x="667" 
d="M497 683l162 -683h-652l452 683h38zM437 591l-302 -456q-24 -36 -27 -52q-4 -16 8.5 -24t40.5 -8h403z" />
    <glyph glyph-name="product" unicode="&#x220f;" horiz-adv-x="667" 
d="M159 667h633l-4 -19h-21q-29 0 -44 -5q-21 -8 -30 -31l-11 -44l-149 -701q-11 -49 -5 -63q8 -17 53 -17h23l-4 -18h-257l4 18h21q44 0 61 17q12 15 22 63l149 701q10 48 5 63q-9 17 -56 17h-154q-36 0 -45 -4q-20 -8 -29 -32q-2 -5 -11 -44l-149 -701q-11 -50 -5 -63
q8 -17 52 -17h24l-4 -18h-256l4 18h21q37 0 53 11q15 10 29 69l149 701q10 48 5 63q-9 17 -54 17h-24z" />
    </font>
</defs>
</svg>
